<?xml version="1.0" encoding="UTF-8" standalone="no"?>
<!-- Created with Inkscape (http://www.inkscape.org/) -->

<svg
   width="160.50031mm"
   height="156.15508mm"
   viewBox="0 0 160.50031 156.15508"
   version="1.1"
   id="svg1"
   xml:space="preserve"
   inkscape:version="1.4.4 (dcaf3e7, 2026-05-05)"
   sodipodi:docname="logos teams.svg"
   inkscape:export-batch-name="Aalener Sportallianz"
   inkscape:export-batch-path="Desktop/Frauenliga"
   xmlns:inkscape="http://www.inkscape.org/namespaces/inkscape"
   xmlns:sodipodi="http://sodipodi.sourceforge.net/DTD/sodipodi-0.dtd"
   xmlns="http://www.w3.org/2000/svg"
   xmlns:svg="http://www.w3.org/2000/svg"><sodipodi:namedview
     id="namedview1"
     pagecolor="#ffffff"
     bordercolor="#000000"
     borderopacity="0.25"
     inkscape:showpageshadow="2"
     inkscape:pageopacity="0.0"
     inkscape:pagecheckerboard="0"
     inkscape:deskcolor="#d1d1d1"
     inkscape:document-units="mm"
     inkscape:zoom="0.037190382"
     inkscape:cx="-4006.4122"
     inkscape:cy="-8779.1516"
     inkscape:window-width="1920"
     inkscape:window-height="1050"
     inkscape:window-x="0"
     inkscape:window-y="30"
     inkscape:window-maximized="0"
     inkscape:current-layer="layer1"><inkscape:page
       x="0"
       y="0"
       width="160.50031"
       height="156.15509"
       id="page1"
       margin="0"
       bleed="0" /></sodipodi:namedview><defs
     id="defs1"><style
       id="style1-7">
      .cls-1 {
        fill: #fff;
      }
    </style></defs><g
     inkscape:label="Ebene 1"
     inkscape:groupmode="layer"
     id="layer1"
     transform="translate(1886.2058,-676.53099)"><path
       style="fill:#006f9d;fill-opacity:1;stroke-width:2.31975"
       d="m -1811.3323,829.59162 c -34.9594,-26.22002 -59.3316,-62.54342 -69.9988,-104.32328 -2.3207,-9.08995 -4.868,-24.06758 -4.8747,-28.66213 v -2.32729 l 3.8872,-1.74413 c 16.9549,-7.60708 36.3165,-12.88406 55.3377,-15.08219 l 7.9751,-0.92161 h 12.8967 12.8967 l 7.6684,0.89703 c 19.4801,2.27876 42.1835,8.4719 55.849,15.23479 l 3.9895,1.97432 -0.1926,2.76197 c -3.4244,48.79646 -32.2752,100.19311 -73.6433,131.19296 -7.1024,5.32218 -6.1328,5.23995 -11.7865,0.99956 z m 10.744,-14.98779 c 31.9175,-25.90008 54.9183,-65.72028 61.3582,-106.22615 l 1.0081,-6.34141 -1.0265,-0.75054 c -3.7232,-2.72255 -29.1059,-9.62261 -42.9268,-11.66936 l -7.3652,-1.0907 -16.8788,-0.007 -16.8785,-0.007 -7.0583,1.09901 c -14.1837,2.2084 -38.9835,9.01735 -42.6749,11.71657 l -1.0318,0.75445 1.5763,8.5791 c 7.5371,41.02301 30.4122,79.58885 62.2633,104.97162 l 4.0408,3.22028 0.6488,-0.38056 c 0.3568,-0.20924 2.5821,-1.94942 4.9453,-3.86693 z m -8.286,-19.36749 c -12.1624,-6.95059 -21.5774,-21.13887 -23.2508,-35.03837 l -0.4842,-4.02218 -1.1749,-0.64327 c -0.6466,-0.35378 -3.3384,-2.73784 -5.9824,-5.29792 l -4.8073,-4.6547 -2.7964,-4.48425 c -4.3621,-6.99503 -7.5367,-18.08967 -7.5367,-26.34036 v -1.39596 l 2.9155,-1.81528 c 1.6034,-0.99837 5.5393,-2.70095 8.7461,-3.78349 l 5.831,-1.96827 7.3652,-0.26199 7.3652,-0.26197 4.3792,0.92779 c 2.4086,0.5103 6.1588,1.63974 8.3338,2.50986 l 3.9544,1.58204 3.639,-1.47868 c 2.0015,-0.81328 5.766,-1.91802 8.3658,-2.45497 l 4.7262,-0.97629 h 5.2689 5.2689 l 4.7309,0.96666 4.7306,0.96665 5.6143,2.64709 5.614,2.64707 0.3853,1.2143 c 0.2111,0.66786 0.093,3.80604 -0.2667,6.97376 l -0.6521,5.75948 -1.7333,5.02916 c -3.0011,8.70847 -11.1167,19.68035 -17.2263,23.28942 l -1.8233,1.07704 -0.3844,2.79459 c -2.1486,15.62303 -9.7193,27.67951 -22.5246,35.87093 -4.1006,2.62318 -3.2328,2.54124 -6.5909,0.62211 z m 8.3314,-15.07223 c 4.2795,-4.47156 6.6137,-8.20729 8.6722,-13.87862 1.7581,-4.84353 1.8785,-4.70462 -2.9489,-3.40415 l -3.9275,1.05809 h -7.3653 -7.3652 l -3.9276,-1.05809 c -4.8274,-1.30047 -4.707,-1.43938 -2.9488,3.40415 2.1729,5.98603 4.4611,9.50756 9.4036,14.47085 l 4.469,4.48806 1.1053,-0.59224 c 0.6078,-0.32574 2.7828,-2.34536 4.8332,-4.48805 z m 6.5524,-28.08862 4.1431,-1.32787 v -1.38082 c 0,-2.63287 -1.8707,-8.71923 -4.0542,-13.19139 l -2.1945,-4.49434 -4.3992,-4.55873 -4.399,-4.55874 h -1.0197 c -4.7912,0 -14.9283,15.81745 -16.2316,25.32698 l -0.3711,2.70753 4.2126,1.30191 c 6.2295,1.92514 6.1233,1.91169 13.4194,1.69962 l 6.7514,-0.19625 z m -32.7303,-21.37753 2.6371,-5.06168 3.9368,-4.25222 3.9371,-4.25225 -1.0889,-0.33061 c -0.5989,-0.18187 -3.0224,-0.63562 -5.3853,-1.00835 l -4.2964,-0.67772 -4.2964,0.42124 c -4.0389,0.39601 -10.753,2.13295 -12.4028,3.20855 l -0.7412,0.48325 0.8834,4.27623 c 1.4134,6.84019 4.8559,13.52772 9.3999,18.26032 l 2.2299,2.32251 1.2747,-4.16382 c 0.7011,-2.29008 2.4615,-6.44154 3.9121,-9.22545 z m 54.8763,2.33864 c 2.1316,-4.26067 4.5268,-12.95683 3.864,-14.02909 -0.1856,-0.30119 -2.4895,-1.20706 -5.1185,-2.01303 l -4.7799,-1.46539 -6.4447,0.0139 -6.4445,0.0139 -2.6471,0.77442 -2.6471,0.77445 3.6641,3.91681 c 2.0152,2.15427 4.7778,5.77647 6.139,8.04939 l 2.4749,4.13252 1.725,5.43857 1.7252,5.43855 3.1616,-3.35803 3.1614,-3.35803 z"
       id="path284"
       sodipodi:nodetypes="csccsscccssccscccscsscccsscsscsccsscsscsscsscccsscssccccccccccsscsssssscccssscssccsscccsscssccscccsscsscsscssssscccccsscccccs" /></g><style
     id="style1">@media(prefers-color-scheme:dark){.lines{fill:#d7d7d7}}</style></svg>
