<?xml version="1.0" encoding="UTF-8" standalone="no"?>
<!-- Created with Inkscape (http://www.inkscape.org/) -->

<svg
   width="106.56296mm"
   height="20.638918mm"
   viewBox="0 0 106.56296 20.638918"
   version="1.1"
   id="svg1"
   xml:space="preserve"
   inkscape:version="1.4.4 (dcaf3e7, 2026-05-05)"
   sodipodi:docname="logos teams.svg"
   inkscape:export-batch-name="logos teams"
   inkscape:export-batch-path="Desktop"
   xmlns:inkscape="http://www.inkscape.org/namespaces/inkscape"
   xmlns:sodipodi="http://sodipodi.sourceforge.net/DTD/sodipodi-0.dtd"
   xmlns="http://www.w3.org/2000/svg"
   xmlns:svg="http://www.w3.org/2000/svg"><sodipodi:namedview
     id="namedview1"
     pagecolor="#ffffff"
     bordercolor="#000000"
     borderopacity="0.25"
     inkscape:showpageshadow="2"
     inkscape:pageopacity="0.0"
     inkscape:pagecheckerboard="0"
     inkscape:deskcolor="#d1d1d1"
     inkscape:document-units="mm"
     inkscape:zoom="0.69712823"
     inkscape:cx="489.14961"
     inkscape:cy="355.02794"
     inkscape:window-width="1920"
     inkscape:window-height="1050"
     inkscape:window-x="0"
     inkscape:window-y="30"
     inkscape:window-maximized="0"
     inkscape:current-layer="layer1"><inkscape:page
       x="0"
       y="0"
       width="106.56297"
       height="20.638918"
       id="page1"
       margin="0"
       bleed="0" /></sodipodi:namedview><defs
     id="defs1" /><g
     inkscape:label="Ebene 1"
     inkscape:groupmode="layer"
     id="layer1"
     transform="translate(-998.45048,1104.8836)"><path
       style="fill:#ab966a;fill-opacity:1;stroke-width:0.547561"
       d="m 1049.8312,-1084.2541 c -2.8902,-0.011 -6.5457,-0.075 -9.6652,-0.1692 -17.4946,-0.5296 -31.9979,-2.2653 -38.1932,-4.5709 -1.5315,-0.57 -2.51596,-1.1359 -3.05187,-1.7544 -0.67479,-0.7787 -0.62211,-1.6347 0.148,-2.4048 0.6442,-0.6442 1.83817,-1.2528 3.61347,-1.8419 0.6985,-0.2317 1.72,-0.5333 1.7398,-0.5135 0.018,0.018 0.2063,0.7335 0.1988,0.756 0,0.012 -0.2595,0.094 -0.5679,0.1821 -2.6189,0.7496 -4.27318,1.5843 -4.70193,2.3725 -0.0648,0.119 -0.0705,0.1453 -0.0705,0.3239 0,0.1789 0.006,0.2049 0.0711,0.3256 0.0391,0.072 0.1171,0.1868 0.17327,0.255 0.49546,0.6009 1.89406,1.3029 3.76696,1.8906 7.2619,2.2787 22.4595,3.8776 40.4592,4.2565 4.8489,0.1021 11.1154,0.1021 15.961,0 16.3437,-0.3444 30.4747,-1.6976 38.378,-3.6751 1.92,-0.4804 3.3277,-0.9553 4.408,-1.4869 0.884,-0.435 1.4156,-0.847 1.6156,-1.252 0.06,-0.1224 0.069,-0.1618 0.069,-0.3137 0,-0.153 -0.01,-0.191 -0.072,-0.319 -0.09,-0.183 -0.3463,-0.4574 -0.611,-0.6545 -0.9157,-0.6818 -2.6125,-1.3491 -5.041,-1.9824 -0.297,-0.077 -0.5772,-0.1475 -0.6227,-0.1556 -0.045,-0.01 -0.087,-0.026 -0.093,-0.041 -0.01,-0.014 0.03,-0.1928 0.079,-0.3969 0.069,-0.2884 0.097,-0.3709 0.1236,-0.3709 0.019,0 0.2976,0.068 0.6192,0.15 2.5472,0.6537 4.4258,1.396 5.4177,2.1407 0.2653,0.1992 0.557,0.4831 0.695,0.6764 0.2035,0.2854 0.3358,0.6605 0.3358,0.9529 0,0.3313 -0.1638,0.7441 -0.423,1.066 -1.3442,1.6696 -6.4152,3.1659 -14.7174,4.3426 -8.4717,1.2008 -19.2307,1.9372 -31.5881,2.1621 -1.224,0.022 -6.6327,0.067 -7.051,0.058 -0.1247,0 -0.7564,-0.01 -1.4039,-0.01 z m -23.5744,-8.8105 c -0.9888,-0.1001 -1.8917,-0.4078 -2.527,-0.8611 -0.8049,-0.5742 -1.1631,-1.3159 -1.2417,-2.5706 -0.012,-0.19 -0.022,-0.3626 -0.022,-0.3834 -10e-5,-0.035 0.073,-0.038 1.2279,-0.038 h 1.2279 l 0.012,0.3186 c 0.015,0.3785 0.06,0.5777 0.1896,0.8261 0.227,0.4363 0.6851,0.7182 1.3918,0.8563 0.2751,0.054 0.9799,0.053 1.2527,-4e-4 0.4165,-0.082 0.8135,-0.2756 1.0404,-0.5062 0.137,-0.1391 0.2717,-0.4001 0.3103,-0.6011 0.014,-0.074 0.022,-0.2461 0.018,-0.3899 -0.01,-0.2483 -0.011,-0.2632 -0.092,-0.4289 -0.1563,-0.3178 -0.4384,-0.5352 -0.9073,-0.6995 -0.1058,-0.037 -0.5724,-0.1697 -1.0367,-0.2947 -1.9586,-0.5275 -2.5498,-0.737 -3.0616,-1.0847 -0.6545,-0.4448 -1.0439,-1.0325 -1.1679,-1.7628 -0.04,-0.2334 -0.032,-0.8273 0.013,-1.0572 0.1351,-0.6858 0.4459,-1.2515 0.9585,-1.7448 0.7601,-0.7314 1.7478,-1.1079 3.1097,-1.1853 1.2382,-0.07 2.4005,0.2146 3.1486,0.7719 0.2733,0.2037 0.6252,0.5624 0.7795,0.7948 0.3005,0.4525 0.4642,0.9943 0.4985,1.6503 l 0.014,0.2681 -0.2789,-0.014 c -0.1534,-0.01 -0.6882,-0.014 -1.1884,-0.014 l -0.9095,-1e-4 -0.012,-0.2429 c -0.038,-0.7661 -0.4142,-1.2668 -1.082,-1.4401 -0.3934,-0.102 -1.0092,-0.098 -1.4114,0.01 -0.8401,0.2236 -1.3377,0.9102 -1.1843,1.6339 0.1047,0.4943 0.4506,0.7532 1.4051,1.0518 0.4613,0.1443 0.9538,0.2789 1.6847,0.4604 0.8073,0.2005 1.0925,0.2859 1.425,0.4268 0.8467,0.3588 1.4521,0.925 1.6827,1.5736 0.1119,0.3149 0.1503,0.5644 0.152,0.9878 0,0.4512 -0.032,0.6763 -0.1601,1.0694 -0.079,0.2404 -0.246,0.6031 -0.363,0.7858 -0.2096,0.3273 -0.613,0.7496 -0.9124,0.9552 -0.089,0.061 -0.273,0.1699 -0.4097,0.2422 -0.6168,0.3262 -1.1746,0.5019 -1.9021,0.5993 -0.2359,0.032 -1.463,0.06 -1.6722,0.039 z m 24.2115,0 c -0.958,-0.097 -1.7973,-0.3753 -2.4622,-0.8162 -0.2583,-0.1714 -0.6799,-0.5923 -0.8196,-0.8185 -0.2937,-0.4754 -0.4565,-1.1 -0.4811,-1.8456 l -0.012,-0.3726 h 1.2202 1.2203 l 0.012,0.3078 c 0.03,0.7449 0.2804,1.168 0.866,1.464 0.664,0.3356 1.7292,0.373 2.4464,0.086 0.465,-0.1862 0.7512,-0.4876 0.8615,-0.9072 0.056,-0.2136 0.051,-0.5766 -0.01,-0.7548 -0.1374,-0.3984 -0.4612,-0.6599 -1.0545,-0.8515 -0.1277,-0.041 -0.5285,-0.1542 -0.8909,-0.2509 -1.6604,-0.4435 -2.2262,-0.6265 -2.7481,-0.8884 -0.313,-0.157 -0.5139,-0.2991 -0.7584,-0.5361 -0.2748,-0.2665 -0.3992,-0.4321 -0.5441,-0.7248 -0.3762,-0.7597 -0.3501,-1.7734 0.067,-2.6056 0.1602,-0.3197 0.3422,-0.5677 0.6247,-0.8514 0.3791,-0.3808 0.7219,-0.6125 1.2268,-0.8291 1.0584,-0.4542 2.5519,-0.5531 3.7465,-0.2482 0.6968,0.1779 1.2122,0.4558 1.6926,0.9125 0.3799,0.3613 0.5881,0.6901 0.7534,1.1898 0.1009,0.3051 0.148,0.5717 0.166,0.9399 l 0.014,0.2789 -0.2789,-0.014 c -0.1534,-0.01 -0.6881,-0.014 -1.1884,-0.014 l -0.9095,-10e-5 -0.012,-0.243 c -0.038,-0.7661 -0.4169,-1.2709 -1.0823,-1.4411 -0.3933,-0.1005 -0.9852,-0.097 -1.4,0.01 -0.3283,0.083 -0.5699,0.2192 -0.8094,0.4553 -0.1659,0.1635 -0.2129,0.2258 -0.2871,0.3806 -0.1605,0.3344 -0.166,0.7134 -0.015,1.043 0.099,0.2159 0.3461,0.4278 0.6708,0.5751 0.3434,0.1557 1.1934,0.4082 2.335,0.6936 0.4275,0.1069 0.9086,0.2381 1.0691,0.2915 0.5554,0.1848 1.0059,0.4387 1.404,0.7911 0.5652,0.5003 0.8219,1.1605 0.7914,2.0354 -0.023,0.6665 -0.2056,1.2351 -0.5789,1.8045 -0.1819,0.2775 -0.628,0.7259 -0.8962,0.9009 -0.6598,0.4305 -1.4154,0.7017 -2.2769,0.817 -0.2358,0.032 -1.4629,0.06 -1.6722,0.039 z m 29.8703,-0.034 c -0.275,-0.031 -0.683,-0.1199 -0.9302,-0.2026 -0.8591,-0.2874 -1.5144,-0.8602 -1.9261,-1.6837 -0.5102,-1.0203 -0.6161,-2.3116 -0.2942,-3.5853 0.1953,-0.7728 0.6128,-1.4721 1.1747,-1.9675 1.3138,-1.1584 3.4326,-1.2998 4.8699,-0.3249 0.271,0.1838 0.7411,0.6558 0.9172,0.921 0.2822,0.4247 0.4957,0.956 0.5825,1.4492 0.063,0.3588 0.087,0.7024 0.088,1.2451 l 2e-4,0.4806 h -2.7348 -2.7349 l 0.011,0.3834 c 0.012,0.4119 0.031,0.5104 0.1617,0.8204 0.09,0.2139 0.2864,0.5026 0.4257,0.6254 0.2873,0.2533 0.5384,0.3528 0.9295,0.3681 0.3159,0.012 0.5517,-0.036 0.8281,-0.1695 0.3771,-0.1824 0.5787,-0.4803 0.7037,-1.0397 l 0.013,-0.059 h 1.0981 c 1.1962,0 1.2985,0.01 1.2985,0.067 0,0.022 -0.038,0.1561 -0.085,0.2984 -0.3576,1.089 -1.0712,1.7909 -2.1951,2.1591 -0.5248,0.1719 -1.0031,0.2416 -1.6291,0.2372 -0.2198,0 -0.4774,-0.012 -0.5725,-0.022 z m 2.1594,-5.2048 c 0.018,-0.018 -0.029,-0.4251 -0.067,-0.5764 -0.1132,-0.4521 -0.3667,-0.7989 -0.7186,-0.9834 -0.4436,-0.2325 -1.0582,-0.2101 -1.5106,0.055 -0.067,0.039 -0.2051,0.1543 -0.3063,0.2553 -0.1449,0.1446 -0.2035,0.2226 -0.2757,0.3672 -0.1094,0.2192 -0.1707,0.4489 -0.1908,0.7161 l -0.015,0.1966 1.5362,-0.01 c 0.8449,0 1.5414,-0.015 1.5478,-0.021 z m -22.6129,5.1862 c -0.5991,-0.068 -1.078,-0.2519 -1.4626,-0.5622 -0.4166,-0.3363 -0.6712,-0.7741 -0.7945,-1.3663 -0.1122,-0.5389 -0.1154,-0.6297 -0.1238,-3.5406 l -0.01,-2.716 h 1.1242 1.1242 v 2.3417 c 0,1.3895 0.01,2.4763 0.022,2.6728 0.061,0.8959 0.199,1.2168 0.6506,1.5087 0.2159,0.1395 0.3087,0.1617 0.6661,0.1595 0.2493,0 0.3485,-0.011 0.486,-0.049 0.5154,-0.1396 0.8932,-0.484 1.0579,-0.9644 0.1019,-0.2972 0.1019,-0.2977 0.1126,-3.0616 l 0.01,-2.608 h 1.1223 1.1224 v 3.3856 c 0,2.2493 0.01,3.4797 0.021,3.6662 0.028,0.3351 0.079,0.7275 0.1091,0.8317 0.012,0.041 0.022,0.082 0.022,0.091 0,0.01 -0.4995,0.016 -1.1099,0.016 h -1.1098 l -0.046,-0.2423 c -0.025,-0.1333 -0.057,-0.3632 -0.071,-0.5109 l -0.025,-0.2685 -0.041,0.052 c -0.3283,0.4154 -0.5531,0.6097 -0.9669,0.836 -0.2035,0.1112 -0.6173,0.2491 -0.8856,0.2951 -0.2479,0.043 -0.767,0.059 -1.0043,0.032 z m 12.5067,-10e-4 c -0.6515,-0.062 -1.3225,-0.2896 -1.692,-0.5734 -0.2396,-0.184 -0.4625,-0.4823 -0.5898,-0.7893 -0.1112,-0.2679 -0.2141,-0.7723 -0.2141,-1.0487 v -0.092 h 1.0444 1.0443 l 0.012,0.163 c 0.028,0.3676 0.2906,0.7022 0.635,0.8086 0.2667,0.082 0.6708,0.038 0.9086,-0.1008 0.2348,-0.1365 0.4358,-0.4355 0.4784,-0.7113 0.024,-0.159 -6e-4,-0.3903 -0.06,-0.545 -0.058,-0.1516 -0.2133,-0.3634 -0.3752,-0.5105 -0.1983,-0.1801 -0.4667,-0.3511 -1.2047,-0.7671 -0.8434,-0.4755 -0.9813,-0.5672 -1.2333,-0.8195 -0.1821,-0.1824 -0.2208,-0.2351 -0.3185,-0.4338 -0.144,-0.2929 -0.1778,-0.4265 -0.1909,-0.7553 -0.012,-0.3091 0.014,-0.4695 0.1222,-0.7509 0.1263,-0.3275 0.2787,-0.5246 0.8634,-1.1173 0.3479,-0.3527 0.5597,-0.5849 0.6104,-0.6696 0.144,-0.2402 0.1788,-0.466 0.114,-0.7408 -0.059,-0.2508 -0.156,-0.386 -0.3875,-0.5408 -0.2966,-0.1984 -0.724,-0.2936 -1.1069,-0.2464 -0.7069,0.087 -1.189,0.5498 -1.3886,1.333 -0.1203,0.4719 -0.116,0.3098 -0.1238,4.6821 l -0.01,4.0334 h -1.144 -1.144 l 3e-4,-3.6231 c 2e-4,-2.0841 0.01,-3.7836 0.021,-4.001 0.062,-1.1114 0.288,-1.8889 0.731,-2.5161 0.1575,-0.2231 0.5331,-0.5986 0.7288,-0.7286 0.2306,-0.1533 0.6994,-0.3742 0.9976,-0.4701 0.5567,-0.1789 1.1345,-0.2525 1.8081,-0.2303 0.9689,0.032 1.6962,0.2374 2.3402,0.661 0.3583,0.2356 0.7439,0.6642 0.8982,0.9982 0.1422,0.3078 0.1737,0.4617 0.1739,0.8496 2e-4,0.3081 -0.01,0.3619 -0.052,0.4968 -0.1715,0.502 -0.5137,0.9346 -1.0166,1.285 -0.3211,0.2238 -0.4687,0.3479 -0.5651,0.4752 -0.1534,0.2027 -0.1809,0.2831 -0.1809,0.5296 0,0.2 0.01,0.2271 0.069,0.3564 0.075,0.1508 0.1797,0.2711 0.3186,0.3648 0.048,0.032 0.3498,0.1982 0.6706,0.3686 1.0825,0.5749 1.2011,0.6495 1.4788,0.9298 0.4454,0.4496 0.6435,0.8095 0.7371,1.3385 0.043,0.2459 0.038,0.7918 -0.01,1.0151 -0.084,0.391 -0.2527,0.7364 -0.5294,1.0827 -0.4077,0.5099 -1.0856,0.8399 -2.0119,0.9793 -0.2784,0.042 -0.9718,0.059 -1.2622,0.031 z m -62.3228,-0.1982 c 0,0 0.9746,-2.4983 2.1657,-5.5453 l 2.1658,-5.5399 1.3874,-0.01 1.3874,-0.01 0.032,0.07 c 0.036,0.078 4.3084,11.0092 4.3084,11.0229 0,0 -0.5627,0.01 -1.2504,0.01 h -1.2505 l -0.1213,-0.3294 c -0.067,-0.1812 -0.2662,-0.723 -0.4433,-1.2041 l -0.322,-0.8747 -2.3505,-0.01 h -2.3505 l -0.3976,1.1281 c -0.2187,0.6205 -0.4117,1.1646 -0.4289,1.2092 l -0.031,0.081 h -1.2504 c -0.6877,0 -1.2503,0 -1.2503,-0.01 z m 7.3598,-4.3196 c -0.7411,-2.0491 -1.6492,-4.5302 -1.6582,-4.5302 -0.012,0 -1.6426,4.5101 -1.6417,4.541 3e-4,0.01 0.7451,0.016 1.6551,0.016 1.3144,0 1.6525,-0.01 1.6448,-0.027 z m 18.1044,-0.2754 v -4.6004 h -1.7603 -1.7602 v -0.9503 -0.9504 l 4.7246,0.01 4.7246,0.01 0.01,0.9233 0.01,0.9233 h -1.7497 -1.7497 v 4.622 4.622 h -1.2203 -1.2203 z m 50.8132,0.9666 -0.01,-3.6339 -0.053,-0.3456 c -0.029,-0.1901 -0.049,-0.3529 -0.044,-0.3618 0,-0.01 0.5031,-0.016 1.1077,-0.016 h 1.0993 l 0.011,0.07 c 0.01,0.039 0.021,0.216 0.034,0.3942 0.012,0.1782 0.028,0.3659 0.034,0.4172 l 0.012,0.093 0.2428,-0.2336 c 0.2594,-0.2495 0.4995,-0.4093 0.9012,-0.5995 1.0056,-0.4764 2.2878,-0.441 3.0882,0.085 0.088,0.058 0.2571,0.2033 0.3759,0.3233 0.3253,0.3286 0.4961,0.6671 0.5957,1.1809 0.077,0.3954 0.085,0.7264 0.085,3.5225 v 2.7376 h -1.123 -1.1232 l -4e-4,-2.3812 c -4e-4,-2.4036 -0.014,-3.0075 -0.075,-3.2697 -0.094,-0.4055 -0.442,-0.7674 -0.864,-0.8985 -0.478,-0.1486 -1.182,0.054 -1.5772,0.454 -0.1246,0.126 -0.323,0.4208 -0.385,0.572 l -0.046,0.1131 -0.01,2.7051 -0.01,2.7052 h -1.1325 -1.1325 z m -27.7464,-6.1609 v -0.9179 h 0.9719 0.972 v 0.9179 0.9179 h -0.972 -0.9719 z m 3.283,-0.032 v -0.9072 h 0.9719 0.9719 v 0.9072 0.9071 h -0.9719 -0.9719 z"
       id="path1-5"
       sodipodi:nodetypes="scsssscsssssssssssssssssscscsssssscsscsssscssscsssssssscssssscsscsscssssscsssscccsssscccsssssscsssssssssscsscssssssssssssscsscsssssssscccsssscscsscscccccscssscccccssscccscsccssccccccssccscssccccssscccsssscssssccssssssscccscssssssscsssccssssssccsscccssscsscccsscssssssssscccccccccccccccccccscscccccsssssscccssssscccccccccccccccccccccccc" /></g></svg>
