<?xml version="1.0" encoding="UTF-8" standalone="no"?>
<!-- Created with Inkscape (http://www.inkscape.org/) -->

<svg
   width="107.35365mm"
   height="40.971146mm"
   viewBox="0 0 107.35365 40.971146"
   version="1.1"
   id="svg1"
   xml:space="preserve"
   inkscape:version="1.4.4 (dcaf3e7, 2026-05-05)"
   sodipodi:docname="logos teams.svg"
   inkscape:export-batch-name="TSV Neustadt"
   inkscape:export-batch-path="Desktop/Liga"
   xmlns:inkscape="http://www.inkscape.org/namespaces/inkscape"
   xmlns:sodipodi="http://sodipodi.sourceforge.net/DTD/sodipodi-0.dtd"
   xmlns="http://www.w3.org/2000/svg"
   xmlns:svg="http://www.w3.org/2000/svg"><sodipodi:namedview
     id="namedview1"
     pagecolor="#ffffff"
     bordercolor="#000000"
     borderopacity="0.25"
     inkscape:showpageshadow="2"
     inkscape:pageopacity="0.0"
     inkscape:pagecheckerboard="0"
     inkscape:deskcolor="#d1d1d1"
     inkscape:document-units="mm"
     inkscape:zoom="0.25753845"
     inkscape:cx="-7620.2212"
     inkscape:cy="491.18878"
     inkscape:window-width="1920"
     inkscape:window-height="914"
     inkscape:window-x="0"
     inkscape:window-y="31"
     inkscape:window-maximized="0"
     inkscape:current-layer="layer1"><inkscape:page
       x="1.0788844e-20"
       y="0"
       width="107.35365"
       height="40.971146"
       id="page2"
       margin="0"
       bleed="0" /></sodipodi:namedview><defs
     id="defs1"><style
       id="style1-7">
      .cls-1 {
        fill: #fff;
      }
    </style></defs><g
     inkscape:label="Ebene 1"
     inkscape:groupmode="layer"
     id="layer1"
     transform="translate(2398.0984,-729.32728)"><path
       style="fill:#5bad2a;fill-opacity:1"
       d="m -2296.0006,770.10817 c -0.8307,-0.23238 -1.6865,-1.38187 -1.4628,-1.9648 0.2681,-0.69876 1.3511,-0.57138 1.5399,0.18112 0.1162,0.46302 0.3871,0.66461 1.0171,0.75707 1.0648,0.15628 1.7923,-0.26987 1.7923,-1.04984 0,-0.63053 -0.2422,-0.72966 -2.3532,-0.96325 -1.5947,-0.17646 -2.0131,-0.8295 -1.1101,-1.7325 0.4974,-0.49746 0.4953,-0.51478 -0.1323,-1.10445 -1.0784,-1.01305 -0.7811,-2.63748 0.6191,-3.38334 0.6251,-0.33299 4.4843,-0.27795 5.0506,0.072 0.4894,0.30248 0.3578,0.665 -0.3014,0.83045 -0.4853,0.12182 -0.6085,0.33437 -0.6085,1.05021 0,1.16454 -0.6525,1.85709 -2.0908,2.21927 -1.1874,0.29899 -1.8108,0.79515 -1.0734,0.85427 0.2269,0.0182 0.5316,0.0628 0.6771,0.0992 0.1455,0.0364 0.6218,0.081 1.0583,0.0992 1.0981,0.0457 1.8521,0.87484 1.8521,2.03635 0,0.51972 -0.1488,1.08665 -0.3307,1.25986 -0.9011,0.85801 -2.6213,1.16486 -4.1433,0.73909 z m 2.3067,-7.23446 c 0.072,-0.86586 3e-4,-1.00366 -0.5988,-1.15402 -0.8219,-0.20629 -1.4672,0.2592 -1.4672,1.05844 0,0.78835 0.5265,1.24923 1.3211,1.15637 0.5573,-0.0651 0.6763,-0.23463 0.7449,-1.06079 z m -54.5501,4.53595 c -1.4011,-1.10211 -0.5323,-3.9428 1.209,-3.95316 1.3371,-0.008 1.8304,-0.29637 1.7461,-1.0209 -0.1009,-0.86748 -0.7035,-0.99613 -1.9331,-0.41267 -0.9042,0.42906 -0.9641,0.42713 -1.3072,-0.0422 -0.462,-0.63179 0,-0.98965 1.7516,-1.36109 0.9676,-0.20501 1.4135,-0.177 2.0442,0.12846 0.92,0.44561 1.0008,0.75492 1.1699,4.48269 0.083,1.83096 0.025,2.46475 -0.233,2.56396 -0.1889,0.0725 -0.4783,-0.0307 -0.6431,-0.22928 -0.2529,-0.30465 -0.4406,-0.30219 -1.2015,0.0157 -1.2239,0.51139 -1.7814,0.47464 -2.6029,-0.17157 z m 2.6055,-0.94003 c 0.2611,-0.26106 0.3985,-0.75493 0.3497,-1.25677 -0.072,-0.74296 -0.1593,-0.8182 -0.8581,-0.7427 -1.2705,0.13724 -1.842,1.22738 -1.0556,2.01376 0.5317,0.53168 1.0225,0.5272 1.564,-0.0143 z m 11.3355,1.10551 c -1.1344,-0.49773 -1.6787,-1.41329 -1.8549,-3.11978 -0.2433,-2.35819 0.9038,-3.90567 2.8953,-3.90567 1.3423,0 2.2444,0.63609 2.5713,1.81314 0.5807,2.09062 0.5256,2.15561 -1.8282,2.15561 h -2.0991 l 0.1253,0.69087 c 0.2399,1.32344 1.4965,1.83209 2.8011,1.1339 0.4188,-0.22412 0.5981,-0.20876 0.7723,0.0661 0.3349,0.52848 0.2944,0.63615 -0.3603,0.95938 -1.0347,0.51078 -2.1547,0.58726 -3.0228,0.2064 z m 2.2952,-4.6253 c 0,-1.0541 -1.4513,-1.77127 -2.0461,-1.01108 -0.1423,0.1819 -0.3243,0.59862 -0.4045,0.92604 -0.1362,0.55627 -0.061,0.59531 1.1524,0.59531 1.1058,0 1.2982,-0.0756 1.2982,-0.51027 z m 10.6032,4.65681 c -0.9821,-0.33606 -1.1959,-0.63974 -0.843,-1.19729 0.174,-0.27492 0.3533,-0.29027 0.7721,-0.0661 0.9035,0.48355 2.3752,0.36366 2.687,-0.21889 0.3559,-0.66501 -0.1742,-1.21765 -1.386,-1.445 -2.0789,-0.39 -2.7503,-2.52738 -1.1643,-3.70647 1.2679,-0.94256 4.1194,-0.55308 3.7125,0.5071 -0.1028,0.26794 -0.4706,0.32314 -1.411,0.21175 -1.1588,-0.13724 -1.2891,-0.0965 -1.4651,0.458 -0.2126,0.66986 0.3899,1.31041 1.2327,1.31041 0.8472,0 1.8242,0.61022 1.9817,1.23773 0.2385,0.95016 -0.1102,2.30321 -0.6862,2.66295 -0.7698,0.48074 -2.4021,0.59772 -3.4304,0.24586 z m 13.7384,0.009 c -0.7376,-0.37289 -1.0068,-1.48827 -1.0351,-4.28804 -0.022,-2.19831 0.1781,-2.82477 0.8712,-2.72586 0.5181,0.0739 0.5659,0.26143 0.6269,2.46128 0.09,3.23675 0.1869,3.57187 1.0343,3.57187 1.1183,0 1.3954,-0.66184 1.4047,-3.35561 0.01,-2.23222 0.054,-2.44389 0.5643,-2.60597 0.3057,-0.097 0.657,-0.0751 0.7808,0.0486 0.1238,0.12376 0.2441,1.69796 0.2674,3.49821 0.032,2.51128 -0.042,3.32501 -0.3178,3.49585 -0.2203,0.1362 -0.4991,0.0838 -0.7179,-0.13494 -0.3006,-0.30042 -0.4698,-0.29915 -1.0584,0.008 -0.8673,0.45253 -1.5627,0.46019 -2.4204,0.0266 z m -77.1889,-0.53717 c -0.7867,-1.72675 -0.619,-6.51356 0.3241,-9.25107 0.2073,-0.60155 0.3366,-1.13397 0.2874,-1.18316 -0.049,-0.0492 -0.55,0.17396 -1.1128,0.49591 -1.9473,1.11391 -2.5219,1.35141 -3.3583,1.3881 -0.7744,0.034 -0.8337,-0.0225 -0.7588,-0.72308 0.087,-0.81204 0.4907,-1.5511 1.7247,-3.15593 l 0.7731,-1.00544 -0.7603,0.16742 c -0.4182,0.0921 -1.1176,0.28541 -1.5541,0.42962 -0.4366,0.14422 -1.9375,0.32933 -3.3354,0.41138 -2.6936,0.15809 -3.1415,-0.003 -2.635,-0.94967 0.3634,-0.67902 3.4697,-3.14124 5.2342,-4.14893 l 1.4173,-0.8094 -1.7957,-0.3489 c -2.425,-0.47114 -4.4068,-1.47048 -6.0673,-3.05939 -2.7787,-2.65897 -2.0021,-3.44042 2.3718,-2.38664 1.4886,0.35865 3.5966,0.7315 4.6844,0.82857 l 1.9778,0.17649 -0.5766,-0.63213 c -0.6918,-0.75861 -2.2016,-3.57484 -2.2016,-4.10688 0,-0.78376 0.9026,-0.66234 3.2031,0.43094 1.3052,0.62025 2.4447,1.05609 2.5323,0.96852 0.088,-0.0876 -0.1434,-1.02567 -0.5133,-2.08466 -0.3698,-1.059 -0.8032,-2.5564 -0.9629,-3.32754 -0.3133,-1.51261 -0.3909,-4.77496 -0.1298,-5.45545 0.2946,-0.76771 1.1318,-0.45392 1.8837,0.70597 0.4009,0.61846 0.7895,1.18401 0.8636,1.25677 0.074,0.0728 0.7102,1.32292 1.4136,2.77813 0.7033,1.4552 1.5329,3.02383 1.8435,3.48583 l 0.5648,0.84 0.8048,-1.6868 c 0.9056,-1.89842 3.9407,-5.8553 5.2674,-6.86719 0.4807,-0.36665 1.1459,-0.66664 1.4781,-0.66664 0.5542,0 0.5905,0.0855 0.4391,1.03257 -0.136,0.85052 -1.0691,3.97978 -2.5609,8.58809 -0.2236,0.69066 -0.2057,0.7255 0.2039,0.39688 0.2469,-0.19814 1.2076,-1.159 2.1349,-2.13525 2.4276,-2.5558 3.4048,-2.66516 3.0529,-0.34166 -0.1331,0.8793 -1.3257,4.50352 -2.0678,6.28385 -0.1743,0.41808 0.01,0.46299 1.8858,0.46266 1.1434,-2e-4 3.0909,-0.17863 4.3278,-0.39651 2.8242,-0.49748 3.4178,-0.49703 3.6095,0.003 0.2171,0.56571 -1.0831,2.16585 -2.4793,3.0513 -1.292,0.81936 -3.9294,1.68729 -6.2752,2.06507 -0.3974,0.064 2.041,1.52627 5.1199,3.07043 3.3002,1.65509 3.6898,1.99866 3.0228,2.66562 -0.3974,0.3974 -0.8225,0.44043 -3.118,0.3156 -1.557,-0.0847 -3.3654,-0.36881 -4.3662,-0.68601 -0.9397,-0.2978 -1.7519,-0.49798 -1.8051,-0.44485 -0.221,0.22103 1.3235,2.2391 2.846,3.71847 2.0154,1.95842 2.5462,2.84602 1.982,3.31427 -0.924,0.76683 -4.7242,-0.538 -7.0807,-2.43122 l -1.6421,-1.31925 -0.1596,2.95657 c -0.1575,2.91946 -0.332,3.41708 -1.2021,3.42871 -0.6646,0.009 -1.8805,-1.82455 -2.3429,-3.53276 -0.2613,-0.96517 -0.5466,-1.75329 -0.6342,-1.75138 -0.1528,0.003 -1.1502,2.02533 -1.9558,3.96527 -1.4771,3.55667 -1.9185,4.44915 -2.5189,5.09323 -0.8251,0.88511 -0.9469,0.89566 -1.3036,0.11285 z m 7.6288,-12.80375 c 0.4227,-0.24966 0.7685,-0.53758 0.7685,-0.63982 0,-0.10224 0.064,-0.35221 0.1418,-0.55549 0.078,-0.20327 -0.1544,-0.68926 -0.5165,-1.07997 -0.8136,-0.87785 -2.0043,-0.93644 -3.1049,-0.15277 -0.6275,0.44684 -0.767,0.72158 -0.7023,1.38303 0.136,1.38862 1.9115,1.93222 3.4134,1.04502 z m -5.5413,-2.57136 c 0.6006,-1.31814 -1.5104,-3.39691 -2.5627,-2.52359 -0.5229,0.43402 -0.4922,2.08468 0.05,2.68377 0.6702,0.7405 2.1452,0.64647 2.5128,-0.16018 z m 9.7494,-1.47264 c 0.6092,-0.60923 0.6924,-2.01173 0.1608,-2.71198 -0.8245,-1.08611 -2.8067,0.0135 -2.8067,1.55704 0,0.76389 0.8675,1.68411 1.5875,1.68411 0.2911,0 0.7673,-0.23812 1.0584,-0.52917 z m -5.4782,-0.57095 c 0.9957,-0.53289 1.3096,-1.01449 1.4452,-2.21732 0.1698,-1.50708 -0.3829,-2.37829 -1.7731,-2.79481 -1.3461,-0.40329 -2.298,-0.0345 -3.1582,1.22352 -1.606,2.34899 0.9617,5.1396 3.4861,3.78861 z m -5.1052,-3.3978 c 0.2911,-0.29104 0.5292,-0.75878 0.5292,-1.03943 0,-0.5579 -0.658,-1.34182 -1.1263,-1.34182 -0.517,0 -1.5195,1.13015 -1.5195,1.713 0,1.20055 1.2041,1.58073 2.1166,0.66825 z m 9.0133,-1.59681 c 0.6804,-0.36418 0.6708,-1.68372 -0.017,-2.37194 -1.4856,-1.4856 -3.3272,0.60853 -1.9195,2.18282 0.4679,0.52334 1.1821,0.59308 1.9369,0.18912 z m -5.4947,-1.29333 c 0.7335,-0.27888 1.0629,-0.92769 0.8352,-1.64505 -0.1138,-0.35853 -0.4123,-0.49189 -1.1013,-0.49189 -1.3517,0 -2.1653,1.24597 -1.3475,2.06375 0.3812,0.3812 0.7585,0.39831 1.6136,0.0732 z m 24.2627,19.97741 c 0,-2.38919 -0.072,-4.53232 -0.1606,-4.7625 -0.1388,-0.36152 0.1475,-0.41852 2.1019,-0.41852 2.0102,0 2.3453,0.0712 3.0049,0.63855 0.6295,0.5415 0.7423,0.83987 0.7423,1.96306 0,1.03764 -0.1389,1.47239 -0.6414,2.00729 -0.3528,0.37552 -0.7993,0.68277 -0.9922,0.68277 -0.4666,0 -0.445,0.38617 0.044,0.79236 0.3913,0.32469 1.9861,2.95435 1.9861,3.27474 0,0.0914 -0.335,0.16623 -0.7444,0.16623 -0.6345,0 -0.9359,-0.29276 -2.0425,-1.98437 -0.714,-1.09141 -1.4506,-1.98438 -1.6369,-1.98438 -0.2451,0 -0.3387,0.54822 -0.3387,1.98438 0,1.94028 -0.015,1.98437 -0.6615,1.98437 h -0.6614 z m 3.8175,-1.36346 c 0.2287,-0.22867 0.4158,-0.69642 0.4158,-1.03943 0,-0.92105 -0.6868,-1.45521 -1.871,-1.45521 h -1.0394 v 1.45521 1.45521 h 1.0394 c 0.5922,0 1.2184,-0.17891 1.4552,-0.41578 z m 11.3166,4.99443 c -2.2434,-6.08474 -2.3422,-6.6047 -1.2144,-6.3875 0.4938,0.0951 1.9441,3.4943 1.9571,4.58697 0.01,0.85603 0.4251,0.0197 1.2143,-2.44739 0.5535,-1.73041 0.8031,-2.18282 1.2045,-2.18282 0.2785,0 0.5668,0.15732 0.6405,0.34959 0.074,0.19227 -0.386,1.76985 -1.0217,3.50573 -1.0342,2.82393 -1.227,3.16464 -1.8313,3.23687 -0.5339,0.0638 -0.7327,-0.0747 -0.949,-0.66145 z m 11.5378,-2.66042 c -0.049,-2.04065 0.023,-3.45024 0.1833,-3.56783 0.4668,-0.34298 1.1906,-0.21569 1.1906,0.20939 0,0.37278 0.056,0.37278 0.588,0 0.7964,-0.55778 2.1178,-0.51915 2.8111,0.0822 0.5222,0.45289 0.5697,0.75051 0.5697,3.57187 0,3.06343 0,3.07782 -0.6284,3.07782 -0.7708,0 -0.9591,-0.73384 -0.9591,-3.73724 0,-1.9293 -0.041,-2.08359 -0.5466,-2.08359 -0.3006,0 -0.7769,0.12325 -1.0583,0.27389 -0.4534,0.24266 -0.5118,0.57456 -0.5118,2.91042 v 2.63652 h -0.7786 -0.7787 z m 13.2802,-1.65365 v -5.02708 h 0.6331 c 0.7689,0 0.9544,0.42587 0.9544,2.19122 0,1.05326 0.07,1.28364 0.3175,1.03669 0.3891,-0.38912 1.9154,-0.4155 2.6075,-0.0451 1.7175,0.91919 1.7357,5.67 0.025,6.58544 -0.7159,0.38311 -2.5021,0.36361 -2.8973,-0.0316 -0.247,-0.24694 -0.3175,-0.24694 -0.3175,0 0,0.17463 -0.2977,0.3175 -0.6615,0.3175 h -0.6614 z m 3.806,3.3166 c 0.541,-0.82572 0.5725,-3.20917 0.049,-3.73237 -0.4605,-0.46052 -1.5175,-0.49329 -1.9503,-0.0605 -0.1812,0.18121 -0.3175,1.04891 -0.3175,2.02135 0,1.31243 0.1063,1.7846 0.463,2.05534 0.7014,0.53247 1.2821,0.43857 1.7555,-0.28384 z m 10.6578,1.5341 c -0.097,-0.097 -0.1763,-1.64857 -0.1763,-3.44789 0,-2.78191 0.065,-3.2963 0.4319,-3.43724 0.2375,-0.0912 0.6351,-0.0388 0.8836,0.11631 0.2749,0.17172 0.5976,0.18964 0.8248,0.0458 0.2053,-0.12994 0.6491,-0.23808 0.9863,-0.2403 0.5143,-0.003 0.5837,0.0919 0.4302,0.59126 -0.1006,0.32742 -0.198,0.59531 -0.2163,0.59531 -0.018,0 -0.3904,0.18284 -0.827,0.40631 -0.7903,0.40457 -0.7941,0.41732 -0.8695,2.97656 -0.073,2.4827 -0.096,2.57025 -0.6835,2.57025 -0.3343,0 -0.6871,-0.0794 -0.7842,-0.17638 z m -54.4752,-23.23937 -0.073,-8.86366 4.2966,1.2e-4 c 3.6209,1.1e-4 4.5105,0.0814 5.6562,0.5167 1.9829,0.75345 3.2856,1.75327 4.2833,3.28736 2.7243,4.18888 1.7286,9.55126 -2.284,12.30111 -1.8358,1.25805 -3.62,1.62204 -7.951,1.62204 h -3.855 z m 8.7116,3.93539 c 1.6743,-1.25002 2.3511,-3.0704 1.9026,-5.11672 -0.4536,-2.06916 -2.0494,-3.40105 -4.3608,-3.63961 l -1.4316,-0.14775 v 4.83131 4.83132 l 1.591,-0.11509 c 1.0339,-0.0748 1.8389,-0.30013 2.2988,-0.64346 z m 6.5734,4.07862 c 0.105,-0.47857 0.4617,-1.46544 0.7926,-2.19305 0.3309,-0.7276 0.8123,-1.8587 1.0697,-2.51354 0.2575,-0.65484 0.6728,-1.66687 0.9231,-2.24896 0.2502,-0.58208 1.1924,-2.9038 2.0937,-5.15937 0.9012,-2.25558 1.7002,-4.24987 1.7754,-4.43177 0.096,-0.23265 0.8935,-0.32964 2.6882,-0.32704 l 2.5514,0.004 1.0327,2.57599 c 0.568,1.4168 1.2394,3.05224 1.492,3.63433 0.2527,0.58208 0.7808,1.89177 1.1736,2.91041 0.3929,1.01865 0.8717,2.20927 1.064,2.64584 0.7259,1.6481 2.2491,5.53535 2.2491,5.73995 0,0.11725 -1.1162,0.21317 -2.4804,0.21317 h -2.4804 l -0.4989,-1.38906 -0.499,-1.38906 -3.5691,-0.0729 -3.569,-0.0729 -0.5378,1.39583 -0.5378,1.39584 -2.4621,0.0764 -2.462,0.0764 z m 11.0764,-6.0497 c 0.1503,-0.15028 -0.4817,-2.11195 -1.3147,-4.08085 l -0.4477,-1.05833 -0.9022,2.36436 c -0.4962,1.30041 -0.845,2.51334 -0.7751,2.69541 0.1273,0.33177 3.1183,0.40082 3.4397,0.0794 z m 10.7636,5.24571 c -0.8494,-1.8365 -1.4896,-3.38991 -2.5354,-6.15156 -0.6335,-1.67279 -1.1464,-2.93718 -3.2004,-7.88879 -0.351,-0.84634 -0.6383,-1.65001 -0.6383,-1.78594 0,-0.13593 1.1202,-0.24714 2.4894,-0.24714 h 2.4893 l 1.3116,3.37343 c 0.7214,1.8554 1.6441,4.23665 2.0504,5.29167 0.4063,1.05503 0.8111,1.91823 0.8995,1.91823 0.088,0 0.3771,-0.62508 0.6417,-1.38906 0.2646,-0.76399 1.1557,-3.14369 1.9803,-5.28822 l 1.4993,-3.89916 2.5975,-0.003 c 2.8761,-0.004 2.8414,-0.0376 1.9002,1.84864 -0.1816,0.3638 -0.772,1.79255 -1.3122,3.175 -0.5401,1.38245 -1.329,3.29694 -1.7531,4.25444 -0.424,0.95749 -0.7709,1.81308 -0.7709,1.90132 0,0.0882 -0.6067,1.59679 -1.3481,3.35234 l -1.348,3.1919 h -2.094 -2.094 z"
       id="path54" /></g><style
     id="style1">@media(prefers-color-scheme:dark){.lines{fill:#d7d7d7}}</style></svg>
