<?xml version="1.0" encoding="UTF-8" standalone="no"?>
<!-- Created with Inkscape (http://www.inkscape.org/) -->

<svg
   width="316.71021mm"
   height="328.20044mm"
   viewBox="0 0 316.71021 328.20044"
   version="1.1"
   id="svg1"
   xml:space="preserve"
   inkscape:version="1.4.4 (dcaf3e7, 2026-05-05)"
   sodipodi:docname="logos teams.svg"
   inkscape:export-batch-name="DAV Ravensburg"
   inkscape:export-batch-path="Desktop/Frauenliga"
   xmlns:inkscape="http://www.inkscape.org/namespaces/inkscape"
   xmlns:sodipodi="http://sodipodi.sourceforge.net/DTD/sodipodi-0.dtd"
   xmlns="http://www.w3.org/2000/svg"
   xmlns:svg="http://www.w3.org/2000/svg"><sodipodi:namedview
     id="namedview1"
     pagecolor="#ffffff"
     bordercolor="#000000"
     borderopacity="0.25"
     inkscape:showpageshadow="2"
     inkscape:pageopacity="0.0"
     inkscape:pagecheckerboard="0"
     inkscape:deskcolor="#d1d1d1"
     inkscape:document-units="mm"
     inkscape:zoom="0.037190382"
     inkscape:cx="-4006.4122"
     inkscape:cy="-8779.1516"
     inkscape:window-width="1920"
     inkscape:window-height="1050"
     inkscape:window-x="0"
     inkscape:window-y="30"
     inkscape:window-maximized="0"
     inkscape:current-layer="layer1"><inkscape:page
       x="0"
       y="0"
       width="316.71024"
       height="328.20044"
       id="page1"
       margin="0"
       bleed="0" /></sodipodi:namedview><defs
     id="defs1"><style
       id="style1-7">
      .cls-1 {
        fill: #fff;
      }
    </style></defs><g
     inkscape:label="Ebene 1"
     inkscape:groupmode="layer"
     id="layer1"
     transform="translate(2566.7147,-59.77757)"><path
       style="fill:#ff0000"
       d="m -2164.3099,545.58179 c -47.3757,-3.35736 -84.2051,-39.10028 -88.3902,-85.7826 l -0.2491,-2.77846 0.075,-6.65604 0.075,-6.65604 0.3176,-2.5647 c 4.0033,-32.33101 22.9148,-59.29986 51.642,-73.64458 l 3.6983,-1.84673 3.0945,-1.2279 c 7.9025,-3.13572 14.828,-4.92782 23.5989,-6.10665 l 2.4403,-0.32799 7.6986,-0.0636 7.6985,-0.0636 2.0379,0.17516 c 34.0621,2.92782 64.8157,25.18715 78.0309,56.47854 l 0.766,1.81359 v 0.53378 0.53378 l -0.5133,0.51324 -0.5132,0.51324 h -11.92 -11.9199 l -0.3782,-0.29753 c -0.2081,-0.16364 -0.7359,-0.92783 -1.1729,-1.69821 -10.8148,-19.06374 -30.4406,-31.85894 -53.1342,-34.64139 l -2.1888,-0.26837 h -5.5098 -5.5097 l -2.1888,0.27219 c -33.5048,4.16654 -58.5601,29.52538 -62.2204,62.97442 l -0.1982,1.81142 0.01,5.20784 0.01,5.20784 0.2676,2.26428 c 3.959,33.49159 29.9596,59.11234 63.2724,62.34806 l 2.5662,0.24926 4.0002,10e-4 4.0003,10e-4 2.5662,-0.25037 c 22.6383,-2.20868 42.5426,-14.88301 54.0925,-34.44395 l 1.0818,-1.83231 0.5127,-0.24328 0.5127,-0.24328 h 11.5702 11.5703 l 0.4362,0.22557 c 0.2399,0.12406 0.5422,0.37692 0.6718,0.56192 l 0.2356,0.33635 v 0.5767 0.57671 l -1.1455,2.59743 c -3.5377,8.02229 -8.1661,15.44407 -13.9988,22.44762 l -1.8228,2.1888 -3.6304,3.63529 c -15.7739,15.79544 -35.2675,25.01695 -57.7466,27.31724 l -2.3397,0.23943 -5.5098,0.0473 c -3.0304,0.026 -5.8833,0.0208 -6.34,-0.0116 z m 10.4912,-3.38175 c 31.0753,-1.84998 58.5347,-18.94541 73.823,-45.96012 0.9969,-1.76138 3.9923,-7.73554 3.9926,-7.96271 0,-0.0623 -4.274,-0.11322 -9.498,-0.11322 h -9.498 l -1.0765,1.77369 c -12.5262,20.63809 -34.476,33.73594 -59.0262,35.2219 l -2.9436,0.17817 -2.8681,-0.0958 c -38.9308,-1.30098 -69.8473,-31.72647 -71.618,-70.48063 l -0.1429,-3.12764 0.1416,-3.09804 c 0.7423,-16.24738 6.3557,-30.88468 16.7288,-43.62158 l 1.5981,-1.96237 3.2487,-3.24866 3.2487,-3.24867 1.9623,-1.59817 c 11.9493,-9.73158 25.3998,-15.19927 40.8325,-16.59854 l 2.0379,-0.18477 3.9247,-0.002 3.9248,-0.002 2.0378,0.18654 c 24.0005,2.197 44.7617,15.07271 57.1017,35.4134 l 0.8241,1.35857 9.5299,0.0389 c 5.2414,0.0214 9.5298,-0.007 9.5298,-0.0624 0,-0.27542 -3.4465,-7.03379 -4.5298,-8.88258 -15.2553,-26.03603 -41.0827,-42.27085 -71.4745,-44.92804 l -2.1133,-0.18477 -4.906,10e-4 -4.9059,10e-4 -2.7926,0.25778 c -46.4098,4.28411 -81.3011,41.34121 -82.9514,88.10022 l -0.099,2.79261 0.1675,3.39642 c 2.3292,47.22974 38.7381,83.8151 86.2788,86.69718 1.883,0.11415 7.1793,0.0832 9.51,-0.0555 z m -8.1392,-41.50694 c -0.5745,-0.0721 -1.5139,-0.24609 -2.0877,-0.38671 l -1.0433,-0.25566 -0.081,-0.21236 c -0.067,-0.17499 0.3498,-3.37122 0.4518,-3.4635 0.017,-0.0156 0.5408,0.10817 1.1635,0.27501 l 1.1321,0.30335 1.585,0.0207 1.585,0.0207 0.6038,-0.31065 0.6038,-0.31065 0.3397,-0.66479 0.3396,-0.66478 -8e-4,-1.21337 c -5e-4,-0.66735 -0.075,-1.48116 -0.1661,-1.80846 l -0.1652,-0.5951 -0.4327,-0.4042 -0.4327,-0.40421 -1.833,-0.71685 -1.833,-0.71686 -0.9127,-0.62459 -0.9127,-0.62458 -0.5006,-0.72636 c -0.6174,-0.8959 -0.7803,-1.43488 -1.0005,-3.31107 l -0.173,-1.47323 0.1678,-1.31938 c 0.092,-0.72567 0.3202,-1.72485 0.5064,-2.22042 l 0.3386,-0.90104 0.774,-0.77396 0.7739,-0.77396 0.8518,-0.3187 c 0.4685,-0.17528 1.3132,-0.39905 1.8772,-0.49726 l 1.0254,-0.17856 1.6176,0.0925 c 1.7077,0.0977 3.5534,0.44781 3.9558,0.75037 l 0.2403,0.18065 -0.2693,1.73595 -0.2693,1.73594 -0.2173,-0.0228 c -0.1195,-0.0125 -0.6588,-0.14568 -1.1985,-0.29588 l -0.9811,-0.2731 -1.6869,-0.006 -1.6868,-0.006 -0.4265,0.31264 c -0.2346,0.17195 -0.5453,0.54555 -0.6904,0.83023 l -0.264,0.51761 -2e-4,1.25285 -2e-4,1.25285 0.2109,0.40797 c 0.3453,0.6676 0.6965,0.89465 2.9744,1.92293 3.3584,1.51607 4.1894,2.21751 4.7337,3.99567 l 0.2536,0.82865 0.085,1.81142 0.085,1.81142 -0.1823,1.0797 -0.1823,1.0797 -0.4224,0.89321 c -0.7728,1.634 -1.8074,2.50503 -3.6607,3.08183 l -0.9245,0.28776 -1.2966,0.0622 c -0.7131,0.0342 -1.7666,0.003 -2.341,-0.0688 z m -15.0319,-10.63806 v -10.34436 h -2.2643 -2.2643 v -1.88689 -1.8869 h 6.7174 6.7173 v 1.8869 1.88689 h -2.2632 -2.2632 l -0.039,10.30247 -0.039,10.30247 -2.1511,0.0419 -2.151,0.0419 z m 31.0961,10.25022 c 0,-0.0472 -1.1209,-5.47988 -2.4907,-12.07261 -1.3699,-6.59273 -2.4908,-12.05807 -2.4908,-12.14521 v -0.15842 l 2.2996,0.0417 2.2996,0.0417 1.4305,9.03086 1.4305,9.03086 1.4055,-8.87991 c 0.773,-4.88394 1.4358,-8.96481 1.473,-9.06859 l 0.068,-0.18869 h 2.269 c 1.2479,0 2.2689,0.0509 2.2688,0.11321 -1e-4,0.0623 -1.1209,5.50396 -2.4907,12.09265 -1.3698,6.58869 -2.4905,12.03994 -2.4905,12.11389 v 0.13446 h -2.4907 c -1.3699,0 -2.4907,-0.0386 -2.4907,-0.0858 z m 28.1263,-11.08505 c -1.2824,-0.26629 -2.1606,-1.00941 -2.4579,-2.07983 l -0.1559,-0.56138 -8e-4,-3.72863 -9e-4,-3.72863 0.1619,-0.75455 0.1618,-0.75454 0.4399,-0.60736 0.44,-0.60735 0.6436,-0.33394 0.6435,-0.33395 1.4188,-0.0665 1.4188,-0.0665 0.8184,0.18313 0.8183,0.18314 -0.1029,1.00573 c -0.1269,1.23937 -0.1394,1.25288 -0.9749,1.06125 -0.3736,-0.0857 -1.0725,-0.1287 -1.5532,-0.0956 l -0.8738,0.0602 -0.3338,0.33372 -0.3338,0.33372 -0.054,1.29425 -0.054,1.29424 0.2803,-0.0795 c 0.1542,-0.0437 0.4997,-0.12363 0.7679,-0.17757 l 0.4875,-0.0981 0.8692,0.18044 0.8692,0.18044 0.5534,0.55338 0.5534,0.55339 0.1809,0.67192 0.1809,0.67193 -0.061,1.58688 -0.061,1.58688 -0.3308,0.6328 c -0.7222,1.38155 -2.5257,2.08742 -4.36,1.70651 z m 1.7621,-2.56574 0.3019,-0.3019 v -1.25424 -1.25424 l -0.1936,-0.26489 -0.1937,-0.26489 -0.7498,0.0473 -0.7498,0.0473 -0.043,1.46638 -0.043,1.46638 0.3073,0.3073 0.3073,0.30731 h 0.3774 0.3773 z m -78.9287,2.3401 c -0.727,-0.22678 -1.4244,-0.8123 -1.7983,-1.50986 l -0.2427,-0.45286 -0.01,-1.28309 c -0.01,-1.6407 0.094,-1.98459 0.8448,-2.79954 l 0.6161,-0.66837 -0.4543,-0.51737 c -0.2499,-0.28456 -0.5375,-0.76945 -0.6391,-1.07754 l -0.1849,-0.56017 0.065,-1.24037 0.065,-1.24037 0.4036,-0.68862 0.4035,-0.68862 0.7192,-0.35414 0.7191,-0.35414 h 1.2117 1.2116 l 0.7405,0.38108 0.7405,0.38108 0.3499,0.66159 0.3499,0.66158 v 1.47595 c 0,1.68447 -0.1212,2.11133 -0.7717,2.719 l -0.4637,0.4332 0.4882,0.41081 c 0.2685,0.22595 0.6129,0.68534 0.7653,1.02087 l 0.2771,0.61005 v 1.28884 1.28885 l -0.3397,0.67231 -0.3396,0.67231 -0.5106,0.33928 c -0.9957,0.66167 -2.8548,0.8457 -4.2253,0.41826 z m 2.4608,-2.2754 0.2372,-0.23721 v -1.05309 -1.05309 l -0.3994,-0.37017 c -0.2197,-0.2036 -0.4815,-0.37018 -0.5818,-0.37018 -0.1003,0 -0.362,0.16658 -0.5817,0.37018 l -0.3995,0.37017 v 1.10916 1.10915 l 0.1812,0.18114 c 0.1,0.0996 0.4344,0.18115 0.744,0.18115 h 0.5628 z m -0.279,-5.96517 0.2853,-0.31526 0.055,-1.09282 0.055,-1.09281 -0.2524,-0.2524 c -0.2947,-0.29477 -0.8472,-0.33035 -1.1063,-0.0713 l -0.1811,0.18114 v 1.14384 1.14384 l 0.2349,0.33549 c 0.2935,0.41892 0.5434,0.42449 0.9093,0.0202 z m -8.8428,3.40626 v -4.7585 l -0.7776,0.61466 -0.7776,0.61466 -0.1019,-0.12055 c -0.2795,-0.33066 -1.211,-1.68147 -1.211,-1.75611 0,-0.0471 0.7504,-0.73424 1.6674,-1.52704 l 1.6674,-1.44145 h 1.1252 1.1252 v 6.56641 6.56641 h -1.3585 -1.3586 z m 76.0798,3.32445 v -1.43404 h -2.1134 -2.1133 l 0.01,-1.09441 0.01,-1.0944 1.9315,-4.00022 1.9314,-4.00023 1.459,-0.0432 1.4591,-0.0432 v 3.93022 3.93021 h 0.6038 0.6038 v 1.20762 1.20762 h -0.6038 -0.6038 v 1.43404 1.43404 h -1.2831 -1.2831 z m 0,-5.76133 c 0,-1.05163 -0.03,-1.88206 -0.067,-1.8454 -0.074,0.0743 -1.5938,3.59739 -1.5938,3.69537 0,0.0342 0.3736,0.0621 0.8302,0.0621 h 0.8303 z m -85.9689,-16.20507 c -0.056,-0.0914 -0.1055,-0.62277 -0.109,-1.18094 l -0.01,-1.01486 0.245,-0.47375 c 0.4304,-0.8323 1.6339,-1.41964 3.344,-1.63204 l 0.7548,-0.0937 -0.5954,0.35004 -0.5954,0.35003 -0.3103,0.52825 -0.3103,0.52825 -0.031,1.35856 -0.031,1.35857 -1.1258,0.0439 -1.1258,0.0439 z m 3.3479,0.0532 c -0.055,-0.0553 -0.1007,-0.60096 -0.1007,-1.21246 v -1.11183 l 0.2337,-0.55916 c 0.1285,-0.30754 0.3792,-0.71416 0.5572,-0.90359 l 0.3235,-0.34443 0.7533,-0.2237 c 0.4143,-0.12304 0.9207,-0.2237 1.1252,-0.2237 h 0.372 l -0.082,1.47178 -0.082,1.47178 -0.2655,0.67928 c -0.1461,0.37361 -0.331,0.7642 -0.4111,0.86798 l -0.1455,0.18869 h -1.0885 c -0.5987,0 -1.1338,-0.0453 -1.1891,-0.10064 z m 3.3712,0.0204 c 0,-0.0441 0.1301,-0.46868 0.2891,-0.94345 l 0.2892,-0.86321 0.1069,-1.38572 0.1069,-1.38571 0.4325,-0.17918 c 0.9959,-0.41249 1.8339,-1.68773 3.1232,-4.75247 0.4893,-1.16323 0.9657,-2.24944 1.0587,-2.41379 0.093,-0.16435 0.5535,-1.31464 1.0234,-2.55621 1.6241,-4.29058 3.0057,-7.06925 5.0969,-10.25066 l 1.0777,-1.63952 0.047,0.31212 c 0.1463,0.96425 -1.6715,6.02053 -3.0829,8.57501 -0.9073,1.64213 -0.909,1.66545 -0.1069,1.40547 2.8507,-0.92391 5.6051,-3.49357 8.1266,-7.58165 0.3975,-0.64454 0.7556,-1.13909 0.7957,-1.09901 0.2419,0.24195 -0.922,4.26095 -1.6567,5.72034 -0.2446,0.48578 -0.4158,0.91207 -0.3806,0.94729 0.1007,0.10065 1.89,-0.9474 3.0161,-1.76658 l 1.0226,-0.74385 0.1606,0.41542 c 0.2075,0.53662 0.5809,2.27698 0.5843,2.72345 0.01,1.22475 -2.5698,4.48109 -9.6338,12.16362 -2.1275,2.31381 -4.0708,4.47054 -4.3184,4.79273 l -0.4503,0.5858 h -3.3641 c -1.8502,0 -3.3641,-0.0361 -3.3641,-0.0802 z m 16.3108,-0.48583 c -0.2879,-1.03659 -0.071,-3.17401 0.3718,-3.66326 0.2819,-0.31144 1.2101,-0.48695 1.8736,-0.35425 l 0.4728,0.0946 -0.1148,1.15011 c -0.144,1.44253 -0.1446,1.89361 0,2.69736 l 0.1127,0.64155 h -1.2778 -1.2777 z m 3.625,0.28307 c -0.2748,-0.51349 -0.3406,-1.43689 -0.1832,-2.57193 l 0.1551,-1.11898 0.3137,-0.3137 0.3137,-0.31371 0.936,-10e-4 0.936,-0.001 v 2.30181 2.3018 l -1.1646,2.1e-4 -1.1646,2.2e-4 z m 28.3054,-0.0566 c -0.1918,-0.94147 -0.202,-1.30692 -0.056,-1.99751 l 0.1593,-0.75216 0.4776,-0.47763 0.4777,-0.47764 0.5967,-0.16567 c 0.628,-0.17435 1.427,-0.22313 1.427,-0.0871 0,0.0441 -0.1423,0.50259 -0.3162,1.0188 l -0.3162,0.93856 0.053,1.17001 0.053,1.17 h -1.2436 -1.2436 z m 3.5683,0.0755 c -0.06,-0.14529 -0.1085,-0.80759 -0.1085,-1.47178 v -1.20762 l 0.3367,-0.47198 c 0.4259,-0.59706 1.1912,-0.9624 2.2437,-1.07102 l 0.8238,-0.085 -0.2829,0.66306 c -0.1556,0.36468 -0.3696,1.02689 -0.4756,1.47158 l -0.1927,0.80852 0.096,0.81421 0.096,0.81422 h -1.2136 -1.2137 z m 4.2186,0.16 -0.3524,-0.0711 -0.219,-0.52411 -0.219,-0.52411 0.1014,-0.55812 c 0.4263,-2.34785 0.8566,-2.91597 2.5356,-3.34756 2.738,-0.70381 5.8539,-2.11268 7.6159,-3.4436 l 0.9586,-0.72408 0.3614,-0.59714 0.3615,-0.59714 7e-4,-0.67467 8e-4,-0.67467 -1.1699,-1.13675 -1.1698,-1.13676 -3.321,-2.21737 c -4.7045,-3.14116 -6.586,-4.7721 -7.0191,-6.08447 l -0.1717,-0.52027 0.199,-0.41941 0.199,-0.4194 0.8196,-0.41512 0.8195,-0.41512 -0.4422,7e-4 c -1.8426,0.003 -14.4466,2.40249 -22.6166,4.30586 -1.2368,0.28815 -2.3342,0.52391 -2.4386,0.52391 h -0.1898 l 0.9791,-2.3775 c 1.8766,-4.55732 3.3698,-9.6161 3.3698,-11.41711 0,-0.71358 0.08,-0.726 1.031,-0.15961 0.4712,0.28067 1.298,0.69473 1.8375,0.92013 l 0.9807,0.40981 1.2831,0.009 1.2831,0.009 0.6416,-0.34198 c 0.7219,-0.38484 0.7602,-0.49933 0.3572,-1.0673 -0.3165,-0.4459 -3.4822,-5.62972 -3.7824,-6.19366 l -0.191,-0.35871 1.7892,0.10065 c 5.6669,0.31877 8.3703,0.60648 17.2329,1.83392 7.4973,1.03837 11.0804,1.40639 14.8079,1.52095 l 2.9578,0.0909 2.2643,-0.17235 c 3.4968,-0.26615 7.0627,-0.86479 9.5484,-1.60298 l 0.7332,-0.21773 0.2557,-0.53631 c 0.1407,-0.29497 0.2558,-0.7958 0.2558,-1.11296 v -0.57664 l -0.3594,-0.38774 c -1.11,-1.1978 -4.0849,-1.9429 -9.528,-2.38643 l -2.1133,-0.1722 -8.7552,-0.0961 c -4.8154,-0.0529 -10.0119,-0.0444 -11.5478,0.0187 l -2.7926,0.11485 -2.9558,-0.15078 -2.9557,-0.15078 -1.7238,-0.2958 c -3.1626,-0.5427 -5.0461,-1.30571 -6.4121,-2.59762 l -0.7905,-0.74759 -0.3378,-0.78517 -0.3377,-0.78517 -0.074,-0.91877 -0.074,-0.91878 0.2565,-1.27008 c 0.2801,-1.38649 0.8532,-2.96276 2.4668,-6.78489 1.219,-2.88724 1.6847,-4.42588 1.7997,-5.94561 l 0.082,-1.08359 -0.2576,-0.88613 -0.2576,-0.88612 -0.977,-0.97704 -0.9771,-0.97704 1.1137,0.10092 c 1.5923,0.14429 3.7589,0.75232 5.2051,1.46076 l 1.2469,0.61077 0.7977,0.78444 0.7978,0.78444 0.3504,0.75271 0.3504,0.75272 0.078,0.85414 0.077,0.85414 -0.3164,1.04173 -0.3164,1.04172 -0.739,1.04974 c -0.4065,0.57736 -1.5062,1.89885 -2.444,2.93664 -2.0608,2.28084 -2.9336,3.42884 -3.4429,4.52847 l -0.3845,0.83015 v 0.9058 0.9058 l 0.3346,0.64933 0.3346,0.64934 0.71,0.45048 c 0.3905,0.24777 1.1305,0.58045 1.6444,0.73929 l 0.9345,0.28881 1.9204,0.17359 1.9203,0.1736 0.9429,-0.10098 0.9429,-0.10097 0.8915,-0.93291 c 2.8208,-2.95166 4.7705,-7.78027 5.1005,-12.63169 l 0.098,-1.43404 -0.1554,-1.2831 c -0.085,-0.7057 -0.2027,-1.5107 -0.2603,-1.78889 l -0.1049,-0.5058 0.5088,0.26312 c 0.2799,0.14472 0.8513,0.61392 1.2699,1.04268 l 0.7611,0.77955 0.4846,0.98437 c 0.2666,0.5414 0.6328,1.59045 0.814,2.33121 l 0.3293,1.34685 7e-4,2.11332 7e-4,2.11333 -0.2542,1.3106 c -0.2932,1.51223 -0.8593,3.31969 -1.3814,4.41057 -0.1995,0.41696 -0.3412,0.77977 -0.3147,0.80624 0.063,0.063 3.0245,0.32927 3.7356,0.33582 l 0.5519,0.005 0.6834,-1.3963 c 0.8018,-1.63811 1.3421,-3.3073 1.7052,-5.268 l 0.2614,-1.41163 6e-4,-2.56618 6e-4,-2.56618 -0.2547,-1.02829 c -0.1401,-0.56556 -0.2547,-1.12924 -0.2547,-1.25261 v -0.22431 l 0.6658,0.45809 c 2.0802,1.43123 3.5406,4.67821 3.84,8.53805 l 0.1171,1.50952 -0.1106,1.36603 c -0.095,1.17344 -0.3978,2.71875 -0.6729,3.43577 l -0.08,0.20747 1.9316,0.14769 1.9317,0.14768 0.189,-0.22865 c 0.3565,-0.43123 1.0779,-2.53379 1.4089,-4.1065 l 0.3312,-1.5733 0.017,-2.33975 c 0.01,-1.28687 -0.035,-2.63081 -0.099,-2.98653 l -0.1158,-0.64678 0.4255,0.22007 c 0.2341,0.12104 0.7182,0.53753 1.0759,0.92554 l 0.6503,0.70548 0.5116,1.10729 c 0.2814,0.60901 0.6503,1.67231 0.8199,2.36289 l 0.3084,1.2556 0.084,1.66047 0.085,1.66047 -0.2393,1.12194 c -0.1317,0.61707 -0.2235,1.13563 -0.2041,1.15237 0.019,0.0167 0.8819,0.13792 1.9165,0.26931 l 1.8811,0.23888 0.1112,-0.17986 c 0.061,-0.0989 0.2332,-0.82688 0.3824,-1.61768 l 0.2713,-1.43781 7e-4,-1.8869 c 4e-4,-1.0378 -0.056,-2.1756 -0.1257,-2.52845 l -0.1265,-0.64154 h 0.1676 c 0.092,0 0.4766,0.28486 0.8543,0.63304 l 0.6868,0.63303 0.6616,1.36708 c 0.3638,0.75189 0.8092,1.91044 0.9898,2.57455 l 0.3282,1.20747 0.094,1.40804 0.094,1.40803 1.585,0.63763 c 2.5036,1.00718 4.0124,2.07361 4.7852,3.3824 l 0.382,0.64679 v 0.73483 0.73482 l -0.4325,0.79655 -0.4326,0.79655 -0.9331,0.77041 c -2.4668,2.0366 -5.6281,3.01207 -11.5121,3.55223 -4.2142,0.38689 -4.8909,0.52731 -5.5063,1.1427 l -0.2382,0.2382 v 0.49648 0.49649 l 0.3941,0.58069 c 1.9566,2.88323 5.8887,6.47508 11.6981,10.68576 6.3218,4.58215 9.4065,8.34281 11.6838,14.24442 l 0.4206,1.09002 -0.2108,0.25866 c -0.116,0.14227 -1.2918,0.96815 -2.6129,1.8353 -1.3211,0.86715 -2.6957,1.84736 -3.0546,2.17825 l -0.6527,0.60161 -2.4173,-0.10996 -2.4174,-0.10997 v -0.97035 c 0,-1.88699 0.4065,-3.33548 1.3115,-4.67357 l 0.5224,-0.77238 -0.1779,-0.66082 c -0.8806,-3.27027 -4.1805,-5.54667 -12.2226,-8.43165 -5.0934,-1.82716 -8.7539,-4.08328 -15.7462,-9.70489 -2.38,-1.91341 -3.0449,-2.29603 -4.2724,-2.45844 l -0.7722,-0.10218 -0.3872,0.25368 c -0.2129,0.13952 -0.4842,0.40179 -0.6028,0.58283 l -0.2157,0.32915 h 1.0732 1.0731 l 0.8303,0.41105 c 0.4566,0.22607 2.0401,1.36317 3.5188,2.52687 5.9792,4.70546 12.813,9.06276 14.2135,9.06276 0.094,0 0.3261,0.32266 0.516,0.71702 0.1898,0.39436 0.7405,1.36234 1.2237,2.15107 0.9177,1.49804 1.2735,2.40441 1.1852,3.0192 l -0.052,0.36428 -7.925,4.22836 -7.925,4.22836 -3.17,0.026 c -1.7434,0.0143 -3.3285,-0.006 -3.5224,-0.0452 z m 24.4301,-1.06571 c 0,-1.37493 0.2078,-2.24522 0.6463,-2.71986 l 0.3163,-0.34237 0.7533,-0.2237 c 0.4143,-0.12304 0.9702,-0.2237 1.2353,-0.2237 h 0.482 l -0.287,0.58013 c -0.3391,0.68532 -0.5787,2.02062 -0.58,3.2314 l -8e-4,0.86798 h -1.2831 -1.2831 z m 3.5037,-0.24046 0.074,-1.42269 0.3384,-0.69895 0.3383,-0.69894 0.6271,-0.36291 c 0.6071,-0.35136 1.882,-0.76797 1.9973,-0.65268 0.031,0.0312 -0.085,0.42622 -0.258,0.8779 l -0.3145,0.82124 -0.097,1.73594 -0.097,1.73595 -1.3417,0.0439 -1.3417,0.0439 z m -60.0753,0.19365 -0.6432,-1.06978 0.1148,-1.1428 0.1148,-1.14281 0.2265,-0.11672 c 0.1245,-0.0642 0.4515,-0.20033 0.7267,-0.3025 l 0.5004,-0.18577 0.3676,-0.54102 0.3676,-0.54102 v -0.76911 -0.76911 l -0.6813,-1.8526 c -0.6035,-1.64111 -3.5453,-11.22192 -3.5453,-11.54638 0,-0.0695 0.3299,-0.57631 0.7331,-1.12611 0.4033,-0.54981 0.9259,-1.33376 1.1614,-1.74212 0.594,-1.02973 0.6017,-0.79412 0.075,2.26208 -0.2541,1.4736 -0.4368,2.70455 -0.4059,2.73546 0.3174,0.31741 5.6574,-5.5429 6.3188,-6.93447 0.5343,-1.12414 0.5712,-0.94003 0.575,2.86809 v 3.5851 l 1.3462,0.42984 1.3462,0.42984 0.081,0.4004 c 0.045,0.22022 0.2648,2.16653 0.4892,4.32514 l 0.4081,3.92475 -8e-4,4.00023 c -5e-4,2.20012 -0.064,4.4078 -0.1414,4.90594 l -0.1407,0.90571 -4.377,0.0398 -4.377,0.0398 z m -13.018,-16.50912 c 0,-0.0509 0.3125,-0.71485 0.6945,-1.47545 1.4117,-2.81086 2.9438,-9.19398 2.926,-12.19047 v -0.38365 l -0.9906,1.87292 c -2.7434,5.18677 -5.483,8.7469 -8.3889,10.90107 -1.3128,0.97327 -1.353,0.91869 -0.5302,-0.71984 2.4832,-4.94458 4.976,-13.368 6.1483,-20.77505 l 0.1857,-1.1733 0.2429,0.0752 c 0.1336,0.0413 0.7184,0.18308 1.2995,0.31499 l 1.0567,0.23983 2.4978,0.0843 2.4977,0.0843 1.2273,-0.31035 c 1.5564,-0.39358 2.7658,-0.98509 3.6625,-1.7913 l 0.7047,-0.6336 0.4742,-0.88972 c 0.2608,-0.48934 0.5809,-1.29175 0.7113,-1.78313 l 0.2371,-0.89342 -0.031,-1.86071 -0.031,-1.86071 0.6534,-0.37112 c 1.2153,-0.6903 2.1297,-1.45323 2.6272,-2.19209 l 0.4955,-0.73567 1.5988,3.20825 c 2.2939,4.6032 4.9596,9.34016 8.5802,15.24731 0.6544,1.06761 1.1898,2.01116 1.1898,2.09677 v 0.15566 l -0.6416,-0.0993 c -1.51,-0.23372 -3.3305,-1.10171 -5.0301,-2.39838 l -1.0676,-0.81451 -0.3268,2.5108 c -0.3851,2.95806 -0.8721,5.17041 -1.5456,7.02057 l -0.4877,1.33978 -0.1099,-0.20764 c -0.061,-0.1142 -0.1563,-0.68314 -0.2128,-1.26431 -0.1714,-1.76018 -1.183,-5.9626 -1.4353,-5.9626 -0.053,0 -0.1755,0.6623 -0.2728,1.47178 -0.2339,1.94507 -0.7977,3.8775 -1.6231,5.56346 l -0.673,1.37455 -0.954,1.02694 -0.9539,1.02695 0.06,-2.85434 0.06,-2.85435 -0.2487,-1.43278 c -0.1368,-0.78803 -0.3002,-1.48429 -0.3632,-1.54725 l -0.1144,-0.11447 -0.1944,0.94344 c -0.4944,2.39987 -1.5999,5.13418 -2.8451,7.03709 -0.5826,0.89033 -2.6142,3.03894 -2.8734,3.03894 h -0.1505 l 0.346,-1.18992 c 0.6113,-2.10253 0.9765,-4.88028 1.182,-8.98885 l 0.067,-1.34809 -0.7247,1.98615 c -0.9498,2.60308 -2.1576,5.03607 -3.5,7.0501 l -1.0866,1.63022 -1.2727,1.33742 c -1.2439,1.30718 -2.745,2.66202 -2.745,2.47758 z m 3.6983,-24.69777 c -0.6642,-0.0751 -2.0857,-0.31888 -3.1589,-0.54165 l -1.9514,-0.40503 -2.0602,0.18741 -2.0603,0.1874 -0.6276,-0.169 -0.6276,-0.16901 -0.1707,-0.31888 -0.1707,-0.31888 0.077,-0.68574 0.077,-0.68573 0.262,-0.19158 c 0.4138,-0.3026 1.6178,-0.48007 4.2217,-0.62229 l 2.4153,-0.13192 0.717,-0.3203 0.717,-0.32029 v -0.35741 c 0,-0.19657 -0.1356,-0.50294 -0.3013,-0.68082 l -0.3013,-0.32341 -0.5667,-0.10677 -0.5666,-0.10676 -1.2289,0.17722 c -0.6758,0.0975 -2.2991,0.417 -3.6072,0.71005 -2.59,0.58022 -4.3053,0.77179 -5.4174,0.60503 l -0.714,-0.10708 -0.5888,-0.53191 c -0.3238,-0.29255 -0.7305,-0.76131 -0.9038,-1.04169 l -0.3151,-0.50977 0.048,-0.49112 0.048,-0.49112 0.3774,-0.19644 0.3774,-0.19643 0.7547,0.0612 c 0.4151,0.0337 2.1473,0.20555 3.8493,0.38196 1.702,0.17641 4.4361,0.3653 6.0758,0.41976 l 2.9813,0.099 v -0.24256 c 0,-0.27358 -0.7537,-0.89521 -1.4347,-1.18322 l -0.4522,-0.19125 -2.7884,-0.0833 -2.7884,-0.0833 -0.4948,-0.95664 -0.4948,-0.95664 v -0.72121 -0.72121 l 0.3162,-0.40195 c 0.4475,-0.56892 1.3378,-0.98137 2.6783,-1.24072 l 1.1567,-0.2238 5.8871,0.031 5.8871,0.031 0.5226,-0.17345 0.5226,-0.17345 0.4658,0.45149 0.4658,0.45149 h 0.5646 0.5645 l 1.3681,-0.52834 1.368,-0.52833 h 0.6792 0.6792 l 0.5133,0.51324 0.5132,0.51324 v 0.55092 c 0,1.27677 -2.5976,3.55497 -4.0534,3.55497 h -0.2127 l 0.099,0.56607 c 0.054,0.31134 0.1635,1.10318 0.2423,1.75965 l 0.1432,1.19358 -0.1496,1.05465 c -0.5404,3.81066 -3.8811,5.55749 -9.428,4.92993 z m 2.8831,-11.74299 c 0.3238,-0.23523 0.682,-0.54091 0.7959,-0.67929 l 0.2072,-0.25159 h -1.0653 c -1.1545,0 -1.8084,0.17487 -2.1027,0.56232 l -0.1875,0.24682 0.2486,0.27471 0.2487,0.27471 h 0.6332 0.6332 z m -5.5934,-4.4875 c -0.4113,-0.2039 -0.9377,-0.55268 -1.1698,-0.77505 l -0.4221,-0.40433 v -0.47076 -0.47076 l 0.3397,-0.45524 c 0.1868,-0.25038 0.6963,-0.81024 1.1321,-1.24413 0.4359,-0.43389 0.7925,-0.88755 0.7925,-1.00813 0,-0.58919 1.6181,0.74496 1.9379,1.59777 l 0.1435,0.38298 -0.1839,0.52274 c -0.1012,0.2875 -0.4676,0.95782 -0.8143,1.48959 -0.3467,0.53177 -0.6303,1.02425 -0.6303,1.0944 0,0.20986 -0.3348,0.13278 -1.1253,-0.25908 z m 14.4983,-0.86432 -0.844,-0.79809 v -0.50276 -0.50276 l 0.5686,-0.54831 c 0.3128,-0.30157 1.0341,-0.90989 1.603,-1.35182 l 1.0343,-0.80351 0.428,0.40996 c 0.2353,0.22548 0.5407,0.64778 0.6786,0.93844 l 0.2508,0.52848 -0.1814,0.60559 -0.1815,0.60558 -1.105,1.10865 c -1.3178,1.32211 -1.1991,1.30573 -2.2514,0.31055 z m -7.3367,-0.29631 c -0.4502,-0.26983 -0.9157,-0.66434 -1.0344,-0.87671 l -0.2159,-0.38611 0.1044,-0.55662 0.1044,-0.55663 1.2764,-1.36717 c 0.702,-0.75195 1.2764,-1.43394 1.2764,-1.51555 v -0.14836 l 0.2975,0.15922 c 0.1636,0.0876 0.5358,0.40463 0.8271,0.70457 l 0.5297,0.54534 0.091,0.48396 0.091,0.48396 -0.2393,0.57294 c -0.2918,0.69816 -1.9126,2.93587 -2.1315,2.94278 -0.087,0.003 -0.526,-0.21579 -0.9763,-0.48562 z"
       id="path286" /><path
       style="fill:#000000"
       d="m -2450.627,387.58548 c -2.3584,-1.56334 -4.1554,-4.27893 -4.685,-7.07987 -0.6432,-3.40115 -1.0419,-5.07172 -1.5578,-6.52705 -0.8138,-2.296 -1.0917,-4.91281 -1.3839,-13.03352 l -0.2667,-7.40833 0.1615,-9.92188 0.1615,-9.92187 0.5266,-3.70417 c 0.5582,-3.92617 0.8567,-5.46926 1.2669,-6.54804 0.1389,-0.36546 0.5675,-2.72031 0.9524,-5.23299 l 0.6998,-4.56853 1.4107,-4.26064 c 0.7758,-2.34335 1.6024,-5.02202 1.8367,-5.9526 0.2343,-0.93058 0.7186,-2.24027 1.0762,-2.91041 0.3576,-0.67015 0.951,-2.0663 1.3186,-3.10255 l 0.6683,-1.8841 v -1.23043 -1.23043 l -0.6603,-0.30089 -0.6604,-0.30089 -0.4641,0.41336 c -0.2553,0.22735 -1.2314,0.78301 -2.1692,1.23481 -0.9378,0.4518 -1.9498,1.04905 -2.249,1.32723 -0.2991,0.27818 -1.4963,1.01241 -2.6605,1.63162 -1.1642,0.61921 -2.5341,1.49518 -3.0443,1.94659 l -0.9277,0.82075 -2.115,0.7529 -2.1151,0.7529 -0.6614,0.75141 -0.6615,0.75141 -1.7198,0.76926 c -0.9459,0.4231 -2.3404,1.19039 -3.0989,1.70511 -0.7586,0.51471 -2.0087,1.13972 -2.7782,1.38891 -0.7694,0.24919 -2.4087,0.92705 -3.6429,1.50637 -3.6014,1.69048 -8.3884,2.37037 -13.6208,1.93451 l -2.3687,-0.19731 -0.8713,-0.87127 -0.8713,-0.87127 v -1.6801 c 0,-2.08307 0.3058,-3.21099 1.2788,-4.74529 0.4168,-0.65716 1.0733,-2.14134 1.459,-3.29816 l 0.7013,-2.10332 1.0851,-1.5875 c 0.5967,-0.87313 1.3743,-2.23623 1.7279,-3.02912 0.3536,-0.79289 0.9169,-1.80492 1.2517,-2.24896 0.3348,-0.44404 1.0634,-1.62526 1.6193,-2.62493 0.5558,-0.99968 1.4035,-2.21051 1.8837,-2.69073 0.4802,-0.48023 1.0629,-1.32919 1.295,-1.88658 0.232,-0.55739 0.87,-1.48968 1.4179,-2.07177 0.5478,-0.58208 1.3178,-1.49908 1.711,-2.03777 0.3932,-0.53869 1.0654,-1.18646 1.4937,-1.43949 l 0.7788,-0.46004 0.3277,-0.80947 c 0.1803,-0.44522 1.3583,-1.82151 2.6178,-3.05844 l 2.2901,-2.24896 -0.2101,-0.75603 c -0.5134,-1.84791 -1.3445,-2.09241 -3.7917,-1.11547 -0.8845,0.35312 -2.9738,0.90274 -4.6428,1.22138 l -3.0345,0.57935 -0.8276,0.63119 -0.8275,0.63119 -1.6942,0.3822 c -0.9318,0.21021 -2.7554,0.57714 -4.0525,0.8154 l -2.3584,0.43321 -1.3458,0.75344 -1.3458,0.75345 -5.6885,0.82072 c -3.1287,0.4514 -6.3434,1.01102 -7.1438,1.24362 -0.8003,0.23259 -1.8719,0.52989 -2.3812,0.66066 -1.3484,0.34621 -16.5603,0.73092 -21.912,0.55415 l -4.5817,-0.15133 -1.1068,-0.71937 c -0.6088,-0.39566 -1.7177,-0.91749 -2.4642,-1.15963 l -1.3575,-0.44026 -1.0093,-0.87252 -1.0094,-0.87252 0.3311,-1.47931 0.331,-1.4793 0.964,-1.27544 c 2.0589,-2.72423 4.6306,-5.67184 5.3081,-6.08415 0.3904,-0.23756 2.2576,-1.99976 4.1494,-3.91602 1.8917,-1.91625 3.9753,-3.82751 4.6302,-4.24723 0.6548,-0.41972 2.2026,-1.67403 3.4396,-2.78735 1.2369,-1.11333 2.8442,-2.32832 3.5718,-2.69998 0.7276,-0.37167 1.7397,-1.11354 2.249,-1.64861 0.5093,-0.53506 1.3696,-1.20146 1.9117,-1.48088 0.5421,-0.27941 1.6065,-1.05944 2.3654,-1.73338 0.7588,-0.67395 1.9821,-1.49362 2.7185,-1.8215 0.7363,-0.32788 1.6301,-0.9095 1.9862,-1.2925 0.3561,-0.383 1.3681,-1.10138 2.2489,-1.59641 0.8809,-0.49502 2.0698,-1.38266 2.6421,-1.97252 l 1.0405,-1.07248 1.6556,-0.55094 c 0.9106,-0.30301 2.1092,-0.91295 2.6636,-1.35541 0.5545,-0.44245 1.7225,-1.16597 2.5956,-1.60781 0.8731,-0.44183 2.0912,-1.24632 2.7068,-1.78774 l 1.1194,-0.98441 1.6588,-0.59173 c 0.9123,-0.32546 2.1044,-0.87916 2.6491,-1.23046 0.5446,-0.35129 1.6162,-0.92192 2.3812,-1.26806 0.765,-0.34615 1.622,-0.80649 1.9044,-1.02299 l 0.5134,-0.39364 -0.8778,-0.45394 -0.8778,-0.45393 -3.7367,-0.22132 -3.7366,-0.22131 -2.4766,-0.55688 c -1.3622,-0.30629 -2.9077,-0.73698 -3.4345,-0.95709 -0.5267,-0.2201 -2.5961,-0.68757 -4.5985,-1.03881 -4.5088,-0.79089 -5.579,-1.0722 -7.0852,-1.86253 -1.3724,-0.72007 -2.6556,-1.0681 -4.8948,-1.32753 -1.9022,-0.22037 -3.9562,-0.94611 -5.3379,-1.88603 -0.5567,-0.37863 -2.1812,-1.08268 -3.6101,-1.56457 l -2.598,-0.87615 -0.8836,-0.77581 c -0.4859,-0.4267 -1.5195,-0.98372 -2.2968,-1.23782 -1.901,-0.62149 -2.8282,-1.10716 -3.9052,-2.04558 -0.4974,-0.43348 -1.6877,-1.13957 -2.6451,-1.56909 -0.9573,-0.42952 -2.3362,-1.23322 -3.0642,-1.78602 -0.728,-0.55279 -1.6809,-1.22034 -2.1174,-1.48345 -0.4366,-0.26311 -1.3296,-0.97449 -1.9844,-1.58086 -0.6548,-0.60636 -1.7264,-1.40808 -2.3813,-1.78159 -1.4738,-0.84067 -4.243,-3.32824 -4.7412,-4.25914 -0.2038,-0.38087 -0.5674,-0.75497 -0.808,-0.83133 -0.5112,-0.16223 -1.6908,-1.27262 -3.6783,-3.46228 -0.7822,-0.86186 -2.1514,-2.36284 -3.0427,-3.3355 -3.5811,-3.90836 -4.2287,-4.98856 -5.2267,-8.71739 l -0.5926,-2.21413 -0.085,-1.98437 -0.085,-1.98438 0.7371,-1.05062 c 0.4054,-0.57785 1.2351,-1.43046 1.8437,-1.89469 l 1.1067,-0.84407 2.0608,-0.22197 c 1.1334,-0.12209 2.9538,-0.20266 4.0452,-0.17905 l 1.9844,0.0429 2.1166,0.58032 c 1.1642,0.31918 2.9501,0.66967 3.9688,0.77887 1.0186,0.1092 2.626,0.38966 3.5718,0.62324 0.9459,0.23359 2.6336,0.53297 3.7504,0.66529 l 2.0306,0.24059 1.8059,0.85704 1.8059,0.85704 4.2808,0.73363 4.2809,0.73363 1.6723,0.8006 1.6722,0.80059 2.7781,0.54651 c 1.528,0.30058 3.8236,0.6736 5.1014,0.82894 1.2778,0.15533 3.3019,0.56253 4.4979,0.90488 2.977,0.85209 3.1308,0.87621 8.5247,1.33678 2.6194,0.22366 6.5484,0.58848 8.7312,0.81071 2.1829,0.22223 6.0524,0.49963 8.599,0.61645 l 4.6302,0.2124 0.9008,-0.28898 0.9007,-0.28898 0.532,-0.71684 0.5319,-0.71684 -1.0795,-1.17113 c -0.5938,-0.64413 -1.2581,-1.51639 -1.4763,-1.93836 -0.2182,-0.42197 -0.7194,-0.93988 -1.1137,-1.15091 l -0.7169,-0.38369 -0.7737,-1.37086 c -0.4255,-0.75398 -1.0711,-1.56576 -1.4347,-1.80397 -0.3635,-0.23821 -1.0906,-1.11133 -1.6157,-1.94026 -0.5251,-0.82893 -1.3683,-1.97091 -1.8737,-2.53773 -0.5055,-0.56683 -1.2487,-1.75774 -1.6517,-2.64648 -0.4029,-0.88874 -0.9949,-1.8532 -1.3154,-2.14325 -0.3205,-0.29005 -1.3918,-1.8971 -2.3808,-3.57123 l -1.798,-3.04387 -0.4574,-1.93647 -0.4574,-1.93647 -0.8524,-1.23919 c -1.7019,-2.47415 -2.041,-3.81463 -2.4051,-9.5087 l -0.1736,-2.71458 0.4295,-0.65546 c 0.5894,-0.89948 2.1156,-1.61696 3.9029,-1.83474 l 1.4968,-0.18238 2.188,0.29957 c 2.8677,0.39264 4.3494,0.90817 5.7809,2.01128 0.6451,0.49712 1.6344,1.04213 2.1984,1.21113 0.5641,0.169 1.5246,0.74636 2.1345,1.28302 0.6098,0.53666 2.0613,1.45498 3.2254,2.0407 1.1642,0.58573 2.3351,1.30695 2.6019,1.60272 0.2669,0.29577 1.4168,0.91328 2.5554,1.37224 l 2.0701,0.83447 1.0653,0.9119 1.0654,0.91189 1.5387,0.28372 c 1.9495,0.35946 2.9047,0.76069 3.9903,1.67612 l 0.8642,0.72866 2.1908,0.47876 c 1.205,0.26332 3.2569,0.91581 4.5598,1.44997 1.3029,0.53417 2.641,1.03558 2.9736,1.11425 l 0.6045,0.14303 0.5222,-0.47257 c 0.2872,-0.25991 0.6566,-0.9212 0.8209,-1.46953 l 0.2987,-0.99697 -1.1305,-4.05318 c -0.6218,-2.22926 -1.469,-4.72922 -1.8827,-5.55546 -0.4137,-0.82625 -1.1053,-2.85317 -1.5369,-4.50427 -0.4316,-1.65109 -1.082,-3.53491 -1.4453,-4.18627 -0.3634,-0.65135 -1.0283,-2.53838 -1.4777,-4.1934 -0.4494,-1.65503 -1.1277,-3.66574 -1.5074,-4.46827 l -0.6903,-1.45913 -0.7628,-3.86611 c -0.4196,-2.12637 -1.1103,-4.87815 -1.5349,-6.11508 l -0.7721,-2.24895 -0.571,-4.10105 c -0.314,-2.25557 -0.6136,-4.17037 -0.6657,-4.25511 -0.052,-0.0847 -0.2288,-1.51349 -0.3926,-3.175 -0.1638,-1.66151 -0.4711,-3.913897 -0.6829,-5.005304 -0.6547,-3.373926 -0.8881,-6.052239 -0.9091,-10.434046 -0.011,-2.318985 -0.1294,-5.173183 -0.2628,-6.342662 l -0.2425,-2.126324 0.2677,-3.082926 c 0.1472,-1.695609 0.5603,-4.258755 0.918,-5.69588 0.3577,-1.437125 0.6518,-2.794907 0.6535,-3.017293 0.014,-1.845223 2.3325,-4.919199 4.4479,-5.897797 l 1.402,-0.648618 2.2962,0.901457 c 3.4243,1.344295 5.1997,2.749418 6.056,4.79275 0.1982,0.473066 0.8433,1.306503 1.4334,1.852083 l 1.0731,0.991964 0.9412,1.852083 c 0.5176,1.018646 1.3559,2.313446 1.8629,2.877334 0.5069,0.563888 1.1958,1.645062 1.5308,2.402609 0.3351,0.757547 1.0815,2.05167 1.6588,2.87583 0.5774,0.82416 1.1796,2.005173 1.3383,2.624475 l 0.2885,1.126003 0.8924,0.99361 0.8924,0.99361 0.7647,1.916807 c 0.4205,1.054243 1.1417,2.416444 1.6027,3.027112 l 0.838,1.110306 0.5856,1.800111 c 0.3221,0.990061 0.8805,2.335892 1.2409,2.990736 1.851,3.363256 4.442,8.56209 5.1426,10.31875 0.4353,1.09141 1.0747,2.40109 1.4208,2.91042 0.3462,0.50932 1.0566,1.92807 1.5788,3.15278 0.5221,1.22471 1.2315,2.48828 1.5764,2.80792 0.8158,0.75604 1.2852,1.69315 1.9827,3.95802 l 0.5694,1.84893 0.6377,0.66567 c 0.3508,0.36612 1.0764,1.61769 1.6126,2.78128 0.5361,1.16358 1.275,2.47279 1.642,2.90936 0.367,0.43656 0.9543,1.44078 1.3053,2.23159 0.3509,0.79082 1.0763,2.09137 1.6119,2.89011 0.5357,0.79875 1.3907,2.19286 1.9,3.09803 0.5094,0.90516 1.3554,2.28352 1.8802,3.06301 0.5247,0.77949 1.2536,1.98298 1.6197,2.67442 l 0.6657,1.25717 1.8275,-3.10925 c 1.0051,-1.71009 2.107,-3.82363 2.4487,-4.69675 0.3417,-0.87313 0.9556,-2.19714 1.3643,-2.94225 0.4087,-0.74511 1.1726,-2.46702 1.6976,-3.82647 0.5251,-1.35946 1.2253,-2.83342 1.556,-3.27547 0.3308,-0.44205 0.881,-1.57763 1.2226,-2.52352 0.8078,-2.2364 1.4508,-3.52154 1.9827,-3.96305 0.2358,-0.19568 0.7262,-0.9845 1.0897,-1.75295 0.3635,-0.76844 1.1805,-1.97497 1.8154,-2.68117 0.6349,-0.7062 1.5261,-2.05131 1.9804,-2.98912 0.4543,-0.93782 1.1299,-2.00401 1.5014,-2.36931 0.3714,-0.36531 1.1436,-1.37857 1.7159,-2.25169 1.1602,-1.76997 3.1817,-4.47672 4.5448,-6.085418 0.4933,-0.582084 1.2601,-1.594115 1.704,-2.248959 0.444,-0.654844 1.0735,-1.42875 1.3989,-1.719792 0.3254,-0.291041 0.9897,-1.124479 1.4761,-1.852083 0.4864,-0.727604 1.7823,-2.334948 2.8797,-3.571875 1.0975,-1.236927 2.4414,-2.825823 2.9865,-3.530879 0.5452,-0.705056 1.5978,-1.955213 2.3391,-2.778125 0.7414,-0.822913 1.5708,-1.883158 1.843,-2.3561 0.2723,-0.472943 0.5857,-0.859896 0.6965,-0.859896 0.1801,0 5.454,-5.24716 10.2157,-10.164024 0.9745,-1.006307 2.4267,-2.289771 3.2271,-2.852144 0.8004,-0.562372 2.0143,-1.465436 2.6976,-2.00681 0.6833,-0.541373 2.3502,-1.535025 3.7042,-2.208115 l 2.4617,-1.2238 1.8138,-0.175477 1.8137,-0.175477 0.9297,0.709099 0.9296,0.7091 0.7729,1.651493 0.7728,1.651494 -0.5432,4.594934 c -0.6489,5.490265 -1.2029,8.409666 -1.9011,10.018893 -0.2842,0.654844 -0.8101,2.440782 -1.1687,3.96875 -0.7836,3.338494 -1.5047,5.618107 -2.5228,7.976018 -0.4176,0.96707 -1.1157,3.258693 -1.5514,5.092495 l -0.7921,3.334188 -0.7908,1.56654 c -0.8117,1.60796 -1.2676,3.13124 -2.0017,6.68779 l -0.4201,2.03516 -0.6605,0.97324 -0.6604,0.97323 -0.9214,3.46081 c -0.5068,1.90344 -1.2126,4.12154 -1.5685,4.9291 -0.3559,0.80757 -1.0762,3.06943 -1.6006,5.02637 -0.5244,1.95693 -1.2346,4.27865 -1.5783,5.15937 -0.3436,0.88072 -0.9996,3.03007 -1.4578,4.77632 l -0.833,3.175 -0.7404,1.32291 -0.7404,1.32292 -0.5879,2.61593 -0.5878,2.61593 0.142,1.0585 c 0.078,0.58217 0.3195,1.23606 0.5366,1.45308 l 0.3946,0.3946 1.3849,-1.1586 c 0.7617,-0.63723 2.1332,-1.90275 3.0478,-2.81225 0.9146,-0.90951 1.7801,-1.65365 1.9234,-1.65365 0.1432,0 0.5186,-0.41777 0.8342,-0.92838 l 0.5738,-0.92838 1.1162,-0.65416 1.1162,-0.65415 0.4327,-0.90728 c 0.238,-0.49901 0.8698,-1.24539 1.404,-1.65861 0.5342,-0.41323 1.1068,-0.91549 1.2723,-1.11612 0.4111,-0.49808 3.6962,-4.02414 5.3874,-5.7825 0.7602,-0.79035 1.7415,-2.06522 2.1809,-2.83305 l 0.7987,-1.39605 0.9941,-0.70011 c 1.0853,-0.76429 3.5852,-3.23438 4.7544,-4.6976 0.7508,-0.93951 3.8717,-3.89162 7.043,-6.66205 l 1.7561,-1.53406 1.4115,-0.62425 c 0.7764,-0.34334 1.8664,-0.93293 2.4224,-1.31021 l 1.0108,-0.68596 h 1.8272 1.8272 l 0.6297,0.62978 0.6298,0.62977 0.4166,1.40262 0.4165,1.40263 v 4.73906 4.73906 l -0.543,2.66446 c -0.2986,1.46545 -0.6525,2.86912 -0.7864,3.11926 -0.1339,0.25015 -0.5977,2.04748 -1.0308,3.99408 -0.433,1.9466 -1.2717,5.08601 -1.8638,6.97647 -2.4319,7.76549 -2.8827,9.31556 -3.0608,10.52423 l -0.1865,1.2662 -0.6157,0.9073 c -1.0217,1.50555 -1.1638,1.8748 -1.5938,4.14191 -0.4301,2.26711 -0.8877,3.42106 -1.7179,4.33172 -0.2688,0.29493 -0.9078,1.829 -1.42,3.40904 -0.5121,1.58003 -1.23,3.38278 -1.5953,4.0061 -0.3653,0.62333 -1.1959,2.63243 -1.8459,4.46467 -0.65,1.83224 -1.6714,4.15542 -2.2697,5.16262 l -1.088,1.83128 0.3169,0.61377 c 0.1742,0.33757 0.5575,0.87814 0.8517,1.20126 l 0.5349,0.5875 2.2763,0.0566 c 1.252,0.0311 6.6221,0.0644 11.9336,0.074 l 9.6573,0.0173 6.35,-0.34826 6.35,-0.34825 6.7469,-0.91957 c 3.7108,-0.50576 8.6348,-1.33819 10.9422,-1.84983 l 4.1954,-0.93027 4.0067,-0.24915 c 4.4561,-0.27709 6.9842,-0.6509 8.3724,-1.23793 0.5093,-0.21539 1.6999,-0.48273 2.6458,-0.59409 l 1.7198,-0.20247 1.4552,0.24316 c 0.8004,0.13374 2.3209,0.55221 3.3789,0.92994 l 1.9237,0.68678 0.7883,0.89782 0.7883,0.89782 v 2.2273 2.22731 l -0.3168,0.74005 c -0.1741,0.40703 -0.6917,1.27583 -1.1502,1.93068 -0.4584,0.65484 -1.173,1.82446 -1.588,2.59915 l -0.7545,1.40852 -0.9977,0.79019 c -0.5487,0.43461 -1.2646,1.26517 -1.5909,1.8457 -0.3263,0.58052 -0.9862,1.29838 -1.4666,1.59524 -0.4803,0.29686 -0.9961,0.76916 -1.1461,1.04955 -0.1501,0.28039 -0.9281,0.87957 -1.7288,1.3315 l -1.456,0.8217 -0.6135,0.90282 -0.6135,0.90283 -1.4934,0.89931 c -0.8214,0.49462 -1.8377,1.24353 -2.2584,1.66425 -0.4207,0.42071 -1.5939,1.20052 -2.607,1.7329 -1.0131,0.53238 -1.9997,1.15791 -2.1924,1.39008 -0.1927,0.23217 -0.8936,0.69881 -1.5575,1.03699 -0.664,0.33817 -2.0221,1.21803 -3.0179,1.95524 l -1.8106,1.34039 -2.2319,0.68078 -2.2319,0.68078 -1.1169,0.76905 -1.1168,0.76905 -2.8404,0.81425 c -1.5623,0.44784 -3.2291,1.03449 -3.7042,1.30366 -1.1734,0.66484 -4.5896,1.46243 -9.1948,2.14671 l -3.833,0.56956 -1.0617,0.48321 c -1.632,0.74275 -3.8568,1.23982 -8.3378,1.86287 l -4.1011,0.57022 -1.1906,0.59086 c -0.6548,0.32498 -1.9954,0.80354 -2.9791,1.06349 -3.1179,0.82395 -3.6678,1.56303 -1.9818,2.6639 0.6184,0.40383 1.6602,1.20369 2.3151,1.77748 1.6413,1.43815 3.4276,2.60791 6.1564,4.03146 1.2761,0.66566 2.7643,1.60908 3.3073,2.09649 0.543,0.48741 1.9394,1.32433 3.1029,1.85982 1.1636,0.5355 2.4138,1.25714 2.7782,1.60365 l 0.6625,0.63003 2.2381,0.81403 2.2381,0.81403 0.8149,0.78982 0.8149,0.78982 1.7095,0.66856 c 0.9402,0.36771 2.3974,1.09245 3.2383,1.61053 0.8408,0.51808 2.2762,1.15571 3.1897,1.41696 1.9335,0.55293 2.9768,1.06205 3.8344,1.87121 l 0.6153,0.58062 2.6657,0.87517 c 1.4661,0.48134 2.9751,1.12295 3.3534,1.42581 0.8895,0.71228 3.3214,1.97656 4.597,2.38989 0.5494,0.17802 1.3335,0.60517 1.7423,0.94922 0.4089,0.34405 1.8549,1.10761 3.2133,1.6968 1.3585,0.58918 2.658,1.23685 2.8879,1.43925 0.2299,0.2024 1.3941,0.8556 2.5872,1.45155 1.193,0.59594 2.5739,1.43899 3.0687,1.87344 0.4948,0.43444 1.4833,1.0389 2.1965,1.34323 0.7133,0.30434 1.654,0.88391 2.0906,1.28794 0.4366,0.40404 1.343,1.04695 2.0142,1.4287 1.5387,0.87504 2.7778,2.27801 3.6019,4.07805 l 0.6426,1.4035 -0.4337,1.30562 c -0.2385,0.71809 -0.6956,1.69929 -1.0159,2.18045 l -0.5822,0.87483 -1.9812,0.61806 c -4.2899,1.33836 -5.495,1.65191 -7.4051,1.92682 l -1.9843,0.28561 -9.9219,0.12824 -9.9219,0.12825 -4.6302,-0.69603 c -2.5466,-0.38281 -6.5947,-0.92371 -8.9958,-1.202 -5.7371,-0.66493 -7.2991,-0.97521 -8.7313,-1.73436 -1.835,-0.97273 -2.512,-1.17149 -6.3187,-1.85513 l -3.5405,-0.63586 -1.2205,-0.68216 c -0.6713,-0.37519 -2.5904,-1.07922 -4.2647,-1.56451 -1.6743,-0.48529 -3.699,-1.13769 -4.4993,-1.44978 -0.8004,-0.31209 -2.4083,-0.90244 -3.5731,-1.31189 l -2.1179,-0.74446 -1.2408,0.31505 c -0.6824,0.17328 -1.4336,0.47505 -1.6692,0.6706 l -0.4284,0.35555 0.8458,0.6619 0.8457,0.6619 0.5956,1.34678 c 0.3276,0.74073 1.0366,1.87463 1.5756,2.51978 0.5391,0.64515 1.3758,1.95283 1.8595,2.90595 0.4837,0.95311 1.1211,1.87841 1.4163,2.05622 0.2953,0.1778 0.8634,0.89218 1.2624,1.5875 0.399,0.69532 1.1799,1.76757 1.7353,2.38279 0.5554,0.61521 1.0098,1.24709 1.0098,1.40418 0,0.29573 16.7321,17.32884 21.1652,21.54596 1.3816,1.31429 2.8103,2.73164 3.175,3.14967 0.3646,0.41802 1.3928,1.54911 2.2848,2.51354 0.892,0.96442 1.9991,2.42819 2.4602,3.25282 0.4611,0.82464 1.1197,1.68364 1.4635,1.9089 l 0.6251,0.40956 0.7946,1.68193 c 0.4371,0.92506 1.0839,2.03059 1.4374,2.45673 1.4082,1.69754 1.8428,4.27828 1.0216,6.06647 -0.9135,1.98932 -1.9214,2.34789 -7.4399,2.64667 l -3.0427,0.16474 -4.8234,-0.42579 -4.8235,-0.42578 -1.5265,-0.7001 -1.5266,-0.70011 -3.5031,-0.59274 -3.5032,-0.59275 -1.5239,-0.9258 -1.5239,-0.92579 -2.5644,-0.53246 c -2.6677,-0.55394 -3.8217,-1.01877 -5.0281,-2.02527 -0.3923,-0.3273 -1.3804,-0.80495 -2.1958,-1.06142 -0.8154,-0.25648 -2.1018,-0.86022 -2.8586,-1.34165 -0.7568,-0.48143 -2.2095,-1.27762 -3.2281,-1.76931 -1.0187,-0.49169 -2.2093,-1.18992 -2.6459,-1.55162 -0.4365,-0.3617 -1.4512,-1.02887 -2.2548,-1.4826 -0.8036,-0.45372 -1.7561,-1.14118 -2.1167,-1.52767 -0.3605,-0.3865 -1.2056,-0.98274 -1.8779,-1.32498 -1.1531,-0.58703 -2.6141,-1.99203 -2.6141,-2.51386 0,-0.13062 -0.387,-0.43502 -0.8599,-0.67645 -0.9961,-0.50848 -4.772,-3.64573 -6.5317,-5.42695 -0.6641,-0.67216 -2.1212,-2.05628 -3.238,-3.07583 l -2.0306,-1.85372 -1.2296,-0.18439 -1.2296,-0.18439 -0.496,-0.49599 -0.496,-0.496 -0.1751,1.16735 c -0.096,0.64204 -0.049,3.52296 0.1049,6.40204 l 0.2799,5.23471 -0.2313,1.32291 -0.2314,1.32292 0.2773,1.85208 0.2774,1.85209 -0.1782,2.24895 c -0.098,1.23693 -0.3436,5.10646 -0.5457,8.59896 -0.6094,10.53058 -1.4532,16.38566 -2.5795,17.89872 -0.363,0.48769 -0.8689,1.44777 -1.1243,2.13352 l -0.4644,1.24682 -1.7935,1.59393 c -0.9864,0.87667 -2.0872,1.70562 -2.4462,1.84211 l -0.6527,0.24817 -0.8951,-0.20268 c -0.4923,-0.11147 -1.2523,-0.40884 -1.6888,-0.66081 -0.4366,-0.25197 -1.6841,-0.95546 -2.7722,-1.56332 l -1.9785,-1.10521 -0.932,-1.34517 c -0.5125,-0.73984 -1.2705,-1.69234 -1.6843,-2.11667 -1.0957,-1.12343 -3.4461,-4.47503 -4.5303,-6.46003 -0.5167,-0.94589 -1.3313,-2.26375 -1.8103,-2.92858 -0.479,-0.66483 -1.1383,-2.02331 -1.4651,-3.01884 -0.3268,-0.99553 -0.9044,-2.17798 -1.2837,-2.62767 -0.9551,-1.13268 -1.2861,-2.02381 -1.913,-5.15091 -0.2988,-1.49069 -0.8883,-3.50678 -1.3098,-4.48019 -0.4216,-0.97342 -0.8991,-2.60329 -1.0611,-3.62194 -0.1621,-1.01864 -0.6099,-3.65811 -0.9953,-5.86549 l -0.7006,-4.01341 -1.136,-0.28607 c -0.6249,-0.15734 -1.3538,-0.28607 -1.6198,-0.28607 h -0.4838 l -1.0417,2.05052 c -0.573,1.12779 -1.3101,2.46724 -1.6381,2.97656 -0.3279,0.50933 -1.0115,2.04438 -1.519,3.41123 l -0.9228,2.48519 -0.6424,0.68981 c -0.8198,0.88021 -1.0196,1.29105 -1.8723,3.84855 -0.3851,1.15522 -0.977,2.46491 -1.3154,2.91042 -0.6996,0.9212 -1.6341,2.91665 -2.152,4.59504 -0.1934,0.62655 -0.831,1.93624 -1.4169,2.91042 l -1.0653,1.77122 -0.428,1.89791 -0.4279,1.8979 -0.7968,1.20296 -0.7968,1.20295 -0.7345,2.63505 -0.7345,2.63505 -0.8667,1.35072 -0.8668,1.35073 -0.7545,2.40655 c -0.4149,1.32361 -1.0993,3.01754 -1.5207,3.7643 -0.4215,0.74675 -1.0214,2.28783 -1.3333,3.42461 -0.5822,2.12198 -1.399,3.97924 -1.8812,4.27724 -0.3268,0.20196 -0.887,1.46985 -1.7498,3.95977 -0.3513,1.01379 -0.9215,2.26394 -1.2673,2.77813 -0.3457,0.51418 -0.896,1.76832 -1.2229,2.78696 -0.7268,2.26495 -1.101,3.02101 -2.2218,4.48929 -0.479,0.62755 -1.1419,1.71966 -1.4731,2.4269 -0.7285,1.55573 -2.2093,3.95767 -3.3703,5.46693 -0.4699,0.61085 -1.3314,1.72839 -1.9145,2.48343 -0.5831,0.75504 -1.4587,1.67671 -1.9457,2.04816 l -0.8854,0.67535 -1.6348,0.22358 -1.6349,0.22358 z m 3.7733,-95.43211 c 0,-0.0728 -0.06,-0.13229 -0.1322,-0.13229 -0.073,0 -0.1323,0.0595 -0.1323,0.13229 0,0.0728 0.059,0.13229 0.1323,0.13229 0.073,0 0.1322,-0.0595 0.1322,-0.13229 z m 48.3255,-15.04261 5.0661,-0.33306 0.9305,-0.81697 c 0.5118,-0.44933 1.3872,-0.96489 1.9454,-1.14568 1.7915,-0.58026 3.3804,-1.50421 3.9725,-2.30997 0.3171,-0.43145 1.1205,-1.12818 1.7855,-1.54829 0.665,-0.42011 1.2092,-0.86801 1.2095,-0.99533 5e-4,-0.23921 0.8784,-2.3724 2.0368,-4.94894 l 0.6637,-1.47627 -0.1179,-1.43415 -0.1179,-1.43415 -1.3941,-3.0427 -1.3942,-3.04271 -0.8347,-0.79375 c -0.4591,-0.43656 -1.1453,-1.1722 -1.5248,-1.63475 l -0.69,-0.841 -2.1142,-1.07723 c -1.1628,-0.59248 -2.2011,-1.07723 -2.3073,-1.07723 -0.1062,0 -0.5448,-0.25047 -0.9747,-0.55661 -1.6801,-1.19634 -5.2828,-1.60868 -8.9111,-1.0199 l -1.6736,0.27157 -1.3742,0.77555 -1.3742,0.77556 -1.9234,0.40461 c -2.4798,0.52162 -3.2628,0.94028 -5.286,2.82599 -0.9148,0.85267 -1.7736,1.55031 -1.9084,1.55031 -0.2844,0 -1.9068,2.36701 -3.1256,4.56006 l -0.8433,1.51734 v 3.33757 3.33756 l 0.9835,1.62738 c 1.2636,2.09095 1.7051,2.67892 3.1492,4.19412 l 1.1854,1.24382 1.4167,0.67018 c 0.7791,0.3686 1.7554,0.95345 2.1695,1.29966 0.9152,0.76515 1.5992,0.99621 3.6634,1.2376 2.2613,0.26445 2.1418,0.266 7.7119,-0.10019 z m -45.7359,-19.33181 c 2.0258,-0.7549 4.1985,-1.73472 5.4409,-2.45365 l 1.2836,-0.74276 0.7386,-1.45774 c 0.7768,-1.53292 1.4455,-3.97922 1.7056,-6.23893 l 0.155,-1.34667 -0.6787,-2.62208 c -1.2365,-4.77676 -2.55,-6.83402 -6.6215,-10.37097 l -1.3058,-1.13431 -2.8211,-1.31254 -2.8212,-1.31253 -1.9929,-0.27719 -1.9929,-0.27719 -1.4465,0.37772 -1.4464,0.37772 -1.0155,0.77887 c -0.5586,0.42838 -1.4425,1.08841 -1.9643,1.46673 l -0.9487,0.68786 -0.4756,1.27646 c -0.2615,0.70205 -0.8993,1.98457 -1.4172,2.85005 l -0.9417,1.57359 -0.1655,2.13057 -0.1654,2.13058 0.3397,1.49655 c 0.1869,0.8231 0.6445,1.94549 1.0168,2.4942 0.3724,0.54871 0.7507,1.30401 0.8407,1.67845 0.3045,1.26638 1.6367,3.6375 2.2809,4.0596 0.3522,0.23077 1.0638,1.05323 1.5813,1.82768 l 0.9409,1.4081 1.9417,0.76547 c 1.0679,0.42101 2.4775,1.06295 3.1323,1.42653 0.6549,0.36359 1.786,0.81783 2.5136,1.00944 l 1.3229,0.34837 1.002,-0.12596 c 0.5512,-0.0693 1.4442,-0.29069 1.9844,-0.49202 z m 85.5927,-14.03367 2.5895,-0.64453 2.1374,-1.98573 2.1375,-1.98573 0.6484,-1.39958 c 0.3567,-0.76977 0.9291,-1.76752 1.2721,-2.21721 0.343,-0.4497 0.8382,-1.52213 1.1004,-2.38317 l 0.4769,-1.56554 0.01,-4.7625 c 0,-2.61938 -0.091,-5.33307 -0.2099,-6.03044 l -0.2163,-1.26793 -0.7778,-0.88585 c -0.4278,-0.48721 -1.2941,-1.82164 -1.9251,-2.96539 l -1.1474,-2.07956 -2.601,-0.8606 c -1.4305,-0.47333 -2.7929,-1.03433 -3.0275,-1.24667 -0.2347,-0.21233 -1.1574,-0.55654 -2.0506,-0.76491 l -1.624,-0.37884 -0.8799,0.58223 c -0.4839,0.32022 -1.8919,0.96839 -3.1288,1.44036 l -2.249,0.85813 -1.7806,1.94463 -1.7805,1.94462 -0.9297,2.0401 c -0.5114,1.12205 -1.2758,2.43426 -1.6988,2.91602 l -0.7691,0.87592 -0.291,1.3568 c -0.8718,4.06523 0.051,10.55068 1.6947,11.91517 0.2403,0.1994 0.722,0.92513 1.0704,1.61272 l 0.6335,1.25017 0.8672,0.59349 c 0.477,0.32643 1.3435,1.03162 1.9256,1.5671 l 1.0583,0.9736 2.249,0.84802 c 1.2369,0.46641 2.487,0.95423 2.7781,1.08405 0.8476,0.3781 1.6882,0.30639 4.4416,-0.37895 z m -50.3468,-6.63448 c 1.3824,-0.21949 3.3151,-0.526 4.2947,-0.68113 l 1.7812,-0.28204 0.8647,-0.63804 c 0.4755,-0.35092 1.9361,-1.16033 3.2458,-1.79868 l 2.3813,-1.16063 0.926,-0.97884 c 0.5093,-0.53836 1.2523,-1.14973 1.6511,-1.3586 l 0.725,-0.37975 0.5563,-1.09046 c 0.306,-0.59975 1.0659,-1.6391 1.6887,-2.30965 1.2468,-1.34242 2.0877,-2.84094 2.3915,-4.2619 0.1089,-0.50932 0.6033,-1.70174 1.0985,-2.64982 l 0.9005,-1.72379 0.2906,-1.84809 0.2907,-1.84809 -0.142,-3.45623 -0.142,-3.45622 -0.4312,-1.03201 c -0.2372,-0.56761 -0.6138,-1.23377 -0.837,-1.48037 -0.2231,-0.2466 -0.7558,-1.30873 -1.1838,-2.3603 l -0.7781,-1.91194 -1.4409,-1.91451 c -2.0729,-2.75436 -5.1045,-5.08049 -9.3274,-7.15693 l -1.3823,-0.67967 -2.5865,-0.2752 -2.5865,-0.27521 -3.3073,0.16261 c -1.819,0.0894 -4.1266,0.33673 -5.1281,0.54954 l -1.8207,0.38693 -3.314,1.65968 -3.3139,1.65969 -2.8336,2.85614 c -1.5585,1.57088 -3.3907,3.66412 -4.0716,4.65166 l -1.238,1.79552 -0.3905,1.43424 c -0.7853,2.88407 -1.2278,5.20753 -1.5798,8.29397 l -0.3599,3.15557 0.3859,1.83475 c 0.2123,1.00911 0.4467,1.93303 0.521,2.05315 0.074,0.12012 0.4973,1.43809 0.9401,2.92882 l 0.8052,2.71041 0.6575,0.78131 c 0.3616,0.42971 0.8968,1.25058 1.1894,1.82415 0.6561,1.28609 3.3972,3.97 4.9989,4.89462 0.6549,0.37802 1.5643,1.07795 2.021,1.55539 l 0.8304,0.86808 0.8894,0.14886 c 0.4892,0.0819 2.5563,0.43391 4.5936,0.7823 2.0373,0.34839 3.9423,0.58536 4.2334,0.52661 0.291,-0.0587 1.6602,-0.2864 3.0427,-0.5059 z m -38.8555,-28.42838 1.6815,-0.52407 1.9606,-1.65874 1.9607,-1.65874 1.1974,-1.98028 1.1973,-1.98027 0.3436,-1.45931 c 0.189,-0.80262 0.3455,-2.19091 0.3477,-3.08508 v -1.62578 l -0.5315,-1.72076 c -0.2923,-0.94642 -0.8239,-2.35942 -1.1813,-3.14001 l -0.6497,-1.41926 -1.0016,-0.94468 c -0.5509,-0.51958 -1.5875,-1.32178 -2.3037,-1.78265 l -1.3021,-0.83796 -2.0052,0.006 c -1.1028,0.004 -2.5297,0.12738 -3.1708,0.27516 l -1.1656,0.26869 -2.1417,1.4297 c -1.1779,0.78633 -2.8196,2.12103 -3.6482,2.96598 l -1.5066,1.53629 -0.8283,3.40207 -0.8282,3.40206 0.4357,3.1918 0.4358,3.19181 0.7614,1.5084 0.7614,1.5084 1.2492,0.82742 1.2492,0.82741 h 3.4986 3.4987 z m 78.4044,-15.77543 1.7185,-0.43167 1.9832,-1.6922 c 1.0908,-0.93071 2.1519,-2.01827 2.358,-2.41681 0.2061,-0.39853 0.6414,-0.96245 0.9675,-1.25315 0.8427,-0.75142 1.2432,-1.85188 1.4458,-3.97297 l 0.1764,-1.84724 -0.2755,-1.67558 -0.2755,-1.67557 -0.9392,-1.41502 c -0.5166,-0.77825 -1.1943,-2.08135 -1.5059,-2.89577 l -0.5667,-1.48077 -1.6899,-1.64635 c -1.7287,-1.68419 -1.8796,-1.7748 -4.8456,-2.9089 -0.9459,-0.36167 -2.137,-0.84001 -2.647,-1.06296 l -0.9271,-0.40538 -1.4541,0.62721 -1.4541,0.62722 -1.5211,0.0106 -1.521,0.0106 -1.8575,0.94665 -1.8576,0.94665 -0.5628,1.10314 c -0.3095,0.60672 -1.0787,1.73652 -1.7093,2.51067 -0.6306,0.77414 -1.2811,1.85664 -1.4456,2.40555 l -0.299,0.99802 0.1051,3.15143 0.1051,3.15143 0.4857,0.90967 c 2.4392,4.56835 7.2705,8.83057 11.004,9.70792 l 1.4552,0.34196 1.9157,-0.11837 c 1.0537,-0.0651 2.6891,-0.31264 3.6343,-0.55006 z m -46.4925,-11.32233 c 1.2724,-0.4944 2.7406,-1.03305 3.2627,-1.19699 0.5221,-0.16395 1.5681,-0.82632 2.3245,-1.47195 0.7564,-0.64562 2.0648,-1.59952 2.9077,-2.11976 l 1.5325,-0.9459 0.5681,-1.64418 c 0.3124,-0.9043 0.6433,-2.24939 0.7352,-2.9891 l 0.1672,-1.34492 -0.4742,-1.96237 -0.4742,-1.96237 -1.5559,-1.443 c -0.8558,-0.79365 -2.3889,-1.89498 -3.4069,-2.4474 l -1.8511,-1.00439 h -3.0308 -3.0307 l -2.421,0.82456 c -3.5747,1.2175 -6.0762,3.29059 -7.9444,6.58377 l -0.6754,1.19063 -0.1578,1.63662 -0.1578,1.63662 0.2825,1.52774 c 0.1553,0.84026 0.5668,2.08895 0.9143,2.77488 l 0.632,1.24715 1.4726,1.2713 c 0.8099,0.69922 1.9138,1.44273 2.4532,1.65223 0.5393,0.20951 1.2155,0.53951 1.5025,0.73334 l 0.5219,0.35241 h 1.795 1.795 z"
       id="path287" /></g><style
     id="style1">@media(prefers-color-scheme:dark){.lines{fill:#d7d7d7}}</style></svg>
