<?xml version="1.0" encoding="UTF-8" standalone="no"?>
<!-- Created with Inkscape (http://www.inkscape.org/) -->

<svg
   width="131.24321mm"
   height="84.469475mm"
   viewBox="0 0 131.24321 84.469475"
   version="1.1"
   id="svg1"
   xml:space="preserve"
   inkscape:version="1.4.4 (dcaf3e7, 2026-05-05)"
   sodipodi:docname="logos teams.svg"
   inkscape:export-batch-name="logos teams"
   inkscape:export-batch-path="Desktop"
   xmlns:inkscape="http://www.inkscape.org/namespaces/inkscape"
   xmlns:sodipodi="http://sodipodi.sourceforge.net/DTD/sodipodi-0.dtd"
   xmlns="http://www.w3.org/2000/svg"
   xmlns:svg="http://www.w3.org/2000/svg"><sodipodi:namedview
     id="namedview1"
     pagecolor="#ffffff"
     bordercolor="#000000"
     borderopacity="0.25"
     inkscape:showpageshadow="2"
     inkscape:pageopacity="0.0"
     inkscape:pagecheckerboard="0"
     inkscape:deskcolor="#d1d1d1"
     inkscape:document-units="mm"
     inkscape:zoom="0.69712823"
     inkscape:cx="489.14961"
     inkscape:cy="355.02794"
     inkscape:window-width="1920"
     inkscape:window-height="1050"
     inkscape:window-x="0"
     inkscape:window-y="30"
     inkscape:window-maximized="0"
     inkscape:current-layer="layer1"><inkscape:page
       x="0"
       y="0"
       width="131.24321"
       height="84.469475"
       id="page1"
       margin="0"
       bleed="0" /></sodipodi:namedview><defs
     id="defs1" /><g
     inkscape:label="Ebene 1"
     inkscape:groupmode="layer"
     id="layer1"
     transform="translate(-258.80237,-1.8708622)"><path
       style="fill:#000000;stroke-width:2.0874"
       d="m 302.10166,85.579434 c -4.76243,-1.004711 -13.40048,-4.536206 -15.80886,-6.463136 -0.5756,-0.460534 -0.24899,-3.008036 1.17116,-9.134359 l 0.27852,-1.201536 3.32377,1.302575 c 10.4442,4.093048 16.30621,3.002459 19.87851,-3.698261 0.90311,-1.694011 4.39122,-16.801528 4.40711,-19.087871 0.008,-1.181669 -5.93029,-0.920211 -6.27217,0.276144 -0.15196,0.531583 -0.96302,4.38382 -1.80249,8.560528 l -1.52633,7.594017 h -8.23867 -8.23868 l 0.38616,-2.575104 0.38615,-2.575104 -1.83889,1.838893 c -3.33365,3.333654 -7.12567,4.651826 -13.44374,4.673287 l -5.52293,0.01879 -3.13847,-1.541226 c -13.72906,-6.741972 -6.77672,-37.197912 9.92476,-43.477225 6.29215,-2.365679 14.82073,-1.285194 19.79336,2.507622 l 1.75791,1.340825 0.94046,-4.268141 c 0.51726,-2.347479 1.6055,-7.250519 2.41832,-10.8956468 l 1.47784,-6.627505 7.85185,-0.153236 c 5.66448,-0.110549 7.85183,0.02476 7.85183,0.485697 0,0.351412 -1.4912,8.2160848 -3.31375,17.4770498 -1.82258,9.260964 -3.31376,16.967792 -3.31376,17.126284 0,0.323295 6.58833,-0.194275 6.93918,-0.545123 0.12336,-0.123428 0.72312,-2.692665 1.33264,-5.709411 0.60952,-3.016744 1.24367,-6.061877 1.40922,-6.76696 l 0.30099,-1.281968 1.90538,1.672947 c 3.3306,2.924291 8.43162,3.502358 12.47142,1.413301 l 1.59891,-0.826824 -1.1e-4,0.980695 c -4e-5,0.539381 -0.37285,2.928675 -0.82843,5.309542 -1.19447,6.242214 -1.29099,5.972916 2.07119,5.779345 l 2.89953,-0.16693 3.53566,-17.535274 3.53567,-17.5352728 h 8.27112 8.27113 l -0.3611,2.347241 c -0.19851,1.290984 -1.5973,8.2358568 -3.10821,15.4330538 -1.51088,7.197197 -2.74706,13.532229 -2.74706,14.077849 0,0.62295 3.75204,-2.755896 10.08476,-9.081694 5.54665,-5.540552 10.41719,-10.073732 10.82344,-10.073732 0.68408,0 8.13705,3.711015 10.02014,4.989261 0.67054,0.455164 -1.09555,2.428094 -9.26602,10.351188 l -10.09446,9.788841 6.91878,11.808823 c 3.80534,6.494855 6.91879,11.906423 6.91879,12.025708 0,0.119295 -4.13196,0.148748 -9.18209,0.06546 l -9.18209,-0.151421 -4.73453,-9.034744 -4.7345,-9.034746 -1.81856,8.482453 c -1.0002,4.66535 -1.93734,8.793119 -2.08254,9.172819 -0.19434,0.508508 -2.37806,0.690365 -8.28954,0.690365 h -8.02556 V 62.69895 c 0,-0.565748 0.62133,-4.079366 1.38073,-7.808037 1.80878,-8.881133 1.91816,-8.284591 -1.51882,-8.283267 l -2.89952,0.0011 -2.37994,11.427836 c -4.85198,23.297947 -12.82657,30.917939 -28.82457,27.542902 z M 286.52141,54.392317 c 9.9146,-5.084499 12.23558,-26.011476 2.88489,-26.011476 -7.98496,0 -12.86293,6.832045 -12.94486,18.130509 l -0.0413,5.703937 1.80366,1.613932 c 2.1794,1.950142 5.19405,2.154724 8.29766,0.563098 z m 41.94697,-31.771502 c -3.85078,-1.374104 -5.37961,-3.630069 -5.37961,-7.938173 0,-6.5301338 7.41963,-10.6879878 12.7591,-7.1500278 8.56558,5.6755698 2.27669,18.5339018 -7.37949,15.0882008 z"
       id="path182"
       sodipodi:nodetypes="ssscssssscccccsscssscsscssssssscsscssscccccssssssscssscccssscssscsssssscsssssss" /></g><style
     id="style1">@media(prefers-color-scheme:dark){.lines{fill:#d7d7d7}}</style></svg>
