<?xml version="1.0" encoding="UTF-8" standalone="no"?>
<!-- Created with Inkscape (http://www.inkscape.org/) -->

<svg
   width="256.39023mm"
   height="68.604744mm"
   viewBox="0 0 256.39023 68.604744"
   version="1.1"
   id="svg1"
   xml:space="preserve"
   inkscape:version="1.4.4 (dcaf3e7, 2026-05-05)"
   sodipodi:docname="logos teams.svg"
   inkscape:export-batch-name="TSV Neustadt"
   inkscape:export-batch-path="Desktop/Frauenliga"
   xmlns:inkscape="http://www.inkscape.org/namespaces/inkscape"
   xmlns:sodipodi="http://sodipodi.sourceforge.net/DTD/sodipodi-0.dtd"
   xmlns="http://www.w3.org/2000/svg"
   xmlns:svg="http://www.w3.org/2000/svg"><sodipodi:namedview
     id="namedview1"
     pagecolor="#ffffff"
     bordercolor="#000000"
     borderopacity="0.25"
     inkscape:showpageshadow="2"
     inkscape:pageopacity="0.0"
     inkscape:pagecheckerboard="0"
     inkscape:deskcolor="#d1d1d1"
     inkscape:document-units="mm"
     inkscape:zoom="0.012061024"
     inkscape:cx="-22800.717"
     inkscape:cy="-10654.153"
     inkscape:window-width="1920"
     inkscape:window-height="1050"
     inkscape:window-x="0"
     inkscape:window-y="30"
     inkscape:window-maximized="0"
     inkscape:current-layer="layer1"><inkscape:page
       x="0"
       y="0"
       width="256.39023"
       height="68.604744"
       id="page1"
       margin="0"
       bleed="0" /></sodipodi:namedview><defs
     id="defs1"><style
       id="style1-7">
      .cls-1 {
        fill: #fff;
      }
    </style></defs><g
     inkscape:label="Ebene 1"
     inkscape:groupmode="layer"
     id="layer1"
     transform="translate(-1356.9463,926.30665)"><path
       style="fill:#000000"
       d="m 1389.1768,-857.86282 c -34.1833,-0.20781 -30.6916,-0.11965 -30.6916,-0.77499 0,-0.76687 -0.1557,-0.75664 16.0073,-1.05163 21.3866,-0.39034 25.9449,-0.52114 33.3374,-0.95666 18.1483,-1.06916 32.5124,-2.58194 36.4449,-3.83825 2.6619,-0.85036 4.5239,0.84886 2.0521,1.8727 -3.6273,1.50248 -0.5032,2.94022 6.8791,3.16583 l 4.6302,0.14151 v 0.79375 0.79375 l -19.976,0.0143 c -10.9869,0.008 -32.8944,-0.0643 -48.6834,-0.16027 z m 137.5834,-1.31706 c -14.0658,-2.91971 -12.6242,-25.24484 2.1093,-32.66448 15.0274,-7.56772 25.7933,8.95695 15.6075,23.95623 -4.185,6.16257 -11.8442,9.92727 -17.7168,8.70825 z m -49.1839,-1.05498 c -11.573,-2.44294 -13.2774,-18.96795 -2.9815,-28.90777 10.0456,-9.69828 23.4395,-6.20754 24.7647,6.45423 1.2485,11.92939 -11.1408,24.70002 -21.7832,22.45354 z m 67.7047,-1.40584 c -1.9529,-0.50756 -1.5128,-0.84482 6.2177,-4.76461 7.839,-3.9748 8.9424,-4.64391 14.0948,-8.54778 11.2139,-8.49645 13.6258,-12.24865 13.6692,-21.26531 l 0.017,-3.5766 -0.8629,-1.75373 c -5.6193,-11.41991 -18.8587,-7.89624 -26.01,6.92255 -0.8778,1.81901 -1.858,3.84307 -2.1782,4.49791 -0.8796,1.79883 -1.1179,1.30635 -1.0579,-2.18655 0.3789,-22.0656 17.1453,-31.48014 33.2351,-18.66193 7.7164,6.14734 14.5035,5.94529 22.2153,-0.66133 1.6126,-1.38151 4.8349,-5.20052 5.2315,-6.20024 0.2889,-0.72825 1.0319,-0.52914 1.0741,0.28784 0.1226,2.37396 -2.1986,10.07298 -3.7373,12.39603 -2.0983,3.16788 -7.8171,5.77105 -13.8104,6.2864 -5.6345,0.4845 -5.5003,0.39806 -5.5003,3.54435 v 1.9831 l 6.6807,-0.0475 c 17.7872,-0.12641 23.7308,10.77323 14.3967,26.40117 -2.9446,4.93004 -3.6589,4.46019 -2.409,-1.58467 0.5107,-2.47008 0.9988,-5.68169 1.0847,-7.13689 l 0.156,-2.64584 -0.8207,-2.11666 c -1.9008,-4.90177 -4.6939,-6.11653 -12.4376,-5.40918 -6.8624,0.62684 -7.4204,0.89091 -9.3044,4.40329 -3.6017,6.7146 -8.8661,11.97765 -15.0371,15.03326 -7.4411,3.68444 -19.9383,6.0943 -24.9072,4.8029 z m -164.7031,-3.26622 c -10.3588,-0.51285 -23.8265,-3.02558 -23.6295,-4.40865 l 0.082,-0.57207 7.1438,-0.17893 c 60.8458,-1.52404 71.9359,-4.49627 72.3869,-19.40024 0.614,-20.29458 16.8617,-33.66931 43.3683,-35.6999 3.7576,-0.28785 36.4678,-1.28325 36.8867,-1.12249 2.471,0.94819 -1.1989,1.73266 -12.0159,2.56849 -29.8867,2.30937 -43.4563,6.40888 -48.2416,14.57432 -3.2646,5.57074 -2.7371,9.09171 2.7086,18.07737 6.5125,10.74582 6.2245,11.49158 -6.3789,16.51979 -19.2254,7.67006 -44.3841,11.02489 -72.31,9.64231 z m 71.951,-0.64045 c -0.1123,-0.18165 -0.597,-0.22729 -1.2978,-0.12219 -1.1852,0.17773 -2.1099,-0.3714 -1.5568,-0.9245 1.0295,-1.0295 10.6754,-3.68069 10.6754,-2.93415 0,1.13166 -7.2888,4.8417 -7.8208,3.98084 z m 51.598,-10.84102 c -0.114,-0.18442 1.3201,-1.8325 3.6355,-4.17795 9.3787,-9.50039 11.8966,-12.87076 10.746,-14.38415 l -0.3472,-0.4566 -2.9104,0.39091 c -6.403,0.85999 -7.9424,0.96984 -12.089,0.86259 l -4.3152,-0.1116 -1.8014,-0.70364 c -7.6557,-2.9903 -8.677,-7.90712 -2.8311,-13.6294 11.7079,-11.46042 25.6098,-11.73269 31.0937,-0.609 3.9833,8.07964 9.2579,11.56977 18.3283,12.12755 3.2108,0.19745 3.5016,0.72087 1.0361,1.86523 -2.7011,1.25375 -9.5222,0.58671 -13.2031,-1.29114 -1.1079,-0.56519 -8.33,-7.27561 -9.4787,-8.80708 -5.2703,-7.02644 -16.2537,-7.48402 -19.563,-0.81501 -2.631,5.30209 2.1152,8.24249 10.6638,6.60666 6.7773,-1.29686 12.3732,0.73142 12.335,4.47094 -0.02,1.95224 -0.5102,2.49224 -10.8042,11.90231 -4.9067,4.48533 -9.9093,7.70727 -10.4951,6.75938 z m -39.1316,-14.39925 c -6.8651,-2.44555 -3.4534,-12.96933 4.898,-15.10887 4.8089,-1.23196 8.1638,1.2494 7.8726,5.82266 -0.3613,5.67454 -7.7754,11.06569 -12.7706,9.28621 z m 67.8807,-14.08177 c -1.304,-0.25146 -2.9974,-2.41315 -4.3488,-5.5514 l -1.2756,-2.96233 -1.8151,-1.71225 c -2.9547,-2.78728 -6.0436,-4.11998 -12.354,-5.33007 -2.3992,-0.46005 -3.0457,-0.85855 -2.3413,-1.44313 0.639,-0.53034 14.5493,1.0206 18.7194,2.08713 3.9779,1.01736 7.8611,3.16739 9.0988,5.03776 2.357,3.56154 -1.7168,10.63921 -5.6834,9.87429 z m 58.0456,-4.28003 c -2.2173,-0.59874 -4.7102,-2.10897 -9.6208,-5.82838 -6.3988,-4.84674 -7.7031,-5.38386 -17.3667,-7.15171 -5.6549,-1.0345 -17.4715,-2.65834 -19.3483,-2.65886 -1.1391,-3.1e-4 -1.8824,-0.5269 -1.5356,-1.08799 0.5726,-0.92646 34.5116,0.22168 44.8168,1.51611 11.2194,1.40927 17.7668,6.6924 14.6148,11.79257 -1.5872,2.56804 -7.8503,4.42002 -11.5602,3.41826 z"
       id="path171-1"
       sodipodi:nodetypes="ssssssscccssssssssssssssscssssssssssscsssscsssssssccsssssssssssssssssscsscsssssssssssssssssscssssssssssssss" /></g><style
     id="style1">@media(prefers-color-scheme:dark){.lines{fill:#d7d7d7}}</style></svg>
