<?xml version="1.0" encoding="UTF-8" standalone="no"?>
<!-- Created with Inkscape (http://www.inkscape.org/) -->

<svg
   width="256.70361mm"
   height="89.369049mm"
   viewBox="0 0 256.70361 89.369049"
   version="1.1"
   id="svg1"
   xml:space="preserve"
   inkscape:version="1.4.4 (dcaf3e7, 2026-05-05)"
   sodipodi:docname="logos teams.svg"
   inkscape:export-batch-name="logos teams"
   inkscape:export-batch-path="Desktop"
   xmlns:inkscape="http://www.inkscape.org/namespaces/inkscape"
   xmlns:sodipodi="http://sodipodi.sourceforge.net/DTD/sodipodi-0.dtd"
   xmlns="http://www.w3.org/2000/svg"
   xmlns:svg="http://www.w3.org/2000/svg"><sodipodi:namedview
     id="namedview1"
     pagecolor="#ffffff"
     bordercolor="#000000"
     borderopacity="0.25"
     inkscape:showpageshadow="2"
     inkscape:pageopacity="0.0"
     inkscape:pagecheckerboard="0"
     inkscape:deskcolor="#d1d1d1"
     inkscape:document-units="mm"
     inkscape:zoom="0.69712823"
     inkscape:cx="489.14961"
     inkscape:cy="355.02794"
     inkscape:window-width="1920"
     inkscape:window-height="1050"
     inkscape:window-x="0"
     inkscape:window-y="30"
     inkscape:window-maximized="0"
     inkscape:current-layer="layer1"><inkscape:page
       x="0"
       y="0"
       width="256.70361"
       height="89.369049"
       id="page1"
       margin="0"
       bleed="0" /></sodipodi:namedview><defs
     id="defs1" /><g
     inkscape:label="Ebene 1"
     inkscape:groupmode="layer"
     id="layer1"
     transform="translate(-1356.6329,926.30665)"><path
       style="fill:#000000"
       d="m 1531.1408,-837.19624 c -1.2009,-0.24548 -2.3334,-1.3829 -2.2121,-2.22167 0.1,-0.68788 2.5055,-0.6929 3.0344,-0.006 0.6407,0.83163 1.7987,0.34739 1.8923,-0.79124 l 0.084,-1.01952 -0.6057,0.4242 c -2.3225,1.62679 -5.1961,-1.17825 -4.4786,-4.37178 0.5001,-2.22582 2.883,-3.33525 4.537,-2.11238 0.6233,0.46082 0.7766,0.49428 0.7766,0.16942 0,-0.31428 0.3255,-0.4048 1.4552,-0.4048 h 1.4553 v 3.84496 c 0,5.94041 -1.3588,7.4252 -5.9382,6.48915 z m 2.4456,-5.62453 c 1.0342,-1.03422 -0.094,-3.18647 -1.3361,-2.54785 -0.9624,0.49494 -0.4699,2.86535 0.5953,2.86535 0.2328,0 0.5662,-0.14287 0.7408,-0.3175 z m -163.4543,2.49991 c -4.0838,-2.05178 -2.1227,-7.72515 2.5547,-7.39049 2.4858,0.17785 4.0546,1.73441 4.0546,4.02281 v 0.65611 h -2.9427 -2.9427 l 0.3934,0.59531 c 0.4398,0.66572 1.4333,0.92343 1.8713,0.48542 0.3306,-0.33058 3.3561,-0.3954 3.3561,-0.0719 0,1.57557 -4.3006,2.72973 -6.3447,1.70274 z m 3.4343,-4.66355 c 0,-1.06558 -1.6565,-1.23061 -2.317,-0.23083 l -0.3934,0.59531 h 1.3552 c 0.9747,0 1.3552,-0.10234 1.3552,-0.36448 z m 5.6106,4.86334 c -0.9771,-0.41396 -1.3773,-1.79539 -1.3773,-4.75495 v -2.65433 h 1.4553 1.4551 l 0.026,1.91823 c 0.033,2.38821 0.2534,3.21136 0.8937,3.33467 0.8609,0.16579 1.1965,-0.69107 1.1965,-3.05451 v -2.19839 h 1.4553 1.4552 v 3.70417 3.70416 h -1.323 -1.3229 v -0.57528 -0.57529 l -0.6354,0.59698 c -0.7133,0.67013 -2.3519,0.94725 -3.2789,0.55454 z m 9.8217,0.095 c -0.6736,-0.14927 -1.9386,-1.34139 -1.9386,-1.82698 0,-0.55805 2.6659,-0.81318 2.9624,-0.28349 0.3426,0.6122 2.1361,0.59634 2.0179,-0.0178 -0.06,-0.30946 -0.6444,-0.58106 -1.9212,-0.89233 -2.5744,-0.62763 -3.5047,-2.02903 -2.3968,-3.61076 1.0503,-1.49945 5.0026,-1.52446 6.3289,-0.0401 l 0.7787,0.87147 -0.6438,0.17982 c -1.1443,0.31962 -2.2903,0.24271 -2.6387,-0.17709 -0.4127,-0.49725 -1.4446,-0.40215 -1.4446,0.13314 0,0.26022 0.5371,0.49367 1.6577,0.72047 2.1173,0.42854 2.5598,0.67637 2.9683,1.66259 0.9339,2.25474 -2.2177,4.05935 -5.7302,3.28105 z m 8.9928,-0.0978 c -0.883,-0.35578 -1.1418,-1.10095 -1.1418,-3.28805 v -2.00177 h -0.5291 c -0.441,0 -0.5292,-0.17639 -0.5292,-1.05834 0,-0.88194 0.088,-1.05833 0.5292,-1.05833 0.4028,0 0.5291,-0.17639 0.5291,-0.73863 0,-0.63242 0.2093,-0.84127 1.4553,-1.45234 l 1.4552,-0.7137 v 1.45234 1.45233 h 0.7937 0.7938 v 1.05833 1.05834 h -0.8064 -0.8064 l 0.079,1.65364 0.079,1.65365 h 0.6615 c 0.9625,0 1.1493,1.8276 0.2123,2.07856 -0.8411,0.22529 -2.084,0.18228 -2.7747,-0.096 z m 5.5673,0.004 c -2.6187,-1.05678 -1.596,-3.63281 1.7576,-4.42705 1.3786,-0.32651 1.9844,-0.59112 1.9844,-0.86684 0,-0.57238 -1.147,-0.65066 -1.7352,-0.11841 -0.4824,0.43662 -2.6471,0.45449 -3.0762,0.0254 -0.7821,-0.78211 1.8623,-2.28824 4.0176,-2.28824 3.2195,0 3.8689,0.76803 4.0832,4.82884 l 0.1502,2.84446 -1.3671,-1.9e-4 c -0.8284,-1.2e-4 -1.4087,-0.12538 -1.4729,-0.31791 -0.078,-0.23307 -0.3585,-0.19782 -1.0542,0.13229 -1.0154,0.48185 -2.3672,0.55901 -3.2874,0.18765 z m 3.8303,-2.46967 c 0.4619,-0.96826 0.3446,-1.04822 -0.9052,-0.61726 -0.7272,0.25078 -1.0611,0.53205 -1.1221,0.94541 -0.1405,0.95036 1.5479,0.67708 2.0273,-0.32815 z m 6.0666,2.33218 c -3.7242,-2.09438 -0.9983,-9.12306 2.7748,-7.15484 l 0.7276,0.37956 v -1.7041 -1.70411 h 1.5875 1.5875 v 5.15938 5.15937 h -1.4552 c -1.1777,0 -1.4553,-0.0835 -1.4553,-0.43788 v -0.43788 l -0.5086,0.4603 c -0.7057,0.63864 -2.367,0.7815 -3.2583,0.2802 z m 3.1849,-2.2989 c 0.4419,-0.44189 0.3978,-2.19688 -0.065,-2.58083 -1.1311,-0.93874 -2.0858,0.40389 -1.6166,2.27348 0.173,0.68923 1.1254,0.86332 1.6814,0.30735 z m 6.7298,2.4245 c -0.8143,-0.32714 -1.1207,-1.26951 -1.1207,-3.44714 v -1.83486 h -0.5291 c -0.441,0 -0.5292,-0.17639 -0.5292,-1.05834 0,-0.88194 0.088,-1.05833 0.5292,-1.05833 0.4028,0 0.5291,-0.17639 0.5291,-0.73863 0,-0.63242 0.2093,-0.84127 1.4553,-1.45234 l 1.4552,-0.7137 v 1.45234 1.45233 h 0.7937 0.7938 v 1.05833 1.05834 h -0.8064 -0.8064 l 0.079,1.65364 0.079,1.65365 0.7276,-0.0762 0.7276,-0.0762 v 1.04004 c 0,0.7043 -0.1351,1.09188 -0.4185,1.20064 -0.6023,0.23112 -2.259,0.16748 -2.9588,-0.11365 z m 6.9602,0.0813 c -1.6415,-0.41694 -2.9784,-2.55145 -2.6604,-4.24747 0.8767,-4.67668 8.0934,-4.73251 8.5418,-0.0661 l 0.128,1.33155 h -2.8118 c -1.5539,0 -2.8118,0.1099 -2.8118,0.24568 0,0.58683 0.8875,1.12022 1.5631,0.93942 1.5526,-0.41547 3.7286,-0.45288 3.7286,-0.0641 0,1.37743 -3.31,2.46239 -5.6775,1.861 z m 2.7029,-5.16481 c -0.4921,-0.74478 -1.3246,-0.88855 -1.8872,-0.32592 -0.7105,0.71045 -0.4988,0.92123 0.9253,0.92123 h 1.3552 z m 17.9235,5.08207 c -2.0048,-0.65577 -3.5294,-3.42843 -1.8851,-3.42843 0.3456,0 0.9979,-0.0739 1.4496,-0.16424 0.7141,-0.14283 0.8558,-0.0734 1.0861,0.53241 0.3591,0.94446 1.3869,1.40061 2.2599,1.00289 1.2336,-0.56209 0.6183,-1.70051 -1.0927,-2.02149 -5.6367,-1.05745 -5.3885,-6.31858 0.2989,-6.33645 2.6144,-0.008 5.4861,2.14553 4.063,3.04722 -0.7539,0.47774 -2.8239,0.27583 -3.0045,-0.29306 -0.3101,-0.97716 -2.3849,-1.04086 -2.2003,-0.0676 0.055,0.29006 0.5332,0.59453 1.2764,0.81272 3.5505,1.04243 4.4936,1.80215 4.4936,3.61985 0,2.5768 -3.5862,4.32932 -6.7449,3.29614 z m 9.9935,-0.22905 c -1.4123,-0.65981 -2.1863,-1.88608 -2.1863,-3.46396 0,-5.11081 8.0485,-5.42776 8.4051,-0.331 0.2296,3.28124 -3.0433,5.27848 -6.2188,3.79496 z m 2.9522,-2.02765 c 0.2287,-0.22868 0.4158,-0.84438 0.4158,-1.36823 0,-1.6938 -1.3971,-2.52691 -2.234,-1.33213 -0.8535,1.21864 -0.2988,3.11613 0.9111,3.11613 0.2702,0 0.6784,-0.1871 0.9071,-0.41577 z m 22.3815,2.06901 c -1.3123,-0.65929 -2.1222,-1.98755 -2.121,-3.4783 0,-5.0779 7.9424,-5.50638 8.6332,-0.466 l 0.169,1.23273 h -2.8141 c -2.1326,0 -2.8141,0.0833 -2.8141,0.34396 0,0.80819 1.5758,1.37548 1.9844,0.71437 0.1944,-0.31447 3.3073,-0.36106 3.3073,-0.0495 0,1.5958 -4.2744,2.74292 -6.3447,1.70274 z m 3.4343,-4.64303 c 0,-0.51527 -0.564,-0.97896 -1.1906,-0.97896 -0.6267,0 -1.1907,0.46369 -1.1907,0.97896 0,0.23126 0.3901,0.34396 1.1907,0.34396 0.8005,0 1.1906,-0.1127 1.1906,-0.34396 z m 17.9917,4.91875 c -0.2183,-0.0803 -0.6053,-0.32744 -0.8599,-0.54928 l -0.4631,-0.40336 v 0.43788 c 0,0.35303 -0.275,0.43788 -1.419,0.43788 h -1.419 l 0.03,-5.09322 0.03,-5.09323 1.5213,-0.0794 1.5214,-0.0794 v 1.7173 1.71731 l 0.7276,-0.37956 c 2.1965,-1.1458 4.5747,0.68614 4.5583,3.51129 -0.016,2.68279 -2.1423,4.62243 -4.2276,3.85569 z m 1.0841,-3.05344 c 0.4324,-1.6301 -0.6883,-2.92802 -1.7602,-2.03843 -0.4683,0.3887 -0.5044,2.14115 -0.053,2.5922 0.5704,0.57035 1.5987,0.25636 1.8136,-0.55377 z m 6.7211,3.06286 c -3.2452,-0.90812 -3.6578,-5.84727 -0.6043,-7.23317 3.0961,-1.4052 6.5574,0.29303 6.5574,3.21725 v 1.01921 h -2.7781 c -1.5333,0 -2.7782,0.11009 -2.7782,0.24568 0,0.58683 0.8876,1.12022 1.5632,0.93942 1.6299,-0.43619 3.7285,-0.45388 3.7285,-0.0314 0,1.24246 -3.6309,2.41885 -5.6885,1.84305 z m 2.7139,-5.17952 c -0.4921,-0.74478 -1.3246,-0.88855 -1.8872,-0.32592 -0.7105,0.71045 -0.4987,0.92123 0.9253,0.92123 h 1.3552 z m 47.7132,5.06939 c -2.6173,-1.04649 -1.7256,-3.47457 1.5856,-4.31724 1.5305,-0.3895 2.2269,-0.6888 2.2269,-0.95709 0,-0.54355 -1.2957,-0.64444 -1.8,-0.14016 -0.8755,0.87549 -3.2938,0.39647 -2.9806,-0.59039 0.3377,-1.06377 1.4401,-1.50809 3.7468,-1.51007 3.5811,-0.003 3.9895,0.47353 4.1361,4.82681 l 0.091,2.71197 h -1.2744 c -0.8324,0 -1.3225,-0.1252 -1.413,-0.36095 -0.1122,-0.29244 -0.3221,-0.26733 -1.1059,0.1323 -1.0477,0.53411 -2.2048,0.60788 -3.2129,0.20482 z m 3.6272,-1.88117 c 0.1747,-0.17462 0.3175,-0.58303 0.3175,-0.90757 v -0.59007 l -0.8473,0.24302 c -1.0123,0.29031 -1.6652,0.88101 -1.4173,1.28215 0.24,0.38828 1.5499,0.36977 1.9471,-0.0275 z m 6.2777,1.58127 -0.7509,-0.64584 -0.1251,-2.16105 c -0.1094,-1.89064 -0.187,-2.16104 -0.6202,-2.16104 -0.4013,0 -0.4952,-0.20061 -0.4952,-1.05834 0,-0.88194 0.088,-1.05833 0.5292,-1.05833 0.3824,0 0.5291,-0.17639 0.5291,-0.6362 0,-0.495 0.3221,-0.81797 1.4512,-1.45521 1.8328,-1.03437 1.7238,-1.0746 1.7238,0.6362 v 1.45521 h 0.7938 0.7937 v 1.05833 1.05834 h -0.8064 -0.8063 l 0.079,1.65364 0.079,1.65365 0.5843,-0.0611 c 0.5807,-0.0607 1.2046,1.5353 0.7701,1.96989 -0.5414,0.54137 -3.0011,0.37766 -3.7287,-0.24818 z m 21.0368,-0.007 c -2.8267,-1.44948 -2.8302,-5.2469 -0.01,-6.74029 4.1563,-2.1979 8.5401,2.30705 5.6209,5.77629 -1.364,1.62104 -3.5885,2.00297 -5.6147,0.964 z m 3.1562,-2.03313 c 0.4092,-0.76459 0.3306,-2.30422 -0.1419,-2.77662 -0.9802,-0.98021 -2.0376,-0.23484 -2.0376,1.43631 0,1.69379 1.4975,2.61468 2.1795,1.34031 z m -243.4073,-2.79552 v -5.15938 l 1.5213,0.01 1.5214,0.01 1.701,2.51746 c 2.1815,3.22863 2.1218,3.22334 2.0908,0.18502 l -0.026,-2.58966 1.4907,-0.0794 1.4907,-0.0794 v 5.17258 5.17257 h -1.5525 -1.5526 l -1.6886,-2.56262 -1.6886,-2.56262 -0.076,2.56262 -0.076,2.56262 h -1.5779 -1.5779 z m 80.9625,1.45521 v -3.70417 h 1.4552 c 0.8458,0 1.4552,0.11708 1.4552,0.27959 0,0.15671 0.2584,0.0986 0.588,-0.13229 0.6533,-0.4576 1.4683,-0.52573 2.0306,-0.16975 0.6619,0.41916 -0.2708,2.29275 -1.0914,2.19201 -1.0122,-0.12426 -1.348,0.56013 -1.4765,3.00915 l -0.1171,2.22962 h -1.422 -1.422 z m 30.9562,-1.45521 v -5.15938 h 1.4552 1.4552 v 1.8482 1.84819 l 0.8599,-0.52429 c 1.2665,-0.77218 2.4615,-0.68516 3.3938,0.24714 l 0.7734,0.77339 v 3.06306 3.06306 h -1.4552 -1.4552 v -2.34885 c 0,-2.51178 -0.2845,-3.14011 -1.2787,-2.82455 -0.6071,0.19267 -0.838,1.15342 -0.838,3.48669 v 1.68671 h -1.4552 -1.4552 z m 9.525,1.45521 v -3.70417 h 1.4552 c 1.1172,0 1.4552,0.0922 1.4552,0.39688 0,0.30163 0.1342,0.26273 0.559,-0.16208 0.5133,-0.51328 2.0752,-0.59921 2.535,-0.13946 0.3725,0.37252 -0.9971,2.23118 -1.5396,2.08932 -0.9471,-0.24767 -1.2898,0.55608 -1.2898,3.02529 v 2.19838 h -1.5875 -1.5875 z m 15.875,0 v -3.70417 h 1.4552 c 1.1108,0 1.4552,0.093 1.4552,0.39299 0,0.32066 0.1583,0.29649 0.8599,-0.13131 2.6999,-1.64611 4.1797,-0.23852 4.3738,4.16025 l 0.1318,2.9864 h -1.6244 -1.6244 v -2.52184 c 0,-4.18823 -1.6639,-4.09329 -1.7959,0.10247 l -0.076,2.41937 h -1.5775 -1.5776 z m 28.8396,0 v -3.70417 h 1.3229 c 1.0608,0 1.3229,0.0878 1.3229,0.443 0,0.37616 0.092,0.35621 0.6124,-0.1323 0.6334,-0.59507 1.6269,-0.74083 2.2708,-0.33315 0.662,0.41916 -0.2708,2.29275 -1.0913,2.19201 -1.0122,-0.12426 -1.3481,0.56013 -1.4766,3.00915 l -0.117,2.22962 h -1.4221 -1.422 z m 23.2833,-0.13229 v -3.83646 h -1.5875 -1.5875 v -1.32292 -1.32292 h 4.8948 4.8948 v 1.32292 1.32292 h -1.5875 -1.5875 v 3.83646 3.83645 h -1.7198 -1.7198 z m 7.673,0.13229 v -3.70417 h 1.4552 c 0.8003,0 1.4552,0.11353 1.4552,0.25228 0,0.13875 0.3341,0.0605 0.7424,-0.17385 0.8627,-0.4951 2.168,-0.29243 2.168,0.33663 0,0.95863 -0.7546,1.9003 -1.4207,1.77296 -0.9027,-0.17256 -1.2479,0.58873 -1.4226,3.13731 l -0.1427,2.083 h -1.4174 -1.4174 z m 6.35,0 v -3.70417 h 1.5875 1.5875 v 3.70417 3.70416 h -1.5875 -1.5875 z m 20.6375,-1.45521 v -5.15938 h 1.4552 1.4552 v 1.8482 1.84819 l 0.8599,-0.52429 c 1.2664,-0.77218 2.4615,-0.68516 3.3938,0.24714 l 0.7734,0.77339 v 3.06306 3.06306 h -1.4453 -1.4453 l -0.076,-2.41937 c -0.1316,-4.18469 -1.7871,-4.05227 -2.0083,0.16064 l -0.1185,2.25873 h -1.422 -1.4221 z m 9.7895,0 v -5.15938 h 1.4553 1.4552 v 5.15938 5.15937 h -1.4552 -1.4553 z m 14.023,1.45521 v -3.70417 h 1.4552 c 1.1505,0 1.4552,0.0876 1.4552,0.41846 0,0.35536 0.1343,0.33541 0.8911,-0.1323 2.8068,-1.73469 4.3962,-0.0456 4.3991,4.67478 l 10e-4,2.44739 h -1.5875 -1.5875 v -2.52184 c 0,-4.18823 -1.664,-4.09329 -1.7959,0.10247 l -0.076,2.41937 h -1.5776 -1.5776 z m -66.4105,-0.14342 v -1.20176 l 2.0506,0.0773 2.0505,0.0773 0.081,1.12448 0.081,1.12448 h -2.1319 -2.1319 z m -133.9548,-4.51835 c -0.1039,-0.10391 -0.1889,-0.52627 -0.1889,-0.93858 v -0.74965 h 1.0751 1.0751 l -0.083,0.85989 c -0.082,0.85162 -1.3125,1.3942 -1.8784,0.82834 z m 2.8979,-0.0125 c -0.097,-0.097 -0.1764,-0.51373 -0.1764,-0.92604 v -0.74965 h 1.0583 1.0584 v 0.92604 0.92604 h -0.882 c -0.485,0 -0.9613,-0.0794 -1.0583,-0.17639 z m 53.534,-0.74965 v -0.92604 h 0.9261 0.926 v 0.92604 0.92604 h -0.926 -0.9261 z m 2.9104,0 v -0.92604 h 0.9261 0.926 v 0.92604 0.92604 h -0.926 -0.9261 z m 96.573,-0.11909 v -1.07154 h 1.6034 1.6035 l -0.082,0.99219 -0.082,0.99219 -1.5213,0.0793 -1.5214,0.0794 z m -170.9209,-8.49359 c -34.1833,-0.20781 -30.6916,-0.11965 -30.6916,-0.77499 0,-0.76687 -0.1557,-0.75664 16.0073,-1.05163 21.3866,-0.39034 25.9449,-0.52114 33.3374,-0.95666 18.1483,-1.06916 32.5124,-2.58194 36.4449,-3.83825 2.6619,-0.85036 4.5239,0.84886 2.0521,1.8727 -3.6273,1.50248 -0.5032,2.94022 6.8791,3.16583 l 4.6302,0.14151 v 0.79375 0.79375 l -19.976,0.0143 c -10.9869,0.008 -32.8944,-0.0643 -48.6834,-0.16027 z m 137.5834,-1.31706 c -14.0658,-2.91971 -12.6242,-25.24484 2.1093,-32.66448 15.0274,-7.56772 25.7933,8.95695 15.6075,23.95623 -4.185,6.16257 -11.8442,9.92727 -17.7168,8.70825 z m -49.1839,-1.05498 c -11.573,-2.44294 -13.2774,-18.96795 -2.9815,-28.90777 10.0456,-9.69828 23.4395,-6.20754 24.7647,6.45423 1.2485,11.92939 -11.1408,24.70002 -21.7832,22.45354 z m 67.7047,-1.40584 c -1.9529,-0.50756 -1.5128,-0.84482 6.2177,-4.76461 7.839,-3.9748 8.9424,-4.64391 14.0948,-8.54778 11.2139,-8.49645 13.6258,-12.24865 13.6692,-21.26531 l 0.017,-3.5766 -0.8629,-1.75373 c -5.6193,-11.41991 -18.8587,-7.89624 -26.01,6.92255 -0.8778,1.81901 -1.858,3.84307 -2.1782,4.49791 -0.8796,1.79883 -1.1179,1.30635 -1.0579,-2.18655 0.3789,-22.0656 17.1453,-31.48014 33.2351,-18.66193 7.7164,6.14734 14.5035,5.94529 22.2153,-0.66133 1.6126,-1.38151 4.8349,-5.20052 5.2315,-6.20024 0.2889,-0.72825 1.0319,-0.52914 1.0741,0.28784 0.1226,2.37396 -2.1986,10.07298 -3.7373,12.39603 -2.0983,3.16788 -7.8171,5.77105 -13.8104,6.2864 -5.6345,0.4845 -5.5003,0.39806 -5.5003,3.54435 v 1.9831 l 6.6807,-0.0475 c 17.7872,-0.12641 23.7308,10.77323 14.3967,26.40117 -2.9446,4.93004 -3.6589,4.46019 -2.409,-1.58467 0.5107,-2.47008 0.9988,-5.68169 1.0847,-7.13689 l 0.156,-2.64584 -0.8207,-2.11666 c -1.9008,-4.90177 -4.6939,-6.11653 -12.4376,-5.40918 -6.8624,0.62684 -7.4204,0.89091 -9.3044,4.40329 -3.6017,6.7146 -8.8661,11.97765 -15.0371,15.03326 -7.4411,3.68444 -19.9383,6.0943 -24.9072,4.8029 z m -164.7031,-3.26622 c -10.3588,-0.51285 -23.8265,-3.02558 -23.6295,-4.40865 l 0.082,-0.57207 7.1438,-0.17893 c 60.8458,-1.52404 71.9359,-4.49627 72.3869,-19.40024 0.614,-20.29458 16.8617,-33.66931 43.3683,-35.6999 3.7576,-0.28785 36.4678,-1.28325 36.8867,-1.12249 2.471,0.94819 -1.1989,1.73266 -12.0159,2.56849 -29.8867,2.30937 -43.4563,6.40888 -48.2416,14.57432 -3.2646,5.57074 -2.7371,9.09171 2.7086,18.07737 6.5125,10.74582 6.2245,11.49158 -6.3789,16.51979 -19.2254,7.67006 -44.3841,11.02489 -72.31,9.64231 z m 71.951,-0.64045 c -0.1123,-0.18165 -0.597,-0.22729 -1.2978,-0.12219 -1.1852,0.17773 -2.1099,-0.3714 -1.5568,-0.9245 1.0295,-1.0295 10.6754,-3.68069 10.6754,-2.93415 0,1.13166 -7.2888,4.8417 -7.8208,3.98084 z m 51.598,-10.84102 c -0.114,-0.18442 1.3201,-1.8325 3.6355,-4.17795 9.3787,-9.50039 11.8966,-12.87076 10.746,-14.38415 l -0.3472,-0.4566 -2.9104,0.39091 c -6.403,0.85999 -7.9424,0.96984 -12.089,0.86259 l -4.3152,-0.1116 -1.8014,-0.70364 c -7.6557,-2.9903 -8.677,-7.90712 -2.8311,-13.6294 11.7079,-11.46042 25.6098,-11.73269 31.0937,-0.609 3.9833,8.07964 9.2579,11.56977 18.3283,12.12755 3.2108,0.19745 3.5016,0.72087 1.0361,1.86523 -2.7011,1.25375 -9.5222,0.58671 -13.2031,-1.29114 -1.1079,-0.56519 -8.33,-7.27561 -9.4787,-8.80708 -5.2703,-7.02644 -16.2537,-7.48402 -19.563,-0.81501 -2.631,5.30209 2.1152,8.24249 10.6638,6.60666 6.7773,-1.29686 12.3732,0.73142 12.335,4.47094 -0.02,1.95224 -0.5102,2.49224 -10.8042,11.90231 -4.9067,4.48533 -9.9093,7.70727 -10.4951,6.75938 z m -39.1316,-14.39925 c -6.8651,-2.44555 -3.4534,-12.96933 4.898,-15.10887 4.8089,-1.23196 8.1638,1.2494 7.8726,5.82266 -0.3613,5.67454 -7.7754,11.06569 -12.7706,9.28621 z m 67.8807,-14.08177 c -1.304,-0.25146 -2.9974,-2.41315 -4.3488,-5.5514 l -1.2756,-2.96233 -1.8151,-1.71225 c -2.9547,-2.78728 -6.0436,-4.11998 -12.354,-5.33007 -2.3992,-0.46005 -3.0457,-0.85855 -2.3413,-1.44313 0.639,-0.53034 14.5493,1.0206 18.7194,2.08713 3.9779,1.01736 7.8611,3.16739 9.0988,5.03776 2.357,3.56154 -1.7168,10.63921 -5.6834,9.87429 z m 58.0456,-4.28003 c -2.2173,-0.59874 -4.7102,-2.10897 -9.6208,-5.82838 -6.3988,-4.84674 -7.7031,-5.38386 -17.3667,-7.15171 -5.6549,-1.0345 -17.4715,-2.65834 -19.3483,-2.65886 -1.1391,-3.1e-4 -1.8824,-0.5269 -1.5356,-1.08799 0.5726,-0.92646 34.5116,0.22168 44.8168,1.51611 11.2194,1.40927 17.7668,6.6924 14.6148,11.79257 -1.5872,2.56804 -7.8503,4.42002 -11.5602,3.41826 z"
       id="path171-1" /></g></svg>
