<?xml version="1.0" encoding="UTF-8" standalone="no"?>
<!-- Created with Inkscape (http://www.inkscape.org/) -->

<svg
   width="130.07668mm"
   height="135.75294mm"
   viewBox="0 0 130.07668 135.75294"
   version="1.1"
   id="svg1"
   xml:space="preserve"
   inkscape:version="1.4.4 (dcaf3e7, 2026-05-05)"
   sodipodi:docname="logos teams.svg"
   inkscape:export-batch-name="logos teams"
   inkscape:export-batch-path="Desktop"
   xmlns:inkscape="http://www.inkscape.org/namespaces/inkscape"
   xmlns:sodipodi="http://sodipodi.sourceforge.net/DTD/sodipodi-0.dtd"
   xmlns="http://www.w3.org/2000/svg"
   xmlns:svg="http://www.w3.org/2000/svg"><sodipodi:namedview
     id="namedview1"
     pagecolor="#ffffff"
     bordercolor="#000000"
     borderopacity="0.25"
     inkscape:showpageshadow="2"
     inkscape:pageopacity="0.0"
     inkscape:pagecheckerboard="0"
     inkscape:deskcolor="#d1d1d1"
     inkscape:document-units="mm"
     inkscape:zoom="0.69712823"
     inkscape:cx="489.14961"
     inkscape:cy="355.02794"
     inkscape:window-width="1920"
     inkscape:window-height="1050"
     inkscape:window-x="0"
     inkscape:window-y="30"
     inkscape:window-maximized="0"
     inkscape:current-layer="layer1"><inkscape:page
       x="0"
       y="0"
       width="130.07668"
       height="135.75294"
       id="page1"
       margin="0"
       bleed="0" /></sodipodi:namedview><defs
     id="defs1" /><g
     inkscape:label="Ebene 1"
     inkscape:groupmode="layer"
     id="layer1"
     transform="translate(-1195.312,700.61536)"><path
       style="fill:#02a64d;fill-opacity:1"
       d="m 1259.4981,-566.11617 c -0.4728,-0.83674 -1.0636,-1.87854 -1.3129,-2.3151 -0.7446,-1.30401 -5.156,-8.89436 -5.9875,-10.30209 l -0.7715,-1.30626 -3.034,-0.60483 c -36.0786,-7.19232 -58.2049,-46.68259 -44.9697,-80.2605 l 0.5401,-1.37025 -1.314,-2.29054 c -0.7227,-1.25979 -2.8018,-4.84351 -4.6202,-7.96381 -4.0076,-6.87682 -4.796,-6.10068 6.1967,-6.10068 h 9.2387 l 3.2472,-3.33948 c 24.0568,-24.74024 62.3903,-24.87716 86.7735,-0.30994 l 3.622,3.64942 h 9.1441 c 5.0292,0 9.1414,0.0893 9.1381,0.19844 -0.01,0.25208 -1.0043,2.06752 -4.7568,8.6651 -1.6553,2.91042 -3.2527,5.72829 -3.5496,6.26193 -0.4715,0.84741 -0.5006,1.09867 -0.2293,1.98438 3.1269,10.2078 3.7792,13.92216 3.7792,21.51932 0,29.38736 -21.3961,54.90553 -50.0078,59.64201 l -0.9276,0.15355 -2.2474,4.01941 c -7.249,12.96436 -6.7051,12.27555 -7.9513,10.06992 z m -11.4422,-19.84375 c -0.061,-0.10914 -1.6602,-2.87734 -3.5527,-6.15156 -1.8926,-3.27422 -4.1284,-7.14375 -4.9684,-8.59896 -4.4762,-7.75385 -5.4768,-9.48456 -6.884,-11.90625 -0.8455,-1.45521 -2.1528,-3.7174 -2.9052,-5.02708 -3.727,-6.48851 -7.8332,-13.61314 -11.3605,-19.71146 -2.1463,-3.71078 -4.8643,-8.41375 -6.04,-10.45104 -5.9178,-10.25462 -5.2493,-9.51289 -6.0195,-6.67876 -6.3024,23.19178 4.3646,50.26931 24.3557,61.82556 4.4911,2.59617 6.2725,3.46453 9.9144,4.83284 4.3794,1.64538 7.8203,2.50638 7.4602,1.86671 z m 29.8461,-1.16955 c 27.0624,-8.92262 43.4276,-38.28757 36.6171,-65.70389 -1.1416,-4.59597 -0.9564,-4.54326 -3.0314,-0.86241 -0.8417,1.49297 -3.4601,6.10778 -5.8189,10.25512 -2.3587,4.14735 -4.5233,7.95735 -4.8102,8.46667 -0.2869,0.50932 -2.5195,4.43838 -4.9613,8.73125 -7.5099,13.2026 -10.9181,19.20022 -14.5089,25.53229 -1.8981,3.34698 -4.5603,8.02882 -5.9161,10.40409 -1.3558,2.37527 -2.4651,4.37903 -2.4651,4.45279 0,0.22832 1.5878,-0.18557 4.8948,-1.27591 z m -21.1714,-28.81963 c 2.555,-4.58719 2.4428,-4.4728 4.3859,-4.4728 h 1.5653 l 0.6227,-0.99219 c 0.3425,-0.5457 0.9519,-1.5875 1.3541,-2.3151 0.4023,-0.7276 1.1458,-2.06706 1.6523,-2.97656 l 0.921,-1.65365 h -1.4624 c -1.9453,0 -1.9473,-0.0234 -0.2565,-3.05606 2.0001,-3.58745 1.9683,-3.55852 3.9101,-3.55852 h 1.6255 l 2.6329,-4.67 c 1.4481,-2.56851 2.6727,-4.77116 2.7212,-4.8948 0.1381,-0.35198 -9.1233,-0.27211 -10.3763,0.0895 -2.8588,0.82501 -4.4143,2.3638 -6.9038,6.82947 -0.8518,1.52796 -1.9267,3.43296 -2.3886,4.23333 -0.4619,0.80036 -1.7372,3.06255 -2.834,5.02708 -1.0968,1.96453 -3.5567,6.34938 -5.4664,9.7441 -1.9097,3.39472 -3.4722,6.22246 -3.4722,6.28385 0,0.0614 2.1807,0.11164 4.846,0.11164 h 4.846 z m 28.8544,-1.20144 c 3.6283,-6.30194 3.6834,-5.76841 -0.6054,-5.85873 -1.9282,-0.0406 -3.5058,-0.18047 -3.5058,-0.31083 0,-0.13035 1.5078,-2.8951 3.3506,-6.14388 1.8429,-3.24878 3.8508,-6.79985 4.4622,-7.89125 0.6114,-1.09141 1.7826,-3.1442 2.6026,-4.56177 0.82,-1.41756 1.4909,-2.64027 1.4909,-2.71714 0,-0.0769 -2.5841,-0.10766 -5.7424,-0.0684 l -5.7424,0.0713 -2.279,3.96875 c -2.619,4.56094 -9.7041,17.0436 -12.765,22.48958 -1.145,2.03729 -2.3765,4.21018 -2.7366,4.82865 l -0.6548,1.12448 h 9.6431 9.6432 z m -45.562,4.07083 c 0.3026,-0.49299 4.7287,-8.36037 7.2564,-12.89844 0.3647,-0.65484 0.7506,-1.30969 0.8574,-1.45521 0.5724,-0.78002 9.5246,-16.80561 9.5246,-17.05036 0,-0.20366 -1.7477,-0.26877 -5.8719,-0.21876 l -5.8719,0.0712 -3.3224,5.82083 c -3.9952,6.99951 -3.1218,7.00733 -7.1303,-0.0638 l -3.3358,-5.88461 -6.1516,-0.002 c -3.3834,-10e-4 -6.1516,0.0478 -6.1516,0.10918 0,0.0614 0.7811,1.40081 1.7357,2.97656 0.9546,1.57576 1.843,3.0436 1.9742,3.26189 0.1312,0.21828 0.8589,1.4089 1.6171,2.64583 1.4223,2.32056 10.0088,16.50436 12.6134,20.83594 1.5933,2.64965 1.7088,2.74444 2.2567,1.85208 z m 66.5598,-44.40058 c 0.6403,-0.1476 1.5035,-0.50998 1.9182,-0.80529 l 0.7541,-0.53693 v -2.62782 -2.62782 h -2.1167 -2.1166 v 0.90928 0.90928 l 0.8599,0.0829 0.8599,0.0829 v 1.18706 c 0,2.1867 -2.7927,2.38977 -3.5361,0.25712 -0.4341,-1.24517 -0.3826,-5.63004 0.079,-6.73493 0.6764,-1.619 2.7756,-1.61906 3.361,-10e-5 l 0.3346,0.92522 h 1.1705 1.1706 l -0.1692,-0.84606 c -0.7645,-3.82259 -6.4086,-4.34754 -8.1591,-0.75888 -1.266,2.59532 -0.6826,8.42217 0.9815,9.80323 0.9611,0.79765 3.0212,1.1467 4.6084,0.78082 z m -93.3714,-2.7614 v -2.77812 h 1.9843 1.9844 v 2.77812 2.77813 h 1.1906 1.1907 v -6.49751 -6.4975 l -1.1245,0.0813 -1.1245,0.0814 -0.1323,2.64246 -0.1323,2.64246 -1.8521,-0.0299 -1.8521,-0.0299 -0.076,-2.54378 -0.076,-2.54378 -0.6309,-0.15836 c -1.3411,-0.3366 -1.5867,-0.0948 -1.7711,1.74355 -0.1288,1.28427 -0.1103,7.81808 0.031,10.91109 0.01,0.10914 0.5448,0.19844 1.1997,0.19844 h 1.1906 z m 16.1395,1.85208 v -0.92604 h -2.3928 -2.3928 l 0.078,-1.90699 0.078,-1.90698 1.3842,0.0743 c 1.9612,0.10522 2.4522,-0.10317 2.4522,-1.04062 v -0.77592 l -1.4552,-0.0331 c -0.8004,-0.0182 -1.5743,-0.0628 -1.7198,-0.0992 -0.1455,-0.0364 -0.3893,-0.081 -0.5418,-0.0992 -0.4682,-0.0559 -0.1991,-3.33323 0.2772,-3.37599 0.2183,-0.0196 1.2601,-0.0494 2.3151,-0.0661 l 1.9183,-0.0305 v -0.76545 c 0,-1.00391 -0.2821,-1.08664 -3.7042,-1.08664 -4.1061,0 -3.7042,-0.72073 -3.7042,6.64289 v 6.3217 h 3.7042 3.7042 z m 4.025,-1.52135 0.076,-2.4474 0.5774,-0.0822 c 0.665,-0.0947 0.9008,0.26737 1.9487,2.99262 l 0.7121,1.85208 1.3575,0.08 c 1.6237,0.0957 1.5983,0.32679 0.2991,-2.72581 -1.2603,-2.96113 -1.2281,-2.54045 -0.273,-3.56285 2.9494,-3.15737 0.4298,-6.62256 -4.749,-6.53112 l -2.254,0.0398 -0.071,6.41615 -0.071,6.41615 h 1.1854 1.1854 z m 0.1202,-4.60816 c -0.3965,-0.39646 -0.1893,-3.73081 0.2421,-3.89635 2.0508,-0.78697 3.6607,1.60573 2.3446,3.4847 -0.4046,0.57767 -2.1439,0.85446 -2.5867,0.41165 z m 9.8778,4.96053 c 0,-4.17538 0.9628,-4.23592 2.5422,-0.15986 l 0.8225,2.12259 1.3603,0.08 c 1.6391,0.0964 1.6309,0.1893 0.2635,-2.98566 l -1.0968,-2.54679 0.5332,-0.37346 c 1.8736,-1.31233 1.7886,-5.13304 -0.1395,-6.272 -0.8107,-0.47892 -4.8789,-0.9084 -5.9821,-0.63153 l -0.6846,0.17184 v 6.34496 6.34496 h 1.1906 1.1907 z m 0.1605,-5.20266 c -1.0026,-2.61295 0.7884,-4.8037 2.6585,-3.25168 0.5491,0.45567 0.4602,2.70005 -0.1279,3.23232 -0.6305,0.5706 -2.3141,0.58349 -2.5306,0.0194 z m 14.9207,6.37164 v -0.92604 h -2.3812 -2.3813 v -1.84049 -1.84049 l 1.9182,-0.0777 1.9182,-0.0777 0.083,-0.85989 c 0.091,-0.94492 0.2322,-0.88717 -2.3319,-0.95417 l -1.4552,-0.038 -0.081,-1.56296 c -0.099,-1.92468 8e-4,-1.99962 2.677,-2.00486 l 2.0673,-0.004 -0.083,-0.8599 -0.083,-0.8599 h -3.5719 -3.5719 l -0.071,6.07969 c -0.089,7.55305 -0.535,6.75261 3.7672,6.75261 h 3.5802 z m 4.2333,-3.21909 c 0,-2.27983 0.072,-4.07306 0.1602,-3.98495 0.088,0.0881 0.9624,1.92365 1.9427,4.07899 l 1.7826,3.9188 1.237,0.0808 1.237,0.0808 -0.071,-6.43084 -0.071,-6.43084 h -1.0583 -1.0584 l -0.1323,4.10105 -0.1323,4.10104 -0.4592,-0.8395 c -0.2526,-0.46173 -0.9469,-1.95001 -1.5428,-3.30729 -0.596,-1.35729 -1.2661,-2.85475 -1.4892,-3.32769 l -0.4055,-0.8599 h -1.1322 c -1.4864,0 -1.454,-0.14104 -1.4497,6.3055 0,6.76342 -0.019,6.65909 1.4824,6.65909 h 1.1598 z m 14.9738,3.64159 c 1.9985,-0.90761 2.5089,-3.75418 0.965,-5.38165 l -0.6885,-0.72582 0.5986,-0.63724 c 1.3141,-1.39881 0.8647,-4.21075 -0.8115,-5.07755 -1.1449,-0.59206 -5.5839,-0.86376 -6.1697,-0.37763 -0.4196,0.34827 -0.6307,12.12093 -0.2246,12.52705 0.4163,0.41626 5.243,0.16682 6.3307,-0.32716 z m -3.7523,-1.71081 c -0.077,-0.19924 -0.1025,-1.00291 -0.058,-1.78593 l 0.081,-1.42367 1.2775,0.0179 c 1.455,0.0204 1.7551,0.31468 1.7612,1.72701 0.01,1.50476 -2.5732,2.73865 -3.062,1.46467 z m -0.055,-6.97992 0.078,-1.78593 0.9833,0.0264 c 2.7423,0.0736 2.5618,3.54549 -0.1842,3.54549 h -0.9556 z m 15.0272,8.26823 v -0.92604 h -2.3813 -2.3812 v -1.84049 -1.84049 l 1.9182,-0.0777 1.9182,-0.0777 0.087,-0.76504 c 0.1089,-0.95406 -0.2215,-1.16622 -1.6016,-1.02821 -0.598,0.0598 -1.3707,0.0376 -1.7171,-0.0494 l -0.6299,-0.15808 0.079,-1.64549 0.079,-1.64549 2.3151,-0.0764 2.3151,-0.0765 v -0.76562 c 0,-0.99355 -0.2372,-1.05061 -4.101,-0.98636 l -3.175,0.0528 -0.071,6.07969 c -0.089,7.55305 -0.5351,6.75261 3.7671,6.75261 h 3.5802 z m 3.9687,-1.46351 c 0,-3.76732 1.0443,-3.73472 2.5709,0.0803 l 0.9241,2.30929 h 1.3131 1.313 l -0.1786,-0.59532 c -0.098,-0.32742 -0.5785,-1.52992 -1.0674,-2.67223 l -0.8888,-2.07692 0.8511,-1.05914 c 0.7588,-0.94423 0.8512,-1.24223 0.8512,-2.74664 v -1.6875 l -0.8171,-0.81703 c -0.9961,-0.99614 -2.0675,-1.25999 -4.9266,-1.21333 l -2.1938,0.0358 -0.071,6.41615 -0.071,6.41615 h 1.1953 1.1953 z m 0.1764,-4.666 c -1.0595,-1.05949 0.1033,-4.22591 1.4527,-3.95602 2.4426,0.48851 2.1348,4.13241 -0.349,4.13241 -0.51,0 -1.0067,-0.0794 -1.1037,-0.17639 z m 6.9162,-14.58969 c -0.5983,-0.82826 -4.197,-4.00941 -6.2816,-5.55281 -18.6769,-13.82805 -43.3272,-14.85415 -63.116,-2.62727 -1.8946,1.17057 -6.6928,4.91807 -8.471,6.61602 l -2.1167,2.02109 40.1655,0.0108 40.1656,0.0108 z"
       id="path172-9"
       sodipodi:nodetypes="ssscsscssscsscscssssscssssssssssssssssssssssssscssscssscssssssssscssssssssscssscccscsssscssccsssssccsscccccccccsssscccsssssccccccccccccccccccssssccccccccsscssssccsssccccccsscssssccccccsssssscsscssscccccssssssccccccccsscsscccccssccssscccccccccssscscscssscssssssscscssccssccccccccccssscccccsscssccsscccsscsscsscccccscsscsssscccs" /></g></svg>
