<?xml version="1.0" encoding="UTF-8" standalone="no"?>
<!-- Created with Inkscape (http://www.inkscape.org/) -->

<svg
   width="119.45074mm"
   height="53.489433mm"
   viewBox="0 0 119.45074 53.489433"
   version="1.1"
   id="svg1"
   xml:space="preserve"
   inkscape:version="1.4.4 (dcaf3e7, 2026-05-05)"
   sodipodi:docname="logos teams.svg"
   inkscape:export-batch-name="logos teams"
   inkscape:export-batch-path="Desktop"
   xmlns:inkscape="http://www.inkscape.org/namespaces/inkscape"
   xmlns:sodipodi="http://sodipodi.sourceforge.net/DTD/sodipodi-0.dtd"
   xmlns="http://www.w3.org/2000/svg"
   xmlns:svg="http://www.w3.org/2000/svg"><sodipodi:namedview
     id="namedview1"
     pagecolor="#ffffff"
     bordercolor="#000000"
     borderopacity="0.25"
     inkscape:showpageshadow="2"
     inkscape:pageopacity="0.0"
     inkscape:pagecheckerboard="0"
     inkscape:deskcolor="#d1d1d1"
     inkscape:document-units="mm"
     inkscape:zoom="0.69712823"
     inkscape:cx="489.14961"
     inkscape:cy="355.02794"
     inkscape:window-width="1920"
     inkscape:window-height="1050"
     inkscape:window-x="0"
     inkscape:window-y="30"
     inkscape:window-maximized="0"
     inkscape:current-layer="layer1"><inkscape:page
       x="0"
       y="0"
       width="119.45074"
       height="53.489433"
       id="page1"
       margin="0"
       bleed="0" /></sodipodi:namedview><defs
     id="defs1" /><g
     inkscape:label="Ebene 1"
     inkscape:groupmode="layer"
     id="layer1"
     transform="translate(-983.38344,931.50276)"><path
       style="fill:#051732;fill-opacity:1;stroke-width:0.280113"
       d="m 984.21045,-878.15988 c -0.89827,-0.4427 -0.84193,0.30493 -0.81537,-10.81998 l 0.0223,-9.35043 0.22542,-0.32072 c 0.6303,-0.89675 1.81371,-0.85002 2.39015,0.0944 l 0.16367,0.26814 v 8.81509 c 0,6.9372 0.0197,8.84124 0.0926,8.93785 0.0831,0.11009 0.40253,0.12494 3.09615,0.14387 l 3.00351,0.0211 0.2188,0.17219 c 0.66512,0.52345 0.67895,1.46631 0.0284,1.93756 l -0.31035,0.22482 -3.93541,-0.002 c -3.4819,-10e-4 -3.96359,-0.0156 -4.17995,-0.12221 z m 11.93891,-0.0914 c -0.16343,-0.11839 -0.36854,-0.33077 -0.45579,-0.47196 l -0.15866,-0.2567 v -9.68417 c 0,-10.59184 -0.0308,-9.8067 0.40163,-10.2348 0.40664,-0.40257 0.45745,-0.40762 4.09436,-0.40762 4.0906,0 4.3976,0.0825 4.3976,1.1813 0,1.05961 -0.2543,1.14888 -3.3487,1.17537 l -2.58163,0.0221 -0.11365,0.17346 c -0.12631,0.19277 -0.13463,6.2648 -0.009,6.39083 0.0339,0.0339 0.81281,0.0718 1.73098,0.0842 2.0433,0.0276 2.357,0.15047 2.4958,0.978 0.1867,1.1129 -0.3437,1.4037 -2.5653,1.40638 -1.98867,0.003 -1.76015,-0.48267 -1.76015,3.73628 0,4.29558 -0.41451,3.7411 2.81635,3.76727 2.8264,0.0229 2.7473,0.01 3.115,0.51743 0.4027,0.55585 0.2447,1.41238 -0.313,1.69689 -0.2603,0.13279 -0.4841,0.14096 -3.8626,0.14096 h -3.58634 z m 11.62764,-0.006 c -0.659,-0.47742 -0.6063,0.42226 -0.6063,-10.34779 0,-10.61318 -0.035,-9.89028 0.5084,-10.34793 1.0734,-0.90319 2.0712,-0.22044 2.6785,1.83269 0.097,0.32984 0.3015,0.94248 0.3701,1.1117 0.033,0.0815 0.1315,0.36501 0.2189,0.62996 0.087,0.26496 0.192,0.58179 0.2326,0.70408 0.4867,1.46724 1.1373,3.4905 1.2213,3.7983 0.372,1.36137 0.4651,1.74682 0.5597,2.31604 0.1623,0.97691 0.4227,1.14386 0.5781,0.37057 0.087,-0.43253 0.3119,-1.39911 0.4831,-2.07518 0.057,-0.22419 0.1402,-0.5577 0.1855,-0.74113 0.045,-0.18343 0.1117,-0.41688 0.1477,-0.51879 0.036,-0.10191 0.2386,-0.73557 0.4503,-1.40816 0.2117,-0.67257 0.4285,-1.33959 0.4818,-1.48226 0.053,-0.14267 0.2705,-0.80968 0.4827,-1.48226 0.2122,-0.67258 0.432,-1.33239 0.4886,-1.46625 0.056,-0.13386 0.1027,-0.28825 0.1027,-0.34308 0,-0.98816 1.3195,-1.87498 2.1553,-1.44858 0.9229,0.4708 0.8463,-0.48462 0.8463,10.55806 v 9.56063 l -0.1855,0.33127 c -0.4964,0.8865 -1.7627,0.88843 -2.2339,0.003 -0.1309,-0.2458 -0.1375,-0.57074 -0.1386,-6.7443 0,-5.91568 -0.035,-7.1468 -0.1785,-6.51926 -0.023,0.0998 -0.074,0.31482 -0.1132,0.47787 -0.039,0.16305 -0.1086,0.46321 -0.1536,0.66702 -0.045,0.20381 -0.1298,0.54025 -0.1883,0.74764 -0.058,0.2074 -0.1062,0.44086 -0.106,0.5188 2e-4,0.0779 -0.046,0.29179 -0.1032,0.47522 -0.2503,0.80628 -0.3315,1.09089 -0.3806,1.33404 -0.029,0.14267 -0.078,0.29274 -0.1095,0.33351 -0.031,0.0408 -0.079,0.19084 -0.1066,0.33351 -0.027,0.14267 -0.095,0.37612 -0.1502,0.51879 -0.055,0.14267 -0.1763,0.50953 -0.2687,0.81525 -0.4207,1.39102 -0.9622,1.80357 -2.0752,1.58097 -0.5762,-0.11524 -1.6979,-2.19313 -1.6979,-3.14519 0,-0.0445 -0.045,-0.18602 -0.1007,-0.31447 -0.1376,-0.31905 -0.4154,-1.27336 -0.7477,-2.56811 -0.068,-0.26495 -0.1712,-0.64849 -0.2293,-0.8523 -0.058,-0.20381 -0.1428,-0.51922 -0.188,-0.7009 -0.2388,-0.95858 -0.3127,0.81302 -0.1404,3.36898 0.1285,1.90695 0.092,8.99318 -0.048,9.40503 -0.3011,0.88385 -1.233,1.2259 -1.9416,0.71264 z m 15.7995,0.01 c -0.6435,-0.46617 -0.5826,0.62117 -0.5826,-10.39836 v -9.75754 l 0.2294,-0.28481 c 0.7113,-0.88314 1.8371,-0.7993 2.3831,0.17747 0.1102,0.19713 0.1811,0.39374 0.7613,2.11046 0.2441,0.72204 0.4731,1.38906 0.5089,1.48227 0.036,0.0932 0.1405,0.41959 0.2326,0.7253 0.092,0.30572 0.196,0.58754 0.2309,0.62626 0.035,0.0387 0.064,0.13374 0.064,0.21114 0,0.0774 0.046,0.24583 0.1025,0.37427 0.056,0.12845 0.1737,0.467 0.2608,0.75233 0.087,0.28534 0.1919,0.62389 0.2331,0.75234 0.072,0.22564 0.1903,0.65398 0.4152,1.50812 0.1539,0.58434 0.3159,1.2976 0.4194,1.84689 0.1426,0.75628 0.3934,0.52552 0.5664,-0.52114 0.036,-0.21963 0.088,-0.45528 0.1148,-0.52365 0.027,-0.0684 0.094,-0.3185 0.1486,-0.55585 0.1527,-0.66065 0.3133,-1.27888 0.4489,-1.72852 0.068,-0.22419 0.167,-0.5577 0.221,-0.74113 0.054,-0.18343 0.1332,-0.43356 0.176,-0.55585 0.043,-0.12229 0.2491,-0.75596 0.4583,-1.40815 0.2093,-0.6522 0.4095,-1.24304 0.4449,-1.313 0.035,-0.07 0.095,-0.25339 0.133,-0.40763 0.038,-0.15423 0.1095,-0.39715 0.1597,-0.53983 0.2284,-0.65009 0.283,-0.81233 0.4491,-1.33403 0.097,-0.30572 0.1935,-0.57252 0.2139,-0.59291 0.02,-0.0204 0.088,-0.13597 0.1497,-0.25687 0.5372,-1.04878 2.2053,-0.83156 2.5175,0.32782 0.052,0.19341 0.071,3.39207 0.058,9.84061 l -0.02,9.55406 -0.1767,0.25788 c -0.5812,0.8481 -1.7603,0.76686 -2.23,-0.15365 -0.1647,-0.32299 -0.2267,-9.70791 -0.08,-12.1166 0.082,-1.34 -0.2247,-1.50161 -0.4063,-0.21432 -0.028,0.19672 -0.093,0.50776 -0.1445,0.69119 -0.1123,0.39811 -0.2062,0.77748 -0.5598,2.26045 -0.049,0.20382 -0.1136,0.40392 -0.1443,0.44468 -0.031,0.0408 -0.079,0.20329 -0.1077,0.36116 -0.028,0.15788 -0.08,0.34131 -0.1156,0.40763 -0.035,0.0663 -0.1368,0.37071 -0.226,0.67642 -0.5597,1.91706 -1.0845,2.40085 -2.2607,2.08415 -0.4822,-0.12987 -1.145,-0.9639 -1.145,-1.44096 0,-0.0591 -0.05,-0.20298 -0.1107,-0.31974 -0.061,-0.11675 -0.1109,-0.26951 -0.1112,-0.33946 -2e-4,-0.07 -0.046,-0.23671 -0.1019,-0.37057 -0.1846,-0.4426 -0.4205,-1.18759 -0.5699,-1.79976 -0.04,-0.16305 -0.1032,-0.36316 -0.1409,-0.44468 -0.038,-0.0815 -0.1016,-0.2983 -0.1421,-0.48174 -0.1363,-0.61678 -0.5272,-2.03579 -0.6329,-2.2975 -0.058,-0.14267 -0.1284,-0.32611 -0.1572,-0.40763 -0.1139,-0.32172 -0.1832,0.28048 -0.098,0.8523 0.053,0.35564 0.095,2.65143 0.1169,6.37375 l 0.034,5.81788 -0.1649,0.30251 c -0.37,0.67877 -1.2374,0.91034 -1.8224,0.48655 z m 15.1187,0.0766 c -0.7644,-0.40843 -0.8029,-1.50102 -0.072,-2.04685 0.1836,-0.13714 0.3313,-0.15546 1.4406,-0.1787 0.6914,-0.0145 1.2769,-0.0593 1.3287,-0.10172 0.073,-0.0598 0.093,-1.78511 0.093,-8.17307 0,-6.38747 -0.02,-8.11345 -0.093,-8.17399 -0.053,-0.044 -0.6365,-0.0874 -1.3671,-0.10171 l -1.2745,-0.025 -0.2648,-0.25679 c -0.6227,-0.6039 -0.4955,-1.54573 0.2609,-1.93162 0.436,-0.22244 7.8582,-0.22417 8.3477,-0.002 0.8229,0.3736 0.922,1.50233 0.1769,2.01556 -0.2371,0.16338 -0.3339,0.1764 -1.4822,0.19951 -0.9874,0.0198 -1.254,0.0476 -1.3583,0.14118 -0.122,0.10956 -0.1297,0.59207 -0.1297,8.13478 0,7.54303 0.01,8.02516 0.1297,8.13393 0.1035,0.0922 0.377,0.12104 1.3526,0.14238 1.3731,0.03 1.4931,0.069 1.8234,0.59225 0.3559,0.56383 0.1668,1.28174 -0.4253,1.61502 -0.3805,0.21411 -8.0887,0.22933 -8.4866,0.0167 z m 12.6274,-0.0529 c -0.6227,-0.42311 -0.5733,0.48008 -0.5733,-10.48303 v -9.71326 l 0.1852,-0.29345 c 0.4971,-0.78745 2.1092,-0.65258 2.1126,0.17674 3e-4,0.10036 0.3298,0.91919 0.3967,0.98602 0.026,0.0262 0.048,0.10051 0.048,0.16505 3e-4,0.0645 0.05,0.21288 0.1112,0.32963 0.061,0.11675 0.1107,0.24512 0.1107,0.28525 0,0.0401 0.046,0.17806 0.1034,0.30651 0.057,0.12845 0.2955,0.76716 0.5302,1.41935 0.2348,0.6522 0.4551,1.2175 0.4895,1.25622 0.034,0.0387 0.063,0.11706 0.063,0.17409 0,0.057 0.045,0.20877 0.1001,0.33721 0.055,0.12845 0.1745,0.43364 0.2655,0.67822 0.091,0.24457 0.2126,0.56974 0.2704,0.7226 0.2526,0.6677 0.3288,0.87687 0.5873,1.61196 0.1506,0.42801 0.3043,0.8449 0.3416,0.92642 0.2744,0.59969 0.7698,2.1739 1.0788,3.42774 0.2778,1.12761 0.2647,1.42149 0.275,-6.16993 l 0.01,-6.44785 0.1809,-0.24108 c 0.6613,-0.88161 1.9537,-0.61781 2.2679,0.46291 0.1958,0.67368 0.1245,19.33232 -0.075,19.65321 -0.5674,0.91196 -1.7984,0.78065 -2.2035,-0.23503 -0.081,-0.20381 -0.2003,-0.50397 -0.2647,-0.66702 -0.064,-0.16305 -0.1777,-0.43636 -0.252,-0.60737 -0.074,-0.171 -0.1351,-0.34228 -0.1351,-0.38062 0,-0.0383 -0.05,-0.16524 -0.1107,-0.28199 -0.061,-0.11675 -0.112,-0.26231 -0.1136,-0.32346 0,-0.0611 -0.052,-0.1759 -0.1116,-0.25503 -0.06,-0.0791 -0.1088,-0.19081 -0.1088,-0.24819 0,-0.0574 -0.047,-0.20943 -0.1051,-0.33788 -0.058,-0.12844 -0.2264,-0.55037 -0.3746,-0.93761 -0.1482,-0.38725 -0.3177,-0.80917 -0.3766,-0.93762 -0.059,-0.12844 -0.1072,-0.26749 -0.1072,-0.30897 0,-0.0415 -0.047,-0.16986 -0.1052,-0.28525 -0.058,-0.11541 -0.1607,-0.3599 -0.2283,-0.54333 -0.068,-0.18343 -0.1703,-0.42793 -0.2282,-0.54333 -0.058,-0.1154 -0.1053,-0.24376 -0.1053,-0.28525 0,-0.0415 -0.048,-0.18053 -0.1062,-0.30898 -0.1432,-0.31497 -0.8571,-2.46665 -0.8577,-2.58507 -3e-4,-0.0518 -0.047,-0.18319 -0.1036,-0.29195 -0.057,-0.10877 -0.1262,-0.33372 -0.1543,-0.49989 -0.028,-0.16616 -0.079,-0.31914 -0.1122,-0.33995 -0.034,-0.0208 -0.084,-0.17379 -0.1123,-0.33995 -0.028,-0.16617 -0.097,-0.39112 -0.1542,-0.49988 -0.057,-0.10877 -0.1034,-0.27599 -0.1036,-0.3716 -3e-4,-0.0956 -0.047,-0.26238 -0.1033,-0.37057 -0.057,-0.1082 -0.1451,-0.29677 -0.1968,-0.41906 l -0.094,-0.22234 -0.076,0.24893 c -0.053,0.17342 -0.049,0.52184 0.014,1.14875 0.1483,1.49777 0.2448,5.28257 0.2199,8.63014 l -0.024,3.16434 -0.1795,0.26516 c -0.4138,0.61111 -1.2274,0.79122 -1.8041,0.39934 z m 16.0522,0.0413 c -1.7749,-0.52423 -3.0394,-1.89002 -3.4666,-3.74447 -0.1751,-0.75995 -0.132,-13.0878 0.048,-13.79546 0.327,-1.28414 1.6152,-2.79022 2.653,-3.10192 0.1019,-0.0306 0.2186,-0.082 0.2594,-0.11425 2.4045,-1.90159 7.638,2.17212 6.3896,4.97354 -0.6437,1.44444 -2.6469,0.93687 -2.6469,-0.67069 0,-2.54254 -3.3175,-3.25105 -3.8958,-0.832 -0.1565,0.65503 -0.1515,13.09003 0.01,13.60773 0.4703,1.55001 2.4935,1.91272 3.4585,0.62001 0.4178,-0.55971 0.4318,-0.6784 0.4318,-3.66989 0,-3.194 0.086,-2.90907 -0.8754,-2.90907 -1.1805,0 -1.7976,-0.62866 -1.5206,-1.54905 0.2309,-0.76722 0.5881,-0.89669 2.474,-0.89669 1.7948,0 2.049,0.0789 2.5071,0.77819 l 0.1941,0.29645 0.023,3.14981 c 0.024,3.38337 -0.045,4.35667 -0.3558,5.00265 -0.039,0.0815 -0.1067,0.23161 -0.15,0.33351 -0.8349,1.96234 -3.4267,3.14361 -5.5327,2.5216 z m 10.2035,-0.0195 c -0.3118,-0.19643 -0.4022,-0.30007 -0.5943,-0.68178 -0.2265,-0.45002 -0.2312,-19.11442 0,-19.55823 0.2038,-0.3997 0.2882,-0.48415 0.6847,-0.68507 l 0.3543,-0.17951 h 3.3882 c 4.1917,0 4.3673,0.0501 4.3554,1.24286 -0.01,1.03299 -0.3001,1.12782 -3.4472,1.12835 -3.0446,5.6e-4 -2.661,-0.48218 -2.661,3.34839 0,3.76311 -0.2519,3.32143 1.8957,3.32468 l 1.6246,0.003 0.2965,0.20449 c 0.5224,0.36037 0.6872,0.94722 0.4155,1.47962 -0.3159,0.6189 -0.5409,0.6826 -2.4111,0.6826 -1.2302,0 -1.5207,0.0202 -1.6565,0.11537 l -0.1647,0.11537 v 3.50469 c 0,4.29491 -0.4192,3.73482 2.8171,3.76401 l 2.5561,0.0231 0.242,0.18156 c 0.7352,0.55149 0.6969,1.64905 -0.072,2.04887 -0.3886,0.20222 -7.2885,0.14626 -7.6188,-0.0618 z m -93.34566,-32.07514 c -0.89745,-0.42208 -0.81524,0.63896 -0.81524,-10.52241 v -9.67178 l 0.19373,-0.29754 c 0.60603,-0.93078 1.94703,-0.87793 2.42871,0.0957 0.15335,0.30998 0.15681,0.39869 0.15681,4.02065 0,3.11633 0.0164,3.70368 0.10324,3.70368 0.10964,0 0.19291,-0.15397 0.19367,-0.3581 2.5e-4,-0.068 0.0503,-0.21916 0.11117,-0.33592 0.0609,-0.11676 0.11071,-0.24205 0.11071,-0.27842 0,-0.0714 0.46492,-1.2946 0.63041,-1.65858 0.34038,-0.7486 0.68568,-1.49286 0.96277,-2.07517 0.17457,-0.36686 0.4415,-0.93383 0.59317,-1.25992 1.0524,-2.26268 1.25312,-2.49325 2.17042,-2.49335 0.53988,-5e-5 0.81988,0.17761 1.07118,0.67968 0.30714,0.61363 0.26623,0.84659 -0.38356,2.18423 -0.25901,0.53319 -1.72347,3.52808 -2.69058,5.50239 -0.39842,0.81335 -0.42263,1.03861 -0.17282,1.60779 0.0548,0.12487 0.17394,0.44381 0.26475,0.70877 0.0908,0.26496 0.21133,0.58683 0.26783,0.71527 0.0565,0.12845 0.10273,0.27065 0.10273,0.31599 0,0.0454 0.0331,0.14036 0.0736,0.21114 0.0782,0.13677 0.26502,0.64931 0.37111,1.01805 0.0824,0.28647 0.28133,0.84735 0.36798,1.03759 0.0371,0.0815 0.15189,0.39835 0.25503,0.70408 0.10315,0.30571 0.25779,0.73927 0.34366,0.96347 0.0859,0.22419 0.18649,0.50767 0.22358,0.62996 0.0371,0.12229 0.0993,0.28904 0.13828,0.37057 0.039,0.0815 0.15372,0.39835 0.25504,0.70407 0.10131,0.30572 0.32007,0.93702 0.48613,1.4029 0.48333,1.35599 0.32787,2.04766 -0.5409,2.40655 -0.89566,0.37 -1.62111,-0.16673 -2.04356,-1.51194 -0.096,-0.30572 -0.19374,-0.58919 -0.2172,-0.62996 -0.0508,-0.0882 -0.50955,-1.38695 -0.60216,-1.70461 -0.12492,-0.42841 -0.51935,-1.55746 -0.58341,-1.66998 -0.0356,-0.0625 -0.0895,-0.22923 -0.11972,-0.37057 -0.0303,-0.14132 -0.0828,-0.29162 -0.11671,-0.33399 -0.0339,-0.0424 -0.095,-0.20912 -0.13565,-0.37057 -0.10524,-0.41755 -0.54765,-1.67037 -0.65981,-1.86843 -0.14011,-0.24742 -0.21389,-0.20772 -0.41324,0.22234 -0.44696,0.9642 -0.41711,0.66832 -0.41711,4.13426 0,3.17438 -10e-4,3.20646 -0.16367,3.47212 -0.39936,0.65428 -1.15174,0.90503 -1.80034,0.59999 z m 10.74643,0.006 c -0.84532,-0.38164 -0.95266,-0.9643 -0.49907,-2.70905 0.0776,-0.29855 0.17388,-0.69408 0.35173,-1.44521 0.16332,-0.68973 0.34049,-1.42424 0.45585,-1.88989 0.0606,-0.24457 0.15422,-0.62811 0.20804,-0.8523 0.0538,-0.22419 0.13794,-0.57438 0.18693,-0.77819 0.049,-0.20381 0.12355,-0.50397 0.16569,-0.66702 0.0421,-0.16305 0.12274,-0.49655 0.17912,-0.74113 0.0564,-0.24457 0.15294,-0.64478 0.21458,-0.88936 0.12959,-0.51423 0.2853,-1.17455 0.40195,-1.7046 0.0449,-0.20381 0.12785,-0.53732 0.18443,-0.74114 0.0566,-0.20381 0.1424,-0.53731 0.1907,-0.74112 0.23778,-1.00336 0.29016,-1.2211 0.40109,-1.66756 0.14299,-0.57546 0.29792,-1.23425 0.4096,-1.74166 0.0449,-0.20381 0.12784,-0.53731 0.18443,-0.74113 0.0566,-0.20381 0.14239,-0.53732 0.19069,-0.74113 0.0483,-0.20382 0.13561,-0.57068 0.19401,-0.81525 0.0584,-0.24457 0.14002,-0.62811 0.18137,-0.8523 0.0414,-0.22419 0.10679,-0.43931 0.14543,-0.47803 0.0386,-0.0387 0.0715,-0.1221 0.0729,-0.18528 0.008,-0.36048 0.6097,-0.76171 1.13223,-0.75547 0.86603,0.0103 1.17433,0.37289 1.45853,1.71523 0.039,0.18343 0.1091,0.51694 0.1562,0.74114 0.047,0.22419 0.1313,0.53336 0.1873,0.68704 0.056,0.15368 0.1017,0.36146 0.1017,0.46171 0,0.10025 0.046,0.30803 0.1018,0.46171 0.056,0.15368 0.1403,0.46285 0.1873,0.68704 0.1599,0.76201 0.2306,1.0665 0.3001,1.2931 0.038,0.12443 0.1393,0.54306 0.2248,0.9303 0.086,0.38725 0.1918,0.83748 0.2363,1.00054 0.044,0.16304 0.1273,0.49655 0.1842,0.74112 0.2284,0.98235 0.3174,1.35515 0.4331,1.81578 0.067,0.26496 0.168,0.68184 0.2253,0.92641 0.1404,0.59828 0.2978,1.26239 0.3952,1.66756 0.044,0.18343 0.116,0.48358 0.1599,0.66701 0.044,0.18343 0.1288,0.53362 0.1889,0.77819 0.06,0.24458 0.1583,0.65313 0.2184,0.90789 0.06,0.25477 0.1584,0.67165 0.2185,0.92642 0.4064,1.7229 0.4779,2.012 0.6041,2.44154 0.315,1.07235 0.076,1.98558 -0.6012,2.29303 -0.9031,0.41025 -1.6018,-0.0867 -1.8898,-1.34389 -0.089,-0.38725 -0.1944,-0.83748 -0.235,-1.00053 -0.041,-0.16305 -0.106,-0.47769 -0.1454,-0.69921 -0.039,-0.22151 -0.1319,-0.58837 -0.2056,-0.81524 l -0.1339,-0.4125 h -2.32621 -2.32617 l -0.10844,0.22235 c -0.0596,0.12228 -0.1483,0.40576 -0.19703,0.62996 -0.15796,0.72666 -0.26056,1.14191 -0.36869,1.4922 -0.0583,0.18891 -0.10603,0.41486 -0.10603,0.50212 0,1.06766 -1.0018,1.81975 -1.88989,1.4188 z m 6.66353,-7.16525 c 0.025,-0.0662 0,-0.30804 -0.06,-0.53732 -0.1461,-0.57434 -0.2858,-1.21943 -0.596,-2.75144 -0.054,-0.26497 -0.1315,-0.63182 -0.173,-0.81525 -0.2747,-1.2135 -0.43,-2.11322 -0.5435,-3.14981 -0.1698,-1.5503 -0.43503,-1.73628 -0.5813,-0.40763 -0.0999,0.90728 -0.20492,1.61223 -0.33683,2.26045 -0.0581,0.28534 -0.14191,0.70223 -0.18633,0.92642 -0.0801,0.40422 -0.20693,0.99927 -0.41075,1.92694 -0.0582,0.26496 -0.15335,0.7152 -0.2114,1.00053 -0.0581,0.28534 -0.14176,0.6353 -0.18602,0.7777 -0.0896,0.28832 -0.1072,0.76431 -0.0311,0.84045 0.12133,0.12132 3.26813,0.0539 3.31613,-0.071 z m 7.3736,7.17423 c -0.4165,-0.19394 -0.6297,-0.40002 -0.7995,-0.77263 l -0.1566,-0.34397 v -9.43497 c 0,-11.82188 -0.3279,-10.65856 3.0221,-10.65724 2.9232,10e-4 4.0582,0.33023 5.0584,1.46658 0.9432,1.07147 1.0705,1.59775 1.0707,4.42482 10e-5,2.57076 -0.073,3.0119 -0.6507,3.9222 -0.2994,0.47199 -1.0993,1.2815 -1.3667,1.38313 -0.2894,0.11005 -0.291,0.49551 -0.01,1.36486 0.04,0.12229 0.1175,0.40577 0.1718,0.62996 0.054,0.22419 0.149,0.60773 0.2105,0.8523 0.061,0.24457 0.1492,0.59476 0.195,0.77819 0.046,0.18344 0.1315,0.50861 0.1903,0.7226 0.059,0.21401 0.1536,0.56419 0.2106,0.7782 0.1,0.37536 0.1541,0.5865 0.3754,1.46374 0.056,0.22418 0.1598,0.62439 0.2295,0.88935 0.1909,0.72585 0.2205,1.56005 0.066,1.86454 -0.4572,0.9021 -1.412,1.061 -2.0797,0.34612 -0.3091,-0.33103 -0.4635,-0.74601 -0.8774,-2.35889 -0.068,-0.26495 -0.1691,-0.64848 -0.2246,-0.8523 -0.055,-0.20381 -0.157,-0.58735 -0.2256,-0.8523 -0.068,-0.26495 -0.1686,-0.63181 -0.2225,-0.81524 -0.054,-0.18344 -0.1215,-0.46692 -0.1504,-0.62997 -0.029,-0.16305 -0.078,-0.3298 -0.11,-0.37056 -0.032,-0.0408 -0.093,-0.26782 -0.1369,-0.50456 -0.043,-0.23674 -0.1004,-0.4647 -0.1263,-0.50657 -0.044,-0.0716 -0.083,-0.22671 -0.3445,-1.37749 -0.1649,-0.72577 -0.5831,-0.95181 -1.2746,-0.68892 l -0.1901,0.0723 v 4.13365 c -9e-4,3.46953 -0.018,4.16341 -0.1082,4.31893 -0.059,0.1019 -0.1315,0.23531 -0.1611,0.29645 -0.2203,0.45438 -1.0709,0.6993 -1.5897,0.45771 z m 4.1423,-11.79994 c 0.4497,-0.10373 0.8697,-0.39081 1.108,-0.75733 l 0.2043,-0.31441 v -2.37162 -2.37163 l -0.1949,-0.29645 c -0.4854,-0.7382 -0.7714,-0.8523 -2.1362,-0.8523 -1.4157,0 -1.2633,-0.42676 -1.2633,3.53759 v 3.35972 l 0.1667,0.067 c 0.2261,0.0909 1.7207,0.0904 2.1154,-5.7e-4 z m 7.9117,11.81735 c -0.3715,-0.13605 -0.5664,-0.31987 -0.7689,-0.7252 l -0.1608,-0.322 v -9.50732 -9.50732 l 0.1664,-0.33319 c 0.4923,-0.98563 1.8478,-1.05587 2.465,-0.12772 0.1452,0.21829 0.1485,0.38559 0.1849,9.19004 l 0.037,8.96771 2.9645,0.0371 c 2.5237,0.0316 3.0031,0.0549 3.2239,0.1572 0.896,0.41501 0.9037,1.74691 0.012,2.14508 -0.4292,0.19172 -7.609,0.2144 -8.1245,0.0257 z m 14.2635,-0.0259 c -2.5276,-0.56014 -4.4435,-3.4787 -3.4035,-5.18464 0.8141,-1.33533 2.471,-0.77341 2.5994,0.88157 0.1621,2.08884 2.4979,2.78579 3.6285,1.08269 l 0.2513,-0.37862 -2e-4,-1.85283 c -3e-4,-2.8893 0.1413,-2.72631 -4.1682,-4.79706 -0.2545,-0.12231 -0.5714,-0.31812 -0.7041,-0.43514 -0.1327,-0.11702 -0.2643,-0.21329 -0.2925,-0.21394 -0.2372,-0.006 -1.0374,-1.38013 -1.295,-2.22458 -0.2068,-0.67776 -0.2321,-4.45791 -0.034,-5.03128 1.1145,-3.2204 5.5937,-4.06158 8.123,-1.52547 1.739,1.74373 1.6469,4.6298 -0.1477,4.6298 -0.8638,0 -1.4437,-0.68038 -1.4452,-1.69549 0,-2.21222 -2.8076,-2.80078 -3.7513,-0.7873 -0.2221,0.47395 -0.2052,3.33446 0.023,3.82643 0.2993,0.6462 0.683,0.92187 2.0988,1.50785 0.4694,0.19426 0.952,0.41031 1.6305,0.72986 0.8858,0.4172 1.7896,1.16018 2.0218,1.66217 0.043,0.0917 0.1052,0.16675 0.1394,0.16675 0.034,0 0.063,0.0417 0.065,0.0926 0,0.051 0.067,0.22604 0.1457,0.38909 0.079,0.16305 0.1449,0.34648 0.1468,0.40762 0,0.0612 0.059,0.26125 0.1273,0.44468 0.2131,0.57445 0.1911,4.77012 -0.028,5.37321 -0.8486,2.33483 -3.1384,3.50638 -5.7303,2.93198 z m 9.9312,0.02 c -0.3394,-0.14609 -0.5746,-0.36828 -0.7483,-0.70709 -0.2209,-0.43063 -0.2205,-19.25361 5e-4,-19.68298 0.3806,-0.73989 0.6979,-0.83108 2.8888,-0.83021 2.2117,6.3e-4 2.8226,0.0842 3.7141,0.50649 3.2647,1.54642 3.475,8.13337 0.3428,10.73744 -0.2329,0.19366 -0.2773,0.27059 -0.2353,0.40762 0.028,0.0929 0.084,0.31898 0.1247,0.50241 0.04,0.18344 0.1023,0.40022 0.1384,0.48174 0.036,0.0815 0.1033,0.31498 0.1495,0.51879 0.2012,0.88617 0.2802,1.21052 0.353,1.44975 0.043,0.14017 0.115,0.40494 0.1609,0.58837 0.2596,1.03846 0.3119,1.25633 0.3831,1.59343 0.043,0.20382 0.1049,0.40392 0.1375,0.44468 0.033,0.0408 0.083,0.22419 0.1113,0.40762 0.029,0.18343 0.098,0.48359 0.1542,0.66702 0.3703,1.20957 0.4146,1.76534 0.1779,2.22943 -0.6917,1.35581 -2.3229,0.87394 -2.6229,-0.77481 -0.029,-0.15788 -0.082,-0.34131 -0.1183,-0.40763 -0.036,-0.0663 -0.099,-0.27065 -0.1382,-0.45408 -0.089,-0.41139 -0.2055,-0.8794 -0.3457,-1.38962 -0.059,-0.214 -0.1551,-0.56419 -0.2139,-0.7782 -0.059,-0.214 -0.144,-0.53917 -0.1892,-0.72259 -0.045,-0.18344 -0.1323,-0.51694 -0.1934,-0.74114 -0.061,-0.22419 -0.1569,-0.59105 -0.213,-0.81525 -0.056,-0.22419 -0.1745,-0.67442 -0.2634,-1.00053 -0.089,-0.32609 -0.1855,-0.70963 -0.2148,-0.8523 -0.144,-0.70143 -0.783,-1.00374 -1.3226,-0.62576 l -0.1647,0.11538 v 4.17319 4.17321 l -0.1668,0.21302 c -0.4879,0.62331 -1.0918,0.82837 -1.6861,0.5726 z m 4.6423,-11.99967 c 0.8789,-0.54342 0.9427,-0.80169 0.9044,-3.66357 -0.028,-2.07993 -0.032,-2.09746 -0.5611,-2.62699 -0.4265,-0.42657 -0.6518,-0.48492 -1.8717,-0.48492 h -1.1165 l -0.072,0.19011 c -0.043,0.11291 -0.072,1.49549 -0.072,3.405 v 3.2149 l 0.1668,0.1212 c 0.3188,0.23173 2.1742,0.12157 2.6227,-0.15573 z m 10.1062,12.00105 c -0.3057,-0.0576 -0.6225,-0.13483 -0.704,-0.17166 -0.082,-0.0368 -0.2983,-0.13069 -0.4818,-0.20854 -1.0176,-0.43195 -1.8034,-1.28544 -2.2278,-2.41977 -0.3394,-0.90706 -0.3632,-1.52272 -0.3634,-9.38048 -2e-4,-8.26201 0,-8.20145 0.4682,-8.64745 0.4395,-0.41566 1.3928,-0.45954 1.9144,-0.0881 0.4935,0.35141 0.4642,-0.17202 0.5051,9.00341 l 0.037,8.30909 0.2537,0.37174 c 0.9116,1.3358 2.7973,1.1978 3.461,-0.25328 l 0.1762,-0.38519 v -8.19811 -8.19811 l 0.1583,-0.27509 c 0.4504,-0.78257 1.8061,-0.86317 2.3778,-0.14136 l 0.2432,0.30699 v 8.30368 c 0,7.84714 -0.01,8.32812 -0.1362,8.74835 -0.5647,1.8446 -1.7846,2.97998 -3.5769,3.32928 -0.7132,0.13898 -1.347,0.13736 -2.1048,-0.005 z m 10.239,0.0213 c -0.954,-0.34537 -0.9007,0.28056 -0.9007,-10.57124 0,-11.20267 -0.078,-10.60859 1.3887,-10.60874 1.3854,-1.4e-4 1.4273,0.14993 1.4287,5.11198 10e-4,4.76502 -0.227,4.19978 1.697,4.19978 1.9892,0 1.7442,0.59665 1.7691,-4.30751 l 0.021,-4.1149 0.1753,-0.27768 c 0.5472,-0.86685 1.8411,-0.8395 2.3885,0.0505 l 0.169,0.2748 v 9.66304 9.66302 l -0.1641,0.26544 c -0.5759,0.9318 -1.7756,0.99385 -2.3707,0.12263 l -0.2025,-0.29645 v -4.127 c -10e-4,-2.49573 -0.031,-4.20213 -0.075,-4.31709 l -0.072,-0.19011 h -1.5927 c -1.9833,0 -1.7461,-0.58884 -1.7461,4.3337 0,3.89174 -0.01,4.05807 -0.1472,4.33562 -0.3776,0.74023 -1.0618,1.04597 -1.7684,0.79021 z m 12.662,-0.0227 c -0.3393,-0.14603 -0.5557,-0.35237 -0.7396,-0.70533 -0.148,-0.2838 -0.1497,-0.40016 -0.1497,-9.84324 v -9.55605 l 0.1574,-0.30195 c 0.1987,-0.38134 0.5305,-0.6362 0.9558,-0.73419 0.4521,-0.10418 6.3946,-0.10554 6.8795,-0.002 0.9204,0.19739 1.2868,1.33024 0.6241,1.92974 -0.4652,0.42088 -0.3,0.39776 -3.1252,0.43745 l -2.6383,0.0371 -0.019,3.1783 c -0.023,3.81938 -0.2314,3.37987 1.6034,3.38395 1.7408,0.004 2.0129,0.0464 2.343,0.3664 0.525,0.50884 0.4771,1.31409 -0.1047,1.76112 l -0.3135,0.24087 h -1.5828 c -0.8706,0 -1.6687,0.0326 -1.7737,0.0726 l -0.1908,0.0725 0.019,3.65165 0.019,3.65165 2.5569,0.0371 c 2.2238,0.0322 2.5926,0.0539 2.8304,0.1659 0.9445,0.44496 0.9433,1.84363 0,2.16571 -0.4918,0.16759 -6.9572,0.15914 -7.3493,-0.01 z m 11.6217,-0.0807 c -0.3917,-0.22896 -0.5894,-0.45726 -0.7152,-0.8257 -0.1219,-0.35743 -0.1232,-18.876 -10e-4,-19.28296 0.1434,-0.47859 0.5606,-0.86897 1.0223,-0.95652 0.5124,-0.0972 3.257,-0.0959 4.118,0.002 1.8041,0.20501 3.1589,1.27404 3.7064,2.92457 0.2171,0.65439 0.2259,5.29939 0.011,5.82036 -0.4653,1.1283 -0.9382,1.76445 -1.6977,2.28379 -0.3851,0.26326 -0.4183,0.37874 -0.2698,0.93767 0.043,0.16305 0.123,0.47988 0.1769,0.70407 0.054,0.22419 0.1703,0.67444 0.2585,1.00053 0.088,0.3261 0.1905,0.73688 0.2276,0.91284 0.037,0.17597 0.088,0.3539 0.114,0.39541 0.026,0.0415 0.091,0.2644 0.144,0.49531 0.054,0.23091 0.1524,0.63662 0.2196,0.90158 0.067,0.26495 0.1679,0.66516 0.2237,0.88936 0.056,0.22419 0.1703,0.65775 0.2544,0.96346 0.4613,1.67715 0.3234,2.53691 -0.4645,2.89461 -0.9296,0.42208 -1.7599,-0.25574 -2.0924,-1.70824 -0.051,-0.2245 -0.1484,-0.60828 -0.2155,-0.85285 -0.067,-0.24458 -0.168,-0.62812 -0.224,-0.8523 -0.056,-0.2242 -0.1746,-0.67443 -0.2634,-1.00053 -0.089,-0.3261 -0.1878,-0.70964 -0.2199,-0.85231 -0.055,-0.24269 -0.2291,-0.90048 -0.4916,-1.85283 -0.1147,-0.41601 -0.2424,-0.91173 -0.4174,-1.62037 -0.1204,-0.48767 -0.2672,-0.60303 -0.7674,-0.60303 -0.6668,0 -0.6211,-0.30935 -0.6211,4.20263 0,4.29001 -0.01,4.35133 -0.3983,4.77659 -0.4859,0.5254 -1.0541,0.63184 -1.6169,0.30286 z m 4.6204,-11.83041 c 1.6077,-0.77058 1.6173,-6.00418 0.012,-6.71412 -0.4996,-0.22098 -2.4235,-0.22596 -2.5409,-0.007 -0.1469,0.2744 -0.1013,6.63995 0.049,6.78984 0.1787,0.17875 2.0728,0.12593 2.4798,-0.0692 z"
       id="path12-6" /></g></svg>
