<?xml version="1.0" encoding="UTF-8" standalone="no"?>
<!-- Created with Inkscape (http://www.inkscape.org/) -->

<svg
   width="253.03259mm"
   height="243.34091mm"
   viewBox="0 0 253.03259 243.34091"
   version="1.1"
   id="svg1"
   xml:space="preserve"
   inkscape:version="1.4.4 (dcaf3e7, 2026-05-05)"
   sodipodi:docname="logos teams.svg"
   inkscape:export-batch-name="logos teams"
   inkscape:export-batch-path="Desktop/3 LIGA"
   xmlns:inkscape="http://www.inkscape.org/namespaces/inkscape"
   xmlns:sodipodi="http://sodipodi.sourceforge.net/DTD/sodipodi-0.dtd"
   xmlns="http://www.w3.org/2000/svg"
   xmlns:svg="http://www.w3.org/2000/svg"><sodipodi:namedview
     id="namedview1"
     pagecolor="#ffffff"
     bordercolor="#000000"
     borderopacity="0.25"
     inkscape:showpageshadow="2"
     inkscape:pageopacity="0.0"
     inkscape:pagecheckerboard="0"
     inkscape:deskcolor="#d1d1d1"
     inkscape:document-units="mm"
     inkscape:zoom="0.037190382"
     inkscape:cx="-4006.4122"
     inkscape:cy="-8779.1516"
     inkscape:window-width="1920"
     inkscape:window-height="1050"
     inkscape:window-x="0"
     inkscape:window-y="30"
     inkscape:window-maximized="0"
     inkscape:current-layer="layer1"><inkscape:page
       x="0"
       y="0"
       width="253.03259"
       height="243.34091"
       id="page1"
       margin="0"
       bleed="0" /></sodipodi:namedview><defs
     id="defs1"><style
       id="style1-7">
      .cls-1 {
        fill: #fff;
      }
    </style></defs><g
     inkscape:label="Ebene 1"
     inkscape:groupmode="layer"
     id="layer1"
     transform="translate(1418.0773,1293.375)"><path
       style="fill:#000000;stroke-width:0.93393"
       d="m -1329.9853,-1067.2284 -34.3473,-17.1788 -1.6231,-8.2536 c -0.8927,-4.5395 -1.6711,-8.293 -1.7298,-8.3415 -0.1162,-0.095 -0.3014,-0.081 -15.8075,1.1933 -5.7816,0.4753 -11.0803,0.8642 -11.7749,0.8642 h -1.263 l -0.1521,-1.4209 c -0.1644,-1.5353 -1.5845,-18.329 -1.6873,-19.9518 l -0.062,-0.9867 1.7297,-0.1697 c 0.9513,-0.093 6.8447,-0.5792 13.0965,-1.0796 6.2515,-0.5005 11.4137,-0.954 11.4714,-1.0078 0.058,-0.054 -1.7999,-9.6875 -4.1279,-21.4084 -2.3284,-11.7207 -6.2976,-31.7629 -8.8206,-44.5381 -2.5233,-12.7752 -4.971,-25.118 -5.4397,-27.4284 -0.9866,-4.8642 -7.0599,-35.7134 -7.6987,-39.1051 l -0.4307,-2.2871 0.2336,-0.2318 c 0.2339,-0.2325 20.4661,-7.0645 94.0713,-31.7669 l 9.0818,-3.0479 9.0802,3.0456 c 51.4439,17.2551 93.2784,31.33 94.0216,31.6331 l 0.4324,0.1763 v 0.4905 c 0,0.6562 -6.6788,34.4003 -19.6509,99.2859 -5.8826,29.4237 -10.6582,53.5363 -10.6125,53.5836 0.075,0.077 8.4463,-0.5862 29.2633,-2.3204 4.0027,-0.3334 7.3513,-0.523 7.4415,-0.4214 0.09,0.102 0.3418,2.2419 0.559,4.7562 0.2172,2.5143 0.6361,7.3711 0.9312,10.7932 0.2949,3.422 0.475,6.3815 0.4001,6.5766 l -0.1361,0.3545 -2.3063,0.1739 c -1.2685,0.096 -9.1448,0.7231 -17.503,1.3944 -8.3582,0.6711 -18.2547,1.4572 -21.9921,1.7468 l -6.7954,0.5264 -8.4015,4.2581 c -27.4338,13.904 -54.2663,27.3009 -54.6541,27.2876 -0.2472,-0.013 -15.9059,-7.7459 -34.7969,-17.1943 z m 64.929,1.1182 c 16.477,-8.3066 29.9952,-15.1359 30.0404,-15.176 0.045,-0.04 -0.344,-0.027 -0.8648,0.028 -0.5209,0.055 -3.727,0.3212 -7.1246,0.589 -3.3977,0.2677 -9.6803,0.7712 -13.9614,1.1187 -4.2809,0.3474 -14.6193,1.184 -22.974,1.8589 l -15.1904,1.227 -0.2763,-0.3066 -0.2763,-0.3065 -0.7969,-10.3782 c -0.4382,-5.7081 -0.8389,-10.5108 -0.8905,-10.6729 -0.052,-0.1619 0.5625,-2.2567 1.3647,-4.6548 l 1.4587,-4.3605 -1.163,0.1476 c -0.6396,0.081 -3.2757,0.3134 -5.8579,0.5161 -2.5823,0.2026 -12.8679,1.0356 -22.8569,1.8511 -9.9892,0.8154 -22.9435,1.8698 -28.7875,2.343 -5.8439,0.4732 -11.2465,0.9266 -12.0056,1.0077 l -1.38,0.1475 0.3241,1.525 c 0.1785,0.8386 0.7733,3.8599 1.3218,6.7139 0.5487,2.8541 1.1161,5.7773 1.2608,6.4961 l 0.2633,1.3068 34.0187,17.0268 c 18.7104,9.3647 34.1036,17.0329 34.2072,17.0404 0.1032,0.013 13.6694,-6.7827 30.1464,-15.0894 z m -17.1148,-12.4483 c 6.0479,-0.4777 18.5574,-1.4812 27.799,-2.2298 9.2416,-0.7488 21.0285,-1.6959 26.1929,-2.1046 5.1644,-0.4088 12.0585,-0.957 15.3203,-1.218 3.2617,-0.2611 10.99,-0.8797 17.1736,-1.3747 6.1837,-0.495 11.2727,-0.9292 11.309,-0.965 0.036,-0.036 -0.2636,-3.7788 -0.6659,-8.3182 -0.4026,-4.5393 -0.8071,-9.1614 -0.8991,-10.2714 l -0.1673,-2.0182 -0.773,0.1071 c -0.648,0.089 -30.096,2.5024 -52.2936,4.2841 -10.4233,0.8364 -51.8965,4.2142 -54.431,4.4329 -1.3288,0.115 -2.4736,0.2661 -2.544,0.3366 -0.1252,0.1253 1.3338,19.5391 1.5136,20.1373 l 0.092,0.3045 0.6888,-0.1174 c 0.379,-0.065 5.6372,-0.508 11.685,-0.9859 z m -5.8581,-7.1223 c 0.5964,-1.5541 1.3849,-4.4566 1.2639,-4.6523 l -0.1509,-0.2443 -1.6429,0.1507 c -0.9035,0.083 -2.0042,0.2067 -2.4459,0.2752 l -0.803,0.1253 v -0.5817 c 0,-0.3199 0.1389,-0.7654 0.3088,-0.9899 l 0.3089,-0.4082 2.8417,-0.247 2.8416,-0.2468 0.6178,0.4561 0.6177,0.4562 -0.028,0.8313 c -0.015,0.4572 -0.3312,1.7938 -0.7015,2.9703 l -0.6731,2.139 -0.534,0.1432 c -0.2938,0.079 -0.8517,0.1448 -1.24,0.1467 h -0.7061 z m 3.1409,-0.1059 c 0,-0.4022 1.9713,-6.5801 2.1529,-6.7539 0.1059,-0.102 1.6573,-0.3136 3.4462,-0.4707 l 3.2526,-0.2852 0.7295,0.3773 0.7295,0.3772 0.404,0.8513 c 0.5475,1.1537 0.5144,1.3577 -0.2755,1.6969 -0.3737,0.1605 -0.7156,0.3145 -0.7595,0.3423 -0.044,0.028 0.102,0.4017 0.3233,0.8306 l 0.4034,0.78 -0.076,0.7873 -0.076,0.7874 -1.2736,0.074 -1.2735,0.074 -0.1666,-0.9862 c -0.092,-0.5426 -0.2974,-1.0949 -0.4572,-1.2277 l -0.2908,-0.2411 -1.8521,0.1651 -1.8521,0.1654 -0.3888,1.2285 -0.3886,1.2287 -0.5998,0.1676 c -0.8419,0.2352 -1.7118,0.2513 -1.7108,0.032 z m 7.7347,-4.6736 c 1.5528,-0.4351 -0.5286,-0.9784 -2.7068,-0.7067 l -1.2723,0.1587 -0.1305,0.4989 -0.1304,0.4991 1.8969,-0.1626 c 1.0434,-0.089 2.0978,-0.2188 2.3431,-0.2874 z m 3.3768,3.6852 c 0,-0.102 0.4126,-1.6162 0.9257,-3.3651 l 0.933,-3.1799 0.5729,-0.2178 c 0.3152,-0.1201 0.8513,-0.2178 1.1912,-0.2178 h 0.6184 l -0.1265,0.4324 c -0.07,0.2378 -0.4774,1.6555 -0.9064,3.1505 -0.4292,1.4951 -0.8844,2.9128 -1.0113,3.1506 l -0.231,0.4324 h -0.9797 c -0.5389,0 -0.9831,-0.083 -0.987,-0.1853 z m 3.2239,-0.3707 c 0.026,-1.8391 1.9034,-5.9396 2.9726,-6.4924 l 0.7484,-0.387 2.5233,-0.2276 c 1.388,-0.1253 3.1628,-0.2313 3.9444,-0.2359 l 1.4208,-0.013 v 0.3353 c 0,0.4521 -1.7409,6.1699 -1.9416,6.3765 -0.088,0.09 -0.6036,0.2012 -1.1473,0.2471 l -0.9884,0.083 0.043,-0.2518 c 0.023,-0.1384 0.1162,-0.546 0.2069,-0.906 l 0.1642,-0.6544 -0.9482,0.097 c -0.5215,0.053 -1.6989,0.1642 -2.6164,0.2462 l -1.6682,0.1489 -0.1574,0.6597 c -0.086,0.363 -0.2669,0.7989 -0.4006,0.9688 l -0.2433,0.3088 h -0.9582 -0.9581 z m 6.717,-3.5575 1.6559,-0.1564 0.2593,-0.7435 c 0.1424,-0.4091 0.2591,-0.7945 0.2591,-0.8566 0,-0.062 -1.0285,-0.034 -2.2857,0.063 l -2.2857,0.1761 -0.4077,0.3603 c -0.2244,0.1982 -0.4642,0.5755 -0.533,0.8385 l -0.1252,0.4783 h 0.9035 c 0.4969,-9e-4 1.6486,-0.072 2.5592,-0.1582 z m 6.7716,2.2322 c 0.097,-0.3922 0.4362,-1.4832 0.7544,-2.4245 0.3183,-0.9411 0.5787,-1.8109 0.5787,-1.933 v -0.2216 l -1.2972,0.059 c -1.5407,0.071 -1.5499,0.066 -1.3544,-0.9125 l 0.1529,-0.7647 3.1645,-0.2873 c 3.1346,-0.2845 5.2647,-0.3642 5.2647,-0.197 0,0.048 -0.1227,0.4368 -0.2712,0.8648 l -0.2714,0.7783 h -0.6552 c -0.3605,0 -1.0569,0.069 -1.5472,0.1502 l -0.892,0.1476 -0.6989,2.4584 c -0.7868,2.7677 -0.6658,2.6019 -2.0636,2.8255 l -1.0399,0.1663 z m 6.0019,0.043 c -0.08,-0.08 0.3191,-1.6736 0.888,-3.54 l 1.0346,-3.3938 1.1523,-0.076 c 0.6337,-0.041 1.1521,-0.034 1.1521,0.018 0,0.052 -0.1794,0.6192 -0.3985,1.2623 -0.4923,1.445 -0.6834,1.3509 2.2385,1.1045 2.7604,-0.2327 2.6568,-0.176 3.0877,-1.6916 0.3649,-1.2834 0.5811,-1.4736 1.6822,-1.4788 h 0.8031 l -0.013,0.3089 c 0,0.1699 -0.4337,1.7545 -0.9572,3.5213 l -0.9523,3.2121 -1.1429,0.076 c -0.6287,0.041 -1.1418,0.041 -1.1404,0 0,-0.041 0.1649,-0.6099 0.3632,-1.2633 l 0.3605,-1.1881 -2.4018,0.1698 c -2.7716,0.196 -2.8542,0.2394 -3.2679,1.7169 l -0.31,1.1073 h -0.3076 c -0.1693,0 -0.6281,0.064 -1.0199,0.1424 -0.3916,0.079 -0.7779,0.076 -0.8585,0 z m 11.8872,-1.192 -0.6179,-0.3168 -0.076,-0.7772 -0.076,-0.7771 0.655,-2.1824 0.6553,-2.1825 0.3946,-0.3089 c 0.3229,-0.2527 2.0391,-0.462 2.0262,-0.247 0,0.034 -0.28,0.9513 -0.6177,2.0385 -0.3378,1.0872 -0.6141,2.2284 -0.6141,2.5357 v 0.5589 l 0.9267,-0.1162 c 1.8674,-0.2346 4.5095,-0.3833 4.5095,-0.2538 0,0.072 -0.1552,0.5047 -0.3449,0.9588 l -0.345,0.8257 -2.4348,0.1743 c -1.3393,0.096 -2.6574,0.2222 -2.9293,0.2807 -0.2718,0.059 -0.7721,-0.036 -1.1119,-0.2105 z m 7.5924,-0.7434 c -0.4747,-1.2368 1.5758,-5.7118 2.9093,-6.3494 l 0.9884,-0.4725 3.5368,-0.296 3.5367,-0.2958 0.2608,0.2607 0.2606,0.2608 -0.6603,2.3059 c -0.7258,2.5342 -1.0802,3.2136 -1.9859,3.807 l -0.6044,0.396 -1.6779,0.2041 c -0.9229,0.1124 -2.7455,0.2812 -4.0505,0.3754 l -2.3726,0.1714 z m 7.0263,-2.1851 0.9046,-0.226 0.3927,-1.1523 c 0.216,-0.6337 0.3926,-1.2865 0.3926,-1.4505 v -0.2983 l -1.6679,0.1188 c -0.9174,0.066 -2.0732,0.2203 -2.5688,0.3447 l -0.9008,0.2263 -0.3964,0.9908 c -0.2181,0.5449 -0.3965,1.2068 -0.3965,1.4708 v 0.4799 l 1.6679,-0.1392 c 0.9174,-0.076 2.0752,-0.2407 2.5726,-0.3649 z m 3.4316,1.3521 c 0.013,-0.2524 0.4791,-1.8488 1.0502,-3.5477 l 1.0382,-3.0886 1.3162,-0.076 1.3162,-0.076 1.1818,0.3925 c 0.6501,0.2159 1.6331,0.7787 2.1847,1.2508 l 1.0027,0.8583 0.4201,-1.299 c 0.2312,-0.7145 0.5578,-1.4457 0.7259,-1.625 l 0.3057,-0.3259 0.8595,0.079 0.8595,0.079 -0.9627,3.2124 -0.9627,3.2123 -0.4023,0.3088 c -0.2214,0.1699 -0.7125,0.309 -1.0914,0.309 h -0.6891 l -0.4847,-0.9502 c -0.5925,-1.1615 -2.0166,-2.4506 -2.9275,-2.65 -0.3713,-0.081 -0.8104,-0.1891 -0.9758,-0.2397 l -0.3006,-0.093 -0.6642,2.2131 -0.6642,2.213 h -0.6828 c -0.3756,0 -0.8588,0.067 -1.0738,0.1501 l -0.3908,0.1499 z m 16.7186,-1.7561 c 0.088,-0.2379 0.3088,-0.667 0.492,-0.9537 l 0.3329,-0.5211 -0.1451,-0.3786 -0.1454,-0.3784 0.78,-0.8884 0.7801,-0.8884 0.9039,-0.226 c 0.4973,-0.124 1.8215,-0.2955 2.9427,-0.38 l 2.0386,-0.1537 v 0.3147 c 0,0.173 -0.089,0.448 -0.1922,0.611 l -0.1884,0.2964 -1.7229,0.1512 c -0.9476,0.083 -2.0008,0.2258 -2.3406,0.3168 l -0.6177,0.1656 2.0506,0.1278 2.0507,0.1278 -0.3209,0.4341 -0.321,0.4341 -1.8332,0.1837 -1.8332,0.1836 -0.093,0.2798 -0.093,0.2798 1.0611,-0.088 c 0.5836,-0.049 1.5893,-0.1326 2.2347,-0.1876 l 1.1738,-0.1007 v 0.2785 c 0,0.1531 -0.1072,0.4419 -0.2333,0.6415 l -0.2296,0.3629 -1.9287,0.1755 c -1.061,0.097 -2.5648,0.1835 -3.3419,0.193 l -1.4131,0.018 z m 7.2385,-0.2887 c 0,-0.1253 0.067,-0.4029 0.1499,-0.6178 l 0.15,-0.3909 h 0.7148 c 0.729,0 0.8306,0.1522 0.5649,0.8447 l -0.1499,0.3908 h -0.7149 c -0.3932,0 -0.7148,-0.102 -0.7148,-0.2268 z m 2.4709,-0.8514 c 0,-2.5277 0.582,-3.8528 1.6955,-3.8599 h 0.5834 l -0.1595,0.9265 c -0.088,0.5097 -0.2201,1.2324 -0.2942,1.6062 l -0.1348,0.6795 h 0.2275 c 0.1252,0 1.0811,-0.7783 2.1247,-1.7297 l 1.8976,-1.7297 0.9217,0.013 0.9218,0.013 -2.1003,1.9921 c -1.1552,1.0957 -2.434,2.2017 -2.8417,2.458 l -0.7413,0.4658 -1.0502,9e-4 h -1.0502 z m -95.0317,-5.5559 1.4617,-0.1611 1.3144,-3.9368 c 0.7231,-2.1651 1.2885,-3.9579 1.2564,-3.9839 -0.089,-0.072 -7.6505,0.6047 -7.7385,0.6928 -0.1279,0.1278 -2.5742,7.4132 -2.5742,7.6655 v 0.2334 l 2.4092,-0.1743 c 1.3252,-0.096 3.067,-0.247 3.871,-0.3356 z m 10.5227,-0.7872 c 3.4657,-0.2741 11.6942,-0.9407 18.2857,-1.4815 11.753,-0.964 17.2281,-1.4068 30.9188,-2.5008 l 6.8264,-0.5454 10.9061,-54.6119 10.9062,-54.612 -0.1925,-0.1925 c -0.1059,-0.1059 -6.7512,-2.9299 -14.7674,-6.2754 -8.016,-3.3456 -19.3298,-8.075 -25.1415,-10.51 -5.8116,-2.435 -10.6843,-4.4271 -10.8281,-4.4271 -0.1815,0 -14.7178,10.7963 -16.5034,12.2576 -0.05,0.041 1.673,1.8663 3.8301,4.0558 2.1568,2.1895 3.9593,4.1494 4.0055,4.3556 l 0.084,0.3749 -0.4884,-0.083 -0.4884,-0.083 -16.6112,-16.8646 c -9.1362,-9.2756 -16.6926,-16.8648 -16.792,-16.8648 -0.099,0 -7.6659,7.6168 -16.8141,16.9265 l -16.6332,16.9265 h -0.4555 c -0.9086,0 -0.3868,-0.6811 3.5125,-4.5859 l 3.9681,-3.9735 -7.716,-6.1604 c -4.2436,-3.3881 -7.8567,-6.2451 -8.0287,-6.3488 l -0.3128,-0.1882 -11.198,4.6731 c -6.1587,2.5703 -17.6385,7.3537 -25.5105,10.6299 -7.872,3.276 -14.3578,6.0017 -14.4131,6.0569 -0.056,0.056 0.1824,1.528 0.5281,3.2727 0.3455,1.7449 2.6398,13.3468 5.0983,25.7822 2.4585,12.4356 5.396,27.2802 6.5277,32.9881 1.1317,5.7081 2.8771,14.5201 3.8784,19.5821 l 1.8208,9.2037 h 0.6583 c 0.3621,3e-4 7.423,-0.5521 15.691,-1.2277 8.268,-0.6756 19.2582,-1.5666 24.4226,-1.98 9.6429,-0.7717 25.9825,-2.0941 36.6891,-2.9691 3.3266,-0.2718 6.3416,-0.4943 6.6999,-0.4943 h 0.6515 l 0.1397,1.0502 c 0.076,0.5776 0.5004,5.5576 0.9412,11.0666 l 0.8017,10.0164 -1.4019,4.0237 c -0.771,2.213 -1.402,4.1202 -1.402,4.2382 v 0.2145 l 0.8031,-0.1098 c 0.4419,-0.061 3.6387,-0.3344 7.1043,-0.6085 z m 48.185,-47.1756 c -0.3398,-0.1162 -1.0262,-0.2215 -1.5254,-0.2351 l -0.9077,-0.025 -0.7334,-0.6171 c -0.8413,-0.7079 -0.9295,-0.9791 -1.257,-3.8609 l -0.2402,-2.1143 -1.9925,-4.9675 -1.9924,-4.9675 v -1.2044 c 0,-0.6625 0.1162,-1.8335 0.2584,-2.6023 l 0.2585,-1.3978 -0.2713,-1.0075 -0.2713,-1.0072 -0.7041,0.7536 c -0.9067,0.9707 -1.0471,0.9591 -4.0408,-0.3361 -3.8269,-1.6555 -5.3407,-1.9596 -6.5535,-1.3158 l -0.5751,0.3051 -0.592,1.4826 -0.592,1.4827 -0.6382,0.556 c -0.7898,0.6881 -1.5866,0.7076 -2.4115,0.059 l -0.6321,-0.4972 -0.1566,-0.7126 -0.1563,-0.7124 0.6069,-1.4467 0.607,-1.4466 0.1819,-1.7127 0.1818,-1.7129 0.5731,-0.5727 0.5727,-0.573 h 0.9246 0.9246 l 0.9533,0.6605 0.9532,0.6606 2.3355,-0.4399 2.3357,-0.4399 0.6453,0.162 0.6455,0.1621 0.4515,-0.4087 0.4514,-0.4085 -0.5939,-0.9008 c -0.3268,-0.4953 -0.7515,-1.578 -0.9438,-2.406 l -0.3496,-1.5051 -0.8935,-1.2989 c -0.4915,-0.7145 -1.0654,-1.8719 -1.2755,-2.5721 l -0.3819,-1.273 -0.1536,-2.7999 -0.1535,-2.7999 -2.2941,-1.8263 -2.2942,-1.8264 -0.6652,-1.1349 -0.6649,-1.1349 0.1353,-1.4927 0.1353,-1.4927 0.7599,-1.5183 c 0.4179,-0.835 1.3463,-2.2953 2.0632,-3.2451 l 1.3035,-1.7269 0.9847,-0.5432 c 0.5418,-0.2987 2.2637,-0.89 3.8265,-1.3138 l 2.8417,-0.7707 0.9267,-0.9013 c 1.0977,-1.0677 1.1065,-1.1326 0.3077,-2.2854 l -0.6191,-0.8931 0.2204,-2.1743 0.2204,-2.1743 0.4862,-0.6523 c 0.2674,-0.3588 0.825,-0.8508 1.239,-1.0934 l 0.7528,-0.4408 2.1867,-0.043 2.1866,-0.043 0.9398,0.4558 0.94,0.4559 0.6044,1.1929 0.6045,1.1928 v 0.8396 0.8399 l -0.4567,0.5893 -0.4567,0.5893 -0.1526,1.3243 -0.1526,1.3244 -0.4944,0.8377 c -0.2718,0.4608 -0.4702,0.8389 -0.4408,0.8399 0.028,0 1.2578,0.1611 2.73,0.3555 l 2.6765,0.3533 0.594,0.3893 c 0.9018,0.5909 1.3188,1.3822 1.7073,3.2385 l 0.3536,1.69 1.02,2.0778 1.02,2.0776 -0.1569,0.6251 c -0.087,0.3438 -0.4188,0.9713 -0.739,1.3945 -0.3202,0.423 -0.885,1.4123 -1.2552,2.1982 l -0.6729,1.4291 -1.5965,1.4628 c -0.8782,0.8047 -1.9599,1.5829 -2.4037,1.7294 l -0.8071,0.2664 0.2017,1.0424 c 0.111,0.5734 0.205,1.9319 0.2089,3.0192 l 0.013,1.9769 -0.3773,1.6008 c -0.2075,0.8804 -0.7474,2.2704 -1.1997,3.0888 -0.4523,0.8184 -1.0189,2.0995 -1.259,2.847 -0.2402,0.7474 -0.6354,1.7551 -0.8784,2.2392 l -0.4416,0.8802 0.7344,1.3432 c 0.4039,0.7385 0.8446,1.788 0.9791,2.332 l 0.2447,0.9891 -0.4752,2.2494 -0.4751,2.2495 0.3411,2.0748 c 0.1875,1.1411 0.4473,3.2981 0.577,4.793 l 0.2359,2.7182 0.4265,1.2334 0.4266,1.2333 1.2611,1.2612 1.2612,1.2611 1.6701,0.5559 1.67,0.5557 0.3884,0.5926 0.3882,0.5927 -0.1497,0.597 -0.15,0.5972 -1.1747,0.5698 -1.1747,0.5697 -1.4825,0.059 c -0.8155,0.032 -1.7606,-0.036 -2.1003,-0.1519 z m 3.7858,-1.1477 c 1.917,-0.6532 1.776,-1.2959 -0.4247,-1.9357 -3.5907,-1.0439 -5.3637,-3.7427 -5.8315,-8.8765 -0.1381,-1.5154 -0.4228,-3.7868 -0.6327,-5.0475 l -0.3815,-2.2923 0.3565,-1.4144 c 0.1961,-0.7778 0.4283,-1.8589 0.5159,-2.4026 l 0.1591,-0.9883 -0.9948,-2.052 -0.995,-2.0519 0.5839,-1.4075 c 0.3211,-0.7742 0.7252,-1.8523 0.8982,-2.396 0.1729,-0.5436 0.745,-1.8223 1.2713,-2.8416 l 0.957,-1.8533 0.2672,-1.4826 0.2671,-1.4827 -0.085,-3.0467 -0.086,-3.047 0.8977,-0.3117 c 0.4938,-0.1715 1.4793,-0.8018 2.1899,-1.4009 l 1.2921,-1.0893 0.8614,-1.7097 c 0.4736,-0.9404 1.1436,-2.1366 1.4888,-2.6581 l 0.6277,-0.9487 -1.0106,-1.9707 c -0.5558,-1.084 -1.0806,-2.3898 -1.1666,-2.9016 -0.087,-0.5119 -0.3228,-1.46 -0.5267,-2.1069 l -0.3708,-1.176 -0.5097,-0.2728 c -0.2805,-0.1502 -1.6636,-0.4244 -3.0735,-0.6096 -3.8018,-0.4993 -4.0042,-0.6876 -2.9237,-2.7197 l 0.6178,-1.1619 9e-4,-0.8897 9e-4,-0.8899 0.4932,-0.809 c 0.7884,-1.2931 0.2585,-3.3333 -1.0519,-4.0491 l -0.5551,-0.3033 -2.1606,0.045 -2.1605,0.045 -0.4959,0.3096 c -0.2727,0.1703 -0.6752,0.6875 -0.8943,1.1495 l -0.3986,0.8398 0.1325,0.9877 0.1325,0.9878 -0.2633,0.4216 -0.2634,0.4217 0.653,0.9609 c 0.3592,0.5286 0.653,1.1933 0.653,1.477 v 0.5159 l -0.8904,1.0403 c -1.0205,1.1921 -1.593,1.4687 -4.6695,2.2557 -3.6246,0.927 -4.2583,1.3752 -6.3872,4.5178 -2.6943,3.977 -2.5151,6.0729 0.7378,8.6356 0.9128,0.7191 2.0116,1.6581 2.4419,2.0868 l 0.7822,0.7795 0.156,2.927 c 0.1912,3.59 0.38,4.276 1.7512,6.3635 l 1.0828,1.6486 0.1745,1.1641 c 0.196,1.3074 0.4345,1.8412 1.2726,2.8487 l 0.5792,0.6963 -0.7965,0.9911 -0.7965,0.9912 -1.0295,-0.1544 -1.0294,-0.1543 -1.6469,0.3819 c -0.906,0.2101 -2.0077,0.3821 -2.4487,0.3821 h -0.8014 l -0.8373,-0.6178 -0.8373,-0.6178 h -0.6632 c -0.9127,0 -1.1308,0.3651 -1.3283,2.224 l -0.1705,1.6061 -0.5682,1.3332 c -0.5818,1.3653 -0.5831,2.0258 0,2.5059 l 0.3281,0.2723 0.5332,-0.2853 0.5333,-0.2854 0.4869,-1.1526 c 0.8511,-2.0146 1.0039,-2.2342 1.8254,-2.624 1.5971,-0.758 3.6592,-0.3798 7.5962,1.393 l 2.1719,0.9779 0.864,-0.7585 c 1.2661,-1.1119 1.837,-0.8581 2.349,1.0435 l 0.2797,1.0387 -0.2731,1.6541 c -0.1503,0.9098 -0.2732,2.0632 -0.2732,2.5632 v 0.9091 l 1.8341,4.6032 c 1.9703,4.9446 2.2608,5.9301 2.4953,8.4661 l 0.1516,1.6391 0.4873,0.523 0.4871,0.523 0.9171,0.018 c 0.5044,0.013 1.1394,0.1123 1.4111,0.2298 0.7966,0.3422 2.4181,0.2772 3.6624,-0.1468 z m -20.6356,-48.2236 -1.2611,-1.1736 -0.4404,-0.9758 -0.4404,-0.9758 0.2604,-0.5068 c 0.5076,-0.988 1.2732,-1.6078 2.4829,-2.0096 l 1.2248,-0.4068 0.3956,0.3957 0.3958,0.3956 0.098,1.5475 c 0.1136,1.7932 -0.3057,4.3951 -0.7542,4.6798 -0.5074,0.3223 -0.6468,0.2533 -1.9615,-0.9702 z m 1.618,-0.9884 c 0.4623,-2.7971 0.1842,-4.1064 -0.7935,-3.7361 -1.9296,0.731 -2.1428,1.6708 -0.7719,3.4051 1.1883,1.5032 1.3655,1.5406 1.5654,0.331 z m 14.9847,0.9267 c -0.6,-0.6001 -0.599,-0.4103 -0.015,-3.0767 l 0.4778,-2.1867 0.312,-0.1928 0.3119,-0.1928 0.4136,0.2215 c 0.2273,0.1214 0.6046,0.6239 0.8381,1.1161 l 0.4246,0.8949 -0.1727,1.4885 -0.1729,1.4886 -0.4668,0.4668 c -0.6032,0.6033 -1.3286,0.5931 -1.9492,-0.027 z m 1.5527,-1.8409 0.1985,-1.1838 -0.2203,-0.6498 -0.2202,-0.6498 -0.3943,1.7141 c -0.2169,0.9427 -0.3348,1.8103 -0.2621,1.9281 0.2993,0.4843 0.7121,-0.048 0.8984,-1.1588 z m -68.0815,50.5211 c -1.2814,-0.3858 -2.4721,-1.3157 -3.5372,-2.7626 l -1.068,-1.451 -0.7814,-2.026 c -0.4297,-1.1143 -0.993,-3.0853 -1.2518,-4.3802 l -0.4705,-2.3542 -0.1552,-3.7066 -0.1552,-3.7064 0.405,-2.7361 c 0.5363,-3.6227 0.9866,-5.3028 1.995,-7.4411 l 0.8373,-1.7756 1.0283,-1.1155 c 0.5657,-0.6135 1.4992,-1.3435 2.0745,-1.622 l 1.0464,-0.5065 h 1.0751 c 0.5914,0 1.0074,-0.068 0.9245,-0.1507 -0.083,-0.083 0.066,-0.5538 0.3295,-1.0465 l 0.4802,-0.8959 v -0.992 c 0,-0.8726 -1.0691,-5.7295 -1.3114,-5.9718 -0.1763,-0.1763 -6.6644,-0.5907 -7.0974,-0.4533 -0.6916,0.2195 -1.9577,3.3399 -1.964,4.8402 0,0.3534 -0.1188,0.9774 -0.262,1.3867 l -0.2594,0.7441 -0.5437,0.2381 c -0.299,0.1309 -1.4554,0.2201 -2.5698,0.1982 l -2.0262,-0.04 -0.3859,-0.3204 c -0.5434,-0.4509 -1.3687,-2.4068 -1.3687,-3.2435 v -0.7016 l 1.2291,-1.936 1.229,-1.9358 0.9922,-0.5576 0.9921,-0.5576 0.366,-1.283 c 0.2012,-0.7057 0.8263,-3.2846 1.3887,-5.731 1.4404,-6.2637 2.0682,-8.3515 3.2192,-10.7075 l 1.0062,-2.059 1.5942,-1.6259 1.5942,-1.626 -0.2572,-0.7379 c -0.1415,-0.4059 -0.2573,-1.2262 -0.2573,-1.823 v -1.085 l 0.4872,-0.9545 c 0.2678,-0.5251 0.9071,-1.303 1.4206,-1.7287 l 0.9339,-0.7741 1.6873,-0.5153 1.6874,-0.5154 2.0193,0.1123 2.0191,0.1123 1.303,0.5681 1.303,0.5683 0.606,0.7203 c 0.3335,0.3962 0.7967,1.2567 1.0295,1.9124 l 0.4235,1.1918 2.1583,0.1227 2.1583,0.1227 1.5632,0.7375 c 4.4506,2.1 8.811,7.2009 9.6264,11.2613 l 0.2694,1.3414 -0.4062,1.3969 -0.406,1.3968 -1.0451,1.0461 c -0.5747,0.5754 -1.7464,1.6433 -2.6036,2.3732 -0.8572,0.7297 -1.9565,1.9263 -2.4428,2.6586 l -0.8842,1.3316 -0.1007,1.1715 -0.102,1.1714 0.3384,1.112 0.3385,1.1119 0.6024,-0.066 c 0.3313,-0.035 1.1289,-0.1333 1.772,-0.2163 l 1.1695,-0.1513 1.3412,0.6561 1.3411,0.6562 0.8798,0.9737 c 1.937,2.1441 3.2005,5.7312 3.6258,10.2925 l 0.257,2.7558 -0.2504,2.4386 c -0.9412,9.1722 -4.2857,14.9826 -9.0732,15.7625 l -1.0224,0.1666 -0.9789,-0.2636 c -1.419,-0.3821 -2.5294,-1.2163 -3.5352,-2.6561 l -0.8842,-1.2655 -0.9472,-2.8048 c -0.5209,-1.5425 -1.0296,-2.8975 -1.1303,-3.0109 l -0.1832,-0.2064 -0.757,0.3914 c -0.8651,0.4475 -1.7174,1.5034 -2.5102,3.1101 -0.3017,0.6117 -0.912,1.5013 -1.3565,1.9768 l -0.8078,0.8648 -0.1437,2.3481 c -0.5257,8.5923 -4.3958,14.1975 -8.8719,12.8498 z m 3.5387,-1.6003 c 2.3665,-1.5433 4.501,-7.6711 4.3922,-12.6092 l -0.032,-1.4825 -0.1946,1.9767 c -0.1072,1.0873 -0.3684,2.8108 -0.5806,3.83 l -0.386,1.8533 -0.9301,1.8447 -0.9302,1.8444 -0.9495,0.7501 -0.9495,0.75 h -1.398 -1.3979 l -0.8123,-0.5793 c -0.4466,-0.3187 -1.1999,-1.1527 -1.6738,-1.8532 l -0.8616,-1.274 -0.6275,-1.9769 c -0.345,-1.0872 -0.7975,-3.0887 -1.0052,-4.4478 l -0.3779,-2.471 0.1201,-4.5713 0.12,-4.5715 0.5051,-1.895 c 2.408,-9.038 8.9967,-8.3436 11.9123,1.2554 l 0.5363,1.7655 -0.1579,0.842 c -0.087,0.4631 -0.585,1.4887 -1.1069,2.2789 -1.021,1.5462 -1.6293,3.1055 -1.4221,3.6456 l 0.1291,0.3354 1.3147,0.1046 1.3147,0.1046 0.7042,-0.3885 0.7042,-0.3885 0.8164,-1.6145 0.8164,-1.6146 1.1006,-1.0143 1.1004,-1.0145 0.8039,-0.1765 0.8039,-0.1766 0.3184,0.3345 c 0.175,0.184 0.731,1.5577 1.2355,3.0527 1.4501,4.2969 2.6879,5.975 4.8334,6.5528 l 1.0123,0.2726 0.7825,-0.1688 c 1.3256,-0.286 2.475,-0.9973 3.6623,-2.2668 l 1.1381,-1.2166 0.8805,-1.8337 c 0.4842,-1.0086 1.1595,-2.9098 1.5005,-4.2248 l 0.6199,-2.391 0.2503,-2.883 0.2505,-2.8832 -0.2423,-2.5573 c -0.3907,-4.1236 -1.5774,-7.3236 -3.4823,-9.3901 l -0.9924,-1.0767 -1.1194,-0.4275 -1.1194,-0.4275 -1.4543,0.3005 -1.4543,0.3003 -0.4696,-0.2513 c -0.5601,-0.2997 -0.9687,-1.3787 -1.1691,-3.0879 l -0.1468,-1.251 0.278,-1.0313 c 0.3954,-1.4666 1.9153,-3.3737 4.3971,-5.5169 1.1801,-1.0193 2.3703,-2.2379 2.6449,-2.7082 l 0.4991,-0.8547 v -1.2566 -1.2565 l -0.4622,-1.2246 c -0.7451,-1.9739 -2.0388,-3.8057 -4.1975,-5.9437 l -2.0207,-2.001 -1.9502,-0.9642 -1.9501,-0.9642 -2.4844,-0.039 -2.4843,-0.039 -0.1767,-1.0353 c -0.8438,-4.9433 -9.5568,-5.9271 -12.3224,-1.3914 l -0.4723,0.7746 -10e-4,1.0579 c -4e-4,0.5821 0.1615,1.4468 0.36,1.9217 l 0.3607,0.8636 -1.6977,1.6158 -1.6978,1.6156 -0.8564,1.6518 c -1.1369,2.1929 -1.6621,3.8759 -3.1371,10.0533 -0.6816,2.8539 -1.4194,5.8871 -1.6394,6.7402 l -0.4003,1.5512 -1.1094,0.6501 -1.1093,0.6501 -1.0854,1.6931 c -1.2325,1.9231 -1.3,2.4082 -0.5251,3.7697 l 0.5519,0.9695 1.9292,0.034 1.9291,0.034 0.2007,-0.3586 c 0.111,-0.1972 0.1526,-0.5422 0.094,-0.7664 -0.059,-0.2244 0.2339,-1.4712 0.6501,-2.7706 l 0.7569,-2.3626 0.6248,-0.6742 0.6247,-0.6741 2.7729,0.1727 c 1.525,0.094 3.4359,0.2431 4.2463,0.3293 l 1.4738,0.1565 0.1758,0.7412 c 1.3458,5.6721 1.4323,6.5049 0.8273,7.9532 -0.2057,0.4922 -0.3448,0.909 -0.309,0.9261 0.036,0.017 0.4646,0.2123 0.9529,0.4337 l 0.8878,0.4026 0.4094,0.8629 c 0.2253,0.4746 0.4096,1.152 0.4096,1.5051 v 0.6422 h -0.2726 c -0.1499,0 -0.8253,-0.4968 -1.5007,-1.104 l -1.228,-1.1042 -0.8469,-0.159 c -1.2296,-0.2306 -2.3677,0.053 -3.4506,0.8608 l -0.9516,0.7095 -0.9494,1.5701 c -1.2384,2.048 -2.0774,4.8229 -2.5679,8.4931 l -0.3964,2.9653 0.1474,3.2244 c 0.5187,11.3544 4.9872,18.2155 9.8137,15.0681 z m 17.5306,-11.7722 c -1.5755,-0.6288 -3.1759,-2.5105 -3.5998,-4.2329 l -0.1667,-0.6777 0.5822,-0.2161 0.5823,-0.216 v -1.4232 -1.4231 l 0.4207,-0.2689 c 0.5562,-0.3557 0.774,-0.095 0.7965,0.9506 0.026,1.1946 0.3271,1.0785 0.9231,-0.3557 0.5863,-1.4109 0.947,-1.6194 2.1275,-1.2297 l 0.8565,0.2825 1.0601,-0.1188 1.0601,-0.1188 0.7148,-0.509 c 0.393,-0.2799 1.027,-1.0827 1.4088,-1.7842 l 0.6941,-1.2753 0.2954,-1.7539 0.2957,-1.7539 0.2933,-0.098 0.2936,-0.098 0.2486,0.654 c 0.1367,0.3596 0.2487,1.7443 0.2487,3.0771 v 2.4232 l -0.5928,2.3368 c -0.9866,3.8893 -2.6376,6.6114 -4.6249,7.6253 l -0.9403,0.4796 -1.1834,-0.015 c -0.651,-0.013 -1.4583,-0.1253 -1.7941,-0.2593 z m 3.6276,-1.1253 0.868,-0.4119 0.8273,-1.1325 c 1.2668,-1.7338 2.8505,-6.5174 2.8142,-8.5 l -0.013,-0.5398 -0.3895,0.7412 c -0.6338,1.206 -1.8319,2.3133 -2.9755,2.7501 l -1.0698,0.4085 -1.4698,-0.1536 -1.4698,-0.1536 -0.4734,1.07 -0.4733,1.0701 -1.1503,0.8261 -1.1504,0.8262 0.1315,0.3431 c 0.072,0.1888 0.1317,0.4414 0.1317,0.5615 0,1.7508 3.8376,3.2538 5.8589,2.2946 z m -3.5295,-8.6729 c -0.1458,-0.099 -0.3396,-0.3832 -0.4306,-0.6296 l -0.1655,-0.4481 0.3517,-0.6801 c 0.6802,-1.3153 2.5424,-2.3131 3.0887,-1.6549 l 0.2919,0.352 -0.1664,0.8878 -0.1665,0.8877 -0.6887,0.7371 -0.6886,0.7372 h -0.5804 c -0.3192,0 -0.6997,-0.085 -0.8456,-0.1852 z m 1.4249,-1.2318 c 0.4345,-0.506 0.7496,-1.2972 0.5164,-1.2972 -0.305,0 -1.3054,1.0745 -1.3054,1.4022 0,0.455 0.3477,0.4088 0.789,-0.1046 z m -5.0722,-1.9561 c -0.09,-0.09 -0.1647,-2.0856 -0.1647,-4.4333 v -4.2686 l 0.2124,-0.1312 c 0.3287,-0.2032 5.3544,3.198 5.9395,4.0195 l 0.5199,0.7302 v 0.9691 0.9689 l -0.556,0.5083 c -0.8834,0.8078 -1.9767,1.2668 -3.6736,1.5421 -1.8673,0.3029 -2.0613,0.311 -2.2775,0.096 z m 3.5418,-1.3691 c 0.4758,-0.1413 1.1152,-0.4849 1.421,-0.7636 l 0.5559,-0.5069 v -0.6498 -0.6497 l -0.8031,-0.7496 c -0.4417,-0.4123 -1.498,-1.204 -2.3474,-1.7593 l -1.5445,-1.0099 v 3.3283 3.3282 l 0.9266,-0.1555 c 0.5097,-0.085 1.3159,-0.2711 1.7915,-0.4122 z m -8.6597,-0.702 c -0.3869,-0.4144 -0.9367,-1.3767 -1.2219,-2.1387 l -0.5183,-1.3856 -0.2693,-2.644 -0.2691,-2.6443 0.2271,-0.9605 0.2271,-0.9606 0.4408,-0.085 0.4408,-0.085 0.9809,0.6491 c 1.2985,0.8594 1.8558,1.8363 2.2244,3.8993 l 0.305,1.7068 -0.2713,2.0212 c -0.1494,1.1117 -0.3881,2.3272 -0.5308,2.7008 l -0.2594,0.6796 h -0.4011 c -0.2207,0 -0.7178,-0.339 -1.1049,-0.7532 z m 1.3999,-3.4496 0.1538,-1.6082 -0.2978,-1.4337 -0.2976,-1.4337 -0.7463,-0.85 c -0.4104,-0.4675 -0.9014,-0.8499 -1.0912,-0.8499 h -0.3452 v 1.0567 c 0,3.0059 0.6729,6.075 1.6636,7.5895 l 0.4025,0.6154 0.2022,-0.7389 c 0.1111,-0.4065 0.2714,-1.4627 0.356,-2.3472 z m 14.9652,-0.027 c -1.8199,-1.2219 -9.0291,-7.7566 -9.1493,-8.2931 l -0.085,-0.3791 0.8261,-0.8688 c 4.6111,-4.8493 10.7232,0.8996 10.3716,9.755 -0.04,1.0222 -0.1384,1.0116 -1.9636,-0.214 z m 1.0213,-1.6392 c -0.2839,-3.0744 -1.3569,-5.772 -2.9161,-7.3312 l -0.8637,-0.8637 -0.9909,-0.297 -0.9907,-0.2967 -0.9549,0.286 c -1.0853,0.3253 -2.2574,1.1629 -2.2574,1.6133 0,0.5219 8.1977,7.8172 9.0507,8.0543 0.017,0.013 -0.018,-0.5196 -0.076,-1.165 z m -35.2165,-13.1892 -0.25,-0.1544 0.1757,-0.5869 c 1.0184,-3.4009 4.3728,-11.9175 5.219,-13.2508 0.4599,-0.7247 0.8282,-0.7019 2.6536,0.1644 0.8349,0.3961 2.055,0.7993 2.7113,0.8959 l 1.1935,0.1755 0.1213,0.3167 c 0.067,0.1741 -0.062,0.855 -0.2857,1.5132 -0.6634,1.9502 -1.8018,6.7428 -2.0677,8.7056 -0.1359,1.0039 -0.3711,1.949 -0.5224,2.1003 l -0.2751,0.275 h -4.2118 c -2.3166,0 -4.3244,-0.07 -4.4619,-0.1545 z m 8.3107,-1.2965 c 0.055,-0.2892 0.2347,-1.3597 0.3987,-2.3791 0.1641,-1.0192 0.6733,-3.2261 1.1319,-4.9042 0.9257,-3.3879 0.9264,-3.376 -0.2102,-3.5655 -0.6492,-0.1085 -2.1702,-0.7064 -3.4602,-1.3607 -0.3447,-0.1748 -5.2401,11.9034 -5.1306,12.659 0,0.013 1.6147,0.027 3.5858,0.045 l 3.584,0.032 z m 0.6856,43.4164 c 1.527,-1.4494 2.7603,-4.924 3.0604,-8.6211 l 0.1693,-2.0859 h -0.8177 -0.8176 l -0.4519,-0.4088 c -0.8509,-0.7702 -0.3392,-2.9117 1.2725,-5.3252 l 1.0374,-1.5536 -0.158,-0.9886 c -0.2669,-1.6694 -1.2966,-4.3235 -2.2124,-5.7027 l -0.8712,-1.3121 -1.131,-0.6628 -1.131,-0.6628 -0.8462,0.1374 c -2.1858,0.3547 -3.7431,2.9121 -4.4677,7.3365 l -0.3438,2.1003 4e-4,3.5831 6e-4,3.5829 0.3579,2.3474 c 0.9206,6.0384 2.9754,9.3194 5.6589,9.0361 l 0.9542,-0.1007 z m -78.8727,3.8787 c -0.1436,-0.2681 -0.367,-1.0464 -0.4966,-1.7296 l -0.2355,-1.2422 0.2409,-1.2709 c 0.1326,-0.6989 0.4898,-1.7688 0.7937,-2.3774 l 0.5528,-1.1066 1.194,-1.0736 c 1.5631,-1.4054 4.1554,-2.6834 6.5017,-3.2053 l 1.8844,-0.4192 1.4393,0.1304 c 0.7915,0.072 1.7956,0.3085 2.2314,0.5258 0.4359,0.2174 1.0577,0.3953 1.382,0.3953 0.3242,0 1.0022,0.2116 1.5064,0.4704 l 0.9167,0.4705 0.8281,1.374 0.8279,1.3741 0.4953,0.1571 0.4951,0.1573 1.1116,-0.3113 1.1115,-0.3112 1.223,-1.1344 1.2233,-1.1345 0.4781,-1.9346 c 0.8067,-3.2631 2.8025,-5.4394 8.0208,-8.7457 l 1.2355,-0.7828 2.8997,-3.0406 c 1.5949,-1.6723 3.7732,-3.9303 4.8407,-5.0174 1.0674,-1.0873 2.224,-2.4217 2.5702,-2.9652 1.611,-2.53 6.0045,-4.4093 8.7168,-3.7286 l 0.6347,0.1593 0.2444,0.643 0.2444,0.6429 -0.372,1.4521 c -0.4588,1.7911 -0.83,2.3953 -2.6747,4.3532 l -1.4558,1.5452 0.639,0.7594 0.639,0.7596 v 0.5848 0.5848 l -0.5343,0.3744 c -0.294,0.2058 -0.6368,0.311 -0.7618,0.2338 -0.1252,-0.077 -0.052,0.1999 0.1639,0.6158 0.9195,1.7782 -0.3241,2.9561 -2.1114,1.9996 l -0.4928,-0.2639 0.3856,0.7458 c 0.2121,0.4102 0.3856,1.0293 0.3856,1.3758 v 0.6301 l -0.4941,0.4941 c -0.5934,0.5935 -0.7948,0.607 -1.742,0.1175 l -0.7292,-0.3771 v 0.3713 c 0,0.2043 -0.2674,0.5466 -0.5943,0.7609 l -0.5944,0.3894 -0.8198,-0.2125 -0.8199,-0.2123 -1.2949,1.373 c -0.7122,0.7552 -1.2989,1.5576 -1.3038,1.7833 l -0.013,0.4102 1.8458,1.652 1.8458,1.6519 0.4041,0.9161 0.4042,0.916 1.2073,0.4289 c 2.3832,0.8463 10.1073,6.736 10.1073,7.7068 v 0.3633 h -0.7011 c -0.3855,0 -1.7911,-0.1637 -3.1236,-0.3636 l -2.4224,-0.3637 -1.625,-0.7603 c -0.8936,-0.4183 -2.0801,-0.8228 -2.6366,-0.8991 l -1.0118,-0.1387 -1.4025,0.2911 c -0.7714,0.1602 -2.0433,0.6363 -2.8266,1.0578 l -1.424,0.7668 -1.1273,0.013 -1.1274,0.013 -1.3951,-0.5665 -1.3953,-0.5661 -1.184,0.111 c -0.6511,0.061 -1.8511,0.3731 -2.6666,0.694 l -1.4826,0.5833 h -2.1004 l -2.1003,0.013 -1.8533,-0.9772 -1.8532,-0.9771 h -1.4827 -1.4826 l -1.3892,0.7994 -1.389,0.7997 h -0.8348 c -0.4591,0 -1.4464,-0.1703 -2.1939,-0.3747 -0.7475,-0.2044 -2.2081,-0.3814 -3.246,-0.3935 l -1.8868,-0.022 -1.4342,0.4169 c -0.7889,0.2293 -2.1888,0.7969 -3.1109,1.2612 -1.9551,0.9845 -2.0807,1.0031 -2.4265,0.3568 z m 2.8469,-1.6405 1.9317,-0.8925 1.964,-0.3428 1.9638,-0.3428 1.5137,0.2441 c 0.8325,0.1342 1.9021,0.3565 2.3769,0.494 0.4747,0.1375 1.2277,0.2499 1.6733,0.2499 h 0.8099 l 0.9214,-0.5918 c 0.5067,-0.3257 1.3537,-0.7285 1.8819,-0.8953 l 0.9607,-0.3033 1.2519,0.1482 1.252,0.1482 2.0539,1.0271 2.054,1.0269 1.6639,-0.1214 1.664,-0.1213 1.6254,-0.6531 1.6256,-0.6528 h 1.0926 l 1.0925,9e-4 1.7298,0.6115 c 2.2003,0.7778 2.1451,0.7807 4.2318,-0.2315 0.9675,-0.4694 2.2753,-0.9834 2.9064,-1.1422 l 1.1472,-0.2889 1.297,0.1071 1.2969,0.1072 1.7263,0.7934 1.7263,0.7934 2.0952,0.3316 2.0951,0.3314 -1.1067,-0.9789 c -2.9667,-2.6243 -5.6937,-4.3762 -8.6821,-5.5777 l -0.6564,-0.2639 -0.1617,-0.736 -0.1616,-0.7362 -2.0854,-1.9486 -2.0853,-1.9485 v -0.7711 -0.771 l 1.5443,-1.7284 1.5445,-1.7286 1.2144,0.1401 1.2144,0.14 -0.1992,-0.4697 c -0.1097,-0.2583 -0.2498,-0.7623 -0.3116,-1.1199 l -0.1123,-0.6504 0.2474,-0.1529 0.2474,-0.1528 1.0352,0.8649 c 0.5694,0.4758 1.2592,0.865 1.5329,0.865 h 0.4976 l -0.1631,-0.6495 c -0.089,-0.3573 -0.4298,-1.0421 -0.7557,-1.5219 l -0.5927,-0.8724 0.2435,-0.4549 c 0.316,-0.5906 0.4985,-0.5756 1.9509,0.1604 l 1.2142,0.6152 0.1639,-0.2649 0.1637,-0.2653 -0.7685,-1.0701 c -0.4226,-0.5885 -0.7684,-1.1993 -0.7684,-1.3575 v -0.2874 l 0.9778,0.071 c 1.3024,0.094 1.433,-0.1097 0.659,-1.0297 -0.913,-1.0851 -0.8427,-1.3317 0.9078,-3.1872 1.6325,-1.7307 2.4748,-3.2133 2.719,-4.7862 l 0.1457,-0.9396 -0.3435,-0.1318 c -0.1888,-0.072 -1.1559,-0.013 -2.1487,0.1434 l -1.8051,0.2754 -1.3073,0.6337 -1.3072,0.6337 -1.0975,1.645 -1.0975,1.6449 -1.0153,0.7414 c -0.5586,0.4076 -1.4174,1.2972 -1.9085,1.9767 -0.491,0.6795 -2.01,2.381 -3.3751,3.7808 l -2.4823,2.5453 -2.7181,1.8657 c -4.1782,2.8678 -6.7914,5.7241 -6.7967,7.4292 -8e-4,0.2424 -0.1188,0.8655 -0.2635,1.3847 l -0.2623,0.9442 -0.8894,0.9846 c -1.1592,1.2831 -2.6783,2.1574 -4.0397,2.3254 l -1.0919,0.1347 -0.6138,-0.3243 c -0.3376,-0.1784 -1.0047,-0.9135 -1.4827,-1.6339 -0.9729,-1.4662 -1.4174,-1.7853 -2.8456,-2.0418 -0.5437,-0.098 -1.4888,-0.3654 -2.1003,-0.5951 l -1.1121,-0.4176 -1.6217,0.1462 c -4.0007,0.3605 -8.0404,2.7086 -9.3639,5.4426 l -0.5046,1.0422 v 1.6316 c 0,1.4114 0.1503,2.4133 0.3622,2.4133 0.035,0 0.9317,-0.4017 1.9941,-0.8926 z m 3.1594,48.5807 c 15.1099,-1.2245 34.1998,-2.7806 42.4222,-3.458 8.2222,-0.6774 20.3908,-1.6787 27.0409,-2.2253 6.6503,-0.5465 12.1247,-1.027 12.1653,-1.0676 0.085,-0.085 -1.3173,-17.7844 -1.5364,-19.3932 l -0.1453,-1.0657 -1.2798,0.1428 c -0.7038,0.079 -8.9523,0.7555 -18.3298,1.5043 -25.7157,2.0536 -43.969,3.5243 -48.9263,3.9417 -2.4463,0.2061 -7.2833,0.5977 -10.7489,0.8704 -6.1579,0.4844 -11.7115,0.9359 -24.4633,1.9887 -3.4654,0.2862 -6.3456,0.5648 -6.4001,0.6193 -0.098,0.098 1.3733,18.0187 1.6066,19.566 l 0.1213,0.8031 h 0.5008 c 0.2754,0 12.8633,-1.0019 27.9731,-2.2265 z m -20.3418,-6.316 c 0,-0.5776 2.0461,-6.6689 2.2928,-6.8257 0.3878,-0.2463 1.9084,-0.2574 1.9066,-0.014 -8e-4,0.102 -0.1201,0.6127 -0.2651,1.1351 -0.3768,1.3566 -0.285,1.3491 2.4769,-0.2011 l 2.4925,-1.3988 0.8608,-0.1072 c 0.4735,-0.059 1.25,-0.1559 1.7257,-0.2153 0.4758,-0.059 0.8649,-0.027 0.8649,0.072 0,0.1788 -4.9176,3.0778 -5.7451,3.3867 -0.6997,0.2613 -0.5299,0.4491 1.3988,1.5464 1.0071,0.5732 2.0816,1.2447 2.3876,1.4926 l 0.5566,0.4506 -1.8072,0.168 -1.8074,0.168 -1.9718,-1.1171 c -2.4215,-1.372 -2.2442,-1.3834 -2.8046,0.1801 l -0.4649,1.2972 -1.0486,0.076 c -0.5766,0.043 -1.0485,-1e-4 -1.0485,-0.093 z m 11.254,-0.7953 c -0.092,-0.092 1.988,-6.7048 2.1637,-6.8805 0.066,-0.066 1.5696,-0.241 3.3416,-0.3893 l 3.2217,-0.2696 0.7463,0.3093 c 0.8124,0.3364 1.3976,1.0769 1.6519,2.09 l 0.1623,0.6467 -0.7689,0.2681 c -0.8984,0.3131 -0.8664,0.2235 -0.3999,1.118 0.2031,0.3893 0.3699,1.0546 0.3707,1.4785 v 0.7707 l -0.9265,0.1532 c -0.5097,0.084 -1.12,0.1543 -1.3561,0.1559 h -0.4296 l -0.1574,-0.9838 c -0.087,-0.5409 -0.2937,-1.0969 -0.4604,-1.2353 l -0.3035,-0.2518 -1.8884,0.1597 -1.8886,0.1596 -0.4102,1.301 -0.4101,1.3011 -1.0911,0.087 c -0.6002,0.048 -1.1262,0.052 -1.169,0.013 z m 7.464,-4.6442 c 1.9731,-0.3077 0.5832,-1.0114 -1.6675,-0.8442 l -1.7523,0.1303 -0.2323,0.3672 c -0.1278,0.2021 -0.234,0.4301 -0.236,0.5067 0,0.1505 2.5789,0.044 3.8881,-0.16 z m 3.7683,3.5575 c 0,-0.6723 1.7259,-5.4705 2.1272,-5.914 0.2224,-0.2457 0.8633,-0.6111 1.4242,-0.8121 l 1.02,-0.3654 3.5552,-0.2683 c 1.9555,-0.1477 3.6036,-0.22 3.6626,-0.161 0.059,0.059 -0.2972,1.4799 -0.7916,3.1576 -0.4943,1.6776 -0.9546,3.2448 -1.0228,3.4828 l -0.124,0.4324 h -1.2128 -1.2127 l 0.2409,-0.6338 c 0.1326,-0.3486 0.241,-0.7417 0.241,-0.8734 v -0.2396 l -1.1736,0.1265 c -0.6456,0.069 -1.7928,0.1896 -2.5494,0.2678 l -1.3756,0.1419 -0.3084,0.8527 -0.3083,0.8528 h -0.5399 c -0.297,0 -0.7902,0.07 -1.0961,0.1522 l -0.5559,0.1492 z m 8.4457,-3.8659 c 0.093,-0.09 0.2479,-0.4886 0.3456,-0.8841 l 0.1778,-0.7193 -2.3033,0.1636 -2.3033,0.1634 -0.427,0.3864 c -0.2347,0.2125 -0.4868,0.6153 -0.56,0.8952 l -0.133,0.509 2.5177,-0.1745 c 1.3847,-0.096 2.5933,-0.2489 2.6855,-0.3397 z m 3.2692,-0.2201 1.0281,-3.3908 0.7805,-0.2239 c 0.4293,-0.1227 0.9431,-0.1617 1.1416,-0.085 l 0.361,0.1384 -0.9586,3.2426 c -1.1672,3.9484 -1.0185,3.7099 -2.3141,3.7099 h -1.0668 z m 2.5114,2.9258 c -0.1836,-0.297 1.1986,-4.8406 1.7099,-5.6208 0.226,-0.3449 0.7903,-0.7857 1.2541,-0.9794 l 0.8431,-0.3523 3.729,-0.3125 c 4.0673,-0.3407 4.0498,-0.3445 3.6352,0.7539 l -0.2855,0.7564 -1.0041,0.1363 c -0.5521,0.075 -1.9492,0.2109 -3.1044,0.3019 -3.1789,0.2506 -3.4188,0.4141 -3.8305,2.6082 l -0.1562,0.8329 3.4931,-0.2541 c 1.9213,-0.1398 3.5319,-0.2152 3.5792,-0.1679 0.076,0.076 -0.3447,1.5281 -0.4995,1.7253 -0.057,0.072 -7.9793,0.7804 -8.8108,0.7868 -0.2298,0 -0.4785,-0.094 -0.5526,-0.2147 z m 10.2508,-0.8006 c 0.013,-0.1873 0.4839,-1.7847 1.0582,-3.5498 l 1.0442,-3.2095 0.9804,-0.1616 c 1.305,-0.2151 1.3854,-0.1279 0.9672,1.0582 -0.1967,0.5571 -0.3574,1.1103 -0.3574,1.2291 0,0.2537 1.2078,0.2734 3.4984,0.057 l 1.6452,-0.1555 0.3076,-1.0984 c 0.1691,-0.6041 0.4653,-1.2561 0.6582,-1.4489 l 0.3505,-0.3507 h 0.8472 c 1.0308,0 1.0432,-0.3155 -0.1446,3.7004 -0.5418,1.8312 -0.9849,3.3601 -0.9849,3.3975 0,0.037 -0.5005,0.068 -1.1121,0.068 -1.2456,0 -1.2566,-0.022 -0.7428,-1.4781 l 0.369,-1.0459 -2.5312,0.178 c -3.0146,0.2119 -2.8336,0.1265 -3.1795,1.5001 -0.3219,1.2778 -0.314,1.2709 -1.6609,1.4862 l -1.0268,0.1643 z m 11.6615,-1.2287 c -1.0026,-1.0468 0.6744,-5.4955 2.3578,-6.2545 l 0.926,-0.4176 3.7918,-0.3053 3.7917,-0.3054 0.1059,0.2746 c 0.058,0.1511 0,0.5579 -0.134,0.9042 l -0.2394,0.6297 -1.3152,0.1458 c -0.7231,0.08 -2.2045,0.2198 -3.2918,0.3103 -1.0873,0.09 -2.2212,0.2559 -2.5199,0.3679 l -0.5431,0.2039 -0.3793,1.277 c -0.2086,0.7022 -0.3201,1.3726 -0.248,1.4893 l 0.1314,0.2126 1.903,-0.1352 c 2.494,-0.1773 3.015,-0.2948 3.015,-0.6801 v -0.3199 l -1.5175,0.1097 -1.5175,0.1098 0.1786,-0.7112 c 0.098,-0.3912 0.216,-0.7488 0.2619,-0.7947 0.1266,-0.1266 5.6044,-0.573 5.7117,-0.4657 0.2118,0.2117 -0.7031,2.687 -1.2105,3.2751 l -0.5476,0.6348 -0.9885,0.2229 c -0.5436,0.1227 -2.4339,0.2953 -4.2007,0.3836 l -3.2124,0.1607 z m 10.3731,-0.7649 c 0.066,-0.1779 0.466,-1.4404 0.8882,-2.8052 l 0.7676,-2.4815 0.5646,-0.5291 c 0.9214,-0.8631 8.8518,-2.1177 9.4712,-1.4984 0.1703,0.1703 -1.5865,6.3839 -1.9241,6.8051 l -0.2475,0.309 h -0.9582 -0.9582 v -0.231 c 0,-0.1265 0.1098,-0.5213 0.2452,-0.8761 l 0.2453,-0.645 -2.5309,0.1679 c -2.8651,0.1902 -2.6888,0.1227 -3.046,1.1695 l -0.2678,0.7854 -1.1851,0.076 -1.1852,0.076 z m 7.7847,-3.5595 0.7987,-0.1213 0.2142,-0.7927 c 0.2738,-1.0132 0.4996,-0.9469 -2.3178,-0.6804 l -2.4461,0.2315 -0.3154,0.4314 c -0.1734,0.2371 -0.3153,0.6331 -0.3153,0.8799 v 0.4487 l 1.7915,-0.1383 c 0.9852,-0.076 2.1508,-0.1928 2.5902,-0.2593 z m 3.6352,2.261 -0.4423,-0.6752 0.8028,-2.6343 c 0.942,-3.0911 1.1706,-3.3199 3.026,-3.0302 0.088,0.014 -0.1608,1.0535 -0.5532,2.3107 -0.3925,1.2571 -0.7149,2.3859 -0.7163,2.5083 v 0.2227 l 2.3785,-0.1563 c 2.8942,-0.1901 2.7907,-0.1071 3.6817,-2.934 0.8181,-2.5951 0.8702,-2.6586 2.1823,-2.6639 h 0.9532 l -0.1383,0.3602 c -0.076,0.1981 -0.533,1.6159 -1.0158,3.1506 -0.4825,1.5347 -0.9761,2.944 -1.0966,3.1318 l -0.2191,0.3415 -1.3243,0.2102 c -0.7284,0.1162 -2.618,0.2837 -4.1989,0.3734 l -2.8745,0.1634 z m 107.231,-106.6458 c 3.3485,-16.7153 6.8205,-34.3726 6.8205,-34.6859 v -0.343 l -9.4516,3.7631 c -5.1984,2.0699 -11.342,4.4979 -13.6525,5.3961 -2.3103,0.898 -7.87,3.0712 -12.355,4.8297 -4.4849,1.7583 -10.8508,4.2341 -14.1466,5.5019 -6.3671,2.4489 -6.359,2.4447 -5.3128,2.8537 0.7397,0.2892 19.4221,8.1036 36.1387,15.1159 5.776,2.4228 10.5239,4.3942 10.5508,4.3806 0.027,-0.013 0.6606,-3.0789 1.4085,-6.8121 z m -175.9777,1.1526 c 7.0307,-2.9368 13.7026,-5.715 14.8261,-6.1742 1.1236,-0.459 5.768,-2.3876 10.3209,-4.2858 4.5529,-1.898 8.5003,-3.5347 8.7721,-3.6372 l 0.4942,-0.1862 -1.4826,-0.5851 c -0.8154,-0.3218 -5.0409,-1.9699 -9.3899,-3.6624 -7.7006,-2.9966 -41.2058,-16.1354 -43.7989,-17.1752 l -1.2972,-0.5202 -8e-4,0.3053 c -5e-4,0.1678 0.44,2.5292 0.9788,5.2474 0.5388,2.718 2.3234,11.7805 3.9656,20.1387 1.6422,8.3584 3.0465,15.3995 3.1206,15.6472 l 0.1348,0.4503 0.2866,-0.1111 c 0.1575,-0.062 6.0389,-2.5144 13.0697,-5.4509 z m 56.0338,-3.9856 1.0903,-1.111 -0.2358,-0.2327 c -0.1296,-0.1278 -1.7925,-0.8432 -3.6952,-1.5895 -4.7034,-1.8446 -6.9171,-2.6671 -6.7624,-2.5125 0.3938,0.3938 8.2669,6.5524 8.379,6.5543 0.074,0 0.6245,-0.4976 1.2241,-1.1086 z m 58.1508,-4.9888 c 0.3842,-0.3146 0.6373,-0.5719 0.5627,-0.5719 -0.1829,0 -10.2678,3.9166 -10.5774,4.1079 l -0.2446,0.1512 1.1683,1.1861 1.1681,1.186 3.6123,-2.7437 c 1.9865,-1.5088 3.9264,-3.0009 4.3106,-3.3156 z m -55.0069,1.5985 c 0.7176,-0.7088 1.3049,-1.3648 1.3049,-1.4576 0,-0.1654 -1.1798,-0.9351 -13.22,-8.6235 -3.2618,-2.0829 -8.8215,-5.6424 -12.355,-7.9099 -3.5337,-2.2677 -10.6502,-6.8233 -15.8147,-10.1239 -5.1644,-3.3004 -10.7401,-6.8725 -12.3905,-7.9381 l -3.0007,-1.9371 -12.2816,4.1144 -12.2817,4.1144 0.5798,0.2988 c 0.3189,0.1642 2.8592,1.1923 5.6453,2.2846 2.7861,1.0923 8.2346,3.2292 12.108,4.7487 3.8734,1.5194 13.4362,5.2573 21.2508,8.3063 7.8147,3.0491 14.7514,5.7626 15.4151,6.03 1.4856,0.5985 1.5782,0.5989 2.9472,0.013 l 1.1063,-0.4741 0.5821,0.4043 c 0.3204,0.2225 1.4925,1.1467 2.605,2.0538 l 2.0224,1.6495 4.2787,1.6651 c 2.3531,0.9158 5.5573,2.1937 7.1201,2.8395 1.563,0.6458 2.8939,1.1872 2.9575,1.203 0.063,0.015 0.7031,-0.5512 1.421,-1.2601 z m 52.4304,-2.0834 c 7.0831,-2.7413 6.4673,-2.438 9.3479,-4.6033 l 2.2811,-1.7144 1.2333,0.4434 1.2333,0.4435 6.617,-2.5529 c 12.1087,-4.6716 45.6486,-17.8366 48.9949,-19.2312 l 0.8648,-0.3605 -10.7621,-3.6228 c -5.9192,-1.9924 -11.4278,-3.8242 -12.2413,-4.0705 l -1.4792,-0.4479 -3.0789,1.9607 c -3.1679,2.0171 -14.0278,8.9041 -22.9709,14.5672 -12.4845,7.9057 -17.6237,11.1518 -23.9688,15.1401 -3.7375,2.349 -6.9019,4.369 -7.0321,4.4889 l -0.2367,0.2178 1.3228,1.3393 1.3227,1.3395 1.2614,-0.5017 c 0.6939,-0.2759 3.9747,-1.5517 7.2908,-2.8352 z m -48.3225,-1.984 1.6909,-1.7734 -3.4206,-3.7927 c -3.3611,-3.7265 -27.371,-30.6744 -30.9422,-34.7281 l -1.8226,-2.0691 -0.2776,0.1007 c -0.1528,0.056 -5.5369,1.8541 -11.9651,3.9976 -6.4279,2.1434 -11.6541,3.9255 -11.6137,3.9602 0.04,0.035 2.909,1.8754 6.3746,4.0904 27.7064,17.7094 31.5978,20.2016 42.378,27.1409 4.213,2.712 7.7158,4.9121 7.7837,4.8891 0.069,-0.023 0.8845,-0.8399 1.8146,-1.8152 z m 42.911,-2.3102 c 2.922,-1.8521 10.8168,-6.8493 17.5442,-11.1047 6.7273,-4.2553 14.9559,-9.463 18.2855,-11.5722 11.8575,-7.5117 13.5439,-8.5786 13.9969,-8.8552 0.6563,-0.4005 1.2858,-0.1598 -11.8431,-4.5281 l -12.0544,-4.0108 -0.4017,0.3323 c -0.448,0.3707 -8.0054,8.7918 -21.6979,24.1775 -5.0194,5.6402 -10.2737,11.527 -11.676,13.0819 l -2.5501,2.8272 1.9134,1.9246 1.9134,1.9245 0.6285,-0.4146 c 0.3458,-0.2281 3.0193,-1.9301 5.9413,-3.7824 z m -37.7319,-2.9208 2.6411,-2.6801 -0.9965,-2.4473 c -1.1068,-2.7184 -3.3459,-8.4129 -10.7618,-27.3692 -2.7572,-7.0478 -5.0828,-12.884 -5.1682,-12.9694 -0.085,-0.085 -5.5942,1.669 -12.2416,3.8987 l -12.0864,4.0539 0.3043,0.3763 c 0.1672,0.2071 3.1799,3.6075 6.6945,7.5563 3.515,3.949 11.4098,12.822 17.5443,19.718 6.1346,6.8959 11.2158,12.5391 11.2916,12.5404 0.076,0 1.3263,-1.2036 2.7787,-2.6776 z m 28.2508,0.765 c 2.7849,-3.1134 10.2771,-11.5218 18.2194,-20.4478 4.3536,-4.8926 9.7282,-10.9158 11.9435,-13.3849 l 4.0278,-4.4893 -1.05,-0.3861 c -1.8426,-0.6779 -23.2497,-7.809 -23.4418,-7.809 -0.102,0 -0.2626,0.2502 -0.3581,0.556 -0.096,0.3059 -1.7824,4.6704 -3.7487,9.6988 -4.7389,12.1189 -11.3303,29.0194 -12.0708,30.9506 l -0.5926,1.5452 2.6252,2.7173 c 3.106,3.215 2.6128,3.0985 4.4461,1.0492 z m -12.0515,-8.8514 4.2056,4.1831 0.255,-0.6003 c 0.1402,-0.33 2.1578,-5.4927 4.4833,-11.4726 6.2509,-16.0723 11.6459,-29.8818 11.7314,-30.0283 0.041,-0.071 -5.5142,-2.0156 -12.3457,-4.3218 l -12.4213,-4.1928 -12.4541,4.1732 c -6.8498,2.2952 -12.5495,4.2576 -12.6662,4.3609 l -0.212,0.1876 0.7475,1.9376 c 1.0146,2.6304 8.2535,21.0803 12.2005,31.0959 1.7675,4.4849 3.3172,8.4192 3.4437,8.7429 l 0.2301,0.5885 4.2984,-4.4186 4.2983,-4.4186 z m 111.1341,159.8128 c -0.086,-0.139 -0.323,-2.2281 -0.527,-4.6426 l -0.3708,-4.3898 0.1882,-0.1875 c 0.1941,-0.193 9.1737,-1.0713 9.3323,-0.9127 0.049,0.049 0.2724,2.1291 0.4971,4.623 l 0.4085,4.5344 -0.2062,0.1897 c -0.1136,0.1046 -1.6519,0.3158 -3.4188,0.4697 -1.7667,0.1539 -3.7825,0.3449 -4.4796,0.4242 l -1.2674,0.1444 z m 5.3666,-1.3043 c 1.6544,-0.1498 3.0227,-0.2888 3.0408,-0.309 0.059,-0.066 -0.6354,-7.3937 -0.7059,-7.446 -0.099,-0.075 -7.4032,0.5736 -7.4692,0.6624 -0.041,0.055 0.3256,4.5455 0.5871,7.1794 0.026,0.2521 1.0087,0.2334 4.5472,-0.086 z m -234.5823,-10.6622 c -9e-4,-0.1699 -0.1719,-2.2449 -0.3801,-4.6113 l -0.3786,-4.3026 0.1947,-0.1756 c 0.2703,-0.2437 9.0504,-0.9776 9.2618,-0.7743 0.094,0.09 0.3516,2.1539 0.5716,4.5849 l 0.4004,4.4198 -0.2049,0.2048 c -0.1744,0.1744 -7.5233,0.9632 -8.9734,0.9632 h -0.4901 z m 5.643,-1.1572 c 3.3669,-0.2661 3.0017,0.254 2.6137,-3.723 -0.1791,-1.8347 -0.3307,-3.5371 -0.3368,-3.7829 -0.013,-0.2459 -0.094,-0.3972 -0.1966,-0.3362 -0.102,0.061 -1.7976,0.2463 -3.7683,0.4121 -1.9706,0.1658 -3.5989,0.317 -3.6184,0.3362 -0.019,0.019 0.1162,1.5916 0.3008,3.4944 0.1851,1.9027 0.34,3.5879 0.3444,3.7448 l 0.013,0.2853 0.9267,-0.1046 c 0.5096,-0.058 2.1866,-0.2044 3.7265,-0.326 z m 222.3257,0.2559 c -0.1836,-0.2971 -0.9898,-9.1438 -0.8458,-9.2808 0.049,-0.046 2.1353,-0.2677 4.6364,-0.4915 l 4.5476,-0.4071 0.1834,0.1968 c 0.2588,0.2781 1.0031,9.043 0.7851,9.2495 -0.098,0.093 -1.625,0.2927 -3.3917,0.4424 -1.7669,0.1498 -3.7828,0.3376 -4.4799,0.4171 l -1.2674,0.1449 z m 8.2238,-1.634 c 0.1253,-0.1252 -0.4284,-7.043 -0.5844,-7.2954 -0.08,-0.1303 -7.2931,0.4182 -7.4203,0.5643 -0.041,0.048 0.572,7.4467 0.62,7.4826 0.089,0.067 7.2991,-0.666 7.3847,-0.7515 z m 4.4632,0.5585 c -0.013,-0.034 -0.2212,-2.119 -0.4629,-4.6331 l -0.4393,-4.5714 0.2774,-0.1816 c 0.1525,-0.1 0.7916,-0.1833 1.4203,-0.1853 0.6285,0 1.4902,-0.074 1.915,-0.1582 l 0.7721,-0.1544 v 0.4985 0.4988 l -0.3908,0.15 c -0.215,0.083 -0.9378,0.1499 -1.6062,0.1499 h -1.2153 v 0.4196 c 0,0.2306 0.1294,1.9648 0.2877,3.8535 l 0.2877,3.434 1.3185,-0.1648 1.3184,-0.1647 v 0.4855 0.4856 l -0.3908,0.1499 c -0.3712,0.1425 -3.0426,0.2187 -3.0918,0.088 z m -249.55,-10.2506 v -0.4962 l 1.7307,-0.1705 1.7305,-0.1706 -0.1097,-0.541 c -0.061,-0.2974 -0.175,-1.3748 -0.2536,-2.3942 -0.079,-1.0192 -0.2102,-2.4465 -0.2922,-3.1715 l -0.1491,-1.3184 -1.3284,0.083 -1.3282,0.083 3e-4,-0.5202 3e-4,-0.5202 1.66,-0.155 c 0.9128,-0.085 1.738,-0.074 1.8335,0.026 0.1858,0.1936 1.0674,9.1695 0.9155,9.3215 -0.049,0.049 -1.0623,0.1694 -2.2497,0.2657 l -2.1593,0.1751 z m 7.8132,-0.5124 c -0.068,-0.1098 -0.3128,-2.1729 -0.5447,-4.585 l -0.4215,-4.3854 0.2212,-0.2055 c 0.2768,-0.2571 9.0574,-1.004 9.2802,-0.7895 0.1871,0.1802 1.0477,9.1599 0.8926,9.3149 -0.3006,0.3007 -9.262,0.9189 -9.4278,0.6505 z m 4.7805,-1.1858 c 1.4222,-0.093 2.8159,-0.2359 3.0968,-0.3183 l 0.5109,-0.1498 -0.3263,-3.5717 c -0.1796,-1.9644 -0.3729,-3.6183 -0.4297,-3.6751 -0.057,-0.057 -1.7748,0.039 -3.8177,0.2113 l -3.7144,0.3148 0.1188,0.8893 c 0.1252,0.9339 0.6162,6.1264 0.6162,6.5117 v 0.2239 l 0.6796,-0.1338 c 0.3738,-0.074 1.8431,-0.2096 3.2656,-0.3023 z"
       id="path280" /></g><style
     id="style1">@media(prefers-color-scheme:dark){.lines{fill:#d7d7d7}}</style></svg>
