<?xml version="1.0" encoding="UTF-8" standalone="no"?>
<!-- Created with Inkscape (http://www.inkscape.org/) -->

<svg
   width="454.27643mm"
   height="409.65387mm"
   viewBox="0 0 454.27643 409.65387"
   version="1.1"
   id="svg1"
   xml:space="preserve"
   inkscape:version="1.4.4 (dcaf3e7, 2026-05-05)"
   sodipodi:docname="logos teams.svg"
   inkscape:export-batch-name="logos teams"
   inkscape:export-batch-path="Desktop/3 LIGA"
   xmlns:inkscape="http://www.inkscape.org/namespaces/inkscape"
   xmlns:sodipodi="http://sodipodi.sourceforge.net/DTD/sodipodi-0.dtd"
   xmlns="http://www.w3.org/2000/svg"
   xmlns:svg="http://www.w3.org/2000/svg"><sodipodi:namedview
     id="namedview1"
     pagecolor="#ffffff"
     bordercolor="#000000"
     borderopacity="0.25"
     inkscape:showpageshadow="2"
     inkscape:pageopacity="0.0"
     inkscape:pagecheckerboard="0"
     inkscape:deskcolor="#d1d1d1"
     inkscape:document-units="mm"
     inkscape:zoom="0.037190382"
     inkscape:cx="-4006.4122"
     inkscape:cy="-8779.1516"
     inkscape:window-width="1920"
     inkscape:window-height="1050"
     inkscape:window-x="0"
     inkscape:window-y="30"
     inkscape:window-maximized="0"
     inkscape:current-layer="layer1"><inkscape:page
       x="0"
       y="0"
       width="454.27643"
       height="409.65387"
       id="page1"
       margin="0"
       bleed="0" /></sodipodi:namedview><defs
     id="defs1"><style
       id="style1-7">
      .cls-1 {
        fill: #fff;
      }
    </style></defs><g
     inkscape:label="Ebene 1"
     inkscape:groupmode="layer"
     id="layer1"
     transform="translate(755.35113,1897.6875)"><path
       style="fill:#ff0000;stroke-width:4.22894"
       d="m -714.84552,-1501.2435 c -7.75182,-15.2162 -16.27605,-35.7942 -18.69637,-45.1347 l -1.66891,-6.4407 v -9.7024 -9.7025 l 1.25563,-2.4439 c 0.69059,-1.344 2.54568,-3.8272 4.12242,-5.5175 l 2.8668,-3.074 5.88974,-2.2037 5.88973,-2.2037 14.32408,-1.8032 c 22.92498,-2.8863 32.21898,-5.8419 38.67612,-12.2991 l 3.06347,-3.0634 1.24097,-4.6015 c 0.68253,-2.531 1.77412,-5.7345 2.42575,-7.1194 l 1.18478,-2.5175 h 3.00218 c 4.2351,0 10.01223,4.2111 14.08103,10.2645 l 3.47501,5.1698 0.71581,4.4764 c 1.38282,8.6477 -2.48629,18.7714 -10.07192,26.3539 -8.30699,8.3035 -16.68287,10.9762 -42.26037,13.4848 l -16.69376,1.637 -2.88712,2.1428 c -1.58791,1.1786 -3.50908,3.3527 -4.26925,4.832 l -1.38214,2.6896 -0.0245,8.951 -0.0245,8.9514 4.66933,18.8818 4.66932,18.8818 -1.13906,1.818 c -0.62649,0.9998 -2.16633,1.9716 -3.42188,2.1598 l -2.28282,0.3425 z m 178.07058,-7.525 c -8.41982,-2.0422 -17.47103,-6.8061 -23.56881,-12.4044 l -5.35256,-4.9144 5.03508,-4.4848 c 6.19036,-5.5141 5.60922,-5.5052 12.33856,-0.1861 6.7545,5.3391 15.97676,8.9396 25.07293,9.7892 l 6.78924,0.6339 7.27096,-1.8447 c 3.99902,-1.0145 10.04024,-3.5324 13.42494,-5.5953 l 6.15399,-3.751 5.28651,-6.4779 5.28652,-6.4779 2.18961,-6.8044 c 1.20429,-3.7422 2.5111,-8.8909 2.90403,-11.4414 l 0.71442,-4.6379 -1.18921,-6.433 c -0.65407,-3.538 -2.42441,-9.1308 -3.93409,-12.4285 l -2.74489,-5.9958 -5.83472,-6.1692 -5.83471,-6.1696 -6.81726,-3.356 -6.81726,-3.3561 -7.08276,-1.1406 -7.08275,-1.1405 -6.1165,1.1304 c -20.55722,3.8005 -34.2813,17.3306 -38.93313,38.384 l -0.67853,3.0706 -6.80689,3.436 c -8.28963,4.1845 -8.19262,4.2704 -6.64699,-5.8545 l 1.25164,-8.1987 3.90947,-8.2841 3.90947,-8.2836 7.53976,-7.3808 7.53976,-7.3812 6.33176,-3.0681 c 17.64251,-8.5488 35.04029,-8.5987 52.26593,-0.148 l 8.27389,4.059 6.83215,6.8517 6.83215,6.8521 3.56758,7.273 c 8.21683,16.7508 8.21653,35.8529 -7.9e-4,52.5792 l -3.56838,7.2632 -6.71344,6.7575 -6.71344,6.7574 -6.80459,3.5671 c -3.74252,1.9618 -9.76453,4.3381 -13.38224,5.2803 l -6.57766,1.7135 -7.877,-0.097 c -4.33234,-0.051 -10.47113,-0.7244 -13.64175,-1.4937 z m 168.56579,-3.6365 c -11.09991,-1.7647 -24.436,-9.1353 -32.79383,-18.1244 l -5.38061,-5.7869 -3.83899,-8.0895 c -2.11147,-4.4493 -4.40377,-11.1107 -5.09397,-14.8034 l -1.255,-6.7135 0.64714,-7.8324 c 2.01301,-24.3629 19.46598,-45.3761 42.71928,-51.4328 l 6.58505,-1.7153 h 7.92165 7.92161 l 6.5777,1.7136 c 3.61769,0.9422 9.63315,3.3337 13.36768,5.3145 l 6.79008,3.6018 6.1685,6.1683 6.16854,6.1688 3.52973,6.6986 c 1.94134,3.6847 4.33302,9.434 5.31481,12.7765 l 1.78508,6.0774 v 8.5129 8.5133 l -1.71327,6.5777 c -0.9423,3.6174 -3.30463,9.5633 -5.2496,13.2125 l -3.53628,6.6347 -6.56222,6.5012 -6.56222,6.5016 -8.04882,3.9164 c -11.57203,5.6308 -23.47777,7.5135 -35.46204,5.6084 z m 22.7213,-14.3463 c 3.52436,-0.9181 8.79214,-2.8773 11.70618,-4.3541 l 5.29831,-2.6849 5.93253,-6.2728 5.93253,-6.2728 2.72403,-5.9497 c 1.49818,-3.2728 3.12104,-8.9387 3.60635,-12.5908 l 0.88233,-6.6407 -0.84507,-6.5591 c -0.4648,-3.6077 -2.08766,-9.2737 -3.60636,-12.5908 l -2.76128,-6.0314 -5.83472,-6.1691 -5.83471,-6.1696 -6.81354,-3.3354 c -3.74748,-1.8345 -9.72217,-3.9126 -13.2771,-4.618 l -6.46356,-1.2822 -7.25289,1.2018 c -9.56455,1.585 -17.70602,5.4562 -24.61831,11.7057 l -5.63655,5.0959 -3.16583,5.8165 c -6.08599,11.1822 -7.7061,23.0025 -4.70008,34.2925 0.84384,3.1692 2.95886,8.3796 4.70008,11.5788 l 3.16583,5.8165 5.63655,5.0963 c 11.75827,10.6307 26.91518,14.6444 41.22528,10.9174 z m -263.2864,-0.042 c -12.02975,-3.3126 -36.14453,-16.7779 -45.59548,-25.4595 l -2.51754,-2.3128 v -2.4287 c 0,-2.7937 2.26658,-5.049 7.83235,-7.794 2.1539,-1.0623 6.79976,-4.7465 10.32415,-8.1868 l 6.40797,-6.255 2.84998,2.6778 c 1.56748,1.4725 5.4031,6.0355 8.52358,10.1401 6.26505,8.241 14.54492,15.1333 20.73719,17.2621 l 4.03166,1.3859 4.61242,-0.9473 c 2.53683,-0.521 12.41679,-4.9322 21.95548,-9.8023 9.53868,-4.8705 19.5251,-9.4419 22.19205,-10.1592 l 4.84898,-1.3038 3.2631,0.7164 3.26309,0.7168 -0.025,1.8692 c -0.041,3.0863 -3.13525,6.2102 -20.11546,20.3091 l -16.22415,13.4704 -7.02691,3.5164 -7.02691,3.5159 -8.07834,0.3807 -8.07835,0.3806 z m 153.30815,-20.6335 -1.17981,-2.2045 2.16736,-5.9074 c 1.19205,-3.2491 4.45698,-11.4461 7.25539,-18.2158 l 5.08804,-12.3079 1.37315,-8.0388 1.37316,-8.0388 -1.05439,-4.2314 -1.05439,-4.2315 -3.57009,-2.3991 -3.57009,-2.3987 -16.18617,-3.9426 c -19.11495,-4.6561 -26.67765,-7.884 -33.75431,-14.4072 l -5.21898,-4.8104 -2.84668,-5.6177 -2.84668,-5.6177 -0.51796,-6.7355 -0.51797,-6.735 3.22617,-6.1539 3.22616,-6.154 5.40016,-3.6365 5.40015,-3.6364 h 3.75036 3.75035 l 1.15828,2.1639 c 0.63705,1.1905 1.15827,3.801 1.15827,5.8009 0,2.0003 1.02472,5.7534 2.27717,8.3407 l 2.27716,4.7039 4.15655,2.8689 c 6.29962,4.3486 15.06965,7.8316 29.87534,11.8643 38.2283,10.4129 42.24955,24.2868 18.82799,64.959 -17.53568,30.451 -26.22231,40.7011 -29.42369,34.7192 z m -201.99633,-75.495 c -13.47611,-5.6884 -34.11097,-43.1412 -34.11097,-61.9126 v -4.8286 l 2.87947,-2.8795 2.87947,-2.8795 3.89763,0.6327 3.89764,0.6326 3.83674,3.3684 3.83675,3.3688 5.81339,1.7266 5.81339,1.7263 h 9.12856 9.12855 l 9.96952,-3.4703 9.96951,-3.4702 8.39181,0.5273 8.3918,0.5269 12.30798,4.2045 c 16.60165,5.6714 28.33969,10.3532 32.72805,13.0534 l 3.63644,2.2376 v 2.7061 2.7061 h -4.76242 -4.76241 l -15.51178,-4.4755 -15.51178,-4.4759 h -8.06196 -8.06197 l -7.7486,2.6363 c -9.33236,3.1746 -17.28463,7.1397 -23.69304,11.8127 l -4.75535,3.4677 v 13.347 c 0,14.1145 -0.86298,18.2728 -4.15805,20.0363 l -2.02734,1.0847 z m 268.66806,-15.2864 c -3.62936,-0.5294 -13.11788,-2.5395 -21.08554,-4.4666 l -14.48674,-3.5037 -3.71639,-3.263 -3.71639,-3.2631 -1.77208,-5.2007 -1.77209,-5.2008 v -7.22 -7.2197 l -4.1959,0.7401 c -2.30775,0.4059 -9.52247,1.0475 -16.03272,1.423 l -11.83682,0.6826 -5.80367,-1.3926 -5.80367,-1.3922 -1.66067,-2.3707 c -0.91336,-1.3042 -1.66066,-4.004 -1.66066,-5.9992 v -3.6285 l 3.37436,-3.8432 3.37436,-3.8433 7.31467,-2.9281 c 4.02306,-1.6104 12.12638,-4.1786 18.00737,-5.7065 l 10.69271,-2.778 h 10.30404 10.30405 l 5.73616,1.7034 5.73613,1.7034 2.29928,2.9231 c 1.26462,1.6074 2.29932,3.9578 2.29932,5.2227 v 2.2997 l -6.05991,5.6613 -6.0599,5.6617 -1.20677,4.4755 c -0.66372,2.4616 -1.20957,7.0572 -1.213,10.2129 l -0.006,5.7374 1.39863,1.0788 c 0.76926,0.5933 8.196,3.7574 16.50393,7.0319 24.00592,9.4605 31.54701,13.7115 29.68133,16.7301 l -0.72184,1.168 -5.80824,-0.1353 c -3.1945,-0.076 -8.77772,-0.5697 -12.40708,-1.0991 z m -327.29174,-7.8108 c -12.40328,-7.5614 -39.26502,-32.2994 -39.26502,-36.1604 v -1.7872 h 2.27376 c 3.52442,0 8.71547,2.4832 26.79512,12.8179 l 16.72512,9.5604 h 2.65061 2.6506 l 3.59672,-4.4759 c 5.61828,-6.9913 9.0858,-5.1606 9.0858,4.796 v 4.9432 l -2.54417,3.7752 c -1.39929,2.0764 -4.24305,4.9204 -6.31946,6.3197 l -3.77529,2.5442 h -4.03044 -4.03043 z m 326.52102,-46.8495 c -7.999,-2.424 -12.21128,-7.9428 -12.21128,-15.999 v -4.8717 l 3.30289,-5.2079 c 5.68551,-8.965 17.93828,-16.2891 31.30694,-18.7131 l 6.90641,-1.2526 5.25644,0.7811 5.25649,0.7815 4.10313,4.0889 4.10309,4.0894 0.77863,4.1507 0.77868,4.1507 -3.0371,6.2077 -3.0371,6.2077 -5.76083,4.5786 c -11.3589,9.028 -28.13536,13.9209 -37.74639,11.008 z m -294.37076,-7.0484 c -7.1445,-4.3651 -12.0965,-12.6479 -15.03402,-25.1457 l -1.7808,-7.5766 0.62602,-6.9464 0.62602,-6.9469 2.25304,-4.4163 c 1.23917,-2.4291 3.59375,-5.471 5.23241,-6.76 l 2.97938,-2.3436 h 5.5913 5.5913 l 3.61296,2.2328 c 4.29974,2.6575 8.30732,8.2211 12.42618,17.2507 l 3.01787,6.6158 0.53331,10.196 0.53331,10.1959 -2.5285,5.8774 -2.5285,5.8778 -3.09834,2.2063 -3.09834,2.2062 h -5.42181 -5.42181 z m 219.18057,-56.916 c -9.81952,-0.9461 -20.13024,-2.932 -54.05276,-10.4109 -9.9046,-2.1838 -26.01686,-5.0303 -35.80504,-6.3256 l -17.79668,-2.3551 h -21.81869 -21.8187 l -9.51071,1.7681 c -12.46614,2.3179 -12.18816,2.3877 -7.9453,-1.9901 l 3.68276,-3.7997 7.44608,-3.428 7.44608,-3.4284 10.62962,-1.854 10.62962,-1.8535 19.58088,0.5975 19.58088,0.5976 16.33158,2.8266 c 8.98237,1.5546 22.82885,4.3199 30.76996,6.1447 27.81962,6.3924 50.09632,9.7282 72.62156,10.8747 l 14.54579,0.74 12.36118,-1.2581 c 13.19079,-1.3422 25.79274,-4.3778 33.34872,-8.0324 l 4.64092,-2.2452 -3.91617,3.4821 c -2.15388,1.9149 -8.95123,5.9485 -15.10523,8.9633 l -11.1891,5.482 -9.54557,2.2519 c -17.78683,4.1964 -34.94876,5.2155 -55.11168,3.2723 z m -32.68768,-29.483 c -4.92319,-0.781 -14.98704,-2.7868 -22.3641,-4.4573 -7.37706,-1.6704 -20.21653,-4.0737 -28.53214,-5.3407 l -15.1193,-2.3035 -20.69979,-0.042 -20.69979,-0.042 -5.00474,1.2569 c -12.18128,3.0592 -1.73132,-6.176 12.4693,-11.0198 l 7.08124,-2.4152 15.10525,-0.5489 15.10525,-0.5493 12.35032,1.7385 c 6.79268,0.9557 20.63916,3.5675 30.76996,5.8038 10.13079,2.2363 24.96524,5.0413 32.96543,6.2335 l 14.54579,2.1677 15.69428,0.055 15.69428,0.055 7.98056,-1.6641 c 4.3893,-0.9152 9.66284,-2.4807 11.71895,-3.4792 l 3.7384,-1.815 -2.79727,2.4536 c -1.5385,1.3495 -6.86584,4.4171 -11.83853,6.8171 l -9.04126,4.3638 -10.53962,2.1745 -10.53962,2.1745 -14.5458,-0.097 c -8.00018,-0.051 -18.57386,-0.735 -23.49705,-1.5157 z m 15.6647,-14.6841 c -17.80605,-2.4029 -28.76931,-5.4021 -40.36104,-11.0409 l -10.22106,-4.9724 -3.52081,-4.0099 -3.52082,-4.0099 v -2.5949 -2.5953 l 2.80691,-3.0283 c 1.5438,-1.6658 6.54757,-4.7335 11.11947,-6.8171 10.27743,-4.6835 15.56113,-9.3798 25.52783,-22.6903 14.06937,-18.7892 24.69911,-24.231 62.57543,-32.0343 19.67898,-4.0538 27.7636,-3.8623 27.7636,0.658 v 2.1911 l -8.11206,3.746 c -4.46164,2.0599 -16.06146,7.0547 -25.77739,11.0997 -23.2203,9.666 -21.18448,8.2172 -29.60334,21.0664 l -7.38997,11.279 -0.0839,4.539 -0.0839,4.5389 7.83235,4.7533 c 4.3078,2.6139 16.25664,8.0929 26.55299,12.1756 10.29636,4.0822 19.98889,8.4198 21.53897,9.639 l 2.81833,2.2168 v 2.1842 2.1847 l -3.07699,1.2793 -3.077,1.2792 -20.69978,0.313 -20.69979,0.3129 z m -90.91047,-27.8556 c -11.88955,-3.3358 -23.73132,-11.9641 -27.59512,-20.1065 l -1.77696,-3.7448 v -5.2574 -5.2578 l 3.68895,-3.6889 3.68896,-3.6889 4.42313,-1.2281 c 22.20986,-6.1658 51.97669,10.5394 51.97669,29.17 v 4.8966 l -1.7523,2.5019 c -0.96377,1.3761 -3.85894,3.5815 -6.43372,4.9013 l -4.68142,2.4 -7.83235,0.3763 -7.83236,0.3764 z"
       id="path214"
       sodipodi:nodetypes="sscccsscccsscsscsscssscsscccccsscscscssscsscccsscsscccccccsscsscccccsscccsscccssccccsscsscsscccsscccsscccsscccsssscccsscsscccsscsscssscsscscssscssscssscccssccccccscsscccccccsscccccccccccssscsssssscccccccccccccccsscccccccccsscsscsssccccccccscccsscccsscccccsscccsscsssccsssscsscccsscsscccssscsscccccccccsscscccsscccsscccccccccccsscccsscccccccssscsscsscscccsscccsscccssscccsscsscccccccscccccssssscssscccssscccccccccscccccsscsscccc" /></g><style
     id="style1">@media(prefers-color-scheme:dark){.lines{fill:#d7d7d7}}</style></svg>
