<?xml version="1.0" encoding="UTF-8" standalone="no"?>
<!-- Created with Inkscape (http://www.inkscape.org/) -->

<svg
   width="295.86197mm"
   height="507.47263mm"
   viewBox="0 0 295.86197 507.47263"
   version="1.1"
   id="svg1"
   xml:space="preserve"
   inkscape:version="1.4.4 (dcaf3e7, 2026-05-05)"
   sodipodi:docname="logos teams.svg"
   inkscape:export-batch-name="logos teams"
   inkscape:export-batch-path="Desktop"
   xmlns:inkscape="http://www.inkscape.org/namespaces/inkscape"
   xmlns:sodipodi="http://sodipodi.sourceforge.net/DTD/sodipodi-0.dtd"
   xmlns="http://www.w3.org/2000/svg"
   xmlns:svg="http://www.w3.org/2000/svg"><sodipodi:namedview
     id="namedview1"
     pagecolor="#ffffff"
     bordercolor="#000000"
     borderopacity="0.25"
     inkscape:showpageshadow="2"
     inkscape:pageopacity="0.0"
     inkscape:pagecheckerboard="0"
     inkscape:deskcolor="#d1d1d1"
     inkscape:document-units="mm"
     inkscape:zoom="0.69712823"
     inkscape:cx="489.14961"
     inkscape:cy="355.02794"
     inkscape:window-width="1920"
     inkscape:window-height="1050"
     inkscape:window-x="0"
     inkscape:window-y="30"
     inkscape:window-maximized="0"
     inkscape:current-layer="layer1"><inkscape:page
       x="0"
       y="0"
       width="295.86197"
       height="507.47266"
       id="page1"
       margin="0"
       bleed="0" /></sodipodi:namedview><defs
     id="defs1" /><g
     inkscape:label="Ebene 1"
     inkscape:groupmode="layer"
     id="layer1"
     transform="translate(476.85666,115.54045)"><path
       style="fill:#000000"
       d="m -347.88454,391.4941 c -1.74625,-0.20852 -4.42516,-0.58418 -5.95313,-0.8348 l -2.77812,-0.45568 -0.52917,-1.05482 c -1.45162,-2.89361 -0.58768,-6.4159 2.92779,-11.93667 4.3833,-6.88363 6.10038,-13.08772 9.29051,-33.56815 1.55302,-9.97025 1.61812,-12.11691 1.01512,-33.4698 l -0.44457,-15.74271 0.82835,-4.89479 c 0.4556,-2.69213 1.35597,-7.82435 2.00082,-11.40492 0.64486,-3.58058 1.59295,-9.05575 2.10687,-12.16705 l 0.9344,-5.65691 -0.93018,-9.79337 -0.93018,-9.79337 -0.92499,-31.08625 c -0.50874,-17.09743 -0.92498,-31.17657 -0.92498,-31.28698 0,-0.1104 -0.39825,-0.20073 -0.885,-0.20073 h -0.88501 l -0.16324,8.00364 c -0.70678,34.65329 -5.93872,65.75411 -12.37495,73.56185 -1.31461,1.59474 -4.46419,2.82244 -7.26708,2.83268 l -1.07007,0.004 -0.59191,2.42705 c -1.41113,5.78605 -5.27285,10.37295 -8.30897,9.86924 -11.20778,-1.8594 -17.62947,-15.87592 -13.39158,-29.22962 0.537,-1.69211 0.84216,-3.29174 0.93379,-4.89479 l 0.1361,-2.38125 -1.25355,-5.15938 c -1.58058,-6.50542 -1.8022,-9.96841 -0.95669,-14.94896 1.29634,-7.63615 1.61713,-13.24774 1.81119,-31.68385 0.12414,-11.79361 0.0884,-15.27969 -0.15653,-15.27969 -0.17455,0 -0.65204,0.17307 -1.06109,0.3846 l -0.74374,0.3846 -0.31612,-0.69381 c -2.53251,-5.55825 -1.66111,-13.50885 2.67479,-24.40467 3.74356,-9.40729 3.94831,-10.33268 5.09759,-23.0389 l 0.89815,-9.92964 1.91424,-4.49016 c 4.36706,-10.24358 4.10573,-27.15377 -0.84628,-54.76098 l -0.85426,-4.7625 -0.15374,-8.466667 -0.15375,-8.466667 -0.89104,-1.822879 c -1.74871,-3.577574 -4.88995,-6.150347 -12.47042,-10.213751 -14.16662,-7.593823 -36.17513,-22.9806761 -50.83337,-35.539243 -2.62489,-2.248898 -5.10149,-5.580916 -7.21045,-9.700955 -3.58505,-7.003715 -4.94824,-11.802903 -9.69636,-34.136805 -2.77706,-13.062509 -4.15365,-16.931913 -7.24117,-20.353894 -2.79431,-3.09701 -3.93904,-5.938116 -5.28461,-13.115899 -0.35464,-1.891771 -1.0742,-4.981726 -1.59902,-6.866568 -0.98914,-3.552352 -1.68154,-7.701522 -1.40532,-8.421322 0.42795,-1.11522 1.21212,-0.14034 2.15581,2.68011 2.01824,6.031981 3.59158,9.380175 3.59158,7.643162 0,-0.05974 -0.29211,-1.705584 -0.64912,-3.657422 -0.96134,-5.25578 -1.23932,-7.77542 -1.15045,-10.42796 l 0.0798,-2.38125 0.70002,-0.0811 c 0.91616,-0.10609 1.24985,0.77815 2.47468,6.55769 1.04251,4.91923 1.57315,6.69809 2.13786,7.166751 0.67834,0.562979 0.74532,0.05099 0.40948,-3.130421 -1.31798,-12.48528 -1.31663,-12.76192 0.0624,-12.76192 h 0.86568 l 0.43684,1.91823 c 0.24026,1.05503 0.68876,3.40651 0.99666,5.22552 0.93908,5.54779 1.68518,7.9375 2.4782,7.9375 0.59926,0 0.61503,-0.51696 0.12106,-3.96875 -1.02581,-7.16826 -0.94709,-10.05417 0.27424,-10.05417 0.82004,0 1.04593,0.56613 1.75029,4.38661 2.02235,10.96929 6.31704,21.300643 5.81937,13.999126 -0.33381,-4.897466 0.16056,-6.868966 1.67814,-6.692286 l 0.69152,0.0805 0.74517,2.51354 c 1.2807,4.319899 1.81125,7.332432 1.80683,10.259506 l -0.004,2.718876 -1.2547,2.705082 -1.2547,2.705082 -0.11025,2.648767 -0.11024,2.648767 0.86172,2.246025 c 1.81541,4.731756 3.98749,8.99646 10.44212,20.502275 5.14599,9.173077 9.446,18.218147 10.73659,22.584397 0.38309,1.29605 0.19748,1.189703 4.47324,2.563103 10.17289,3.267597 20.10135,8.696724 30.03115,16.421765 2.61886,2.037382 5.42722,4.2036299 6.24081,4.8138869 l 1.47925,1.109557 3.81242,1.68e-4 c 3.09938,1.36e-4 4.62249,0.148849 8.14367,0.795133 7.75004,1.422452 10.36469,1.696758 16.17395,1.696829 l 5.42396,6.6e-5 2.64583,-0.711861 c 6.2507,-1.681749 7.86965,-2.941141 8.45997,-6.5810609 1.14777,-7.077179 0.33825,-12.153552 -3.7981,-23.817286 -1.86816,-5.267873 -3.20666,-9.656072 -3.20666,-10.512882 0,-0.154697 0.46007,-0.51598 1.02239,-0.802851 l 1.02238,-0.521582 -0.63036,-2.176348 c -3.59553,-12.413735 1.59397,-23.191622 12.2717,-25.486682 l 0.85381,-0.183518 -0.91064,1.998283 -0.91065,1.998283 1.72099,-0.647781 c 4.72809,-1.779648 10.02737,-5.030902 14.19678,-8.710122 2.22497,-1.963385 2.70552,-2.272206 3.53577,-2.272206 h 0.96083 l -0.17656,1.256771 c -0.26349,1.875592 -0.61033,2.826625 -2.16948,5.948718 -0.78001,1.561925 -1.41821,2.907205 -1.41821,2.989512 0,0.26617 3.51537,-1.772139 5.5653,-3.226912 3.84019,-2.725271 7.14879,-6.865442 8.33108,-10.424992 l 0.43498,-1.309606 0.79628,0.465025 c 3.04085,1.775841 3.13964,7.248038 0.31736,17.57939 -1.13575,4.157568 -1.23363,4.040522 1.49936,1.792931 2.38099,-1.958105 3.36515,-2.278763 3.21625,-1.04792 -0.32798,2.711137 -1.60494,6.469069 -5.06118,14.894393 -1.85325,4.517689 -1.97084,5.437957 -0.82877,6.485626 2.67807,2.45669 1.68976,8.18445 -3.33504,19.328325 -4.98306,11.051298 -6.04391,15.583204 -4.66225,19.9170029 3.46849,10.879509 33.05976,7.51909402 48.97919,-5.5621279 10.35312,-8.507306 10.1182,-8.345662 18.03703,-12.410866 l 7.27604,-3.735224 1.55277,-2.723668 c 5.72092,-10.03486 6.81097,-11.472076 15.41728,-20.32745 13.13532,-13.515448 15.14833,-18.163382 15.17937,-35.048303 0.0122,-6.618127 1.302,-13.585266 2.82703,-15.270406 1.4158,-1.56443 2.85789,3.668938 2.08846,7.579059 -0.22708,1.15403 -0.36965,2.141468 -0.31681,2.194307 0.21067,0.210676 2.40315,-2.553903 3.47846,-4.386122 1.05988,-1.805943 1.73042,-3.230934 4.98971,-10.603834 1.6617,-3.75897 1.83005,-3.98696 2.94399,-3.98696 h 0.91995 v 1.14203 c 0,2.46416 -1.2127,7.09091 -2.5682,9.79834 -0.35331,0.70569 -0.58593,1.339527 -0.51694,1.408521 0.55617,0.556166 3.45122,-7.039701 3.98164,-10.446811 l 0.30115,-1.93438 1.00226,-0.57279 c 2.35135,-1.34379 2.154,3.434 -0.46383,11.22954 -1.71288,5.100699 -1.54246,5.469536 0.6064,1.31242 1.02256,-1.9782 2.6846,-6.71911 2.6846,-7.6577 0,-0.47734 1.76865,-1.54038 2.0668,-1.24224 1.15568,1.15568 -0.51416,8.67958 -3.04594,13.724272 -0.80718,1.608339 -0.64698,1.823244 0.38394,0.515059 1.09225,-1.385995 2.32713,-3.914733 2.80457,-5.743091 0.21981,-0.84171 0.43769,-1.56321 0.4842,-1.60334 1.7411,-1.50223 2.39636,-0.9871 2.40341,1.88944 0.0128,5.223981 -2.31034,10.255781 -8.53656,18.48966 -8.00466,10.58576 -7.36387,9.379387 -14.46798,27.237943 -12.98586,32.64427 -17.82115,40.358937 -33.14872,52.8885149 -21.22347,17.3492071 -26.29751,20.6464131 -37.71143,24.5056101 -6.4361,2.17613 -11.37582,4.468576 -13.20317,6.127381 l -1.26152,1.145163 -0.88562,4.101041 c -4.0212,18.621057 -4.445,20.399697 -9.10835,38.227417 l -1.86738,7.13887 -2.8e-4,2.51842 c -1.5e-4,1.38513 -0.17545,4.84014 -0.38955,7.6778 -0.2141,2.83765 -0.50798,7.23976 -0.65308,9.78246 -0.14509,2.5427 -0.51826,6.30278 -0.82925,8.35572 l -0.56545,3.73263 2.02146,4.456 c 2.62171,5.77915 2.54358,5.38259 2.78873,14.15444 l 0.21075,7.54062 1.46368,7.80521 c 2.40022,12.79943 3.50353,23.11625 2.50143,23.39043 -0.1819,0.0498 -1.10464,0.23518 -2.05052,0.41202 -2.51326,0.46988 -2.38125,0.12784 -2.38125,6.1699 0,2.91572 -0.18559,10.55091 -0.41241,16.96708 l -0.41241,11.66578 -1.02614,7.80521 c -0.56438,4.29286 -1.63715,12.50818 -2.38394,18.25625 l -1.3578,10.45104 -3.82183,11.50938 -3.82183,11.50937 0.004,5.42396 c 0.007,9.54147 -0.76526,30.337 -1.21385,32.67604 -1.31583,6.86104 -3.74685,14.61753 -9.03885,28.83959 -9.79521,26.32431 -10.67323,31.59388 -7.97938,47.88958 0.43301,2.61937 0.86097,6.26064 0.95101,8.0917 l 0.16372,3.32921 -1.16323,0.466 c -3.11138,1.24645 -10.55572,1.5793 -17.30282,0.77363 z"
       id="path179"
       sodipodi:nodetypes="sscsssscssscccssscssscsssscssssscssscsscccssssssssssssscssssscsssssssscsccccccsssssscssscssssscsscccssscssssscsssssssssscssssssssscsssscssssssssssssssscsscsssscsscssssscsscccssssscsss" /></g><style
     id="style1">@media(prefers-color-scheme:dark){.lines{fill:#d7d7d7}}</style></svg>
