<?xml version="1.0" encoding="UTF-8" standalone="no"?>
<!-- Created with Inkscape (http://www.inkscape.org/) -->

<svg
   width="230.44588mm"
   height="104.8914mm"
   viewBox="0 0 230.44588 104.8914"
   version="1.1"
   id="svg1"
   xml:space="preserve"
   inkscape:version="1.4.4 (dcaf3e7, 2026-05-05)"
   sodipodi:docname="logos teams.svg"
   inkscape:export-batch-name="TSV Neustadt"
   inkscape:export-batch-path="Desktop/Liga"
   xmlns:inkscape="http://www.inkscape.org/namespaces/inkscape"
   xmlns:sodipodi="http://sodipodi.sourceforge.net/DTD/sodipodi-0.dtd"
   xmlns="http://www.w3.org/2000/svg"
   xmlns:svg="http://www.w3.org/2000/svg"><sodipodi:namedview
     id="namedview1"
     pagecolor="#ffffff"
     bordercolor="#000000"
     borderopacity="0.25"
     inkscape:showpageshadow="2"
     inkscape:pageopacity="0.0"
     inkscape:pagecheckerboard="0"
     inkscape:deskcolor="#d1d1d1"
     inkscape:document-units="mm"
     inkscape:zoom="0.77956228"
     inkscape:cx="-9160.2687"
     inkscape:cy="2740.6405"
     inkscape:window-width="1920"
     inkscape:window-height="914"
     inkscape:window-x="0"
     inkscape:window-y="31"
     inkscape:window-maximized="0"
     inkscape:current-layer="layer1"><inkscape:page
       x="0"
       y="0"
       width="230.44588"
       height="104.8914"
       id="page2"
       margin="0"
       bleed="0" /></sodipodi:namedview><defs
     id="defs1"><style
       id="style1-7">
      .cls-1 {
        fill: #fff;
      }
    </style></defs><g
     inkscape:label="Ebene 1"
     inkscape:groupmode="layer"
     id="layer1"
     transform="translate(2613.8187,-1318.9481)"><g
       id="g70"><path
         style="fill:#666666"
         d="m -2485.4065,1423.6115 c -1.5857,-0.33 -3.6773,-1.5279 -4.5972,-2.633 -4.048,-4.8627 -3.7891,-14.0303 0.51,-18.0515 3.459,-3.2356 9.2905,-3.0502 12.4023,0.3942 2.2563,2.4975 3.3134,6.6942 2.7509,10.9214 -0.4744,3.5649 -1.5387,5.7275 -3.7502,7.6205 -1.7582,1.505 -4.8895,2.2533 -7.3158,1.7484 z m 5.0229,-3.3225 c 3.1219,-2.1902 4.257,-8.7959 2.295,-13.3566 -0.7766,-1.8054 -2.4564,-3.2908 -4.1264,-3.649 -2.9305,-0.6284 -5.2125,0.5761 -6.69,3.531 -0.9181,1.8363 -0.926,1.8814 -0.9163,5.2917 0.01,3.2821 0.047,3.5183 0.824,5.1594 1.3855,2.9263 2.983,4.0184 5.7033,3.8986 1.472,-0.065 1.9682,-0.214 2.9104,-0.8751 z m 65.2974,3.2232 c -2.0384,-0.4533 -3.4651,-1.2636 -4.7054,-2.6727 -4.0078,-4.5532 -3.8994,-12.9787 0.2247,-17.4527 3.0245,-3.2813 9.0449,-3.7077 12.2461,-0.8674 l 0.9642,0.8554 -0.755,0.9029 -0.7551,0.9028 -1.0302,-0.8235 c -2.8204,-2.2547 -7.4699,-1.3656 -9.4142,1.8003 -1.5825,2.5767 -1.9771,7.2602 -0.8745,10.379 0.6291,1.7793 2.4847,3.755 4.0172,4.2772 1.6768,0.5714 3.92,0.5285 5.3076,-0.1013 l 1.1245,-0.5105 v -3.0556 -3.0556 h -2.249 -2.2489 v -1.1907 -1.1906 h 3.5718 3.5719 v 4.7164 c 0,4.553 -0.021,4.7352 -0.5953,5.2618 -0.933,0.8548 -2.588,1.5893 -4.2903,1.904 -1.8717,0.346 -2.2287,0.3391 -4.1102,-0.079 z m -192.0876,-10.2155 v -10.0542 h -3.3225 -3.3225 l 0.081,-1.1244 0.081,-1.1245 8.0036,-0.07 8.0038,-0.07 v 1.1945 1.1945 h -3.3073 -3.3073 v 10.0542 10.0541 h -1.4552 -1.4552 z m 13.7583,-1.2263 V 1400.79 l 4.6964,0.1343 c 6.3065,0.1803 7.8766,0.7531 9.1923,3.3533 0.6013,1.1885 0.799,3.5758 0.4141,4.9992 -0.3729,1.3783 -1.8405,3.0691 -3.3044,3.807 -0.5921,0.2984 -1.1225,0.5839 -1.1789,0.6346 -0.056,0.051 1.063,2.1493 2.4874,4.6638 1.4245,2.5145 2.6385,4.6611 2.6978,4.7702 0.059,0.1092 -0.5986,0.1985 -1.4622,0.1985 h -1.57 l -2.6128,-4.6964 -2.6127,-4.6963 h -1.9844 -1.9844 l -0.072,4.6963 -0.072,4.6964 h -1.3168 -1.3168 z m 9.4719,-1.0749 c 1.4206,-0.6969 2.1699,-1.9672 2.1699,-3.6786 0,-3.0289 -1.1632,-3.8228 -5.8871,-4.0183 l -3.1089,-0.1287 v 4.0933 c 0,2.2513 0.089,4.1867 0.1985,4.301 0.3709,0.3885 5.5892,-0.059 6.6276,-0.5687 z m 10.1074,1.1106 v -11.2448 h 1.3229 1.3229 v 11.2448 11.2448 h -1.3229 -1.3229 z m 6.6145,11.0439 c 0,-0.1104 1.6472,-5.1408 3.6605,-11.1786 l 3.6605,-10.9778 h 1.565 1.565 l 3.6324,10.9802 c 1.9978,6.0391 3.6349,11.0695 3.6381,11.1786 0,0.1092 -0.6376,0.1985 -1.4238,0.1985 h -1.4294 l -0.569,-1.9183 c -0.3129,-1.055 -0.7807,-2.573 -1.0396,-3.3734 l -0.4708,-1.4552 -3.9695,-0.073 -3.9694,-0.073 -1.0359,3.4447 -1.0359,3.4447 h -1.3891 c -0.764,9e-4 -1.389,-0.089 -1.389,-0.1993 z m 11.8111,-9.6549 c -0.09,-0.4729 -0.8079,-3.0027 -1.5944,-5.6217 l -1.4299,-4.7618 -0.3108,1.19 c -0.334,1.2781 -2.6521,9.1743 -2.8544,9.7227 -0.093,0.2532 0.6369,0.3307 3.1159,0.3307 h 3.2379 z m 12.0014,-0.1984 v -10.0542 h -3.3226 -3.3225 l 0.081,-1.1244 0.081,-1.1245 8.0036,-0.07 8.0037,-0.07 v 1.1863 1.1864 l -3.2412,0.074 -3.2411,0.074 -0.069,9.988 -0.069,9.9881 h -1.4521 -1.452 z m 13.7583,-1.2044 v -11.2587 l 1.3891,0.08 1.389,0.08 0.072,4.6964 0.072,4.6963 h 5.021 5.021 v -4.7763 -4.7763 l 1.389,0.08 1.3891,0.08 0.069,11.1786 0.069,11.1787 h -1.4581 -1.458 v -5.2917 -5.2916 h -5.0271 -5.0271 v 5.2916 5.2917 h -1.4552 -1.4552 z m 22.0238,0.08 0.069,-11.1787 1.389,-0.08 1.3891,-0.08 v 10.068 10.068 h 4.7624 4.7625 v 1.1906 1.1906 h -6.2206 -6.2205 z m 38.5659,-0.066 v -11.2448 h 1.4184 1.4184 l 4.1121,7.3422 c 2.2617,4.0382 4.5787,8.279 5.1489,9.424 l 1.0367,2.0818 -0.1198,-9.424 -0.1199,-9.424 h 1.3578 1.3578 v 11.258 11.258 l -1.4922,-0.079 -1.4923,-0.079 -3.4378,-6.0855 c -1.8908,-3.3469 -4.1724,-7.4786 -5.0702,-9.1815 l -1.6323,-3.0961 0.1136,9.2477 0.1137,9.2477 h -1.3565 -1.3564 z m 21.9604,0 v -11.2448 h 1.3229 1.3229 v 10.0541 10.0542 h 4.8948 4.8948 v 1.1906 1.1907 h -6.2177 -6.2177 z m 16.4042,-0.014 v -11.2587 l 1.389,0.08 1.3891,0.08 0.069,11.1787 0.069,11.1786 h -1.458 -1.458 z m 27.7876,11.1924 c 0,-0.036 1.6526,-5.0667 3.6645,-11.1786 l 3.6579,-11.1125 1.5611,-0.077 1.561,-0.077 3.7479,11.2552 3.7479,11.2553 h -1.5224 -1.5225 l -0.8692,-2.9766 c -0.478,-1.6371 -0.9793,-3.1881 -1.114,-3.4466 -0.2204,-0.4232 -0.6321,-0.4627 -4.1293,-0.3969 l -3.8845,0.073 -1.0485,3.3735 -1.0486,3.3734 h -1.4039 c -0.7721,0 -1.401,-0.03 -1.3975,-0.066 z m 12.0958,-9.2604 c -0.069,-0.1819 -0.8227,-2.7 -1.6752,-5.5957 l -1.5503,-5.265 -0.4803,1.6931 c -0.2642,0.9312 -0.9518,3.2578 -1.528,5.1702 -0.5761,1.9123 -1.0477,3.6685 -1.0477,3.9026 0,0.3676 0.4364,0.4255 3.2034,0.4255 2.4529,0 3.174,-0.078 3.0781,-0.3307 z m -222.7105,-24.937 v -0.6614 h 114.3 114.3 v 0.6614 0.6615 h -114.3 -114.3 z m 14.2874,-11.3231 c -0.8004,-0.1835 -1.9987,-0.5982 -2.6633,-0.9214 -1.4779,-0.7191 -1.5701,-0.7225 -1.5701,-0.059 0,0.5106 -0.1763,0.5292 -5.027,0.5292 h -5.027 v -21.368 -21.368 l 4.6866,-2.2099 c 2.5776,-1.2154 4.8398,-2.2687 5.027,-2.3405 0.2725,-0.1046 0.3404,1.3316 0.3404,7.1957 0,4.0295 0.089,7.2814 0.1985,7.2263 3.4231,-1.7262 3.8556,-1.8673 6.1055,-1.9915 1.6483,-0.091 2.7744,-10e-4 3.9959,0.3184 1.7621,0.4612 4.0905,1.5181 4.3815,1.9887 0.3683,0.5961 0.6129,0.2187 0.3815,-0.5886 -0.1353,-0.4719 -0.2461,-0.9482 -0.2461,-1.0583 0,-0.1101 2.3106,-0.2002 5.1346,-0.2002 h 5.1345 l 2.2028,8.9157 c 2.1976,8.8951 2.2034,8.9129 2.5165,7.739 0.2786,-1.0442 3.7515,-13.5872 4.3734,-15.7948 l 0.2422,-0.8599 h 4.073 c 2.2578,0 4.1416,0.1109 4.2268,0.2488 0.1905,0.3083 2.9057,9.9014 4.6475,16.42 l 0.3181,1.1906 1.1366,-4.7625 c 0.6251,-2.6194 1.601,-6.608 2.1686,-8.8635 l 1.0318,-4.1011 5.3349,-0.072 5.3348,-0.072 0.073,-4.1383 0.073,-4.1384 4.8948,-2.3321 c 2.6921,-1.2827 4.9841,-2.3351 5.0932,-2.3385 0.1091,0 0.1984,2.9089 0.1984,6.4719 v 6.4783 l 7.7391,0.07 7.7391,0.07 2.2562,6.7469 c 1.2409,3.7108 2.8072,8.4733 3.4805,10.5833 0.6734,2.1101 1.2828,3.6579 1.3543,3.4396 0.072,-0.2183 1.6349,-5.0105 3.4743,-10.6495 l 3.3443,-10.2526 h 5.4144 c 3.6,0 5.4145,0.093 5.4145,0.2774 0,0.1526 -2.8754,7.8941 -6.3898,17.2034 l -6.3899,16.926 -5.1495,-0.072 -5.1495,-0.072 -4.6664,-12.3662 -4.6664,-12.3662 h -3.9212 -3.9213 l 0.085,7.3875 0.085,7.3874 0.6415,0.6824 c 0.5264,0.56 0.8828,0.6823 1.9883,0.6823 1.5013,0 2.7787,-0.5683 4.5946,-2.044 0.6265,-0.5091 1.1941,-0.8705 1.2614,-0.8032 0.1126,0.1126 -1.0271,8.269 -1.3529,9.6815 -0.1934,0.8388 -2.9608,2.0753 -5.5433,2.4768 -6.1509,0.9562 -10.971,-2.6521 -11.7705,-8.8115 -0.1396,-1.0752 -0.2575,-5.2588 -0.2619,-9.297 l -0.01,-7.3422 h -1.6775 -1.6775 l -2.9706,9.8558 c -1.6339,5.4206 -3.3258,11.0195 -3.7599,12.4419 l -0.7892,2.5861 -4.2601,-0.073 -4.2601,-0.073 -0.8799,-3.3072 c -0.4839,-1.8191 -1.5561,-5.9577 -2.3825,-9.197 -0.8265,-3.2393 -1.5463,-5.846 -1.5996,-5.7927 -0.053,0.053 -0.9321,3.299 -1.9528,7.2126 -1.0208,3.9136 -2.1091,8.0412 -2.4185,9.1725 l -0.5625,2.0568 -4.2514,-0.072 -4.2515,-0.072 -1.9725,-6.5334 c -1.0849,-3.5934 -2.0537,-6.4833 -2.1528,-6.4221 -0.099,0.061 -0.258,0.6984 -0.3532,1.4159 -0.4966,3.7439 -2.6954,7.5903 -5.6353,9.8585 -2.7226,2.1005 -7.2179,3.0548 -10.6655,2.2643 z m 2.9941,-9.3008 c 2.3682,-0.8446 3.1425,-2.4955 3.3,-7.0355 0.1304,-3.7595 -0.2861,-6.0211 -1.427,-7.7494 -1.6216,-2.4565 -5.4847,-2.7021 -8.044,-0.5114 l -1.0564,0.9042 v 6.034 6.034 l 1.0238,0.9249 c 1.7174,1.5516 4.2039,2.1124 6.2036,1.3992 z m 156.2851,-11.7875 c 0,-3.2792 0.066,-3.9688 0.3813,-3.9688 0.2097,0 0.4489,0.1094 0.5315,0.2432 0.086,0.1383 0.4832,0.077 0.9226,-0.1422 1.4614,-0.7291 2.8137,0.1353 2.9466,1.8834 0.2115,2.7833 -1.0292,4.1585 -3.1283,3.4676 -0.5648,-0.1859 -0.5953,-0.1273 -0.5953,1.1448 0,1.1643 -0.07,1.3407 -0.5292,1.3407 -0.5056,0 -0.5292,-0.1764 -0.5292,-3.9687 z m 3.5999,0.1267 c 0.4651,-0.7099 0.3927,-2.59 -0.1196,-3.1023 -0.3695,-0.3695 -1.5464,-0.3321 -2.0242,0.064 -0.5063,0.4202 -0.5615,3.3301 -0.067,3.5297 0.8776,0.3541 1.7894,0.1513 2.2108,-0.4919 z m 46.671,3.4451 c 0,-0.2189 0.2345,-0.3968 0.523,-0.3968 0.2877,0 0.7221,-0.3038 0.9654,-0.675 0.4255,-0.6495 0.4061,-0.767 -0.5135,-3.1089 -0.5257,-1.3386 -1.0323,-2.6422 -1.1259,-2.8969 -0.1235,-0.3359 -0.035,-0.4628 0.3211,-0.4622 0.3785,6e-4 0.6798,0.5322 1.3121,2.3151 l 0.8208,2.3143 0.7091,-2.3151 c 0.4707,-1.5369 0.8396,-2.3151 1.0974,-2.3151 0.2136,0 0.3884,0.089 0.3884,0.1981 0,0.7011 -2.2309,6.7039 -2.6644,7.1692 -0.6153,0.6604 -1.8335,0.7756 -1.8335,0.1733 z m -42.7612,-2.1451 c -1.977,-0.9599 -1.9404,-4.31 0.057,-5.258 1.0754,-0.5104 2.0491,-0.309 2.7375,0.5661 1.9033,2.4198 -0.2006,5.9516 -2.795,4.6919 z m 2.0815,-1.1111 c 0.4762,-0.409 0.6466,-2.2774 0.2604,-2.8557 -0.397,-0.5946 -1.3658,-0.9284 -1.8863,-0.6498 -1.2491,0.6684 -1.203,3.4913 0.065,3.9709 0.6063,0.2294 0.8292,0.1629 1.5609,-0.4654 z m 12.766,1.3116 c -1.3774,-0.4479 -1.9843,-1.3006 -1.9843,-2.788 0,-1.3295 0.4733,-2.1921 1.46,-2.6603 1.556,-0.7383 3.0379,0.2868 3.0379,2.1016 0,0.6022 -0.097,0.6412 -1.786,0.7152 -1.6179,0.071 -1.7777,0.128 -1.699,0.6074 0.1756,1.0685 1.261,1.5414 2.6581,1.1581 0.7769,-0.2131 0.5391,0.518 -0.2589,0.7962 -0.4649,0.1621 -0.8573,0.2828 -0.8719,0.2683 -0.015,-0.014 -0.2648,-0.1038 -0.5559,-0.1985 z m 1.7198,-3.6569 c 0,-0.6017 -0.7709,-1.4099 -1.3447,-1.4099 -0.4523,0 -1.5657,1.1543 -1.5657,1.6232 0,0.1259 0.6548,0.2289 1.4552,0.2289 1.1834,0 1.4552,-0.083 1.4552,-0.4422 z m 7.7481,3.6895 c -0.3224,-0.059 -0.888,-0.4653 -1.2568,-0.9036 -1.7573,-2.0885 0.079,-5.5309 2.5002,-4.6868 0.9418,0.3283 1.3273,0.9269 1.3273,2.0611 v 0.8111 h -1.7198 c -1.3844,0 -1.7198,0.081 -1.7198,0.4143 0,1.2166 1.2269,1.927 2.4952,1.4448 0.5317,-0.2021 0.6798,-0.1768 0.6798,0.1162 0,0.2061 -0.089,0.4249 -0.1985,0.4861 -0.3961,0.2223 -1.5349,0.361 -2.1076,0.2568 z m 1.7769,-3.7576 c 0,-0.5704 -0.6615,-1.3418 -1.1506,-1.3418 -0.583,0 -1.4952,0.8162 -1.4952,1.3379 0,0.4406 0.1892,0.5142 1.3229,0.5142 1.1302,0 1.3229,-0.074 1.3229,-0.5103 z m 3.2291,3.5381 c -2.1233,-0.8927 -1.4751,-5.394 0.7904,-5.4886 0.3359,-0.014 0.8786,0.066 1.206,0.1771 0.5704,0.1942 0.5954,0.1409 0.5954,-1.2704 0,-1.133 0.092,-1.473 0.3968,-1.473 0.3357,0 0.3969,0.632 0.3969,4.101 0,3.469 -0.061,4.1011 -0.3969,4.1011 -0.2183,0 -0.3968,-0.1337 -0.3968,-0.297 0,-0.1992 -0.1089,-0.2118 -0.3308,-0.038 -0.5967,0.4669 -1.4325,0.5364 -2.261,0.188 z m 2.261,-0.9846 c 0.1962,-0.1518 0.3308,-0.8713 0.3308,-1.7686 0,-1.3657 -0.066,-1.5425 -0.6766,-1.8209 -1.2132,-0.5527 -2.2339,0.4249 -2.2339,2.1398 0,1.7139 1.2966,2.4425 2.5797,1.4497 z m 6.8792,0.9804 c -0.4215,-0.2286 -0.7276,-0.2798 -0.7276,-0.1217 0,0.1502 -0.1786,0.2731 -0.3969,0.2731 -0.3357,0 -0.3969,-0.6321 -0.3969,-4.1011 0,-4.0134 0.012,-4.101 0.566,-4.101 0.5302,0 0.5569,0.098 0.4242,1.5626 l -0.1417,1.5625 0.886,-0.3702 c 1.6541,-0.6911 3.028,0.421 3.028,2.4509 0,1.5157 -0.4351,2.3622 -1.4657,2.8512 -1.0204,0.4843 -0.8703,0.4848 -1.7754,-0.01 z m 1.8521,-1.1268 c 0.1819,-0.2258 0.3307,-0.9803 0.3307,-1.6767 0,-1.0413 -0.1118,-1.3395 -0.629,-1.6784 -0.5139,-0.3367 -0.7558,-0.3543 -1.3229,-0.096 -0.6432,0.2931 -0.6939,0.4395 -0.6939,2.0021 0,1.5063 0.063,1.7094 0.5953,1.9071 0.7002,0.2603 1.2613,0.1108 1.7198,-0.4582 z m -34.4161,1.0797 c -0.065,-0.1091 -0.374,-1.1509 -0.6874,-2.3151 -0.3134,-1.1641 -0.6327,-2.325 -0.7096,-2.5797 -0.099,-0.3277 0.01,-0.463 0.3639,-0.463 0.413,0 0.5909,0.3813 0.9872,2.1167 0.2659,1.1642 0.5635,2.1167 0.6615,2.1167 0.098,0 0.3968,-0.9581 0.6642,-2.1291 0.425,-1.8607 0.5539,-2.1191 1.0227,-2.0505 0.4351,0.064 0.6444,0.5028 1.1092,2.3275 0.6172,2.4231 0.6406,2.4148 1.3116,-0.463 0.3408,-1.4619 0.5551,-1.9183 0.901,-1.9183 0.4123,0 0.3894,0.2477 -0.2511,2.712 -0.6427,2.4727 -0.7599,2.712 -1.3282,2.712 -0.5621,0 -0.6784,-0.2213 -1.1825,-2.249 l -0.5592,-2.2489 -0.3288,1.3229 c -0.7939,3.1945 -0.84,3.3073 -1.3535,3.3073 -0.2769,0 -0.5563,-0.089 -0.621,-0.1985 z m 12.7864,-2.5797 c 0,-2.3183 0.067,-2.7781 0.4052,-2.7781 0.2228,0 0.4761,0.1848 0.5627,0.4107 0.1341,0.3494 0.2352,0.3275 0.6773,-0.147 0.5713,-0.6133 1.3975,-0.6128 1.3975,9e-4 0,0.2143 -0.2381,0.4333 -0.5292,0.4867 -1.1522,0.2114 -1.4552,0.8072 -1.4552,2.8616 0,1.767 -0.048,1.9434 -0.5291,1.9434 -0.4956,0 -0.5292,-0.1764 -0.5292,-2.7782 z"
         id="path55-3"
         sodipodi:nodetypes="ssssssssssscssssssscccssssscccccccccscssscccccccccccccccccccssssssssccccccccccssscscsccccccccccscccscscsscccccccccscssscccccccccccccccccccccccccccccccccccccccccccccccccccccccccccccsscccccccccsscccccccccccccccccccccccccccccscccccccssscccsccsscsssssccccccccccssscccssscsssssscssscssscsscccccscscccsssscssscccccccccsssssssccccsscccssssscccssssccsssscccsssscsssssscsssccssssssscssssscssccsssssssssssssscsssssssssscsssscsssssssscssssssssssssscssssscsssccsssssssssssssssssssssscssssssssssss" /><path
         id="path57-5"
         style="fill:#4eace6;fill-opacity:1;stroke-width:0.319936"
         d="m -2434.6291,1365.1567 c -0.882,-0.02 -1.9512,0.188 -2.6827,0.557 -1.0458,0.5274 -2.2528,1.9253 -2.7549,3.1904 -0.1109,0.2793 -0.2505,0.583 -0.3105,0.6748 -0.059,0.092 -0.109,0.2563 -0.109,0.3655 0,0.1091 -0.042,0.2769 -0.093,0.3731 -0.2511,0.4693 -0.5334,2.3094 -0.5228,3.4116 0.01,0.7935 0.1656,1.777 0.34,2.1162 0.4336,0.8429 1.2491,1.3505 2.4349,1.5156 l -1e-4,2e-4 c 0.485,0.068 2.1987,-0.049 2.4856,-0.1685 0.1574,-0.066 0.4102,-0.1197 0.5618,-0.1197 0.3904,0 0.4781,-0.1516 0.4486,-0.7755 l -0.025,-0.5365 -0.254,0.031 c -0.5823,0.07 -3.3754,0.098 -3.4211,0.035 -0.027,-0.038 -0.1556,-0.1368 -0.2853,-0.2193 -0.1296,-0.082 -0.3317,-0.3528 -0.449,-0.6008 -0.2026,-0.4274 -0.2118,-0.5092 -0.1774,-1.5832 0.044,-1.3803 0.2678,-2.6297 0.6119,-3.4182 0.061,-0.1397 0.1724,-0.4063 0.2479,-0.5925 0.075,-0.1863 0.1737,-0.3958 0.2181,-0.4657 0.044,-0.07 0.1155,-0.2031 0.1579,-0.2962 0.1616,-0.3549 0.9143,-1.1837 1.3398,-1.4753 0.8732,-0.5983 1.7079,-0.7028 3.3911,-0.4249 0.8631,0.1426 0.9483,0.1004 1.1156,-0.5502 0.1235,-0.4802 0.1223,-0.49 -0.073,-0.6481 -0.1207,-0.098 -0.3305,-0.1605 -0.5364,-0.1605 -0.1859,0 -0.5722,-0.061 -0.8582,-0.1348 -0.233,-0.06 -0.5063,-0.093 -0.8003,-0.1 z m -22.6264,0.2344 -0.1227,0.2936 c -0.068,0.1615 -0.1226,0.4082 -0.1226,0.5484 0,0.1403 -0.057,0.3987 -0.1267,0.5742 -0.1194,0.3011 -0.1664,0.4993 -0.3874,1.6312 -0.049,0.2561 -0.1451,0.6288 -0.2116,0.8283 -0.066,0.1995 -0.1209,0.4762 -0.1209,0.6148 0,0.1387 -0.034,0.3183 -0.077,0.3992 -0.095,0.1801 -0.4306,1.6169 -0.4306,1.8413 0,0.089 -0.053,0.3159 -0.1171,0.5038 -0.065,0.1877 -0.1806,0.6461 -0.2581,1.0185 -0.078,0.3725 -0.1962,0.8538 -0.2638,1.0696 -0.068,0.2157 -0.1229,0.4931 -0.1229,0.6163 0,0.1234 -0.053,0.3506 -0.1172,0.505 -0.1827,0.4372 -0.2562,1.1359 -0.1347,1.2823 v 10e-5 c 0.07,0.084 0.267,0.1246 0.6064,0.1246 0.5597,0 0.8306,-0.1036 0.8306,-0.3177 0,-0.078 0.053,-0.296 0.1176,-0.4837 0.064,-0.1878 0.1563,-0.5319 0.2038,-0.7647 0.048,-0.2328 0.1467,-0.6708 0.2202,-0.9734 0.074,-0.3027 0.1745,-0.7782 0.2244,-1.057 0.1418,-0.7934 0.1644,-0.8054 1.5227,-0.8054 h 1.1618 l 0.1435,0.4021 c 0.079,0.2212 0.1761,0.5545 0.2162,0.7407 0.1362,0.6328 0.319,1.2981 0.3869,1.408 0.037,0.06 0.096,0.2634 0.1314,0.4513 0.1267,0.6783 0.3019,1.172 0.4562,1.2848 0.1884,0.1377 0.9972,0.1522 1.2399,0.022 0.1385,-0.074 0.1625,-0.1454 0.1206,-0.3598 -0.062,-0.3168 -0.3542,-1.3463 -0.4846,-1.7063 -0.05,-0.1397 -0.1234,-0.4063 -0.1619,-0.5926 -0.1432,-0.6906 -0.3147,-1.2817 -0.4213,-1.4524 -0.1646,-0.2637 -0.072,-0.3861 0.5205,-0.6858 0.4535,-0.2295 1.0246,-0.7098 1.5336,-1.2901 0.2014,-0.2295 0.4871,-0.7687 0.4871,-0.9191 0,-0.081 0.048,-0.195 0.1057,-0.2531 0.071,-0.071 0.1155,-0.4908 0.1353,-1.2922 0.027,-1.0548 0.01,-1.2413 -0.1545,-1.6786 -0.2178,-0.5818 -0.5382,-0.913 -1.227,-1.268 l -0.5056,-0.2605 h -2.3979 z m 12.7166,0.019 -1.3195,0.024 -0.3303,0.6772 c -0.1819,0.3724 -0.3633,0.7343 -0.4033,0.8042 -0.04,0.07 -0.1521,0.2984 -0.2493,0.5079 -0.097,0.2095 -0.2113,0.438 -0.2538,0.5078 -0.179,0.2946 -0.7555,1.5076 -0.7555,1.5897 0,0.049 -0.03,0.1022 -0.067,0.1176 -0.037,0.016 -0.2122,0.3328 -0.3896,0.7053 -0.1774,0.3724 -0.355,0.7343 -0.3947,0.8041 -0.04,0.07 -0.1525,0.2984 -0.2512,0.5079 -0.099,0.2095 -0.2126,0.4381 -0.2529,0.508 -0.2215,0.384 -0.6765,1.3379 -0.6765,1.4182 0,0.051 -0.049,0.1438 -0.11,0.2053 -0.06,0.062 -0.2557,0.4165 -0.434,0.789 -0.7262,1.5176 -0.9283,1.9151 -0.9947,1.9562 -0.1106,0.068 -0.081,0.607 0.036,0.6542 0.058,0.024 0.3266,0.046 0.5964,0.05 0.4015,0.01 0.5251,-0.028 0.6806,-0.1839 0.1046,-0.1047 0.4902,-0.7904 0.8569,-1.5237 l 0.6665,-1.3332 h 2.05 2.0499 l 0.051,0.1907 c 0.028,0.1047 0.052,0.7508 0.052,1.4359 0,1.4355 -0.01,1.4208 0.7937,1.4208 0.7734,0 0.739,0.1505 0.6899,-3.0332 -0.023,-1.5209 -0.063,-4.0764 -0.087,-5.679 -0.03,-1.9711 -0.075,-2.9508 -0.1395,-3.0283 -0.074,-0.088 -0.3859,-0.1097 -1.4148,-0.091 z m 17.2951,0 -3.2961,0.022 -0.099,0.3386 c -0.096,0.3272 -0.1527,0.5571 -0.4267,1.7353 -0.07,0.3027 -0.1534,0.7407 -0.1844,0.9735 -0.031,0.2328 -0.091,0.4796 -0.1342,0.5484 -0.081,0.1288 -0.2548,0.8953 -0.3801,1.6689 -0.039,0.2418 -0.101,0.4877 -0.1372,0.5463 -0.037,0.059 -0.1145,0.356 -0.174,0.6608 -0.059,0.3048 -0.1678,0.8017 -0.2407,1.1044 -0.073,0.3026 -0.1863,0.7978 -0.2519,1.1004 -0.1139,0.5247 -0.187,0.837 -0.3962,1.693 -0.2191,0.8966 -0.2325,1.0534 -0.1067,1.2486 l 0.1229,0.1905 h 3.0415 c 2.1163,0 3.1066,-0.029 3.2557,-0.098 0.067,-0.031 0.1197,-0.069 0.1614,-0.1272 0.032,-0.1162 0.071,-0.2352 0.1186,-0.3567 0.019,-0.1149 0.032,-0.257 0.044,-0.4344 l 0.02,-0.2963 -2.5184,-0.022 -2.5184,-0.022 v -0.278 c 0,-0.153 0.035,-0.3142 0.078,-0.3585 0.043,-0.044 0.1195,-0.2898 0.1706,-0.5459 0.2255,-1.132 0.3298,-1.5819 0.4185,-1.8044 0.052,-0.1311 0.095,-0.347 0.095,-0.4798 0,-0.5292 -0.079,-0.5092 2.0351,-0.5092 1.0627,0 2.0228,-0.034 2.1333,-0.076 0.1513,-0.058 0.2344,-0.1967 0.3364,-0.5633 0.075,-0.2678 0.1147,-0.5412 0.089,-0.6075 -0.088,-0.2305 -0.4688,-0.2765 -2.2804,-0.2765 h -1.8229 l 0.039,-0.3598 c 0.021,-0.1979 0.081,-0.474 0.1327,-0.6137 0.052,-0.1396 0.1545,-0.5587 0.2283,-0.9311 0.074,-0.3725 0.2039,-0.9058 0.2892,-1.1851 l 0.1549,-0.508 2.4976,-0.022 c 1.8631,-0.017 2.517,-0.049 2.574,-0.1269 0.1654,-0.227 0.3943,-1.0834 0.3114,-1.1661 -0.053,-0.053 -1.3002,-0.075 -3.3793,-0.061 z m 27.4318,0.025 v 2e-4 c -0.01,0 -0.01,0.01 -0.01,0.013 0,0 0.01,-0.01 0.01,-0.013 -2e-4,-1e-4 0,-1e-4 -0.01,-2e-4 z m 13.2333,0.8497 c -0.01,0 -0.019,0.04 -0.023,0.054 -0.011,0.036 -0.022,0.072 -0.032,0.1078 0,0 0.01,-0.01 0.01,-0.01 0.017,-0.05 0.036,-0.098 0.05,-0.149 z m -68.6252,0.4745 c 0.436,-0.015 1.1531,0 1.5935,0.031 0.7504,0.054 0.8173,0.074 1.0644,0.3234 0.3258,0.3286 0.5307,1.1382 0.3845,1.52 -0.05,0.1311 -0.091,0.3662 -0.091,0.5228 0,0.3426 -0.4987,1.3332 -0.8218,1.6328 -0.1268,0.1174 -0.4031,0.2932 -0.6142,0.3908 -0.3351,0.1549 -0.5766,0.1812 -1.8966,0.2059 l -1.5127,0.028 0.049,-0.2821 c 0.063,-0.3634 0.2718,-1.3267 0.4287,-1.975 0.068,-0.2794 0.1692,-0.7365 0.2259,-1.0158 0.057,-0.2794 0.1695,-0.6984 0.2505,-0.9312 l 0.1474,-0.4232 z m 68.6404,0 c -0.088,0.023 -0.1169,0.03 -0.158,0.041 0.01,-3e-4 0.01,0 0.015,0 0.1127,-0.01 0.096,2e-4 0.1428,-0.041 z m -58.2341,0.068 c 0.052,0 0.096,0.035 0.1204,0.105 0.082,0.2408 0.2656,5.6175 0.1961,5.7562 -0.067,0.1334 -0.2375,0.1481 -1.722,0.1481 -0.9336,0 -1.6476,-0.034 -1.6476,-0.077 0,-0.098 0.46,-1.0741 0.5721,-1.2144 0.046,-0.058 0.1131,-0.2006 0.1484,-0.3169 0.035,-0.1164 0.088,-0.2306 0.1169,-0.254 0.029,-0.024 0.1476,-0.2518 0.2629,-0.5079 0.1155,-0.256 0.2304,-0.4845 0.2557,-0.5078 0.025,-0.023 0.1918,-0.3472 0.3703,-0.7196 0.1786,-0.3725 0.3564,-0.7343 0.3954,-0.8041 0.038,-0.07 0.1515,-0.2984 0.2502,-0.508 0.099,-0.2095 0.2154,-0.438 0.2593,-0.5079 0.044,-0.07 0.1212,-0.2317 0.1716,-0.3597 0.059,-0.1503 0.1642,-0.235 0.2503,-0.232 z" /><path
         id="path57-7-2"
         style="fill:#e39264;fill-opacity:1;stroke-width:0.319936"
         d="m -2420.2463,1365.5133 -0.129,0.4444 c -0.07,0.2445 -0.1529,0.6158 -0.1819,0.8254 -0.028,0.2094 -0.087,0.4571 -0.1293,0.5502 -0.067,0.1494 -0.1695,0.5805 -0.4215,1.7776 -0.1558,0.7393 -0.3306,1.4792 -0.6252,2.6441 -0.074,0.2903 -0.1335,0.6261 -0.1335,0.7462 0,0.1202 -0.045,0.3018 -0.1001,0.4034 -0.09,0.1667 -0.1611,0.4761 -0.4063,1.7719 -0.042,0.221 -0.098,0.4378 -0.1252,0.4817 -0.028,0.044 -0.089,0.3014 -0.1382,0.5717 -0.049,0.2705 -0.1446,0.6583 -0.2125,0.8621 -0.1099,0.3294 -0.1092,0.3931 0.01,0.5716 0.1133,0.1729 0.1989,0.1994 0.6164,0.1994 0.2665,0 0.5306,-0.031 0.5865,-0.066 0.1401,-0.089 0.4432,-0.7796 0.4466,-1.0133 0.01,-0.1896 0.153,-0.842 0.3886,-1.6782 0.067,-0.2368 0.1214,-0.5498 0.1214,-0.6954 0,-0.175 0.055,-0.2943 0.1635,-0.3523 0.091,-0.049 0.7053,-0.089 1.3756,-0.089 2.2698,0 3.2856,-0.3174 4.2676,-1.3223 1.0495,-1.0737 1.4988,-2.5935 1.3099,-4.4324 -0.064,-0.6165 -0.1252,-0.7623 -0.6283,-1.4842 -0.066,-0.095 -0.3713,-0.2946 -0.6784,-0.4443 l -0.5583,-0.2724 h -2.4082 z m 20.0453,0 c -1.4833,0 -2.3751,0.032 -2.408,0.085 -0.028,0.047 -0.087,0.2657 -0.1282,0.4867 -0.041,0.221 -0.1544,0.7256 -0.2502,1.1213 -0.096,0.3957 -0.1963,0.8719 -0.2231,1.0581 -0.027,0.1863 -0.1025,0.4588 -0.1681,0.6055 -0.065,0.1467 -0.1192,0.3613 -0.1192,0.477 0,0.1156 -0.053,0.3954 -0.1176,0.6219 -0.1714,0.6 -0.391,1.5759 -0.391,1.7309 0,0.074 -0.071,0.3784 -0.1584,0.6772 -0.088,0.2988 -0.2035,0.7528 -0.2582,1.0089 -0.1304,0.6115 -0.4224,1.8801 -0.5552,2.4125 -0.3305,1.3239 -0.3247,1.2544 -0.1172,1.4225 0.1757,0.1423 0.3475,0.151 2.2273,0.1132 2.7942,-0.056 3.3623,-0.1532 4.0839,-0.6975 0.1481,-0.1118 0.3042,-0.2033 0.3468,-0.2033 0.1326,0 1.0583,-0.9922 1.3749,-1.4738 0.4951,-0.7529 1.0139,-1.8687 1.0139,-2.1807 0,-0.09 0.059,-0.2761 0.1297,-0.414 0.4526,-0.8753 0.6382,-4.1603 0.2819,-4.9891 -0.2953,-0.6869 -0.4932,-0.9712 -0.8773,-1.2608 -0.736,-0.5552 -1.0191,-0.6015 -3.6867,-0.6015 z m 8.4973,2e-4 c -0.3178,0 -0.6326,0.041 -0.6844,0.1056 -0.047,0.058 -0.1055,0.2391 -0.1306,0.4021 -0.045,0.2976 -0.141,0.6896 -0.3631,1.4888 -0.065,0.2369 -0.1194,0.5537 -0.1194,0.704 0,0.1503 -0.044,0.3564 -0.099,0.4581 -0.094,0.1759 -0.253,0.8356 -0.4011,1.6662 -0.037,0.2095 -0.1066,0.4762 -0.1536,0.5926 -0.047,0.1164 -0.1123,0.4301 -0.1452,0.697 -0.033,0.267 -0.095,0.5072 -0.1383,0.534 -0.044,0.027 -0.079,0.1252 -0.079,0.2186 0,0.1885 -0.2824,1.4898 -0.4663,2.148 -0.065,0.2328 -0.1803,0.728 -0.2563,1.1004 -0.076,0.3725 -0.1732,0.7878 -0.2158,0.9227 -0.1179,0.3737 -0.093,0.6258 0.07,0.7212 v -10e-5 c 0.081,0.047 0.3429,0.089 0.581,0.089 0.5094,0 0.8792,-0.2286 0.8792,-0.5507 0,-0.1979 0.2368,-1.2695 0.4672,-2.1133 0.064,-0.2328 0.1779,-0.728 0.2543,-1.1005 0.076,-0.3724 0.1931,-0.8486 0.2592,-1.0581 0.066,-0.2095 0.1203,-0.471 0.1202,-0.5811 -3e-4,-0.1102 0.055,-0.3768 0.1224,-0.5926 0.2158,-0.6883 0.3849,-1.4398 0.3849,-1.7087 0,-0.1434 0.044,-0.3439 0.099,-0.4455 0.095,-0.1775 0.2361,-0.7691 0.4158,-1.7433 0.046,-0.2518 0.1074,-0.4953 0.1359,-0.5411 0.1176,-0.1903 0.2469,-1.2442 0.163,-1.3281 -0.063,-0.063 -0.3834,-0.09 -0.7012,-0.085 z m 6.7546,0 c -0.6319,0 -1.2612,0.015 -1.3227,0.06 -0.047,0.034 -0.3454,0.5956 -0.6635,1.2474 -0.3181,0.6518 -0.6105,1.2422 -0.6499,1.312 -0.06,0.1073 -1.0628,2.1168 -2.3217,4.6558 -0.3144,0.6343 -0.3993,0.8007 -0.5507,1.0793 -0.044,0.082 -0.1635,0.3195 -0.265,0.529 -0.1015,0.2096 -0.4271,0.8694 -0.7236,1.4666 -0.5712,1.1502 -0.5977,1.2345 -0.4377,1.3945 h 2e-4 c 0.056,0.056 0.3256,0.1017 0.6011,0.1017 0.4552,0 0.5249,-0.026 0.7872,-0.2879 0.1583,-0.1582 0.2878,-0.3656 0.2878,-0.4606 0,-0.095 0.035,-0.1943 0.077,-0.2205 0.066,-0.041 0.2574,-0.4091 0.4645,-0.8933 0.029,-0.07 0.1783,-0.3555 0.3298,-0.6349 l 0.2754,-0.5079 h 2.0718 2.0718 l 0.021,1.3544 c 0.025,1.5902 0.055,1.6507 0.8181,1.6507 0.8038,0 0.7411,0.565 0.6605,-5.9536 -0.06,-4.8529 -0.09,-5.7524 -0.1932,-5.8177 -0.072,-0.046 -0.707,-0.072 -1.3389,-0.075 z m -26.1075,0.038 -0.1544,0.4655 c -0.085,0.2561 -0.1567,0.5658 -0.1567,0.6881 0,0.1224 -0.059,0.3594 -0.1295,0.5265 -0.07,0.1671 -0.1266,0.4096 -0.1264,0.5391 2e-4,0.1296 -0.055,0.4072 -0.1239,0.6167 -0.068,0.2095 -0.1847,0.6854 -0.2589,1.0579 -0.075,0.3725 -0.1927,0.8795 -0.2632,1.1266 -0.07,0.2472 -0.1605,0.6281 -0.2002,0.8465 -0.1058,0.5825 -0.5016,2.3624 -0.6344,2.852 -0.1778,0.6561 -0.3128,1.2338 -0.3857,1.6507 -0.037,0.2095 -0.108,0.4883 -0.1586,0.6193 -0.1343,0.3482 -0.1125,0.63 0.056,0.7283 0.1911,0.1113 6.1534,0.1228 6.36,0.012 0.1787,-0.096 0.4817,-0.9417 0.407,-1.1364 -0.048,-0.1242 -0.3158,-0.1387 -2.561,-0.1387 h -2.5077 l 0.055,-0.4444 c 0.031,-0.2444 0.1252,-0.692 0.2103,-0.9946 0.085,-0.3026 0.2016,-0.7788 0.2588,-1.0581 0.057,-0.2794 0.1616,-0.727 0.2319,-0.9947 l 0.128,-0.4867 h 1.8406 c 1.0123,0 1.9561,-0.023 2.0972,-0.051 0.2064,-0.041 0.2837,-0.123 0.397,-0.4196 0.077,-0.2026 0.1287,-0.4938 0.1139,-0.6471 l -0.027,-0.2788 -2.0316,-0.042 c -1.27,-0.026 -2.0315,-0.074 -2.0313,-0.1269 0,-0.1388 0.2128,-1.1533 0.3366,-1.6083 0.1723,-0.634 0.3163,-1.2389 0.3626,-1.5237 0.077,-0.4768 0.013,-0.4656 2.6998,-0.4656 h 2.4899 l 0.1704,-0.3977 c 0.094,-0.2186 0.1592,-0.5136 0.1451,-0.6558 l -0.025,-0.2586 h -3.292 z m 10.3773,1.3178 c 0.2479,-0.01 0.575,0 1.0099,0.015 1.6042,0.045 1.671,0.062 2.1998,0.5535 0.1688,0.1569 0.2666,0.379 0.368,0.8351 0.1277,0.5721 0.1277,0.6946 0,1.5472 -0.075,0.5092 -0.1354,1.0975 -0.1354,1.3074 0,0.2099 -0.031,0.4007 -0.068,0.4237 -0.037,0.023 -0.1558,0.3398 -0.2631,0.7035 -0.1074,0.3637 -0.248,0.7625 -0.3129,0.8861 -0.065,0.1235 -0.1176,0.2707 -0.1176,0.3273 0,0.1938 -0.5899,1.074 -0.9975,1.4883 -0.4416,0.4489 -0.8946,0.7021 -1.6342,0.9138 -0.3258,0.093 -0.8197,0.1356 -1.5871,0.1356 h -1.1142 v -0.3441 c 0,-0.1891 0.053,-0.5224 0.1165,-0.7407 0.2194,-0.7469 0.3913,-1.5248 0.3913,-1.7692 0,-0.1344 0.036,-0.2805 0.081,-0.3247 0.044,-0.044 0.1155,-0.29 0.1587,-0.5461 0.084,-0.4992 0.2118,-1.0524 0.4034,-1.7428 0.066,-0.2368 0.1196,-0.531 0.1196,-0.654 0,-0.123 0.055,-0.3674 0.1234,-0.543 0.1242,-0.3215 0.2474,-0.8692 0.3831,-1.7024 0.098,-0.5986 0.1293,-0.7511 0.8733,-0.7694 z m -18.3464,0.037 h 1.5224 c 1.7465,0 1.9007,0.052 2.2303,0.6732 0.1605,0.2999 0.187,0.4597 0.1572,0.9014 -0.1244,1.8499 -0.8495,3.0826 -2.004,3.4065 v 2e-4 c -0.3463,0.097 -0.8474,0.1355 -1.7687,0.1355 h -1.2853 v -0.2435 c 0,-0.134 0.057,-0.3805 0.127,-0.5476 0.07,-0.1671 0.127,-0.3989 0.127,-0.5151 0,-0.1163 0.051,-0.3747 0.1138,-0.5742 0.063,-0.1995 0.18,-0.6675 0.2612,-1.04 0.081,-0.3724 0.1845,-0.8295 0.2299,-1.0158 0.045,-0.1862 0.1291,-0.529 0.1859,-0.7618 z m 33.7397,0.058 c 0.2081,0.01 0.2338,0.9394 0.3074,2.9017 0.06,1.5814 0.089,2.9243 0.066,2.9841 -0.032,0.083 -0.4266,0.1089 -1.69,0.1089 -0.9066,0 -1.6662,-0.029 -1.6879,-0.064 -0.036,-0.058 0.2748,-0.7202 1.163,-2.4751 0.1767,-0.3492 0.3546,-0.6922 0.3954,-0.7621 0.041,-0.07 0.1537,-0.2983 0.2506,-0.5079 0.6653,-1.4373 1.0059,-2.1934 1.1954,-2.1853 z m -57.4321,7.2724 h -0.01 z" /><path
         id="path65-2"
         style="fill:#00adeb;fill-opacity:1;stroke-width:0.288045"
         d="m -2469.1664,1318.9479 c -1.3197,0 -2.6446,0.1535 -3.2213,0.4542 -0.1209,0.063 -0.3,0.1149 -0.3977,0.1152 -0.1481,0 -0.7652,0.3063 -1.2323,0.6109 -0.063,0.041 -0.2577,0.1461 -0.4333,0.2335 -0.5481,0.2732 -1.8704,1.5994 -2.4901,2.4976 -0.7184,1.0412 -1.5034,2.661 -1.6128,3.327 -0.028,0.1677 -0.081,0.3431 -0.1203,0.3898 -0.038,0.047 -0.1218,0.5097 -0.1849,1.0289 -0.063,0.5191 -0.131,0.9881 -0.1505,1.0423 -0.034,0.094 0.1451,1.9219 0.2389,2.4364 0.025,0.1367 0.073,0.2659 0.1085,0.2875 0.035,0.021 0.086,0.2013 0.1149,0.3994 0.029,0.1981 0.1181,0.5145 0.1991,0.7032 0.081,0.1886 0.1766,0.4115 0.2126,0.4953 0.2661,0.6202 0.5852,1.2556 0.7268,1.4481 0.093,0.1257 0.1915,0.3012 0.2195,0.39 0.028,0.089 0.1186,0.2228 0.2013,0.2976 0.083,0.075 0.1505,0.1771 0.1505,0.2271 0,0.088 0.6636,0.887 1.2696,1.5296 0.4838,0.5129 1.6982,1.4564 2.1088,1.6384 0.091,0.04 0.3369,0.1746 0.5465,0.2983 0.2097,0.1236 0.4326,0.227 0.4954,0.227 0.063,0 0.2516,0.069 0.4192,0.151 0.4021,0.1962 1.0424,0.3863 1.3099,0.3863 0.1178,0 0.4201,0.07 0.6716,0.1541 v 10e-5 c 0.3967,0.1326 0.5935,0.1478 1.4861,0.1149 0.5987,-0.022 1.1854,-0.087 1.4031,-0.154 0.2057,-0.064 0.4898,-0.1161 0.6312,-0.1161 0.2501,0 0.9715,-0.2076 1.4334,-0.4124 0.1258,-0.056 0.4168,-0.1616 0.6469,-0.2351 0.3625,-0.116 0.673,-0.272 1.3346,-0.6706 0.084,-0.051 0.3582,-0.2341 0.6097,-0.408 0.7314,-0.5058 2.0958,-1.9967 2.0958,-2.2901 0,-0.046 0.05,-0.1018 0.1103,-0.1252 0.1173,-0.045 0.728,-1.2769 0.728,-1.4685 0,-0.062 0.048,-0.2061 0.1063,-0.3193 0.1673,-0.3241 0.3219,-1.3717 0.225,-1.5253 -0.1864,-0.2957 -0.3589,-0.1498 -0.7347,0.6213 -0.5444,1.1174 -0.9619,1.4527 -0.6203,0.4982 0.065,-0.1834 0.1511,-0.6594 0.19,-1.0576 0.039,-0.3982 0.1024,-0.9298 0.141,-1.1813 0.038,-0.2515 0.073,-0.8613 0.077,-1.3551 0.01,-0.734 -0.015,-0.9059 -0.1085,-0.942 -0.1642,-0.063 -0.4838,0.1697 -0.5399,0.393 -0.026,0.1044 -0.1126,0.317 -0.1918,0.4725 -0.079,0.1554 -0.1442,0.3398 -0.1442,0.4096 0,0.07 -0.052,0.1696 -0.1143,0.2218 -0.063,0.052 -0.1168,0.1336 -0.1168,0.1809 0,0.047 -0.069,0.223 -0.1499,0.3907 -0.081,0.1677 -0.1497,0.3491 -0.1497,0.4032 -0.01,0.054 -0.066,0.1913 -0.1442,0.3049 -0.078,0.1135 -0.2001,0.303 -0.2718,0.4209 -0.1086,0.1788 -0.1658,0.2068 -0.3444,0.1676 -0.1964,-0.043 -0.2439,0 -0.5764,0.4714 -0.3955,0.5659 -1.3384,1.5201 -1.7586,1.7797 -0.1456,0.09 -0.3066,0.2051 -0.3578,0.2559 -0.1573,0.1558 -1.2184,0.6289 -1.5414,0.6873 -0.1676,0.03 -0.3905,0.1125 -0.4954,0.1827 -0.1596,0.1071 -0.4005,0.1277 -1.4861,0.1277 -1.2704,0 -1.3037,0 -1.7148,-0.2144 -0.5234,-0.2679 -0.7176,-0.3785 -0.8492,-0.4841 -0.057,-0.046 -0.1853,-0.1082 -0.2853,-0.1389 -0.1602,-0.049 -0.3399,-0.1695 -1.0588,-0.7088 -0.096,-0.072 -0.3186,-0.2821 -0.4956,-0.4676 -0.1768,-0.1854 -0.385,-0.4033 -0.4627,-0.4842 -0.2275,-0.2368 -0.7352,-0.9867 -0.7352,-1.086 0,-0.05 -0.102,-0.3162 -0.2269,-0.5914 -0.1247,-0.2751 -0.2476,-0.6486 -0.2729,-0.8298 -0.025,-0.1813 -0.099,-0.5576 -0.1627,-0.8363 -0.077,-0.3358 -0.1031,-0.7085 -0.077,-1.105 0.043,-0.6513 0.2374,-1.669 0.3459,-1.8074 0.037,-0.048 0.092,-0.1883 0.122,-0.3126 0.068,-0.2856 0.3349,-0.8813 0.4612,-1.0315 0.053,-0.063 0.1395,-0.2515 0.1924,-0.4192 0.1036,-0.3276 0.6259,-1.0464 1.0779,-1.4836 0.1531,-0.1481 0.5646,-0.4208 0.9145,-0.6063 0.3498,-0.1854 0.7217,-0.3823 0.8266,-0.4377 0.1047,-0.055 0.2523,-0.101 0.3277,-0.1013 0.075,-2e-4 0.2383,-0.053 0.362,-0.1167 0.5208,-0.2691 2.9534,-0.2783 3.4774,-0.013 0.1182,0.06 0.3432,0.1322 0.4999,0.1605 0.1565,0.028 0.5276,0.1959 0.8244,0.3723 0.2969,0.1763 0.6316,0.3681 0.7441,0.4263 0.3327,0.1721 1.6396,1.5365 1.9064,1.9901 0.1355,0.2306 0.2772,0.4706 0.3148,0.5335 0.1547,0.2589 0.3661,0.824 0.442,1.1813 0.092,0.4309 0.3331,1.1412 0.416,1.2238 0.077,0.076 0.2117,-0.3074 0.2117,-0.6022 0,-0.1347 -0.046,-0.3124 -0.103,-0.3951 -0.057,-0.083 -0.125,-0.3184 -0.1524,-0.5238 -0.028,-0.2053 -0.091,-0.4236 -0.1423,-0.4851 -0.129,-0.1554 -0.2904,-0.6028 -0.3605,-0.9997 -0.032,-0.1837 -0.1152,-0.3655 -0.1838,-0.404 -0.069,-0.038 -0.1249,-0.1194 -0.1249,-0.1801 0,-0.132 -1.0058,-1.2078 -1.3426,-1.4359 -0.1307,-0.089 -0.4443,-0.3026 -0.6967,-0.4757 -0.4366,-0.2995 -1.5506,-0.8727 -1.8938,-0.9746 -0.1209,-0.036 -0.1519,-0.093 -0.1253,-0.2316 0.037,-0.1942 0.044,-0.1914 -0.7049,-0.295 -0.1257,-0.017 -0.4515,-0.092 -0.7239,-0.1656 -0.4046,-0.1092 -0.6562,-0.1242 -1.3719,-0.082 -0.7203,0.043 -0.8588,0.034 -0.7776,-0.047 0.07,-0.07 0.4755,-0.1119 1.3718,-0.142 0.8207,-0.028 1.3581,-0.08 1.5124,-0.1469 0.2081,-0.091 0.283,-0.088 0.5741,0.024 0.1842,0.07 0.3958,0.1279 0.4704,0.1279 0.1867,0 1.3378,0.5254 1.917,0.8749 0.1677,0.1012 0.4763,0.2679 0.6859,0.3707 0.492,0.2411 1.0277,0.6963 1.4738,1.2524 0.1954,0.2435 0.3996,0.4926 0.4538,0.5537 0.054,0.061 0.2589,0.3854 0.4548,0.7208 0.1958,0.3353 0.4002,0.655 0.454,0.7104 0.054,0.055 0.098,0.1506 0.098,0.2115 0,0.1164 0.3499,0.2877 0.455,0.2227 0.064,-0.04 -0.072,-0.5029 -0.2773,-0.9473 -0.066,-0.143 -0.1171,-0.4152 -0.1134,-0.6048 0.011,-0.551 -0.1813,-0.8062 -1.9315,-2.5614 -1.1854,-1.1888 -1.2596,-1.2513 -1.7338,-1.4618 -0.1572,-0.07 -0.2858,-0.1561 -0.2858,-0.1916 0,-0.036 -0.052,-0.065 -0.1173,-0.065 -0.065,0 -0.2519,-0.068 -0.4162,-0.1523 -0.1644,-0.084 -0.3601,-0.1528 -0.4351,-0.153 -0.075,-3e-4 -0.2394,-0.056 -0.3652,-0.1237 -0.555,-0.2993 -1.8694,-0.4474 -3.1891,-0.4457 z m 32.2142,10.7822 c -0.1652,0 -1.0361,0.277 -1.3471,0.4284 -0.1187,0.058 -0.2743,0.1051 -0.3459,0.1051 -0.072,0 -0.2647,0.069 -0.4292,0.1525 -0.1644,0.084 -0.3903,0.1524 -0.5019,0.1524 -0.1117,0 -0.3487,0.052 -0.527,0.1143 -0.1782,0.063 -0.4545,0.1143 -0.6142,0.1143 -0.2913,0 -0.6818,0.1128 -0.756,0.2184 -0.022,0.031 -0.1941,0.094 -0.3827,0.1396 -0.3811,0.092 -0.7601,0.2194 -1.105,0.3705 -0.1257,0.055 -0.3486,0.1233 -0.4953,0.1518 -0.1467,0.029 -0.3525,0.096 -0.4574,0.1489 -0.1048,0.053 -0.362,0.1318 -0.5716,0.1743 -0.652,0.132 -1.3584,0.3226 -1.4431,0.3894 -0.045,0.035 -0.2183,0.089 -0.3859,0.1188 -0.1678,0.03 -0.3392,0.083 -0.3811,0.1164 -0.042,0.034 -0.3507,0.1543 -0.6859,0.2677 -0.3354,0.1135 -0.6788,0.2498 -0.7632,0.3028 -0.085,0.053 -0.2721,0.1224 -0.4168,0.1542 -0.1447,0.032 -0.3156,0.085 -0.3799,0.1195 -0.3422,0.1811 -0.9979,0.4524 -1.0934,0.4524 -0.06,0 -0.1526,0.051 -0.2047,0.1143 -0.052,0.063 -0.1291,0.1143 -0.1711,0.1143 -0.138,0 -1.1245,0.4082 -1.1245,0.4653 0,0.031 -0.1115,0.08 -0.2476,0.109 -0.1364,0.029 -0.3336,0.095 -0.4383,0.1469 -0.1048,0.052 -0.3105,0.1476 -0.4573,0.2132 -0.1466,0.066 -0.4616,0.208 -0.7002,0.3164 -0.2384,0.1085 -0.4529,0.1972 -0.4762,0.1972 -0.042,0 -0.7759,0.3238 -1.3767,0.6074 -1.5092,0.7122 -2.1066,0.9957 -2.8961,1.374 -0.5029,0.2411 -0.9915,0.4621 -1.0859,0.4911 -0.094,0.029 -0.1715,0.085 -0.1715,0.1238 0,0.039 -0.043,0.072 -0.095,0.072 -0.088,0 -1.2467,0.5238 -1.5052,0.6798 -0.063,0.038 -0.7145,0.3709 -1.448,0.7397 -0.7336,0.3687 -1.379,0.7145 -1.4343,0.7683 -0.055,0.054 -0.1483,0.098 -0.2064,0.098 -0.058,0 -0.2792,0.1023 -0.4914,0.2275 -0.2124,0.1251 -0.4714,0.249 -0.5757,0.2752 -0.1043,0.026 -0.2065,0.075 -0.227,0.108 -0.02,0.033 -0.6632,0.3741 -1.4282,0.7576 -0.765,0.3835 -1.4424,0.7268 -1.5053,0.7628 -0.063,0.036 -0.4402,0.2247 -0.8384,0.4192 -0.3982,0.1944 -0.7754,0.3839 -0.8383,0.4211 -0.063,0.037 -0.3029,0.1583 -0.5335,0.2694 -0.2305,0.1111 -0.5563,0.2823 -0.724,0.3803 -0.1676,0.098 -0.4812,0.2674 -0.6971,0.3763 -0.2158,0.1089 -0.4343,0.2485 -0.4857,0.3104 -0.051,0.062 -0.14,0.1125 -0.1969,0.1125 -0.057,0 -0.2842,0.1129 -0.505,0.251 -0.2209,0.138 -0.4873,0.2929 -0.5922,0.3444 -0.3255,0.16 -1.0211,0.5745 -1.3992,0.8336 -0.1987,0.1362 -0.3731,0.2477 -0.3871,0.2477 -0.014,0 -0.3983,0.2445 -0.8535,0.5436 -0.4553,0.299 -1.0336,0.6762 -1.285,0.838 -0.2515,0.1619 -0.5071,0.3364 -0.5677,0.3879 -0.061,0.052 -0.2028,0.1459 -0.3159,0.2099 -1.6971,0.9594 -4.4065,3.1201 -5.0092,3.9947 -0.3043,0.4416 -0.4812,0.8067 -0.4307,0.8885 0.071,0.1146 0.358,0.075 0.6075,-0.084 0.1258,-0.08 0.3006,-0.1777 0.3884,-0.2167 0.088,-0.039 0.2078,-0.117 0.2667,-0.1734 0.1391,-0.1332 0.5348,-0.3083 0.5845,-0.2586 0.1068,0.1069 -0.8393,1.1072 -2.5923,2.7407 -1.0024,0.9338 -1.183,1.1815 -0.9972,1.3673 0.028,0.028 0.088,0.051 0.1335,0.051 0.085,0 0.7834,-0.2545 1.0174,-0.3708 0.072,-0.036 0.7151,-0.3481 1.4276,-0.6935 0.7127,-0.3454 1.4288,-0.7325 1.5915,-0.8604 0.2817,-0.2214 0.3049,-0.2268 0.492,-0.1132 0.1865,0.113 0.2207,0.1061 0.6731,-0.1382 0.2621,-0.1415 0.6579,-0.3851 0.8797,-0.5412 1.4543,-1.0241 2.7013,-1.8553 2.7835,-1.8553 0.04,0 0.1348,-0.069 0.2107,-0.1524 0.076,-0.084 0.1724,-0.1524 0.2144,-0.1524 0.042,0 0.4345,-0.2095 0.8722,-0.4653 0.4378,-0.2559 0.9297,-0.5366 1.0932,-0.6239 0.1634,-0.087 0.297,-0.1864 0.297,-0.2206 0,-0.034 0.04,-0.062 0.089,-0.062 0.082,0 1.2743,-0.6651 1.3595,-0.7585 0.021,-0.023 0.2267,-0.1419 0.4573,-0.2644 0.2305,-0.1224 0.4362,-0.2432 0.4572,-0.2682 0.021,-0.025 0.1239,-0.088 0.2287,-0.1396 0.3725,-0.1837 1.03,-0.5706 1.2098,-0.712 0.1005,-0.079 0.2129,-0.1436 0.25,-0.1436 0.038,0 0.2125,-0.093 0.3898,-0.2068 0.1773,-0.1136 0.4154,-0.2594 0.529,-0.3239 0.4894,-0.2777 1.092,-0.644 1.1271,-0.6853 0.021,-0.024 0.1238,-0.086 0.2287,-0.1365 0.1048,-0.05 0.4306,-0.2283 0.7239,-0.3949 0.2936,-0.1666 0.705,-0.3901 0.9146,-0.4966 0.2096,-0.1064 0.7926,-0.4144 1.2956,-0.6842 0.503,-0.2699 1.2576,-0.665 1.6767,-0.8781 0.4192,-0.213 0.8478,-0.434 0.9527,-0.4911 0.3681,-0.2004 1.6932,-0.8856 3.8486,-1.99 1.4896,-0.7632 1.71,-0.8771 1.8672,-0.9653 0.063,-0.035 0.3544,-0.1845 0.6478,-0.3318 0.2934,-0.1472 0.585,-0.2961 0.6478,-0.3308 0.2466,-0.1365 0.5241,-0.28 1.2242,-0.6334 0.4008,-0.2024 0.8273,-0.471 0.9479,-0.5968 0.1205,-0.1258 0.2794,-0.2286 0.3529,-0.2286 0.1402,0 0.6422,-0.2685 0.8148,-0.4358 0.055,-0.054 0.1454,-0.098 0.2002,-0.098 0.055,0 0.1406,-0.049 0.1907,-0.1097 0.05,-0.06 0.3028,-0.2148 0.5617,-0.3433 0.259,-0.1284 0.6767,-0.34 0.9282,-0.4702 0.2514,-0.1302 0.5772,-0.2889 0.724,-0.3529 0.1466,-0.064 0.4039,-0.1773 0.5716,-0.2518 0.9684,-0.43 1.5869,-0.6823 1.6727,-0.6823 0.054,0 0.1849,-0.069 0.2915,-0.1524 0.1066,-0.084 0.2473,-0.1524 0.3126,-0.1524 0.1136,0 0.33,-0.083 1.0003,-0.3817 0.3435,-0.1532 0.9001,-0.3779 1.4099,-0.569 0.1886,-0.071 0.4801,-0.1945 0.6478,-0.2751 0.1677,-0.081 0.3556,-0.1465 0.4177,-0.1463 0.1254,2e-4 0.8424,-0.2653 1.1564,-0.4283 0.1112,-0.058 0.2587,-0.1049 0.3277,-0.1049 0.069,0 0.2351,-0.057 0.3693,-0.1264 0.1342,-0.07 0.3468,-0.1535 0.4726,-0.1864 0.4647,-0.1216 0.9942,-0.3231 1.1111,-0.4229 0.066,-0.056 0.1862,-0.1026 0.2667,-0.1026 0.1712,0 1.046,-0.2813 1.3394,-0.4307 0.1112,-0.057 0.2669,-0.1028 0.346,-0.1028 0.078,0 0.278,-0.069 0.4425,-0.1525 0.1644,-0.084 0.3493,-0.1524 0.4108,-0.1524 0.1572,0 1.0689,-0.2918 1.3344,-0.427 0.1216,-0.062 0.3699,-0.1329 0.5518,-0.158 0.182,-0.025 0.3694,-0.092 0.4169,-0.1493 0.047,-0.057 0.1942,-0.104 0.3259,-0.104 0.1317,0 0.3675,-0.069 0.524,-0.1524 0.1564,-0.084 0.3873,-0.1525 0.5132,-0.1525 0.1259,0 0.2929,-0.064 0.3709,-0.142 0.078,-0.078 0.2655,-0.1652 0.4165,-0.1935 0.3598,-0.068 0.4155,-0.1729 0.125,-0.2367 -0.1567,-0.034 -0.2926,-0.012 -0.4171,0.07 -0.1042,0.068 -0.3448,0.1212 -0.5516,0.1212 -0.2017,0 -0.4386,0.05 -0.5265,0.1118 -0.088,0.062 -0.3098,0.1347 -0.4933,0.1627 -0.1834,0.028 -0.4193,0.097 -0.524,0.1531 -0.1049,0.056 -0.4477,0.1351 -0.7621,0.1751 -0.7271,0.092 -1.2023,0.1971 -1.5312,0.3371 -0.1428,0.061 -0.5171,0.1875 -0.8314,0.2814 -0.3144,0.094 -0.6402,0.2119 -0.7241,0.2626 -0.084,0.051 -0.2724,0.1148 -0.4191,0.1427 -0.1467,0.028 -0.3696,0.099 -0.4954,0.1572 -0.1258,0.059 -0.4858,0.1805 -0.8003,0.2711 -0.3143,0.091 -0.6744,0.2119 -0.8001,0.2695 -0.1258,0.058 -0.3487,0.1278 -0.4955,0.1557 -0.3049,0.058 -1.1068,0.3095 -1.3336,0.4178 -0.084,0.04 -0.4269,0.1231 -0.7622,0.1845 -0.8415,0.154 -1.3578,0.2778 -1.448,0.3472 -0.042,0.032 -0.1962,0.084 -0.343,0.1144 -0.1466,0.031 -0.3524,0.1006 -0.4573,0.1555 -0.1047,0.055 -0.4648,0.1938 -0.8001,0.3084 -0.3353,0.1147 -0.6423,0.2373 -0.682,0.2724 -0.04,0.035 -0.1347,0.064 -0.2107,0.064 -0.1426,0 -0.4453,0.1448 -0.5234,0.2504 -0.066,0.09 -0.6035,0.1613 -0.6035,0.08 0,-0.039 0.1542,-0.1117 0.3429,-0.1621 0.1886,-0.051 0.343,-0.1262 0.343,-0.1682 0,-0.042 0.06,-0.079 0.1334,-0.079 0.073,0 0.1999,-0.053 0.2813,-0.1144 0.081,-0.061 0.2053,-0.1117 0.2755,-0.1117 0.07,0 0.2148,-0.069 0.3214,-0.1525 0.1066,-0.084 0.2494,-0.1524 0.3174,-0.1524 0.068,0 0.371,-0.1162 0.6737,-0.2582 0.3027,-0.142 0.6274,-0.2814 0.7214,-0.3099 0.094,-0.028 0.2153,-0.092 0.2694,-0.1419 0.054,-0.05 0.2003,-0.1429 0.3246,-0.2072 0.1242,-0.064 0.2361,-0.1893 0.2491,-0.2779 0.017,-0.1152 0.093,-0.1721 0.2667,-0.1995 0.1339,-0.021 0.4835,-0.1302 0.7769,-0.2425 0.2934,-0.1123 0.6706,-0.2377 0.8383,-0.2786 0.1678,-0.041 0.3735,-0.1189 0.4573,-0.1733 0.084,-0.054 0.2553,-0.1182 0.3811,-0.1418 0.2841,-0.053 0.9154,-0.2597 1.2193,-0.3986 0.1258,-0.057 0.3359,-0.1255 0.4668,-0.1514 0.131,-0.026 0.3162,-0.13 0.4114,-0.2315 0.095,-0.1014 0.3568,-0.2377 0.5812,-0.3029 0.2243,-0.065 0.4078,-0.152 0.4078,-0.1928 0,-0.041 0.094,-0.076 0.2096,-0.076 0.1152,0 0.3591,-0.07 0.5418,-0.1525 0.1827,-0.083 0.3895,-0.1507 0.4594,-0.1507 0.07,0 0.1965,-0.049 0.2813,-0.1081 0.085,-0.059 0.2897,-0.1322 0.4551,-0.1618 0.1656,-0.03 0.3697,-0.1155 0.4535,-0.1908 0.084,-0.075 0.2553,-0.1481 0.3811,-0.1619 0.1412,-0.015 0.2286,-0.069 0.2286,-0.1395 0,-0.1512 -0.4627,-0.1958 -0.7022,-0.068 -0.1516,0.081 -0.2155,0.076 -0.3987,-0.032 -0.12,-0.071 -0.2815,-0.1289 -0.3589,-0.1289 z m 2.2249,28.2045 c -0.024,0.1469 -0.016,0.2343 -0.01,0.2422 10e-5,10e-5 0,3e-4 0,0 10e-5,10e-5 0,10e-5 0,2e-4 v 0 h 10e-5 2e-4 1e-4 c 2e-4,-10e-5 0,-10e-5 0,-2e-4 h 2e-4 l 10e-5,-10e-5 c 0.01,-0.01 0.018,-0.082 0.01,-0.2424 z" /><path
         style="fill:#f18d5a;fill-opacity:1;stroke-width:0.589565"
         d="m -2494.1205,1383.2263 c 0.1715,-0.3151 2.8078,-2.7848 5.8341,-5.4655 1.8284,-1.6196 4.3825,-4.0161 4.93,-4.6259 0.6059,-0.6748 -0.086,-0.2978 -2.2493,1.2267 -1.2197,0.8594 -2.2566,1.5228 -2.3047,1.4743 -0.2059,-0.2088 4.1166,-4.082 6.6182,-5.9304 2.249,-1.6615 6.0524,-4.145 9.0093,-5.8827 3.7295,-2.1918 5.076,-2.9099 9.5497,-5.0924 2.3275,-1.1355 3.5656,-1.8172 3.3719,-1.8566 -0.8191,-0.1667 -5.8479,0.7074 -10.235,1.7791 -3.1229,0.7628 -4.9345,1.3276 -7.8159,2.4368 -1.9138,0.7367 -2.8621,0.8197 -3.5649,0.3122 -0.8258,-0.5966 -1.2087,-2.0352 -0.7662,-2.8803 0.4699,-0.8974 1.3667,-1.5095 7.7376,-5.2803 0.603,-0.3569 1.9256,-1.145 2.9395,-1.7514 1.0138,-0.6064 1.8712,-1.1023 1.9054,-1.1021 0.034,2e-4 0.5985,-0.3119 1.2542,-0.6936 0.6556,-0.3816 1.2265,-0.6937 1.2684,-0.6934 0.042,3e-4 0.3397,-0.1616 0.661,-0.3599 0.3213,-0.1982 1.1479,-0.6602 1.8367,-1.0266 0.6889,-0.3665 2.1684,-1.164 3.2877,-1.7722 1.8486,-1.0043 3.0754,-1.6431 8.0136,-4.1728 0.8774,-0.4494 3.0954,-1.4516 4.9288,-2.2269 3.156,-1.3347 5.3712,-2.2833 6.7753,-2.9013 0.3442,-0.1515 1.1537,-0.5004 1.7991,-0.7753 0.6453,-0.2749 1.5253,-0.6564 1.9555,-0.848 0.7587,-0.3376 1.9232,-0.7781 4.8481,-1.834 0.774,-0.2794 1.9015,-0.6864 2.5054,-0.9044 0.6038,-0.218 1.1783,-0.3959 1.2767,-0.3952 0.098,6e-4 0.2062,-0.08 0.2399,-0.179 0.065,-0.194 0.902,-0.053 0.9008,0.1515 -6e-4,0.063 -0.2295,0.2078 -0.5092,0.3213 -0.2796,0.1135 -0.7197,0.2968 -0.9776,0.4074 -0.2582,0.1105 -1.4548,0.5951 -2.6593,1.077 -1.2042,0.4818 -2.366,0.9937 -2.5814,1.1376 -0.2154,0.1438 -0.8493,0.4574 -1.4085,0.6968 -0.5593,0.2394 -1.4745,0.6401 -2.0341,0.8905 -0.5592,0.2503 -2.8123,1.2471 -5.0066,2.2151 -2.1942,0.968 -4.2185,1.8626 -4.4981,1.988 -0.2797,0.1254 -0.509,0.3025 -0.5095,0.3934 -7e-4,0.091 -0.1063,0.1243 -0.2345,0.074 -0.1283,-0.05 -0.2382,-0.01 -0.2442,0.099 -0.01,0.1045 -1.4914,0.9171 -3.301,1.8058 -4.1633,2.0444 -8.8815,4.6525 -8.594,4.7504 0.1206,0.041 3.2874,-1.4153 7.0369,-3.2365 3.7495,-1.8212 7.2394,-3.4511 7.7554,-3.6221 0.516,-0.1708 2.1701,-0.8429 3.6758,-1.4934 1.5059,-0.6506 3.5827,-1.5282 4.615,-1.9504 1.0324,-0.4221 2.1586,-0.8917 2.5029,-1.0435 3.9857,-1.758 10.5601,-4.1633 11.8934,-4.3514 0.3387,-0.048 0.5103,-0.046 0.3812,0 -0.1292,0.05 -0.5331,0.2229 -0.8978,0.3843 -0.3648,0.1613 -0.7352,0.2928 -0.8231,0.2922 -0.088,-6e-4 -0.2821,0.064 -0.4317,0.1448 -0.1494,0.08 -0.7644,0.3254 -1.3663,0.545 -0.6022,0.2195 -1.2355,0.4565 -1.4076,0.5266 -0.1721,0.07 -0.8055,0.3201 -1.4077,0.5555 -0.6022,0.2353 -1.4468,0.5819 -1.877,0.7702 -0.4303,0.1882 -1.6621,0.7012 -2.7376,1.14 -1.0753,0.4388 -2.2426,0.9256 -2.5937,1.0818 -0.351,0.1561 -0.9846,0.4192 -1.408,0.5846 -0.423,0.1655 -1.6846,0.7273 -2.8035,1.2486 -1.1189,0.5212 -2.5976,1.1999 -3.286,1.5083 -1.7284,0.7742 -11.9312,5.7945 -14.3206,7.0465 -5.2971,2.7753 -9.5218,5.2128 -11.2586,6.4959 -0.7987,0.5901 -0.6792,0.6158 0.9181,0.1976 4.5014,-1.1785 11.8094,-1.9743 19.6693,-2.1418 3.9641,-0.085 4.4158,7e-4 4.9816,0.9432 0.3713,0.6184 0.3905,1.078 0.07,1.6865 -0.4266,0.8116 -1.1598,1.1922 -3.682,1.911 -2.965,0.845 -4.5773,1.4109 -6.7984,2.3859 -0.3442,0.1511 -1.2419,0.5236 -1.9948,0.8278 -5.7766,2.3336 -19.9751,10.3487 -25.7782,14.552 -0.6361,0.4607 -1.3124,0.8537 -1.5026,0.8733 -0.4418,0.045 -1.0369,0.4503 -5.8024,3.947 -4.8658,3.5703 -5.4915,3.9973 -5.2754,3.6002 z"
         id="path68-6" /></g></g><style
     id="style1">@media(prefers-color-scheme:dark){.lines{fill:#d7d7d7}}</style></svg>
