<?xml version="1.0" encoding="UTF-8" standalone="no"?>
<!-- Created with Inkscape (http://www.inkscape.org/) -->

<svg
   width="101.28086mm"
   height="51.381264mm"
   viewBox="0 0 101.28086 51.381264"
   version="1.1"
   id="svg1"
   xml:space="preserve"
   inkscape:version="1.4.4 (dcaf3e7, 2026-05-05)"
   sodipodi:docname="logos teams.svg"
   inkscape:export-batch-name="logos teams"
   inkscape:export-batch-path="Desktop"
   xmlns:inkscape="http://www.inkscape.org/namespaces/inkscape"
   xmlns:sodipodi="http://sodipodi.sourceforge.net/DTD/sodipodi-0.dtd"
   xmlns="http://www.w3.org/2000/svg"
   xmlns:svg="http://www.w3.org/2000/svg"><sodipodi:namedview
     id="namedview1"
     pagecolor="#ffffff"
     bordercolor="#000000"
     borderopacity="0.25"
     inkscape:showpageshadow="2"
     inkscape:pageopacity="0.0"
     inkscape:pagecheckerboard="0"
     inkscape:deskcolor="#d1d1d1"
     inkscape:document-units="mm"
     inkscape:zoom="0.69712823"
     inkscape:cx="489.14961"
     inkscape:cy="355.02794"
     inkscape:window-width="1920"
     inkscape:window-height="1050"
     inkscape:window-x="0"
     inkscape:window-y="30"
     inkscape:window-maximized="0"
     inkscape:current-layer="layer1"><inkscape:page
       x="0"
       y="0"
       width="101.28086"
       height="51.381264"
       id="page1"
       margin="0"
       bleed="0" /></sodipodi:namedview><defs
     id="defs1" /><g
     inkscape:label="Ebene 1"
     inkscape:groupmode="layer"
     id="layer1"
     transform="translate(-1072.5839,1016.4853)"><path
       style="fill:#030303;stroke:none"
       d="m 1109.0107,-1014.8826 c 1.3292,0 2.6116,0.1932 3.8003,0.9738 1.7049,1.1194 2.6192,3.142 4.117,4.5289 2.5483,2.3595 6.2288,2.1193 8.5111,-0.6122 0.5916,-0.7081 1.4431,-1.5976 1.7022,-2.589 -0.2828,0.053 -0.4419,0.3907 -0.6334,0.6233 -0.3387,0.4117 -0.7102,0.7935 -1.1084,1.1186 -1.4416,1.1771 -3.2507,1.8791 -4.9879,1.48 -0.7314,-0.1681 -1.5107,-0.4777 -2.0584,-1.1141 -1.5566,-1.8084 -1.886,-5.3301 -4.315,-5.9221 -0.4146,-0.101 -0.885,-0.1101 -1.3064,-0.061 -0.6115,0.071 -1.2454,0.2514 -1.8209,0.5102 -0.5568,0.2504 -1.5237,0.4829 -1.9002,1.0639 m 11.4009,0.404 c -0.4619,0.076 -0.892,0.2299 -1.223,0.6528 -0.556,0.7103 -0.4535,1.9135 0.1542,2.5236 0.4501,0.4517 1.1018,0.5219 1.6626,0.4334 1.1894,-0.1877 1.8526,-1.7964 1.0164,-2.957 -0.3866,-0.5366 -1.0424,-0.7464 -1.6102,-0.6528 m -16.0721,0.292 c -0.4871,0.037 -0.9838,0.2107 -1.3285,0.6549 -0.6938,0.8939 -0.3517,2.1969 0.4972,2.7256 0.3721,0.2317 0.7758,0.2711 1.1876,0.2345 1.1056,-0.098 1.8667,-1.6091 1.223,-2.7766 -0.3326,-0.6033 -0.9987,-0.8829 -1.5793,-0.8384 m -7.0464,14.26368 h 0.04 c 0.479,-1.24268 1.2696,-2.62778 1.1411,-4.07558 -0.066,-0.7477 -0.5744,-1.3773 -1.0223,-1.8421 -1.0708,-1.1112 -2.4624,-1.651 -3.6816,-2.4731 v -0.048 c 0.3723,-0.2983 0.7002,-0.6395 1.1084,-0.8736 1.7093,-0.9806 3.6782,-1.1882 5.5421,-1.1882 0.1729,1.1781 0.8584,2.3783 1.4876,3.2604 0.3018,0.4232 0.6359,0.8405 1.0856,1.019 0.543,0.2155 1.1519,0.019 1.7022,-0.052 0.9046,-0.1174 1.9324,-0.09 2.8106,-0.3436 -0.2583,-0.365 -0.7407,-0.3616 -1.1084,-0.4354 -0.4995,-0.1002 -0.9999,-0.2173 -1.5043,-0.2757 -0.4697,-0.054 -0.9644,-0.01 -1.3855,-0.3127 -0.7964,-0.5736 -1.052,-2.3565 -1.3776,-3.3395 -0.1329,-0.4009 -0.2618,-0.8576 -0.5623,-1.1201 -0.5603,-0.4896 -1.5991,-0.2224 -2.2563,-0.2224 -1.7716,0 -3.5108,0.3468 -5.1462,1.1987 -0.8168,0.4256 -1.7124,1.2987 -1.8141,2.4453 -0.089,0.999 0.4858,1.6591 1.1411,2.1287 0.7575,0.5429 1.583,0.9859 2.3752,1.4502 0.3902,0.2287 0.9123,0.4123 1.223,0.7894 0.2961,0.3592 0.2417,0.8727 0.2417,1.3375 0,0.9921 -0.04,1.9838 -0.04,2.97273 m -2.1377,-2.63713 v -0.048 c -2.7175,-1.5393 -5.6394,-0.4237 -8.4715,-0.1875 -0.8179,0.068 -1.6398,0.1674 -2.4544,-0.017 -0.417,-0.094 -0.8229,-0.2732 -1.1876,-0.5366 -1.4632,-1.0572 -1.5029,-3.2041 -0.5921,-4.7731 0.472,-0.8129 1.2006,-1.3337 1.8589,-1.8975 0.2377,-0.2036 0.5261,-0.3703 0.7126,-0.6437 -1.5286,0.3488 -2.9829,0.9031 -4.0261,2.3974 -1.1099,1.5898 -1.4493,4.0512 -0.089,5.6017 0.4483,0.5111 1.0013,0.8496 1.5819,1.0788 1.9458,0.7682 4.0243,0.2873 5.9775,-0.1691 1.3519,-0.3158 2.7072,-0.6052 4.0775,-0.7658 0.8316,-0.098 1.7848,-0.226 2.6127,-0.04 m 20.8621,-6.2812 c -0.8071,1.2971 -1.8702,3.6171 -0.2376,4.7258 0.9913,0.6731 2.3159,0.431 3.4045,0.5566 2.16,0.2492 3.9599,1.448 5.0275,3.77972 h 0.04 c 0.043,-0.65752 0.089,-1.32232 -0.068,-1.96582 -0.6349,-2.5935 -3.0118,-3.3537 -4.9594,-3.7196 -0.7363,-0.1383 -1.7,-0.1107 -2.3354,-0.6317 -0.8454,-0.693 -0.5184,-1.7933 -0.8711,-2.745 m -31.0754,1.6985 c -0.3509,0.057 -0.6818,0.1331 -0.9897,0.3598 -0.8207,0.604 -0.8888,2.0778 -0.1582,2.8166 0.4667,0.472 1.1267,0.5327 1.7021,0.4336 0.2352,-0.04 0.4681,-0.1311 0.673,-0.2785 1.5146,-1.0898 0.2948,-3.5764 -1.2272,-3.3315 m 29.4919,0.028 c -0.8418,1.6376 -1.0782,3.8552 -2.1839,5.2724 -0.8367,1.0724 -2.2866,1.5043 -3.4374,1.8239 v 0.048 c 2.1217,0.72386 4.3389,0.14907 5.6776,-2.1097 0.2529,-0.4268 0.6092,-1.0041 0.6859,-1.5343 0.049,-0.3403 -0.4789,-0.8409 -0.6086,-1.1508 -0.1895,-0.4525 -0.2056,-0.9886 -0.1664,-1.4863 0.021,-0.2694 0.1207,-0.6071 0.033,-0.8631 m 23.1977,1.1711 c -1.95,0.3099 -3.5329,1.5964 -4.2337,3.9113 -0.6408,2.11712 -0.1734,4.79984 1.7397,5.62438 0.6128,0.26412 1.2999,0.30678 1.9398,0.21155 2.0788,-0.30941 3.8125,-2.52213 4.066,-5.02083 0.2587,-2.55 -1.2009,-5.0938 -3.5118,-4.7264 m 7.4818,0 c -0.4977,0.079 -0.9396,0.144 -1.3855,0.453 -1.0471,0.7256 -1.4785,2.4886 -0.8138,3.746 0.3059,0.5786 0.853,0.9703 1.368,1.225 0.5623,0.2781 1.7861,0.75119 1.571,1.74779 -0.301,1.3945 -2.0233,0.92789 -2.7586,0.46708 -0.2259,-0.14156 -0.6038,-0.66455 -0.8709,-0.51296 -0.2128,0.12077 -0.8689,0.78158 -0.7976,1.10072 0.071,0.31798 0.4644,0.61146 0.6788,0.78174 0.7181,0.57026 1.6309,0.89188 2.494,0.79239 0.5021,-0.0579 1.019,-0.16126 1.4647,-0.46538 0.3557,-0.24273 0.6751,-0.55746 0.9089,-0.9649 0.9409,-1.63975 0.2705,-3.35598 -1.1464,-4.10318 -0.5606,-0.2956 -1.7342,-0.6378 -1.6655,-1.6163 0.092,-1.3152 1.6579,-1.0018 2.2989,-0.6111 0.2202,0.1343 0.5341,0.5323 0.7917,0.3487 0.1334,-0.095 0.2434,-0.2565 0.3449,-0.395 0.1206,-0.1644 0.4226,-0.4334 0.4217,-0.6714 -10e-4,-0.3005 -0.4263,-0.5589 -0.6083,-0.6903 -0.6568,-0.4743 -1.5292,-0.7539 -2.296,-0.6319 m 17.616,0 c -0.4833,0.077 -0.9607,0.1431 -1.3855,0.4623 -1.6297,1.2245 -1.3405,3.8726 0.3167,4.8242 0.5968,0.3426 2.0591,0.76097 1.8395,1.88529 -0.2607,1.33445 -2.009,0.97885 -2.7104,0.50637 -0.2214,-0.14913 -0.6498,-0.68978 -0.9105,-0.55277 -0.226,0.11874 -0.8826,0.76789 -0.8051,1.10124 0.072,0.31181 0.4378,0.59317 0.6467,0.76579 0.7145,0.59033 1.6683,0.90815 2.5336,0.80834 0.5175,-0.0597 1.0007,-0.19295 1.4647,-0.48373 0.3678,-0.23049 0.6965,-0.57215 0.9224,-0.9945 0.859,-1.60654 0.2781,-3.28703 -1.1203,-4.02743 -0.5559,-0.2943 -1.7943,-0.6522 -1.7329,-1.6304 0.082,-1.3122 1.6538,-1.0182 2.2871,-0.6349 0.2093,0.1267 0.5545,0.5378 0.7917,0.3655 0.1354,-0.098 0.2456,-0.2678 0.3563,-0.4019 0.1392,-0.1686 0.4237,-0.4064 0.4237,-0.6712 0,-0.3112 -0.3949,-0.5415 -0.5821,-0.6804 -0.6621,-0.4913 -1.5583,-0.7658 -2.3356,-0.6418 m -34.9153,6.50052 c 0.885,0 1.8372,0.10459 2.6919,-0.22756 1.5825,-0.61506 3.14,-3.70586 1.6559,-5.41586 -0.741,-0.8538 -1.8685,-0.6857 -2.8039,-0.6857 h -1.346 c -0.1701,0 -0.4056,-0.051 -0.5372,0.1112 -0.2301,0.2829 -0.2471,1.0436 -0.3099,1.4231 -0.1932,1.168 -0.3926,2.3393 -0.6129,3.5002 -0.2024,1.06676 -0.3611,2.14581 -0.5636,3.21252 -0.045,0.2388 -0.2519,0.90511 -0.1129,1.11515 0.1197,0.18095 0.5786,0.0835 0.751,0.0835 0.1753,0 0.4674,0.066 0.6108,-0.0835 0.1604,-0.16727 0.1735,-0.5904 0.2126,-0.82746 0.1198,-0.72518 0.3157,-1.4681 0.3642,-2.20559 m 23.2373,-4.60302 c -0.1998,1.874 -0.6321,3.764 -0.9669,5.60992 -0.087,0.47883 -0.1718,0.95796 -0.2524,1.43843 -0.026,0.15477 -0.1191,0.41184 -0.045,0.56012 0.074,0.14832 0.2729,0.11107 0.3932,0.11114 0.3174,1.7e-4 0.9522,0.16218 1.0893,-0.28842 0.3115,-1.02394 0.3941,-2.23933 0.5817,-3.30764 0.2359,-1.34375 0.6142,-2.75425 0.7042,-4.12355 h 1.5439 c 0.2003,0 0.4862,0.06 0.6677,-0.063 0.2426,-0.1645 0.5105,-1.5873 0.1628,-1.6558 -0.4262,-0.084 -0.9132,-0.01 -1.3452,-0.01 h -2.7314 c -0.4517,0 -1.2419,-0.1862 -1.6552,0.036 -0.2552,0.137 -0.2854,0.9135 -0.3319,1.2111 -0.022,0.1403 -0.058,0.3234 0.06,0.4162 0.1579,0.1245 0.4415,0.063 0.6208,0.063 h 1.5043 m 17.9723,5.13036 c -0.017,-0.98643 -0.2387,-1.99606 -0.3511,-2.97276 -0.074,-0.6397 -0.1532,-1.2806 -0.2395,-1.9179 -0.061,-0.4469 -0.111,-0.8956 -0.1713,-1.3425 -0.023,-0.17 -0.015,-0.4218 -0.1293,-0.5465 -0.1966,-0.2148 -0.9111,-0.094 -1.1673,-0.075 -0.1167,0.01 -0.2303,0.041 -0.2644,0.1949 -0.1201,0.5411 0.1758,1.4607 0.2545,2.0086 0.2435,1.6947 0.4855,3.3916 0.7466,5.08245 0.081,0.52686 0.1575,1.05483 0.2362,1.58227 0.026,0.17708 0.028,0.45178 0.1841,0.53978 0.1319,0.0742 0.3245,0.0356 0.466,0.0356 0.202,0 0.4872,0.0608 0.6714,-0.0565 0.2976,-0.18948 0.5056,-0.84976 0.6746,-1.1901 0.9523,-1.91824 1.9074,-3.8345 2.8581,-5.7537 l 0.7839,-1.5823 c 0.089,-0.1789 0.2888,-0.4518 0.2875,-0.6685 0,-0.3107 -0.6363,-0.1945 -0.8022,-0.1945 -0.2135,0 -0.5127,-0.063 -0.7052,0.07 -0.3342,0.2313 -0.5776,1.066 -0.7654,1.4645 -0.2868,0.6084 -0.5768,1.2146 -0.865,1.822 -0.387,0.8156 -0.7678,1.6361 -1.1637,2.44537 -0.1675,0.34235 -0.304,0.77474 -0.5385,1.05485 m -89.7031,-5.51402 0.04,-1.0548 c -1.1237,0 -2.2411,-0.048 -3.3648,-0.048 -0.3183,0 -0.9777,-0.025 -1.0082,0.5274 -0.033,0.5896 0.6554,0.5754 0.9686,0.5754 h 3.3649 m 20.8225,2.2056 c 0.3142,-0.1215 0.5627,-0.4456 0.8313,-0.6701 0.4062,-0.3395 0.8431,-0.608 1.3063,-0.8137 2.126,-0.9442 4.2414,-0.3318 6.2547,0.6687 -0.3447,-0.8774 -1.3692,-1.3706 -2.0981,-1.6235 -1.6688,-0.5789 -3.6158,-0.3663 -5.0671,0.8508 -0.495,0.4152 -0.9828,0.9017 -1.2271,1.5878 m 37.0925,-1.9522 c 1.665,-0.2478 2.6738,1.3902 2.3575,3.2947 -0.2491,1.49899 -1.2381,2.76898 -2.5158,2.95904 -1.7008,0.253 -2.6827,-1.41554 -2.3574,-3.34264 0.2476,-1.4663 1.2751,-2.7264 2.5157,-2.9111 m -9.1049,3.055 0.5147,-2.9728 c 0.5897,0 1.4785,-0.1999 2.0189,0.1152 0.8625,0.503 0.4559,1.9664 -0.1589,2.4944 -0.6567,0.564 -1.6145,0.3632 -2.3747,0.3632 m -48.1768,-1.4864 c -0.1107,-0.2409 -0.3342,-0.9576 -0.5311,-1.0739 -0.332,-0.196 -1.039,-0.029 -1.4086,-0.029 h -3.444 c -0.4836,0 -0.9829,-0.044 -1.4647,0 -0.1969,0.02 -0.4307,0.1316 -0.4943,0.3811 -0.2294,0.8993 1.2279,0.6693 1.6027,0.6693 1.9133,0 3.8299,0.048 5.74,0.048 m 75.0167,0.7946 c -0.2741,0.097 -0.5779,1.2961 -0.2714,1.464 0.2608,0.143 0.7015,0.043 0.9838,0.043 h 1.9793 c 0.2763,0 0.6474,0.077 0.9083,-0.049 0.2471,-0.1193 0.5072,-1.3395 0.1978,-1.4573 -0.332,-0.1264 -0.7991,-0.028 -1.1457,-0.028 h -1.7814 c -0.2708,0 -0.6091,-0.065 -0.8707,0.028 m -74.3041,5.5824 h 3.2461 c 0.3442,0 0.9991,0.15263 1.304,-0.0493 0.2135,-0.14136 0.1999,-0.51311 0.2003,-0.76583 9e-4,-0.67125 9e-4,-1.34254 0,-2.0138 -4e-4,-0.25213 0.01,-0.61144 -0.2023,-0.75192 -0.2182,-0.14459 -0.5857,-0.0632 -0.827,-0.0632 h -1.9001 -6.9277 -2.0981 c -0.2223,0 -0.599,-0.0843 -0.7745,0.12053 -0.148,0.1727 -0.096,0.51775 -0.096,0.74252 v 1.96585 c 0,0.25043 -0.057,0.62157 0.1607,0.76583 0.2488,0.16509 0.7478,0.0493 1.0269,0.0493 h 2.4543 c 0.2353,0 1.0043,-0.14785 1.147,0.11113 0.1483,0.2693 0.041,0.96152 0.041,1.27934 v 3.35633 9.34976 2.87685 c 0,0.41145 -0.074,0.9456 0.023,1.34179 0.089,0.3651 0.4437,0.28843 0.6898,0.28843 h 1.8606 c 0.2575,0 0.5612,0.0354 0.6503,-0.33582 0.076,-0.31721 0.023,-0.7264 0.023,-1.05466 v -2.20558 -7.09623 -7.91134 m 32.6606,-1.93455 c -0.2448,0.099 -0.2389,0.4284 -0.2392,0.68791 v 1.82201 c 0,0.23126 -0.045,0.55676 0.074,0.75639 0.1472,0.24863 0.4588,0.20256 0.6786,0.20256 h 1.4251 c 0.2231,0 0.5003,0.0513 0.7108,-0.055 0.2255,-0.11388 0.2382,-0.40666 0.2392,-0.66417 0,-0.62328 10e-5,-1.24666 10e-5,-1.86995 0,-0.24073 0.04,-0.55837 -0.1,-0.75621 -0.1592,-0.22534 -0.4743,-0.15479 -0.6923,-0.15479 -0.6136,0 -1.5147,-0.20392 -2.0963,0.0313 m -26.8001,0.38787 c -0.2186,0.10793 -0.1996,0.39776 -0.1997,0.63567 v 1.72611 c 0,0.21456 -0.045,0.52572 0.069,0.70827 0.1272,0.20374 0.3798,0.15479 0.5645,0.15479 0.4789,0 1.2996,0.19202 1.7375,-0.0484 0.2127,-0.11677 0.2019,-0.4314 0.2022,-0.67082 v -1.67817 c 0,-0.22924 0.033,-0.52007 -0.1,-0.70826 -0.133,-0.18828 -0.3501,-0.15478 -0.5339,-0.15479 -0.4873,-4e-5 -1.2884,-0.18733 -1.74,0.0356 m 4.592,0 c -0.2187,0.10793 -0.1996,0.39776 -0.1997,0.63567 v 1.72611 c 0,0.21456 -0.045,0.52572 0.069,0.70827 0.1272,0.20374 0.3798,0.15479 0.5644,0.15479 0.4803,0 1.298,0.19113 1.7377,-0.0484 0.2201,-0.1199 0.202,-0.42472 0.2021,-0.67082 v -1.63012 c 0,-0.22182 0.042,-0.52145 -0.069,-0.714 -0.1312,-0.22832 -0.3626,-0.19698 -0.5644,-0.197 -0.4874,-4e-5 -1.2885,-0.18733 -1.7401,0.0356 m 10.3304,18.13651 c 0.3158,0.26948 0.5775,0.61105 0.9104,0.85995 0.6936,0.51852 1.5248,0.77021 2.3356,0.77027 1.0858,8e-5 2.0859,-0.28513 3.0482,-0.9005 3.0529,-1.95227 4.0835,-6.94391 2.3979,-10.51101 -1.6504,-3.49253 -5.6858,-5.10957 -8.415,-2.44532 v -3.8358 c 0,-0.38377 0.1133,-1.11231 -0.1015,-1.42748 -0.1547,-0.22692 -0.4753,-0.15479 -0.6903,-0.15479 h -1.7418 c -0.2524,1.2e-4 -0.515,0.008 -0.5499,0.38362 -0.1227,1.32254 0,2.74382 0,4.0755 v 8.15108 4.12348 c 0,0.58036 -0.113,1.35866 0.017,1.91716 0.067,0.28585 0.2937,0.28801 0.4975,0.28843 h 1.3459 c 0.181,0 0.4304,0.0517 0.5863,-0.0835 0.2594,-0.22488 0.2828,-0.86258 0.3638,-1.21105 m 40.1803,-0.67126 c -8e-4,0.37218 -0.043,0.75105 -0.1464,1.10279 -0.688,2.33332 -2.9811,2.40995 -4.6436,1.89996 -0.4014,-0.12315 -0.8127,-0.28468 -1.1876,-0.49897 -0.1992,-0.11391 -0.4413,-0.32457 -0.6728,-0.22128 -0.2173,0.097 -0.3107,0.41194 -0.4058,0.6423 -0.2389,0.57867 -0.6279,1.237 -0.7436,1.86995 -0.088,0.48105 0.3511,0.65794 0.6347,0.8268 0.7725,0.46003 1.6137,0.72482 2.4543,0.9281 2.6807,0.64825 5.733,-0.23449 7.0758,-3.38511 0.7233,-1.6971 0.6832,-3.4664 0.6832,-5.32218 v -6.13728 -2.8289 c 0,-0.36593 0.081,-0.90392 -0.04,-1.24453 -0.09,-0.25315 -0.3124,-0.28661 -0.5143,-0.28961 -0.4789,-0.007 -1.4987,-0.22706 -1.8959,0.12942 -0.2573,0.23094 -0.2996,0.85563 -0.3605,1.21293 -0.9829,-0.83845 -1.9006,-1.61179 -3.1669,-1.63003 -1.0261,-0.0148 -2.0458,0.18823 -2.969,0.75528 -2.6976,1.65681 -3.7714,5.90286 -2.7833,9.26556 0.9208,3.13363 3.9892,5.5483 6.7419,4.39467 0.7327,-0.30705 1.3604,-0.8573 1.9398,-1.46987 m -19.5558,-10.97998 c -0.051,-0.41963 -0.2214,-1.39768 -0.5559,-1.60277 -0.3151,-0.19321 -0.8406,-0.0754 -1.1859,-0.0754 -0.3276,0 -1.0439,-0.16586 -1.1649,0.33585 -0.076,0.31686 -0.023,0.72664 -0.023,1.05462 v 2.15764 7.04829 2.58916 c 0,0.35408 -0.076,0.86457 0.035,1.19658 0.1032,0.30668 0.416,0.24185 0.6376,0.24185 h 1.623 c 0.1874,0 0.5013,0.071 0.6564,-0.0835 0.1755,-0.17488 0.1354,-0.53695 0.1354,-0.77952 v -2.06174 -3.88375 c 0,-0.66519 -0.081,-1.41619 0.069,-2.06174 0.3933,-1.69748 1.9165,-2.79066 3.3353,-2.52017 1.3072,0.24922 1.8777,1.60768 2.0357,3.04759 0.2086,1.90128 0.023,3.9783 0.023,5.89754 0,0.6529 -0.1275,1.52889 0.017,2.15742 0.079,0.34508 0.3834,0.28791 0.6162,0.28791 h 1.6626 c 0.1978,0 0.5058,0.071 0.661,-0.11114 0.2524,-0.29605 0.1308,-1.08302 0.1308,-1.47113 v -4.07554 c 0,-2.06143 0.1447,-4.223 -0.6065,-6.13728 -0.9727,-2.47858 -3.4386,-3.5927 -5.569,-2.85635 -0.9996,0.34548 -1.7024,0.99922 -2.5336,1.70561 m 27.9085,7.00034 h 6.3735 1.5834 c 0.2081,-2e-5 0.4954,0.033 0.6558,-0.16445 0.194,-0.23875 0.136,-0.82171 0.136,-1.13014 0,-1.13578 -0.1453,-2.29857 -0.499,-3.35632 -1.2401,-3.7085 -4.882,-5.21199 -7.8538,-3.67146 -0.6346,0.32894 -1.2145,0.82986 -1.7022,1.41796 -3.4397,4.14772 -1.8116,12.02227 3.1273,13.10813 1.4482,0.31839 3.0572,0.0925 4.3545,-0.77899 0.3805,-0.25559 1.3235,-0.72544 1.0538,-1.39714 -0.2242,-0.55808 -0.6035,-1.07747 -0.901,-1.58227 -0.1101,-0.18686 -0.2286,-0.45167 -0.4299,-0.50456 -0.2146,-0.0564 -0.4269,0.18227 -0.5938,0.31022 -0.357,0.27376 -0.7388,0.48627 -1.148,0.61843 -1.8557,0.59933 -3.577,-0.71205 -4.1566,-2.86941 m 13.8157,-7.00034 c -0.051,-0.41607 -0.2248,-1.39969 -0.5559,-1.60277 -0.3151,-0.19324 -0.8406,-0.0754 -1.1859,-0.0754 -0.3261,0 -1.054,-0.17083 -1.1704,0.33585 -0.073,0.31578 -0.017,0.7282 -0.017,1.05462 v 2.15764 7.00034 2.63711 c 0,0.35407 -0.076,0.86458 0.035,1.19658 0.1032,0.30668 0.416,0.24185 0.6376,0.24185 h 1.6231 c 0.1841,0 0.4997,0.0721 0.6504,-0.0835 0.1721,-0.17769 0.1413,-0.53588 0.1413,-0.77952 v -2.06174 -3.8358 c 0,-0.66507 -0.079,-1.41378 0.059,-2.06174 0.3654,-1.72182 1.8895,-2.79884 3.3063,-2.5753 1.3201,0.20829 1.9271,1.60919 2.0698,3.05477 0.1862,1.88529 0.028,3.90186 0.028,5.80165 0,0.68128 -0.1337,1.59759 0.017,2.25331 0.079,0.34508 0.3834,0.28791 0.6162,0.28791 h 1.6627 c 0.195,0 0.5088,0.0724 0.6604,-0.11114 0.2149,-0.26036 0.092,-1.07689 0.092,-1.42318 v -4.07554 c 0,-2.01849 0.1954,-4.154 -0.5158,-6.04139 -0.9631,-2.55612 -3.4209,-3.76034 -5.6202,-3.00019 -0.9995,0.34548 -1.7023,0.99922 -2.5335,1.70561 m -71.0578,11.31561 c 0.1125,0.41862 0.205,1.21782 0.4839,1.51353 0.1544,0.16369 0.3952,0.11669 0.5849,0.11669 h 1.3064 c 0.2068,-2e-5 0.4325,0.0281 0.5339,-0.24066 0.1104,-0.29272 0.06,-0.69316 0.06,-1.00598 v -2.15764 -7.62365 -2.34943 c 0,-0.31182 0.059,-0.76653 -0.086,-1.04408 -0.1325,-0.25378 -0.4553,-0.20255 -0.6665,-0.20255 h -1.5043 c -0.2058,0 -0.4884,-0.0573 -0.6687,0.0891 -0.2088,0.1695 -0.1626,0.51052 -0.1626,0.77397 v 2.15764 3.78785 c 0,0.70466 0.07,1.4735 -0.096,2.15764 -0.4167,1.71384 -1.9527,2.79167 -3.3871,2.43163 -1.4042,-0.35246 -1.9793,-1.95105 -1.9793,-3.53442 v -5.17833 c 0,-0.70792 0.1411,-1.66963 -0.023,-2.34921 -0.078,-0.32503 -0.3364,-0.3354 -0.5711,-0.33585 h -1.7023 c -0.2191,0 -0.5257,-0.0524 -0.6922,0.16393 -0.2139,0.27811 -0.1,1.01573 -0.1,1.37039 v 3.69196 c 0,2.18873 -0.2266,4.59395 0.6085,6.61675 0.2205,0.53422 0.5083,1.01703 0.8562,1.43843 2.0326,2.46191 5.1985,1.83494 7.2048,-0.28769 m 20.6642,-12.96632 c -0.386,0.13501 -0.2772,0.74879 -0.2772,1.12329 v 3.35632 7.43187 1.822 c 0,0.23098 -0.05,0.56975 0.096,0.75192 0.1531,0.19125 0.4955,0.11114 0.6954,0.11114 0.6076,0 1.4343,0.17895 2.0183,-0.0208 0.3439,-0.11761 0.2382,-0.7543 0.2382,-1.082 v -3.30837 -7.43187 -1.86995 c 0,-0.23641 0.047,-0.564 -0.096,-0.7538 -0.166,-0.21947 -0.4751,-0.1572 -0.6954,-0.1572 -0.5974,0 -1.4055,-0.17332 -1.9793,0.0274 m 42.2784,5.82214 h -5.7401 c 0.2549,-0.94863 0.6236,-1.8021 1.3459,-2.34628 1.7586,-1.32479 3.9829,-0.0604 4.3942,2.34628 m -17.2598,-2.62342 c 0.3773,-0.0547 0.7823,-0.007 1.148,0.11291 3.059,0.99918 2.9096,7.0465 -0.3562,7.48906 -0.5639,0.0764 -1.1697,0.0456 -1.7023,-0.22579 -1.8931,-0.96483 -2.4166,-4.12355 -1.1671,-6.04734 0.5187,-0.79858 1.2602,-1.21043 2.0776,-1.32884 m -33.8465,0.0959 c 2.3415,-0.33353 3.7004,2.83373 3.1876,5.26053 -0.3478,1.64621 -1.4671,2.66342 -2.8313,2.82076 -2.6355,0.30399 -4.1532,-3.32703 -3.0557,-5.98529 0.5433,-1.316 1.5453,-1.93161 2.6994,-2.096 m -26.5625,20.74758 c -0.4642,-0.32014 -0.1343,-1.34067 -0.4984,-1.67683 -0.12,-0.11088 -0.3873,-0.0493 -0.5309,-0.0493 0,1.86646 0.6166,3.25774 1.9002,4.31527 -0.3295,0.20719 -0.5373,0.60747 -0.5542,1.05485 h 1.1084 l 0.04,-0.95895 c 0.3435,0.0991 0.8045,0.0991 1.148,0 l 0.04,0.95895 h 1.0689 l -0.3959,-1.10279 c 1.5938,-0.33239 2.5294,-2.33826 2.5335,-4.17144 h -1.7814 l -0.1187,1.29458 c -0.2345,-0.14855 -0.254,-0.49291 -0.3513,-0.76716 -0.1312,-0.37006 -0.3295,-0.67647 -0.5988,-0.91447 -1.352,-1.19464 -3.0086,0.14319 -3.0086,2.01727 m 9.58,-1.80096 c -1.0546,0.20105 -1.9742,1.33064 -2.1258,2.61606 -0.1778,1.50721 0.5854,3.02801 1.9674,2.86871 0.3691,-0.0425 0.7294,-0.14723 1.0688,-0.32937 0.5027,-0.26971 0.4936,-0.89707 0.594,-1.48449 0.029,-0.16754 0.1549,-0.53588 0.016,-0.66993 -0.1404,-0.13497 -0.6222,-0.0926 -0.7112,0.10166 -0.1539,0.33592 -0.077,0.79945 -0.2322,1.13288 -0.2673,0.57353 -1.1882,0.23451 -1.4752,-0.10622 -0.9076,-1.07752 -0.064,-3.04854 1.0965,-3.18289 0.2718,-0.0315 0.5618,0.0854 0.7917,0.2535 0.1294,0.0945 0.275,0.28465 0.4355,0.18332 0.5442,-0.34353 0.4837,-0.81522 0,-1.13986 -0.4155,-0.27882 -0.9611,-0.33183 -1.4251,-0.24337 m 24.0686,0 c -0.2401,0.0458 -0.4752,0.13636 -0.673,0.31114 -0.9346,0.82608 -0.4763,2.24299 0.4355,2.71596 0.302,0.15669 0.9993,0.43084 0.8829,0.97941 -0.1634,0.77008 -1.1098,0.54165 -1.5163,0.28195 -0.1762,-0.11254 -0.3862,-0.39034 -0.5938,-0.2454 -0.4857,0.33908 -0.3654,0.71523 0.04,1.03276 0.4342,0.34043 0.9912,0.48397 1.5043,0.40322 0.2791,-0.0439 0.5537,-0.14128 0.7917,-0.32609 0.1923,-0.14933 0.3508,-0.33407 0.4703,-0.57104 0.4762,-0.94369 0.012,-1.83889 -0.7474,-2.23303 -0.2934,-0.1522 -0.9341,-0.37148 -0.8926,-0.88356 0.059,-0.72369 0.9357,-0.5652 1.2885,-0.34088 0.1465,0.0932 0.3041,0.27159 0.475,0.15883 0.4731,-0.31207 0.4221,-0.72249 0,-1.00165 -0.4394,-0.29062 -0.9708,-0.37578 -1.4647,-0.28162 m -31.788,0.0905 c 1.5702,-0.14968 1.6939,2.83871 0.1188,2.98947 -1.614,0.15448 -1.7233,-2.83652 -0.1188,-2.98947 m 10.8071,4.34761 c 0.033,-0.29618 0.082,-1.16571 0.2943,-1.3412 0.2563,-0.21229 0.9816,-0.0493 1.2892,-0.0493 0.1222,0 0.3399,0.0494 0.4299,-0.0769 0.1196,-0.16759 0.1301,-0.52685 0.1639,-0.73823 -0.4709,-0.27447 -1.2629,-0.0959 -1.7814,-0.0959 0.042,-0.26083 0.065,-0.94472 0.2547,-1.10146 0.1371,-0.11353 0.418,-0.0493 0.5766,-0.0493 h 1.1876 c 0.1305,0 0.344,0.0467 0.4458,-0.0769 0.1399,-0.16978 0.1442,-0.6084 0.148,-0.83412 h -2.2168 c -0.2058,0 -0.6737,-0.10571 -0.8431,0.0493 -0.1781,0.16287 -0.1995,0.80005 -0.2416,1.05351 -0.165,0.99286 -0.3422,1.98358 -0.5216,2.97275 -0.041,0.22538 -0.2809,1.03369 -0.1116,1.19735 0.1394,0.13479 0.5183,0.0493 0.6886,0.0493 h 1.6627 c 0.1828,0 0.5015,0.0731 0.6619,-0.0493 0.1343,-0.1025 0.2934,-0.77396 0.1171,-0.88074 -0.2771,-0.16777 -0.8661,-0.0289 -1.1749,-0.0289 h -1.0293 m 4.5129,-2.63711 h 0.04 c 0.1331,0.8679 0.1721,1.76187 0.266,2.63711 0.024,0.22309 -0.01,0.76414 0.1522,0.90967 0.1832,0.16434 0.6333,0.0641 0.7566,-0.14772 0.5745,-0.9877 1.1321,-2.28502 1.5171,-3.39906 h 0.04 c -0.113,0.7369 -0.1431,1.50767 -0.2046,2.25353 -0.03,0.36302 -0.1313,0.78486 -0.1027,1.14793 0.022,0.28149 0.6655,0.27781 0.798,0.11772 0.1962,-0.23699 0.1238,-1.04109 0.1494,-1.36154 0.1024,-1.28248 0.2704,-2.59481 0.2704,-3.88375 l -0.9418,0.0493 -0.5326,1.05351 -0.7718,1.72611 -0.4853,0.95895 c -5e-4,-0.93812 -0.1616,-1.89623 -0.2441,-2.8289 -0.018,-0.20303 0,-0.82797 -0.1689,-0.93002 -0.1658,-0.10188 -0.7391,-0.0899 -0.8656,0.0822 -0.1924,0.26196 -0.2538,0.80625 -0.3445,1.1355 l -0.7389,2.68506 c -0.09,0.32808 -0.3537,0.89434 -0.31,1.23953 0.039,0.30578 0.7544,0.18129 0.8467,-0.0461 0.2054,-0.50579 0.3025,-1.13408 0.4408,-1.67295 0.1452,-0.56601 0.3627,-1.13811 0.4344,-1.72611 m 5.1067,2.63711 c 0.096,-0.34414 0.076,-1.06169 0.2994,-1.3136 0.1079,-0.12188 0.3179,-0.0769 0.4527,-0.0769 0.3327,0 0.9139,0.13688 1.2182,-0.0289 0.1702,-0.0928 0.306,-0.77347 0.082,-0.86128 -0.4515,-0.17721 -1.1421,-0.0208 -1.6172,-0.0208 0.017,-0.25893 0.057,-0.95059 0.2495,-1.10146 0.1278,-0.1 0.3575,-0.0493 0.5026,-0.0493 0.4331,0 1.2608,0.19603 1.6507,-0.0289 0.1358,-0.0784 0.2274,-0.60847 0.1793,-0.77094 -0.06,-0.204 -0.5394,-0.11113 -0.682,-0.11113 h -1.7418 c -0.1674,0 -0.515,-0.0794 -0.6437,0.0769 -0.1891,0.22953 -0.2062,0.95154 -0.2589,1.26565 -0.145,0.86422 -0.2967,1.72895 -0.4571,2.58916 -0.065,0.34841 -0.2414,0.8866 -0.1997,1.23953 0.03,0.25618 0.5732,0.15095 0.7281,0.15095 h 1.821 c 0.2263,0 0.5468,0.082 0.6358,-0.24184 0.039,-0.14109 0.1512,-0.54912 0.044,-0.66783 -0.1134,-0.12537 -0.4564,-0.0493 -0.6005,-0.0493 h -1.6626 m 4.7504,-4.36322 c -0.1963,0 -0.6542,-0.10266 -0.8021,0.0769 -0.1731,0.21017 -0.1879,0.83631 -0.2351,1.1218 -0.1587,0.96136 -0.3425,1.91682 -0.5066,2.87686 -0.042,0.24305 -0.2743,0.95539 -0.1538,1.16975 0.098,0.17352 0.6909,0.11649 0.7876,-0.0398 0.218,-0.35252 0.2359,-1.1779 0.3083,-1.60943 0.081,-0.48035 0.1727,-0.95807 0.2533,-1.43843 0.1178,-0.70249 0.3229,-1.44078 0.3484,-2.15763 m 1.5834,1.67816 c 0.5181,0.62086 0.8123,1.80156 1.1383,2.58917 0.113,0.27302 0.2715,0.84714 0.4932,1.00556 0.6387,0.45642 0.7712,-0.45161 0.8672,-0.95762 0.2684,-1.41445 0.5193,-2.84256 0.7474,-4.26733 -0.1776,-0.0636 -0.6568,-0.14733 -0.802,0.0289 -0.1481,0.17973 -0.163,0.68701 -0.2034,0.93001 -0.1374,0.82548 -0.3898,1.69977 -0.4197,2.54122 -0.4512,-0.76774 -0.7468,-1.70268 -1.0987,-2.54122 -0.1041,-0.24782 -0.276,-0.86353 -0.4932,-0.97796 -0.1526,-0.0804 -0.6384,-0.0942 -0.7441,0.0822 -0.1725,0.28761 -0.1764,0.88653 -0.2418,1.2314 -0.1691,0.89079 -0.3172,1.78999 -0.4702,2.68506 -0.055,0.3215 -0.2264,0.82009 -0.1787,1.14363 0.036,0.24215 0.6333,0.2035 0.752,0.0741 0.1572,-0.17136 0.1708,-0.64215 0.2104,-0.88207 0.058,-0.35248 0.119,-0.70387 0.183,-1.05485 0.096,-0.52871 0.2411,-1.08866 0.2603,-1.63021 m 9.8175,2.63711 c 0.015,0.23561 0.015,0.75303 0.1527,0.93002 0.1083,0.13903 0.6692,0.14747 0.75,-0.0343 0.07,-0.15676 -0.022,-0.44517 -0.047,-0.60807 -0.079,-0.51053 -0.154,-1.02218 -0.2254,-1.53432 -0.071,-0.51163 -0.1458,-1.02474 -0.2265,-1.53432 -0.057,-0.36326 -0.045,-1.17715 -0.2448,-1.45744 -0.206,-0.28964 -0.7721,-0.0429 -0.9029,0.21102 -0.604,1.17244 -1.1866,2.36284 -1.7737,3.5479 -0.1741,0.35147 -0.3523,0.70045 -0.5223,1.05484 -0.051,0.10594 -0.171,0.31771 -0.035,0.4026 0.085,0.0526 0.2117,0.0289 0.3035,0.0289 0.1476,7e-5 0.3353,0.0332 0.46,-0.0835 0.2314,-0.21647 0.2571,-0.75166 0.537,-0.89443 0.4472,-0.22813 1.2875,-0.0289 1.7741,-0.0289 m 3.0877,-2.58916 h 0.04 c 0,0.89293 0.1723,1.79613 0.2405,2.68506 0.017,0.22494 6e-4,0.77639 0.2008,0.88207 0.1813,0.0957 0.5511,0.0638 0.6815,-0.12202 0.2756,-0.39295 0.4516,-0.97624 0.6499,-1.43132 0.2912,-0.66804 0.6396,-1.31554 0.8796,-2.01379 h 0.04 c -0.019,0.53908 -0.083,1.09518 -0.1415,1.63021 -0.051,0.46296 -0.2768,1.41906 -0.1391,1.85471 0.098,0.31105 0.794,0.12414 0.8493,-0.17677 0.2084,-1.13403 0.1959,-2.43556 0.2661,-3.59584 0.022,-0.35981 0.1874,-0.98631 0.085,-1.32729 -0.052,-0.17106 -0.3289,-0.11113 -0.4444,-0.11113 -0.591,0 -0.6823,0.3003 -0.9404,0.911 -0.1708,0.40409 -0.3603,0.79666 -0.5344,1.19869 -0.2417,0.5581 -0.585,1.12493 -0.7421,1.72611 -0.2524,-0.8164 -0.2333,-1.91288 -0.3101,-2.78096 -0.02,-0.22847 0.01,-0.85418 -0.1492,-1.00556 -0.1576,-0.15005 -0.8072,-0.10462 -0.9152,0.10166 -0.1731,0.33081 -0.2387,0.82046 -0.3409,1.19159 l -0.6729,2.44532 c -0.1032,0.37491 -0.3896,0.98906 -0.3572,1.38337 0.02,0.24446 0.6294,0.19028 0.7552,0.0944 0.1769,-0.13479 0.2253,-0.62614 0.2881,-0.85447 0.092,-0.33428 0.1721,-0.6727 0.2639,-1.0069 0.1535,-0.55807 0.2984,-1.11891 0.4487,-1.67816 m 5.265,3.54811 c 0.2224,0.0796 0.7408,0.1496 0.9189,-0.0687 0.1905,-0.23372 0.2418,-0.73085 0.5099,-0.86129 0.4587,-0.22315 1.2824,-0.0289 1.7777,-0.0289 0,0.2381 0,0.75156 0.1481,0.93002 0.1083,0.13299 0.6647,0.15297 0.7384,-0.0343 0.1119,-0.28462 -0.086,-0.93175 -0.1344,-1.23139 -0.1502,-0.94012 -0.2783,-1.88649 -0.4186,-2.8289 -0.042,-0.27872 -0.034,-0.85241 -0.1821,-1.07386 -0.097,-0.14571 -0.5277,-0.10559 -0.6643,-0.0616 -0.3129,0.10066 -0.5875,0.95949 -0.746,1.27934 -0.4361,0.8805 -0.878,1.75662 -1.3142,2.63711 -0.2116,0.42718 -0.5089,0.86607 -0.6334,1.34253 m 6.6505,-2.25353 c 0.1302,0.54719 0.4136,1.07342 0.6236,1.58227 0.082,0.19834 0.1565,0.49998 0.3024,0.64233 0.1272,0.12415 0.889,0.18196 0.9136,-0.0741 0.02,-0.20816 -0.1525,-0.48541 -0.2263,-0.66416 l -0.6334,-1.53432 c -0.079,-0.19077 -0.3027,-0.54674 -0.2507,-0.76712 0.055,-0.23221 0.3217,-0.41486 0.4584,-0.57611 0.437,-0.51544 0.9938,-0.97597 1.346,-1.58157 -1.3293,-0.47591 -2.1806,1.54485 -3.1274,2.34943 0.2149,-0.69361 0.3908,-1.65648 0.3959,-2.39737 -0.2046,0 -0.6554,-0.10358 -0.7974,0.11113 -0.177,0.26777 -0.1921,0.89766 -0.2477,1.2314 -0.1464,0.88002 -0.2979,1.7622 -0.4639,2.63711 -0.06,0.31709 -0.2428,0.87391 -0.1791,1.19158 0.046,0.22891 0.5521,0.19448 0.6932,0.12202 0.2705,-0.139 0.2535,-0.91886 0.3288,-1.2177 0.1012,-0.40195 0.564,-0.86633 0.864,-1.05485 m 4.117,-2.06174 c -0.1798,1.056 -0.3738,2.10859 -0.5543,3.16453 -0.04,0.2321 -0.2672,0.91807 -0.1536,1.12181 0.1361,0.24381 0.769,0.0939 0.8382,-0.16378 0.1766,-0.65733 0.2391,-1.38536 0.3616,-2.06082 0.1205,-0.66448 0.315,-1.38213 0.3395,-2.06174 0.3074,0 0.9949,0.15708 1.2543,-0.0493 0.1793,-0.14266 0.3037,-0.87461 0.012,-0.90686 -0.7128,-0.0787 -1.4605,-0.003 -2.1765,-0.003 -0.2667,0 -0.6976,-0.0998 -0.9444,0.0289 -0.1526,0.0796 -0.3275,0.79223 -0.1509,0.90109 0.2746,0.16917 0.8668,0.0289 1.1745,0.0289 m 3.8003,-0.91101 c -0.1837,-0.0658 -0.6554,-0.14499 -0.809,0.0289 -0.1793,0.20293 -0.1967,0.83767 -0.244,1.1218 -0.1571,0.9438 -0.3175,1.89062 -0.4956,2.82891 -0.052,0.27529 -0.2613,0.92096 -0.1678,1.18344 0.07,0.19584 0.6637,0.16265 0.772,0.0276 0.2255,-0.28133 0.2458,-1.16575 0.3109,-1.54667 0.085,-0.49594 0.1707,-0.99173 0.2604,-1.48638 0.1301,-0.71741 0.2576,-1.43651 0.3731,-2.15764 m 4.6712,0 c -0.2151,-0.077 -0.7114,-0.14283 -0.9021,0.0289 -0.2427,0.21867 -0.3971,0.75941 -0.5459,1.07386 -0.4083,0.86253 -0.963,1.75045 -1.2439,2.68506 -0.3117,-0.78004 -0.3014,-1.97044 -0.401,-2.82891 -0.025,-0.21903 -0.022,-0.87066 -0.2052,-0.97796 -0.1285,-0.0754 -0.6883,-0.10131 -0.7539,0.0822 -0.064,0.1786 0.043,0.51902 0.071,0.70397 0.086,0.5752 0.1768,1.14981 0.2571,1.72611 0.094,0.6721 0.1923,1.34383 0.2957,2.0138 0.03,0.19146 0.024,0.59167 0.1653,0.71788 0.6787,0.60853 1.249,-1.10555 1.4894,-1.58093 0.2573,-0.50859 0.5072,-1.02287 0.7605,-1.53433 0.333,-0.67207 0.791,-1.37382 1.0135,-2.10969 m 1.0292,5.41807 c 0.4976,-0.002 0.4659,-0.71187 0.5463,-1.19868 0.2151,-1.30266 0.6337,-2.70132 0.6809,-4.0276 -0.4941,0.002 -0.4508,0.72136 -0.5374,1.19869 -0.2368,1.30543 -0.6023,2.69636 -0.6898,4.02759 m 1.2272,0 h 0.8313 l 0.9105,-5.22628 c -0.1994,0 -0.6447,-0.1015 -0.808,0.0493 -0.1997,0.18443 -0.2182,1.00287 -0.2692,1.29325 -0.2224,1.26678 -0.5798,2.59264 -0.6646,3.88375 m 1.5835,0 c 0.2911,0 1.0876,0.17092 1.3167,-0.0493 0.2035,-0.19571 0.222,-1.03912 0.2751,-1.34119 0.2224,-1.26702 0.5276,-2.55127 0.6646,-3.83581 -0.2985,0 -1.084,-0.17098 -1.3226,0.0493 -0.2036,0.18786 -0.2352,1.04389 -0.2846,1.3412 -0.2065,1.24038 -0.6038,2.57239 -0.6492,3.8358 m 1.8209,0 h 22.7623 v -5.22628 h -16.1117 -4.1962 -1.0688 c -0.1275,0 -0.3439,-0.0483 -0.4527,0.0493 -0.1985,0.17788 -0.228,1.00633 -0.2757,1.29325 -0.2091,1.25655 -0.6117,2.60356 -0.6572,3.88375 m -33.6089,-4.17143 0.2375,2.10969 h -1.3064 l 0.9897,-2.10969 h 0.079 m 11.5197,0 0.2771,2.10969 h -1.3064 c 0.2366,-0.66495 0.6209,-1.58151 1.0293,-2.10969 z"
       id="path15-1" /></g></svg>
