<?xml version="1.0" encoding="UTF-8" standalone="no"?>
<!-- Created with Inkscape (http://www.inkscape.org/) -->

<svg
   width="226.16255mm"
   height="132.36377mm"
   viewBox="0 0 226.16255 132.36377"
   version="1.1"
   id="svg1"
   xml:space="preserve"
   inkscape:version="1.4.4 (dcaf3e7, 2026-05-05)"
   sodipodi:docname="logos teams.svg"
   inkscape:export-batch-name="TSV Neustadt"
   inkscape:export-batch-path="Desktop/Liga"
   xmlns:inkscape="http://www.inkscape.org/namespaces/inkscape"
   xmlns:sodipodi="http://sodipodi.sourceforge.net/DTD/sodipodi-0.dtd"
   xmlns="http://www.w3.org/2000/svg"
   xmlns:svg="http://www.w3.org/2000/svg"><sodipodi:namedview
     id="namedview1"
     pagecolor="#ffffff"
     bordercolor="#000000"
     borderopacity="0.25"
     inkscape:showpageshadow="2"
     inkscape:pageopacity="0.0"
     inkscape:pagecheckerboard="0"
     inkscape:deskcolor="#d1d1d1"
     inkscape:document-units="mm"
     inkscape:zoom="0.012061024"
     inkscape:cx="-22800.717"
     inkscape:cy="-10654.153"
     inkscape:window-width="1920"
     inkscape:window-height="1050"
     inkscape:window-x="0"
     inkscape:window-y="30"
     inkscape:window-maximized="0"
     inkscape:current-layer="layer1"><inkscape:page
       x="0"
       y="3.6191835e-19"
       width="226.16255"
       height="132.36375"
       id="page2"
       margin="0"
       bleed="0" /></sodipodi:namedview><defs
     id="defs1"><style
       id="style1-7">
      .cls-1 {
        fill: #fff;
      }
    </style></defs><g
     inkscape:label="Ebene 1"
     inkscape:groupmode="layer"
     id="layer1"
     transform="translate(-620.56598,965.25676)"><g
       id="g10663"><rect
         style="fill:#f7af05;fill-opacity:1;stroke-width:11.6203;stroke-dasharray:none;stroke-opacity:0.478431"
         id="rect10662-8"
         width="62.663029"
         height="16.54945"
         x="774.26062"
         y="-881.64929" /><rect
         style="fill:#f7af05;fill-opacity:1;stroke-width:11.3138;stroke-dasharray:none;stroke-opacity:0.478431"
         id="rect10662"
         width="60.03791"
         height="16.373972"
         x="729.55151"
         y="-850.53699" /><rect
         style="fill:#f7af05;fill-opacity:1;stroke-width:7.0139;stroke-dasharray:none;stroke-opacity:0.478431"
         id="rect10662-6"
         width="29.717188"
         height="12.713871"
         x="710.39172"
         y="-931.30139"
         transform="matrix(0.99460061,0.10377686,-0.10258819,0.99472391,0,0)" /><path
         style="fill:#002b5e;fill-opacity:1;stroke-width:0.322631"
         d="m 620.70673,-832.96617 -0.11536,-0.0731 -0.0127,-25.19912 -0.0127,-25.19908 0.13264,-0.12002 0.13264,-0.12005 109.78844,-0.003 109.78841,-0.003 0.047,0.076 0.047,0.076 0.003,25.2399 0.003,25.23986 -0.0491,0.0794 -0.0491,0.0794 H 730.61479 620.82186 Z m 96.36452,-1.54753 0.16817,-0.09 v -23.63207 -23.63203 l -0.11553,-0.0959 -0.11555,-0.0958 -47.36754,0.0213 -47.36755,0.0213 -0.0233,23.56015 -0.0233,23.56015 0.0447,0.18616 0.0448,0.18612 0.19194,0.0309 0.19191,0.0309 47.1015,0.019 47.10151,0.0193 z m -83.94037,-7.38767 -0.41025,-0.11201 -0.48606,-0.27082 -0.48604,-0.27082 -0.22761,-0.26042 -0.22761,-0.2604 -0.10149,-0.22113 -0.10149,-0.22113 -0.11298,-0.25611 -0.11299,-0.25607 -0.0914,-0.56187 -0.0914,-0.56183 10e-5,-0.37715 1.1e-4,-0.37713 0.11923,-0.59755 0.11924,-0.59753 0.10739,-0.2988 0.10738,-0.29875 0.2581,-0.34144 0.25809,-0.34148 0.17675,-0.14964 0.17673,-0.14966 0.61222,-0.2985 0.61221,-0.2985 0.83896,0.005 0.83895,0.005 0.36885,0.1497 0.36886,0.14971 0.40959,0.35282 0.4096,0.35283 0.18189,0.34896 0.18188,0.34896 v 0.16409 0.16406 l -0.32011,0.0889 -0.32011,0.0889 -0.25608,-0.003 -0.2561,-0.003 -0.19671,-0.31934 -0.1967,-0.31934 -0.27279,-0.18125 -0.27279,-0.1813 -0.43238,-0.10672 -0.43239,-0.10673 -0.43155,0.14335 -0.43155,0.14334 -0.29943,0.29944 -0.29943,0.2994 -0.1811,0.47324 -0.1811,0.47324 v 0.93688 0.93686 l 0.20715,0.45288 0.20715,0.45288 0.19833,0.20602 0.19832,0.20601 0.25609,0.16793 0.25609,0.16793 0.64022,-0.009 0.64022,-0.009 0.40639,-0.18768 0.40639,-0.1877 0.12134,-0.18768 0.12135,-0.18768 0.0578,-0.23535 0.0579,-0.23536 -0.13706,-0.2092 -0.13706,-0.20919 -0.66196,-0.0248 -0.66194,-0.0249 v -0.51218 -0.51218 l 1.28043,-0.0588 1.28044,-0.0588 0.0993,0.10144 0.0993,0.1014 0.0288,1.34202 0.0288,1.34205 -0.17073,0.16583 -0.17073,0.16586 -0.47716,0.25495 -0.47716,0.25497 -0.53275,0.13647 -0.53274,0.13648 -0.56931,-0.0107 -0.5693,-0.0107 z m 18.10173,-0.0168 -0.23476,-0.14553 v -0.0802 -0.0802 l -0.11547,-0.13476 -0.11546,-0.13476 -0.57557,-1.10973 -0.57556,-1.10972 -0.0653,-0.0854 -0.0653,-0.0854 -0.36502,-0.68291 -0.36502,-0.68291 -0.13153,-0.15145 -0.13155,-0.15147 -0.0916,0.0303 -0.0916,0.0303 -0.0427,2.29778 -0.0427,2.29775 -0.4121,0.0265 -0.41212,0.0261 -0.12141,-0.10078 -0.12141,-0.10078 v -3.43977 -3.43977 l 0.0518,-0.13501 0.0518,-0.13503 h 0.41213 0.41212 l 0.21896,0.0833 0.21897,0.0832 v 0.0805 0.0805 l 0.49514,0.83926 0.49514,0.83922 0.0607,0.12806 0.0607,0.12805 0.16138,0.25607 0.16139,0.25611 0.39739,0.76825 0.39739,0.76828 0.15415,0.20432 0.15416,0.20435 0.097,-0.06 0.097,-0.06 v -2.24003 -2.23999 l 0.10243,-0.10244 0.10243,-0.10244 h 0.30305 0.30304 l 0.19206,0.0515 0.19207,0.0515 v 3.61495 3.61499 l -0.16512,0.0884 -0.16511,0.0884 -0.32572,-0.003 -0.32572,-0.003 z m 16.88049,0.0925 -0.34144,-0.029 -0.27436,-0.0455 -0.27434,-0.0454 -0.12669,-0.23145 -0.12669,-0.23145 -0.0911,-0.17075 -0.0911,-0.17073 -0.16387,-0.25607 -0.16386,-0.25611 -0.17577,-0.34589 -0.17576,-0.34593 -0.41055,-0.45836 -0.41054,-0.45836 -0.50766,-0.0316 -0.50766,-0.0317 -0.11715,0.0792 -0.11713,0.0793 0.009,1.40874 0.009,1.40873 -0.19067,0.0511 -0.19066,0.0511 h -0.35365 -0.35367 l -0.0518,-0.13506 -0.0518,-0.13502 v -3.44515 -3.44518 l 0.0952,-0.0589 0.0952,-0.0589 1.52161,-0.0436 1.52161,-0.0436 0.52955,0.10418 0.52956,0.10417 0.31356,0.19798 0.31356,0.19793 0.13439,0.2051 0.13439,0.20512 0.14817,0.52802 0.14815,0.52805 -0.15904,0.55535 -0.15904,0.55534 -0.26522,0.2895 -0.26523,0.28953 -0.3976,0.17586 -0.39759,0.17588 v 0.0748 0.0748 l 0.26249,0.29279 0.26249,0.29283 0.33057,0.51217 0.33058,0.51218 0.0685,0.0897 0.0685,0.0897 0.11655,0.20232 0.11655,0.20233 0.21009,0.37632 0.21009,0.37628 -0.0466,0.12128 -0.0466,0.12125 -0.0667,-0.0142 -0.0667,-0.0142 z m -1.62189,-4.2959 0.25609,-0.12805 0.15898,-0.32547 0.15897,-0.32547 -0.10669,-0.38106 -0.10668,-0.38106 -0.25091,-0.2111 -0.2509,-0.21113 h -1.09404 -1.09403 l -0.0518,0.13502 -0.0518,0.13503 v 0.71304 0.71305 l 0.086,0.2261 0.086,0.2261 1.00241,-0.0284 1.00241,-0.0284 z m 37.16602,4.1975 -0.39363,-0.14277 -0.27416,-0.21342 -0.27416,-0.21338 -0.0789,-0.17074 -0.0789,-0.17071 -0.0773,-0.12805 -0.0773,-0.12805 -0.0896,-0.55487 -0.0896,-0.55485 -0.0539,-2.32143 -0.0539,-2.32146 0.0557,-0.17542 0.0556,-0.17541 h 0.53997 0.53998 l 0.0518,0.13502 0.0518,0.13503 v 2.325 2.32501 l 0.13172,0.44355 0.13173,0.44356 0.35911,0.23348 0.35911,0.23352 0.55716,-1.6e-4 0.55715,-1.6e-4 0.24823,-0.19525 0.24822,-0.19526 0.16754,-0.27408 0.16753,-0.27407 -0.009,-2.56175 -0.009,-2.56177 0.0681,-0.11027 0.0681,-0.11024 0.54709,0.0258 0.54708,0.0258 0.0252,2.39015 0.0252,2.39018 -0.14324,0.76825 -0.14325,0.76828 -0.21032,0.28253 -0.21033,0.28256 -0.35455,0.1558 -0.35454,0.15576 -0.30483,0.0951 -0.30483,0.0951 -0.7622,-0.006 -0.76221,-0.007 z m -63.75655,-0.0148 -0.29876,-0.0427 v -3.52962 -3.52961 l 0.13521,-0.0724 0.13521,-0.0724 2.21134,0.003 2.21133,0.003 0.10763,0.0893 0.10764,0.0894 -10e-4,0.26697 -10e-4,0.26698 -0.0515,0.19207 -0.0515,0.19205 h -1.73494 -1.73494 l -0.0572,0.0927 -0.0573,0.0927 0.007,0.77574 0.007,0.77573 0.0697,0.0697 0.0697,0.0696 1.63982,0.057 1.63982,0.057 v 0.44872 0.44875 l -0.61888,0.0537 -0.61887,0.0537 -0.98168,-0.0252 -0.98167,-0.0252 -0.1067,0.069 -0.1067,0.069 v 0.97874 0.97877 l 0.23475,0.0911 0.23474,0.0911 1.46298,-0.0594 1.46297,-0.0593 0.18026,0.0572 0.18026,0.0572 v 0.46097 0.46098 l -2.19809,0.0242 -2.1981,0.0242 z m 15.55409,-0.0297 -0.0741,-0.0982 0.0494,-3.54255 0.0494,-3.54255 2.29919,-0.0223 2.2992,-0.0223 0.0683,0.1076 0.0683,0.10763 v 0.34144 0.34144 l -0.0666,0.10486 -0.0666,0.10482 -1.70338,0.0233 -1.70337,0.0233 -0.0243,0.81938 -0.0243,0.81939 0.11595,0.0962 0.11594,0.0963 1.53023,0.0232 1.53023,0.0233 v 0.51218 0.51218 l -1.62055,0.0427 -1.62057,0.0426 -0.0605,0.34144 -0.0605,0.34148 -0.005,0.48526 -0.005,0.48528 0.0826,0.21725 0.0826,0.21726 1.81673,0.0229 1.81672,0.0233 v 0.51218 0.51217 l -2.4081,0.0129 -2.40809,0.0129 z m 14.892,0.0582 -0.057,-0.0569 v -0.14819 -0.14817 l 0.39096,-1.01132 0.39095,-1.01136 0.043,-0.1707 0.0429,-0.17074 0.0762,-0.17074 0.0762,-0.1707 0.30496,-0.93899 0.30495,-0.93901 0.12391,-0.22655 0.12392,-0.22659 v -0.16258 -0.1626 l 0.12532,-0.1657 0.12533,-0.16567 0.003,-0.12805 0.003,-0.12805 0.12752,-0.2445 0.12752,-0.24452 v -0.11218 -0.11221 l 0.13414,-0.13412 0.13414,-0.13415 h 0.58301 0.58301 l 0.17916,0.30367 0.17916,0.30362 v 0.14953 0.14955 l 0.12533,0.16571 0.12533,0.1657 0.003,0.17573 0.003,0.17574 0.12533,0.1657 0.12533,0.16571 0.003,0.11515 0.003,0.11514 0.12252,0.26898 0.12252,0.269 0.35646,1.06705 0.35646,1.06704 0.20524,0.55482 0.20524,0.55487 0.11886,0.2561 0.11887,0.25607 0.14552,0.35539 0.14553,0.35537 -0.0573,0.0928 -0.0574,0.0928 h -0.46833 -0.46834 l -0.20953,-0.20954 -0.20952,-0.20952 v -0.0939 -0.0939 l -0.17365,-0.40078 -0.17363,-0.4008 -0.0704,-0.12802 -0.0702,-0.12805 -1.38184,-0.0236 -1.38184,-0.0236 -0.29489,0.64707 -0.29489,0.6471 v 0.12031 0.1203 l -0.16511,0.0884 -0.16511,0.0884 h -0.4182 -0.4182 z m 4.08149,-2.92546 0.0525,-0.16538 -0.078,-0.15473 -0.078,-0.15473 -0.1043,-0.29876 -0.10431,-0.29876 -0.0721,-0.2561 -0.0721,-0.25608 -0.13986,-0.38415 -0.13986,-0.38412 -0.0651,-0.0668 -0.0651,-0.0668 -0.14154,0.0543 -0.14153,0.0543 -0.10109,0.35396 -0.10109,0.35395 -0.0628,0.0854 -0.0628,0.0854 -0.06,0.32104 -0.06,0.32109 -0.0682,0.0421 -0.0682,0.0422 -0.0581,0.34396 -0.0581,0.34396 0.10382,0.12509 0.10381,0.12507 h 0.79475 0.79474 z m 4.7993,2.87565 -0.14339,-0.1067 -0.003,-3.4145 -0.003,-3.41453 0.002,-0.1106 0.002,-0.11059 0.57619,0.0252 0.5762,0.0252 0.0225,2.93761 0.0225,2.93765 0.0931,0.11228 0.0931,0.11224 1.63429,0.0233 1.63429,0.0233 0.0273,0.33331 0.0273,0.33331 -0.0502,0.2002 -0.0503,0.20022 h -2.15881 -2.15881 z m 6.97627,-0.004 -0.12185,-0.0682 v -3.47857 -3.47856 l 0.10244,-0.10243 0.10243,-0.10243 h 1.39632 1.39631 l 0.61399,0.0987 0.61397,0.0987 0.23136,0.1608 0.23135,0.16076 0.17908,0.2515 0.17907,0.25149 0.0676,0.42803 0.0676,0.42801 -0.0697,0.44113 -0.0697,0.4411 -0.25897,0.26721 -0.25898,0.26716 v 0.14535 0.14531 h 0.0723 0.0723 l 0.31282,0.30383 0.31284,0.30379 0.11368,0.27239 0.11369,0.2724 0.0602,0.32127 0.0602,0.32128 -0.14515,0.51728 -0.14513,0.51727 -0.37466,0.37467 -0.37466,0.37464 -0.27389,0.0442 -0.2739,0.0441 -1.90553,0.0229 -1.90552,0.0232 z m 3.6291,-1.16693 0.3204,-0.16347 0.14108,-0.21533 0.14108,-0.21532 v -0.27514 -0.27514 l -0.18275,-0.26672 -0.18276,-0.26672 -0.25098,-0.14405 -0.25097,-0.14403 h -1.05712 -1.05711 l -0.0884,0.16512 -0.0884,0.1651 v 0.862 0.86197 l 0.1745,0.0646 0.17451,0.0646 0.94322,-0.0271 0.94323,-0.0271 z m -0.23509,-3.19802 0.29291,-0.12241 0.10165,-0.22306 0.10164,-0.2231 v -0.20381 -0.20384 l -0.0809,-0.21276 -0.0809,-0.21278 -0.15148,-0.17693 -0.15148,-0.1769 h -1.04108 -1.04108 l -0.13503,0.0518 -0.13502,0.0518 v 0.75215 0.75216 l 0.0518,0.13501 0.0518,0.13503 h 0.96212 0.96211 z m 3.93732,4.40877 -0.10144,-0.0645 0.13274,-0.42503 0.13275,-0.42501 0.23999,-0.51218 0.23999,-0.51218 0.12207,-0.34147 0.12208,-0.34143 0.10496,-0.2988 0.10496,-0.29875 0.0721,-0.25607 0.0721,-0.25611 0.13452,-0.38413 0.13451,-0.38412 0.0739,-0.13086 0.0739,-0.13086 0.0644,-0.29314 0.0644,-0.29318 0.0699,-0.13085 0.07,-0.13084 0.17527,-0.53385 0.17528,-0.53386 v -0.0932 -0.0932 l 0.1613,-0.22658 0.16131,-0.22658 0.51275,0.0136 0.51274,0.0136 0.17958,0.0961 0.17958,0.0961 6.4e-4,0.14639 6.5e-4,0.14637 0.12752,0.24449 0.12751,0.24453 v 0.0803 0.0803 l 0.15563,0.35811 0.15562,0.3581 0.15337,0.38415 0.15337,0.38412 0.067,0.17075 0.067,0.1707 0.31805,1.02435 0.31805,1.02436 0.0704,0.17073 0.0704,0.17074 0.22614,0.55483 0.22614,0.55486 0.0641,0.0854 0.0641,0.0854 0.0988,0.29311 0.0988,0.29308 -0.10772,0.0684 -0.10772,0.0684 -0.38414,1.2e-4 -0.38413,1.3e-4 -0.17072,-0.0475 -0.17074,-0.0475 -0.15584,-0.35679 -0.15586,-0.35683 -0.17872,-0.38413 -0.17873,-0.38412 -0.0922,-0.0627 -0.0922,-0.0627 h -1.24587 -1.24588 l -0.13012,0.14938 -0.13013,0.14938 -0.0496,0.21341 -0.0496,0.21343 -0.11664,0.4121 -0.11666,0.41213 -0.12232,0.0774 -0.12233,0.0774 h -0.46949 -0.4695 z m 4.05378,-2.92779 0.0257,-0.22058 -0.30635,-0.93179 -0.30633,-0.9318 -0.0941,-0.18754 -0.0941,-0.18754 -0.10564,-0.0406 -0.10565,-0.0405 -0.24006,0.74024 -0.24006,0.74028 -0.0615,0.0854 -0.0615,0.0854 -0.06,0.32105 -0.06,0.32105 -0.072,0.0444 -0.072,0.0444 0.054,0.14667 0.0541,0.14663 0.0916,0.0644 0.0916,0.0644 0.76827,-0.0216 0.76826,-0.0216 z m -66.88611,-8.24416 -0.1067,-0.043 v -11.04737 -11.04738 h 13.30665 13.30665 l 0.0391,0.14944 0.0391,0.14944 -0.008,10.9264 -0.008,10.92635 h -2.20931 -2.20931 l 0.0102,-8.68277 0.0102,-8.68279 -0.0822,-0.21629 -0.0822,-0.21629 h -3.23545 -3.23545 l -0.0992,0.1195 -0.0992,0.11947 0.0104,8.77961 0.0104,8.77956 -2.15664,0.0229 -2.15665,0.0229 -0.0827,-0.0827 -0.0827,-0.0827 0.0145,-8.72185 0.0145,-8.72185 -0.0974,-0.11731 -0.0974,-0.11735 h -2.98287 -2.98285 l -0.16512,0.0884 -0.16511,0.0884 v 8.78025 8.78022 l -0.13502,0.0518 -0.13503,0.0518 -2.02039,-0.007 -2.02038,-0.007 z m 29.59958,-11.03964 v -11.09683 l 10.56365,-0.022 10.56364,-0.022 0.51219,0.028 0.51218,0.0281 v 2.14882 2.1488 l -8.87774,0.0427 -8.87774,0.0426 -0.0228,2.25619 -0.0228,2.25619 0.10816,0.0686 0.10815,0.0686 h 8.76425 8.76425 l 0.0413,0.23474 0.0413,0.23475 -0.0132,1.96334 -0.0132,1.96333 -8.79001,0.0193 -8.79,0.0194 -0.10907,0.0419 -0.10908,0.0418 v 2.04529 2.04528 l 0.13414,0.13415 0.13414,0.13415 h 8.73539 8.73538 l 0.0565,0.87498 0.0565,0.87495 -0.0269,1.23777 -0.0269,1.23774 -11.07584,0.0216 -11.07582,0.0216 z m 25.18204,8.96243 v -2.13439 l 0.10669,-0.005 0.10671,-0.005 8.6298,-0.0164 8.62979,-0.0164 0.14124,-0.11715 0.14124,-0.11718 v -1.98512 -1.98512 l -0.1173,-0.0974 -0.11729,-0.0973 -8.76043,0.003 -8.76045,0.003 v -6.74439 -6.74437 h 2.17675 2.17676 v 4.37985 4.37988 l 0.10669,0.14515 0.10671,0.14519 6.57294,-0.0223 6.57294,-0.0223 0.0221,-4.49015 0.0221,-4.4902 1.94918,-0.0604 1.94918,-0.0604 0.22714,0.057 0.22714,0.057 -0.0217,11.06651 -0.0217,11.06648 -11.03316,0.0216 -11.03314,0.0216 z m 111.52656,13.41908 0.2561,-0.0928 0.35877,-0.0926 0.35877,-0.0926 0.70827,-0.47533 0.70823,-0.47536 0.34826,-0.41865 0.34828,-0.41865 0.30337,-0.61897 0.30339,-0.61897 0.13506,-0.38412 0.13506,-0.38416 0.0921,-0.51217 0.0921,-0.51218 0.0799,-0.46949 0.0798,-0.4695 v -8.16538 -8.16541 l -0.11785,-0.0979 -0.1179,-0.0978 -1.4882,-0.0511 -1.48823,-0.0511 -0.077,0.11954 -0.077,0.11953 -0.0427,0.76828 -0.0426,0.76825 h -0.0998 -0.0998 l -0.30592,-0.40067 -0.30595,-0.40067 -0.49058,-0.36758 -0.4906,-0.36761 -0.29876,-0.14124 -0.29876,-0.14122 -0.44287,-0.13622 -0.44285,-0.13618 h -0.59212 -0.5921 l -0.3735,0.13132 -0.37354,0.13127 -0.38413,0.18197 -0.38413,0.18193 -0.65416,0.6582 -0.65417,0.6582 -0.35931,0.74231 -0.35932,0.74231 -0.071,0.27094 -0.071,0.27092 -0.10048,0.38416 -0.10048,0.38412 -0.13815,0.46949 -0.13818,0.4695 0.003,2.3048 0.003,2.30479 0.1516,0.68292 0.15158,0.68287 0.12343,0.39562 0.12341,0.39557 v 0.095 0.095 l 0.2715,0.57644 0.27152,0.57642 0.29263,0.42684 0.29259,0.42682 0.52944,0.51217 0.52941,0.51218 0.50702,0.25607 0.507,0.2561 h 1.15242 1.15237 l 0.29879,-0.1546 0.29876,-0.15464 0.22064,-0.12005 0.22062,-0.12005 0.37693,-0.36557 0.3769,-0.36561 0.23475,-0.28553 0.23474,-0.28549 v -0.0766 -0.0766 h 0.0948 0.0949 l -0.0483,0.27743 -0.0483,0.27744 -0.0951,0.72556 -0.0951,0.72559 -0.13721,0.51218 -0.13718,0.51218 -0.19471,0.39539 -0.19468,0.39538 -0.32378,0.24717 -0.32377,0.24716 -0.32302,0.14706 -0.32301,0.14705 h -1.13112 -1.13111 l -0.50867,-0.17879 -0.50869,-0.17878 -0.53405,-0.24971 -0.53409,-0.24968 v -0.0894 -0.0894 l -0.23473,0.0271 -0.23475,0.0271 -0.0651,0.89631 -0.0651,0.8963 0.0226,1.22193 0.0223,1.22194 0.21342,0.11557 0.21339,0.11559 0.34147,0.16203 0.34144,0.16199 0.4695,0.13466 0.46949,0.13468 0.68291,0.13089 0.68289,0.13092 1.36582,-0.0242 1.3658,-0.0239 z m -2.45352,-11.33387 -0.31943,-0.2092 -0.21316,-0.32211 -0.21316,-0.32209 -0.22556,-0.55205 -0.22555,-0.55206 -0.0416,-1.39128 -0.0415,-1.39128 0.18658,-0.57206 0.1866,-0.57206 0.14364,-0.29746 0.14364,-0.29747 0.1126,-0.11998 0.11256,-0.11999 0.12718,-0.19407 0.12715,-0.19409 0.28534,-0.13538 0.28534,-0.1354 h 0.40099 0.40103 l 0.29943,0.14209 0.29947,0.14212 0.31724,0.40131 0.31725,0.40136 0.0909,0.24617 0.091,0.24616 0.13751,0.45795 0.13753,0.45797 v 1.16393 1.16392 l -0.13879,0.59754 -0.13877,0.59755 -0.15906,0.36167 -0.15905,0.3617 -0.23639,0.26598 -0.2364,0.26598 -0.31672,0.16195 -0.31669,0.16194 -0.45156,-0.005 -0.45156,-0.005 z m -15.39396,10.11139 0.51882,-0.25624 0.36894,-0.35773 0.36892,-0.35774 0.28437,-0.51217 0.2844,-0.51218 0.17896,-0.70197 0.179,-0.70199 v -0.63861 -0.63859 l -0.2061,-0.56779 -0.20609,-0.56778 -0.22972,-0.23975 -0.22968,-0.23974 -0.53792,-0.26481 -0.5379,-0.26482 -0.49881,-0.0936 -0.49882,-0.0936 -0.65717,0.0493 -0.6572,0.0493 -0.56538,0.27566 -0.56538,0.27568 -0.47818,0.51647 -0.47813,0.51647 -0.22965,0.51266 -0.22964,0.51263 -0.13967,0.62936 -0.13968,0.62935 v 0.48037 0.48036 l 0.11964,0.39426 0.11967,0.39422 0.1696,0.33248 0.1696,0.33243 0.24334,0.24617 0.24332,0.2462 0.38412,0.1757 0.38417,0.17572 0.4268,0.0612 0.42682,0.0612 0.847,-0.0409 0.84697,-0.0409 z m -2.12743,-1.07527 -0.17074,-0.0411 -0.23787,-0.22407 -0.23788,-0.22407 -0.13508,-0.46468 -0.13508,-0.46468 0.096,-0.58148 0.096,-0.58149 0.17696,-0.45006 0.17697,-0.45005 0.21196,-0.27868 0.21198,-0.27866 0.41868,-0.21216 0.41868,-0.21217 h 0.28901 0.28897 l 0.29005,0.19524 0.29005,0.19525 0.12299,0.2529 0.12298,0.25292 0.0377,0.50443 0.0376,0.5044 -0.10517,0.58855 -0.10519,0.58855 -0.20945,0.37476 -0.20945,0.37477 -0.30362,0.26659 -0.30363,0.26659 -0.20948,0.0796 -0.20949,0.0796 -0.27188,-0.0101 -0.27185,-0.0101 z m -40.1436,1.04255 0.0743,-0.2561 0.12034,-0.68289 0.12035,-0.6829 0.13218,-0.68292 0.13217,-0.68288 0.12719,-0.68292 0.12721,-0.6829 0.10959,-0.45295 0.1096,-0.45294 0.12531,-0.0793 0.12532,-0.0793 h 0.69379 0.69379 l 0.0863,-0.10669 0.0863,-0.10669 0.0595,-0.52399 0.0595,-0.52398 -0.0713,-0.043 -0.0712,-0.0431 -2.46626,-0.0303 -2.46629,-0.0303 -0.1764,0.23623 -0.17641,0.23623 -0.004,0.44668 -0.004,0.44669 0.76827,0.0426 0.76826,0.0427 -0.008,0.34147 -0.008,0.34144 -0.19304,0.81094 -0.19304,0.81096 -0.10999,0.55487 -0.10999,0.55485 -0.1455,0.72557 -0.14549,0.7256 -0.0436,0.27701 -0.0436,0.27701 0.0505,0.13148 0.0505,0.13143 0.87053,-0.0242 0.87053,-0.0242 z m 4.12222,0.23343 0.0871,-0.0627 0.10498,-0.23878 0.10496,-0.23878 v -0.2391 -0.23911 l 0.16242,-0.77592 0.16241,-0.77596 0.056,-0.0906 0.056,-0.0906 h 0.33032 0.33032 l 0.12076,0.12075 0.12078,0.1208 0.0995,0.242 0.0995,0.242 0.19689,0.95877 0.19687,0.9588 0.0606,0.0605 0.0606,0.0606 0.80249,0.0284 0.80245,0.0284 0.0541,-0.17055 0.0541,-0.17054 -0.1275,-0.45036 -0.12748,-0.45034 -0.21767,-0.89633 -0.21766,-0.8963 -0.0524,-0.18606 -0.0524,-0.18603 0.34012,-0.17351 0.34009,-0.17351 0.26475,-0.33428 0.26475,-0.33425 0.18151,-0.47433 0.18152,-0.47429 -0.1509,-0.47973 -0.1509,-0.47968 -0.3043,-0.25088 -0.30434,-0.25085 -0.47214,-0.14999 -0.47213,-0.15002 -1.54513,0.0116 -1.54512,0.0116 -0.1667,0.0892 -0.1667,0.0892 -0.15431,0.83826 -0.15432,0.83829 -0.16831,0.8963 -0.1683,0.89631 -0.2984,1.45116 -0.29838,1.45116 -0.0477,0.20116 -0.0477,0.20114 0.11839,0.075 0.11839,0.075 h 0.72559 0.72558 z m 1.11108,-4.11242 -0.0598,-0.0967 0.0601,-0.64139 0.0601,-0.64142 0.12371,-0.1237 0.12369,-0.1237 h 0.33811 0.33808 l 0.30863,0.12893 0.30863,0.12896 0.11273,0.14847 0.11272,0.14851 0.003,0.26591 0.003,0.26592 -0.17105,0.21745 -0.17107,0.21748 -0.31975,0.0479 -0.31979,0.0479 -0.39538,0.0531 -0.39538,0.0531 z m 5.56993,4.07106 0.088,-0.1067 0.22,-1.19509 0.22003,-1.19509 0.13616,-0.68288 0.13617,-0.68292 0.11218,-0.46949 0.11222,-0.46949 0.19519,-0.98628 0.19519,-0.98629 -0.0555,-0.14479 -0.0555,-0.14477 h -0.85126 -0.85129 l -0.0546,0.0884 -0.0546,0.0884 -0.0752,0.48778 -0.0753,0.48783 -0.13034,0.76828 -0.13035,0.76825 -0.0857,0.46949 -0.0857,0.4695 -0.13471,0.68291 -0.13472,0.68291 -0.0791,0.30792 -0.079,0.30795 -0.12461,0.71367 -0.12456,0.71362 0.10301,0.0655 0.10302,0.0655 h 0.7365 0.73648 z m 3.16198,-0.66156 0.31933,-0.7256 1.28973,-0.0236 1.28974,-0.0236 0.0924,0.26524 0.0925,0.2652 0.0555,0.41839 0.0555,0.41836 0.1085,0.09 0.1085,0.0901 0.84101,-0.0245 0.84103,-0.0245 -0.0216,-0.42682 -0.0216,-0.4268 -0.11915,-0.59755 -0.11914,-0.59755 -0.14287,-0.85362 -0.14282,-0.85362 -0.0846,-0.32665 -0.0847,-0.32663 -0.12009,-0.74042 -0.12008,-0.74037 -0.0881,-0.42032 -0.0882,-0.4203 -0.14108,-0.15588 -0.14109,-0.1559 h -1.01028 -1.0103 l -0.29281,0.40351 -0.29286,0.40352 -0.41139,0.8129 -0.41138,0.8129 -0.49195,0.89634 -0.49195,0.8963 -0.0812,0.12805 -0.0813,0.12802 -0.39881,0.7256 -0.3988,0.72559 -0.29672,0.44895 -0.29676,0.44894 0.0499,0.13005 0.0499,0.13005 0.94431,-0.0242 0.94431,-0.0242 z m 1.90971,-2.11272 -0.53779,-0.0296 -0.0443,-0.11553 -0.0444,-0.11554 0.18422,-0.4138 0.18423,-0.41382 0.30301,-0.62218 0.30302,-0.6222 0.15367,-0.0822 0.15363,-0.0822 0.0499,0.40567 0.05,0.40565 0.0833,0.57131 0.0834,0.57128 v 0.26101 0.26098 h -0.0784 -0.0784 l -0.1137,0.0255 -0.11369,0.0255 z m 6.4264,2.79799 0.0513,-0.0829 0.13421,-0.70663 0.13419,-0.70662 0.10992,-0.55487 0.10992,-0.55482 0.14489,-0.68292 0.14489,-0.68292 0.10179,-0.75221 0.10183,-0.75225 0.12449,-0.0787 0.12448,-0.0787 h 0.6992 0.69921 l 0.0685,-0.1067 0.0685,-0.10669 0.10351,-0.38412 0.10349,-0.38416 0.004,-0.18293 0.004,-0.18294 -0.1067,-0.0391 -0.10669,-0.0392 -2.50001,0.0415 -2.50004,0.0415 -0.0705,0.13789 -0.0706,0.13789 -0.0545,0.48569 -0.0545,0.48573 0.10684,0.0664 0.10686,0.0665 0.6402,0.003 0.64024,0.003 0.0277,0.29191 0.0277,0.29192 -0.0952,0.37841 -0.0953,0.37842 -0.13064,0.6955 -0.13066,0.69546 -0.11828,0.64023 -0.11825,0.64022 -0.16395,0.76826 -0.16396,0.76828 0.0372,0.064 0.0372,0.064 h 0.88623 0.88625 z m 4.32816,-0.1731 0.0623,-0.21341 0.17848,-1.06704 0.17848,-1.06704 0.10563,-0.21338 0.10563,-0.21343 0.99315,-0.0239 0.99316,-0.0239 0.032,0.15203 0.0319,0.15205 -0.10337,0.46949 -0.10334,0.4695 -0.1046,0.55486 -0.10457,0.55486 -0.009,0.34144 -0.009,0.34144 0.83322,0.0245 0.8332,0.0245 0.0845,-0.22206 0.0845,-0.22207 -2.3e-4,-0.2292 -2.2e-4,-0.2292 0.13331,-0.59754 0.13328,-0.59754 0.12021,-0.4695 0.12025,-0.46949 0.12786,-0.64023 0.12789,-0.6402 0.0924,-0.59754 0.0925,-0.59755 0.0775,-0.56492 0.0775,-0.56494 0.0139,-0.0753 0.0139,-0.0753 -0.0101,-0.15252 -0.0101,-0.15248 -0.81975,0.0245 -0.81976,0.0245 -0.12102,0.35864 -0.12106,0.35864 -0.0841,0.40962 -0.084,0.40964 -0.0925,0.48233 -0.0925,0.48237 -0.18445,0.0296 -0.18445,0.0296 -0.84091,-0.0274 -0.84094,-0.0274 0.0442,-0.27136 0.0441,-0.27137 0.13741,-0.893 0.13738,-0.89302 -0.0422,-0.10998 -0.0422,-0.11002 h -0.80568 -0.80568 l -0.1324,0.44817 -0.13238,0.44813 -0.1277,0.68292 -0.12766,0.68291 -0.17819,0.98167 -0.17815,0.98167 -0.0812,0.34144 -0.0812,0.34147 -0.21839,0.97286 -0.21838,0.9729 0.0454,0.1185 0.0454,0.11847 0.87462,-0.0242 0.87462,-0.0242 z m 9.86439,0.14939 0.0844,-0.1067 0.0454,-0.52808 0.0455,-0.52805 -0.14079,-0.11409 -0.1408,-0.11411 -1.067,0.0465 -1.06704,0.0465 -0.11573,-0.0838 -0.11569,-0.0838 0.054,-0.51559 0.054,-0.5156 0.1216,-0.59751 0.1216,-0.59754 0.13828,-0.7256 0.13831,-0.72557 0.12531,-0.51218 0.12531,-0.51217 0.018,-0.38417 0.018,-0.38412 -0.76628,-0.0427 -0.76629,-0.0426 -0.12799,0.14976 -0.12795,0.14973 -0.10321,0.57584 -0.10325,0.57582 -0.1243,0.64024 -0.12434,0.64023 -0.22374,1.1524 -0.22376,1.15237 -0.12337,0.55487 -0.12338,0.55486 -0.0573,0.41491 -0.0573,0.41493 0.1178,0.0746 0.11782,0.0747 h 2.14495 2.14498 z m 9.91307,-0.008 0.0954,-0.11502 0.13279,-0.71728 0.13276,-0.71727 0.0746,-0.59802 0.0745,-0.598 0.0876,-0.38367 0.0876,-0.38368 0.0519,-0.40349 0.0519,-0.40347 0.0632,-0.039 0.0632,-0.039 0.10718,0.0663 0.10721,0.0662 0.11638,0.46166 0.11637,0.46162 0.14311,0.4695 0.14316,0.46948 0.11444,0.38413 0.11443,0.38416 0.24143,0.85362 0.24142,0.85361 1.05397,0.0242 1.05397,0.0242 0.1187,-0.0986 0.11873,-0.0985 v -0.21578 -0.21577 l 0.12829,-0.69144 0.1283,-0.69143 0.13844,-0.64023 0.13844,-0.64019 0.11076,-0.4695 0.1108,-0.46949 0.13224,-0.55486 0.13228,-0.55487 0.10098,-0.51217 0.10095,-0.51218 0.008,-0.34147 0.008,-0.34145 -0.69426,-0.0426 -0.69428,-0.0427 -0.13398,0.0268 -0.13402,0.0268 -0.0512,0.16141 -0.0512,0.16145 -0.0806,0.45197 -0.0806,0.45198 -0.0875,0.55485 -0.0874,0.55487 -0.1238,0.68288 -0.12378,0.68291 -0.049,0.32011 -0.0489,0.32012 h -0.15725 -0.15725 l -0.17455,-0.57622 -0.17451,-0.57618 -0.12873,-0.51219 -0.12869,-0.51217 -0.19516,-0.93205 -0.19519,-0.93204 -0.13006,-0.15291 -0.13008,-0.15289 -1.07443,-0.0171 -1.07443,-0.0171 -0.0847,0.0524 -0.0848,0.0524 -0.10147,0.45214 -0.10144,0.45213 -0.0801,0.51219 -0.0801,0.51218 -0.13148,0.72559 -0.13147,0.72557 -0.13089,0.59754 -0.13089,0.59754 -0.089,0.59755 -0.089,0.59755 -0.13463,0.48811 -0.13464,0.48814 0.1085,0.13076 0.10854,0.13073 h 0.70465 0.7047 z m 44.13298,-0.0167 0.0443,-0.0442 -0.0233,-3.43323 -0.0233,-3.43318 -0.0624,-0.0643 -0.0623,-0.0643 -12.20232,0.0216 -12.20234,0.0216 -0.0587,1.23777 -0.0587,1.23775 -0.045,0.34147 -0.0451,0.34144 -0.0868,0.42681 -0.0868,0.42681 -0.13654,0.46949 -0.13657,0.46952 -0.0907,0.25608 -0.0907,0.25611 -0.17841,0.38412 -0.17845,0.38413 -0.28098,0.37779 -0.28097,0.37781 0.0793,0.049 0.0793,0.049 13.04137,-0.0226 13.04136,-0.0226 z m -81.6818,-9.30257 0.64022,-0.12972 0.17074,-0.0778 0.17071,-0.0779 0.33579,-0.15099 0.3358,-0.15095 0.48411,-0.48115 0.48413,-0.48113 0.1257,-0.0483 0.12566,-0.0483 0.0168,0.64688 0.0168,0.64683 0.0938,0.11309 0.0938,0.11309 h 1.59439 1.59434 l 0.10244,-0.10245 0.10243,-0.10243 v -5.81985 -5.81981 l -0.12011,-0.0997 -0.12012,-0.0997 -1.71847,-0.04 -1.71842,-0.0401 -0.16296,0.0872 -0.16294,0.0872 -0.0258,3.39256 -0.0258,3.3926 -0.27424,0.55634 -0.27424,0.55634 -0.28062,0.27095 -0.28063,0.27095 -0.42681,0.0725 -0.42681,0.0724 -0.40131,-0.0779 -0.4013,-0.0779 -0.24149,-0.26693 -0.24152,-0.26695 -0.18948,-0.36542 -0.18948,-0.36544 v -3.52945 -3.52949 l -0.10924,-0.0907 -0.10928,-0.0907 -1.70869,-0.0601 -1.7087,-0.0601 -0.18808,0.10068 -0.18807,0.10068 v 3.61137 3.61135 l 0.0909,0.71782 0.0909,0.71779 0.17624,0.59755 0.17622,0.59754 0.37467,0.5688 0.37467,0.56876 0.28827,0.25311 0.28829,0.2531 0.47733,0.22585 0.47733,0.22581 0.44267,0.0839 0.44269,0.084 0.042,0.042 0.042,0.042 0.39125,-7e-5 0.39126,-6e-5 z m 16.70716,0.003 0.70159,-0.12409 0.15203,-0.0752 0.15203,-0.0752 0.33692,-0.16196 0.33692,-0.16193 0.51692,-0.51217 0.51692,-0.51218 0.14915,-0.19306 0.14919,-0.19304 v -0.0374 -0.0374 l 0.25607,-0.37944 0.2561,-0.37945 v -0.0601 -0.0601 l 0.12228,-0.26897 0.12231,-0.26902 0.1449,-0.55482 0.14492,-0.55487 0.0403,-1.28045 0.0404,-1.28044 -0.0899,-0.42683 -0.0899,-0.42682 -0.0904,-0.42328 -0.0904,-0.4233 -0.0847,-0.0847 -0.0846,-0.0845 -0.003,-0.1323 -0.003,-0.13232 -0.18965,-0.3866 -0.18961,-0.38662 -0.32641,-0.44468 -0.32643,-0.44468 -0.4843,-0.43168 -0.48431,-0.43172 -0.51885,-0.24516 -0.51886,-0.24517 -0.49982,-0.0924 -0.49986,-0.0924 h -0.43813 -0.43813 l -0.50382,0.0931 -0.50382,0.0931 -0.34415,0.17506 -0.34415,0.17506 -0.54174,0.37806 -0.54172,0.37802 -0.0502,-0.0502 -0.0502,-0.0502 0.0229,-3.0237 0.0229,-3.02371 -0.28444,-0.0515 -0.28446,-0.0515 -1.70724,0.0248 -1.70726,0.0252 -0.0216,8.52702 -0.0216,8.52704 0.0963,0.11596 0.0962,0.11596 h 1.60845 1.60844 l 0.0884,-0.16513 0.0884,-0.16512 v -0.67494 -0.67495 l 0.57619,0.57545 0.57618,0.57541 0.49715,0.26701 0.49714,0.26701 0.52721,0.11463 0.52721,0.11466 0.34148,0.009 0.34143,0.009 z m -2.85577,-3.47404 -0.36148,-0.19855 -0.34276,-0.45613 -0.34273,-0.45613 v -0.14509 -0.14506 l -0.10669,-0.10672 -0.1067,-0.1067 v -1.1777 -1.17767 l 0.0963,-0.11982 0.0962,-0.11983 0.0651,-0.21177 0.0651,-0.21175 0.18007,-0.24435 0.18005,-0.24433 0.36664,-0.24785 0.36664,-0.24784 0.44433,-0.0521 0.4443,-0.0521 0.34143,0.0924 0.34147,0.0924 0.3148,0.26001 0.31479,0.26005 0.25424,0.53807 0.25423,0.53806 0.0553,0.67653 0.0553,0.67649 -0.0832,0.51217 -0.0832,0.51219 -0.11598,0.29878 -0.11595,0.29876 -0.16842,0.25611 -0.16838,0.25607 -0.12873,0.13237 -0.12873,0.13238 -0.25092,0.1576 -0.25087,0.15761 -0.56005,0.0361 -0.56006,0.036 z m 51.40852,3.43651 0.59755,-0.0962 0.29875,-0.0937 0.29875,-0.0937 0.36636,-0.12566 0.36634,-0.12567 0.12677,-0.19347 0.12679,-0.19352 -0.0236,-1.31327 -0.0236,-1.31327 -0.26336,-0.0258 -0.26337,-0.0258 -0.10985,0.13239 -0.10989,0.1324 h -0.12605 -0.12602 l -0.26898,0.11902 -0.269,0.11905 -0.4695,0.15221 -0.46949,0.15222 h -0.98167 -0.98168 l -0.4268,-0.1605 -0.42684,-0.16048 -0.2134,-0.13248 -0.21341,-0.13249 -0.23511,-0.26069 -0.23513,-0.26072 -0.17035,-0.33415 -0.17035,-0.33412 v -0.1527 -0.15267 l 0.66155,-0.003 0.66157,-0.003 3.04718,0.006 3.04716,0.006 0.10028,-0.18735 0.10027,-0.18738 -0.0462,-0.60517 -0.0462,-0.60515 -0.0988,-0.76825 -0.0988,-0.76829 -0.12805,-0.46949 -0.12808,-0.46949 -0.26979,-0.55487 -0.26975,-0.55485 -0.25033,-0.34145 -0.25034,-0.34144 -0.38776,-0.40548 -0.38777,-0.40548 h -0.0818 -0.0818 l -0.13476,-0.12186 -0.1348,-0.12186 -0.51217,-0.25198 -0.51218,-0.25194 -0.6914,-0.13837 -0.69143,-0.13835 h -0.36338 -0.36338 l -0.7805,0.13625 -0.78049,0.13622 -0.26901,0.11986 -0.26897,0.11985 h -0.0758 -0.0758 l -0.29546,0.15258 -0.2955,0.1526 -0.25607,0.16099 -0.25612,0.16099 -0.60163,0.6041 -0.60161,0.60406 -0.4373,0.8963 -0.43726,0.8963 -0.10408,0.59755 -0.10408,0.59755 -0.0379,0.90008 -0.0379,0.90003 0.13998,0.67914 0.14,0.67918 0.0805,0.081 0.0805,0.0811 v 0.15856 0.15855 l 0.22323,0.40057 0.22326,0.40055 0.17894,0.25611 0.17896,0.25607 0.47278,0.50208 0.47275,0.50207 0.44452,0.33022 0.44453,0.33022 h 0.0676 0.0676 l 0.21342,0.11101 0.21343,0.11102 0.45797,0.14947 0.45801,0.14951 0.73282,0.0833 0.73283,0.0832 0.047,0.0481 0.047,0.0482 0.85362,-0.0426 0.85362,-0.0426 z m -3.58437,-7.42655 -0.85271,-0.0487 -0.029,-0.15251 -0.029,-0.15251 0.1907,-0.48772 0.19068,-0.48769 0.41276,-0.39916 0.41278,-0.39912 0.45582,-0.10202 0.45578,-0.10198 0.46507,0.13517 0.46507,0.13522 0.30847,0.28056 0.30847,0.28059 0.15018,0.29792 0.15019,0.29792 0.008,0.47033 0.008,0.47036 -1.10973,0.006 -1.10972,0.006 z m -34.89296,7.28917 0.10673,-0.034 v -5.87137 -5.87137 l -0.0809,-0.12806 -0.081,-0.12805 -1.82522,0.008 -1.82525,0.008 -0.0985,0.0609 -0.0985,0.0609 v 5.93041 5.93045 l 0.18639,0.0689 0.18638,0.0689 1.71291,-0.0351 1.71295,-0.0351 z m 47.21795,-0.10775 0.0787,-0.14712 0.008,-3.20374 0.008,-3.20372 0.1544,-0.43846 0.15442,-0.43845 0.23394,-0.37013 0.23397,-0.37015 0.30646,-0.21 0.30648,-0.20997 0.62331,0.005 0.6233,0.005 0.31089,0.23709 0.31085,0.23711 0.18448,0.39557 0.18445,0.39558 0.0261,3.58341 0.0261,3.58339 0.13689,0.15122 0.13686,0.15125 h 1.81703 1.81703 l 0.052,-0.084 0.052,-0.0842 -0.006,-4.15274 -0.006,-4.15275 -0.15977,-0.61004 -0.15979,-0.61002 -0.27224,-0.50322 -0.27227,-0.5032 -0.2118,-0.27772 -0.21184,-0.27772 -0.44272,-0.32902 -0.44272,-0.32902 -0.34144,-0.14164 -0.34146,-0.14163 -0.65252,-0.14651 -0.65253,-0.14651 -0.75596,0.14367 -0.75595,0.14366 -0.6382,0.31797 -0.63819,0.31795 -0.49286,0.49085 -0.49289,0.49085 h -0.0854 -0.0854 v -0.60316 -0.60316 l -0.0884,-0.16512 -0.0884,-0.1651 h -1.55988 -1.55989 l -0.14284,0.1067 -0.14282,0.10669 -0.052,5.65083 -0.052,5.65082 0.0584,0.2663 0.0585,0.26627 0.15689,0.0582 0.1569,0.0583 1.75453,-0.0248 1.7545,-0.0248 z m -81.15062,0.13246 0.0204,-0.0213 0.0436,-9.21918 0.0436,-9.21919 3.52369,-0.0223 3.52371,-0.0223 0.0828,-0.21801 0.0828,-0.21803 v -1.69614 -1.69613 l -0.0833,-0.21898 -0.0832,-0.21897 h -9.25563 -9.25563 l -0.0788,0.23475 -0.0788,0.23475 0.0267,1.79247 0.0267,1.79248 0.041,0.10685 0.041,0.10686 h 3.58792 3.58792 v 9.15944 9.15943 l 0.10244,0.10244 0.10243,0.10243 h 1.98896 1.98895 z m 40.43592,-0.13876 0.0857,-0.16012 0.0113,-2.6782 0.0113,-2.67819 0.0784,-0.64023 0.0783,-0.64023 0.14781,-0.46949 0.14782,-0.4695 0.38929,-0.39334 0.38929,-0.39336 0.39629,-0.0595 0.39629,-0.0595 0.32414,0.0567 0.32415,0.0567 0.27272,0.18106 0.27275,0.18109 0.10441,0.21498 0.10443,0.21496 0.1669,0.42682 0.16689,0.42683 0.0164,3.41851 0.0164,3.41851 0.0635,0.10269 0.0635,0.10273 h 1.78147 1.7815 l 0.13648,-0.13648 0.13647,-0.1365 -0.0433,-3.68351 -0.0433,-3.68348 -0.08,-0.8423 -0.0799,-0.84227 -0.0925,-0.0924 -0.0924,-0.0925 v -0.11566 -0.11564 l -0.18107,-0.4008 -0.18106,-0.40081 -0.29136,-0.39958 -0.29141,-0.39957 -0.42406,-0.30466 -0.42407,-0.30467 h -0.0743 -0.0744 l -0.39541,-0.17489 -0.39542,-0.17494 -0.71924,-0.0508 -0.71928,-0.0508 -0.5394,0.10147 -0.53941,0.10147 -0.25607,0.11569 -0.25611,0.1157 -0.33728,0.1579 -0.33731,0.15789 -0.6219,0.60577 -0.62191,0.60581 -0.0438,-0.0438 -0.0438,-0.0438 v -0.7022 -0.70225 l -0.13502,-0.0518 -0.13503,-0.0518 -1.0387,-0.007 -1.03871,-0.007 -0.50054,-0.0624 -0.50052,-0.0624 -0.11199,0.11198 -0.11199,0.11199 0.0252,5.88054 0.0252,5.8805 0.0589,0.0951 0.0589,0.0951 h 1.82726 1.82726 z m -33.38828,-13.42965 0.10245,-0.10243 v -1.45972 -1.45969 l -0.10245,-0.10243 -0.10243,-0.10243 h -1.42364 -1.42364 l -0.0967,0.11663 -0.0968,0.11663 -0.0548,1.32944 -0.0548,1.32943 0.14317,0.21852 0.14317,0.21848 h 1.43211 1.43213 z m 4.57701,0.0506 0.13503,-0.0518 v -1.51033 -1.51031 l -0.10244,-0.10243 -0.10243,-0.10243 h -1.38442 -1.38444 l -0.13502,0.0518 -0.13502,0.0518 v 1.5103 1.51034 l 0.10243,0.10243 0.10244,0.10243 h 1.38442 1.38444 z m 22.31231,-0.47743 0.10244,-0.10244 v -1.30049 -1.30049 l -0.0833,-0.21897 -0.0832,-0.21898 h -1.82036 -1.82031 l -0.10243,0.10244 -0.10244,0.10244 v 1.46968 1.46965 l 0.10669,0.043 0.1067,0.043 1.79689,0.007 1.7969,0.007 z m 15.4102,0.0201 0.75344,-0.0793 0.39896,-0.14906 0.399,-0.14905 0.34144,-0.21117 0.34144,-0.21112 0.3439,-0.36355 0.34389,-0.3635 0.36118,-0.6313 0.36122,-0.63128 0.1294,-0.46353 0.12938,-0.46352 0.0905,-0.6402 0.0905,-0.64024 -0.0525,-0.55485 -0.0525,-0.55487 -0.17089,-0.5205 -0.1709,-0.52047 -0.19861,-0.26919 -0.19858,-0.26918 -0.37499,-0.28053 -0.37496,-0.28052 -0.34145,-0.14196 -0.34147,-0.14196 -0.47011,-0.0986 -0.4701,-0.0986 -0.81032,0.0431 -0.81036,0.0431 -0.34301,0.0787 -0.34306,0.0787 -0.56247,0.27692 -0.56248,0.27691 -0.50963,0.50801 -0.50959,0.50806 -0.31102,0.61729 -0.31102,0.61726 -0.13809,0.64022 -0.13805,0.64023 0.0293,1.06704 0.0293,1.06704 0.24552,0.48517 0.24549,0.48518 0.33366,0.33701 0.33371,0.33702 0.57286,0.28225 0.5729,0.28223 0.55485,0.0571 0.55487,0.0572 0.12805,0.0107 0.12802,0.0107 z m -1.18022,-1.75292 -0.34145,-0.12043 -0.27191,-0.32147 -0.27192,-0.32147 -0.0565,-0.60329 -0.0565,-0.60332 0.0825,-0.68263 0.0825,-0.68265 0.24084,-0.50915 0.24085,-0.50918 0.39873,-0.38841 0.39874,-0.38841 0.34183,-0.10244 0.34183,-0.10241 0.28885,0.006 0.28889,0.006 0.2943,0.1063 0.2943,0.10634 0.23666,0.29266 0.23668,0.29262 0.0836,0.59136 0.0836,0.59135 -0.0844,0.68911 -0.0844,0.68907 -0.14338,0.38415 -0.14338,0.38414 -0.23639,0.35228 -0.23639,0.3523 -0.23578,0.15987 -0.23579,0.1599 -0.29875,0.14647 -0.29879,0.14651 h -0.29876 -0.29878 z m -9.15376,1.64146 0.0397,-0.10499 0.15005,-0.81096 0.15007,-0.81094 0.14392,-0.59755 0.14393,-0.59754 1.10462,-0.0549 1.10462,-0.0549 0.34147,-0.0939 0.34145,-0.0939 0.44704,-0.2577 0.447,-0.25768 0.32125,-0.40664 0.32124,-0.40665 0.13857,-0.33917 0.13857,-0.33922 0.0961,-0.40671 0.0961,-0.40671 v -0.23965 -0.23965 l -0.1304,-0.38277 -0.13044,-0.38281 -0.25676,-0.31146 -0.25675,-0.31147 -0.53046,-0.25494 -0.53047,-0.25495 -2.04745,-0.0265 -2.04746,-0.0265 -0.14295,0.29876 -0.14296,0.29879 -0.0555,0.38412 -0.0554,0.38413 -0.12563,0.68292 -0.12563,0.6829 -0.0897,0.33225 -0.0897,0.33225 -0.0678,0.39331 -0.0678,0.39336 -0.21593,0.85362 -0.21595,0.85362 -0.13747,0.74834 -0.13744,0.7483 -0.0543,0.51905 -0.0542,0.51902 0.11706,0.0724 0.11705,0.0724 0.95454,0.003 0.95454,0.003 z m 1.10327,-4.69497 -0.09,-0.1084 0.0723,-0.55315 0.0723,-0.55316 0.10853,-0.45368 0.10853,-0.45368 0.13344,-0.0698 0.13348,-0.0698 0.51256,0.0837 0.51256,0.0838 0.25569,0.2039 0.25571,0.2039 v 0.46269 0.46269 l -0.26419,0.32801 -0.26418,0.32805 -0.29069,0.10189 -0.29066,0.10189 -0.43771,0.005 -0.43768,0.005 z m 18.08061,4.59575 0.38416,-0.14167 0.35228,-0.16231 0.35228,-0.16228 0.31459,-0.36731 0.31457,-0.36729 0.17651,-0.38412 0.17651,-0.38417 0.007,-0.68287 0.007,-0.68292 -0.18529,-0.35305 -0.18529,-0.35306 -0.32333,-0.25459 -0.32335,-0.25455 -0.80351,-0.33138 -0.80348,-0.33134 -0.32757,-0.30689 -0.32753,-0.30691 v -0.22317 -0.22317 l 0.23319,-0.21625 0.2332,-0.21623 0.41026,-0.12028 0.41025,-0.12024 0.57297,0.0735 0.57295,0.0736 0.45876,0.13793 0.45878,0.13796 0.0742,-0.0742 0.0743,-0.0743 0.16239,-0.61852 0.16237,-0.61852 -0.0437,-0.16735 -0.0437,-0.16735 -0.0113,-0.003 -0.0113,-0.003 -0.68288,-0.12338 -0.68291,-0.1234 -0.76828,-0.003 h -0.76826 l -0.63229,0.13189 -0.63229,0.13192 -0.44804,0.21936 -0.44804,0.21939 -0.33586,0.35289 -0.33586,0.35286 -0.15115,0.41181 -0.15118,0.41181 -0.0119,0.65523 -0.0119,0.65523 0.15771,0.25611 0.15767,0.25607 0.39715,0.30427 0.3972,0.30424 0.46949,0.19542 0.46949,0.19545 0.0811,0.0765 0.081,0.0765 h 0.15342 0.15341 l 0.34169,0.3087 0.34171,0.30872 v 0.26982 0.26985 l -0.13935,0.19897 -0.13938,0.19896 -0.35147,0.15961 -0.35147,0.1596 -0.60778,0.003 -0.60773,0.003 -0.53683,-0.17148 -0.53683,-0.17148 -0.10983,-0.0912 -0.10982,-0.0911 -0.19677,0.0281 -0.19674,0.0277 -0.0525,0.43013 -0.0525,0.4301 -0.12928,0.25278 -0.12931,0.25282 0.0669,0.17732 0.0669,0.17734 0.37099,0.1368 0.37099,0.13683 0.17071,0.0433 0.17074,0.0433 1.49384,-0.0277 1.49385,-0.0277 z m 20.53506,0.0303 0.67762,-0.1773 0.41448,-0.22532 0.41446,-0.22533 0.31124,-0.35359 0.31127,-0.35361 0.14967,-0.41752 0.14967,-0.41755 -3.2e-4,-0.47562 -3.3e-4,-0.47565 -0.13876,-0.40721 -0.13872,-0.40719 -0.2949,-0.29485 -0.29485,-0.29488 -0.72043,-0.33748 -0.72041,-0.3375 h -0.085 -0.085 l -0.29524,-0.19206 -0.29527,-0.19209 -0.0974,-0.23307 -0.0974,-0.2331 0.0525,-0.19371 0.0525,-0.19374 0.21958,-0.15813 0.21962,-0.15811 0.52721,-0.0879 0.52722,-0.088 0.6829,0.14563 0.68289,0.14561 0.23814,0.0151 0.2381,0.0151 0.20122,-0.4926 0.20125,-0.49259 0.0501,-0.19968 0.0501,-0.19964 -0.15225,-0.1378 -0.15225,-0.13777 -0.36928,-0.13028 -0.36929,-0.13031 -1.07765,1.1e-4 -1.07761,9e-5 -0.59755,0.11711 -0.59755,0.11712 -0.44336,0.23388 -0.44332,0.23387 -0.28456,0.31048 -0.28454,0.31049 -0.19412,0.33237 -0.19409,0.33238 -0.0481,0.52124 -0.0481,0.52125 0.10079,0.37183 0.10079,0.37179 0.48511,0.49232 0.48515,0.4923 0.76053,0.28342 0.76057,0.28341 0.28514,0.28513 0.28515,0.28515 v 0.21358 0.21355 l -0.14109,0.21533 -0.14109,0.21532 -0.32501,0.1658 -0.32502,0.1658 h -0.63462 -0.63465 l -0.58519,-0.17964 -0.58519,-0.17967 -0.10201,-0.0829 -0.10199,-0.0829 -0.19232,0.028 -0.19229,0.0277 -0.16454,0.76311 -0.16453,0.76312 0.0838,0.13293 0.0838,0.13289 0.46039,0.14448 0.46036,0.14444 1.24301,0.005 1.24303,0.005 z m -13.86505,-0.46298 0.14915,-0.51219 0.14009,-0.72555 0.14009,-0.7256 0.0884,-0.38412 0.0883,-0.38413 0.1245,-0.64024 0.12448,-0.64022 0.11237,-0.55487 0.11237,-0.55485 0.0958,-0.4665 0.0958,-0.46649 0.0885,-0.0884 0.0885,-0.0883 h 0.95493 0.95492 l 0.11421,-0.34147 0.11425,-0.34144 0.0148,-0.50479 0.0148,-0.50479 -3.14879,0.006 -3.14881,0.006 -0.0611,0.0989 -0.0611,0.0989 -0.10791,0.57199 -0.10793,0.57197 0.034,0.16886 0.0341,0.1689 0.8739,-0.0245 0.87389,-0.0245 0.0716,0.19328 0.0715,0.19333 -0.0632,0.25795 -0.0632,0.25797 -0.13098,0.64023 -0.131,0.6402 -0.13905,0.7256 -0.13908,0.72559 -0.11857,0.55486 -0.11857,0.55483 -0.12699,0.55486 -0.12699,0.55487 -0.0579,0.39941 -0.058,0.39942 0.0581,0.094 0.0581,0.094 1.03436,-0.0239 1.03438,-0.0239 z m 22.18209,0.2006 0.25666,-0.35424 v -0.0701 -0.0702 l 0.38412,-0.64972 0.38413,-0.64974 v -0.033 -0.0331 l 0.43126,-0.74954 0.43127,-0.74953 0.0756,-0.12806 0.0757,-0.12805 0.30446,-0.62858 0.30443,-0.62861 0.54415,-0.90792 0.54412,-0.90795 0.27021,-0.54993 0.2702,-0.54989 -0.0252,-0.17568 -0.0252,-0.17567 -1.02436,-0.0216 -1.02435,-0.0213 -0.10557,0.0684 -0.1056,0.0685 -1.33601,2.6419 -1.33604,2.6419 -0.15384,0.30544 -0.15386,0.30543 -0.12299,0.10205 -0.12298,0.10208 -0.0582,-0.57822 -0.0582,-0.57822 -0.12269,-0.9647 -0.1227,-0.9647 -0.005,-0.8279 -0.005,-0.82794 -0.10115,-0.68292 -0.10115,-0.68287 h -1.10972 -1.10972 l 0.0226,0.72556 0.0226,0.7256 0.1206,0.55486 0.12063,0.55486 0.0996,0.81093 0.0997,0.81097 0.11844,0.98167 0.11843,0.98167 0.0854,0.62549 0.0854,0.62548 0.0919,0.35619 0.0919,0.35618 0.0433,0.14938 0.0433,0.14938 h 1.31682 1.31685 z m -13.33306,-2.14346 0.0893,-0.10756 0.0239,-0.64082 0.0239,-0.64084 -0.0594,-0.096 -0.0594,-0.096 -2.86189,-0.004 -2.8619,-0.004 -0.11741,0.18664 -0.11744,0.18667 -0.0585,0.49534 -0.0585,0.49537 0.0849,0.10217 0.0849,0.10219 2.75892,0.0271 2.75888,0.0271 0.0369,0.0369 0.0369,0.0369 h 0.10337 0.10338 z"
         id="path10651" /><path
         style="fill:#4e628d;fill-opacity:1;stroke-width:0.323097"
         d="m 797.59874,-885.1532 -3.16297,-0.0456 0.01,-0.25646 0.01,-0.25645 0.19018,-0.47016 0.19017,-0.47021 0.0797,-0.34192 0.0797,-0.34193 0.0764,-0.17098 0.0764,-0.17099 0.10187,-0.51292 0.10187,-0.51291 0.0836,-0.42742 0.0836,-0.42742 0.004,-1.45325 0.004,-1.45326 -0.10346,-0.38468 -0.10346,-0.3847 -0.0837,-0.47017 -0.0838,-0.47017 -0.0811,-0.0813 -0.0811,-0.0813 v -0.11583 -0.11579 l -0.17616,-0.40138 -0.17616,-0.40139 -0.2556,-0.50106 -0.25559,-0.50104 -0.35369,-0.47874 -0.35367,-0.47875 -0.73193,-0.73648 -0.73194,-0.73646 -0.47017,-0.34963 -0.47018,-0.34964 -0.42742,-0.30381 -0.42742,-0.30385 -0.6839,-0.41898 -0.68387,-0.419 -0.76939,-0.39011 -0.76937,-0.39013 -0.38468,-0.16884 -0.38469,-0.16882 -0.42742,-0.18778 -0.42743,-0.18776 -0.42742,-0.19477 -0.42745,-0.19473 -0.38468,-0.1459 -0.38468,-0.14591 -0.25646,-0.11097 -0.25645,-0.11097 -0.47017,-0.19101 -0.47018,-0.19102 -1.53874,-0.78968 -1.53874,-0.78965 -0.42743,-0.23647 -0.42743,-0.23644 -0.68389,-0.42145 -0.68388,-0.42141 -0.29921,-0.21153 -0.29919,-0.21156 -0.3214,-0.26229 -0.32139,-0.2623 -0.30191,-0.20487 -0.3019,-0.20488 -0.35978,-0.31775 -0.3598,-0.31773 -0.62969,-0.64416 -0.62971,-0.64413 -0.35422,-0.47016 -0.35423,-0.47019 -0.36426,-0.69736 -0.36422,-0.69733 -0.17547,-0.49945 -0.17546,-0.49947 -0.0719,-0.38467 -0.0719,-0.38469 -0.0975,-0.25279 -0.0974,-0.25275 -0.004,-1.48434 -0.004,-1.48437 0.14607,-0.61371 0.14607,-0.61376 0.24975,-0.81209 0.24973,-0.81214 0.30568,-0.72661 0.30568,-0.72664 0.29338,-0.58207 0.29338,-0.58205 0.54606,-0.82845 0.54606,-0.82842 0.35013,-0.49462 0.3501,-0.49441 0.3811,-0.46784 0.3811,-0.4679 0.66468,-0.69586 0.66468,-0.69584 1.11129,-1.12089 1.11132,-1.12088 0.98309,-0.85046 0.98309,-0.85045 0.0428,-0.0509 0.0428,-0.0509 0.63094,-0.50835 0.63094,-0.50833 0.30939,-0.2331 0.30941,-0.23308 0.29259,-0.23707 0.29261,-0.23711 1.97278,-1.4882 1.97277,-1.48819 0.94034,-0.66519 0.94034,-0.66512 0.0854,-0.0737 0.0854,-0.0737 0.76938,-0.55445 0.76938,-0.55437 0.55564,-0.40564 0.55566,-0.40564 0.91627,-0.65976 0.91627,-0.65971 0.57974,-0.41112 0.57973,-0.41112 0.68388,-0.49138 0.6839,-0.49133 0.5129,-0.32042 0.51291,-0.32041 0.34195,-0.24359 0.34195,-0.24365 0.72662,-0.4743 0.72663,-0.4743 1.11131,-0.75891 1.11133,-0.75897 0.025,-0.16694 0.025,-0.16701 -1.00798,-0.98527 -1.008,-0.98527 -1.02581,-0.76584 -1.02585,-0.76582 -0.38468,-0.2521 -0.38468,-0.25209 -1.02583,-0.52271 -1.02583,-0.52265 -0.5984,-0.20025 -0.5984,-0.20023 -0.26939,-0.11335 -0.26936,-0.11335 h -0.14513 -0.14513 l -0.26939,-0.11993 -0.26937,-0.1199 -0.55565,-0.13185 -0.55567,-0.13192 -0.72662,-0.13039 -0.72663,-0.13034 -0.94035,-0.10937 -0.94033,-0.10938 h -2.99201 -2.992 l -1.41051,0.14991 -1.41052,0.14992 -0.76938,0.0913 -0.76935,0.0911 -0.59841,0.11323 -0.59841,0.11323 -0.81211,0.14345 -0.81211,0.14347 -0.81212,0.15573 -0.81211,0.15578 -0.38469,0.0476 -0.38468,0.0468 0.10688,-0.0455 0.10688,-0.0455 v -0.11537 -0.11529 l 0.19234,-0.0594 0.19235,-0.0594 1.28227,-0.62138 1.28229,-0.62145 0.21372,-0.0633 0.21371,-0.0639 1.04248,-0.50095 1.04246,-0.50095 h 0.0398 0.0398 l 0.67014,-0.30525 0.67014,-0.30526 0.17096,-0.0748 0.17096,-0.0748 0.42744,-0.18033 0.42742,-0.18026 0.17098,-0.077 0.17098,-0.0769 0.51291,-0.20823 0.5129,-0.20823 0.38469,-0.13315 0.38469,-0.13319 0.47017,-0.17874 0.47018,-0.17874 0.5129,-0.16642 0.51292,-0.1664 0.47018,-0.13838 0.47018,-0.13845 0.34193,-0.11085 0.34195,-0.11085 0.76936,-0.18125 0.76938,-0.18126 0.29919,-0.0825 0.2992,-0.0825 0.51293,-0.0951 0.51291,-0.0951 0.81211,-0.12031 0.81211,-0.1203 0.85487,-0.0848 0.85485,-0.0848 h 1.83794 1.83795 l 0.5984,0.0877 0.5984,0.0877 0.59839,0.0734 0.5984,0.0733 0.68389,0.18548 0.68389,0.18541 0.3846,0.0805 0.3846,0.0805 0.76946,0.26403 0.76946,0.26396 0.72663,0.28685 0.72662,0.28678 0.44837,0.21719 0.44841,0.21714 h 0.0821 0.0821 l 0.43494,0.25645 0.43497,0.25644 h 0.0388 0.0388 l 0.79095,0.4371 0.79095,0.43704 1.19679,0.79947 1.1968,0.79948 1.1968,0.95426 1.19681,0.95427 0.0428,0.0586 0.0428,0.0586 0.76936,0.6479 0.76937,0.64784 1.0265,1.05645 1.0265,1.05643 0.85419,0.93423 0.85418,0.93415 0.20341,0.2199 0.20342,0.2199 0.48012,0.59838 0.48012,0.59843 0.0431,0.0429 0.0431,0.0429 0.33942,0.42741 0.33944,0.42747 0.80202,0.9403 0.802,0.94034 0.47639,0.54329 0.47639,0.54316 0.60481,0.79235 0.60479,0.79228 0.34194,0.38157 0.34194,0.38157 0.38468,0.45682 0.3847,0.45689 0.34193,0.39832 0.34195,0.39838 1.67744,1.87294 1.67743,1.87299 1.35731,1.37442 1.3573,1.37443 0.51574,0.46348 0.51575,0.46355 0.38187,0.28176 0.38184,0.28171 0.47017,0.34641 0.47018,0.34628 1.20843,0.59013 1.20847,0.59005 h 0.0922 0.0924 l 0.28073,0.118 0.28072,0.11794 0.34195,0.11017 0.34195,0.11005 0.29918,0.0614 0.2992,0.0606 0.85486,0.21417 0.85486,0.21416 0.85486,0.18594 0.85485,0.18593 0.2992,0.0826 0.29921,0.0826 0.38468,0.0765 0.38469,0.0764 0.47017,0.14195 0.47016,0.14192 0.45382,0.11458 0.45382,0.11456 0.21783,0.14274 0.21784,0.14274 -0.0749,0.0749 -0.075,0.075 -0.59672,0.22333 -0.59672,0.22326 -0.5984,0.19871 -0.59839,0.19867 -0.89761,0.25256 -0.8976,0.25253 -0.64113,0.13655 -0.64115,0.13654 -0.68389,0.1282 -0.68388,0.12824 -0.8976,0.12697 -0.8976,0.12701 -1.82314,0.10601 -1.82312,0.10601 -1.93825,-0.10666 -1.93825,-0.10677 -0.96974,-0.16534 -0.96974,-0.16537 -0.0629,-0.0388 -0.0629,-0.0388 -0.57533,-0.0919 -0.57533,-0.0919 -0.14452,-0.0716 -0.1445,-0.0716 -0.29922,-0.10452 -0.29919,-0.10452 -0.34194,-0.0796 -0.34194,-0.0795 -0.17097,-0.0751 -0.17098,-0.0751 -0.76937,-0.27655 -0.76937,-0.27657 -0.51292,-0.20981 -0.51291,-0.20988 -0.72663,-0.36745 -0.72662,-0.36738 -0.21372,-0.11893 -0.21372,-0.11891 -0.38468,-0.24352 -0.38469,-0.24344 -0.68777,-0.45822 -0.68777,-0.45827 -0.93646,-0.7436 -0.93645,-0.74368 -1.32503,-1.33814 -1.32503,-1.33822 -0.47017,0.06 -0.47018,0.06 -0.47017,0.10346 -0.47016,0.10346 -0.51293,0.13317 -0.51291,0.13315 -0.85486,0.25125 -0.85485,0.25116 -0.85485,0.28665 -0.85487,0.28666 -0.34195,0.13975 -0.34193,0.13977 -0.45114,0.20849 -0.45113,0.20849 h -0.0452 -0.0451 l -0.40137,0.18013 -0.40137,0.18013 -0.81211,0.40485 -0.81211,0.40486 -0.56791,0.3489 -0.56791,0.34885 -0.58615,0.32148 -0.58615,0.32147 -0.85485,0.63031 -0.85486,0.63035 -0.18142,0.14464 -0.18142,0.14464 -0.53112,0.47022 -0.53113,0.4701 -0.30941,0.42744 -0.3094,0.42741 -0.38857,0.43589 -0.38855,0.43586 -0.40095,0.80367 -0.40095,0.80366 -0.12099,0.34194 -0.12098,0.34197 -0.33292,0.85485 -0.33293,0.85483 6.6e-4,1.06858 6.7e-4,1.06856 0.31927,0.67415 0.31929,0.67414 0.47358,0.57886 0.47359,0.57886 0.36009,0.33434 0.3601,0.33431 0.30175,0.33611 0.30175,0.33613 1.02428,0.98307 1.02426,0.98308 0.94676,0.89759 0.94677,0.89761 0.84753,0.98311 0.84754,0.98307 0.60409,0.81211 0.60407,0.8121 0.25523,0.42746 0.25524,0.42742 0.36305,0.76935 0.36303,0.7694 0.0813,0.14842 0.0813,0.14843 v 0.0812 0.0812 l 0.10038,0.24067 0.10048,0.24064 0.11699,0.47017 0.117,0.47017 0.12361,0.64116 0.12361,0.64114 0.0784,0.94033 0.0784,0.94035 -0.0766,1.28227 -0.0766,1.28231 -0.12231,0.68388 -0.12228,0.68388 -0.12895,0.42742 -0.12895,0.42744 -0.10134,0.34104 -0.10133,0.34102 -0.18694,0.38559 -0.18693,0.38561 -0.33504,0.59841 -0.33506,0.59837 -0.54944,0.81213 -0.54945,0.81211 -0.2209,0.29922 -0.22087,0.29917 -1.01107,1.2176 -1.01107,1.21759 -0.27289,0.20764 -0.2729,0.20767 -0.21371,0.031 -0.21371,0.031 z m -55.87919,-0.0659 -0.48444,-0.0306 -0.10208,-0.1231 -0.10218,-0.12313 0.3729,-0.16 0.37289,-0.15999 0.42742,-0.19426 0.42744,-0.19425 0.6918,-0.31895 0.6918,-0.31899 0.91474,-0.546 0.91471,-0.54602 0.53062,-0.30268 0.53061,-0.30269 0.60034,-0.38122 0.60033,-0.38118 0.16903,-0.10744 0.16904,-0.10746 0.12823,-0.0568 0.12823,-0.0568 0.8808,-0.60512 0.88079,-0.60513 0.14469,-0.0855 0.1447,-0.0854 0.31183,-0.23507 0.31185,-0.23509 h 0.0596 0.0596 l 0.44106,-0.36807 0.44105,-0.36807 0.25646,-0.16029 0.25646,-0.16025 0.78173,-0.66419 0.78174,-0.6642 0.24409,-0.22632 0.24411,-0.22634 0.67679,-0.56867 0.67679,-0.56867 0.77021,-0.72665 0.77021,-0.72664 0.69148,-0.68387 0.69147,-0.68389 0.42934,-0.47018 0.42935,-0.47015 0.40808,-0.51293 0.40809,-0.51291 0.14155,-0.17099 0.14154,-0.17094 1.1141,-1.47461 1.11408,-1.47458 0.64114,-0.90015 0.64115,-0.9001 0.12822,-0.16155 0.12824,-0.16155 0.17096,-0.238 0.17098,-0.23802 0.22289,-0.26048 0.22292,-0.26047 0.38009,-0.55563 0.38007,-0.55567 0.41872,-0.5984 0.4187,-0.59841 0.45394,-0.53659 0.45391,-0.53662 0.48007,-0.74568 0.48004,-0.74567 0.25277,-0.32059 0.25276,-0.32056 h 0.12541 0.12541 l 0.13035,0.32056 0.13035,0.32059 0.16448,0.34755 0.16449,0.34755 v 0.0619 0.0619 l 0.16139,0.23162 0.1614,0.2316 0.32908,0.51292 0.32907,0.51291 0.64014,0.72664 0.64015,0.72663 0.093,0.0971 0.0931,0.0971 0.67838,0.56801 0.67839,0.568 0.5984,0.41479 0.59839,0.41482 0.43463,0.24514 0.43461,0.2451 0.84768,0.50936 0.84767,0.50936 0.39905,0.19273 0.39903,0.19273 0.0533,0.0862 0.0533,0.0863 -0.1468,0.22403 -0.1468,0.22403 -1.25514,1.08206 -1.25514,1.082 -0.67464,0.55555 -0.67464,0.55552 -0.14994,0.13503 -0.14994,0.13501 -0.4743,0.33529 -0.47428,0.33527 -0.57258,0.42345 -0.57256,0.42345 -0.11324,0.11119 -0.11324,0.11119 -0.39965,0.27338 -0.39964,0.27336 -1.02584,0.78256 -1.02583,0.78259 -0.5984,0.41151 -0.59839,0.41156 -0.81212,0.55279 -0.81211,0.55276 -0.0445,0.0685 -0.0445,0.0685 -0.21197,0.0906 -0.21198,0.0906 -0.17017,0.10712 -0.17018,0.10699 -0.42822,0.26953 -0.42822,0.26949 -0.51293,0.27657 -0.5129,0.2766 -0.9831,0.51909 -0.98309,0.51909 -0.55564,0.27492 -0.55566,0.27492 -0.73288,0.34827 -0.73286,0.34823 h -0.0502 -0.0502 l -0.62739,0.28924 -0.62739,0.28924 -1.02583,0.4017 -1.02582,0.40167 -0.17099,0.0737 -0.17096,0.0737 -0.38468,0.16052 -0.38469,0.16051 -0.34195,0.13723 -0.34194,0.13721 -0.67304,0.26258 -0.67303,0.26261 h -0.0834 -0.0834 l -0.26938,0.11416 -0.26938,0.11415 -0.29919,0.10699 -0.29921,0.107 -0.68388,0.21462 -0.6839,0.21461 -0.80252,0.24813 -0.80252,0.24815 h -0.12175 -0.12177 l -0.40074,0.11851 -0.40075,0.11854 -0.5498,0.10176 -0.54981,0.10176 -0.81053,0.12167 -0.81051,0.12168 -1.24699,-0.0162 -1.24699,-0.0162 z m 84.94435,-61.90286 -0.76938,-0.13957 -0.0854,-0.0542 -0.0854,-0.0542 -0.2992,-0.0639 -0.29921,-0.0639 -0.16861,-0.11733 -0.16862,-0.11735 h -0.10622 -0.10622 l -0.66554,-0.39725 -0.66556,-0.39733 -0.41494,-0.39344 -0.41494,-0.39343 -0.46129,-0.57246 -0.46127,-0.57251 v -0.0429 -0.0429 l -0.24395,-0.36758 -0.24395,-0.36765 -0.0501,-0.17095 -0.0501,-0.17097 -0.22915,-0.59837 -0.22916,-0.59843 -0.0412,-1.45325 -0.0412,-1.45324 0.0942,-0.4702 0.0942,-0.47015 0.12425,-0.42741 0.12425,-0.42746 0.13741,-0.38468 0.1374,-0.38466 0.38354,-0.76939 0.38355,-0.7694 0.18832,-0.30452 0.18834,-0.30446 0.19805,-0.24854 0.19805,-0.24858 0.65682,-0.72185 0.6568,-0.72184 0.89761,-0.67725 0.89759,-0.67726 0.94034,-0.45814 0.94034,-0.45821 0.4098,-0.13751 0.40978,-0.13752 1.00073,-0.16608 1.00072,-0.16608 0.61349,-2.8e-4 0.61348,-1.9e-4 0.83978,0.16912 0.83977,0.16911 0.3847,0.11991 0.38468,0.11984 0.80009,0.41238 0.8001,0.41236 0.58206,0.55958 0.58206,0.55952 0.38007,0.5557 0.38008,0.55562 0.26498,0.56692 0.26499,0.56689 0.13914,0.37345 0.13914,0.37339 0.11629,0.85488 0.11632,0.85488 0.003,0.64856 0.003,0.64862 -0.12649,0.80469 -0.12648,0.80461 -0.16174,0.47021 -0.16173,0.47015 -0.18844,0.4274 -0.18844,0.42748 -0.16815,0.34191 -0.16814,0.34193 -0.26339,0.47021 -0.2634,0.47015 -0.53479,0.68391 -0.5348,0.68385 -0.53736,0.47022 -0.53736,0.47014 -0.26365,0.19972 -0.26364,0.19978 -0.55566,0.36225 -0.55565,0.3623 -0.64114,0.30704 -0.64115,0.30696 -0.55567,0.18685 -0.55564,0.18686 -0.94036,0.16035 -0.94033,0.1604 -0.68389,-0.007 -0.68388,-0.007 z"
         id="path10652"
         sodipodi:nodetypes="ccccccccccccccccccccccccccccccccccccccccccccccccccccccccccccccccccccccccccccccccccccccccccccccccccccccccccccccccccccccccccccccccccccccccccccccccccccccccccccccccccccccccccccccccccccccccccccccccccccccccccccccccccccccccccccccccccccccccccccccccccccccccccccccccccccccccccccccccccccccccccccccccccccccccccccccccccccccccccccccccccccccccccccccccccccccccccccccccccccccccccccccccccccccccccccccccccccccccccccccccccccccccccccccccccccccccccccccccccccccccccccccccccccccccccccccccccccccccccccccccccccccccccccccccccccccccccccccccccccccccccccccccccccccccccccccccccccccccccccccccccccccccccccccccccccccccccccccccccccccccccccccccccccccccccccccccccccccccccccccccccccccccccccccccccccccccccccccccccccccccccccccccccccccccccccccccccccccccc" /><path
         style="fill:#002b5e;fill-opacity:1;stroke-width:0.324141"
         d="m 645.49856,-885.107 v -0.17615 l 0.43348,-0.91732 0.43348,-0.91733 0.15828,-0.30016 0.15828,-0.30017 0.26586,-0.49314 0.26586,-0.49313 0.26889,-0.49313 0.26889,-0.49313 0.24922,-0.45873 0.24922,-0.45871 0.40384,-0.5447 0.40383,-0.54469 0.38594,-0.61774 0.38592,-0.61775 0.0872,-0.0941 0.0872,-0.0941 0.59894,-0.75713 0.59895,-0.75713 0.28466,-0.35778 0.28465,-0.35777 0.43939,-0.51458 0.43939,-0.51457 1.93459,-1.93461 1.93458,-1.93461 0.6861,-0.52337 0.6861,-0.52338 0.27373,-0.25557 0.27374,-0.25558 0.28371,-0.19953 0.28373,-0.19954 0.11333,-0.11003 0.11333,-0.11002 h 0.0591 0.0591 l 0.21353,-0.19559 0.21352,-0.19559 0.91408,-0.59771 0.91408,-0.59772 0.75828,-0.48149 0.7583,-0.48148 0.47169,-0.23081 0.47169,-0.23082 0.30017,-0.17785 0.30016,-0.17784 0.81475,-0.41196 0.81474,-0.41196 0.42881,-0.18349 0.42881,-0.18349 0.27025,-0.12245 0.27025,-0.12244 h 0.13206 0.13206 l 0.053,-0.0858 0.053,-0.0857 h 0.13206 0.13206 l 0.27025,-0.1197 0.27025,-0.1197 0.64322,-0.18853 0.64321,-0.18855 0.4717,-0.131 0.47169,-0.131 0.28163,-0.11822 0.28164,-0.11821 h 0.13964 0.13964 l 0.43635,-0.12131 0.43634,-0.12131 0.77187,-0.13432 0.77186,-0.13432 1.02914,-0.10886 1.02915,-0.10887 1.24356,0.0232 1.24355,0.0232 0.9005,0.0892 0.90051,0.0893 0.60033,0.12877 0.60034,0.12878 0.42881,0.11604 0.42881,0.11604 0.9005,0.27888 0.90051,0.27889 0.38593,0.16235 0.38592,0.16235 0.4717,0.24402 0.47169,0.24402 0.36166,0.20102 0.36167,0.20103 0.49596,0.33944 0.49596,0.33945 0.55745,0.4312 0.55746,0.4312 0.37602,0.34426 0.37602,0.34426 0.22432,0.22287 0.22431,0.22287 0.58395,0.65197 0.58394,0.65197 0.41712,0.63266 0.41713,0.63266 0.39294,0.7512 0.39295,0.7512 0.30844,0.74299 0.30843,0.74298 0.0749,0.17152 0.0749,0.17153 0.16208,0.47169 0.16208,0.47169 0.13718,0.47169 0.13719,0.47169 0.12639,0.60034 0.1264,0.60034 0.0989,0.60033 0.0989,0.60034 0.085,0.64321 0.085,0.64322 -6.6e-4,1.80101 -6.4e-4,1.80101 -0.0907,0.94338 -0.0907,0.94339 -0.12273,0.79096 -0.12274,0.79097 -0.0998,0.30251 -0.0998,0.3025 h -2.31162 -2.31162 l -0.0551,-0.14354 -0.0551,-0.14353 0.10354,-0.73553 0.10353,-0.73553 0.0875,-1.45796 0.0875,-1.45796 -0.0905,-1.02915 -0.0905,-1.02914 -0.12567,-0.64322 -0.12566,-0.64322 -0.0947,-0.47169 -0.0946,-0.47169 -0.0873,-0.25729 -0.0873,-0.25728 -0.0831,-0.34306 -0.0831,-0.34304 -0.0808,-0.0815 -0.0808,-0.0815 v -0.12347 -0.12346 l -0.60499,-1.21014 -0.605,-1.21014 -0.16591,-0.25728 -0.16593,-0.2573 -0.0599,-0.12864 -0.0599,-0.12864 -0.0955,-0.0858 -0.0955,-0.0858 -0.33533,-0.4288 -0.33534,-0.42882 -0.5179,-0.5461 -0.5179,-0.54609 -1.07203,-0.83006 -1.07203,-0.83006 -0.72897,-0.36718 -0.72898,-0.36719 -0.4717,-0.15387 -0.47169,-0.15387 -0.47169,-0.13424 -0.4717,-0.13425 -0.34304,-0.0981 -0.34305,-0.0981 -0.64322,-0.0725 -0.64322,-0.0725 -0.81474,-0.10152 -0.81474,-0.10152 -0.83153,0.0484 -0.83153,0.0484 -0.75507,0.0933 -0.75508,0.0933 -0.6861,0.1354 -0.68609,0.13541 -0.34305,0.10843 -0.34305,0.10842 -0.64321,0.18892 -0.64322,0.18892 -0.17153,0.0648 -0.17152,0.0648 -0.47169,0.15078 -0.4717,0.15078 -0.30017,0.13159 -0.30017,0.13159 -1.71524,0.85216 -1.71525,0.85216 -0.8579,0.52978 -0.8579,0.52978 -0.64294,0.45886 -0.64294,0.45887 -0.12864,0.0488 -0.12864,0.0488 -0.51458,0.43521 -0.51457,0.43521 -0.0429,0.0471 -0.0429,0.0471 -0.64321,0.542 -0.64322,0.54201 -1.35684,1.34115 -1.35683,1.34116 -0.83011,1.02914 -0.8301,1.02916 -0.0858,0.0977 -0.0858,0.0977 -0.17153,0.23626 -0.17152,0.23627 -0.57326,0.82383 -0.57326,0.82382 -0.73462,1.22358 -0.73461,1.2236 v 0.0431 0.0431 l -0.22426,0.35525 -0.22426,0.35524 -0.32972,0.66079 -0.32974,0.66078 -0.27147,0.0543 -0.27148,0.0543 h -2.09045 -2.09046 z m 69.51434,0.0969 -0.05,-0.0809 0.0927,-0.75607 0.0926,-0.75608 0.0492,-0.74574 0.0492,-0.74574 -0.10682,-0.96726 -0.10682,-0.96727 -0.0873,-0.21665 -0.0873,-0.21664 -0.068,-0.30017 -0.068,-0.30017 -0.14162,-0.38593 -0.14162,-0.38593 -0.25976,-0.51458 -0.25976,-0.51457 -0.39274,-0.60034 -0.39274,-0.60033 -0.90643,-0.90707 -0.90645,-0.90707 -0.81474,-0.5979 -0.81474,-0.5979 -0.94339,-0.56719 -0.94338,-0.56718 -0.77186,-0.35887 -0.77186,-0.35887 -0.45025,-0.20617 -0.45026,-0.20616 -0.45025,-0.20593 -0.45025,-0.20592 -0.21441,-0.0619 -0.2144,-0.062 -0.55745,-0.25125 -0.55746,-0.25125 -0.17153,-0.0767 -0.17152,-0.0768 -1.11491,-0.4703 -1.11491,-0.4703 -0.51458,-0.26207 -0.51457,-0.26207 -0.0858,-0.003 -0.0858,-0.003 -0.33689,-0.25491 -0.33689,-0.25489 h -0.075 -0.075 l -0.70301,-0.46148 -0.70302,-0.46148 -0.85763,-0.6037 -0.85762,-0.6037 -0.38593,-0.34624 -0.38593,-0.34625 -0.51877,-0.49678 -0.51878,-0.4968 -0.18847,-0.25728 -0.18848,-0.25729 -0.28449,-0.38593 -0.28449,-0.38593 -0.38978,-0.81474 -0.38979,-0.81475 -0.0996,-0.24365 -0.0996,-0.24365 -0.16154,-0.48533 -0.16155,-0.48532 -0.10387,-0.60034 -0.10387,-0.60034 -0.043,-0.68463 -0.043,-0.68463 0.0915,-0.55892 0.0915,-0.55892 0.0825,-0.47169 0.0825,-0.4717 0.10202,-0.38592 0.10202,-0.38594 0.11996,-0.27024 0.11996,-0.27025 0.003,-0.15857 0.003,-0.15856 0.12592,-0.16647 0.12592,-0.16648 v -0.11873 -0.11872 l 0.46788,-0.95836 0.46789,-0.95835 0.30055,-0.51457 0.30054,-0.51458 0.0634,-0.12864 0.0634,-0.12864 0.0718,-0.0858 0.0718,-0.0858 0.55715,-0.85422 0.55715,-0.85422 0.41057,-0.4751 0.41058,-0.4751 0.20839,-0.2514 0.20837,-0.2514 0.69588,-0.7788 0.69586,-0.7788 0.50481,-0.42714 0.5048,-0.42713 0.30017,-0.27167 0.30017,-0.27167 0.64321,-0.53289 0.64322,-0.53289 0.37932,-0.31097 0.37931,-0.31097 0.69271,-0.59743 0.69272,-0.59744 0.0429,-0.0507 0.0429,-0.0507 0.57096,-0.48044 0.57096,-0.48043 0.45819,-0.29984 0.45819,-0.29985 0.25729,-0.22075 0.25728,-0.22076 0.0858,-0.0688 0.0858,-0.0688 0.39754,-0.29735 0.39753,-0.29736 0.1912,-0.12865 0.19121,-0.12864 0.39753,-0.29641 0.39753,-0.2964 0.0858,-0.0976 0.0858,-0.0976 0.62779,-0.40986 0.6278,-0.40986 0.88686,-0.65407 0.88688,-0.65408 0.70444,-0.51457 0.70444,-0.51458 0.48241,-0.32054 0.48241,-0.32054 0.15959,-0.10827 0.15958,-0.10827 0.88851,-0.66466 0.88852,-0.66465 h 0.0544 0.0544 l 0.31251,-0.24646 0.31251,-0.24647 1.07203,-0.71308 1.07204,-0.71308 0.55745,-0.41119 0.55745,-0.41119 0.0878,-0.0658 0.0878,-0.0658 0.38391,-0.26685 0.38389,-0.26684 0.64027,-0.44069 0.64027,-0.44069 h 0.0738 0.0738 l 0.48661,-0.37028 0.48662,-0.37028 0.54311,-0.33726 0.54311,-0.33726 0.71944,-0.44682 0.71944,-0.44681 0.4527,-0.18695 0.45269,-0.18694 0.53625,-0.2453 0.53624,-0.24531 h 0.0512 0.0511 l 0.27025,-0.12069 0.27024,-0.12069 0.47169,-0.1338 0.4717,-0.13381 0.60034,-0.0996 0.60033,-0.0996 0.78295,-0.0397 0.78295,-0.0397 0.84653,0.14282 0.84654,0.14283 0.76304,0.26268 0.76306,0.26269 0.65034,0.38449 0.65033,0.38449 0.50307,0.34164 0.50309,0.34163 0.89917,0.82511 0.89918,0.82511 0.82566,1.03142 0.82566,1.03142 0.051,0.0429 0.051,0.0429 0.64549,0.81475 0.6455,0.81474 0.6244,0.72897 0.6244,0.72899 0.18355,0.21639 0.18354,0.21639 0.33767,0.42683 0.33767,0.42682 0.39131,0.4345 0.39131,0.4345 0.21441,0.25574 0.21441,0.25574 0.63005,0.72484 0.63005,0.72483 0.18578,0.17153 0.18578,0.17153 0.98061,1.15778 0.98059,1.1578 0.47627,0.51228 0.47627,0.51228 0.60034,0.63158 0.60033,0.63159 0.98627,0.96989 0.98626,0.9699 0.53548,0.41622 0.53548,0.41623 0.37749,0.27468 0.3775,0.27468 0.54498,0.27816 0.54499,0.27817 0.12865,0.10207 0.12864,0.10207 0.4717,0.24884 0.47169,0.24883 0.55745,0.1981 0.55744,0.1981 0.17154,0.0749 0.17154,0.0749 0.51457,0.16349 0.51457,0.16349 0.51458,0.13496 0.51457,0.13496 0.60031,0.13717 0.60034,0.13717 0.42881,0.11945 0.42883,0.11946 0.38593,0.0977 0.38592,0.0977 0.51457,0.1174 0.51457,0.11741 0.51458,0.13982 0.51457,0.13982 0.40372,0.0894 0.40372,0.0894 0.13552,0.14977 0.13553,0.14976 -0.75363,0.23224 -0.75366,0.23223 -0.21442,0.0689 -0.21438,0.0689 -0.47169,0.13148 -0.4717,0.13148 -0.47169,0.13296 -0.47172,0.13296 -0.47169,0.12741 -0.47169,0.12742 -0.47169,0.0874 -0.47169,0.0874 -0.55745,0.0903 -0.55747,0.0903 -0.51457,0.0853 -0.51457,0.0852 -0.94338,0.0921 -0.94338,0.0921 -1.58661,0.046 -1.5866,0.0461 -1.24355,-0.10323 -1.24355,-0.10324 -0.64322,-0.0809 -0.64322,-0.0809 -0.72898,-0.12542 -0.72898,-0.12541 -0.45213,-0.0824 -0.45214,-0.0824 -0.27684,-0.0883 -0.27685,-0.0883 -0.64321,-0.1763 -0.64322,-0.1763 -0.42881,-0.13349 -0.42882,-0.13348 -0.64321,-0.25599 -0.64322,-0.25599 -0.24279,-0.12266 -0.2428,-0.12265 h -0.0858 -0.0858 l -0.57195,-0.28946 -0.57195,-0.28946 -0.55745,-0.28943 -0.55746,-0.28944 -0.0429,-0.0511 -0.0429,-0.0511 -0.22762,-0.12045 -0.22762,-0.12044 -0.97306,-0.65628 -0.97304,-0.65628 -0.17242,-0.15846 -0.17241,-0.15846 -0.42692,-0.34305 -0.42693,-0.34306 -0.50949,-0.47169 -0.5095,-0.47169 -0.96953,-0.96483 -0.96954,-0.96482 h -0.34142 -0.34142 l -0.36749,0.11543 -0.36748,0.11542 -0.4717,0.1348 -0.47169,0.13481 -0.30017,0.0599 -0.30017,0.0599 -0.0858,0.0666 -0.0858,0.0666 -0.6861,0.18654 -0.6861,0.18654 -0.27024,0.12288 -0.27026,0.12287 h -0.13205 -0.13206 l -0.0489,0.0792 -0.0489,0.0792 -0.26208,0.0576 -0.26209,0.0576 -0.23007,0.12003 -0.23007,0.12003 -0.0906,6.5e-4 -0.0906,6.4e-4 -1.06723,0.4613 -1.06721,0.4613 -0.60034,0.29425 -0.60034,0.29424 -0.6861,0.37256 -0.6861,0.37256 -0.47169,0.30576 -0.47169,0.30576 -0.17153,0.1065 -0.17152,0.1065 -0.12265,0.0613 -0.12265,0.0614 -0.39916,0.26362 -0.39915,0.26363 -0.41711,0.34304 -0.41712,0.34305 -0.51904,0.43406 -0.51904,0.43406 -0.75855,0.85238 -0.75855,0.85237 -0.29526,0.40066 -0.29526,0.40066 -0.19911,0.37448 -0.19911,0.37447 -0.0948,0.16825 -0.0948,0.16826 -0.17033,0.39342 -0.17033,0.39343 -0.2675,0.80517 -0.2675,0.80517 0.0275,1.20275 0.0274,1.20274 0.26787,0.52797 0.26786,0.52798 0.48211,0.62982 0.4821,0.62982 1.35121,1.37377 1.3512,1.37378 0.85763,0.78527 0.85762,0.78527 0.43521,0.41382 0.43521,0.41382 0.63642,0.72898 0.63642,0.72898 0.18728,0.21441 0.18728,0.21441 0.17602,0.2144 0.17602,0.2144 0.0669,0.0858 0.0669,0.0858 0.30154,0.42881 0.30153,0.42881 0.39509,0.64322 0.39508,0.64322 0.26194,0.4954 0.26195,0.49541 0.29553,0.87678 0.29555,0.8768 0.13564,0.64322 0.13564,0.64321 0.0852,0.72898 0.0852,0.72898 0.0525,0.94973 0.0526,0.94973 -0.1379,1.06568 -0.13788,1.06569 -0.13732,0.60034 -0.13733,0.60033 -0.16386,0.51458 -0.16387,0.51457 -0.4279,0.85762 -0.42791,0.85762 -0.83307,1.24356 -0.83307,1.24355 -4.13246,0.0223 -4.13247,0.0223 z m 10.84493,-0.0541 v -0.1334 l 0.4713,-0.94065 0.47131,-0.94064 0.31463,-0.57688 0.31464,-0.57687 0.32896,-0.49919 0.32897,-0.49921 v -0.0736 -0.0736 l 0.10721,-0.11746 0.1072,-0.11746 0.20607,-0.3818 0.20606,-0.3818 0.46186,-0.68609 0.46186,-0.6861 0.31852,-0.44153 0.31851,-0.44153 0.64304,-0.78773 0.64305,-0.78773 0.17152,-0.19288 0.17153,-0.19288 0.34305,-0.4207 0.34304,-0.4207 0.34162,-0.38698 0.34162,-0.38698 0.30535,-0.30017 0.30535,-0.30017 0.98257,-0.94338 0.98258,-0.94339 0.71892,-0.64321 0.71891,-0.64322 1.11672,-0.84517 1.11671,-0.84517 0.094,-0.078 0.094,-0.0781 0.38592,-0.28402 0.38594,-0.28403 0.72897,-0.4738 0.72898,-0.47381 0.60034,-0.32306 0.60033,-0.32305 0.4717,-0.27886 0.47169,-0.27885 1.07203,-0.51858 1.07203,-0.51855 0.6861,-0.27155 0.68609,-0.27155 0.25729,-0.1169 0.25729,-0.11688 1.15779,-0.38459 1.15779,-0.38458 0.77186,-0.17136 0.77186,-0.17136 0.64322,-0.12832 0.64322,-0.12831 0.64321,-0.11373 0.64322,-0.11372 h 2.35846 2.35847 l 0.64322,0.11388 0.6432,0.11388 0.81476,0.17008 0.81473,0.17008 0.13954,0.0747 0.13951,0.0747 0.33218,0.0599 0.33215,0.0599 0.0858,0.0628 0.0858,0.0628 0.23584,0.0563 0.23585,0.0563 v 0.12088 0.12088 l -0.1072,0.11346 -0.10723,0.11344 -0.32158,0.40025 -0.32161,0.40025 v 0.0928 0.0928 h -0.0744 -0.0744 l -0.24054,0.36449 -0.24058,0.36449 -0.7571,1.0192 -0.75709,1.0192 v 0.0685 0.0685 l -0.175,0.0556 -0.17504,0.0556 -0.44677,-0.13227 -0.44676,-0.13225 -0.68607,-0.16524 -0.68611,-0.16524 -1.07203,-0.10737 -1.07203,-0.10737 -1.02915,0.0496 -1.02915,0.0496 -0.68609,0.0877 -0.6861,0.0877 -0.34305,0.0848 -0.34305,0.0848 -0.81474,0.18597 -0.81474,0.18597 -0.38594,0.12901 -0.38592,0.12902 -0.27026,0.1182 -0.27024,0.1182 h -0.0638 -0.0638 l -1.25258,0.52474 -1.25258,0.52474 -0.38593,0.17929 -0.38593,0.1793 -1.05646,0.62527 -1.05647,0.62528 h -0.0327 -0.0327 l -0.38122,0.25729 -0.38123,0.25729 h -0.0476 -0.0476 l -0.41167,0.27039 -0.41166,0.27039 -0.0858,0.0961 -0.0858,0.0961 -0.94339,0.72184 -0.94338,0.72184 -0.2144,0.18825 -0.21442,0.18826 -0.51457,0.46162 -0.51457,0.46161 -0.31128,0.23666 -0.31129,0.23665 -0.88939,0.96486 -0.88939,0.96487 -0.25728,0.32184 -0.25729,0.32184 -0.19615,0.23327 -0.19615,0.23326 -0.75193,0.98627 -0.75194,0.98627 -0.40267,0.60477 -0.40267,0.60476 v 0.0544 0.0544 l -0.36862,0.54144 -0.36862,0.54143 -0.32302,0.53492 -0.32302,0.53492 -0.25066,0.49422 -0.25066,0.49424 -6.7e-4,0.0763 -6.7e-4,0.0763 -0.15008,0.11393 -0.15009,0.11394 -2.25126,0.003 -2.25126,0.003 z m 43.08122,-10e-4 -0.0519,-0.13508 0.10075,-0.3362 0.10071,-0.33619 0.0841,-0.95783 0.0841,-0.95783 -0.0829,-1.53054 -0.0828,-1.53053 -0.0494,-0.08 -0.0494,-0.08 -0.0886,-0.4981 -0.0885,-0.49809 -0.0436,-0.14911 -0.0436,-0.14911 0.23377,-0.21665 0.23377,-0.21664 0.73651,-0.48052 0.73655,-0.48052 0.38592,-0.31272 0.38593,-0.31272 0.34303,-0.23147 0.34307,-0.23148 0.51085,-0.43198 0.51088,-0.43198 h 0.10051 0.10049 l 0.0869,0.23585 0.0869,0.23584 0.13179,0.38593 0.13177,0.38593 0.13847,0.6861 0.13848,0.6861 0.11821,1.45166 0.11821,1.45166 -0.0842,1.42138 -0.0842,1.42137 -0.0808,0.4717 -0.0808,0.47169 -0.0929,0.60033 -0.0929,0.60034 -0.0889,0.1072 -0.0889,0.10721 h -2.30779 -2.30775 z m -22.84133,-59.0915 -0.47169,-0.12788 -0.47169,-0.14234 -0.4717,-0.14233 -0.30016,-0.16083 -0.30017,-0.16083 -0.46697,-0.29003 -0.46698,-0.29002 -0.43678,-0.36491 -0.43679,-0.3649 -0.38267,-0.45605 -0.38268,-0.45604 -0.40474,-0.74788 -0.40474,-0.74788 -0.14163,-0.47164 -0.14162,-0.47171 -0.11829,-0.55743 -0.11829,-0.55742 v -0.93348 -0.93342 l 0.0817,-0.31016 0.0816,-0.31009 0.17506,-0.72897 0.17505,-0.72898 0.17833,-0.47171 0.17832,-0.47171 0.0946,-0.25727 0.0946,-0.25726 0.31515,-0.5146 0.31517,-0.5146 0.28285,-0.41721 0.28287,-0.41721 1.03786,-1.04719 1.03785,-1.04718 0.55746,-0.36117 0.55745,-0.36116 0.77186,-0.37359 0.77187,-0.37365 0.81474,-0.26189 0.81474,-0.2619 1.11801,-0.13773 1.11801,-0.13766 0.38283,0.0834 0.38282,0.0834 0.59082,0.0611 0.59081,0.0611 0.22393,0.11685 0.22393,0.11685 h 0.0978 0.0978 l 0.33097,0.15162 0.33097,0.15156 0.60034,0.33653 0.60034,0.33654 0.65333,0.64823 0.65333,0.64816 0.37637,0.60038 0.37636,0.60031 0.14321,0.30015 0.1432,0.30016 0.12975,0.30015 0.12979,0.30016 0.1553,0.60038 0.15526,0.60031 -0.008,1.41506 -0.008,1.41513 -0.15124,0.6432 -0.15128,0.6432 -0.12949,0.38593 -0.12947,0.38593 -0.42767,0.85765 -0.42768,0.85764 -0.38637,0.58313 -0.38638,0.58312 -0.69814,0.73818 -0.69813,0.73818 -0.70376,0.53131 -0.70375,0.53129 -0.83996,0.40776 -0.83998,0.40775 -0.14719,0.0756 -0.14718,0.0756 -0.32451,0.0824 -0.32451,0.0824 -0.60033,0.18972 -0.60034,0.18972 -1.50084,0.0249 -1.50084,0.0249 z"
         id="path10653" /><g
         id="g10662"
         transform="matrix(0.32178251,0,0,0.32178251,359.27111,-705.50456)"
         style="fill:#8e96ba;fill-opacity:1"><path
           style="fill:#8e96ba;fill-opacity:1"
           d="m 997.05507,-687.54928 -1.85208,-0.19279 -0.57792,-0.31447 -0.57792,-0.31447 h -0.65419 -0.65419 l -1.74961,-0.785 -1.74961,-0.785 -1.82622,-1.08494 -1.82623,-1.08493 -1.80664,-1.80088 -1.80664,-1.80088 -0.81627,-1.15783 -0.81626,-1.15783 -0.727,-1.3054 -0.72699,-1.3054 -0.48952,-1.34044 -0.48951,-1.34043 -0.48077,-1.85208 -0.48076,-1.85209 0.003,-4.23333 0.003,-4.23333 0.48206,-1.71979 0.48206,-1.7198 0.3751,-1.28715 0.3751,-1.28715 v -0.22411 -0.2241 l 0.9739,-2.06062 0.9739,-2.06062 0.80418,-1.32291 0.80418,-1.32292 0.21422,-0.26458 0.21421,-0.26459 1.06055,-1.4552 1.06054,-1.45521 1.77581,-1.81736 1.7758,-1.81736 1.35144,-1.1592 1.35144,-1.15921 h 0.18882 0.18881 l 0.36879,-0.33073 0.36879,-0.33073 0.33992,-0.26836 0.33991,-0.26837 1.5875,-0.92747 1.5875,-0.92748 1.19062,-0.48218 1.19063,-0.48218 0.79375,-0.32961 0.79375,-0.32962 1.33348,-0.43092 1.3336,-0.43093 1.5181,-0.17843 1.5182,-0.17843 0.1405,-0.22728 0.1404,-0.22728 h 3.5395 3.5395 l 2.0673,0.50762 2.0673,0.50762 1.1906,0.38786 1.1907,0.38787 0.926,0.43138 0.926,0.43138 0.5241,0.32678 0.524,0.32678 1.5926,1.16643 1.5927,1.16643 0.8863,0.81795 0.8863,0.81794 1.1159,1.45521 1.1159,1.45521 0.9478,1.5875 0.9477,1.5875 0.7882,2.38125 0.7881,2.38125 0.343,1.85208 0.343,1.85209 0.01,2.51354 0.01,2.51354 -0.3311,1.85208 -0.3312,1.85209 -0.2637,1.05833 -0.2638,1.05833 -0.2675,1.05834 -0.2675,1.05833 -0.2494,0.25135 -0.2494,0.25136 -0.01,0.4101 -0.01,0.41011 -0.4558,0.92604 -0.4559,0.92604 -0.7603,1.19063 -0.7603,1.19062 -1.205,1.85208 -1.205,1.85209 -3.3613,3.34493 -3.3614,3.34494 -0.6823,0.35923 -0.6824,0.35923 -2.5016,1.52135 -2.5016,1.52136 h -0.4017 -0.4016 l -0.1444,0.23368 -0.1444,0.23367 -1.9217,0.59475 -1.9218,0.59475 -0.9425,0.34019 -0.9425,0.34018 -3.9523,0.1324 -3.95222,0.13239 z"
           id="path10662" /><path
           style="fill:#8e96ba;fill-opacity:1"
           d="m 843.06651,-628.04773 -0.16458,-0.2663 1.32534,-1.51964 1.32534,-1.51963 1.24603,-1.05834 1.24603,-1.05833 2.53853,-2.38498 2.53854,-2.38498 1.05833,-0.78852 1.05833,-0.78851 0.13229,-0.14494 0.1323,-0.14493 1.87149,-1.57636 1.87149,-1.57636 1.14122,-0.92605 1.14122,-0.92604 0.29458,-0.27308 0.29458,-0.27309 2.33089,-1.84358 2.33089,-1.84358 1.10869,-0.85688 1.1087,-0.85687 0.26458,-0.21219 0.26458,-0.21219 2.81817,-2.17208 2.81817,-2.17208 h 0.27754 0.27754 l 0.21158,-0.3503 0.21159,-0.3503 0.9189,-0.64189 0.9189,-0.64189 0.30545,-0.26458 0.30545,-0.26458 0.594,-0.39688 0.59401,-0.39687 0.29831,-0.28283 0.29831,-0.28282 1.45521,-1.02185 1.45521,-1.02186 0.31223,-0.28282 0.31223,-0.28282 1.35815,-0.92605 1.35814,-0.92604 1.76921,-1.24812 1.7692,-1.24813 0.44317,-0.33937 0.44317,-0.33938 0.57619,-0.39687 0.57619,-0.39688 2.94362,-2.19397 2.94361,-2.19397 1.3287,-0.83772 1.32869,-0.83772 1.99185,-1.46623 1.99186,-1.46622 0.44081,-0.26458 0.44081,-0.26459 3.52046,-2.37884 3.52046,-2.37885 0.13229,-0.14767 0.13229,-0.14767 1.97929,-1.30994 1.97929,-1.30994 0.45112,-0.26459 0.45112,-0.26458 1.46054,-0.99859 1.46054,-0.9986 0.14397,-0.23295 0.14397,-0.23295 -2.22712,-2.50146 -2.22713,-2.50145 -1.96387,-1.69096 -1.96387,-1.69096 -0.60215,-0.39687 -0.60215,-0.39688 -0.56469,-0.41768 -0.56469,-0.41768 -1.7198,-1.17459 -1.71979,-1.17458 -1.98437,-1.03013 -1.98438,-1.03013 -1.19062,-0.59805 -1.19063,-0.59806 -1.05833,-0.43964 -1.05833,-0.43964 -0.86888,-0.37481 -0.86887,-0.3748 h -0.28176 -0.28177 l -0.83374,-0.38758 -0.83373,-0.38758 -1.19063,-0.29444 -1.19062,-0.29444 -1.5875,-0.34853 -1.5875,-0.34854 -1.32292,-0.2739 -1.32292,-0.27391 -1.71979,-0.31621 -1.71979,-0.31622 -2.77813,-0.23427 -2.77812,-0.23427 -4.49792,-0.16779 -4.49791,-0.16778 -5.29167,0.31386 -5.29167,0.31386 -3.70416,0.38105 -3.70417,0.38106 -2.51354,0.27575 -2.51354,0.27574 -2.43487,0.26011 -2.43486,0.2601 -0.69121,0.2628 -0.69122,0.2628 h -0.8608 -0.86079 l -1.30479,0.37776 -1.3048,0.37777 -1.78593,0.18222 -1.78594,0.18223 v -0.40508 -0.40508 l 1.12448,-0.62642 1.12448,-0.62642 0.92604,-0.3649 0.92604,-0.3649 2.69772,-1.28026 2.69772,-1.28025 h 0.37874 0.37873 l 0.32938,-0.39688 0.32938,-0.39687 h 0.36061 0.36061 l 1.52522,-0.77768 1.52522,-0.77768 1.32292,-0.5613 1.32292,-0.56129 0.79375,-0.36081 0.79375,-0.36081 1.4552,-0.64618 1.45521,-0.64618 1.45521,-0.58452 1.45521,-0.58451 0.79375,-0.35207 0.79375,-0.35207 1.5875,-0.5893 1.5875,-0.5893 0.52917,-0.20121 0.52916,-0.2012 1.19947,-0.42487 1.19947,-0.42486 0.38803,-0.002 0.38803,-0.002 0.70979,-0.37031 0.70978,-0.3703 0.86903,-0.19088 0.86903,-0.19087 0.40556,-0.21221 0.40556,-0.21221 1.98438,-0.57278 1.98437,-0.57279 1.32292,-0.35929 1.32292,-0.35929 1.4552,-0.37766 1.45521,-0.37765 1.45521,-0.31545 1.45521,-0.31545 1.71979,-0.20442 1.71979,-0.20442 1.85209,-0.30419 1.85208,-0.30419 3.72977,-0.39848 3.72978,-0.39848 3.14939,-8.2e-4 3.14939,-8.3e-4 3.70417,0.40966 3.70417,0.40965 1.85208,0.38831 1.85208,0.38831 0.87729,-0.003 0.87729,-0.003 0.52937,0.28331 0.52937,0.28331 1.23917,0.23095 1.23918,0.23095 1.45521,0.40876 1.45521,0.40877 0.52916,0.24122 0.52917,0.24123 2.77812,0.98306 2.77813,0.98306 0.92604,0.40356 0.92604,0.40356 2.64584,1.29979 2.64583,1.2998 0.39687,0.24426 0.39688,0.24426 2.38125,1.37217 2.38125,1.37217 2.11667,1.4595 2.11666,1.4595 2.91042,2.24584 2.91042,2.24585 0.13229,0.16062 0.13229,0.16062 1.36456,1.07096 1.36457,1.07095 2.98859,2.75901 2.98858,2.759 2.65831,2.67178 2.65831,2.67178 1.85208,1.96069 1.85208,1.9607 0.76571,0.92377 0.7657,0.92378 1.35097,1.55739 1.35096,1.55738 0.39687,0.43013 0.39688,0.43012 1.05541,1.31978 1.05542,1.31978 3.30096,3.83646 3.30096,3.83646 0.21472,0.26458 0.21472,0.26459 1.51432,2.02318 1.51432,2.02318 2.86393,3.40077 2.86392,3.40078 1.26838,1.45521 1.26838,1.45521 1.94646,2.38125 1.94647,2.38125 1.06498,1.1784 1.06501,1.1784 1.5875,1.7199 1.5875,1.71989 1.6054,1.73191 1.6055,1.73192 2.6744,3.06896 2.6744,3.06896 2.2662,2.355 2.2661,2.35499 v 0.48085 0.48085 l -0.5953,-0.16545 -0.5953,-0.16545 -0.926,-0.35995 -0.9261,-0.35995 -1.5875,-0.58184 -1.5875,-0.58184 -0.454,-0.23016 -0.4541,-0.23017 -1.0012,-0.24945 -1.0011,-0.24946 -1.4552,-0.43549 -1.4552,-0.43548 -1.0583,-0.21745 -1.0584,-0.21744 -2.6458,-0.47005 -2.64583,-0.47005 -7.40833,-0.02 -7.40834,-0.02 -2.64583,0.47909 -2.64583,0.4791 -1.32292,0.26149 -1.32292,0.26149 -1.45521,0.25529 -1.4552,0.25529 -0.52917,0.24185 -0.52917,0.24185 -1.05833,0.17501 -1.05833,0.17501 -0.26459,0.20641 -0.26458,0.20641 -1.05833,0.18277 -1.05834,0.18278 -0.83238,0.2918 -0.83238,0.2918 -1.0197,-0.48269 -1.0197,-0.48269 -2.22918,-1.69938 -2.22918,-1.69937 -1.87186,0.17546 -1.87187,0.17545 -1.45521,0.39471 -1.4552,0.39471 -1.32292,0.36145 -1.32292,0.36146 -1.85208,0.41418 -1.85208,0.41419 -0.78491,-6.9e-4 -0.7849,-6.9e-4 -1.06718,-0.37166 -1.06718,-0.37166 -2.38125,-0.42385 -2.38125,-0.42385 -1.32292,0.002 -1.32291,0.002 -2.0738,-0.39683 -2.07379,-0.39683 -1.63038,-10e-4 -1.63037,-0.001 -2.51354,-0.40992 -2.51354,-0.40991 -8.86354,0.007 -8.86354,0.007 -2.64584,0.28777 -2.64583,0.28776 -2.26998,0.22389 -2.26998,0.22388 -2.09564,0.30373 -2.09565,0.30373 -1.5875,0.27509 -1.5875,0.27509 -2.11667,0.34393 -2.11666,0.34393 -1.7198,0.30701 -1.71979,0.307 -1.13372,0.38259 -1.13373,0.38258 h -0.93419 -0.93419 l -0.49766,0.26634 -0.49767,0.26635 -1.53546,0.25206 -1.53546,0.25207 -1.45521,0.29947 -1.45521,0.29946 -1.45521,0.39553 -1.4552,0.39552 -0.79375,0.26909 -0.79375,0.26908 -1.23918,0.21858 -1.23917,0.21858 -0.52937,0.28331 -0.52937,0.28331 h -0.76057 -0.76058 l -0.51359,0.38846 -0.51359,0.38846 -0.62147,0.008 -0.62147,0.008 -0.83374,0.35771 -0.83374,0.35772 -1.19062,0.31405 -1.19063,0.31405 -1.45521,0.40681 -1.4552,0.40681 -1.32292,0.27238 -1.32292,0.27238 -0.45943,0.23655 -0.45943,0.23654 h -0.78172 -0.78173 z"
           id="path10660" /><path
           style="fill:#8e96ba;fill-opacity:1"
           d="m 816.01392,-608.11291 -0.33073,-0.13345 v -0.47572 -0.47571 l 0.88177,-0.67256 0.88177,-0.67256 1.43334,-0.80177 1.43333,-0.80178 4.49792,-2.28907 4.49792,-2.28906 0.39687,-0.21401 0.39688,-0.21401 1.72414,-0.81649 1.72415,-0.8165 0.26023,-0.009 0.26023,-0.009 1.05833,-0.51121 1.05833,-0.51121 0.41011,-0.009 0.4101,-0.009 0.25136,-0.22348 0.25135,-0.22347 1.71979,-0.59612 1.71979,-0.59612 0.52917,-0.2154 0.52917,-0.2154 1.98437,-0.58099 1.98438,-0.58099 0.86887,-0.36839 0.86887,-0.36839 h 0.4452 0.4452 l 1.06718,-0.36299 1.06718,-0.36299 1.4552,-0.42362 1.45521,-0.42362 1.5875,-0.42282 1.5875,-0.42281 1.32292,-0.37967 1.32292,-0.37967 1.05833,-0.25112 1.05833,-0.25112 1.5875,-0.4277 1.5875,-0.4277 1.19063,-0.26106 1.19062,-0.26105 0.52917,-0.24547 0.52917,-0.24546 1.4552,-0.25336 1.45521,-0.25337 1.32292,-0.29633 1.32292,-0.29633 0.80013,-0.24326 0.80013,-0.24326 1.58112,-0.25831 1.58112,-0.25832 1.4552,-0.29492 1.45521,-0.29492 1.75765,-0.37729 1.75765,-0.37729 h 1.00312 1.00312 l 1.47256,-0.37397 1.47257,-0.37396 2.38125,-0.30533 2.38125,-0.30533 2.51354,-0.22654 2.51354,-0.22654 2.91042,-0.30838 2.91042,-0.30837 7.67291,0.10789 7.67292,0.10788 2.77812,0.32473 2.77813,0.32473 2.11667,0.37403 2.11666,0.37402 2.51354,0.42918 2.51355,0.42919 1.85208,0.36039 1.85208,0.36039 2.64584,0.44078 2.64583,0.44078 1.17161,0.36784 1.17161,0.36784 h 0.69605 0.69605 l 0.46184,0.33771 0.46185,0.33771 -0.17992,0.46886 -0.17992,0.46887 -2.28188,1.0829 -2.28187,1.0829 -1.32292,-0.0157 -1.32292,-0.0157 -1.19062,-0.41429 -1.19063,-0.41428 -7.40833,-0.32496 -7.40833,-0.32495 -1.45521,0.019 -1.45521,0.019 -5.95313,0.29646 -5.95312,0.29647 -0.92604,0.16261 -0.92604,0.16261 -3.04271,0.36435 -3.04271,0.36436 -2.11667,0.29005 -2.11666,0.29005 -1.98438,0.3996 -1.98437,0.3996 -1.85209,0.36424 -1.85208,0.36423 -1.32292,0.29287 -1.32291,0.29286 -1.37412,0.22327 -1.37412,0.22328 -0.31491,0.19462 -0.3149,0.19462 -1.75056,0.35205 -1.75056,0.35205 -1.5875,0.38446 -1.5875,0.38447 -1.5875,0.39871 -1.5875,0.39872 -1.19063,0.30055 -1.19062,0.30054 -0.40556,0.21289 -0.40556,0.2129 -0.91736,0.18611 -0.91735,0.18612 -1.05834,0.3497 -1.05833,0.3497 -2.64583,0.79969 -2.64584,0.79969 -1.19062,0.3005 -1.19063,0.30049 -0.92604,0.22378 -0.92604,0.22378 -0.79375,0.26382 -0.79375,0.26383 -1.35843,0.42358 -1.35842,0.42358 -0.62595,0.002 -0.62595,0.002 -0.70978,0.3703 -0.70978,0.37031 -0.87772,0.17264 -0.87772,0.17264 -0.52917,0.22659 -0.52916,0.22659 -1.19063,0.30396 -1.19062,0.30395 -1.05834,0.27038 -1.05833,0.27038 -0.52917,0.24373 -0.52916,0.24373 -1.19063,0.24858 -1.19062,0.24858 -1.19063,0.3021 -1.19062,0.3021 -1.19063,0.37494 -1.19062,0.37494 -0.66146,-0.005 -0.66146,-0.005 -1.85208,0.38571 -1.85209,0.38571 -3.43958,0.41743 -3.43958,0.41744 -3.3073,-0.0269 -3.30729,-0.0269 z"
           id="path10659" /><path
           style="fill:#8e96ba;fill-opacity:1"
           d="m 817.17807,-591.00425 -1.28326,-0.22839 -0.37039,-0.14213 -0.37039,-0.14214 v -0.47325 -0.47325 l 1.25677,-0.78279 1.25677,-0.78278 2.02143,-1.23875 2.02143,-1.23874 0.6244,-0.19065 0.62441,-0.19065 0.39687,-0.32106 0.39688,-0.32107 3.43958,-1.66208 3.43958,-1.66209 0.79375,-0.34478 0.79375,-0.34478 2.08308,-0.81578 2.08307,-0.81577 h 0.25819 0.25819 l 0.83374,-0.38771 0.83373,-0.3877 2.4701,-0.93521 2.47009,-0.93521 h 0.34393 0.34394 l 0.75785,-0.39525 0.75784,-0.39524 0.48042,-0.002 0.48041,-0.002 0.50799,-0.27187 0.50799,-0.27187 1.12827,-0.23195 1.12826,-0.23195 0.79375,-0.27441 0.79375,-0.27442 1.71979,-0.4425 1.71979,-0.44251 1.19062,-0.34204 1.19063,-0.34204 1.45521,-0.42319 1.45521,-0.4232 1.19062,-0.27983 1.19063,-0.27984 1.14216,-0.24305 1.14215,-0.24304 0.28468,-0.17594 0.28467,-0.17594 1.74817,-0.34392 1.74817,-0.34392 1.5875,-0.34473 1.5875,-0.34472 0.26458,-0.16369 0.26458,-0.16368 1.05834,-0.17716 1.05833,-0.17716 1.71979,-0.37801 1.71979,-0.37801 2.11667,-0.38528 2.11667,-0.38527 1.5875,-0.30204 1.5875,-0.30205 1.9216,-0.2553 1.92161,-0.2553 0.6753,-0.25676 0.67531,-0.25675 h 0.92745 0.92744 l 2.16419,-0.381 2.16418,-0.38101 3.83646,-0.31362 3.83646,-0.31363 3.43958,-0.13036 3.43958,-0.13037 5.68854,0.43603 5.68855,0.43603 2.11666,0.39019 2.11667,0.3902 0.5797,-10e-4 0.5797,-0.001 0.16323,0.26412 0.16323,0.26412 -0.35376,0.50507 -0.35377,0.50508 -1.97666,1.54191 -1.97667,1.54191 -0.75153,0.66546 -0.75154,0.66546 -4.27555,0.18147 -4.27555,0.18147 -4.63021,0.38861 -4.6302,0.38861 -2.11667,0.29849 -2.11667,0.29849 -2.15153,0.3882 -2.15154,0.3882 h -1.05634 -1.05635 l -1.12486,0.39687 -1.12487,0.39688 h -0.80337 -0.80338 l -1.34617,0.37646 -1.34617,0.37646 -1.32292,0.26477 -1.32291,0.26477 -1.5875,0.4033 -1.5875,0.4033 -1.5875,0.39689 -1.5875,0.39689 -1.5875,0.42986 -1.5875,0.42985 -1.45521,0.34906 -1.45521,0.34907 -0.79375,0.26179 -0.79375,0.2618 -1.5875,0.453 -1.5875,0.45301 -1.19063,0.37346 -1.19062,0.37346 -0.58634,-0.001 -0.58633,-10e-4 -0.86887,0.3664 -0.86888,0.3664 -1.19062,0.30161 -1.19063,0.30162 -1.32291,0.40202 -1.32292,0.40203 -1.05833,0.27546 -1.05834,0.27546 -0.52916,0.20386 -0.52917,0.20385 -1.98438,0.60135 -1.98437,0.60135 -0.46881,0.2364 -0.4688,0.2364 -1.23795,0.16968 -1.23794,0.16968 -0.6745,0.352 -0.6745,0.35201 -0.66146,0.011 -0.66146,0.011 -0.66146,0.37812 -0.66145,0.37812 -0.75824,0.009 -0.75824,0.009 -1.35843,0.42517 -1.35843,0.42517 -0.89994,0.2679 -0.89995,0.26789 -1.74589,0.38455 -1.74588,0.38455 -1.5875,0.37919 -1.5875,0.37918 -2.77813,0.41815 -2.77812,0.41815 -3.04271,0.0914 -3.04271,0.0914 z"
           id="path10658" /><path
           style="fill:#8e96ba;fill-opacity:1"
           d="m 1016.7676,-589.87768 -0.925,-0.11157 -0.2656,-0.21032 -0.2657,-0.21032 -1.5703,-0.19009 -1.5702,-0.19009 -0.6787,-0.26214 -0.6787,-0.26215 -1.1906,-0.23214 -1.1906,-0.23215 -1.5875,-0.37203 -1.5875,-0.37203 -1.1907,-0.31439 -1.1906,-0.3144 -1.4552,-0.3953 -1.45521,-0.3953 -1.22614,-0.38321 -1.22613,-0.3832 -0.36137,-0.002 -0.36136,-0.002 -0.6887,-0.35937 -0.6887,-0.35937 -1.22336,-0.18346 -1.22337,-0.18345 -0.15407,-0.2493 -0.15407,-0.24929 h -0.67201 -0.672 l -0.83374,-0.35477 -0.83373,-0.35477 -1.98438,-0.61338 -1.98437,-0.61338 -0.83374,-0.35477 -0.83374,-0.35477 h -0.32137 -0.32138 l -1.35843,-0.43608 -1.35843,-0.43609 -0.92604,-0.32868 -0.92604,-0.32867 -1.5875,-0.45803 -1.5875,-0.45803 -0.86887,-0.36471 -0.86887,-0.36471 h -0.37866 -0.37865 l -1.26602,-0.3972 -1.26601,-0.3972 -1.32292,-0.38383 -1.32292,-0.38383 -1.5875,-0.41939 -1.5875,-0.41938 -1.19062,-0.36259 -1.19063,-0.36259 -0.90605,-0.18795 -0.90605,-0.18794 -0.79596,-0.44467 -0.79596,-0.44467 -0.10194,-0.3058 -0.10193,-0.3058 1.97698,-0.93816 1.97699,-0.93816 h 1.24218 1.24219 l 0.83373,0.3601 0.83374,0.36011 3.04271,0.98917 3.04271,0.98916 0.25135,0.23823 0.25135,0.23823 0.5424,0.002 0.5424,0.002 0.70598,0.36833 0.70597,0.36834 1.07858,0.18222 1.07857,0.18222 0.13042,0.21103 0.13043,0.21104 1.26002,0.18758 1.26003,0.18758 0.26458,0.20927 0.26458,0.20927 0.92604,0.1934 0.92605,0.19339 0.275,0.22018 0.275,0.22018 1.04791,0.26657 1.04792,0.26657 1.45521,0.39687 1.45521,0.39687 1.85208,0.56197 1.85208,0.56198 1.19063,0.22425 1.19062,0.22426 1.19063,0.31871 1.19062,0.31871 1.32292,0.33918 1.32292,0.33917 1.32291,0.30181 1.3229,0.3018 1.9844,0.38551 1.9844,0.38551 2.3812,0.26418 2.3813,0.26417 1.4711,0.2621 1.4711,0.2621 h 0.9937 0.9936 l 0.4817,0.25775 0.4816,0.25774 0.5593,0.948 0.5593,0.94801 v 0.24222 0.24223 l 0.704,1.48672 0.7039,1.48673 -0.3732,0.23625 -0.3732,0.23625 -0.6615,-0.0383 -0.6614,-0.0383 z"
           id="path10657" /><path
           style="fill:#8e96ba;fill-opacity:1"
           d="m 815.35247,-574.61511 -0.46303,-0.27595 v -0.52432 -0.52433 l 0.46303,-0.17083 0.46302,-0.17083 0.13229,-0.15771 0.13229,-0.1577 0.79375,-0.51847 0.79375,-0.51848 0.62397,-0.33449 0.62397,-0.33448 0.96353,-0.50669 0.96353,-0.50668 0.39687,-0.15628 0.39688,-0.15628 1.5875,-0.92861 1.5875,-0.92861 2.24896,-1.06685 2.24896,-1.06685 0.79375,-0.37577 0.79375,-0.37577 2.51354,-0.96543 2.51354,-0.96542 0.25135,-0.23454 0.25136,-0.23453 h 0.37012 0.37011 l 0.83374,-0.35477 0.83374,-0.35477 1.98437,-0.62803 1.98438,-0.62802 0.26458,-0.17728 0.26458,-0.17728 0.92604,-0.18746 0.92605,-0.18746 2.23896,-0.76913 2.23896,-0.76914 h 0.57506 0.57507 l 0.75785,-0.39524 0.75785,-0.39525 0.67468,-0.002 0.67469,-0.002 0.25136,-0.2395 0.25135,-0.23951 1.5875,-0.43673 1.5875,-0.43674 1.05833,-0.23902 1.05834,-0.23902 1.6037,-0.37247 1.60371,-0.37247 0.90983,-0.28467 0.90984,-0.28467 1.71979,-0.39479 1.71979,-0.39479 2.64584,-0.55959 2.64583,-0.55959 0.92604,-0.25899 0.92604,-0.25899 1.19063,-0.2425 1.19062,-0.2425 1.19063,-0.25553 1.19062,-0.25554 2.64584,-0.42375 2.64583,-0.42375 1.45521,-0.28392 1.45521,-0.28391 2.60574,-0.24235 2.60574,-0.24235 0.29042,-0.17949 0.29041,-0.17948 2.79239,-0.19744 2.79238,-0.19744 5.61405,-0.31555 5.61405,-0.31556 0.40522,0.1555 0.40522,0.15549 v 0.26578 0.26578 l -2.05052,2.20346 -2.05052,2.20347 -1.38401,1.60739 -1.384,1.60739 -1.92329,0.32391 -1.92328,0.32392 -1.85209,0.19107 -1.85208,0.19108 -0.57792,0.31147 -0.57792,0.31148 h -0.87903 -0.87904 l -0.9243,0.27376 -0.92429,0.27377 -2.11667,0.40697 -2.11666,0.40696 -1.98438,0.35555 -1.98437,0.35555 -1.85209,0.43504 -1.85208,0.43503 -1.71979,0.37423 -1.71979,0.37424 -1.60371,0.36822 -1.60371,0.36822 -0.90983,0.27539 -0.90984,0.27539 -1.5875,0.43805 -1.5875,0.43805 -0.79375,0.27314 -0.79375,0.27314 -1.12826,0.23194 -1.12826,0.23195 -0.45924,0.23704 -0.45924,0.23705 -1.02476,0.18521 -1.02476,0.18522 -0.43044,0.21537 -0.43045,0.21536 -1.19063,0.30601 -1.19062,0.30601 -1.45521,0.40194 -1.45521,0.40195 -1.32292,0.34914 -1.32291,0.34914 -0.66146,0.26884 -0.66146,0.26883 -1.45521,0.41229 -1.45521,0.41229 -1.5875,0.41652 -1.5875,0.41653 -0.79375,0.27519 -0.79375,0.27518 -1.32291,0.38813 -1.32292,0.38813 -1.45521,0.36381 -1.45521,0.36382 -2.64583,0.55344 -2.64583,0.55344 -1.32292,0.29644 -1.32292,0.29644 -2.77812,0.40376 -2.77813,0.40377 -4.63021,0.0917 -4.6302,0.0917 z"
           id="path10656" /><path
           style="fill:#8e96ba;fill-opacity:1"
           d="m 1019.0155,-572.75397 -1.3229,-0.20788 -2.5136,-0.40454 -2.5135,-0.40454 -1.7198,-0.40777 -1.7198,-0.40777 -1.5875,-0.39807 -1.5875,-0.39807 -2.249,-0.53861 -2.2489,-0.53862 -1.0583,-0.16423 -1.05838,-0.16424 -0.26458,-0.20518 -0.26459,-0.20517 -1.05833,-0.19158 -1.05833,-0.19158 -0.92605,-0.32298 -0.92604,-0.32298 -1.5875,-0.45173 -1.5875,-0.45174 -1.32291,-0.37093 -1.32292,-0.37094 -0.66146,-0.15828 -0.66146,-0.15829 -0.52916,-0.21468 -0.52917,-0.21467 -1.98438,-0.58118 -1.98437,-0.58117 -0.43045,-0.22775 -0.43045,-0.22776 -1.02476,-0.18489 -1.02476,-0.18489 -0.26458,-0.19953 -0.26458,-0.19953 -0.92605,-0.17826 -0.92604,-0.17825 -0.52916,-0.22494 -0.52917,-0.22493 -1.32292,-0.43877 -1.32291,-0.43876 -0.92605,-0.20061 -0.92604,-0.20061 -0.57792,-0.3109 -0.57791,-0.31091 -0.48042,-0.002 -0.48041,-0.002 -0.75785,-0.39525 -0.75785,-0.39524 h -0.64861 -0.64861 l -0.57791,-0.32419 -0.57792,-0.32419 -1.32292,-0.31616 -1.32292,-0.31616 -1.71979,-0.43558 -1.71979,-0.43558 -1.5875,-0.36632 -1.5875,-0.36633 -1.71979,-0.42604 -1.71979,-0.42604 -1.85209,-0.38419 -1.85208,-0.3842 -1.85208,-0.27702 -1.85209,-0.27702 -1.92575,-0.38091 -1.92574,-0.3809 h -0.79473 -0.79473 l -0.91754,-0.38338 -0.91755,-0.38337 v -0.36582 -0.36581 l 1.25677,-0.84576 1.25677,-0.84575 1.31018,-0.93549 1.31017,-0.93549 0.54191,0.16906 0.54191,0.16907 1.5875,0.39675 1.5875,0.39675 1.45521,0.37346 1.45521,0.37346 1.5875,0.39172 1.5875,0.39171 1.32291,0.38813 1.32292,0.38813 0.92604,0.30711 0.92604,0.30712 0.79375,0.26496 0.79375,0.26497 1.17973,0.24156 1.17972,0.24157 0.26226,0.26225 0.26225,0.26225 0.67469,0.002 0.67469,0.002 0.75784,0.39525 0.75785,0.39524 h 0.41413 0.41412 l 1.73845,0.55145 1.73844,0.55146 0.40556,0.20865 0.40556,0.20866 0.90867,0.19957 0.90867,0.19958 0.40556,0.19628 0.40556,0.19629 2.64584,0.86789 2.64583,0.86789 1.05833,0.19674 1.05834,0.19673 0.79375,0.27065 0.79375,0.27065 1.05833,0.33136 1.05833,0.33136 0.92604,0.19416 0.92605,0.19416 0.79375,0.26775 0.79375,0.26775 1.5875,0.43623 1.5875,0.43623 1.32291,0.37187 1.32292,0.37186 1.32292,0.28737 1.32291,0.28736 1.5875,0.39791 1.5875,0.39791 1.9844,0.39483 1.9844,0.39483 2.3812,0.35233 2.3813,0.35234 1.3974,0.29052 1.3973,0.29051 5.0789,0.13885 5.0788,0.13884 0.4656,0.46559 0.4656,0.46559 0.07,2.77427 0.07,2.77427 -1.0584,0.0349 -1.0583,0.0349 z"
           id="path10655" /></g></g></g><style
     id="style1">@media(prefers-color-scheme:dark){.lines{fill:#d7d7d7}}</style></svg>
