<?xml version="1.0" encoding="UTF-8" standalone="no"?>
<!-- Created with Inkscape (http://www.inkscape.org/) -->

<svg
   width="66.261139mm"
   height="66.245583mm"
   viewBox="0 0 66.261139 66.245583"
   version="1.1"
   id="svg1"
   xml:space="preserve"
   inkscape:version="1.4.4 (dcaf3e7, 2026-05-05)"
   sodipodi:docname="logos teams.svg"
   inkscape:export-batch-name="logos teams"
   inkscape:export-batch-path="Desktop"
   xmlns:inkscape="http://www.inkscape.org/namespaces/inkscape"
   xmlns:sodipodi="http://sodipodi.sourceforge.net/DTD/sodipodi-0.dtd"
   xmlns="http://www.w3.org/2000/svg"
   xmlns:svg="http://www.w3.org/2000/svg"><sodipodi:namedview
     id="namedview1"
     pagecolor="#ffffff"
     bordercolor="#000000"
     borderopacity="0.25"
     inkscape:showpageshadow="2"
     inkscape:pageopacity="0.0"
     inkscape:pagecheckerboard="0"
     inkscape:deskcolor="#d1d1d1"
     inkscape:document-units="mm"
     inkscape:zoom="0.69712823"
     inkscape:cx="489.14961"
     inkscape:cy="355.02794"
     inkscape:window-width="1920"
     inkscape:window-height="1050"
     inkscape:window-x="0"
     inkscape:window-y="30"
     inkscape:window-maximized="0"
     inkscape:current-layer="layer1"><inkscape:page
       x="0"
       y="0"
       width="66.261139"
       height="66.245583"
       id="page1"
       margin="0"
       bleed="0" /></sodipodi:namedview><defs
     id="defs1" /><g
     inkscape:label="Ebene 1"
     inkscape:groupmode="layer"
     id="layer1"
     transform="translate(-129.37508,-44.360179)"><path
       style="fill:#ff0000"
       d="m 156.55732,110.05998 c -21.74727,-3.92726 -33.66587,-28.160859 -23.51568,-47.813491 12.31722,-23.848413 46.56901,-23.848413 58.88623,0 12.51851,24.238141 -8.50993,52.664141 -35.37055,47.813491 z m 12.25559,-3.262 c 22.84826,-5.00377 31.53901,-33.034926 15.50213,-50.000588 -15.44562,-16.340157 -42.58737,-10.55993 -50.20969,10.692878 -7.83299,21.84021 11.98431,44.28411 34.70756,39.30771 z m -12.0167,-10.32735 c -3.05594,-1.85656 -7.52078,-4.42194 -9.92187,-5.70085 -2.4011,-1.2789 -4.39191,-2.34345 -4.42403,-2.36565 -0.15718,-0.10868 0.85158,-2.7899 1.04966,-2.7899 0.63308,0 10.14787,5.07964 14.08999,7.5222 5.42473,3.36119 4.26773,3.36497 9.87938,-0.0322 4.4045,-2.66639 13.41004,-7.48999 13.98363,-7.48999 0.14443,0 0.40901,0.48864 0.58794,1.08587 0.17894,0.59723 0.38674,1.24589 0.46179,1.44145 0.0926,0.24123 -0.8282,0.83888 -2.86315,1.85842 -4.12985,2.06912 -8.7454,4.6722 -13.31349,7.50857 -2.11989,1.31625 -3.88118,2.3807 -3.91397,2.36542 -0.0328,-0.0153 -2.55994,-1.54677 -5.61588,-3.40333 z m 2.51354,-3.43552 c -3.928,-2.53304 -7.49182,-4.56088 -11.77395,-6.69947 -2.0373,-1.017466 -3.73045,-1.870347 -3.76257,-1.89529 -0.19728,-0.153201 0.87979,-2.794871 1.13953,-2.794871 0.78989,0 10.07999,4.863151 13.5371,7.086361 l 0.59531,0.38283 v -4.131469 -4.131472 h -1.85208 -1.85209 l -0.0146,-2.447396 -0.0146,-2.447396 -1.42138,3.795158 c -0.78176,2.087337 -1.488,3.861781 -1.56943,3.943209 -0.13253,0.13253 -6.60157,-2.702307 -7.10856,-3.115088 -0.18937,-0.154178 7.60241,-23.70561 7.97933,-24.118337 0.0906,-0.09926 2.18432,1.597381 4.6526,3.770313 5.34739,4.707546 3.90437,4.71041 9.26039,-0.01838 2.46826,-2.179212 4.56649,-3.874287 4.66273,-3.766833 0.38854,0.433806 8.18115,23.977592 7.9895,24.138625 -0.47052,0.395356 -6.9978,3.22046 -7.1316,3.086662 -0.08,-0.08 -0.78295,-1.84868 -1.56212,-3.930395 l -1.41666,-3.784936 -0.009,2.447396 -0.009,2.447396 h -1.85208 -1.85208 v 4.122621 4.12262 l 0.85989,-0.52495 c 2.53553,-1.54788 4.18926,-2.45661 8.34256,-4.584266 2.51474,-1.288251 4.72443,-2.342275 4.91044,-2.342275 0.27045,0 1.37345,2.651488 1.15905,2.786219 -0.0321,0.02018 -2.41526,1.263182 -5.29586,2.762212 -2.88061,1.49904 -7.0478,3.83949 -9.26042,5.20101 -4.74448,2.91948 -3.90889,2.8465 -7.33025,0.64019 z m 2.64584,-18.367773 c 0,-0.05444 -1.05741,-1.003324 -2.34979,-2.10864 l -2.34979,-2.009665 -0.69292,1.95184 c -0.38111,1.073512 -0.69292,2.0224 -0.69292,2.10864 0,0.08624 1.36922,0.1568 3.04271,0.1568 1.67349,0 3.04271,-0.04454 3.04271,-0.09897 z m 7.14375,-0.07806 c 0,-0.09737 -0.32134,-1.041131 -0.71409,-2.097241 l -0.71409,-1.920202 -1.20414,1.009257 c -0.66228,0.555092 -1.73992,1.493967 -2.39477,2.08639 l -1.19062,1.077133 3.10885,0.01085 c 1.70987,0.006 3.10886,-0.06882 3.10886,-0.166187 z"
       id="path180" /></g><style
     id="style1">@media(prefers-color-scheme:dark){.lines{fill:#d7d7d7}}</style></svg>
