<?xml version="1.0" encoding="UTF-8" standalone="no"?>
<!-- Created with Inkscape (http://www.inkscape.org/) -->

<svg
   width="43.387501mm"
   height="57.87973mm"
   viewBox="0 0 43.387501 57.87973"
   version="1.1"
   id="svg1"
   xml:space="preserve"
   inkscape:version="1.4.4 (dcaf3e7, 2026-05-05)"
   sodipodi:docname="logos teams.svg"
   inkscape:export-batch-name="logos teams"
   inkscape:export-batch-path="Desktop"
   xmlns:inkscape="http://www.inkscape.org/namespaces/inkscape"
   xmlns:sodipodi="http://sodipodi.sourceforge.net/DTD/sodipodi-0.dtd"
   xmlns="http://www.w3.org/2000/svg"
   xmlns:svg="http://www.w3.org/2000/svg"><sodipodi:namedview
     id="namedview1"
     pagecolor="#ffffff"
     bordercolor="#000000"
     borderopacity="0.25"
     inkscape:showpageshadow="2"
     inkscape:pageopacity="0.0"
     inkscape:pagecheckerboard="0"
     inkscape:deskcolor="#d1d1d1"
     inkscape:document-units="mm"
     inkscape:zoom="0.69712823"
     inkscape:cx="489.14961"
     inkscape:cy="355.02794"
     inkscape:window-width="1920"
     inkscape:window-height="1050"
     inkscape:window-x="0"
     inkscape:window-y="30"
     inkscape:window-maximized="0"
     inkscape:current-layer="layer1"><inkscape:page
       x="0"
       y="0"
       width="43.387501"
       height="57.87973"
       id="page1"
       margin="0"
       bleed="0" /></sodipodi:namedview><defs
     id="defs1" /><g
     inkscape:label="Ebene 1"
     inkscape:groupmode="layer"
     id="layer1"
     transform="translate(-1005.0377,1013.4762)"><path
       style="fill:#123564;fill-opacity:1"
       d="m 1005.0377,-957.79127 v -2.18085 l 0.44,0.004 0.44,0.004 0.9565,1.19468 0.9565,1.19467 0.021,-1.19822 0.021,-1.19822 h 0.5337 0.5337 v 2.18085 2.18086 l -0.44,-0.004 -0.44,-0.004 -0.9565,-1.20105 -0.9565,-1.20106 -0.021,1.20521 -0.021,1.20521 h -0.5337 -0.5337 z m 4.7443,0 v -2.18085 h 1.5725 1.5725 l -0.023,0.44 -0.023,0.43999 -0.9756,0.0214 -0.9757,0.0214 v 0.38032 0.38032 h 0.9183 0.9182 v 0.45912 0.45913 h -0.9182 -0.9183 v 0.42087 0.42086 h 0.9948 0.9948 v 0.45913 0.45913 h -1.5687 -1.5687 z m 5.3182,2.11097 c -1.3574,-0.37735 -2.0004,-1.78608 -1.4222,-3.11588 0.452,-1.03971 1.8525,-1.47378 3.008,-0.93234 l 0.438,0.20521 -0.1609,0.36863 c -0.089,0.20275 -0.1727,0.38194 -0.187,0.39819 -0.014,0.0163 -0.197,-0.044 -0.406,-0.13391 -0.8732,-0.37564 -1.5207,-0.10253 -1.69,0.71283 -0.256,1.23318 0.5666,1.96871 1.6706,1.49378 0.2197,-0.0945 0.408,-0.15851 0.4185,-0.14226 0.091,0.14089 0.2823,0.63256 0.2823,0.72515 0,0.29155 -1.3605,0.58482 -1.9513,0.4206 z m 2.7165,-2.11097 v -2.18085 h 0.5739 0.574 v 0.89912 0.89913 l 0.3627,-0.38261 c 0.1995,-0.21043 0.5715,-0.61647 0.8266,-0.9023 l 0.4639,-0.51969 0.6655,0.0223 0.6654,0.0223 -0.7859,0.84642 c -0.4322,0.46552 -0.8502,0.92033 -0.9288,1.01067 l -0.1428,0.16426 0.9245,1.07667 0.9244,1.07668 0.3857,-0.82475 c 0.2122,-0.45361 0.6524,-1.40143 0.9784,-2.10626 l 0.5927,-1.2815 0.4862,0.0189 0.4862,0.0189 0.9463,2.0178 c 0.5205,1.10979 0.9668,2.08256 0.992,2.16172 l 0.046,0.14393 h -0.5728 -0.5728 l -0.178,-0.45913 -0.1781,-0.45913 -0.9569,3.3e-4 -0.9569,3.3e-4 -0.1913,0.45847 -0.1913,0.45847 -1.1927,3.3e-4 -1.1927,3.3e-4 -0.8351,-0.95564 -0.8351,-0.95563 -0.021,0.95563 -0.021,0.95564 h -0.5717 -0.5716 z m 7.0949,0.32522 c -0.5218,-1.3154 -0.4941,-1.29543 -0.8087,-0.58316 -0.313,0.70861 -0.3263,0.67881 0.3028,0.67881 0.4043,0 0.5341,-0.0245 0.5059,-0.0957 z m 2.3172,-0.33141 v -2.18705 l 1.3583,0.0253 c 1.1901,0.0222 1.3961,0.0448 1.6643,0.18281 0.8189,0.42129 0.8579,1.79995 0.064,2.25669 l -0.2933,0.16875 0.2295,0.24997 c 0.1263,0.13749 0.3775,0.52911 0.5582,0.87027 l 0.3286,0.62029 h -0.6402 -0.6402 l -0.4072,-0.74609 c -0.456,-0.83547 -0.4776,-0.85805 -0.8253,-0.85969 l -0.2486,-10e-4 v 0.80347 0.80348 h -0.574 -0.5739 z m 2.3552,-0.45727 c 0.5082,-0.35598 0.1496,-0.81234 -0.676,-0.86013 l -0.6079,-0.0352 v 0.50722 0.50722 h 0.5569 c 0.3802,0 0.6109,-0.0378 0.727,-0.11912 z m 2.7335,2.54185 c -0.2104,-0.0548 -0.4932,-0.15769 -0.6284,-0.22862 l -0.2458,-0.12896 0.155,-0.36145 c 0.085,-0.19879 0.1659,-0.37248 0.1794,-0.38597 0.013,-0.0135 0.2341,0.0461 0.4902,0.13235 0.5585,0.18816 1.2092,0.20512 1.4482,0.0377 0.3656,-0.25604 0.1407,-0.47373 -0.7001,-0.67786 -2.4025,-0.58326 -1.5912,-3.07062 0.838,-2.56922 0.5447,0.11242 1.0534,0.35696 1.0034,0.48232 -0.02,0.05 -0.094,0.23441 -0.1652,0.40986 l -0.129,0.319 -0.3959,-0.18434 c -0.5128,-0.23877 -1.1314,-0.25377 -1.3524,-0.0328 -0.3227,0.32272 -0.132,0.5143 0.7171,0.72046 1.2228,0.29687 1.7013,0.85413 1.4326,1.66841 -0.2355,0.71341 -1.5048,1.09659 -2.6471,0.79907 z m 4.517,-0.015 c -0.8771,-0.33416 -1.0636,-0.79829 -1.0985,-2.73294 l -0.027,-1.51129 h 0.5809 0.5808 v 1.37984 c 0,1.81789 0.099,2.06361 0.8299,2.06361 0.2459,0 0.3424,-0.0452 0.5024,-0.23543 l 0.1981,-0.23544 v -1.48629 -1.48629 h 0.5795 0.5794 l -0.025,1.5941 -0.025,1.5941 -0.2327,0.37632 c -0.4277,0.6917 -1.5745,1.01071 -2.4433,0.67971 z m 3.607,0.0665 c -0.028,-0.0281 -0.051,-1.00944 -0.051,-2.18085 v -2.12984 h 0.6121 0.6122 v 1.68104 1.68103 l 0.8991,0.0216 0.8992,0.0216 0.023,0.47826 0.023,0.47826 h -1.483 c -0.8157,0 -1.5061,-0.023 -1.5341,-0.051 z m 3.622,-2.12984 v -2.18085 h 0.4531 0.4531 l 0.6218,1.18608 c 0.342,0.65234 0.6358,1.18608 0.6528,1.18608 0.017,0 0.3109,-0.53374 0.6529,-1.18608 l 0.6218,-1.18608 h 0.4531 0.4531 v 2.18085 2.18086 h -0.4974 -0.4974 v -1.12869 -1.12869 l -0.4074,0.76521 -0.4075,0.76522 h -0.3748 -0.3748 l -0.3835,-0.70622 -0.3834,-0.70622 -0.021,1.06969 -0.021,1.0697 h -0.4953 -0.4953 z m -37.9453,-4.02394 c -0.4161,-0.0723 -1.0805,-0.32744 -1.0805,-0.41493 0,-0.0261 0.071,-0.21271 0.1579,-0.41463 l 0.158,-0.36713 0.4351,0.17895 c 0.7119,0.29279 1.6238,0.21852 1.62,-0.13193 0,-0.22525 -0.1522,-0.31335 -0.8474,-0.49884 -1.3462,-0.35919 -1.8011,-1.01537 -1.2877,-1.85748 0.6843,-1.12246 3.465,-1.00349 2.9785,0.12743 l -0.1617,0.37589 -0.3532,-0.17884 c -0.6539,-0.33103 -1.5231,-0.2101 -1.4633,0.20359 0.023,0.15964 0.1176,0.20866 0.7534,0.39071 2.5872,0.74086 1.7747,3.05351 -0.9091,2.58721 z m 3.1282,-2.1458 v -2.2289 l 1.2817,0.0382 c 1.8782,0.056 2.3148,0.32823 2.3148,1.44328 0,0.91982 -0.4831,1.31395 -1.6641,1.35766 l -0.7846,0.0291 v 0.79479 0.79479 h -0.5739 -0.5739 z m 2.3913,-0.45468 c 0.3768,-0.46331 0.029,-0.83639 -0.7794,-0.83639 h -0.4641 v 0.54675 0.54674 l 0.5548,-0.0462 c 0.4407,-0.0367 0.5823,-0.0801 0.6887,-0.21088 z m 3.2496,2.60439 c -1.3309,-0.33332 -1.9466,-1.90549 -1.278,-3.26358 0.7795,-1.58333 3.3599,-1.38856 3.8588,0.29126 0.5499,1.85193 -0.8083,3.41622 -2.5808,2.97232 z m 0.9789,-0.94924 c 1.003,-0.41905 0.6945,-2.48489 -0.3718,-2.49041 -0.6618,-0.003 -1.0025,0.43728 -1.0048,1.29973 0,1.04221 0.5623,1.53094 1.3766,1.19068 z m 2.4276,-1.17155 0.02,-2.19998 1.3055,0.005 1.3054,0.005 0.3398,0.16803 c 0.96,0.47478 0.9001,2.029 -0.093,2.40639 -0.076,0.0287 -0.058,0.0722 0.064,0.16299 0.1452,0.10729 0.942,1.46681 0.942,1.60722 0,0.0281 -0.2833,0.041 -0.6296,0.0288 l -0.6296,-0.0222 -0.3916,-0.71514 c -0.4321,-0.78913 -0.4939,-0.85067 -0.8552,-0.85237 l -0.2487,-10e-4 v 0.80347 0.80347 h -0.5751 -0.5751 z m 2.396,-0.51304 c 0.422,-0.42205 0.075,-0.80695 -0.727,-0.80695 h -0.5391 v 0.49739 0.49739 h 0.5391 c 0.4704,0 0.5631,-0.024 0.727,-0.18783 z m 2.7895,0.9913 v -1.72173 h -0.6504 -0.6505 v -0.49738 -0.49739 h 1.8748 1.8748 v 0.49739 0.49738 h -0.6505 -0.6504 v 1.72173 1.72172 h -0.5739 -0.5739 z m 6.5043,1.60084 c -0.9517,-0.33955 -1.1602,-0.86887 -1.1305,-2.87 l 0.021,-1.40908 h 0.5357 0.5356 l 0.038,1.54174 c 0.042,1.69708 0.071,1.79975 0.5436,1.90345 0.805,0.17682 0.9392,-0.0882 0.9868,-1.94931 l 0.038,-1.49588 h 0.5356 0.5357 l 0.021,1.37068 c 0.039,2.54135 -0.8787,3.54427 -2.6609,2.9084 z m 3.4435,-2.09823 v -2.21911 l 0.3634,0.001 c 0.4642,10e-4 0.3755,-0.0759 1.44,1.25639 l 0.9131,1.14278 0.038,-1.18104 0.038,-1.18104 h 0.5356 0.5357 v 2.18085 2.18085 l -0.4209,0.0176 -0.4209,0.0176 -0.9756,-1.23264 -0.9757,-1.23263 v 1.23416 1.23416 h -0.5356 -0.5357 z m 4.6677,0.0383 v -2.18085 h 0.5739 0.574 v 2.18085 2.18085 h -0.574 -0.5739 z m 3.3287,2.11434 c -1.2926,-0.33902 -1.925,-1.73007 -1.4111,-3.10376 0.6477,-1.73113 3.3947,-1.63436 3.9732,0.13997 0.5668,1.73839 -0.875,3.40627 -2.5621,2.96379 z m 1.2064,-1.139 c 0.5624,-0.53884 0.4389,-1.88584 -0.2007,-2.18936 -0.8127,-0.38567 -1.4268,0.11717 -1.4263,1.16795 6e-4,1.14437 0.9056,1.71254 1.627,1.02141 z m 1.9107,-0.99447 0.02,-2.19998 0.3922,-0.0228 0.3923,-0.0228 0.9851,1.23504 0.9851,1.23505 0.021,-1.23138 0.021,-1.23137 h 0.5337 0.5338 v 2.21911 2.21911 h -0.4143 -0.4143 l -0.9822,-1.23137 -0.9822,-1.23138 -0.021,1.23138 -0.021,1.23137 h -0.5349 -0.5349 z m -18.4285,0.33397 c -0.022,-0.0583 -0.03,-0.25631 -0.017,-0.44 l 0.024,-0.33397 0.9756,-0.0214 0.9757,-0.0214 v 0.46141 0.46142 h -0.9589 c -0.7466,0 -0.968,-0.0235 -0.9996,-0.10603 z m -21.0744,-28.17651 v -21.70166 l 3.3478,0.038 c 4.1245,0.047 5.6296,0.229 8.3509,1.0095 5.5001,1.5776 7.8366,3.8638 14.5469,14.23359 4.3514,6.72441 6.2021,8.91947 9.0162,10.69342 l 0.8179,0.51561 0.019,-13.23722 0.019,-13.2373 h 3.6346 3.6345 v 21.69377 21.69375 l -3.3478,-0.002 c -9.2307,-0.005 -12.3094,-1.66634 -19.0136,-10.26152 -0.6274,-0.80441 -1.5552,-1.96641 -2.0618,-2.58221 -0.5065,-0.6158 -1.1755,-1.45949 -1.4866,-1.87486 l -0.5658,-0.75521 -0.019,7.71864 -0.019,7.71864 h -3.6347 -3.6348 v -16.18422 -16.18428 l 0.3061,0.024 c 2.8548,0.2239 4.6462,1.9338 9.0739,8.66079 8.461,12.85487 12.1125,16.38039 17.0389,16.45108 0.072,0.001 0.096,-0.28393 0.096,-1.17372 v -1.17509 l -0.5165,-0.0484 c -4.0266,-0.37731 -7.8927,-4.42051 -15.5769,-16.29017 -4.9176,-7.59609 -7.1238,-9.24149 -12.3911,-9.24149 h -0.364 v 17.59989 17.59986 h -3.6347 -3.6348 z"
       id="path174-2" /></g></svg>
