<?xml version="1.0" encoding="UTF-8" standalone="no"?>
<!-- Created with Inkscape (http://www.inkscape.org/) -->

<svg
   width="172.56105mm"
   height="57.235737mm"
   viewBox="0 0 172.56105 57.235737"
   version="1.1"
   id="svg1"
   xml:space="preserve"
   inkscape:version="1.4.4 (dcaf3e7, 2026-05-05)"
   sodipodi:docname="logos teams.svg"
   inkscape:export-batch-name="logos teams"
   inkscape:export-batch-path="Desktop"
   xmlns:inkscape="http://www.inkscape.org/namespaces/inkscape"
   xmlns:sodipodi="http://sodipodi.sourceforge.net/DTD/sodipodi-0.dtd"
   xmlns="http://www.w3.org/2000/svg"
   xmlns:svg="http://www.w3.org/2000/svg"><sodipodi:namedview
     id="namedview1"
     pagecolor="#ffffff"
     bordercolor="#000000"
     borderopacity="0.25"
     inkscape:showpageshadow="2"
     inkscape:pageopacity="0.0"
     inkscape:pagecheckerboard="0"
     inkscape:deskcolor="#d1d1d1"
     inkscape:document-units="mm"
     inkscape:zoom="0.69712823"
     inkscape:cx="489.14961"
     inkscape:cy="355.02794"
     inkscape:window-width="1920"
     inkscape:window-height="1050"
     inkscape:window-x="0"
     inkscape:window-y="30"
     inkscape:window-maximized="0"
     inkscape:current-layer="layer1"><inkscape:page
       x="0"
       y="0"
       width="172.56105"
       height="57.235737"
       id="page1"
       margin="0"
       bleed="0" /></sodipodi:namedview><defs
     id="defs1" /><g
     inkscape:label="Ebene 1"
     inkscape:groupmode="layer"
     id="layer1"
     transform="translate(-214.47021,-259.33234)"><path
       style="fill:#000000;stroke-width:0.86769"
       d="m 358.81885,315.97047 c -0.93391,-0.63462 -1.67615,-1.98432 -1.4621,-2.65874 0.40652,-1.2808 1.45814,-1.47256 2.42128,-0.4415 l 0.65557,0.70177 0.59535,-1.17486 0.59534,-1.17485 -0.45498,0.2435 c -2.62216,1.40334 -3.9219,-1.54624 -2.19895,-4.99022 1.64887,-3.29591 4.43183,-5.10781 7.89546,-5.14048 2.64337,-0.0249 2.69882,0.0358 1.76285,1.92932 l -0.7602,1.53793 1.05677,-1.12332 c 2.1435,-2.27851 5.50575,-3.05247 6.9568,-1.6014 l 0.69927,0.69925 -0.11001,1.14485 c -0.11552,1.20284 -0.64402,1.98303 -1.8115,2.67451 l -0.60245,0.35681 0.46522,0.87158 0.46522,0.87159 1.85906,-3.71633 1.85903,-3.71633 1.14498,0.0747 c 0.62975,0.041 1.20216,0.16714 1.27204,0.28023 0.0727,0.11762 0.49829,0.0917 0.9948,-0.0608 3.06359,-0.94025 3.44942,1.76312 0.9594,6.72206 -1.88405,3.75212 -1.73473,3.58815 -2.80818,3.08375 -1.51434,-0.71155 -1.50608,-0.84066 0.29917,-4.67205 0.67568,-1.434 1.05703,-2.46711 0.84749,-2.29576 -1.18254,0.96686 -2.21823,2.40098 -3.40429,4.71391 -1.33835,2.60995 -2.13967,3.32786 -2.54256,2.27795 -0.068,-0.17696 -0.32294,-0.37391 -0.56674,-0.43766 -0.26553,-0.0695 -0.44328,-0.31492 -0.44328,-0.6122 v -0.49628 l -0.63132,0.4448 c -3.52125,2.4809 -6.91155,1.85747 -7.17334,-1.31904 l -0.11568,-1.40397 -1.06824,2.13044 c -0.58753,1.17174 -1.41401,2.84759 -1.83662,3.7241 -1.48315,3.07618 -2.9218,3.83895 -4.81464,2.55273 z m 15.86947,-6.44216 c 0,-0.0632 -0.0516,-0.11478 -0.11478,-0.11478 -0.0632,0 -0.11478,0.0516 -0.11478,0.11478 0,0.0632 0.0516,0.11478 0.11478,0.11478 0.0632,0 0.11478,-0.0516 0.11478,-0.11478 z m 0.22956,-0.45915 c 0,-0.0632 -0.0516,-0.11479 -0.11478,-0.11479 -0.0632,0 -0.11478,0.0516 -0.11478,0.11479 0,0.0632 0.0516,0.11478 0.11478,0.11478 0.0632,0 0.11478,-0.0516 0.11478,-0.11478 z m -2.87486,-0.4721 c 0.88484,-0.41989 2.16771,-1.68625 1.38262,-1.36486 -0.25253,0.10345 -1.25979,0.4027 -2.23837,0.66515 -1.02806,0.27572 -1.77921,0.59957 -1.77921,0.76711 0,0.41431 1.71212,0.37052 2.63496,-0.0674 z m -9.37294,-1.42191 c 1.47816,-1.41391 2.60559,-2.72845 2.60559,-3.03802 0,-0.74104 -2.87259,1.53051 -3.80667,3.0102 -1.12129,1.77623 -0.63847,1.78741 1.20108,0.0279 z m 4.21263,0.0574 c 0,-0.0632 -0.0516,-0.11478 -0.11478,-0.11478 -0.0632,0 -0.11478,0.0516 -0.11478,0.11478 0,0.0632 0.0516,0.11478 0.11478,0.11478 0.0632,0 0.11478,-0.0516 0.11478,-0.11478 z m 5.20094,-2.06391 c 0.63354,-0.18814 1.33981,-0.54973 1.56949,-0.80352 l 0.41761,-0.46143 h -0.39136 c -0.45894,0 -1.63056,0.57423 -2.4083,1.18034 -0.66015,0.5145 -0.6415,0.51642 0.81256,0.0847 z m -130.21458,10.56862 c -0.24742,-0.18708 -0.62456,-0.34343 -0.83808,-0.34746 -0.81383,-0.0152 -0.5889,-0.64453 2.42369,-6.78021 1.70394,-3.47041 3.15996,-6.50486 3.23562,-6.74321 0.18266,-0.57553 2.87887,-1.07615 2.87887,-0.53455 0,0.10062 0.64608,0.14191 1.43572,0.0917 1.72706,-0.11001 2.26163,0.30643 2.4581,1.91471 l 0.12373,1.01319 1.13156,-2.1671 c 0.62235,-1.1919 1.41783,-2.62705 1.76772,-3.18921 l 0.63618,-1.0221 h 1.09744 c 1.5627,0 1.56052,-0.0188 0.29055,2.51187 -1.24172,2.47442 -2.44345,5.18278 -1.98831,4.48111 0.15341,-0.23649 0.83541,-1.20173 1.51557,-2.14494 l 1.23666,-1.71495 1.0591,0.15503 c 1.40944,0.20632 1.55678,0.39876 1.00131,1.30792 -2.66286,4.35856 -3.48951,5.78426 -3.40363,5.87014 0.32067,0.32067 2.25057,-1.83465 4.54779,-5.079 l 1.31593,-1.85847 1.26681,-0.0513 c 1.65717,-0.0671 1.68539,-0.24159 -0.87908,5.43693 -2.30743,5.10933 -2.42279,5.24411 -3.67292,4.29059 l -0.7463,-0.56924 -0.90722,0.54913 c -1.78636,1.08127 -3.47794,0.49532 -3.88513,-1.34579 -0.0959,-0.43342 -0.20936,-0.59941 -0.27248,-0.3985 -0.80178,2.55209 -1.07612,2.72568 -2.8481,1.80207 -0.9883,-0.51513 -1.05089,-0.76658 -0.53426,-2.14644 0.11493,-0.30711 -0.17619,-0.14146 -0.8794,0.50024 -1.41285,1.28932 -2.7979,1.98091 -4.26681,2.13056 l -1.21847,0.12417 -1.10503,2.05631 c -1.21131,2.25405 -1.31861,2.35483 -1.97717,1.85689 z m 13.20993,-6.89769 c 0,-0.0632 -0.0516,-0.11478 -0.11478,-0.11478 -0.0632,0 -0.11478,0.0516 -0.11478,0.11478 0,0.0632 0.0516,0.11479 0.11478,0.11479 0.0632,0 0.11478,-0.0516 0.11478,-0.11479 z m -6.88728,-1.01727 c 1.44305,-1.12676 2.75418,-3.68903 1.88769,-3.68903 -0.89599,0 -1.61421,0.81016 -3.11886,3.51808 l -0.61539,1.10753 0.52151,-0.15458 c 0.28685,-0.085 0.8831,-0.43693 1.32505,-0.782 z m 3.44364,0.55812 c 0,-0.0632 -0.0516,-0.11478 -0.11478,-0.11478 -0.0632,0 -0.11478,0.0516 -0.11478,0.11478 0,0.0632 0.0516,0.11478 0.11478,0.11478 0.0632,0 0.11478,-0.0516 0.11478,-0.11478 z m 4.59153,-2.75491 c 0,-0.0632 -0.0516,-0.11478 -0.11478,-0.11478 -0.0632,0 -0.11478,0.0516 -0.11478,0.11478 0,0.0632 0.0516,0.11478 0.11478,0.11478 0.0632,0 0.11478,-0.0516 0.11478,-0.11478 z m -39.8889,5.62714 c -1.30521,-0.7958 -0.69945,-3.10097 2.51911,-9.58642 2.11824,-4.26824 2.09068,-4.2359 3.72483,-4.37141 l 1.22281,-0.10137 0.1624,1.61725 c 0.0893,0.88948 0.23015,2.58009 0.31292,3.75689 l 0.1505,2.13966 0.77263,-1.9514 c 0.9726,-2.45651 1.98213,-4.48593 2.72031,-5.46857 l 0.57261,-0.76226 0.95171,0.15456 c 0.52345,0.085 1.02422,0.22157 1.11284,0.30351 0.14758,0.1364 -0.31408,1.31469 -3.74548,9.56077 -0.63053,1.5152 -1.31487,3.16815 -1.52079,3.67322 -1.1846,2.90569 -3.33213,1.16004 -3.63412,-2.95408 -0.29644,-4.03834 -0.26701,-4.03428 -1.82125,-0.25014 -0.7576,1.84456 -1.47631,3.65585 -1.59711,4.0251 -0.26361,0.80573 -0.82987,0.86959 -1.90392,0.21473 z m 11.99537,0.0338 c -3.15164,-1.92692 -1.17187,-7.80802 3.39647,-10.08955 2.98407,-1.49032 5.21509,1.25262 3.97553,4.88773 -0.086,0.25254 0.44997,-0.7289 1.19129,-2.18097 l 1.34784,-2.64013 1.12531,0.0747 c 0.61891,0.041 1.18248,0.16714 1.25236,0.28023 0.073,0.11806 0.48328,0.0963 0.96381,-0.0511 3.20339,-0.98313 3.61779,1.52131 1.09492,6.61716 -1.87099,3.77918 -1.78479,3.68901 -3.00209,3.13974 l -0.92711,-0.41832 0.0956,-0.91831 c 0.0526,-0.50507 0.62997,-1.99139 1.28315,-3.30294 0.65318,-1.31154 1.14652,-2.42571 1.09631,-2.4759 -0.29464,-0.29465 -2.61154,2.80731 -3.73001,4.9939 -1.19554,2.33727 -2.39085,3.47329 -2.39085,2.27226 0,-0.12894 -0.25827,-0.35217 -0.57393,-0.496 -0.61755,-0.28136 -0.72615,-0.83243 -0.32279,-1.63775 0.13818,-0.2758 -0.14594,-0.0677 -0.63133,0.46242 -1.71238,1.87025 -3.69441,2.43072 -5.24445,1.48303 z m 2.92763,-3.28362 c 1.29293,-1.35915 2.48036,-4.32873 1.7309,-4.32873 -0.46981,0 -2.36187,2.0444 -2.91298,3.14752 -1.05515,2.11201 -0.36213,2.80452 1.18208,1.18121 z m 3.38571,0.60715 c 0,-0.0632 -0.0516,-0.11478 -0.11478,-0.11478 -0.0632,0 -0.11478,0.0516 -0.11478,0.11478 0,0.0632 0.0516,0.11478 0.11478,0.11478 0.0632,0 0.11478,-0.0516 0.11478,-0.11478 z m 0.22958,-0.45915 c 0,-0.0632 -0.0516,-0.11478 -0.11478,-0.11478 -0.0632,0 -0.11478,0.0516 -0.11478,0.11478 0,0.0632 0.0516,0.11478 0.11478,0.11478 0.0632,0 0.11478,-0.0516 0.11478,-0.11478 z m 0.45916,-0.91831 c 0,-0.0632 -0.0516,-0.11478 -0.11479,-0.11478 -0.0632,0 -0.11478,0.0516 -0.11478,0.11478 0,0.0632 0.0516,0.11478 0.11478,0.11478 0.0632,0 0.11479,-0.0516 0.11479,-0.11478 z m 0.22957,-0.45915 c 0,-0.0632 -0.0516,-0.11479 -0.11478,-0.11479 -0.0632,0 -0.11478,0.0516 -0.11478,0.11479 0,0.0632 0.0516,0.11478 0.11478,0.11478 0.0632,0 0.11478,-0.0516 0.11478,-0.11478 z m 29.50058,4.66942 c -1.99627,-1.0978 -1.5027,-3.89081 0.81002,-4.58371 1.56611,-0.46922 3.01775,1.04908 1.57456,1.64687 -0.99341,0.41148 -0.82578,0.76273 0.27963,0.58596 2.42683,-0.38808 2.71975,-0.98266 0.94903,-1.92643 -2.21943,-1.18296 -2.87711,-2.22229 -2.24675,-3.55065 1.4598,-3.07631 8.20804,-3.3868 8.81773,-0.40572 l 0.15159,0.74121 1.09762,-1.41342 1.0976,-1.41342 1.08093,0.15424 c 1.59537,0.22767 1.59286,0.28402 -0.13312,2.99725 -2.50296,3.93446 -2.86559,4.82237 -1.50041,3.67363 0.61779,-0.51982 1.58283,-1.73522 4.16877,-5.2502 0.97225,-1.32155 1.33583,-1.53744 1.80277,-1.07049 0.17973,0.17971 0.29275,0.17971 0.40383,0 0.18732,-0.30311 0.9684,-0.33042 1.1478,-0.0401 0.19941,0.32262 -4.29593,10.12148 -4.64333,10.12148 -0.55099,0 -1.65759,-0.69457 -1.65759,-1.04043 0,-0.24389 -0.26912,-0.1449 -0.95274,0.35026 -1.97754,1.43253 -4.08853,0.56827 -4.10491,-1.68061 -0.006,-0.82544 -0.0422,-0.89451 -0.26093,-0.49892 -1.22181,2.20909 -5.83076,3.73131 -7.88205,2.60325 z m 9.79692,-6.59585 0.49646,-0.82848 -0.70147,0.64948 c -1.79048,1.65781 -3.837,1.34635 -3.35154,-0.51006 0.14385,-0.55037 -0.0212,-0.58715 -1.04066,-0.23176 -1.03477,0.36073 -0.90204,0.65002 0.8323,1.81416 0.86209,0.57866 1.6815,1.33079 1.86284,1.70986 l 0.32371,0.67678 0.54095,-1.22576 c 0.29753,-0.67415 0.76436,-1.59856 1.03741,-2.05422 z m 8.56918,6.50346 c -1.28495,-0.66419 -1.33808,-0.80989 -0.79728,-2.18617 0.64945,-1.65276 4.21461,-8.60845 5.12894,-10.00657 l 0.7247,-1.10819 1.20245,-0.0629 c 1.39573,-0.073 1.42057,-0.007 0.60799,1.59561 l -0.59441,1.17303 0.7379,-0.14758 c 0.40585,-0.0812 1.02099,-0.14757 1.36696,-0.14757 0.54624,0 0.77341,-0.24935 1.72563,-1.89399 1.36578,-2.35896 2.04025,-2.75933 3.31127,-1.96556 l 0.43686,0.27282 -0.91606,1.82195 -0.91604,1.82191 1.31025,-0.1637 1.31025,-0.1637 -0.10286,0.5369 -0.10286,0.5369 h 0.81836 c 0.56414,0 0.79831,0.0958 0.7538,0.30849 -0.0355,0.16967 0.0161,0.27027 0.11478,0.22358 0.0987,-0.0467 0.55738,-0.27765 1.01939,-0.51325 1.02881,-0.52459 1.45914,-0.38277 1.94779,0.64196 0.52399,1.09881 0.32379,1.40593 -1.4368,2.20423 -2.68098,1.2156 -5.59819,5.03063 -5.59819,7.32109 0,0.47525 -1.02297,0.25566 -1.79573,-0.38545 l -0.76262,-0.63272 0.6195,-1.82904 c 0.34074,-1.00599 1.01966,-2.69567 1.50876,-3.75485 1.05839,-2.29209 1.03375,-2.09261 0.25792,-2.08828 -1.07844,0.006 -1.1448,0.10017 -3.83819,5.44892 -1.78543,3.54561 -2.51329,4.32066 -2.96128,3.15323 -0.0733,-0.19129 -0.39438,-0.44702 -0.71328,-0.56825 -0.94362,-0.35878 -0.61487,-1.3018 1.92348,-5.51753 l 1.17167,-1.94596 -1.09137,-0.12014 c -1.45765,-0.16055 -1.98732,0.72983 -3.8614,6.49096 l -0.65346,2.00878 -0.58402,-10e-4 c -0.3212,-7.6e-4 -0.89395,-0.16161 -1.27274,-0.35743 z m 17.25175,-0.20411 c -2.41947,-2.2423 2.6838,-9.21534 7.10942,-9.71418 0.55965,-0.0631 1.07295,-0.2043 1.14064,-0.31382 0.29075,-0.47045 2.16215,-0.14429 2.16215,0.3768 0,0.16345 -1.01577,2.50269 -2.25727,5.1983 l -2.25728,4.90108 -1.10677,0.0714 c -0.72801,0.047 -1.17001,-0.031 -1.2916,-0.22765 -0.14713,-0.23818 -0.24286,-0.24104 -0.46989,-0.0134 -0.51988,0.51989 -2.34967,0.35202 -3.0294,-0.27793 z m 5.00334,-4.80929 c 0.74999,-1.07997 1.31021,-2.01698 1.24494,-2.08226 -0.37189,-0.37191 -3.17598,2.70096 -3.7767,4.13872 l -0.35812,0.85707 0.76313,-0.47497 c 0.41971,-0.26123 1.37675,-1.35859 2.12675,-2.43856 z m 7.9819,4.70814 c -0.42834,-0.96769 0.18405,-3.43076 1.3484,-5.42322 0.81095,-1.38777 0.88922,-1.6475 0.67861,-2.25168 -0.13103,-0.37563 -0.23809,-0.71626 -0.23809,-0.75694 0,-0.0407 0.33575,-0.15916 0.74612,-0.2633 0.95025,-0.24114 2.43412,-2.72539 1.87685,-3.14215 -0.17657,-0.13208 -0.38508,-0.56634 -0.46337,-0.9651 l -0.14236,-0.72502 1.68889,-0.35888 c 1.37822,-0.29285 5.89255,-0.8312 6.97013,-0.8312 0.14609,0 0.596,0.4601 0.99985,1.02246 l 0.73427,1.02246 -0.98233,0.25311 c -0.54028,0.13923 -1.29226,0.34195 -1.67105,0.4505 -0.37881,0.10852 -1.37348,0.32579 -2.21038,0.48278 l -1.52166,0.28544 -0.48415,0.99653 -0.48417,0.99655 h 1.92597 1.92595 l 0.22855,0.63133 c 0.12566,0.34725 0.30128,0.81069 0.39016,1.02991 0.21052,0.51917 -0.43087,0.76677 -3.5532,1.37168 -2.61874,0.50735 -2.57344,0.476 -3.69524,2.55807 l -0.72406,1.34383 0.46423,-0.14728 c 0.80199,-0.25454 3.79441,-0.51547 4.76544,-0.41553 0.79083,0.0814 1.04276,-0.009 1.68089,-0.60545 1.04664,-0.97771 2.17923,-1.16217 2.91153,-0.47418 0.73715,0.6925 0.70693,0.93102 -0.18647,1.47167 l -0.74466,0.45067 0.62297,0.0804 c 2.39323,0.30861 3.07983,-1.08737 1.10271,-2.24206 -2.4416,-1.42597 -2.7708,-2.62081 -1.14752,-4.16499 2.27323,-2.16249 8.03095,-2.01059 8.03095,0.21187 0,0.20803 0.28988,0.0707 0.80454,-0.3812 3.23712,-2.84223 10.37984,-0.80363 7.28803,2.08008 -1.74976,1.63199 -3.31738,1.54985 -3.31738,-0.1738 0,-0.87524 -0.0391,-0.89486 -1.06771,-0.53625 -0.95107,0.33154 -0.91291,0.54549 0.23185,1.29978 2.88816,1.90303 3.27977,2.90009 1.77866,4.52861 -2.32039,2.51731 -7.60614,2.71696 -8.36817,0.31606 l -0.14937,-0.47064 -0.60902,0.5693 c -1.23861,1.15784 -2.05806,1.42076 -4.43537,1.42307 l -2.2193,0.001 -0.55038,-0.51651 -0.55038,-0.51653 -2.54631,0.33584 c -1.40046,0.18471 -3.20173,0.44219 -4.0028,0.57218 -2.39422,0.3885 -2.79491,0.33419 -3.13065,-0.4243 z m 23.33161,-2.32309 c 1.22293,-0.55496 1.16722,-0.76915 -0.42843,-1.64742 -1.6139,-0.88832 -1.84384,-1.08535 -2.16885,-1.85834 l -0.26867,-0.63896 -0.63159,0.49683 c -0.34737,0.27324 -1.08358,0.54774 -1.63602,0.61001 l -1.00442,0.11314 -0.15215,-0.60618 c -0.0836,-0.33339 -0.0956,-0.82273 -0.0262,-1.08739 l 0.12581,-0.48122 -0.70949,0.14191 c -1.63833,0.32766 -1.6006,0.7216 0.1781,1.85943 0.68492,0.43813 1.46572,1.05011 1.73512,1.35996 l 0.48983,0.56333 0.829,-0.44432 c 1.09109,-0.58479 1.544,-0.56052 2.2237,0.11911 0.72971,0.72971 0.71029,0.92702 -0.12522,1.27311 -0.3788,0.15689 -0.68873,0.37605 -0.68873,0.487 0,0.35023 1.2239,0.20923 2.25827,-0.26015 z m 4.80121,2.51242 c -1.33324,-0.70381 -1.26213,-0.95915 2.07326,-7.44559 3.06043,-5.95176 2.9289,-5.77641 4.34954,-5.79788 1.56648,-0.0237 1.57013,-0.10136 -0.1564,3.3384 -1.6119,3.21138 -2.62352,5.60101 -3.32512,7.85453 -0.88184,2.83249 -1.13104,3.00621 -2.94128,2.05054 z m 3.78592,-0.16272 c -1.05649,-0.88277 -0.22443,-3.23664 2.83435,-8.01829 l 0.77786,-1.21598 h 1.0224 c 1.46179,0 1.46562,0.18261 0.069,3.28788 -0.69161,1.53774 -1.60624,3.64685 -2.03249,4.6869 -0.88938,2.17005 -1.3317,2.37862 -2.67109,1.25949 z m 3.9039,-0.0335 -0.73463,-0.67099 0.92822,-2.02654 c 0.51054,-1.11459 1.51544,-3.16292 2.23312,-4.55186 l 1.30489,-2.52535 1.14788,0.0815 c 0.63133,0.0447 1.21222,0.1846 1.29087,0.31067 0.0927,0.14877 0.32285,0.13297 0.6555,-0.0452 1.38125,-0.7392 2.98952,0.36198 2.98952,2.04694 0,1.07478 -3.11561,8.05174 -3.59557,8.05174 -0.0893,0 -0.61371,-0.21853 -1.16546,-0.48564 l -1.00322,-0.48565 0.14713,-0.71963 c 0.0809,-0.3958 0.70633,-1.89447 1.38979,-3.33039 0.68344,-1.43593 1.06927,-2.46902 0.8574,-2.29578 -1.21027,0.98972 -2.26033,2.44132 -3.42468,4.73437 -1.47376,2.90233 -1.74694,3.07522 -3.0208,1.91174 z m 0.67822,-9.93545 c -0.65207,-0.65207 -0.0399,-2.76381 0.88644,-3.05783 0.71707,-0.22758 1.54311,0.0595 1.71321,0.59551 0.47446,1.4949 -1.60111,3.46086 -2.59965,2.46232 z m -88.41615,-15.4815 c -0.2617,-0.33268 -0.47582,-0.69427 -0.47582,-0.80351 0,-0.10926 -0.30384,-0.19862 -0.67518,-0.19862 -1.45624,0 -0.70383,-1.73948 5.2025,-12.02768 l 0.7764,-1.35238 -2.1927,0.16097 c -1.206,0.0885 -2.19271,0.10792 -2.19271,0.0431 0,-0.0648 0.11985,-0.38097 0.26643,-0.70258 0.19652,-0.43136 0.19989,-0.73076 0.0134,-1.14126 -0.41689,-0.91499 0.78084,-1.29988 4.87228,-1.5657 l 0.90441,-0.0587 1.66327,-2.86971 c 2.14411,-3.69927 2.11745,-3.66664 3.12445,-3.82601 0.81581,-0.12909 2.34062,0.27873 2.19084,0.58598 -0.0377,0.0774 -0.77011,1.51873 -1.62751,3.20295 l -1.5589,3.06221 0.87274,-0.12641 c 0.48001,-0.0695 1.3382,-0.13029 1.90708,-0.13506 l 1.03434,-0.009 1.78985,-3.62698 c 0.98444,-1.99483 2.01838,-3.91353 2.29765,-4.26376 l 0.50775,-0.63681 0.54857,0.47576 c 0.32817,0.28463 0.8688,0.47576 1.34565,0.47576 h 0.79709 l -0.14251,0.71285 c -0.12224,0.61137 -2.70329,5.93855 -4.57819,9.44936 -0.32131,0.60166 -0.46242,1.02021 -0.31357,0.9301 0.14891,-0.0902 0.88065,-0.55655 1.62627,-1.03655 2.20668,-1.42054 4.75755,-1.05823 5.3935,0.76604 0.29089,0.83444 -0.0267,1.84672 -2.22245,7.08517 -3.5316,8.42521 -3.25976,8.05788 -5.0872,6.87375 -1.7039,-1.10409 -1.63815,-1.38693 2.17191,-9.34169 1.56802,-3.27376 1.55579,-3.37403 -0.29858,-2.44995 -2.01263,1.00293 -3.05112,2.4265 -5.63178,7.71998 -1.65492,3.39458 -2.43882,4.77394 -2.71311,4.77394 -0.38728,0 -2.23798,-1.41244 -2.54427,-1.94177 -0.16299,-0.28168 2.99321,-7.66148 4.85207,-11.34502 l 0.97027,-1.92275 -0.76313,0.13133 c -0.41974,0.0723 -1.34765,0.19922 -2.06204,0.28213 l -1.29888,0.15074 -3.7518,7.54291 c -3.96389,7.96937 -4.07715,8.127 -4.99779,6.95661 z m -45.24323,-0.32484 c -0.31566,-0.25321 -0.90969,-0.60722 -1.32006,-0.7867 -0.97498,-0.4264 -1.20034,0.34091 2.56148,-8.72157 l 3.30762,-7.96824 -1.41361,0.1575 c -0.77748,0.0866 -2.11966,0.288 -2.98262,0.44748 -1.68888,0.31213 -1.6516,0.3305 -1.84626,-0.9092 -0.0595,-0.3788 -0.18061,-1.02448 -0.26914,-1.43485 -0.0885,-0.41036 -0.10331,-0.74612 -0.0328,-0.74612 0.0705,0 1.40069,-0.25113 2.95579,-0.55809 3.38709,-0.66852 6.19435,-1.11223 11.02926,-1.74324 4.19403,-0.54737 4.61705,-0.45702 5.33719,1.13995 0.50205,1.11338 0.63669,0.98074 -1.48618,1.4641 -0.947,0.21563 -2.93384,0.72645 -4.4152,1.13516 l -2.69336,0.74309 -0.80072,1.83662 c -0.85688,1.96544 -4.05871,9.5875 -5.81046,13.83197 -1.13095,2.74032 -1.2233,2.83226 -2.12103,2.11214 z m 10.2522,-0.0461 c -0.28436,-0.28409 -0.78947,-0.64039 -1.12245,-0.79177 l -0.60544,-0.27522 0.5784,-1.90575 c 0.68691,-2.2634 2.83267,-7.50675 4.25605,-10.4001 l 1.01647,-2.06617 0.88951,-0.0738 c 0.48922,-0.0405 1.10024,-0.22135 1.3578,-0.40177 0.43651,-0.30575 1.514,-0.46215 1.514,-0.21975 0,0.0595 -0.25259,0.67939 -0.56131,1.37746 -0.63594,1.43799 -0.60945,1.48469 0.40445,0.71296 1.18096,-0.8989 3.90494,-2.42823 4.32507,-2.42823 0.34214,0 1.94338,2.68884 1.72892,2.90329 -0.0401,0.0401 -1.24561,0.64845 -2.6789,1.3519 -5.39035,2.64548 -5.82936,3.12361 -8.42426,9.17501 -0.43315,1.01015 -0.95686,2.22403 -1.16379,2.69754 -0.43294,0.99062 -0.78706,1.07114 -1.51452,0.34436 z m 11.37516,-0.40761 c -0.63837,-0.50829 -1.2052,-1.05067 -1.25959,-1.20528 -0.15455,-0.43927 3.67547,-7.88693 5.96441,-11.59812 l 1.03296,-1.67479 1.41209,0.0678 c 1.74577,0.0838 1.76365,-0.16478 -0.3103,4.31492 -0.90607,1.95713 -2.16686,4.84979 -2.80173,6.42814 -0.63487,1.57833 -1.31284,3.25711 -1.5066,3.73061 -0.46541,1.13734 -1.04145,1.12294 -2.53124,-0.0632 z m 7.87321,0.6149 c -5.49184,-2.5256 3.54808,-15.60941 10.97112,-15.87892 1.10312,-0.0401 1.68855,-0.17429 2.00363,-0.45945 0.45767,-0.41417 2.11045,-0.38491 2.54035,0.0449 0.10598,0.10599 -0.78831,2.30944 -1.98727,4.89663 -2.78553,6.0108 -2.82014,6.08603 -4.11728,8.95112 -1.32072,2.91708 -1.32225,2.91895 -2.1294,2.61429 -0.40999,-0.15476 -0.86056,-0.16296 -1.27956,-0.0234 -0.84453,0.28151 -1.15832,-0.0216 -0.85312,-0.82446 l 0.22964,-0.60398 -1.17475,0.72282 c -1.35898,0.83619 -3.09906,1.06812 -4.20336,0.56028 z m 3.28062,-3.11617 c 1.60737,-0.83209 5.41906,-5.68665 7.38423,-9.40456 l 0.28947,-0.54762 -0.65605,0.16157 c -2.42612,0.59756 -6.11796,4.24731 -7.67895,7.59141 -1.2502,2.67829 -1.1174,3.11998 0.6613,2.1992 z m 35.40301,2.96297 c -0.5682,-0.24062 -1.3172,-0.55503 -1.66443,-0.6987 -1.08418,-0.44857 2.76364,-9.12079 8.06411,-18.17492 l 1.44143,-2.4622 0.95795,10e-4 c 0.52686,8.7e-4 1.21621,-0.0276 1.53188,-0.0632 0.75857,-0.0856 0.80451,-0.21767 -1.66032,4.77093 -2.59198,5.24592 -3.90476,8.35135 -5.33158,12.61207 -1.47123,4.3933 -1.50807,4.47841 -1.93203,4.46427 -0.20566,-0.007 -0.8388,-0.20937 -1.40701,-0.44999 z m 7.4743,-0.007 c -6.21739,-3.10188 -0.009,-16.51874 7.64454,-16.51874 h 1.42092 l 1.02443,0.94427 c 0.72574,0.66898 1.13393,1.29172 1.40004,2.13594 l 0.37565,1.19167 -0.47582,1.88161 c -1.89319,7.48654 -7.29903,12.40613 -11.38976,10.36525 z m 3.17178,-3.53192 c 1.55245,-1.0951 2.89513,-2.88694 3.80997,-5.08449 1.97728,-4.74961 0.65556,-5.91984 -2.75035,-2.4351 -4.13863,4.23442 -4.9925,10.29386 -1.05962,7.51959 z m 7.66459,3.52611 c -0.15891,-0.26166 -0.62467,-0.61797 -1.03504,-0.79182 -1.08333,-0.4589 -1.27074,0.0577 3.3638,-9.27338 3.25127,-6.54606 3.12168,-6.3462 3.81873,-5.88948 0.34687,0.22727 0.80128,0.29296 1.3786,0.19927 l 0.8612,-0.13982 -0.11881,0.55204 c -0.0653,0.30361 -0.1939,0.73045 -0.28567,0.94852 -0.1273,0.30253 0.19606,0.20734 1.36462,-0.40176 4.02264,-2.09674 6.37078,0.40312 4.64191,4.94187 -0.77024,2.02212 -4.86745,9.9482 -5.19975,10.05897 -0.14653,0.0489 -0.44799,-0.0756 -0.66993,-0.2764 -0.22193,-0.20085 -0.73252,-0.43099 -1.13459,-0.51142 -1.28722,-0.25743 -1.00113,-1.32157 2.07819,-7.73034 2.16367,-4.50308 2.23981,-4.77711 1.17227,-4.21813 -2.32995,1.21999 -4.73153,4.28842 -7.171,9.16213 -2.00254,4.00083 -2.40949,4.44829 -3.06453,3.36969 z m 23.97325,-0.0982 c -0.37514,-0.31566 -0.77656,-0.57395 -0.89203,-0.57395 -0.11552,0 -0.40617,-0.1434 -0.64599,-0.31884 l -0.43604,-0.31884 0.96245,-2.26388 c 3.75389,-8.82998 5.73391,-13.75322 5.55658,-13.81624 -0.11373,-0.0404 -1.26983,0.0902 -2.56902,0.29012 -3.54914,0.54638 -3.27247,0.56432 -3.34028,-0.21661 -0.0329,-0.3788 -0.17872,-1.07664 -0.32409,-1.55078 -0.38702,-1.26229 2.08492,-1.86538 13.87555,-3.38523 l 3.61988,-0.46663 0.6808,0.35205 c 0.71634,0.37043 1.4844,1.57063 1.30473,2.0388 -0.0581,0.1516 -0.91793,0.46374 -1.91059,0.69365 -6.37775,1.47714 -6.93876,1.74123 -7.72763,3.63749 -0.32847,0.78956 -1.48527,3.55341 -2.57065,6.14189 -4.95066,11.80663 -4.3647,10.78268 -5.58367,9.757 z m 11.29945,0.13655 c -4.59357,-2.08616 -1.41592,-11.35938 5.01161,-14.6252 4.92808,-2.50394 9.06723,-0.7597 8.17085,3.44318 -0.50902,2.38661 -5.5035,5.23834 -10.211,5.83025 -1.46122,0.18372 -1.91464,0.82094 -1.36795,1.92243 0.76101,1.53332 6.01796,0.1124 7.40262,-2.00087 0.42533,-0.64915 0.77359,-0.72874 0.77359,-0.17681 0,0.21102 0.16721,0.56844 0.37157,0.79426 2.16931,2.39708 -6.46096,6.48869 -10.15129,4.81276 z m 6.10649,-9.26129 c 3.68273,-1.12005 5.36329,-3.15755 2.6044,-3.15755 -1.65067,0 -4.7936,1.95764 -5.619,3.49991 l -0.2298,0.42937 0.87608,-0.15895 c 0.48184,-0.0874 1.54759,-0.36317 2.36832,-0.61278 z m 6.99741,9.26936 c -5.59565,-2.54193 5.06273,-16.71524 11.8821,-15.80057 0.70463,0.0945 0.94166,0.0292 1.15966,-0.31997 0.28747,-0.4603 0.77854,-0.53385 1.97147,-0.29527 1.08305,0.21661 1.2693,-0.26283 -5.74528,14.78911 l -0.91412,1.96154 h -1.59185 c -1.75473,0 -1.9445,-0.20287 -1.20595,-1.28925 l 0.38589,-0.56763 -0.44328,0.38363 c -1.6452,1.42379 -3.86071,1.88248 -5.49864,1.13841 z m 3.21225,-2.88198 c 1.71423,-0.71625 3.35404,-2.68782 6.74541,-8.11008 1.34792,-2.15509 1.20773,-2.36559 -0.80625,-1.21051 -3.11227,1.785 -6.45185,5.98797 -7.0728,8.90132 -0.1815,0.85159 -0.0326,0.90661 1.13364,0.41927 z m 10.33429,2.84873 c -0.23026,-0.25444 -0.72998,-0.54329 -1.11045,-0.6419 -1.03144,-0.26726 -1.09545,-0.082 2.71059,-7.84897 l 3.54369,-7.23165 1.38985,-0.0414 c 1.51259,-0.045 1.55515,0.006 1.04548,1.22464 -0.1894,0.45329 -0.34436,0.86818 -0.34436,0.92196 0,0.0538 0.46834,-0.22444 1.04074,-0.61828 2.97726,-2.0484 5.38741,-1.99223 5.38741,0.12551 v 0.73786 l 2.23836,-1.12436 c 3.52842,-1.77237 5.06121,-1.72881 5.96644,0.1695 0.49311,1.03406 0.37975,1.45543 -2.00691,7.45899 -2.80018,7.04375 -3.28925,7.79699 -4.50325,6.93541 -0.36385,-0.25821 -0.86818,-0.511 -1.12071,-0.56174 -1.09401,-0.21981 -0.59458,-1.96872 2.05408,-7.19302 2.9752,-5.86835 2.98338,-5.91002 0.93041,-4.73215 -2.0207,1.15935 -3.13599,2.61298 -5.02071,6.54393 -2.94289,6.13796 -3.39227,6.71266 -4.70086,6.01182 -0.33515,-0.17949 -0.80308,-0.38783 -1.03986,-0.46297 -0.76878,-0.24398 -0.26666,-1.83984 2.03523,-6.46854 1.20026,-2.41349 2.25011,-4.72733 2.33303,-5.14185 l 0.15073,-0.75371 -0.64972,0.16306 c -0.7631,0.19154 -2.78028,1.49104 -3.48705,2.24642 -0.27161,0.29029 -1.28675,2.1291 -2.25586,4.08624 -3.16289,6.38747 -3.72501,7.14679 -4.5863,6.19509 z M 245.67812,268.10165 c -0.8139,-0.8139 -0.52822,-2.53901 0.61974,-3.74235 1.04872,-1.09929 2.81216,-0.61751 2.81216,0.76829 0,2.05837 -2.32917,4.07681 -3.4319,2.97406 z"
       id="path192" /></g><style
     id="style1">@media(prefers-color-scheme:dark){.lines{fill:#d7d7d7}}</style></svg>
