<?xml version="1.0" encoding="UTF-8" standalone="no"?>
<!-- Created with Inkscape (http://www.inkscape.org/) -->

<svg
   width="525.72699mm"
   height="126.30797mm"
   viewBox="0 0 525.72699 126.30797"
   version="1.1"
   id="svg1"
   xml:space="preserve"
   inkscape:version="1.4.4 (dcaf3e7, 2026-05-05)"
   sodipodi:docname="logos teams.svg"
   inkscape:export-batch-name="Running Team Ortenau 	AthletesLab Team Ortenau"
   inkscape:export-batch-path="Desktop/Frauenliga"
   xmlns:inkscape="http://www.inkscape.org/namespaces/inkscape"
   xmlns:sodipodi="http://sodipodi.sourceforge.net/DTD/sodipodi-0.dtd"
   xmlns="http://www.w3.org/2000/svg"
   xmlns:svg="http://www.w3.org/2000/svg"><sodipodi:namedview
     id="namedview1"
     pagecolor="#ffffff"
     bordercolor="#000000"
     borderopacity="0.25"
     inkscape:showpageshadow="2"
     inkscape:pageopacity="0.0"
     inkscape:pagecheckerboard="0"
     inkscape:deskcolor="#d1d1d1"
     inkscape:document-units="mm"
     inkscape:zoom="0.31540704"
     inkscape:cx="-8173.5652"
     inkscape:cy="280.58981"
     inkscape:window-width="1920"
     inkscape:window-height="1050"
     inkscape:window-x="0"
     inkscape:window-y="30"
     inkscape:window-maximized="0"
     inkscape:current-layer="layer1"><inkscape:page
       x="0"
       y="0"
       width="525.72699"
       height="126.30797"
       id="page1"
       margin="0"
       bleed="0" /></sodipodi:namedview><defs
     id="defs1"><style
       id="style1-7">
      .cls-1 {
        fill: #fff;
      }
    </style></defs><g
     inkscape:label="Ebene 1"
     inkscape:groupmode="layer"
     id="layer1"
     transform="translate(1367.7176,1.7550332)"><path
       style="fill:#000000"
       d="m -1336.8937,124.05914 c -4.0206,-0.74804 -7.1993,-2.34082 -10.2107,-5.11628 l -1.8143,-1.67217 -1.2887,-1.92679 c -1.595,-2.38471 -2.8285,-5.30313 -3.5115,-8.30833 l -0.5217,-2.29554 -0.1616,-3.59817 -0.1616,-3.598173 0.3295,-2.61776 c 0.8149,-6.47456 3.0953,-11.22382 7.2541,-15.10766 l 1.9952,-1.86328 2.0763,-1.08019 c 1.1419,-0.5941 3.022,-1.35403 4.1779,-1.68873 l 2.1017,-0.60854 h 4.4979 4.4979 l 2.1017,0.60854 c 1.156,0.3347 3.0308,1.09191 4.1664,1.6827 l 2.0647,1.07416 1.8656,1.72727 c 5.994,5.54958 8.6074,14.16031 7.3677,24.276083 -1.7591,14.35479 -12.8962,22.70466 -26.8265,20.11286 z m 8.8817,-5.58601 c 0.7904,-0.23216 2.1242,-0.78585 2.9639,-1.23041 l 1.5269,-0.8083 1.6532,-1.75254 1.6533,-1.75254 0.9849,-1.99334 c 0.5417,-1.09634 1.2371,-2.93893 1.5454,-4.09465 l 0.5605,-2.10132 0.1288,-4.36562 0.1288,-4.365633 -0.5267,-2.51354 c -0.7158,-3.41595 -1.4607,-5.26934 -3.0635,-7.62198 l -1.3559,-1.99034 -1.6345,-1.25309 c -1.9406,-1.48772 -3.9102,-2.27548 -6.6381,-2.65488 l -2.0005,-0.27826 -2.0342,0.27376 c -7.7477,1.04268 -12.3551,6.90872 -13.198,16.80341 l -0.2279,2.6745 0.2433,2.851223 0.2433,2.85122 0.6669,2.30104 c 0.8944,3.08651 2.0254,5.13202 3.9927,7.22139 l 1.6379,1.73961 1.3902,0.75663 c 0.7646,0.41615 2.0516,0.96828 2.86,1.22697 l 1.4697,0.47034 2.7963,0.0142 2.7962,0.0142 z m 447.32708,5.56027 c -3.7023,-0.66946 -6.4754,-2.08704 -8.8609,-4.52956 l -1.3854,-1.41856 -1.0359,-2.17471 c -0.5697,-1.19609 -1.2499,-2.94861 -1.5116,-3.8945 l -0.4757,-1.71979 -0.093,-17.528643 -0.093,-17.52865 h 3.3021 3.302 l 0.1095,16.7349 0.1094,16.734893 0.4202,1.76294 c 1.1229,4.71051 3.483,7.23903 7.6144,8.15754 l 1.4683,0.32646 3.0296,-0.11737 3.0296,-0.11736 1.5086,-0.58855 1.5085,-0.58856 1.2936,-1.16305 1.2936,-1.16304 0.7165,-1.59661 c 0.3941,-0.87813 0.905,-2.40219 1.1353,-3.38679 l 0.4187,-1.79019 0.1224,-16.602613 0.1224,-16.6026 h 3.2824 3.2824 v 16.07344 16.073433 l -0.3831,2.54106 c -1.658,10.99911 -10.549,16.39892 -23.2269,14.10648 z M -1268.2343,99.456507 v -24.21752 l 8.9297,0.003 8.9297,0.003 2.5019,0.51621 2.5019,0.51622 1.7228,0.8481 1.7227,0.8481 1.2435,1.24346 c 1.3934,1.39341 2.339,3.08737 3.0285,5.42497 l 0.465,1.5762 -0.01,2.91041 -0.01,2.91042 -0.5855,1.69785 c -1.0221,2.96354 -3.0206,5.24876 -5.6434,6.453193 -1.4573,0.66918 -1.5194,0.82771 -0.5256,1.34162 0.8876,0.459 3.0979,2.77066 4.2051,4.39797 1.1392,1.67427 9.0867,17.37419 8.8931,17.56779 -0.088,0.0876 -1.685,0.15929 -3.5498,0.15929 h -3.3906 l -3.8188,-7.60926 c -5.0364,-10.03519 -6.0295,-11.33536 -9.4298,-12.34513 l -1.4093,-0.41853 h -4.5791 -4.579 l -0.069,10.12032 -0.069,10.12031 -3.2412,0.0743 -3.2411,0.0743 z m 19.1508,-2.51024 c 0.8557,-0.3325 2.0024,-1.00787 2.548,-1.50083 l 0.9921,-0.89629 0.5989,-1.38685 0.5989,-1.38685 0.1254,-1.72578 0.1255,-1.72578 -0.3141,-1.51273 -0.314,-1.51273 -0.8417,-1.25726 -0.8417,-1.25726 -1.8244,-0.92819 -1.8244,-0.92819 -5.7823,-0.0885 -5.7824,-0.0885 v 8.51902 8.51902 l 5.4901,-0.11887 5.4901,-0.11888 z m 63.8479,26.542813 c -0.1013,-0.10127 -0.1841,-9.74881 -0.1841,-21.43898 V 80.795237 h -8.4667 -8.4667 v -2.77813 -2.77812 h 20.373 20.3729 v 2.77812 2.77813 h -8.4651 -8.4651 l -0.068,21.365103 -0.068,21.36511 -3.1894,0.0739 c -1.7541,0.0406 -3.2721,-0.009 -3.3734,-0.11024 z m 61.3756,-0.008 c -0.097,-0.097 -0.1764,-10.99123 -0.1764,-24.209373 v -24.03299 h 15.3458 15.3459 v 2.77812 2.77813 h -11.9063 -11.9062 v 7.14375 7.14375 h 11.3771 11.377 v 2.77812 2.778133 h -11.377 -11.3771 v 8.59896 8.59896 h 12.1708 12.1708 v 2.91041 2.91042 h -15.434 c -8.4887,0 -15.5134,-0.0794 -15.6104,-0.17639 z m 73.1132,-24.032993 v -24.20937 h 4.454 4.4539 l 10.3976,19.64531 c 5.7186,10.804923 10.5009,19.758423 10.6272,19.896673 l 0.2298,0.25135 V 95.135387 75.238717 h 3.175 3.175 v 24.21577 24.215773 l -4.4316,-0.0725 -4.4317,-0.0725 -10.4511,-19.77037 c -5.7482,-10.873703 -10.5405,-19.773623 -10.6497,-19.777603 -0.1091,-0.004 -0.1984,8.92245 -0.1984,19.836513 v 19.84375 h -3.175 -3.175 z m 74.93998,23.754273 c 0.071,-0.25901 2.5389,-6.78124 5.4846,-14.49385 2.9457,-7.7126 6.718,-17.594793 8.3828,-21.960423 1.6647,-4.36562 3.3379,-8.74117 3.7182,-9.72343 l 0.6913,-1.78594 h 3.7688 3.7688 l 0.2606,0.7276 c 0.1433,0.40019 4.2626,11.22544 9.154,24.056123 4.8914,12.83069 8.8934,23.39748 8.8934,23.48177 0,0.0843 -1.5393,0.15326 -3.4206,0.15326 h -3.4206 l -0.5143,-1.38906 c -0.2829,-0.76399 -1.2737,-3.56209 -2.2018,-6.21801 l -1.6875,-4.82895 -10.8135,0.0665 -10.8136,0.0664 -2.1765,6.08542 -2.1766,6.08542 -3.5131,0.074 -3.5132,0.0741 z m 30.6287,-17.72912 c 0,-0.30155 -8.5579,-23.352333 -8.6395,-23.270683 -0.1283,0.12827 -8.5584,23.031083 -8.5584,23.251303 v 0.21194 h 8.599 c 4.7294,0 8.5989,-0.0866 8.5989,-0.19256 z M -1367.7176,31.317887 V -1.7550332 h 262.8635 262.8635 v 33.0729202 33.07291 h -262.8635 -262.8635 z m 68.9509,23.54545 c 11.1105,-1.39315 15.8485,-6.98598 18.7535,-22.13741 3.4724,-18.11079 4.9411,-25.6785502 5.0614,-26.0804402 l 0.1386,-0.46302 h -3.267 -3.267 l -1.5476,8.0036402 c -5.3819,27.83406 -5.4872,28.22147 -8.6236,31.74047 l -1.2776,1.43342 -1.5709,0.83727 c -0.864,0.4605 -2.392,1.03006 -3.3957,1.26568 l -1.8248,0.42841 -2.822,-0.11133 -2.822,-0.11133 -1.7327,-0.85298 -1.7326,-0.85297 -0.8086,-0.98024 c -0.4447,-0.53914 -1.0442,-1.60979 -1.3323,-2.37924 l -0.5238,-1.39898 v -2.48601 -2.486 l 0.6534,-3.52334 c 0.3593,-1.93784 1.7285,-9.04703 3.0427,-15.7982 1.3141,-6.75117 2.3893,-12.3768702 2.3893,-12.5015602 v -0.22671 h -3.1699 -3.17 l -0.1405,0.59531 c -0.077,0.32742 -0.669,3.3932802 -1.3148,6.8130202 -0.6459,3.41974 -1.9611,10.32537 -2.9228,15.34584 l -1.7484,9.12812 -0.1546,2.43004 -0.1546,2.43004 0.3278,1.671 c 1.4744,7.51629 8.8857,11.53035 18.9571,10.2675 z m 222.16,-0.40211 c 3.923,-0.69066 9.9248,-2.70911 12.0368,-4.04805 l 0.3322,-0.21057 1.9796,-10.03768 c 1.0887,-5.52072 1.9811,-10.24603 1.9829,-10.50069 v -0.46302 h -8.4243 -8.4243 l -0.3308,1.91823 c -0.182,1.05502 -0.3926,2.18612 -0.468,2.51354 l -0.1371,0.59531 h 5.1964 5.1964 l 0.1133,0.33073 c 0.062,0.1819 -0.4474,3.06828 -1.1328,6.41418 l -1.2461,6.08345 -1.3229,0.62782 c -0.7276,0.3453 -2.454,0.92128 -3.8365,1.27995 l -2.5135,0.65214 -3.3073,0.14628 -3.3073,0.14627 -1.9367,-0.3268 -1.9367,-0.32681 -1.7977,-0.89937 -1.7978,-0.89938 -1.2019,-1.28498 c -1.4277,-1.52628 -2.1623,-2.88921 -2.7654,-5.13084 l -0.4448,-1.65326 0.019,-3.43959 0.019,-3.43958 0.5368,-2.51354 c 2.5216,-11.80751 9.6354,-18.86636 19.641,-19.48931 l 2.5135,-0.15649 1.9844,0.30463 c 4.0994,0.62932 7.6759,2.22754 10.568,4.72241 l 1.3029,1.12394 0.1369,-0.46248 c 0.2332,-0.78754 1.2354,-6.2254902 1.1602,-6.2947802 -1.9607,-1.80533 -9.2724,-4.06912 -14.4909,-4.48656 l -2.249,-0.1799 -2.6458,0.29488 c -12.9171,1.4396 -22.4819,11.1516002 -24.8888,25.2719402 l -0.4368,2.56275 0.1267,3.7523 0.1268,3.75229 0.4439,1.58229 c 2.8528,10.16963 12.0818,14.55242 25.6235,12.16835 z m 60.8878,-0.34161 c 0.074,-0.11935 1.9248,-9.49552 4.1134,-20.83593 2.1887,-11.34041 4.0426,-20.88682 4.1199,-21.21424 l 0.1405,-0.59531 h 8.58198 8.5819 l 0.1742,-0.99219 c 0.096,-0.5457102 0.3266,-1.7449502 0.5129,-2.6650002 l 0.3386,-1.6728 -0.3024,-0.11539 c -0.1664,-0.0635 -9.3462,-0.0846 -20.39958,-0.047 l -20.0971,0.0684 -0.4621,2.24896 c -0.2542,1.23692 -0.4676,2.4573102 -0.4743,2.7119702 l -0.012,0.46303 h 8.3188 c 4.5753,0 8.3659,0.0893 8.4236,0.19843 0.058,0.10914 -1.1798,6.80641 -2.7499,14.88282 -4.7987,24.68346 -5.2635,27.10816 -5.2623,27.45052 v 0.33073 h 3.1594 c 1.7376,0 3.2197,-0.0977 3.2935,-0.21702 z m 55.51298,-2.16423 c 0.2477,-1.23693 0.4561,-2.45732 0.4631,-2.71198 l 0.013,-0.46302 h -12.1918 -12.1919 l 0.1527,-0.72761 c 0.084,-0.40018 0.8096,-4.18042 1.6124,-8.40052 0.8028,-4.2201 1.5132,-7.82048 1.5787,-8.00083 l 0.1191,-0.32791 11.4476,-0.069 11.4476,-0.069 0.4459,-2.11666 c 0.2452,-1.16417 0.4558,-2.38456 0.468,-2.71198 l 0.022,-0.59531 h -11.3771 -11.3771 v -0.24979 c 0,-0.26509 1.9302,-10.30106 2.4327,-12.64865 l 0.2973,-1.38906 h 11.969 11.9689 l 0.4249,-2.3151102 c 0.2337,-1.27331 0.4247,-2.52346 0.4244,-2.77812 l -5e-4,-0.46302 h -15.0657 -15.0656 l -0.1338,0.21652 c -0.074,0.11909 -0.9683,4.4946402 -1.9881,9.7234402 -6.3752,32.68551 -7.4343,38.14233 -7.4343,38.30365 0,0.0987 6.9949,0.14865 15.5442,0.1111 l 15.5443,-0.0683 z m 15.2814,-3.83646 3.3676,-6.08542 10.835,-0.069 10.835,-0.069 0.7475,4.69924 c 0.4111,2.58459 0.8651,5.38386 1.0087,6.2206 l 0.2613,1.52136 h 3.4113 c 1.8762,0 3.4113,-0.0765 3.4113,-0.17001 0,-0.0935 -0.964,-5.36202 -2.1422,-11.70781 -1.1782,-6.3458 -3.1776,-17.13375 -4.443,-23.97323 l -2.3009,-12.4354102 -3.7012,-0.0731 -3.7012,-0.0731 -5.9295,10.2595202 c -3.2612,5.64273 -8.061,13.95045 -10.6663,18.4616 -2.6052,4.51114 -6.1542,10.64936 -7.8867,13.64047 -1.7324,2.99111 -3.1499,5.58428 -3.1499,5.76259 v 0.32421 l 3.3378,-0.0741 3.3378,-0.074 z m 6.6256,-11.89348 c 0,-0.0657 2.005,-3.66737 4.4556,-8.00364 2.4506,-4.33627 5.4149,-9.59399 6.5874,-11.68382 l 2.1319,-3.79969 0.1466,0.4924 c 0.081,0.27081 0.9864,5.37396 2.0127,11.34031 1.0263,5.96635 1.9139,11.05628 1.9724,11.31094 l 0.1064,0.46302 h -8.7065 c -4.7886,0 -8.7065,-0.0538 -8.7065,-0.11952 z m 40.1953,16.72212 c 0.1544,-0.76398 0.704,-3.59172 1.2214,-6.28385 0.5174,-2.69214 1.9553,-10.13354 3.1955,-16.53646 1.2401,-6.40292 2.5059,-12.97984 2.813,-14.61539 0.307,-1.63555 0.6099,-2.92212 0.6729,-2.85903 0.063,0.0631 0.7485,3.54439 1.5231,7.73623 3.3328,18.03571 4.3568,23.53197 4.4885,24.09184 l 0.14,0.59531 h 3.1473 3.1474 l 9.283,-16.19797 c 5.1056,-8.90889 9.283,-16.00936 9.283,-15.77882 0,0.23053 -0.1119,1.00094 -0.2487,1.71203 -0.1368,0.71109 -1.7508,9.03195 -3.5867,18.4908 -1.836,9.45885 -3.4935,18.01164 -3.6835,19.0062 l -0.3454,1.80828 0.3111,0.1194 c 0.1712,0.0657 1.6124,0.0854 3.2028,0.0438 l 2.8916,-0.0756 0.4738,-2.51354 c 0.2607,-1.38245 2.3587,-12.1576 4.66234,-23.94479 2.30364,-11.78719 4.10656,-21.5233102 4.00649,-21.6358402 -0.10008,-0.11252 -2.37056,-0.17205 -5.04553,-0.13229 l -4.8636,0.0723 -2.2817,3.9687502 c -1.2549,2.18281 -5.3516,9.32656 -9.1037,15.875 -3.7521,6.54843 -6.9276,12.01936 -7.0567,12.1576 l -0.2347,0.25136 v -0.38365 c 0,-0.21101 -0.4688,-3.06255 -1.0368,-6.33677 -2.1834,-12.58466 -3.2532,-18.77716 -3.8165,-22.0927102 l -0.5845,-3.43958 -4.9521,-0.072 c -2.7236,-0.0396 -4.952,-0.002 -4.952,0.0828 0,0.1237 -5.5008,28.4283902 -8.6106,44.3069002 -0.3563,1.81901 -0.6482,3.45612 -0.6488,3.63802 l -10e-4,0.33073 h 3.1562 3.1563 z m -460.98438,-0.7276 c 0.1863,-0.94589 1.0559,-5.40142 1.9325,-9.90119 0.8766,-4.49977 1.7074,-8.29498 1.8462,-8.4338 l 0.2524,-0.25241 4.716,0.1339 4.716,0.1339 1.2811,0.46172 1.2811,0.46171 0.9297,0.92965 c 1.4315,1.43154 2.4223,3.82826 4.7015,11.37329 l 2.0981,6.94531 h 3.4153 3.4154 l -0.125,-0.33073 c -0.069,-0.1819 -1.2184,-3.84307 -2.5549,-8.13593 l -2.4299,-7.80521 -1.1694,-2.41851 -1.1694,-2.41852 -1.1186,-0.82263 c -0.6153,-0.45245 -1.2976,-0.82263 -1.5163,-0.82263 h -0.3977 l 0.2514,-0.21998 c 0.1382,-0.12099 0.7871,-0.37038 1.442,-0.55419 0.6548,-0.18382 1.8039,-0.68214 2.5535,-1.10738 l 1.3628,-0.77316 1.5476,-1.65832 1.5475,-1.65831 0.7182,-1.47644 c 0.9765,-2.00735 1.2521,-3.36731 1.2597,-6.21654 l 0.01,-2.41953 -0.5304,-1.68151 -0.5304,-1.68152 -0.8937,-1.21042 c -1.0922,-1.4791102 -3.1932,-2.9106102 -5.4681,-3.7257002 l -1.7055,-0.61106 -9.5688,-0.0883 -9.5687,-0.0883 -0.2863,1.40668 c -0.1575,0.77367 -1.3046,6.6454202 -2.5491,13.0483402 -3.8676,19.89886 -4.0895,21.03997 -5.0422,25.92917 -1.317,6.75822 -1.4276,7.3358 -1.4276,7.45259 0,0.0574 1.4487,0.0709 3.2194,0.03 l 3.2194,-0.0743 z m 4.877,-24.91938 c 0.1187,-0.62814 0.7702,-3.99958 1.4479,-7.49208 0.6776,-3.4925 1.2967,-6.79648 1.3757,-7.34219 l 0.1436,-0.99218 h 5.3496 5.3497 l 0.8994,0.30885 c 1.493,0.5127 2.8397,1.48803 3.5622,2.5799 l 0.6839,1.03341 0.2982,1.74096 0.2983,1.74096 -0.34,1.65577 c -0.6755,3.2899 -2.3749,5.40413 -5.555,6.91087 l -1.7524,0.83032 -5.9884,0.0837 -5.9884,0.0837 z m 89.0701,25.25011 c 0.7677,-4.5633 7.6396,-39.48906 7.7698,-39.48906 0.1294,0 2.9549,8.74641 12.0326,37.24645 l 1.203,3.77666 4.4086,-0.0725 4.4086,-0.0725 3.2384,-16.66875 c 1.7811,-9.16781 3.8426,-19.76437 4.5811,-23.54792 0.7384,-3.7835402 1.3405,-7.0279902 1.3379,-7.2098902 v -0.33073 h -3.0248 -3.0249 l -0.136,0.46302 c -0.075,0.25466 -1.4564,7.2495802 -3.0703,15.5442702 -1.6138,8.29469 -3.3649,17.25965 -3.8913,19.92213 l -0.9569,4.84088 -0.2042,-0.21067 c -0.1601,-0.16526 -10.6558,-32.5035 -12.6488,-38.9721302 l -0.4483,-1.45521 -4.4212,-0.0725 c -2.4316,-0.0399 -4.4212,-0.0354 -4.4212,0.01 0,0.0454 -0.3518,1.86396 -0.7818,4.0412902 -0.4301,2.17733 -1.5676,8.00691 -2.5279,12.95461 -0.9603,4.94771 -2.6921,13.8502 -3.8484,19.78331 -1.1562,5.93311 -2.1023,10.84444 -2.1023,10.91406 0,0.0696 1.4123,0.12659 3.1385,0.12659 h 3.1385 z m 49.1599,0.92604 c 0.077,-0.32742 1.809,-9.22734 3.8484,-19.7776 2.0394,-10.55026 3.7765,-19.52149 3.8601,-19.93605 l 0.1521,-0.75376 0.2114,0.22459 c 0.1163,0.12353 1.8215,5.28475 3.7893,11.46938 1.9679,6.18464 4.8701,15.29292 6.4494,20.24063 l 2.8714,8.99583 4.4049,0.0725 4.405,0.0725 0.2805,-1.39537 c 0.1543,-0.76746 0.8124,-4.13381 1.4625,-7.48079 3.1102,-16.01447 4.9975,-25.71766 6.2207,-31.98178 0.7352,-3.7655002 1.3368,-6.8908902 1.3368,-6.9453202 0,-0.0544 -1.4006,-0.0989 -3.1126,-0.0989 h -3.1125 l -3.9302,20.1744802 c -2.1615,11.09596 -4.0136,20.26607 -4.1156,20.37803 -0.1021,0.11195 -2.4781,-6.91274 -5.2801,-15.61042 -2.802,-8.69768 -5.7576,-17.8706 -6.568,-20.38425 l -1.4734,-4.5702902 -4.3904,0.0724 -4.3905,0.0724 -0.4519,2.38125 c -0.5758,3.0347702 -1.5748,8.1636902 -5.3853,27.6489602 -1.6932,8.65849 -3.1436,16.18919 -3.223,16.7349 l -0.1445,0.99218 h 3.0725 3.0725 z m 50.7469,-5.95325 c 1.6507,-8.52518 2.612,-13.46227 5.2158,-26.78894 1.18,-6.03911 2.2988,-11.7838802 2.4864,-12.7661402 l 0.341,-1.78594 h -3.2303 -3.2303 l -0.4469,2.3151 c -0.2458,1.27331 -0.97,4.9940102 -1.6094,8.2682302 -0.6393,3.27422 -1.8899,9.7036 -2.779,14.2875 -0.8891,4.58391 -2.0332,10.4775 -2.5424,13.09688 -0.5091,2.61937 -1.0987,5.65547 -1.3102,6.74687 -0.2115,1.09141 -0.4453,2.25227 -0.5197,2.57969 l -0.1353,0.59531 3.2462,-1.3e-4 3.2462,-1.2e-4 z m 20.0741,-4.16706 c 1.1279,-5.82084 2.4669,-12.72646 2.9755,-15.34584 0.5086,-2.61937 1.3605,-7.02468 1.8932,-9.78958 0.936,-4.85774 1.0637,-5.37496 1.2688,-5.13733 0.08,0.0927 3.8533,11.88767 11.5465,36.09358 l 1.5137,4.7625 4.3959,0.0725 4.3959,0.0725 0.1417,-0.60168 c 0.078,-0.33093 1.1459,-5.7809 2.3732,-12.11106 3.3477,-17.26617 3.7526,-19.34672 5.3174,-27.32454 0.7928,-4.04167 1.4414,-7.4685002 1.4414,-7.6151602 v -0.26667 l -3.0998,0.0745 -3.0997,0.0745 -0.8525,4.3656302 c -0.4688,2.40109 -1.6987,8.7114 -2.7331,14.02291 -3.8426,19.73247 -4.347,22.225 -4.4971,22.225 -0.084,0 -1.0207,-2.70867 -2.0807,-6.01927 -2.1109,-6.59312 -5.356,-16.67426 -8.9,-27.64896 l -2.2856,-7.0776002 h -4.3319 -4.3319 l -0.1364,0.46302 c -0.075,0.25466 -0.8623,4.2134902 -1.7495,8.7974002 -1.9248,9.94563 -4.9553,25.53141 -6.2507,32.14687 -0.5129,2.61938 -0.9998,5.15337 -1.082,5.63111 l -0.1495,0.8686 3.1333,-0.0748 3.1332,-0.0749 z"
       id="path312" /></g><style
     id="style1">@media(prefers-color-scheme:dark){.lines{fill:#d7d7d7}}</style></svg>
