<?xml version="1.0" encoding="UTF-8" standalone="no"?>
<!-- Created with Inkscape (http://www.inkscape.org/) -->

<svg
   width="311.64166mm"
   height="311.31155mm"
   viewBox="0 0 311.64166 311.31155"
   version="1.1"
   id="svg1"
   xml:space="preserve"
   inkscape:version="1.4.4 (dcaf3e7, 2026-05-05)"
   sodipodi:docname="logos teams.svg"
   inkscape:export-batch-name="logos teams"
   inkscape:export-batch-path="Desktop/3 LIGA"
   xmlns:inkscape="http://www.inkscape.org/namespaces/inkscape"
   xmlns:sodipodi="http://sodipodi.sourceforge.net/DTD/sodipodi-0.dtd"
   xmlns="http://www.w3.org/2000/svg"
   xmlns:svg="http://www.w3.org/2000/svg"><sodipodi:namedview
     id="namedview1"
     pagecolor="#ffffff"
     bordercolor="#000000"
     borderopacity="0.25"
     inkscape:showpageshadow="2"
     inkscape:pageopacity="0.0"
     inkscape:pagecheckerboard="0"
     inkscape:deskcolor="#d1d1d1"
     inkscape:document-units="mm"
     inkscape:zoom="0.037190382"
     inkscape:cx="-4006.4122"
     inkscape:cy="-8779.1516"
     inkscape:window-width="1920"
     inkscape:window-height="1050"
     inkscape:window-x="0"
     inkscape:window-y="30"
     inkscape:window-maximized="0"
     inkscape:current-layer="layer1"><inkscape:page
       x="0"
       y="0"
       width="311.64166"
       height="311.31155"
       id="page1"
       margin="0"
       bleed="0" /></sodipodi:namedview><defs
     id="defs1"><style
       id="style1-7">
      .cls-1 {
        fill: #fff;
      }
    </style></defs><g
     inkscape:label="Ebene 1"
     inkscape:groupmode="layer"
     id="layer1"
     transform="translate(1565.2262,1692.2678)"><path
       style="fill:#000000"
       d="m -1417.8984,-1381.1111 c -11.3882,-0.6248 -21.9222,-2.2561 -32.676,-5.0603 -1.6735,-0.4363 -3.0824,-0.9066 -3.1309,-1.0449 -0.049,-0.1383 -0.2719,-0.2514 -0.4964,-0.2514 -1.4074,0 -17.8039,-5.875 -17.8039,-6.3792 0,-0.1086 -0.6251,-0.432 -1.3891,-0.7188 -2.1713,-0.8151 -11.4126,-5.3196 -11.7093,-5.7075 -0.1463,-0.1914 -1.1583,-0.8186 -2.2489,-1.3939 -2.539,-1.3393 -9.0018,-5.3034 -9.3726,-5.7487 -0.3075,-0.3694 -3.7946,-2.8061 -4.0157,-2.8061 -0.2514,0 -4.4405,-3.2757 -5.483,-4.2874 -0.5692,-0.5524 -1.1287,-1.0043 -1.2435,-1.0043 -0.9031,0 -11.627,-9.9747 -16.3314,-15.1905 -1.5637,-1.7336 -3.089,-3.4004 -3.3897,-3.7041 -1.0946,-1.1055 -4.5638,-5.4161 -5.5275,-6.8679 -0.5438,-0.8193 -1.0717,-1.4896 -1.1731,-1.4896 -0.2071,0 -3.4683,-4.3349 -3.4683,-4.6101 0,-0.2847 -2.6777,-4.1977 -3.3257,-4.86 -0.3264,-0.3336 -0.7998,-1.0414 -1.052,-1.5727 -0.2521,-0.5314 -1.0775,-1.9872 -1.8342,-3.2351 -0.7567,-1.2478 -1.756,-3.0656 -2.2208,-4.0393 -0.4647,-0.9738 -1.0219,-1.9475 -1.2382,-2.1638 -0.5143,-0.5143 -4.1007,-8.0218 -5.4425,-11.3929 -0.5774,-1.4506 -1.1675,-2.7103 -1.3114,-2.7992 -0.512,-0.3164 -3.8583,-10.2149 -5.452,-16.1269 -0.5295,-1.9645 -1.0445,-3.6314 -1.1444,-3.7041 -0.1,-0.073 -0.3727,-0.9658 -0.6064,-1.9844 -1.9875,-8.6647 -2.9612,-14.8044 -3.7973,-23.9448 l -0.4236,-4.6302 -0.01,-8.599 -0.01,-8.5989 0.3132,-3.7042 c 0.4205,-4.9741 1.2606,-11.7596 1.9163,-15.4781 0.7458,-4.2301 2.3887,-11.7466 2.6024,-11.9063 0.097,-0.073 0.4495,-1.1443 0.7826,-2.3812 1.003,-3.7243 2.633,-8.9304 3.8935,-12.4354 1.6621,-4.6219 1.7626,-4.8783 1.971,-5.0271 0.1018,-0.073 0.8416,-1.6801 1.644,-3.5719 1.6027,-3.7788 4.6445,-10.2419 4.9187,-10.451 0.2955,-0.2254 0.9631,-1.3595 2.3779,-4.0398 0.7485,-1.4181 1.8955,-3.4122 2.5487,-4.4314 0.6533,-1.0191 1.1878,-1.9662 1.1878,-2.1046 0,-0.1383 0.2183,-0.4645 0.485,-0.7249 0.4306,-0.4201 3.4589,-4.6955 4.144,-5.8502 0.5118,-0.8629 2.3682,-3.3597 2.789,-3.7512 0.6083,-0.566 2.3716,-2.8326 2.3716,-3.0485 0,-0.239 3.1946,-4.0078 4.2563,-5.0213 0.4574,-0.4366 1.1409,-1.2105 1.5191,-1.7198 1.0063,-1.3554 10.9736,-11.3661 11.3227,-11.3721 0.1633,0 0.7754,-0.524 1.3601,-1.1584 1.3503,-1.4648 4.1405,-3.826 6.9041,-5.8424 1.1849,-0.8645 2.1544,-1.6428 2.1544,-1.7295 0,-0.1761 2.5484,-2.1226 2.7789,-2.1226 0.2222,0 6.336,-4.3336 6.4374,-4.5629 0.049,-0.1098 0.1911,-0.1996 0.3169,-0.1996 0.1257,0 1.3362,-0.6972 2.6899,-1.5493 1.3537,-0.8521 3.7709,-2.241 5.3716,-3.0865 1.6008,-0.8455 3.0295,-1.6816 3.175,-1.8581 0.2754,-0.3339 6.268,-3.1932 10.848,-5.1761 1.4552,-0.63 2.7053,-1.219 2.7781,-1.3088 0.4306,-0.5318 11.9938,-4.4413 17.3302,-5.8593 1.7462,-0.464 3.2345,-0.9187 3.3073,-1.0104 0.1558,-0.1963 5.0491,-1.3324 8.9958,-2.0885 4.5611,-0.8739 11.7243,-1.835 16.8832,-2.2652 l 4.8446,-0.4041 h 8.5271 8.5271 l 4.6199,0.3925 c 6.868,0.5834 11.3424,1.195 17.7169,2.4219 5.0204,0.9662 8.2021,1.7256 8.2021,1.9575 0,0.1148 0.506,0.2933 1.1244,0.3966 3.6219,0.6054 18.7933,5.7157 19.7202,6.6425 0.1979,0.1979 0.5233,0.3599 0.7231,0.3599 0.1999,0 1.2332,0.3956 2.2962,0.8792 1.0631,0.4836 2.4687,1.1084 3.1236,1.3885 2.8651,1.2252 7.4083,3.5621 7.4083,3.8106 0,0.1494 0.1572,0.2717 0.3494,0.2717 0.1921,0 1.8041,0.8334 3.5821,1.8521 1.778,1.0186 3.2864,1.852 3.3521,1.852 0.1829,0 3.9431,2.4281 4.0935,2.6433 0.073,0.1042 1.1954,0.8728 2.4947,1.7081 1.2993,0.8352 3.233,2.1624 4.2969,2.9493 1.064,0.7868 2.0488,1.4306 2.1885,1.4306 0.1397,0 0.3492,0.1627 0.4656,0.3615 0.2192,0.3745 5.3444,4.5837 6.183,5.078 1.5416,0.9085 13.8976,13.0988 16.6499,16.4266 0.9456,1.1433 2.4041,2.7856 3.2412,3.6496 0.837,0.8639 1.5218,1.6597 1.5218,1.7683 0,0.1086 1.0703,1.6044 2.3784,3.3239 1.3081,1.7196 2.3797,3.2753 2.3812,3.4572 0,0.1819 0.1162,0.3307 0.2546,0.3307 0.3165,0 3.357,4.3681 4.5122,6.4823 0.8859,1.6215 1.6625,2.8113 2.3761,3.6406 0.5156,0.599 3.388,5.9496 4.9331,9.1889 0.6587,1.3809 1.3011,2.5748 1.4277,2.653 0.3421,0.2114 4.7555,10.2199 4.7555,10.7842 0,0.2964 1.6866,4.686 1.8527,4.8219 0.8227,0.6729 4.7314,15.0285 5.9792,21.9604 0.2489,1.3824 0.5371,2.5731 0.6404,2.6458 0.1033,0.073 0.4394,1.8587 0.7469,3.9688 2.1102,14.4794 2.3422,29.0204 0.6882,43.127 -0.5323,4.5399 -1.2179,8.8366 -1.4355,8.9959 -0.099,0.073 -0.3112,0.9062 -0.4708,1.8521 -1.0916,6.4707 -5.3916,22.5128 -6.1113,22.7999 -0.1193,0.048 -0.5232,0.9795 -0.8974,2.0709 -1.5909,4.6391 -4.9552,12.5685 -5.7673,13.5931 -0.1297,0.1636 -1.3501,2.5028 -2.7119,5.1982 -2.5107,4.969 -3.2294,6.2644 -3.7397,6.741 -0.3788,0.3537 -1.6002,2.2661 -1.8113,2.836 -0.093,0.25 -1.007,1.7046 -2.032,3.2323 -1.0249,1.5277 -1.8635,2.878 -1.8635,3.0008 0,0.1227 -0.3401,0.5732 -0.7558,1.001 -0.84,0.8646 -4.2713,5.3631 -4.2713,5.5998 0,0.239 -1.862,2.4753 -3.1296,3.7588 -0.6369,0.6449 -1.6417,1.8355 -2.2329,2.6459 -0.5912,0.8103 -1.9267,2.3084 -2.9677,3.329 -1.0409,1.0207 -2.6386,2.7224 -3.5503,3.7817 -0.9117,1.0593 -2.2727,2.4102 -3.0245,3.0019 -0.7518,0.5918 -2.604,2.2654 -4.1161,3.7193 -1.512,1.4539 -3.0631,2.8398 -3.4468,3.0799 -1.0678,0.6682 -4.255,3.2857 -4.255,3.4945 0,0.1017 -0.6779,0.6458 -1.5064,1.2093 -1.7753,1.2073 -7.2402,5.036 -7.6218,5.3397 -0.9025,0.7185 -4.5387,3.0604 -5.8508,3.7682 -2.3422,1.2635 -5.2204,2.9781 -5.5836,3.3263 -0.3549,0.3404 -4.8259,2.5442 -9.7086,4.7855 -1.7332,0.7956 -3.3193,1.6146 -3.5246,1.8199 -0.2053,0.2053 -0.4879,0.3733 -0.6281,0.3733 -0.1401,0 -1.6083,0.5354 -3.2627,1.1897 -3.4803,1.3765 -9.1853,3.3346 -12.0535,4.137 -1.0923,0.3056 -2.0503,0.6572 -2.1289,0.7813 -0.4876,0.7704 -15.7391,3.9533 -24.0665,5.0227 -7.6981,0.9885 -20.956,1.472 -28.7073,1.0468 z m 22.2318,-4.6416 c 5.8168,-0.5337 11.0802,-1.2175 11.238,-1.46 0.073,-0.1117 0.7276,-0.2872 1.4552,-0.3899 5.7809,-0.816 23.6526,-5.3889 24.2094,-6.1945 0.073,-0.1053 1.3825,-0.6463 2.9104,-1.2023 5.8553,-2.1306 11.87,-4.6934 12.801,-5.4544 0.1628,-0.133 2.1414,-1.1514 4.397,-2.263 4.5777,-2.2561 8.202,-4.2759 8.202,-4.571 0,-0.1069 0.5322,-0.4602 1.1826,-0.7851 0.6503,-0.3248 2.4702,-1.4472 4.044,-2.4943 1.5739,-1.047 3.1965,-2.0788 3.6058,-2.2929 0.4094,-0.2141 1.0601,-0.6976 1.4461,-1.0743 0.8917,-0.8704 4.2048,-3.4313 4.4391,-3.4313 0.2929,0 2.5173,-1.8546 4.0679,-3.3917 0.8003,-0.7933 1.8802,-1.7119 2.3998,-2.0414 2.1825,-1.3837 14.9386,-14.5274 17.7664,-18.3063 1.0084,-1.3475 1.9792,-2.5403 2.1574,-2.6506 0.3452,-0.2137 2.8118,-3.3748 2.8118,-3.6034 0,-0.2585 3.824,-5.5939 4.1602,-5.8046 0.1857,-0.1164 0.3377,-0.3147 0.3377,-0.4408 0,-0.1261 0.8138,-1.5191 1.8084,-3.0957 0.9946,-1.5766 2.215,-3.6785 2.7119,-4.6709 0.497,-0.9924 1.1327,-2.0514 1.4127,-2.3534 0.63,-0.6796 3.9267,-7.3361 5.4427,-10.9896 0.6189,-1.4916 1.2157,-2.712 1.3262,-2.712 0.1105,0 0.2649,-0.2083 0.343,-0.463 0.078,-0.2547 0.7564,-2.0704 1.5073,-4.0349 1.473,-3.8535 3.7002,-10.6518 4.2257,-12.8984 0.1787,-0.764 0.4182,-1.3891 0.5322,-1.3891 0.1141,0 0.2688,-0.2679 0.3439,-0.5953 0.075,-0.3274 0.5568,-2.3813 1.0705,-4.5641 1.6268,-6.9136 2.7587,-13.7276 3.5161,-21.1666 l 0.404,-3.9688 0.1394,-8.599 0.1394,-8.5989 -0.4217,-5.3314 c -0.6414,-8.1072 -1.6896,-15.5634 -3.063,-21.7884 -0.9882,-4.4786 -1.9228,-8.0666 -2.1373,-8.2047 -0.1152,-0.074 -0.2896,-0.491 -0.3875,-0.9261 -0.7176,-3.1892 -5.474,-16.8145 -6.0819,-17.4223 -0.171,-0.171 -0.6307,-1.1103 -1.0216,-2.0874 -1.1159,-2.7894 -5.4485,-11.6395 -5.8521,-11.9541 -0.2001,-0.1559 -0.7495,-1.0574 -1.2208,-2.0033 -0.4713,-0.9459 -1.5524,-2.8288 -2.4024,-4.1842 -0.8499,-1.3555 -1.7396,-2.8438 -1.977,-3.3073 -0.2374,-0.4636 -0.6939,-1.1082 -1.0145,-1.4325 -0.3206,-0.3242 -1.6338,-2.1511 -2.9183,-4.0597 -1.2845,-1.9086 -2.7618,-3.9143 -3.2829,-4.457 -0.5212,-0.5428 -1.3643,-1.5523 -1.8737,-2.2434 -1.3028,-1.768 -4.0923,-5.0994 -5.4506,-6.5094 -4.5551,-4.7289 -11.7457,-11.8097 -12.392,-12.2027 -0.4301,-0.2616 -1.4433,-1.1117 -2.2515,-1.8893 -1.8106,-1.7419 -4.3709,-3.8999 -4.6269,-3.8999 -0.2565,0 -3.2543,-2.2861 -4.2874,-3.2696 -0.4567,-0.4347 -1.4283,-1.1569 -2.1591,-1.6047 -2.3067,-1.4136 -7.3165,-4.6261 -7.6365,-4.8969 -0.7355,-0.6223 -3.9549,-2.463 -7.6279,-4.3612 -2.1815,-1.1274 -4.0269,-2.1407 -4.101,-2.2518 -0.3001,-0.4498 -13.2142,-5.8852 -14.8215,-6.2382 -0.4352,-0.096 -0.7914,-0.2734 -0.7914,-0.395 0,-0.8004 -21.7669,-6.616 -24.7625,-6.616 -0.3506,0 -0.6375,-0.1016 -0.6375,-0.2258 0,-0.345 -5.4431,-1.161 -12.9646,-1.9436 l -3.3073,-0.3441 -11.1125,0.01 -11.1125,0.01 -4.2333,0.4661 c -5.5359,0.6094 -11.6046,1.5036 -11.7729,1.7346 -0.073,0.1007 -1.5621,0.4557 -3.3084,0.789 -3.9727,0.7582 -8.9518,1.9404 -12.5677,2.984 -3.8714,1.1173 -9.3663,2.921 -9.525,3.1265 -0.073,0.094 -1.4419,0.6792 -3.0427,1.2999 -5.4704,2.1212 -12.1188,5.0458 -12.263,5.3944 -0.051,0.1225 -1.2196,0.7604 -2.5977,1.4173 -1.3781,0.657 -3.5988,1.8252 -4.9349,2.596 -1.3362,0.7708 -2.6852,1.4823 -2.9979,1.581 -0.3128,0.099 -0.8485,0.4473 -1.1907,0.7744 -0.3421,0.3272 -1.6341,1.2328 -2.871,2.0125 -4.061,2.5598 -6.6135,4.2986 -6.8141,4.6416 -0.1085,0.1856 -0.855,0.7559 -1.6589,1.2673 -1.2774,0.8128 -5.4842,4.0796 -7.0051,5.4401 -0.291,0.2604 -1.7198,1.5368 -3.175,2.8366 -1.4552,1.2998 -2.6855,2.4542 -2.734,2.5654 -0.048,0.1112 -0.2012,0.2022 -0.3394,0.2022 -0.5449,0 -7.8555,7.7963 -13.6454,14.5521 -1.2772,1.4903 -4.9228,6.3136 -5.0995,6.7469 -0.1187,0.291 -0.4995,0.8334 -0.8463,1.2053 -1.1127,1.1934 -2.496,3.2052 -4.7199,6.8644 -1.194,1.9646 -2.2622,3.6314 -2.3739,3.7042 -0.3132,0.204 -2.7555,4.7708 -4.6373,8.6712 -0.9319,1.9316 -1.8601,3.6776 -2.0626,3.8801 -0.2025,0.2025 -0.5195,0.7653 -0.7043,1.2507 -0.1849,0.4853 -0.8034,1.9785 -1.3745,3.3182 -1.3567,3.1825 -4.1931,10.8533 -4.1931,11.3397 0,0.2088 -0.1,0.3797 -0.2213,0.3797 -0.2239,0 -1.5411,4.1294 -2.7851,8.7312 -1.4559,5.386 -3.6082,16.2753 -3.6082,18.2553 0,0.4128 -0.1122,0.7903 -0.2493,0.8388 l -0.2494,0.088 -0.407,3.8365 c -0.9493,8.9488 -1.2053,18.9903 -0.6811,26.7229 0.3722,5.4895 1.0762,12.0159 1.313,12.1708 0.1112,0.073 0.289,0.8467 0.3951,1.7198 0.8668,7.1327 5.3751,25.7969 6.2312,25.7969 0.121,0 0.3047,0.387 0.4081,0.8599 0.2155,0.9856 2.1368,6.2608 3.3487,9.1943 2.0131,4.8731 2.5993,6.1923 2.8139,6.3324 0.1262,0.082 1.1364,1.9953 2.2449,4.2509 2.1729,4.4214 4.0772,7.9856 4.3815,8.2006 0.247,0.1745 3.7337,5.7613 3.7337,5.9826 0,0.2517 2.3914,3.6133 2.8976,4.0731 0.5331,0.4842 1.8649,2.2809 1.8649,2.5159 0,0.2172 3.5846,4.8776 5.0794,6.6039 0.6261,0.723 2.0656,2.3899 3.1989,3.7042 4.1092,4.7651 15.0076,15.2999 16.3544,15.8086 0.2765,0.1044 0.5028,0.2984 0.5028,0.4311 0,0.2523 5.3715,4.5933 5.9088,4.7752 0.35,0.1185 2.1926,1.5263 2.8532,2.1798 0.4913,0.4861 3.5691,2.6104 3.782,2.6104 0.2202,0 5.528,3.5079 6.0928,4.0268 0.2821,0.2591 0.6106,0.4712 0.7299,0.4712 0.1194,0 1.3173,0.6331 2.6621,1.4068 1.3448,0.7738 3.9036,2.1028 5.6863,2.9532 1.7826,0.8505 3.2411,1.6332 3.2411,1.7394 0,0.1062 0.506,0.3939 1.1245,0.6394 0.6184,0.2454 2.3151,0.9692 3.7703,1.6083 3.3494,1.4712 9.5186,3.8237 10.0269,3.8237 0.2125,0 0.546,0.1596 0.7411,0.3547 1.1779,1.1779 22.0502,6.5245 25.4709,6.5245 0.3687,0 0.6705,0.098 0.6705,0.2179 0,0.4186 9.6749,1.5399 16.4041,1.9012 5.3844,0.2891 16.8241,0.08 22.0995,-0.4041 z m -23.2901,-3.5862 c -9.4913,-0.6816 -16.8899,-1.748 -24.937,-3.5943 -1.6371,-0.3756 -2.9765,-0.7723 -2.9765,-0.8814 0,-0.1092 -0.4416,-0.2702 -0.9813,-0.3577 -3.0903,-0.5015 -18.1509,-5.561 -18.5965,-6.2474 -0.073,-0.1132 -0.4313,-0.2946 -0.7951,-0.403 -2.2689,-0.6762 -13.4938,-6.0943 -13.4938,-6.5133 0,-0.1321 -0.1254,-0.2401 -0.2786,-0.2401 -0.1532,0 -1.4332,-0.6732 -2.8443,-1.4961 -1.4111,-0.8229 -3.2205,-1.8509 -4.0208,-2.2845 -1.5978,-0.8657 -3.6863,-2.242 -4.1011,-2.7026 -0.4162,-0.4622 -2.1904,-1.7187 -2.4297,-1.7207 -0.2448,0 -6.0189,-4.1998 -6.8307,-4.9658 -0.291,-0.2746 -1.7755,-1.5017 -3.2987,-2.7268 -1.5232,-1.2251 -3.2636,-2.7037 -3.8674,-3.2858 -0.6038,-0.5821 -2.11,-2.0406 -3.347,-3.2411 -1.2371,-1.2006 -2.3543,-2.1839 -2.4826,-2.1852 -0.1284,0 -0.5311,-0.3855 -0.8949,-0.8537 -0.5803,-0.7468 -3.7068,-4.1439 -5.9176,-6.4298 -0.417,-0.4312 -1.9267,-2.2385 -3.3547,-4.0162 -1.4281,-1.7778 -2.7299,-3.3851 -2.8929,-3.5719 -0.6912,-0.7919 -4.5688,-6.1942 -4.7066,-6.5573 -0.2088,-0.5501 -1.6846,-2.7207 -2.0687,-3.0427 -0.3271,-0.2742 -2.4908,-3.6584 -2.4908,-3.8958 0,-0.074 -0.8334,-1.5701 -1.8521,-3.3248 -1.0186,-1.7548 -1.852,-3.3086 -1.852,-3.453 0,-0.1444 -0.1048,-0.3022 -0.2327,-0.3507 -0.4791,-0.1816 -6.1173,-12.217 -6.1173,-13.058 0,-0.1946 -0.1553,-0.5112 -0.345,-0.7035 -0.9601,-0.973 -5.7347,-15.5101 -6.3935,-19.4658 -0.103,-0.6184 -0.2761,-1.1244 -0.3848,-1.1244 -0.5809,0 -2.7072,-12.1492 -3.6352,-20.7698 l -0.4556,-4.2334 -0.01,-10.451 -0.01,-10.451 0.4674,-4.3657 c 0.5208,-4.8652 1.2914,-10.3291 1.8942,-13.4305 0.9733,-5.0078 1.5544,-7.4716 1.7624,-7.4716 0.1233,0 0.2243,-0.2048 0.2243,-0.4552 0,-1.6345 5.6467,-19.4066 6.3285,-19.9177 0.097,-0.073 0.5563,-1.0475 1.0206,-2.1662 1.7393,-4.1907 5.3413,-11.8834 5.6835,-12.138 0.2403,-0.1789 3.6361,-6.062 3.6362,-6.2996 0,-0.2916 2.5744,-4.1956 3.1387,-4.7599 0.2989,-0.2989 0.7752,-0.9949 1.0584,-1.5466 0.5051,-0.984 4.6867,-6.9695 5.4144,-7.7501 0.8298,-0.8902 4.3294,-5.1906 4.5603,-5.604 0.2622,-0.4694 5.1416,-5.7493 7.403,-8.0107 3.2098,-3.2099 7.3599,-7.1571 7.7903,-7.4095 0.7862,-0.4611 5.4037,-4.3922 5.7905,-4.9297 0.1997,-0.2774 0.4628,-0.5044 0.5847,-0.5044 0.1219,0 1.2682,-0.7917 2.5474,-1.7593 1.2792,-0.9676 3.1592,-2.2955 4.1779,-2.9508 1.0186,-0.6554 1.9711,-1.3404 2.1166,-1.5224 0.2806,-0.3508 3.8827,-2.6868 4.6019,-2.9843 0.5637,-0.2332 5.6797,-3.2923 5.8492,-3.4974 0.2184,-0.2645 6.243,-3.243 9.9218,-4.9052 1.8918,-0.8548 3.4992,-1.6268 3.5719,-1.7154 0.5441,-0.663 16.8228,-6.3298 18.183,-6.3298 0.1616,0 0.3334,-0.1062 0.382,-0.2359 0.5347,-1.4304 22.0965,-4.7895 34.0871,-5.3105 l 6.2177,-0.2702 5.9531,0.2543 c 8.1964,0.3502 14.5187,1.0349 21.9605,2.3786 5.2996,0.9569 12.1708,2.6185 12.1708,2.9431 0,0.1323 0.2145,0.2406 0.4768,0.2406 1.5933,0 17.6243,5.6279 18.4862,6.4898 0.2137,0.2137 0.7077,0.4674 1.0977,0.5637 1.3581,0.3353 11.3823,5.2302 11.8238,5.7736 0.1468,0.1806 0.9086,0.6536 1.6929,1.051 0.7844,0.3975 2.6313,1.4559 4.1042,2.352 1.473,0.8961 3.0134,1.8037 3.4231,2.0169 0.4097,0.2132 1.0524,0.6725 1.4282,1.0208 0.3757,0.3482 2.0026,1.5279 3.6152,2.6215 3.549,2.4068 4.6915,3.2815 6.2168,4.7599 0.6425,0.6226 1.2819,1.132 1.4209,1.132 0.3372,0 5.425,4.4157 5.824,5.0546 0.1723,0.2759 0.4439,0.5017 0.6035,0.5017 0.3628,0 10.1954,9.9771 11.6034,11.774 0.5702,0.7276 1.2279,1.5015 1.4617,1.7197 0.6627,0.6189 4.7737,5.748 4.7737,5.956 0,0.2119 1.5243,2.2435 1.983,2.643 0.3967,0.3454 3.0441,3.9962 3.0441,4.1977 0,0.2535 3.4149,5.4553 3.9785,6.0602 0.2857,0.3066 0.5194,0.6604 0.5194,0.7862 0,0.1258 0.6318,1.3238 1.404,2.6621 0.7722,1.3384 2.0274,3.7392 2.7893,5.3351 0.7619,1.596 1.4935,2.9686 1.6257,3.0503 0.5122,0.3166 4.6737,10.2419 6.0464,14.4209 0.239,0.7276 0.5206,1.3613 0.6259,1.4082 0.217,0.097 1.675,4.6283 2.8244,8.7783 1.3639,4.9246 3.474,14.8572 3.4709,16.338 -6e-4,0.3274 0.1004,0.5953 0.2246,0.5953 0.2236,0 0.766,3.79 1.4199,9.9219 l 0.3387,3.175 v 10.8479 10.8479 l -0.3301,2.9104 c -0.6689,5.8985 -1.2052,9.7931 -1.3663,9.9219 -0.091,0.073 -0.4411,1.6801 -0.7781,3.5719 -1.3295,7.4652 -5.0087,21.419 -5.8251,22.0927 -0.088,0.073 -0.3243,0.6085 -0.5248,1.1906 -0.7388,2.1456 -3.2616,8.5299 -4.182,10.5833 -0.5219,1.1642 -1.1283,2.5334 -1.3477,3.0427 -0.2194,0.5094 -0.4869,0.9856 -0.5944,1.0584 -0.1076,0.073 -0.8852,1.5015 -1.7281,3.175 -1.491,2.9602 -4.5629,8.4652 -4.8721,8.7312 -0.2225,0.1914 -3.974,6.082 -3.974,6.2399 0,0.2086 -2.1424,3.0862 -2.7998,3.7606 -0.3259,0.3342 -1.0478,1.2867 -1.6044,2.1166 -1.4253,2.1255 -4.2693,5.6276 -5.1622,6.3568 -0.4138,0.338 -0.7524,0.7409 -0.7524,0.8954 0,1.1642 -18.0481,18.719 -19.2593,18.7329 -0.1032,0 -0.9019,0.6602 -1.775,1.4646 -0.8732,0.8044 -3.1949,2.5479 -5.1594,3.8745 -1.9646,1.3266 -3.8314,2.667 -4.1486,2.9786 -0.3173,0.3117 -0.9101,0.7401 -1.3176,0.9521 -0.4074,0.2119 -1.9338,1.1063 -3.392,1.9875 -1.4582,0.8813 -3.4184,1.9971 -4.356,2.4797 -0.9377,0.4826 -1.8797,1.0524 -2.0935,1.2661 -0.4818,0.4818 -8.3236,4.2607 -11.5475,5.5646 -1.3097,0.5297 -2.5177,1.0979 -2.6844,1.2626 -0.1668,0.1648 -0.8811,0.507 -1.5875,0.7604 -0.7064,0.2535 -2.2369,0.8133 -3.4011,1.244 -2.7302,1.0102 -9.7518,3.1972 -12.3031,3.832 -1.0914,0.2716 -2.0458,0.5782 -2.1208,0.6814 -0.2677,0.3682 -7.077,1.8316 -12.6958,2.7285 -10.9543,1.7484 -24.3936,2.4194 -34.2636,1.7105 z m 23.5879,-5.7016 1.5728,-0.1644 0.7304,-2.6798 c 2.0464,-7.508 4.5358,-16.189 4.6761,-16.306 0.087,-0.073 0.5522,-1.561 1.0333,-3.3073 0.4811,-1.7462 1.0942,-3.9433 1.3624,-4.8823 0.6023,-2.1087 0.8923,-1.9422 -2.9952,-1.7207 l -3.2826,0.187 -0.3434,1.6205 c -0.1888,0.8913 -0.6734,3.0493 -1.0768,4.7955 -0.4034,1.7463 -0.8169,3.651 -0.9188,4.2328 -0.1019,0.5817 -0.2795,1.1175 -0.3946,1.1906 -0.1152,0.073 -0.6467,2.0942 -1.1812,4.4913 -0.5345,2.3971 -1.0068,4.3934 -1.0497,4.4362 -0.043,0.043 -0.4729,-0.9659 -0.9557,-2.2417 -0.4828,-1.2758 -1.3936,-3.6241 -2.024,-5.2185 -0.6303,-1.5944 -1.1461,-3.0529 -1.1461,-3.2412 0,-0.1882 -0.098,-0.3422 -0.2182,-0.3422 -0.1916,0 -1.7253,-3.6984 -3.1122,-7.5052 l -0.4691,-1.2874 -2.6643,0.173 c -1.4654,0.095 -2.9867,0.2364 -3.3807,0.3139 l -0.7165,0.1408 0.5362,1.3705 c 1.1264,2.8789 2.9587,6.7944 3.1796,6.7944 0.1268,0 0.2292,0.1489 0.2276,0.3308 0,0.1819 0.5249,1.5213 1.1702,2.9765 3.0847,6.9565 4.6537,10.6338 4.6537,10.9073 0,0.1648 0.177,0.4767 0.3933,0.693 0.2163,0.2164 0.8048,1.2964 1.3078,2.4002 l 0.9146,2.0068 h 1.2991 c 0.7146,0 2.007,-0.074 2.872,-0.1644 z m -18.335,-2.389 c 0.094,-1.1134 0.1711,-2.5258 0.1711,-3.1387 v -1.1144 l -3.2412,-0.1379 c -1.7826,-0.076 -3.2556,-0.1219 -3.2732,-0.1024 -0.018,0.019 -0.1151,1.4257 -0.2164,3.1249 l -0.1842,3.0896 0.7455,0.1119 c 0.41,0.062 1.8889,0.1298 3.2864,0.1516 l 2.5408,0.04 z m 33.454,-0.1337 2.459,-0.5751 -0.1486,-0.3871 c -0.082,-0.213 -0.3255,-1.2351 -0.5418,-2.2715 -0.5717,-2.7395 -0.8143,-3.4789 -1.1204,-3.4152 -3.209,0.6681 -4.0796,0.8614 -5.0254,1.1161 -0.6185,0.1666 -1.1245,0.3555 -1.1245,0.4199 0,0.065 0.3105,1.4414 0.6901,3.0599 l 0.69,2.9427 0.8313,-0.1572 c 0.4572,-0.087 1.9379,-0.4161 3.2903,-0.7325 z m -50.7278,-0.8604 c 0.6645,-0.2017 1.7956,-0.6904 2.5135,-1.0861 l 1.3053,-0.7194 0.8311,-1.1268 0.831,-1.1268 -1.4925,-0.426 c -0.8209,-0.2342 -2.1205,-0.6008 -2.888,-0.8145 l -1.3955,-0.3886 -0.9565,0.6491 -0.9565,0.6491 h -1.4289 -1.4288 l -1.0582,-0.5398 -1.0581,-0.5399 -0.5178,-0.8492 -0.5178,-0.8492 0.018,-1.1906 c 0.01,-0.6549 0.099,-1.3811 0.1974,-1.614 l 0.1799,-0.4233 2.3812,0.6798 c 1.3097,0.3739 2.4408,0.7477 2.5136,0.8306 0.1179,0.1343 2.1397,0.7543 7.3438,2.252 0.9105,0.262 1.7285,0.4032 1.8179,0.3138 0.3855,-0.3855 0.8843,-3.397 0.8854,-5.3462 v -2.1167 l -0.3993,-1.3163 c -1.0036,-3.3087 -4.1332,-5.7089 -8.5025,-6.5209 l -1.5435,-0.2869 -1.4552,0.1633 -1.4552,0.1633 -1.6236,0.7917 c -0.893,0.4354 -2.1266,1.2798 -2.7414,1.8764 l -1.1178,1.0848 -0.739,1.63 c -0.4065,0.8964 -0.9402,2.3219 -1.1861,3.1676 l -0.447,1.5376 0.093,2.4266 0.093,2.4266 0.6272,1.2305 c 1.2867,2.5242 3.4611,4.2526 6.6451,5.282 l 1.4552,0.4705 1.9844,0.011 1.9843,0.011 z m -0.046,-12.1795 c -0.064,-0.064 -1.4235,-0.4871 -3.0207,-0.9399 -1.5972,-0.4528 -3.0529,-0.8729 -3.2349,-0.9335 l -0.3307,-0.1101 0.5649,-1.0839 c 0.3108,-0.5962 0.8466,-1.2685 1.1909,-1.4941 l 0.6258,-0.41 h 1.2769 1.2769 l 0.8371,0.4329 c 0.9195,0.4755 1.4688,1.1865 1.9228,2.4888 l 0.2973,0.8528 -0.1648,0.6568 -0.1649,0.6568 h -0.48 c -0.264,0 -0.5325,-0.053 -0.5966,-0.1166 z m 81.9535,3.4239 c 0.084,-0.2183 0.2779,-0.3969 0.4315,-0.3969 0.4279,0 4.4267,-2.4008 4.4267,-2.6577 0,-0.1244 -0.4164,-0.9168 -0.9254,-1.7608 -0.5089,-0.844 -0.9256,-1.6205 -0.926,-1.7254 -9e-4,-0.2673 -2.3879,-4.278 -2.6421,-4.4394 -0.1146,-0.073 -0.6542,-0.9657 -1.1992,-1.9844 -0.545,-1.0186 -1.4517,-2.6468 -2.0147,-3.618 -0.5631,-0.9713 -1.0238,-1.8293 -1.0238,-1.9067 0,-0.2299 9.5203,4.7687 9.7895,5.14 0.1312,0.1807 5.3232,2.9676 7.737,4.1528 l 1.2547,0.6161 2.5366,-1.4645 c 1.3951,-0.8055 2.6462,-1.4645 2.7802,-1.4645 0.134,0 0.2436,-0.1786 0.2436,-0.3969 0,-0.2182 -0.111,-0.3968 -0.2467,-0.3968 -0.1357,0 -0.328,-0.2558 -0.4272,-0.5685 -0.099,-0.3126 -1.0002,-1.9769 -2.0022,-3.6985 -1.002,-1.7215 -1.8218,-3.2011 -1.8218,-3.2879 0,-0.2686 -2.2182,-3.9389 -2.5498,-4.2191 -0.1723,-0.1455 -0.8427,-1.2766 -1.4897,-2.5135 -0.6471,-1.237 -1.7379,-3.1961 -2.424,-4.3536 -0.6861,-1.1575 -1.4024,-2.4672 -1.5918,-2.9104 -0.1893,-0.4432 -0.5677,-1.0636 -0.8408,-1.3788 -0.2731,-0.3151 -0.6157,-0.755 -0.7612,-0.9776 l -0.2646,-0.4048 -2.3812,1.4145 c -1.3097,0.7779 -2.5255,1.5457 -2.7019,1.7062 l -0.3205,0.2918 1.8419,3.1536 c 1.0131,1.7345 1.8419,3.2314 1.8419,3.3264 0,0.2939 2.1634,3.9536 2.5027,4.2337 0.1763,0.1455 0.9342,1.4147 1.6843,2.8204 l 1.3637,2.5558 -2.5766,-1.3238 c -1.4171,-0.728 -2.6368,-1.4212 -2.7104,-1.5403 -0.074,-0.1192 -1.3239,-0.8378 -2.7785,-1.5969 -8.3864,-4.3771 -9.8006,-5.1313 -9.9206,-5.2906 -0.073,-0.097 -0.4002,-0.3167 -0.7276,-0.4891 l -0.5953,-0.3135 -0.5061,0.2709 c -0.2784,0.1489 -0.5462,0.3727 -0.5953,0.4971 -0.049,0.1245 -1.0417,0.7332 -2.2059,1.3527 -1.1642,0.6195 -2.1506,1.1583 -2.1922,1.1972 -0.1383,0.1298 1.8536,3.3153 2.073,3.3153 0.1187,0 0.2991,0.2679 0.4009,0.5953 0.1017,0.3275 0.9061,1.8455 1.7875,3.3735 0.8813,1.5279 1.7754,3.1353 1.9869,3.5718 0.5961,1.2308 2.2308,3.9283 2.6233,4.3288 0.1941,0.198 0.6585,0.9719 1.0321,1.7198 0.3735,0.7479 1.4404,2.6788 2.3708,4.2909 0.9304,1.6122 1.6917,3.0707 1.6917,3.2412 0,0.4509 0.7834,0.3802 0.9626,-0.087 z m -125.6613,-5.557 1.3391,-0.3977 1.3617,-1.3883 1.3618,-1.3883 0.7206,-1.4552 0.7207,-1.4552 v -1.5875 -1.5875 l -0.5946,-1.1906 c -0.8234,-1.6488 -3.1616,-4.3512 -5.2652,-6.0854 -0.9709,-0.8004 -2.163,-2.0338 -2.6491,-2.7409 l -0.8838,-1.2856 v -1.1576 -1.1576 l 0.7276,-0.8071 0.7276,-0.8071 0.9572,-0.152 0.9572,-0.1521 1.424,0.4202 1.4241,0.4202 1.303,0.9978 1.303,0.9978 0.6388,1.1531 0.6389,1.153 -0.1219,1.2282 c -0.067,0.6755 -0.2035,1.469 -0.3033,1.7634 l -0.1815,0.5351 1.3403,0.7239 c 0.7372,0.3982 1.5711,0.9547 1.8532,1.2367 0.282,0.2821 0.8682,0.6966 1.3026,0.9213 l 0.7897,0.4084 0.5761,-1.5188 c 0.3169,-0.8354 0.6372,-2.2418 0.712,-3.1255 l 0.1359,-1.6066 -0.4515,-1.5528 c -0.7362,-2.5325 -2.8152,-5.0385 -5.3721,-6.4756 -0.6163,-0.3464 -1.1205,-0.7093 -1.1205,-0.8065 0,-0.097 -0.8244,-0.5566 -1.8319,-1.021 l -1.8319,-0.8444 -1.6738,-0.2714 -1.6739,-0.2714 -1.1906,0.1632 c -0.6548,0.09 -1.9294,0.5195 -2.8323,0.955 l -1.6416,0.7918 -1.3139,1.9644 -1.3138,1.9643 -0.3227,1.4421 -0.3228,1.442 0.3102,1.2319 c 0.4936,1.96 1.4417,3.2007 5.4653,7.1519 l 3.7765,3.7086 0.1862,0.9922 0.1861,0.9921 -0.3321,0.8019 -0.3321,0.8018 -0.7434,0.3844 c -2.0487,1.0594 -5.5185,-0.3927 -7.0069,-2.9325 l -0.6929,-1.1823 0.1109,-1.2561 c 0.061,-0.6909 0.1951,-1.4406 0.298,-1.666 l 0.1871,-0.4099 -1.046,-0.5879 c -0.5754,-0.3234 -1.0849,-0.6917 -1.1324,-0.8186 -0.047,-0.1269 -0.7057,-0.5942 -1.4627,-1.0384 l -1.3764,-0.8077 -0.5037,0.8455 c -0.277,0.4651 -0.656,1.4134 -0.8422,2.1074 l -0.3386,1.2619 0.1336,1.6647 0.1336,1.6648 0.5453,1.2325 0.5452,1.2325 1.2486,1.2136 c 0.6868,0.6675 2.0346,1.7699 2.995,2.4498 0.9605,0.6799 1.9025,1.3863 2.0933,1.5699 0.1908,0.1835 1.0243,0.5222 1.8521,0.7525 0.8278,0.2303 1.6242,0.4603 1.7697,0.511 0.7026,0.2447 3.3559,0.091 4.5503,-0.2637 z m 156.2335,-13.5592 c 0.7977,-0.8367 2.7896,-2.703 4.4264,-4.1472 1.6369,-1.4442 3.2877,-3.0344 3.6686,-3.5338 0.3808,-0.4993 0.8937,-0.9846 1.1397,-1.0783 0.246,-0.094 1.3982,-1.0803 2.5605,-2.1925 l 2.1132,-2.0222 -0.6289,-0.6783 c -0.3459,-0.373 -0.6289,-0.774 -0.6289,-0.891 0,-0.1171 -1.2027,-1.4022 -2.6728,-2.8558 -1.47,-1.4537 -3.1914,-3.3122 -3.8254,-4.13 -0.6339,-0.8178 -1.7297,-2.0084 -2.435,-2.6458 -0.7054,-0.6374 -2.1648,-2.1709 -3.2433,-3.4079 -1.0785,-1.2369 -2.8747,-3.1464 -3.9916,-4.2434 l -2.0307,-1.9945 -2.6084,2.3131 c -1.4346,1.2722 -3.5014,3.201 -4.5928,4.2861 -1.0914,1.0852 -2.9965,2.8468 -4.2335,3.9147 -1.2369,1.068 -2.8073,2.5417 -3.4897,3.275 l -1.2407,1.3334 1.6602,1.8317 1.6603,1.8318 0.8589,-0.6516 c 1.2417,-0.9419 4.7617,-4.1287 5.8428,-5.2897 0.5093,-0.547 1.8605,-1.7956 3.0026,-2.7746 l 2.0766,-1.7801 2.3552,2.4004 c 2.7825,2.8359 2.6779,2.4349 0.9661,3.7072 -0.7639,0.5678 -2.7042,2.3278 -4.3116,3.911 -1.6074,1.5831 -3.3338,3.2011 -3.8365,3.5955 l -0.9138,0.717 1.3229,1.2698 c 0.7276,0.6984 1.5804,1.6247 1.8951,2.0585 l 0.5722,0.7887 1.1082,-1.2591 c 0.6096,-0.6924 1.9594,-1.9576 2.9997,-2.8114 1.0403,-0.8539 2.7826,-2.459 3.8718,-3.567 2.4341,-2.4761 1.9643,-2.5774 5.194,1.121 l 1.0052,1.1511 -1.249,1.0978 c -0.6869,0.6038 -2.5868,2.3943 -4.222,3.9789 -1.6352,1.5846 -3.6037,3.3486 -4.3744,3.9199 l -1.4012,1.0389 0.7652,0.8426 c 3.3606,3.7005 2.9579,3.5705 4.8648,1.5701 z m -87.0973,-0.8196 v -0.2243 l 3.5057,-0.1764 c 3.2875,-0.1654 7.7086,-0.6545 11.0464,-1.222 3.7244,-0.6332 4.5839,-0.804 7.8052,-1.5511 3.9378,-0.9133 11.7637,-3.3099 12.0074,-3.6771 0.09,-0.1354 1.1159,-0.5806 2.2801,-0.9893 3.8607,-1.3553 11.6432,-5.0403 12.6752,-6.0018 0.2868,-0.2671 0.6278,-0.4858 0.7577,-0.4858 0.4428,0 8.9253,-5.1577 9.3234,-5.6689 0.3633,-0.4667 3.7638,-3.0606 4.0231,-3.069 1.2212,-0.039 15.4806,-14.0067 17.6753,-17.3132 0.5025,-0.757 1.3075,-1.7834 1.7888,-2.2809 0.899,-0.929 3.1013,-3.8149 3.1013,-4.0639 0,-0.187 3.2957,-5.1982 3.7596,-5.7165 0.6047,-0.6757 3.7236,-6.5231 5.2148,-9.777 0.767,-1.6734 1.4747,-3.1022 1.5728,-3.175 0.7177,-0.5328 4.5637,-11.9453 5.7659,-17.1096 0.4009,-1.7221 0.8066,-3.1907 0.9015,-3.2635 0.4609,-0.3533 1.6915,-8.3471 2.2403,-14.552 l 0.3862,-4.3657 v -5.027 c 0,-4.8192 -0.4872,-12.1089 -1.048,-15.7428 -0.6019,-3.9 -1.4378,-8.3429 -1.5929,-8.4666 -0.091,-0.073 -0.5552,-1.6801 -1.031,-3.5719 -1.4161,-5.6302 -4.9343,-16.0073 -5.6065,-16.5365 -0.092,-0.073 -0.9458,-1.7991 -1.8965,-3.8364 -1.8101,-3.8792 -4.3059,-8.4042 -4.7185,-8.5549 -0.1328,-0.048 -0.2415,-0.203 -0.2415,-0.3432 0,-0.1403 -0.9214,-1.6485 -2.0476,-3.3514 -1.1262,-1.703 -2.1084,-3.218 -2.1828,-3.3667 -0.3493,-0.6983 -1.9022,-2.7724 -2.0758,-2.7724 -0.1891,0 -1.2505,-1.3144 -3.2616,-4.0391 -1.2269,-1.6622 -9.7483,-10.5119 -10.1261,-10.5161 -0.1551,0 -1.3206,-1.0078 -2.5899,-2.2356 -1.2693,-1.2278 -2.9957,-2.6919 -3.8365,-3.2536 -2.693,-1.7992 -5.487,-3.8854 -5.8431,-4.3628 -0.1902,-0.255 -0.4623,-0.4636 -0.6048,-0.4636 -0.1425,0 -1.3562,-0.6981 -2.697,-1.5514 -1.3408,-0.8532 -3.4057,-2.0379 -4.5886,-2.6326 -1.183,-0.5947 -2.3215,-1.252 -2.5302,-1.4607 -0.7795,-0.7796 -6.5543,-3.3521 -12.1201,-5.3993 -1.8191,-0.6691 -3.3669,-1.2996 -3.4396,-1.4011 -0.7286,-1.017 -15.5634,-4.2537 -23.8125,-5.1955 l -3.8365,-0.438 -7.9375,-0.01 -7.9375,-0.01 -3.0427,0.3316 c -8.6086,0.9384 -23.8762,4.2402 -24.6062,5.3214 -0.073,0.1078 -1.116,0.5127 -2.3181,0.8998 -3.8335,1.2344 -13.0278,5.2938 -13.0278,5.7518 0,0.1002 -0.3661,0.3098 -0.8136,0.4658 -0.4474,0.156 -2.1269,1.0606 -3.732,2.0103 -1.6052,0.9496 -2.9684,1.7266 -3.0294,1.7266 -0.2764,0 -3.5375,2.1871 -3.5375,2.3725 0,0.1146 -0.717,0.6694 -1.5933,1.233 -2.1698,1.3955 -5.3329,3.8007 -7.3779,5.6102 -3.8545,3.4106 -7.0098,6.3015 -7.5351,6.9038 -0.3076,0.3528 -1.6599,1.841 -3.0051,3.3073 -1.3452,1.4663 -2.4465,2.8137 -2.4474,2.9944 -9e-4,0.1807 -0.2472,0.4783 -0.5475,0.6615 -0.635,0.3873 -3.8584,4.5628 -5.5051,7.131 -0.6245,0.9741 -1.2221,1.8075 -1.3279,1.8521 -0.4872,0.2052 -6.1148,9.8356 -6.1148,10.464 0,0.1385 -0.2205,0.506 -0.49,0.8167 -0.8801,1.0147 -4.2307,8.9249 -5.7349,13.5389 -0.4032,1.237 -0.8117,2.3085 -0.9077,2.3813 -0.3865,0.2928 -2.1154,6.9589 -3.0881,11.9062 -0.7387,3.757 -1.0291,5.7722 -1.5633,10.8479 l -0.3759,3.5719 -3e-4,7.2761 -2e-4,7.276 0.3801,3.7042 c 0.7423,7.2347 1.3409,10.6643 2.9786,17.0656 0.6515,2.5466 1.2454,4.8981 1.3198,5.2255 0.074,0.3274 0.2305,0.5953 0.3469,0.5953 0.1165,0 0.476,0.8632 0.7989,1.9183 1.1319,3.6978 5.2447,13.7447 5.8216,14.2213 0.1717,0.1419 3.0068,5.1654 3.6583,6.4823 0.6523,1.3183 2.5632,4.2156 3.3166,5.0285 0.3892,0.4199 0.8827,1.1326 1.0968,1.5837 0.214,0.4511 1.3397,2.0401 2.5014,3.531 1.1617,1.491 2.1122,2.8191 2.1122,2.9514 0,0.1323 0.1629,0.3358 0.362,0.4522 0.199,0.1163 1.5385,1.5198 2.9765,3.1188 2.2404,2.4911 6.1887,6.4335 9.615,9.6006 1.7135,1.5839 5.1476,4.3103 6.9368,5.5073 0.9714,0.6499 1.8049,1.2773 1.852,1.3942 0.096,0.2381 4.8684,3.4771 5.1231,3.4771 0.2265,0 5.2493,2.9849 5.4217,3.2219 0.2772,0.3813 6.1053,3.1257 10.086,4.7495 2.2337,0.9111 4.1208,1.7279 4.1936,1.8151 0.2032,0.2435 5.6085,2.0011 8.8635,2.8821 7.5443,2.0419 18.4849,3.7346 24.1432,3.7353 l 1.6537,3e-4 v 0.2645 0.2646 h 3.9687 3.9688 z m -7.6729,-4.7806 c -3.4922,-1.2574 -4.8355,-1.8287 -5.0264,-2.1377 -0.083,-0.1336 -1.2905,-0.7722 -2.6842,-1.4191 -1.3937,-0.6469 -3.4961,-1.7728 -4.6718,-2.502 -1.1758,-0.7292 -2.3698,-1.3995 -2.6534,-1.4895 -0.2836,-0.09 -0.8319,-0.4568 -1.2185,-0.815 -0.7876,-0.73 -3.9583,-3.0764 -5.5739,-4.1248 -0.5821,-0.3777 -2.0471,-1.6201 -3.2556,-2.7608 -1.2085,-1.1407 -2.5182,-2.2739 -2.9104,-2.5182 -0.919,-0.5726 -9.1324,-9.1259 -10.21,-10.6326 -1.1296,-1.5793 -2.896,-3.7505 -3.139,-3.8582 -0.2609,-0.1156 -2.5777,-3.1259 -2.5777,-3.3492 0,-0.1936 -3.3447,-5.0809 -3.8941,-5.6901 -0.6062,-0.6721 -3.6098,-5.8161 -4.9437,-8.4666 -0.6957,-1.3825 -1.4334,-2.6463 -1.6392,-2.8085 -0.4346,-0.3426 -2.9524,-5.804 -5.0473,-10.9481 -0.7996,-1.9636 -1.5505,-3.6305 -1.6686,-3.7042 -0.1182,-0.074 -0.4546,-0.8484 -0.7476,-1.7215 -0.2931,-0.8731 -0.8904,-2.5995 -1.3273,-3.8365 -1.0912,-3.0896 -2.2074,-6.6392 -3.3695,-10.7156 -0.5393,-1.8918 -1.0594,-3.4991 -1.1558,-3.5719 -0.183,-0.1381 -1.3772,-4.8477 -2.5495,-10.0541 -1.2285,-5.4564 -3.2786,-16.6356 -3.6998,-20.1745 -0.1,-0.8368 -0.2629,-1.5214 -0.3629,-1.5214 -0.1749,0 -0.451,-1.9154 -1.2206,-8.4666 -1.397,-11.891 -2.2332,-25.7579 -2.2377,-37.1083 v -7.6072 l 80.8963,0.067 80.8964,0.067 0.085,9.525 0.085,9.525 -0.2955,6.0854 c -0.4669,9.6155 -1.3647,19.4375 -2.5394,27.7812 -1.0534,7.4821 -3.1835,19.2038 -3.5338,19.4469 -0.1049,0.073 -0.4014,1.1443 -0.6588,2.3813 -1.3876,6.6672 -5.3511,20.9877 -5.9311,21.4294 -0.097,0.074 -0.6949,1.6819 -1.3291,3.5737 -1.4216,4.2407 -4.7589,12.7484 -5.1692,13.1776 -0.1662,0.1739 -0.7055,1.2091 -1.1984,2.3005 -1.4888,3.2963 -5.0267,10.2607 -5.4044,10.6383 -0.4413,0.4413 -1.4105,1.9779 -2.5522,4.0461 -0.9605,1.74 -3.0671,4.9384 -3.9281,5.9639 -0.5694,0.6783 -4.2288,5.486 -5.2726,6.9273 -0.3305,0.4563 -1.8783,2.186 -3.4396,3.8437 -1.5613,1.6578 -2.8745,3.1133 -2.9184,3.2345 -0.044,0.1213 -1.6505,1.6309 -3.5704,3.3547 -1.9198,1.7238 -3.7697,3.4616 -4.1109,3.8618 -0.3412,0.4002 -0.7164,0.7276 -0.8337,0.7276 -0.1173,0 -1.6412,1.0716 -3.3864,2.3813 -1.7452,1.3097 -3.2996,2.3812 -3.4542,2.3812 -0.1546,0 -0.3763,0.1619 -0.4927,0.3597 -0.3325,0.5653 -4.1087,2.8218 -8.0168,4.7906 -1.9645,0.9896 -3.6327,1.8933 -3.7071,2.0082 -0.1468,0.2268 -0.9799,0.5536 -5.421,2.1263 -3.5229,1.2476 -3.5405,1.2476 -7.0114,0 z m 5.6747,-1.1055 c 1.2445,-0.4503 2.2628,-0.8989 2.2628,-0.9968 0,-0.098 0.7128,-0.4611 1.5842,-0.8072 l 1.5842,-0.6293 0.069,-30.2659 0.069,-30.266 0.2797,-0.1887 c 0.1537,-0.1039 0.4304,-0.5621 0.6148,-1.0183 0.6882,-1.703 3.0882,-3.7787 4.9179,-4.2534 l 1.3144,-0.3411 h 10.876 10.8759 l 2.494,-0.424 c 2.9365,-0.4992 5.7165,-1.5232 8.3995,-3.0938 l 1.9367,-1.1337 1.5641,-1.8414 c 0.8602,-1.0128 1.9433,-2.5558 2.4068,-3.4289 0.4635,-0.8732 0.9201,-1.6471 1.0146,-1.7198 0.094,-0.073 0.3979,-0.8467 0.6743,-1.7198 l 0.5024,-1.5875 0.086,-17.6496 0.086,-17.6495 1.8106,-0.078 1.8106,-0.078 -1.2915,-1.7198 c -0.7103,-0.9459 -2.274,-2.7704 -3.4748,-4.0546 -1.2009,-1.2842 -2.2311,-2.4748 -2.2895,-2.6458 -0.1265,-0.3706 -3.1898,-3.9809 -3.4732,-4.0934 -0.2532,-0.1004 -3.5891,3.3381 -4.2118,4.3414 -0.2607,0.4201 -1.591,1.9077 -2.9561,3.3057 -2.3962,2.454 -4.2017,4.5375 -4.2017,4.8487 0,0.083 0.777,0.1501 1.7267,0.1501 h 1.7268 l -0.073,13.5599 -0.073,13.5599 -0.7187,1.4552 c -0.8969,1.816 -2.5037,3.4846 -4.1242,4.2828 l -1.2426,0.612 h -10.7236 -10.7237 l -1.1043,-0.4977 -1.1042,-0.4977 -1.0278,-1.2221 c -0.5653,-0.6721 -1.1839,-1.5197 -1.3747,-1.8835 -0.1908,-0.3638 -0.4779,-0.7464 -0.638,-0.8502 l -0.2912,-0.1886 -0.075,-14.165 -0.075,-14.165 h 1.8609 c 1.0235,0 1.8609,-0.073 1.8609,-0.1621 0,-0.2272 -1.2606,-1.794 -2.4955,-3.1018 -2.149,-2.2758 -4.6482,-5.1778 -4.6482,-5.3973 0,-0.1252 -0.8599,-1.103 -1.9108,-2.1728 l -1.9107,-1.9451 -1.6746,1.8255 c -0.9211,1.004 -1.8429,2.1387 -2.0485,2.5216 -0.2057,0.3828 -0.7223,0.9892 -1.1481,1.3475 -0.888,0.7472 -4.3319,4.6191 -5.4189,6.0923 l -0.732,0.9922 h 1.8744 1.8745 l -0.075,13.9568 -0.075,13.9568 -0.5967,1.2108 c -0.3282,0.666 -1.1179,1.7548 -1.7549,2.4196 l -1.1581,1.2087 -1.5012,0.4364 -1.5012,0.4364 -10.1054,-0.078 -10.1054,-0.078 -1.2075,-0.5586 -1.2075,-0.5587 -1.4099,-1.4098 -1.4098,-1.4098 -0.69,-1.4711 -0.6899,-1.4712 v -13.3614 -13.3615 l 1.8038,-0.079 1.8038,-0.079 -0.084,-0.2259 c -0.046,-0.1243 -1.7101,-1.9344 -3.6974,-4.0224 -1.9874,-2.0881 -4.577,-4.8085 -5.7547,-6.0454 l -2.1413,-2.249 -0.5455,0.6615 c -0.3,0.3638 -1.0062,1.1972 -1.5692,1.8521 -0.563,0.6548 -2.4009,2.917 -4.0841,5.027 -1.6833,2.1101 -3.3261,4.1044 -3.6508,4.4318 l -0.5903,0.5953 h 1.9126 1.9127 v 15.6835 15.6835 l 0.2772,2.2421 c 0.5624,4.5476 1.6978,7.2696 4.0511,9.7117 0.7336,0.7614 1.4295,1.5552 1.5464,1.7641 0.7298,1.304 5.2859,3.6536 9.1371,4.712 l 2.0538,0.5645 12.5677,0.1703 12.5677,0.1704 0.9142,0.3797 c 0.5028,0.2088 1.5359,0.9547 2.2959,1.6575 l 1.3817,1.2778 0.6145,1.2357 0.6146,1.2358 0.072,30.3414 0.072,30.3415 1.3701,0.4551 c 0.7536,0.2503 1.4953,0.5677 1.6483,0.7053 0.1529,0.1376 1.052,0.5844 1.9979,0.993 0.9458,0.4085 1.7433,0.7547 1.7721,0.7694 0.029,0.015 1.0705,-0.3419 2.3151,-0.7922 z m -58.4354,-53.8645 c 0.2003,-0.4624 0.7245,-1.4518 1.1649,-2.1988 0.4404,-0.7469 1.4116,-2.5118 2.1581,-3.9219 0.7465,-1.41 1.4462,-2.6233 1.5547,-2.696 0.2694,-0.1806 1.4816,-2.2636 3.1404,-5.3967 l 1.3839,-2.6137 -0.215,-0.176 c -0.1182,-0.097 -0.8946,-0.6864 -1.7253,-1.3102 -2.9324,-2.2021 -5.388,-5.6596 -6.3094,-8.8838 -0.2924,-1.0232 -0.6863,-2.2109 -0.8754,-2.6394 l -0.3438,-0.7791 -0.7481,1.3744 c -0.4114,0.756 -0.8401,1.3745 -0.9527,1.3745 -0.1126,0 -0.2885,0.2679 -0.3909,0.5953 -0.1025,0.3274 -0.9439,1.9174 -1.87,3.5334 -0.926,1.6159 -1.6837,3.0205 -1.6837,3.1212 0,0.3675 -2.4937,4.5304 -2.8407,4.7421 l -0.3575,0.2181 0.1796,0.5756 c 0.099,0.3167 0.255,0.6353 0.3473,0.708 0.1439,0.1135 1.85,4.2344 3.2218,7.782 0.7641,1.9759 3.248,7.1615 3.6004,7.5166 0.1909,0.1923 0.3508,0.49 0.3555,0.6615 l 0.01,0.3118 0.4167,-0.5292 c 0.2292,-0.291 0.5805,-0.9074 0.7808,-1.3697 z m 38.9042,-33.6433 c 0.3476,-0.6189 1.3623,-2.281 2.2548,-3.6936 0.8926,-1.4126 1.9169,-3.1042 2.2763,-3.759 0.3594,-0.6548 0.7987,-1.3097 0.9764,-1.4552 0.5221,-0.4278 3.3219,-4.9629 3.3219,-5.3809 0,-0.4814 -2.8788,-5.0702 -3.1809,-5.0702 -0.1227,0 -0.2967,-0.2319 -0.3866,-0.5153 -0.09,-0.2834 -1.0505,-1.9026 -2.1345,-3.598 -1.084,-1.6955 -1.9709,-3.1423 -1.9709,-3.2151 0,-0.2773 -1.9364,-3.2549 -2.1167,-3.2549 -0.1803,0 -2.1167,2.9776 -2.1167,3.2549 0,0.073 -0.8869,1.5196 -1.9709,3.2151 -1.084,1.6954 -2.0445,3.3146 -2.1345,3.598 -0.09,0.2834 -0.264,0.5153 -0.3867,0.5153 -0.302,0 -3.1808,4.5888 -3.1808,5.0702 0,0.418 2.7998,4.9531 3.3219,5.3809 0.1776,0.1455 0.6166,0.8004 0.9755,1.4552 0.3589,0.6548 1.5033,2.5351 2.5432,4.1783 1.0399,1.6432 1.8907,3.0464 1.8907,3.1182 0,0.3513 0.8998,1.4435 1.1269,1.3678 0.1428,-0.048 0.544,-0.5929 0.8916,-1.2117 z m -39.0634,-29.2574 -0.2722,-0.2723 -1.1811,1.3151 c -0.6496,0.7233 -1.1829,1.4125 -1.1852,1.5316 0,0.2539 -4.4845,6.6562 -5.2543,7.5095 -0.2889,0.3202 -1.082,1.3624 -1.7625,2.316 -0.6804,0.9535 -1.3309,1.6758 -1.4456,1.6049 -0.287,-0.1774 -2.9188,-4.8322 -2.9188,-5.1625 0,-0.1467 -0.2195,-0.4862 -0.4878,-0.7545 -0.4892,-0.4891 -1.6458,-2.5054 -3.788,-6.6032 l -1.1481,-2.1962 -0.4683,0.5784 -0.4684,0.5784 0.1324,0.8241 c 1.3748,8.5584 2.0773,12.3358 3.7197,20.0004 0.5151,2.4035 0.5489,2.4444 1.0432,1.2614 0.2166,-0.5183 0.4935,-0.9831 0.6155,-1.0328 0.1219,-0.05 1.0447,-1.4274 2.0506,-3.0616 l 1.829,-2.9712 0.271,0.4668 c 0.4835,0.8325 2.3636,3.2267 2.534,3.2267 0.1906,0 2.6318,3.0942 2.6318,3.3357 0,0.2257 3.4237,4.6195 4.1163,5.2828 0.3152,0.3018 0.7979,0.8919 1.0727,1.3114 l 0.4996,0.7626 0.068,-14.7896 0.068,-14.7897 z m 21.35,25.0367 c 0.8468,-1.4239 1.8368,-3.1539 2.2,-3.8445 0.3632,-0.6906 0.9881,-1.6389 1.3887,-2.1074 0.4006,-0.4685 1.1317,-1.6149 1.6245,-2.5474 l 0.8961,-1.6956 -1.1987,-1.9425 c -0.6593,-1.0683 -1.2795,-1.9424 -1.3781,-1.9424 -0.099,0 -0.4601,-0.5656 -0.8034,-1.2568 -0.3433,-0.6912 -1.1344,-2.0555 -1.7579,-3.0317 -0.6236,-0.9762 -1.7435,-2.8566 -2.4889,-4.1788 -0.7453,-1.3221 -1.6422,-2.7137 -1.9931,-3.0924 l -0.6381,-0.6884 v 12.1518 12.1518 l 0.3484,1.3144 0.3484,1.3145 0.8909,0.9921 c 0.49,0.5457 0.9203,0.9922 0.9562,0.9922 0.036,0 0.7582,-1.165 1.605,-2.5889 z m -22.7579,-26.1625 c -0.097,-0.097 -0.2558,-0.097 -0.3528,0 -0.097,0.097 -0.018,0.1764 0.1764,0.1764 0.194,0 0.2734,-0.079 0.1764,-0.1764 z m -17.6593,-2.9324 c 0.5532,-1.2231 4.0651,-6.6808 4.2989,-6.6808 0.1207,0 0.2194,-0.1197 0.2194,-0.266 0,-0.3122 3.2448,-5.5448 3.4396,-5.5469 0.073,-8e-4 0.6371,0.8702 1.2541,1.9355 0.617,1.0653 1.4205,2.2842 1.7856,2.7087 0.3651,0.4245 0.664,0.8754 0.6641,1.002 2e-4,0.1266 0.8143,1.6149 1.8091,3.3073 0.9948,1.6924 1.8963,3.3153 2.0033,3.6063 l 0.1945,0.5292 0.3814,-0.5292 c 0.2097,-0.291 0.8325,-1.0054 1.384,-1.5875 1.4862,-1.5686 4.5468,-5.335 4.5468,-5.5953 0,-0.1244 0.6707,-0.9404 1.4904,-1.8133 0.8197,-0.873 1.9011,-2.0877 2.403,-2.6993 l 0.9126,-1.1122 -0.1902,-0.6076 c -0.229,-0.7318 -2.1981,-4.2546 -2.4834,-4.443 -0.1112,-0.073 -0.95,-1.5622 -1.8641,-3.3084 -0.9141,-1.7463 -2.3165,-4.4252 -3.1164,-5.9532 -0.7999,-1.5279 -1.5877,-2.8652 -1.7506,-2.9716 l -0.2961,-0.1935 -0.3504,0.4581 c -0.1927,0.2519 -0.9195,1.5892 -1.6151,2.9716 -2.4155,4.8005 -3.9991,7.7812 -4.2105,7.9251 -0.117,0.08 -0.7977,1.246 -1.5127,2.5921 -0.7151,1.3461 -1.3686,2.4474 -1.4523,2.4474 -0.084,0 -0.9159,-1.5776 -1.8495,-3.5057 -0.9335,-1.9282 -1.7861,-3.5703 -1.8947,-3.6492 -0.1085,-0.079 -1.2206,-2.1923 -2.4713,-4.6964 -2.5919,-5.1894 -2.2893,-4.8286 -3.0364,-3.6198 -0.3171,0.5132 -0.7651,1.1216 -0.9955,1.352 -0.2304,0.2304 -0.8317,1.0904 -1.3361,1.9112 l -0.9171,1.4923 0.4429,5.9531 c 0.5873,7.8941 1.4811,15.9858 1.7779,16.0955 0.1312,0.049 0.2385,0.2682 0.2385,0.4883 0,0.6274 1.2151,2.7308 1.5774,2.7308 0.1044,0 0.3379,-0.3274 0.5189,-0.7276 z m 58.3822,-0.6714 c 1.9808,-3.3524 5.2101,-8.5345 5.3936,-8.6552 0.2322,-0.1528 2.3469,-3.4806 2.9071,-4.5749 l 0.3781,-0.7384 0.431,0.8707 c 0.6411,1.295 2.3882,3.9802 2.931,4.5047 0.2612,0.2524 0.592,0.6682 0.735,0.9238 0.1431,0.2557 0.3039,0.4064 0.3574,0.3348 0.053,-0.072 1.0263,-1.1683 2.1619,-2.4373 l 2.0646,-2.3072 0.9669,0.7877 c 0.5317,0.4333 1.8002,1.7905 2.8189,3.016 1.8049,2.1715 2.2489,2.5629 2.2489,1.9829 0,-0.2851 1.3451,-2.3428 2.1047,-3.2199 0.3795,-0.4381 2.1817,-3.3058 2.512,-3.9972 l 0.1458,-0.3051 0.1425,0.295 c 0.385,0.7975 3.1327,5.0302 3.4153,5.2613 0.178,0.1455 0.6229,0.8004 0.9888,1.4552 0.3658,0.6548 1.5166,2.525 2.5572,4.156 1.0407,1.6309 1.8921,3.0748 1.8921,3.2087 0,0.1339 0.1491,0.3672 0.3315,0.5185 l 0.3314,0.2751 0.4623,-0.338 c 0.2543,-0.1859 0.4623,-0.4117 0.4623,-0.5019 0,-0.09 0.9525,-1.6643 2.1166,-3.4982 1.1642,-1.8339 2.1167,-3.3899 2.1167,-3.4577 0,-0.218 1.8599,-3.0388 2.3517,-3.5667 0.2614,-0.2806 0.8768,-1.1976 1.3676,-2.0378 l 0.8922,-1.5275 1.0234,1.5327 c 0.5629,0.8429 1.0821,1.5326 1.1539,1.5326 0.2575,0 3.7514,-2.1183 3.8381,-2.3271 0.108,-0.2598 3.3209,-2.5551 4.2549,-3.0397 1.4172,-0.7352 5.4838,-3.5125 5.6098,-3.8311 l 0.1321,-0.3345 -1.8436,-2.7973 c -1.014,-1.5385 -2.0228,-3.174 -2.2418,-3.6343 -0.2189,-0.4604 -0.8571,-1.3537 -1.418,-1.9852 l -1.02,-1.1482 -1.097,1.737 c -0.6034,0.9554 -1.097,1.7954 -1.097,1.8667 0,0.2556 -2.976,4.6892 -3.5982,5.3606 -0.3493,0.377 -0.6352,0.7803 -0.6352,0.8963 0,0.116 -0.7006,1.2943 -1.5569,2.6184 l -1.5569,2.4075 -1.1498,-1.8633 c -0.6324,-1.0248 -1.239,-1.8633 -1.3481,-1.8633 -0.1091,0 -0.4531,-0.4994 -0.7645,-1.1097 -0.3114,-0.6104 -1.2247,-2.1284 -2.0296,-3.3734 -0.8049,-1.2451 -1.7246,-2.74 -2.0439,-3.3221 -1.1472,-2.0916 -1.5711,-2.7223 -2.0163,-3.0004 l -0.4523,-0.2825 -1.0815,1.6599 c -0.5948,0.913 -1.0814,1.7355 -1.0814,1.8278 0,0.1702 -3.3214,5.3597 -3.7561,5.8686 -0.1299,0.1521 -0.959,1.4375 -1.8424,2.8563 -1.9227,3.0881 -1.6479,3.0433 -3.2404,0.5287 -0.7141,-1.1275 -1.4582,-2.1453 -1.6537,-2.2616 -0.1954,-0.1164 -0.3553,-0.3281 -0.3553,-0.4705 0,-0.1424 -0.893,-1.6656 -1.9844,-3.3849 -1.0914,-1.7193 -1.9844,-3.2061 -1.9844,-3.3039 0,-0.3529 -1.9105,-3.046 -2.2544,-3.1779 l -0.3522,-0.1352 -1.0779,1.7192 c -0.5929,0.9456 -1.078,1.7901 -1.078,1.8767 0,0.2042 -3.7253,5.9882 -3.9688,6.162 -0.1019,0.073 -0.3269,0.4012 -0.5,0.7299 -0.1731,0.3286 -0.884,1.486 -1.5797,2.5719 l -1.265,1.9745 -1.5026,-2.3372 c -0.8265,-1.2855 -1.5026,-2.4726 -1.5026,-2.6382 0,-0.1655 -0.101,-0.3009 -0.2245,-0.3009 -0.2226,0 -3.1557,-4.4507 -4.2718,-6.4823 -2.2421,-4.0809 -2.312,-4.0851 -4.3816,-0.2646 -0.5842,1.0786 -4.3634,7.0354 -4.6161,7.2761 -0.076,0.073 -0.8492,1.2217 -1.7173,2.5532 l -1.5785,2.4209 -1.5247,-2.5532 c -0.8387,-1.4043 -1.5258,-2.702 -1.5271,-2.8839 0,-0.1819 -0.1103,-0.3308 -0.2425,-0.3308 -0.2348,0 -2.2501,-3.3487 -4.5147,-7.5017 l -1.133,-2.0778 -0.5999,0.647 c -0.5616,0.6058 -1.1612,1.6921 -5.219,9.4563 -0.8731,1.6706 -1.7399,3.1589 -1.9264,3.3073 -0.1864,0.1485 -0.8762,1.3084 -1.5328,2.5777 l -1.1938,2.3077 2.5575,2.6502 c 6.2989,6.5269 8.5486,8.8963 8.7314,9.1958 l 0.1964,0.3218 1.7097,-3.087 c 0.9403,-1.6978 1.913,-3.5388 2.1614,-4.0911 0.2485,-0.5522 0.6652,-1.2337 0.9261,-1.5144 0.2608,-0.2808 1.0629,-1.6512 1.7823,-3.0454 0.7195,-1.3943 1.3815,-2.445 1.4711,-2.335 0.09,0.1101 0.796,1.1824 1.5696,2.3829 0.7736,1.2005 1.4854,2.1828 1.5819,2.1828 0.096,0 0.5829,0.6846 1.0812,1.5214 0.4982,0.8367 1.8118,2.8905 2.919,4.564 1.1073,1.6735 2.0903,3.2511 2.1845,3.5058 0.2929,0.792 0.8175,0.4969 1.6642,-0.936 z m -60.1919,-32.6577 c 0.1503,-0.3956 1.0717,-2.0922 2.0475,-3.7703 0.9757,-1.6781 2.1297,-3.7414 2.5643,-4.5851 0.4346,-0.8436 0.9725,-1.7366 1.1955,-1.9843 0.5482,-0.6094 1.3669,-1.9689 2.3824,-3.9562 1.0312,-2.0181 1.0444,-2.019 1.9861,-0.1323 0.9471,1.8976 2.253,4.0823 2.649,4.4318 0.3264,0.2879 1.9699,2.9574 1.9699,3.1996 0,0.082 0.8451,1.5982 1.878,3.3695 1.033,1.7712 1.9642,3.3919 2.0694,3.6016 0.3059,0.609 0.7555,0.6201 0.945,0.023 0.096,-0.3029 1.0588,-2.0441 2.1391,-3.8691 1.0804,-1.8251 1.9643,-3.3839 1.9643,-3.464 0,-0.2659 1.9524,-3.3852 2.2873,-3.6545 0.181,-0.1455 0.767,-1.098 1.3021,-2.1167 0.5352,-1.0186 1.1371,-2.0869 1.3377,-2.3739 0.2005,-0.2871 0.3646,-0.6145 0.3646,-0.7276 v -0.2058 h -16.1007 -16.1007 l -0.1553,2.5797 c -0.085,1.4189 -0.089,4.1871 -0.01,6.1516 l 0.1479,3.5719 1.0035,1.7688 c 0.552,0.9729 1.0816,2.0147 1.1769,2.3151 0.2393,0.7539 0.6279,0.6834 0.9535,-0.1729 z m 39.9301,0.199 c 0,-0.1235 0.8096,-1.6345 1.7992,-3.3579 0.9896,-1.7233 2.1436,-3.8143 2.5646,-4.6465 0.421,-0.8321 1.0744,-1.875 1.4519,-2.3174 0.3776,-0.4424 1.2703,-1.9344 1.9838,-3.3156 1.6231,-3.1421 1.2796,-3.2316 3.4898,0.9088 0.4991,0.935 1.0629,1.828 1.2528,1.9843 0.3478,0.2864 2.2746,3.4009 2.2746,3.6768 0,0.082 0.8929,1.639 1.9843,3.4608 1.0914,1.8218 1.9844,3.4234 1.9844,3.5591 0,0.1356 0.1725,0.3128 0.3833,0.3937 l 0.3834,0.1471 0.1603,-0.5053 c 0.088,-0.2779 0.9873,-1.9297 1.9979,-3.6707 1.0107,-1.741 1.8376,-3.2481 1.8376,-3.3492 0,-0.2852 1.9187,-3.3954 2.278,-3.6926 0.2973,-0.2459 3.0137,-5.2508 3.0137,-5.5526 0,-0.075 -8.8702,-0.136 -19.7115,-0.136 -10.8413,0 -19.7107,0.089 -19.7097,0.1985 0,0.1091 0.2385,0.5556 0.5279,0.9922 0.2894,0.4365 0.8197,1.3913 1.1785,2.1217 0.3587,0.7304 0.8796,1.572 1.1574,1.8702 0.54,0.5796 2.6907,3.9007 2.6907,4.1549 0,0.1471 3.6446,6.2078 4.2808,7.1187 0.3046,0.436 0.7463,0.4105 0.7463,-0.043 z m 39.1583,0 c 0,-0.1104 0.8144,-1.6157 1.8097,-3.3451 0.9954,-1.7293 2.3708,-4.1861 3.0566,-5.4594 0.6858,-1.2733 1.3401,-2.3151 1.454,-2.3151 0.1139,0 0.7915,-1.1311 1.5057,-2.5135 1.5843,-3.0668 1.3426,-3.0893 3.056,0.2847 0.7816,1.5391 1.6396,3.0332 1.9066,3.3203 0.267,0.2871 0.9929,1.5002 1.6131,2.6957 0.6202,1.1955 1.6858,3.1574 2.3681,4.3597 0.6822,1.2024 1.3649,2.5104 1.5169,2.9066 l 0.2766,0.7205 0.4141,-0.7938 c 0.2278,-0.4365 0.4972,-0.8533 0.5987,-0.926 0.2341,-0.1678 3.1035,-5.054 3.359,-5.7199 0.3132,-0.8164 2.775,-4.9744 3.1145,-5.2603 0.1727,-0.1456 0.7031,-1.0385 1.1784,-1.9844 0.4754,-0.9459 0.961,-1.8209 1.0791,-1.9446 l 0.2148,-0.2247 0.6473,1.1508 c 0.356,0.6329 1.2764,2.2819 2.0452,3.6643 0.7688,1.3825 1.5069,2.555 1.6401,2.6057 0.1333,0.051 0.5115,0.646 0.8406,1.323 0.3291,0.6769 1.3201,2.4809 2.2022,4.0088 0.8821,1.528 1.6876,3.0478 1.79,3.3773 l 0.1862,0.5992 0.2496,-0.1543 c 0.1372,-0.085 0.4309,-0.5884 0.6527,-1.119 0.2217,-0.5307 0.5064,-1.0287 0.6326,-1.1067 0.2207,-0.1364 3.1895,-5.2439 3.1895,-5.4872 0,-0.1989 3.2639,-6.0218 3.4548,-6.1634 0.098,-0.073 0.4307,-0.6303 0.7393,-1.2389 0.3085,-0.6085 0.6685,-1.173 0.8001,-1.2543 l 0.2391,-0.1478 0.8364,1.634 c 1.2306,2.4046 3.7695,6.6819 4.0264,6.7837 0.1225,0.049 0.2227,0.1905 0.2227,0.3155 0,0.125 0.79,1.5736 1.7556,3.2191 0.9656,1.6455 1.9287,3.4003 2.1402,3.8995 l 0.3846,0.9077 0.8998,-1.6842 c 0.495,-0.9263 0.9967,-1.7515 1.115,-1.8337 0.3016,-0.2098 1.1781,-1.7009 2.1874,-3.7215 0.4725,-0.9459 1.5552,-2.9339 2.406,-4.4178 0.8507,-1.4839 1.5468,-2.8072 1.5468,-2.9407 0,-0.1335 0.3342,-0.6254 0.7426,-1.0932 l 0.7426,-0.8505 0.983,2.2061 c 0.5406,1.2133 1.1947,2.5289 1.4536,2.9235 l 0.4707,0.7175 1.3522,-1.1828 c 0.7437,-0.6506 1.4603,-1.1829 1.5926,-1.1829 0.1322,0 0.7083,-0.5104 1.2802,-1.1341 0.5719,-0.6238 1.5134,-1.5168 2.0923,-1.9844 l 1.0524,-0.8503 h -43.5842 c -23.9713,0 -43.5842,0.055 -43.5842,0.1229 0,0.2888 2.956,5.5046 3.3756,5.9561 0.2534,0.2728 0.818,1.1827 1.2546,2.0219 0.4365,0.8392 1.5807,2.902 2.5425,4.5839 0.9618,1.6819 1.8311,3.3198 1.9317,3.6398 l 0.1831,0.5818 0.3833,-0.1471 c 0.2108,-0.081 0.3833,-0.2375 0.3833,-0.348 z m -87.8509,154.7665 2.1916,-0.9184 2.2823,-2.2489 c 4.2376,-4.1758 5.4844,-6.2584 6.1463,-10.2663 l 0.3105,-1.8805 -0.3239,-1.6657 c -0.1781,-0.9161 -0.6886,-2.4396 -1.1344,-3.3855 l -0.8105,-1.7197 -2.0793,-2.0309 -2.0792,-2.0308 -1.6149,-0.8069 c -0.8881,-0.4439 -2.0184,-0.8827 -2.5116,-0.9752 -0.4933,-0.093 -0.8968,-0.2741 -0.8968,-0.4034 v -0.2351 h -2.5136 -2.5135 v 0.2227 c 0,0.1225 -0.4619,0.3611 -1.0265,0.5302 -0.5646,0.1692 -1.702,0.808 -2.5276,1.4196 l -1.501,1.1121 2.2467,2.1769 2.2466,2.177 0.6757,-0.3135 c 0.3717,-0.1725 0.6767,-0.4013 0.6778,-0.5085 0,-0.3493 1.8943,-0.9957 2.9125,-0.9957 1.1069,0 2.9104,0.658 2.9104,1.0619 0,0.1436 0.1544,0.261 0.3432,0.261 0.4622,0 2.1419,1.7808 2.6703,2.8311 l 0.4261,0.8468 -2e-4,1.7991 -2e-4,1.7991 -0.7619,1.6104 -0.7619,1.6103 -2.3467,2.3815 -2.3468,2.3815 -1.5313,0.5722 -1.5313,0.5722 h -1.3791 -1.3792 l -1.3229,-0.6421 c -2.3981,-1.1638 -3.7031,-2.7866 -3.9975,-4.9706 l -0.1522,-1.129 0.3856,-1.0583 c 0.212,-0.5821 0.4671,-1.249 0.5667,-1.4821 l 0.1812,-0.4237 -1.7131,-1.6541 c -0.9422,-0.9097 -1.9591,-1.8263 -2.2597,-2.0369 l -0.5465,-0.3828 -0.787,1.27 c -0.4328,0.6985 -0.9029,1.406 -1.0446,1.5721 -0.1417,0.1662 -0.408,1.0304 -0.5919,1.9204 l -0.3342,1.6182 0.3011,1.7578 c 0.1656,0.9667 0.4094,1.829 0.5418,1.9161 0.1324,0.087 0.3168,0.4694 0.4097,0.8497 0.2917,1.1934 2.2085,3.7867 4.1024,5.5502 l 1.8213,1.6959 1.823,0.7126 c 2.4879,0.9725 2.5438,0.982 5.419,0.917 l 2.5376,-0.057 z m 197.9176,-14.8039 c 0,-0.3152 1.8229,-3.2069 2.2549,-3.577 0.4308,-0.369 1.2245,-1.5805 2.2329,-3.4084 l 0.8587,-1.5563 -2.238,-2.2801 c -1.2309,-1.2541 -2.9978,-3.1136 -3.9264,-4.1323 -0.9287,-1.0186 -2.5235,-2.6913 -3.5441,-3.7171 -2.0911,-2.1017 -5.2735,-5.6756 -5.0539,-5.6756 0.079,0 1.01,0.2801 2.0681,0.6224 1.0581,0.3423 3.7693,1.2029 6.0249,1.9125 2.2555,0.7095 4.1605,1.3693 4.2333,1.466 0.073,0.097 1.9778,0.7668 4.2333,1.489 l 4.1011,1.3131 0.8599,-1.2744 c 0.4729,-0.7009 0.8599,-1.3443 0.8599,-1.4298 0,-0.2492 1.87,-3.1467 2.2184,-3.4373 0.1744,-0.1455 0.5926,-0.7156 0.9292,-1.2668 l 0.6121,-1.0023 -0.7029,-0.6514 c -0.3865,-0.3583 -0.7551,-0.6514 -0.819,-0.6514 -0.064,0 -1.4915,-0.893 -3.1725,-1.9844 -1.681,-1.0914 -3.1422,-1.9843 -3.2472,-1.9843 -0.246,0 -3.0114,-1.8241 -3.3587,-2.2155 -0.3449,-0.3885 -3.0406,-2.1362 -3.6372,-2.358 -0.2542,-0.094 -1.3258,-0.7514 -2.3813,-1.4598 -1.0555,-0.7084 -2.5144,-1.6293 -3.242,-2.0465 -0.7276,-0.4171 -1.3824,-0.8294 -1.4552,-0.9161 -0.073,-0.087 -0.5389,-0.442 -1.0359,-0.7895 l -0.9037,-0.6317 -0.3645,0.5122 c -0.7026,0.9872 -3.2521,5.2012 -3.2521,5.3753 0,0.097 0.4235,0.404 0.9411,0.6827 0.5176,0.2788 1.257,0.7996 1.643,1.1573 0.7178,0.6653 3.3521,2.425 3.6301,2.425 0.085,0 1.6198,0.9525 3.4111,2.1166 1.7912,1.1642 3.3944,2.1167 3.5626,2.1167 0.1682,0 0.3058,0.1099 0.3058,0.2442 0,0.1343 0.6846,0.6844 1.5214,1.2224 0.8367,0.538 1.3313,0.9151 1.099,0.8381 -0.2323,-0.077 -1.661,-0.5217 -3.175,-0.9881 -1.514,-0.4664 -2.8133,-0.9437 -2.8873,-1.0608 -0.074,-0.1171 -1.3242,-0.5702 -2.7781,-1.0069 -2.1455,-0.6444 -6.3592,-1.9547 -9.8161,-3.0524 l -0.558,-0.1772 -1.3059,2.0565 c -0.7182,1.1311 -1.5187,2.4487 -1.7789,2.9281 l -0.4732,0.8716 2.0724,2.2657 c 1.1399,1.2461 2.4892,2.7863 2.9985,3.4227 0.5093,0.6364 1.2555,1.4078 1.6582,1.7142 0.4027,0.3064 1.9481,1.9458 3.4342,3.6432 1.4861,1.6973 2.883,3.2406 3.1043,3.4295 l 0.4022,0.3436 -0.926,-0.4469 c -1.1605,-0.56 -3.1267,-1.8789 -3.8784,-2.6016 -0.3141,-0.3019 -1.0285,-0.7835 -1.5875,-1.0701 -0.559,-0.2867 -2.4564,-1.4475 -4.2163,-2.5797 -1.7599,-1.1322 -3.3159,-2.0586 -3.4577,-2.0586 -0.1417,0 -0.7258,-0.4166 -1.298,-0.9258 -1.2288,-1.0937 -1.3762,-1.1209 -1.6842,-0.3108 -0.1287,0.3386 -0.9121,1.6557 -1.7408,2.9271 -0.8287,1.2713 -1.4645,2.3426 -1.413,2.3806 0.051,0.038 0.5103,0.3466 1.0196,0.6858 0.5094,0.3393 1.0451,0.7543 1.1907,0.9223 0.3137,0.3622 4.0425,2.7875 4.2856,2.7875 0.1616,0 5.755,3.5854 6.2977,4.0368 0.4545,0.3781 5.1296,3.3379 6.3375,4.0123 1.9786,1.1046 3.4339,2.0573 3.9254,2.5699 0.5139,0.5358 0.9819,0.6473 0.9819,0.234 z m -225.9469,-6.2797 c 0.3598,-0.2496 0.8545,-0.6365 1.0994,-0.8599 0.2448,-0.2234 0.8996,-0.641 1.4552,-0.928 0.5555,-0.287 2.2051,-1.2517 3.6658,-2.1438 1.4607,-0.892 3.0817,-1.8239 3.6023,-2.071 0.5206,-0.247 1.1828,-0.6692 1.4716,-0.9383 0.5749,-0.5356 4.732,-3.1886 4.9963,-3.1886 0.2311,0 6.253,-3.743 6.6547,-4.1363 0.3883,-0.3802 0.4301,-0.8101 0.091,-0.9348 -0.132,-0.049 -0.8621,-1.1003 -1.6225,-2.3372 -0.7603,-1.2369 -1.4194,-2.2917 -1.4646,-2.344 -0.045,-0.052 -0.4163,0.1422 -0.8249,0.4321 -0.4086,0.2899 -1.4189,0.8921 -2.2451,1.3382 -2.1791,1.1766 -6.3912,3.7984 -6.6998,4.1703 -0.1455,0.1753 -0.5229,0.3952 -0.8386,0.4888 l -0.574,0.17 -0.1856,-0.585 c -0.1022,-0.3218 -0.9513,-1.8236 -1.8869,-3.3373 -0.9357,-1.5137 -2.0459,-3.3893 -2.4672,-4.168 l -0.766,-1.4157 0.3165,-0.2516 c 0.7429,-0.5905 5.965,-3.7099 6.4892,-3.8763 0.3157,-0.1002 0.574,-0.2763 0.574,-0.3913 0,-0.115 0.7144,-0.6501 1.5875,-1.189 1.8977,-1.1713 1.866,-0.7734 0.2646,-3.3287 -0.7276,-1.161 -1.3247,-2.2015 -1.3269,-2.3122 0,-0.1107 -0.1077,-0.3648 -0.2342,-0.5646 l -0.2301,-0.3633 -1.0888,0.4803 c -0.5988,0.2642 -1.0887,0.565 -1.0887,0.6684 0,0.1849 -5.1077,3.4143 -5.4002,3.4143 -0.1992,0 -4.9385,2.9471 -5.4468,3.3871 -0.4839,0.4188 -7.8428,4.815 -8.06,4.815 -0.4598,0 -3.318,2.1626 -3.318,2.5105 0,0.2372 2.9619,4.8984 3.2101,5.0518 0.1345,0.083 1.715,-0.7509 3.5122,-1.8535 1.7971,-1.1025 3.3478,-2.0046 3.446,-2.0046 0.098,0 0.609,-0.2926 1.1353,-0.6502 l 0.9568,-0.6501 1.8073,2.9228 c 0.994,1.6075 1.8073,3.0312 1.8073,3.1637 0,0.1324 0.2127,0.4536 0.4726,0.7135 0.26,0.26 0.7563,0.9315 1.1029,1.4924 l 0.6302,1.0196 -0.492,0.3598 c -0.2706,0.1978 -0.5912,0.3597 -0.7125,0.3597 -0.2762,0 -3.6856,2.0993 -4.0439,2.4901 -0.3639,0.3968 -2.2234,1.559 -3.1168,1.948 l -0.7354,0.3202 0.4115,0.7959 c 0.2263,0.4377 0.5063,0.7958 0.6221,0.7958 0.1159,0 0.7216,0.893 1.346,1.9844 1.2559,2.195 1.2202,2.1695 2.1413,1.5306 z m -16.8826,-28.4422 c 0.6229,-0.3221 2.2042,-1.2505 3.5139,-2.0632 1.3096,-0.8126 2.9359,-1.7451 3.6138,-2.0721 0.6779,-0.327 1.5114,-0.8626 1.8521,-1.1902 0.3407,-0.3275 1.5124,-1.114 2.6039,-1.7478 4.8649,-2.8247 7.4695,-4.4137 7.9384,-4.8427 0.2784,-0.2547 0.5674,-0.463 0.6423,-0.463 0.075,0 1.0167,-0.5434 2.0929,-1.2075 l 1.9566,-1.2075 -0.7107,-2.8274 -0.7106,-2.8274 h -1.5696 c -0.8633,0 -5.5328,0.1659 -10.3769,0.3649 -4.844,0.199 -8.8565,0.3127 -8.9166,0.2526 -0.06,-0.06 2.2135,-1.2817 5.0526,-2.7145 2.839,-1.4329 5.3038,-2.7385 5.4772,-2.9014 0.1735,-0.163 2.0048,-1.1297 4.0697,-2.1484 l 3.7543,-1.8521 0.016,-0.5732 c 0.01,-0.3153 -0.094,-0.613 -0.2294,-0.6615 -0.1348,-0.049 -0.4713,-1.0372 -0.7478,-2.1972 l -0.5026,-2.109 -0.9058,-0.1811 c -0.9044,-0.1808 -28.5578,-0.8455 -28.7131,-0.6901 -0.045,0.045 0.2697,1.484 0.6996,3.1976 0.4298,1.7136 0.7816,3.1863 0.7816,3.2727 0,0.1659 4.6607,0.01 13.9595,-0.4715 3.0939,-0.1597 5.7662,-0.2434 5.9385,-0.1859 0.1724,0.057 -1.4324,0.9646 -3.5662,2.0159 -2.1337,1.0513 -4.0321,2.0639 -4.2187,2.2502 -0.1865,0.1863 -2.4609,1.3983 -5.0541,2.6934 l -4.7149,2.3546 0.1751,0.9336 c 0.096,0.5135 0.2652,0.9935 0.3752,1.0666 0.11,0.073 0.4098,0.9971 0.6662,2.0534 0.5893,2.4273 -0.084,2.2443 7.0791,1.9251 3.3887,-0.151 7.8877,-0.3404 9.9978,-0.4209 l 3.8364,-0.1463 -3.0325,1.4784 c -1.6679,0.8132 -3.0966,1.5728 -3.175,1.688 -0.2068,0.3042 -1.1602,0.8024 -6.6928,3.4975 -2.7296,1.3296 -5.0265,2.5204 -5.1042,2.6462 -0.1312,0.2122 1.4499,6.5937 1.6336,6.5937 0.046,0 0.5924,-0.2635 1.2154,-0.5855 z m 263.9012,-2.391 c 0.4101,-1.055 0.8352,-1.9572 0.9448,-2.0049 0.2101,-0.091 0.832,-2.1609 0.6889,-2.2925 -0.077,-0.071 -1.5546,-0.6238 -10.7992,-4.0414 -1.819,-0.6724 -3.3668,-1.3002 -3.4395,-1.3951 -0.073,-0.095 -1.5016,-0.6787 -3.175,-1.2975 -1.6735,-0.6188 -4.2688,-1.5897 -5.7673,-2.1575 -3.1741,-1.2028 -3.396,-1.2294 -3.6433,-0.4372 -0.1022,0.3275 -0.2985,0.6679 -0.4363,0.7566 -0.1378,0.089 -0.5881,1.1603 -1.0006,2.3813 l -0.7501,2.22 0.441,0.187 c 0.2425,0.1029 2.0483,0.7741 4.0128,1.4915 7.4574,2.7236 8.8629,3.2655 8.9936,3.4674 0.074,0.1144 1.3252,0.6313 2.7804,1.1486 2.3199,0.8248 10.2463,3.7785 10.3615,3.8612 0.024,0.017 0.3783,-0.8325 0.7883,-1.8875 z m 4.8055,-14.3537 c 0.3097,-1.4552 1.0018,-4.7294 1.538,-7.276 0.5361,-2.5466 1.0562,-4.6897 1.1556,-4.7625 0.1,-0.073 0.4474,-1.4297 0.7731,-3.0153 l 0.5922,-2.883 -0.3498,-0.2218 c -0.1924,-0.122 -0.511,-0.2236 -0.708,-0.2259 -0.6932,-0.01 -16.8414,-3.5275 -16.9721,-3.6993 -0.073,-0.096 -0.7871,-0.3092 -1.5875,-0.4745 -0.8003,-0.1653 -2.9141,-0.617 -4.6973,-1.0038 -1.7831,-0.3867 -3.3905,-0.6461 -3.5718,-0.5764 l -0.3298,0.1268 -0.62,3.1423 c -0.3411,1.7283 -0.7237,3.5591 -0.8503,4.0684 -0.1266,0.5093 -0.843,3.8682 -1.5919,7.4642 l -1.3618,6.5382 0.3599,0.3545 c 0.9485,0.9345 4.9901,1.3682 4.9901,0.5355 0,-0.6278 2.9732,-14.4661 3.1529,-14.6748 0.2053,-0.2383 5.4212,0.8296 5.5343,1.1332 0.048,0.1302 0.3004,0.2367 0.5599,0.2367 h 0.4717 l -0.3829,1.6536 c -0.4893,2.1133 -2.1836,10.1229 -2.3734,11.22 l -0.1445,0.835 2.0811,0.4444 c 1.1446,0.2444 2.2753,0.4973 2.5127,0.5619 l 0.4316,0.1175 0.3346,-1.7938 c 0.1841,-0.9866 0.4224,-1.8533 0.5295,-1.9261 0.166,-0.1127 1.5629,-6.2624 2.0284,-8.9297 l 0.15,-0.8599 h 0.3221 c 0.4598,0 5.1994,1.0046 5.3231,1.1283 0.1507,0.1507 -0.9938,5.5948 -1.209,5.7509 -0.1881,0.1364 -1.8596,7.785 -1.8596,8.5092 v 0.4061 l 2.4474,0.5183 c 2.9204,0.6184 2.6293,0.8307 3.3215,-2.4222 z m -18.3779,-28.3765 c 0.094,-1.4189 0.1715,-4.5928 0.1722,-7.0533 v -4.4737 l 11.6268,0.1563 11.6268,0.1562 0.081,-3.2486 0.081,-3.2486 -8.0698,-0.1726 c -4.4383,-0.095 -10.8198,-0.1728 -14.1809,-0.1731 l -6.1111,-4e-4 -0.1715,2.9765 c -0.094,1.6371 -0.1721,6.2806 -0.1728,10.3188 v 7.3422 h 2.4737 2.4736 z m -245.3597,1.5271 c 3.7108,-0.1397 8.0268,-0.3326 9.5911,-0.4286 l 2.8443,-0.1744 v -2.2811 c 0,-1.2546 -0.078,-2.7337 -0.1692,-3.287 l -0.1662,-1.006 -3.072,0.1488 c -1.6896,0.082 -6.0486,0.2634 -9.6866,0.4035 -3.638,0.14 -8.6089,0.3319 -11.0463,0.4262 l -4.4318,0.1716 v 3.317 3.3169 l 4.6963,-0.1764 c 2.583,-0.097 7.7325,-0.2907 11.4433,-0.4305 z m 11.7139,-13.4995 c 0.1125,-0.9459 0.3004,-2.4668 0.4175,-3.3799 l 0.2129,-1.66 -0.5498,-0.1181 c -0.3023,-0.065 -4.7169,-0.6092 -9.8102,-1.2094 -5.0932,-0.6003 -9.2879,-1.1175 -9.3215,-1.1494 -0.034,-0.032 1.3951,-0.2178 3.175,-0.4132 1.7799,-0.1954 3.2957,-0.4364 3.3684,-0.5355 0.073,-0.099 2.7517,-0.5005 5.9531,-0.8918 3.2015,-0.3912 6.2563,-0.7762 6.7884,-0.8555 l 0.9676,-0.1442 0.2975,-2.296 c 0.1637,-1.2628 0.3607,-2.8022 0.4378,-3.4208 l 0.1402,-1.1249 -0.6115,-0.2426 c -1.4313,-0.5678 -9.1779,-3.5462 -10.2689,-3.9482 -0.6549,-0.2413 -1.2502,-0.5108 -1.3229,-0.5991 -0.073,-0.088 -1.4692,-0.6762 -3.1032,-1.3065 -1.634,-0.6304 -2.9266,-1.1904 -2.8726,-1.2445 0.054,-0.054 4.0971,0.385 8.9844,0.9758 4.8872,0.5908 9.1113,1.0742 9.3868,1.0742 h 0.5008 l 0.1847,-2.1167 0.1846,-2.1166 h 0.2464 0.2464 v -1.2997 -1.2997 l -0.9922,-0.1431 c -1.19,-0.1717 -3.951,-0.5101 -9.988,-1.2242 -2.4739,-0.2926 -5.51,-0.6556 -6.7469,-0.8066 -1.2369,-0.151 -4.0899,-0.4995 -6.34,-0.7743 -4.8158,-0.5882 -4.4009,-0.7235 -4.6255,1.509 -0.099,0.9843 -0.3543,3.1582 -0.5671,4.831 l -0.3871,3.0413 0.4542,0.3321 c 0.2498,0.1826 0.61,0.3321 0.8005,0.3321 0.1904,0 0.3463,0.1168 0.3463,0.2595 0,0.1428 0.3274,0.3378 0.7276,0.4334 0.4002,0.096 2.2159,0.7427 4.0349,1.4379 1.819,0.6953 5.5099,2.0728 8.2021,3.061 6.2171,2.2824 6.5322,2.5359 3.5718,2.8742 -0.8731,0.1 -4.3259,0.5182 -7.6729,0.9298 -3.347,0.4117 -7.3561,0.899 -8.9091,1.083 l -2.8236,0.3346 -0.2924,2.2678 c -0.1609,1.2472 -0.4083,3.1358 -0.5498,4.1968 -0.1416,1.0609 -0.2574,2.3386 -0.2574,2.8392 v 0.9102 l 0.5953,0.1372 c 0.3275,0.075 2.6789,0.3823 5.2256,0.682 2.5466,0.2996 5.5231,0.6499 6.6145,0.7784 2.1171,0.2492 10.1105,1.2217 12.9646,1.5773 0.9459,0.1179 1.9579,0.1982 2.249,0.1784 l 0.5291,-0.036 z m 229.4652,-21.0599 c 1.3034,-0.3778 2.4294,-0.7718 2.5021,-0.8755 0.073,-0.1037 1.0848,-0.4607 2.249,-0.7933 1.1642,-0.3327 3.2477,-0.9384 4.6302,-1.3462 1.3824,-0.4077 3.9423,-1.156 5.6885,-1.6628 1.7463,-0.5068 4.5145,-1.3156 6.1516,-1.7972 l 2.9766,-0.8756 v -0.4031 c 0,-0.7237 -1.6653,-5.8468 -1.9006,-5.8468 -0.1259,0 -2.1013,0.5541 -4.3897,1.2314 -2.2884,0.6772 -4.7367,1.3876 -5.4407,1.5785 -0.7039,0.1909 -2.2517,0.6393 -3.4395,0.9963 -1.1879,0.357 -2.5902,0.7638 -3.1163,0.9038 l -0.9565,0.2547 1.3018,-1.3579 c 0.716,-0.7468 1.9203,-2.1212 2.6763,-3.0542 0.756,-0.9329 2.1939,-2.5403 3.1953,-3.5719 1.0014,-1.0315 2.706,-2.9744 3.788,-4.3175 1.082,-1.3431 2.3053,-2.6827 2.7184,-2.9769 l 0.7512,-0.5349 -0.2952,-0.9919 c -0.1624,-0.5455 -0.3657,-1.0514 -0.4517,-1.1241 -0.086,-0.073 -0.4182,-1.0153 -0.7381,-2.0945 -0.7333,-2.4738 -0.4546,-2.3381 -3.1598,-1.5389 -1.2743,0.3764 -3.8052,1.1244 -5.6242,1.6623 -1.819,0.5378 -3.3668,1.0545 -3.4396,1.1481 -0.143,0.1842 -1.0964,0.4734 -9.8797,2.9974 l -5.7787,1.6606 0.1304,0.8036 c 0.072,0.4421 0.4469,1.8414 0.8338,3.1096 l 0.7033,2.3059 h 0.428 c 0.2354,0 1.7462,-0.4019 3.3574,-0.8932 3.5782,-1.091 9.2814,-2.7376 10.2717,-2.9654 0.4002,-0.092 0.7276,-0.2595 0.7276,-0.372 0,-0.1124 0.5204,-0.3355 1.1565,-0.4957 0.6361,-0.1602 1.3762,-0.3755 1.6445,-0.4784 l 0.4879,-0.1873 -1.2481,1.5887 c -0.6865,0.8738 -2.0313,2.3549 -2.9886,3.2913 -0.9572,0.9365 -2.0135,2.1194 -2.3472,2.6287 -0.3337,0.5093 -1.8355,2.2125 -3.3374,3.7847 -1.5019,1.5723 -2.9287,3.1796 -3.1707,3.5719 -0.2419,0.3923 -0.6843,0.9303 -0.9831,1.1956 l -0.5431,0.4824 0.487,1.502 c 0.2678,0.8261 0.6771,2.1866 0.9095,3.0233 l 0.4226,1.5214 h 0.3347 c 0.1842,0 1.4012,-0.3092 2.7046,-0.687 z m -223.8433,-13.0714 c 0.3939,-0.9459 1.0022,-2.2853 1.3519,-2.9765 l 0.6357,-1.2567 -1.9226,-0.8983 c -1.0575,-0.494 -2.6668,-1.2303 -3.5764,-1.6362 -0.9095,-0.4058 -1.6536,-0.8138 -1.6536,-0.9067 0,-0.093 -0.6251,-0.4444 -1.3891,-0.7814 -0.7639,-0.3369 -3.0254,-1.3701 -5.0255,-2.2961 -2.0001,-0.9259 -3.7761,-1.6835 -3.9467,-1.6835 -0.1706,0 -0.239,-0.071 -0.152,-0.1583 0.087,-0.087 1.744,0.1417 3.6822,0.5082 1.9381,0.3666 4.893,0.9191 6.5665,1.2279 1.6735,0.3088 4.4715,0.8353 6.2177,1.1701 3.9171,0.7509 3.4728,0.974 5.0929,-2.5575 l 1.3617,-2.9685 -1.3752,-1.2484 c -0.7564,-0.6866 -1.4781,-1.2521 -1.6039,-1.2567 -0.2774,-0.01 -2.9804,-2.3062 -4.7976,-4.0752 -0.728,-0.7087 -1.5084,-1.3635 -1.7342,-1.4552 -0.5813,-0.2359 -5.4217,-4.3065 -5.7749,-4.8565 l -0.2933,-0.4565 0.6597,0.3006 c 0.3628,0.1653 0.6596,0.3786 0.6596,0.474 0,0.095 1.1013,0.6828 2.4474,1.3052 4.3745,2.0229 8.5025,3.9081 9.9219,4.5315 0.764,0.3354 1.3891,0.6849 1.3891,0.7766 0,0.1536 2.2324,1.3304 2.5239,1.3304 0.071,0 0.4295,-0.6806 0.7974,-1.5124 0.3679,-0.8318 0.7533,-1.5759 0.8566,-1.6536 0.1032,-0.078 0.5156,-0.8295 0.9163,-1.6706 l 0.7286,-1.5293 -0.464,-0.16 c -1.1415,-0.3937 -2.8394,-1.1872 -2.9683,-1.3872 -0.1793,-0.2781 -2.5361,-1.4702 -4.7718,-2.4138 -3.4237,-1.4448 -8.846,-3.9827 -8.9854,-4.2056 -0.078,-0.1254 -1.3615,-0.7754 -2.8511,-1.4444 -1.4895,-0.6689 -3.3275,-1.515 -4.0844,-1.8801 -1.8193,-0.8777 -1.6721,-0.9506 -2.8005,1.3867 -0.5445,1.1278 -1.0496,2.11 -1.1223,2.1828 -0.073,0.073 -0.6336,1.1663 -1.2463,2.4301 l -1.114,2.2979 1.5108,1.3239 c 2.6551,2.3266 6.7745,5.6513 7.6625,6.1843 0.4729,0.2838 0.8599,0.6038 0.8599,0.7111 0,0.2481 5.4797,4.7798 5.7797,4.7798 0.123,0 0.4505,0.253 0.7277,0.5622 l 0.504,0.5622 -0.7937,-0.1542 c -0.4366,-0.085 -2.163,-0.4083 -3.8365,-0.7187 -4.2528,-0.7889 -9.3328,-1.7512 -13.2698,-2.5136 -1.8413,-0.3566 -3.4843,-0.6484 -3.651,-0.6484 -0.1668,0 -0.7027,0.8632 -1.1911,1.9183 -0.4883,1.055 -1.4283,3.0811 -2.0889,4.5023 l -1.2011,2.5841 2.0961,1.0539 c 1.1529,0.5797 2.2811,1.0539 2.5072,1.0539 0.2261,0 0.4796,0.1786 0.5634,0.3969 0.084,0.2183 0.2544,0.3969 0.3792,0.3969 0.1248,0 1.4376,0.5953 2.9173,1.3229 1.4798,0.7276 2.7895,1.3229 2.9104,1.3229 0.121,0 1.3851,0.5702 2.8091,1.2672 1.4239,0.6969 3.1546,1.4807 3.8458,1.7417 0.6912,0.2609 1.2568,0.571 1.2568,0.6889 0,0.1179 0.1488,0.2788 0.3307,0.3576 0.1819,0.079 1.6404,0.7375 3.2411,1.4638 1.6008,0.7263 2.9887,1.2402 3.0843,1.1419 0.096,-0.098 0.4962,-0.9527 0.8901,-1.8986 z m 218.3325,-16.3011 c 0.6963,-0.2343 1.9209,-0.8131 2.7213,-1.2862 0.8003,-0.4731 2.2886,-1.3417 3.3073,-1.9303 1.0186,-0.5886 2.176,-1.3501 2.572,-1.6922 0.396,-0.3421 1.1699,-0.856 1.7198,-1.1421 0.5499,-0.286 2.1949,-1.2498 3.6556,-2.1418 1.4607,-0.892 3.1088,-1.8368 3.6623,-2.0995 0.5536,-0.2627 1.0658,-0.6321 1.1382,-0.8208 0.1409,-0.3672 -0.9395,-2.4839 -1.2679,-2.4839 -0.108,0 -0.5696,-0.6523 -1.0258,-1.4496 -1.0915,-1.9077 -0.9193,-1.888 -3.4123,-0.3894 -1.1985,0.7204 -2.2293,1.3098 -2.2907,1.3098 -0.2517,0 -3.7135,2.1904 -3.9664,2.5097 -0.1504,0.1899 -0.9243,0.699 -1.7198,1.1313 -0.7954,0.4324 -2.719,1.5596 -4.2746,2.5049 l -2.8282,1.7189 -1.0751,0.1719 -1.0751,0.1719 -0.8709,-0.3639 c -1.0623,-0.4438 -2.9661,-2.5521 -3.4079,-3.7738 -0.1782,-0.4927 -0.4191,-0.8959 -0.5354,-0.8959 -0.1162,0 -0.2114,-0.6548 -0.2114,-1.4552 0,-0.8003 0.093,-1.4552 0.2075,-1.4552 0.1142,0 0.4141,-0.3496 0.6666,-0.777 l 0.459,-0.777 1.9648,-1.1929 c 1.0806,-0.656 2.2094,-1.4375 2.5084,-1.7365 0.2991,-0.299 0.6616,-0.5437 0.8056,-0.5437 0.1441,0 1.6685,-0.8632 3.3876,-1.9182 1.7191,-1.055 3.6955,-2.2159 4.3921,-2.5797 0.6965,-0.3638 1.5236,-0.9072 1.8379,-1.2075 0.3144,-0.3004 1.0188,-0.8166 1.5654,-1.1471 l 0.9938,-0.601 -0.182,-0.3081 c -0.1001,-0.1695 -0.7386,-1.2023 -1.4189,-2.2952 -0.6802,-1.0928 -1.3214,-2.2536 -1.4249,-2.5795 l -0.188,-0.5924 -0.5776,0.303 c -0.3176,0.1666 -0.6727,0.4642 -0.7891,0.6612 -0.1164,0.1971 -0.326,0.3583 -0.4658,0.3583 -0.1399,0 -1.2948,0.6418 -2.5666,1.4263 -1.2717,0.7845 -3.4585,2.0863 -4.8596,2.8931 -1.401,0.8067 -2.8482,1.7424 -3.2159,2.0794 -0.3677,0.337 -1.2455,0.9103 -1.9506,1.2741 -3.6575,1.8872 -5.3196,3.411 -6.2386,5.72 l -0.514,1.2915 -0.021,2.2489 -0.02,2.249 0.5836,1.7529 c 0.321,0.9642 0.9955,2.4371 1.499,3.2732 0.5035,0.8362 0.9155,1.5724 0.9155,1.636 0,1.8039 5.9229,5.3066 9.0527,5.3537 l 1.5121,0.023 z m -202.4466,-14.1229 c 0.7185,-0.8714 1.6338,-1.8275 2.034,-2.1246 1.1808,-0.8766 1.3081,-0.6996 -3.2761,-4.5563 l -3.0628,-2.5769 -0.1601,-1.9098 c -0.2014,-2.4017 -0.8865,-2.1951 6.0987,-1.8392 3.3125,0.1688 6.7531,0.3061 7.6458,0.3053 h 1.623 l 1.8165,-2.1353 c 0.9991,-1.1744 2.1046,-2.4525 2.4567,-2.8401 l 0.6401,-0.7048 -1.037,-0.1865 c -0.5703,-0.1026 -5.2787,-0.2668 -10.4629,-0.3649 l -9.426,-0.1785 -0.1437,-1.359 c -0.079,-0.7474 -0.4191,-4.5439 -0.7557,-8.4366 -0.3365,-3.8927 -0.6736,-7.0705 -0.749,-7.0619 -0.075,0.01 -0.955,1.0074 -1.9546,2.2194 -0.9995,1.2121 -2.1008,2.5095 -2.4474,2.8832 l -0.63,0.6794 v 0.9156 c 0,0.5035 0.1,0.9552 0.2219,1.0037 0.2363,0.094 1.7535,13.2122 1.5861,13.7143 l -0.099,0.2968 -1.7806,-1.3479 c -0.9793,-0.7414 -1.7806,-1.4341 -1.7806,-1.5395 0,-0.2485 -4.1721,-3.7991 -4.9277,-4.1938 l -0.5784,-0.302 -1.8771,2.216 c -1.0325,1.2189 -1.8772,2.3912 -1.8772,2.6053 v 0.3892 l 2.5797,2.1023 c 1.4188,1.1562 3.0552,2.5479 3.6364,3.0926 1.997,1.8716 4.9135,4.3539 5.1156,4.3539 0.1112,0 1.2087,0.9549 2.4389,2.1221 1.2302,1.1672 3.0701,2.7673 4.0888,3.5557 1.0186,0.7885 2.2093,1.7343 2.6458,2.1017 1.0353,0.8714 0.8968,0.9232 2.3978,-0.8973 z m 178.5899,-11.7109 c 1.7322,-1.5455 6.6971,-6.3607 11.8279,-11.4711 l 3.3739,-3.3606 0.5568,0.5036 c 0.3062,0.277 1.5754,1.6645 2.8205,3.0833 2.698,3.0746 2.3264,3.0174 4.6567,0.7173 l 1.887,-1.8624 -3.2476,-3.0985 c -1.7861,-1.7042 -3.2446,-3.2291 -3.2411,-3.3887 0,-0.1595 -1.3042,-1.5287 -2.906,-3.0427 -1.6019,-1.5139 -3.8297,-3.7944 -4.9508,-5.0677 -2.4198,-2.7483 -2.1439,-2.7041 -4.3738,-0.6994 -2.2684,2.0392 -2.3245,1.809 1.2568,5.1597 1.6734,1.5657 3.0427,2.9436 3.0427,3.062 0,0.3455 -1.8845,2.3335 -2.212,2.3335 -0.164,0 -2.1445,1.8322 -4.401,4.0717 -2.2564,2.2394 -5.4499,5.3975 -7.0964,7.0178 l -2.9938,2.9462 2.2,2.1937 c 1.21,1.2065 2.2098,2.2157 2.2217,2.2426 0.012,0.027 0.7222,-0.5763 1.5785,-1.3403 z m -159.2918,-9.188 c 0.8731,-0.6665 2.2123,-1.6252 2.976,-2.1304 0.7637,-0.5052 1.3888,-0.9934 1.3891,-1.0849 5e-4,-0.1844 2.9988,-2.4505 5.3555,-4.0479 0.8353,-0.5661 2.1813,-1.6363 2.9913,-2.3782 l 1.4727,-1.3489 -1.489,-1.9163 c -1.7292,-2.2255 -1.4989,-2.1323 -2.7738,-1.1226 -0.5512,0.4366 -1.0813,0.7938 -1.1781,0.7938 -0.2475,0 -4.0342,2.911 -5.2897,4.0664 -0.5742,0.5284 -1.1523,0.9607 -1.2849,0.9607 -0.1325,0 -0.71,0.3715 -1.2834,0.8256 -0.5733,0.4541 -1.0833,0.7815 -1.1332,0.7276 -0.2743,-0.2962 -2.0078,-2.6965 -2.8936,-4.0067 -0.5634,-0.8334 -1.1057,-1.5153 -1.205,-1.5153 -0.099,0 -0.829,-0.8997 -1.6214,-1.9994 -2.8254,-3.9206 -4.6801,-6.3502 -5.6331,-7.3788 -0.5319,-0.5742 -0.9671,-1.1524 -0.9671,-1.2849 0,-0.1325 -0.3704,-0.7086 -0.8232,-1.2802 l -0.8231,-1.0393 -0.9628,0.7114 c -0.5296,0.3913 -1.2009,0.9345 -1.492,1.2071 -0.291,0.2726 -1.0379,0.8523 -1.6597,1.2881 l -1.1305,0.7923 0.2507,0.457 c 0.1379,0.2513 0.7529,0.9911 1.3666,1.644 0.6138,0.6528 1.4219,1.6649 1.7959,2.2489 0.6489,1.0134 4.7331,6.4737 5.0492,6.7505 0.3191,0.2794 4.6999,6.267 5.2752,7.2101 0.333,0.5458 0.8049,1.1411 1.0488,1.3229 0.2439,0.1818 0.9092,0.9501 1.4785,1.7074 l 1.0352,1.3768 0.2857,-0.1724 c 0.1571,-0.095 1,-0.7178 1.8732,-1.3844 z m 134.3723,-11.251 c 0.4072,-0.3188 3.6054,-5.0515 3.6138,-5.3477 0,-0.1147 0.2227,-0.4905 0.4877,-0.8351 l 0.4818,-0.6265 1.1659,0.7563 c 0.6413,0.416 1.2255,0.8311 1.2983,0.9225 1.3634,1.7121 6.4044,3.9928 8.8252,3.9928 h 1.5608 l 1.5808,-0.6218 1.5809,-0.6218 1.2486,-1.2249 1.2487,-1.2248 1.0311,-2.0825 1.0311,-2.0824 -0.015,-1.894 -0.015,-1.8941 -0.7098,-1.4506 -0.7097,-1.4507 -1.1349,-1.0209 c -2.0313,-1.8274 -3.6675,-2.9608 -10.7605,-7.4541 -0.8004,-0.507 -1.5505,-1.0827 -1.6668,-1.2792 -0.3575,-0.6037 -0.6029,-0.4163 -1.6263,1.2417 -0.5428,0.8794 -1.27,1.9045 -1.616,2.2778 -0.346,0.3733 -1.0077,1.2908 -1.4706,2.0389 -2.2133,3.5777 -5.095,7.8425 -5.2991,7.8425 -0.1251,0 -0.2275,0.1272 -0.2275,0.2826 0,0.1555 -0.9525,1.688 -2.1167,3.4056 -1.1641,1.7177 -2.1166,3.1976 -2.1166,3.2887 0,0.091 -0.4167,0.7457 -0.9261,1.4546 -1.1781,1.64 -1.3145,1.3489 1.5214,3.2482 1.3461,0.9015 2.4899,1.7464 2.5418,1.8776 0.052,0.1312 0.2655,-0.097 0.4745,-0.5078 0.209,-0.4105 0.5321,-0.8654 0.718,-1.0109 z m 13.371,-7.5299 c -0.8545,-0.2588 -5.5298,-3.3802 -5.5298,-3.6919 0,-0.1253 0.905,-1.6076 2.0111,-3.294 l 2.0111,-3.0662 1.2301,0.6832 c 5.8377,3.2421 7.058,6.1317 3.7609,8.9061 l -0.8517,0.7166 -0.9719,-0.023 c -0.5345,-0.013 -1.2815,-0.1165 -1.6598,-0.2311 z m -124.0865,4.6086 c 1.8837,-0.444 4.7414,-1.7241 5.7969,-2.5967 3.2992,-2.7275 4.5639,-4.5 5.03,-7.0497 l 0.266,-1.4552 -0.2432,-1.323 c -0.2991,-1.627 -0.4466,-2.0226 -2.416,-6.4823 -2.6291,-5.9534 -3.239,-7.2632 -3.524,-7.568 -0.1502,-0.1605 -0.494,-0.8154 -0.764,-1.4552 -1.0308,-2.4427 -2.2498,-4.9997 -2.3836,-4.9997 -0.077,0 -0.797,0.2977 -1.6006,0.6615 -0.8036,0.3638 -2.1089,0.9544 -2.9007,1.3124 l -1.4397,0.651 0.6085,1.5318 c 0.8478,2.1344 1.8197,4.1284 2.1652,4.4423 0.1601,0.1455 0.5718,0.9789 0.9148,1.8521 0.343,0.8731 1.0752,2.514 1.6271,3.6464 0.5518,1.1324 1.0033,2.1295 1.0033,2.2157 0,0.086 0.4351,1.1204 0.967,2.2982 0.5318,1.1778 1.0549,2.532 1.1626,3.0093 l 0.1957,0.8678 -0.2628,1.0355 -0.2629,1.0355 -0.7729,0.7905 c -0.9294,0.9507 -2.7542,1.8454 -4.3851,2.1501 l -1.1949,0.2232 -0.8853,-0.2444 -0.8852,-0.2445 -0.9391,-1.0971 c -0.5166,-0.6034 -0.9391,-1.2095 -0.9391,-1.3469 0,-0.3881 -1.9009,-4.504 -2.2339,-4.8371 -0.1632,-0.1631 -0.5146,-0.82 -0.781,-1.4598 -0.5263,-1.2642 -3.2594,-7.4491 -4.2918,-9.7123 l -0.641,-1.4053 -0.5902,0.1742 c -0.5099,0.1505 -5.2157,2.2115 -5.4303,2.3784 -0.1918,0.1491 4.8062,11.485 5.1818,11.7529 0.1132,0.081 0.8506,1.6203 1.6387,3.4214 0.788,1.801 1.7662,3.7347 2.1736,4.2972 0.4074,0.5624 0.7407,1.1264 0.7407,1.2534 0,0.5445 2.9235,2.1263 4.6302,2.5052 1.1859,0.2634 4.0719,0.1468 5.6652,-0.2288 z m 103.2762,-2.5148 c 0.4325,-1.2303 0.8844,-2.2985 1.0043,-2.3738 0.1926,-0.1211 -2.8598,-1.3678 -7.8826,-3.2195 -0.9096,-0.3353 -1.6537,-0.6849 -1.6537,-0.7769 0,-0.092 -1.1013,-0.5589 -2.4474,-1.0375 -1.3461,-0.4786 -2.492,-0.9049 -2.5465,-0.9474 -0.1616,-0.1259 1.1057,-3.539 1.314,-3.539 0.1051,0 0.3948,-0.6476 0.6437,-1.4391 l 0.4527,-1.4391 1.3579,0.541 c 0.7468,0.2976 1.5365,0.609 1.7548,0.6922 0.2183,0.083 0.4564,0.2352 0.5291,0.3378 0.1247,0.176 7.2641,2.9619 8.7664,3.4209 l 0.6965,0.2128 0.6878,-1.7586 c 0.3783,-0.9672 0.7589,-2.1182 0.8458,-2.5577 l 0.1579,-0.7992 -1.0131,-0.3566 c -0.5572,-0.1962 -2.7395,-1.0101 -4.8496,-1.8087 -2.11,-0.7986 -4.5211,-1.7066 -5.3578,-2.0178 -1.7872,-0.6648 -1.7654,-0.5474 -0.6435,-3.4491 1.0484,-2.712 1.0282,-2.6879 1.9579,-2.3363 0.4049,0.1531 2.2244,0.8352 4.0434,1.5159 6.3917,2.3917 8.2021,3.1308 8.2021,3.3487 0,0.121 0.2287,0.2199 0.5081,0.2199 h 0.5082 l 0.1743,-0.7937 c 0.096,-0.4366 0.2674,-0.7938 0.3812,-0.7938 0.197,0 1.3386,-2.7125 1.3386,-3.1807 0,-0.1227 -0.2679,-0.3002 -0.5953,-0.3944 -1.2326,-0.3546 -4.3051,-1.5746 -4.4409,-1.7635 -0.078,-0.1081 -2.5385,-1.0916 -5.4683,-2.1855 -2.9298,-1.094 -6.2327,-2.3489 -7.3399,-2.7887 -1.1072,-0.4398 -2.0534,-0.7997 -2.1026,-0.7997 -0.049,0 -0.3031,0.5656 -0.5641,1.2568 -0.2611,0.6912 -0.5696,1.32 -0.6856,1.3974 -0.1972,0.1314 -2.0928,4.9958 -4.0695,10.4427 -0.4753,1.3097 -1.1761,3.1459 -1.5573,4.0805 -0.3813,0.9346 -0.6932,1.8574 -0.6932,2.0505 0,0.1932 -0.1019,0.3513 -0.2266,0.3513 -0.2474,0 -2.6838,6.0841 -2.6838,6.7019 v 0.3804 l 1.3891,0.5282 c 0.764,0.2905 2.6987,1.015 4.2995,1.6101 6.8834,2.5591 9.3927,3.5694 9.3927,3.782 0,0.1246 0.1556,0.2266 0.3458,0.2266 0.1902,0 1.351,0.4112 2.5797,0.9139 2.7653,1.1313 2.5488,1.2216 3.4898,-1.4552 z m -83.7839,-5.8531 c 0.861,-0.1699 1.625,-0.3903 1.6977,-0.4899 0.073,-0.1 1.323,-0.3907 2.7782,-0.6468 10.2587,-1.8057 11.4031,-2.1844 13.9584,-4.619 l 0.9938,-0.9468 0.5275,-1.6815 c 0.6382,-2.0343 0.662,-3.1936 0.1042,-5.0722 l -0.4235,-1.4257 -1.0979,-1.011 c -0.6039,-0.556 -1.7747,-1.3513 -2.6019,-1.7674 l -1.504,-0.7566 0.6791,-0.6251 c 0.3735,-0.3438 0.9598,-1.2204 1.3029,-1.948 l 0.6239,-1.3229 v -1.3229 -1.323 l -0.7661,-1.6191 -0.766,-1.6192 -0.8874,-0.6647 c -0.4881,-0.3656 -1.3041,-0.8854 -1.8135,-1.1552 l -0.926,-0.4906 h -3.0427 -3.0427 l -3.7042,0.7364 c -2.0373,0.405 -4.9524,0.9777 -6.4781,1.2728 -1.5256,0.295 -2.8135,0.576 -2.8619,0.6244 -0.048,0.048 0.2134,1.6775 0.5817,3.6202 1.1687,6.165 4.1689,22.5427 4.3185,23.5744 l 0.1439,0.9922 h 0.3179 c 0.1748,0 1.0224,-0.1391 1.8834,-0.309 z m 3.2825,-6.8709 c 0,-0.3439 -0.2318,-1.7564 -0.5119,-3.1389 -0.6076,-2.9996 -0.7784,-2.7723 2.499,-3.3261 1.4552,-0.2459 2.7277,-0.5754 2.8278,-0.7323 l 0.182,-0.2851 1.9564,-0.011 1.9565,-0.011 0.7018,0.7937 c 0.386,0.4366 0.8261,1.2358 0.978,1.7761 l 0.2761,0.9822 -0.1687,0.6722 c -0.093,0.3697 -0.5115,0.9606 -0.9305,1.3132 l -0.7618,0.641 -1.5244,0.334 c -0.8384,0.1837 -1.584,0.4049 -1.6567,0.4915 -0.1412,0.168 -2.4928,0.6568 -4.5641,0.9488 l -1.2568,0.1772 z m -2.3931,-13.2592 c -0.1798,-1.055 -0.3394,-2.3347 -0.3546,-2.8438 l -0.028,-0.9255 2.249,-0.4482 c 1.2369,-0.2466 3.0901,-0.5291 4.1183,-0.6279 l 1.8693,-0.1797 0.8206,0.4244 0.8206,0.4243 0.3155,0.9558 0.3154,0.9559 -0.4741,1.0513 -0.4741,1.0514 -0.7795,0.4031 c -0.5981,0.3093 -6.9584,1.6576 -7.8972,1.6741 -0.096,0 -0.3217,-0.8602 -0.5015,-1.9152 z m 58.0803,17.9917 c 0.08,-0.473 0.3872,-2.7649 0.6821,-5.0933 0.441,-3.4805 2.2009,-16.9207 2.7766,-21.2036 l 0.1472,-1.0952 -1.6655,-0.275 c -0.916,-0.1512 -2.3894,-0.3523 -3.2742,-0.4468 l -1.6086,-0.1719 -0.3081,2.4681 c -0.1695,1.3575 -0.5559,4.3137 -0.8588,6.5692 -0.3028,2.2556 -0.7018,5.2322 -0.8865,6.6146 l -0.3358,2.5136 -0.335,-0.7938 c -1.1868,-2.8121 -1.4967,-3.4732 -1.7578,-3.7504 -0.1611,-0.1709 -0.5638,-1.0044 -0.895,-1.8521 -0.3311,-0.8477 -1.2854,-3.1486 -2.1205,-5.1131 -0.8351,-1.9646 -1.9211,-4.5519 -2.4133,-5.7497 -0.4921,-1.1978 -1.0238,-2.2282 -1.1815,-2.2899 -0.4827,-0.1887 -6.4878,-1.0168 -6.5952,-0.9095 -0.055,0.055 -0.4645,2.8357 -0.9092,6.1785 -0.4447,3.3428 -0.9835,7.3876 -1.1974,8.9883 -0.2138,1.6007 -0.6333,4.7559 -0.932,7.0114 -0.2988,2.2556 -0.6104,4.5476 -0.6925,5.0933 l -0.1491,0.9922 0.3539,0.01 c 0.1947,0 1.6042,0.1795 3.1322,0.3885 1.5279,0.2091 2.8588,0.3839 2.9575,0.3885 0.099,0 0.2569,-0.6762 0.3517,-1.5129 0.095,-0.8368 0.3952,-3.1883 0.6677,-5.2256 0.2725,-2.0373 0.6868,-5.1924 0.9207,-7.0114 0.2338,-1.819 0.4859,-3.5988 0.5601,-3.955 l 0.1349,-0.6476 0.2464,0.383 c 0.1356,0.2107 0.3687,0.8242 0.518,1.3634 0.1493,0.5392 0.4189,1.1345 0.5991,1.3229 0.3233,0.3382 0.9126,1.6633 3.6233,8.1479 0.7604,1.819 1.756,4.2002 2.2125,5.2916 0.4565,1.0914 0.9024,2.0439 0.9909,2.1167 0.089,0.073 0.2943,0.3859 0.4573,0.6958 l 0.2965,0.5635 2.852,0.3978 c 1.5686,0.2188 2.9954,0.4117 3.1707,0.4287 l 0.3188,0.031 z"
       id="path282" /></g><style
     id="style1">@media(prefers-color-scheme:dark){.lines{fill:#d7d7d7}}</style></svg>
