<?xml version="1.0" encoding="UTF-8" standalone="no"?>
<!-- Created with Inkscape (http://www.inkscape.org/) -->

<svg
   width="210.09987mm"
   height="209.29884mm"
   viewBox="0 0 210.09987 209.29884"
   version="1.1"
   id="svg1"
   xml:space="preserve"
   inkscape:version="1.4.4 (dcaf3e7, 2026-05-05)"
   sodipodi:docname="logos teams.svg"
   inkscape:export-batch-name="logos teams"
   inkscape:export-batch-path="Desktop/3 LIGA"
   xmlns:inkscape="http://www.inkscape.org/namespaces/inkscape"
   xmlns:sodipodi="http://sodipodi.sourceforge.net/DTD/sodipodi-0.dtd"
   xmlns="http://www.w3.org/2000/svg"
   xmlns:svg="http://www.w3.org/2000/svg"><sodipodi:namedview
     id="namedview1"
     pagecolor="#ffffff"
     bordercolor="#000000"
     borderopacity="0.25"
     inkscape:showpageshadow="2"
     inkscape:pageopacity="0.0"
     inkscape:pagecheckerboard="0"
     inkscape:deskcolor="#d1d1d1"
     inkscape:document-units="mm"
     inkscape:zoom="0.037190382"
     inkscape:cx="-4006.4122"
     inkscape:cy="-8779.1516"
     inkscape:window-width="1920"
     inkscape:window-height="1050"
     inkscape:window-x="0"
     inkscape:window-y="30"
     inkscape:window-maximized="0"
     inkscape:current-layer="layer1"><inkscape:page
       x="0"
       y="0"
       width="210.09987"
       height="209.29884"
       id="page1"
       margin="0"
       bleed="0" /></sodipodi:namedview><defs
     id="defs1"><style
       id="style1-7">
      .cls-1 {
        fill: #fff;
      }
    </style></defs><g
     inkscape:label="Ebene 1"
     inkscape:groupmode="layer"
     id="layer1"
     transform="translate(234.10224,1878.2761)"><path
       style="fill:#000000"
       d="m -142.82921,-1442.6422 c -0.29932,-0.78 -0.54423,-6.6476 -0.54423,-13.0391 v -11.6209 l -4.13063,-0.2651 -4.13063,-0.265 v -1.7392 -1.7392 l 10.36611,-0.2463 10.36611,-0.2463 0.64092,1.037 c 0.3525,0.5704 0.43959,1.5617 0.19353,2.2029 l -0.44739,1.1659 h -4.23174 -4.23175 l -0.24065,12.8158 -0.24065,12.8157 -1.41239,0.271 -1.41239,0.2711 z m 21.0004,0.026 c -2.67247,-1.5054 -4.1525,-3.8088 -4.1525,-6.4626 v -1.7964 h 1.76074 1.76073 l 0.78147,2.0554 c 0.94528,2.4863 2.51297,3.1622 7.33395,3.1622 h 3.66818 l 1.04353,-1.0435 c 0.57394,-0.5739 1.04353,-1.9298 1.04353,-3.013 v -1.9695 l -1.82419,-0.9763 c -1.00331,-0.5369 -4.00878,-1.7279 -6.67882,-2.6465 -2.67005,-0.9186 -5.56673,-2.3147 -6.43707,-3.1023 l -1.58244,-1.4321 v -3.7012 -3.7011 l 2.67554,-2.2513 2.67554,-2.2513 h 4.70239 4.7024 l 2.55452,2.3914 c 1.40499,1.3152 2.80777,3.2738 3.1173,4.3523 l 0.56278,1.9609 -1.48916,0.5714 -1.48915,0.5715 -2.26663,-2.708 c -1.24665,-1.4894 -3.26021,-2.9442 -4.47459,-3.2328 l -2.20796,-0.5248 -2.35748,0.8963 -2.35747,0.8963 v 2.4983 2.4983 l 3.26102,1.3542 c 1.79357,0.7448 4.54884,1.8366 6.12284,2.4263 1.57399,0.5897 3.8241,1.8291 5.00024,2.7542 l 2.13842,1.6821 v 3.3668 3.3669 l -2.05685,2.3912 -2.05686,2.3912 -5.5522,0.2801 -5.5522,0.2801 z m 31.619481,0.1446 c -0.53044,-0.6392 -1.59482,-2.8893 -2.36528,-5.0002 -8.422961,-23.0782 -8.717791,-24.2739 -5.98511,-24.2739 1.57188,0 2.81617,2.5631 6.92809,14.271 l 3.33233,9.4882 4.32027,-11.8796 4.32027,-11.8796 h 1.62251 1.6225 v 1.6708 c 0,2.0015 -8.51536,26.1252 -9.77007,27.6784 -1.14244,1.4141 -2.81547,1.3829 -4.02551,-0.075 z m 32.46648,0.1044 c -0.25035,-0.6524 -0.34699,-7.4316 -0.21477,-15.065 l 0.24041,-13.8787 h 9.13087 9.13087 v 1.7392 1.7392 l -7.17426,0.2525 -7.17425,0.2526 v 4.2763 4.2763 l 6.73945,0.254 6.73945,0.254 0.27788,1.9566 0.27789,1.9566 h -6.97924 -6.97924 l -0.25549,6.2954 -0.2555,6.2954 -1.52444,0.2909 -1.52444,0.2909 z m 26.27688,0.4961 c -0.32882,-0.3289 -0.59785,-7.1852 -0.59785,-15.2363 v -14.6383 h 6.54998 6.54998 l 2.94569,1.2307 c 3.60036,1.5044 4.8249,3.627 4.8249,8.3637 v 3.6215 l -2.53991,2.3726 -2.53992,2.3726 3.06962,5.447 3.06961,5.4469 -0.90605,0.9061 c -1.59719,1.5972 -3.32551,0.085 -6.60323,-5.7757 l -3.20091,-5.7237 h -3.83093 -3.83094 l -0.25713,5.8005 -0.25714,5.8006 -0.92396,0.3048 c -0.50817,0.1676 -1.19299,0.036 -1.52181,-0.293 z m 14.24263,-16.8611 1.68204,-0.9003 v -2.9824 -2.9824 l -1.68204,-0.9002 c -0.92513,-0.4951 -3.86005,-0.9002 -6.52205,-0.9002 h -4.84001 v 4.7828 4.7829 h 4.84001 c 2.662,0 5.59692,-0.4051 6.52205,-0.9002 z m 13.4209297,15.5238 c -0.27376,-1.1079 -0.38557,-7.8842 -0.24847,-15.0584 l 0.24927,-13.0441 h 1.73921 1.73920998 v 14.7714 14.7714 l -1.49073998,0.287 -1.49074,0.2871 z m 16.7516503,0.5376 c -1.30927,-0.7104 -2.9723903,-2.4362 -3.6958303,-3.8352 l -1.31534,-2.5436 v -7.478 -7.4781 l 1.29945,-2.5128 c 0.71469,-1.3821 2.1713903,-3.1236 3.2371103,-3.8701 l 1.93767,-1.3571 h 5.11111 5.1111 l 3.017,3.0169 3.01699,3.017 -0.27773,2.4181 -0.27774,2.418 h -1.30441 -1.3044 l -1.24992,-2.8401 -1.24992,-2.8401 -3.19971,-0.9587 -3.19972,-0.9586 -2.50722,1.2016 -2.50722,1.2017 -1.16216,3.4667 -1.16215,3.4667 0.45407,4.6328 c 0.24974,2.5481 1.07523,5.5808 1.83441,6.7395 l 1.38034,2.1066 h 4.1932 4.19321 l 1.33633,-1.5218 c 0.73498,-0.837 1.60465,-2.4023 1.93259,-3.4784 l 0.59626,-1.9566 h 1.68062 1.68061 v 2.4153 c 0,3.0361 -1.97974,5.9108 -5.22724,7.5901 l -2.51285,1.2995 -3.73901,-0.035 c -2.05646,-0.019 -4.81023,-0.6161 -6.1195,-1.3265 z m 24.96461,0.3036 c -0.25035,-0.6524 -0.34699,-7.4316 -0.21477,-15.065 l 0.24041,-13.8787 h 1.73921 1.73922 l 0.26228,5.05 0.26228,5.05 6.01847,-5.3358 6.01846,-5.3358 1.47365,0.2858 c 2.91401,0.5651 1.95641,2.1596 -4.88368,8.1318 l -6.94933,6.0677 7.52814,7.0137 7.52815,7.0137 -0.63667,1.0301 c -1.20801,1.9546 -3.10678,1.0108 -9.4187,-4.6819 l -6.33345,-5.712 -0.4348,5.4868 -0.4348,5.4869 -1.52444,0.2894 -1.52444,0.2895 z m 26.07527,-0.034 c -0.24324,-0.6339 -0.33407,-7.398 -0.20185,-15.0314 l 0.24041,-13.8787 h 9.13087 9.13087 v 1.7392 1.7392 l -7.17426,0.2525 -7.17425,0.2526 v 4.3129 4.3128 h 6.95685 6.95685 v 1.6462 c 0,2.1739 -1.62818,2.7019 -8.33238,2.7019 h -5.58132 v 4.348 4.348 h 7.45214 7.45213 l -0.27788,1.9567 -0.27788,1.9566 -8.92902,0.248 -8.92902,0.248 z m 26.12595,-0.8076 c -0.27375,-1.1079 -0.38556,-7.8842 -0.24847,-15.0584 l 0.24927,-13.0441 1.73922,-0.2338 1.73921,-0.2337 6.956849,10.669 6.95685,10.669 0.24417,-10.6527 0.24416,-10.6526 h 1.71245 1.71245 v 14.7319 14.732 l -0.9077,0.561 c -1.42622,0.8815 -2.85676,-0.7545 -9.67459,-11.0639 l -6.375029,-9.6398 -0.43481,10.3304 -0.4348,10.3304 -1.49074,0.2849 -1.49074,0.2848 z m 30.411389,0.8412 c -0.25035,-0.6524 -0.347,-7.4316 -0.21477,-15.065 l 0.24041,-13.8787 h 1.73921 1.73921 l 0.2555,6.3046 0.2555,6.3046 h 6.88066 6.88065 l 0.2555,-6.3046 0.2555,-6.3046 h 1.73921 1.73922 v 14.7833 14.7833 h -1.73922 -1.73921 l -0.2555,-6.3047 -0.2555,-6.3046 h -6.88065 -6.88066 l -0.2555,6.2954 -0.2555,6.2954 -1.52444,0.2909 -1.52444,0.2909 z m 28.59618,0.1486 -0.93086,-0.9309 4.7306,-12.3415 c 2.60182,-6.7878 5.09002,-13.248 5.52932,-14.3559 l 0.79872,-2.0143 2.2973,0.2751 2.29729,0.2752 5.56413,14.2696 5.56413,14.2696 -0.84654,0.8466 c -1.40269,1.4027 -3.57356,-0.045 -4.92761,-3.2854 l -1.27682,-3.0559 h -6.50353 -6.50354 l -1.52865,3.1983 c -1.67298,3.5002 -2.83597,4.2774 -4.26394,2.8495 z m 17.08379,-10.6807 c 0,-0.3873 -4.46555,-11.3948 -4.74237,-11.6897 -0.12126,-0.1292 -1.02243,1.8274 -2.0026,4.348 -0.98018,2.5206 -2.05768,5.2678 -2.39446,6.1048 l -0.61232,1.5218 h 4.87588 c 2.68173,0 4.87587,-0.1282 4.87587,-0.2849 z m 18.26173,10.4779 c -1.1957,-0.5975 -2.86429,-2.4505 -3.70796,-4.1179 l -1.53396,-3.0315 0.22955,-10.8701 0.22954,-10.87 h 1.73921 1.73921 l 0.21445,9.5656 c 0.24521,10.9376 0.56029,12.825 2.45779,14.7225 l 1.36522,1.3652 h 3.25011 c 1.78755,0 4.00971,-0.5542 4.93812,-1.2316 l 1.68802,-1.2316 0.4348,-11.5951 0.4348,-11.595 2.0219,-0.2865 2.0219,-0.2864 -0.28268,12.7518 -0.28269,12.7518 -2.83994,2.5354 -2.83994,2.5353 -4.55172,-0.013 c -2.50344,-0.01 -5.53002,-0.5017 -6.72573,-1.0991 z m 27.63949,-0.3488 c -2.55584,-1.6396 -4.67739,-5.6949 -3.75775,-7.1829 1.00679,-1.629 3.08411,-0.9863 4.1134,1.2728 l 1.00004,2.1948 1.89043,0.4745 c 1.03973,0.261 3.37878,0.3494 5.19788,0.1966 l 3.30746,-0.278 0.95323,-1.5218 0.95323,-1.5218 -0.91674,-1.4533 c -0.50421,-0.7994 -3.43713,-2.378 -6.5176,-3.5082 l -5.60086,-2.0549 -1.95661,-2.1927 -1.95662,-2.1928 v -2.5118 -2.5118 l 2.00779,-2.3342 2.00778,-2.3342 4.37025,-0.4199 4.37026,-0.4199 2.79053,1.443 c 4.38341,2.2667 6.04638,8.3162 2.28609,8.3162 h -1.35322 l -0.81733,-2.1497 -0.81732,-2.1497 -2.0997,-0.527 c -1.15484,-0.2899 -3.18366,-0.3986 -4.50849,-0.2417 l -2.40878,0.2853 -0.95286,1.5218 -0.95287,1.5218 0.91674,1.4534 c 0.50421,0.7993 3.43713,2.378 6.5176,3.5082 l 5.60086,2.0548 1.95661,2.1927 1.95661,2.1928 v 2.5118 2.5119 l -2.05685,2.3912 -2.05686,2.3912 -5.5522,0.2934 -5.5522,0.2933 z m 24.06292,0.3677 c -0.24359,-0.6347 -0.33442,-7.2031 -0.20185,-14.5965 l 0.24102,-13.4423 8.34737,-0.2473 8.34736,-0.2474 1.07577,1.2963 c 0.59167,0.7129 0.82332,1.7047 0.51478,2.2039 l -0.56099,0.9077 h -6.90553 -6.90553 v 3.9132 3.9132 h 5.98077 5.98076 l 1.05095,1.2664 c 0.57802,0.6964 0.79851,1.6747 0.48996,2.174 l -0.56099,0.9077 h -6.47072 -6.47073 v 4.3128 4.3129 l 7.17425,0.2526 7.17426,0.2525 v 1.7393 1.7392 l -8.92902,0.248 -8.92902,0.248 z m 25.43275,0.5433 c -0.33539,-0.3354 -0.6098,-6.7639 -0.6098,-14.2855 v -13.6758 l 1.37554,-0.5278 c 0.75654,-0.2903 1.53409,-0.5278 1.72789,-0.5278 0.1938,0 3.29238,4.3997 6.88573,9.7772 l 6.53336,9.7773 v -8.8012 -8.8012 l 1.30441,-1.0825 1.30441,-1.0826 1.30441,1.0826 1.30441,1.0825 v 12.4317 c 0,13.5622 -0.27945,15.1828 -2.61812,15.1828 h -1.56244 l -6.57602,-10.1372 -6.57603,-10.1372 -0.24716,9.9094 -0.24716,9.9094 -1.34681,0.2578 c -0.74075,0.1419 -1.62123,-0.016 -1.95662,-0.3519 z m -64.84611,-50.7836 c -2.08926,-0.4331 -5.53916,-1.6301 -7.66643,-2.6599 l -3.86777,-1.8723 -2.17634,-3.2887 c -1.19699,-1.8088 -2.75024,-5.1855 -3.45167,-7.5037 l -1.27533,-4.2151 0.12443,-10.1002 0.12444,-10.1003 1.53451,-4.5328 1.53452,-4.5328 3.32395,-3.4041 3.32395,-3.404 3.96119,-1.529 3.96119,-1.529 6.96093,0.011 6.96094,0.011 5.05947,2.4754 5.05947,2.4754 2.49751,3.4477 2.49751,3.4477 1.01019,4.514 1.01019,4.514 -0.31475,11.2921 -0.31475,11.2921 -2.06726,4.2088 -2.06726,4.2087 -3.49705,2.5333 c -5.44975,3.9478 -14.93617,5.7562 -22.24578,4.2408 z m 12.56862,-11.6816 c 1.13516,-0.7438 2.68702,-2.5573 3.44856,-4.0299 l 1.38462,-2.6776 -4.6e-4,-10.5758 -4.6e-4,-10.5757 -0.83899,-2.174 c -0.46145,-1.1957 -1.83446,-3.0998 -3.05114,-4.2314 l -2.21213,-2.0573 -3.82327,-0.4309 -3.82327,-0.431 -2.79138,1.4435 c -1.53526,0.7939 -3.55526,2.6963 -4.48889,4.2275 l -1.6975,2.784 -0.003,11.3937 -0.003,11.3937 1.98673,2.9548 1.98673,2.9548 3.01351,1.078 c 3.55517,1.2716 8.03093,0.8425 10.91385,-1.0464 z m -350.09045,-12.1664 v -23.0843 h -7.65253 -7.65254 l -1.04353,-1.0435 -1.04352,-1.0435 v -3.6328 -3.6329 l 1.1947,-0.9915 1.1947,-0.9915 21.63247,0.2328 21.63246,0.2329 v 5.2176 5.2176 l -8.02948,0.2499 -8.02949,0.2498 -0.23177,22.7948 -0.23178,22.7947 -5.86984,0.2571 -5.86985,0.2572 z m 36.93433,21.9517 c -0.23992,-0.6253 -0.33269,-13.4599 -0.20614,-28.5214 l 0.23008,-27.3846 h 15.218121 15.21811 l 4.15427,2.0456 c 5.02552,2.4747 7.97761,6.141 9.35402,11.6171 l 1.02978,4.0971 -1.06079,4.4219 -1.0608,4.4219 -2.73682,2.7859 c -1.50525,1.5322 -3.48806,3.2021 -4.40623,3.7107 l -1.66941,0.9247 5.80705,10.4185 c 3.19387,5.7301 5.80704,10.8903 5.80704,11.4671 v 1.0487 h -6.04377 -6.04377 l -5.47851,-10.4211 -5.47852,-10.4212 -5.40744,-0.014 -5.40745,-0.014 -0.24499,10.2179 -0.245,10.2179 -5.4463,0.2592 -5.446301,0.2592 z m 29.630091,-32.3871 2.13449,-2.1345 v -3.3245 -3.3244 l -1.33005,-1.899 -1.33005,-1.8989 -3.23538,-0.8985 c -1.77947,-0.4942 -5.68116,-0.9007 -8.67043,-0.9034 h -5.43504 v 8.2613 8.2613 h 7.86599 7.86598 z m 25.13908,32.3453 c -0.23111,-0.6023 -0.31665,-13.4181 -0.19011,-28.4796 l 0.23009,-27.3846 h 5.65244 5.65244 l 0.22928,28.4796 0.22929,28.4796 h -5.69162 -5.69162 z m 19.20122,0.2738 c -0.66799,-1.0809 18.37489,-52.8733 20.2409697,-55.051 l 1.30404,-1.5218 5.30026,0.013 c 2.91513998,0.01 5.76481,0.3087 6.33258,0.6697 1.02813,0.6538 21.1426403,53.6554 21.1426403,55.7107 v 1.0798 l -5.78679,-0.2572 -5.78679,-0.2571 -1.94246,-5.2177 -1.9424603,-5.2176 -11.73529,-0.2413 -11.7352897,-0.2413 -2.18044,5.459 -2.18044,5.4589 -5.23707,0.2569 -5.23706,0.2569 z m 35.1891497,-20.8485 c 0,-1.1889 -7.9949,-22.8017 -8.31595,-22.4806 -0.44874,0.4487 -8.2065697,21.7755 -8.2065697,22.5604 v 0.7193 h 8.2612597 8.26126 z m 32.5915503,19.7131 c -0.26765,-1.0762 -0.37294,-11.4465 -0.23397,-23.0453 l 0.25266,-21.0886 -7.39165,-0.013 c -4.06541,-0.01 -7.90337,-0.3371 -8.5288,-0.7338 l -1.13713,-0.7212 0.26753,-4.7005 0.26753,-4.7005 20.87055,-0.2451 c 11.47881,-0.1347 21.7702,-0.025 22.86975,0.2447 l 1.9992,0.4897 -0.25998,4.973 -0.25999,4.9729 -8.47866,0.2489 -8.47866,0.2489 v 23.0131 23.0131 h -5.63588 -5.63587 z m 36.8752,-6.9198 c -0.18317,-4.9228 -0.13738,-17.7553 0.10176,-28.5167 l 0.43481,-19.5661 4.63602,-0.2653 4.63602,-0.2653 1.23382,1.024 1.23382,1.0239 v 10.2151 10.215 l 3.26103,0.539 c 1.79356,0.2964 6.88076,0.5433 11.304879,0.5486 l 8.04386,0.01 v -11.2883 -11.2883 l 2.02636,-0.5086 c 1.11451,-0.2797 3.75594,-0.385 5.86985,-0.234 l 3.84347,0.2747 0.22934,28.5196 0.22933,28.5196 -5.88177,-0.2574 -5.88178,-0.2574 -0.24264,-11.5223 -0.24264,-11.5223 h -11.254409 -11.2544 l -0.24264,11.5223 -0.24264,11.5223 -5.75421,0.2545 -5.7542,0.2545 z m 59.814729,8.2967 c -0.31885,-0.3189 -0.57974,-13.0294 -0.57974,-28.2457 v -27.6659 l 2.02637,-0.5086 c 1.1145,-0.2797 3.75593,-0.385 5.86985,-0.234 l 3.84347,0.2747 0.23161,23.2619 0.2316,23.262 h 12.52397 c 6.88818,0 13.14295,0.2375 13.8995,0.5279 l 1.37553,0.5278 v 4.6898 4.6898 h -19.42121 c -10.68167,0 -19.68209,-0.2609 -20.00095,-0.5797 z m 102.65033,0.037 c -0.33908,-0.3391 -0.61651,-12.83 -0.61651,-27.7577 v -27.1412 l 1.23684,-1.0265 1.23685,-1.0264 4.18618,0.2678 4.18618,0.2678 11.31689,17.4495 11.3169,17.4495 0.23671,-16.5141 0.23671,-16.514 0.98935,-1.1921 0.98935,-1.1921 4.86118,0.2566 4.86119,0.2567 v 28.2622 28.2622 l -5.24702,0.254 -5.24703,0.254 -11.27549,-17.1972 -11.2755,-17.1971 -0.43481,16.9431 -0.4348,16.9432 -5.25333,0.2542 c -2.88932,0.1398 -5.53075,-0.023 -5.86984,-0.3624 z m -355.16639,-68.1556 c -5.57379,-1.9817 -10.76032,-5.525 -15.90244,-10.8641 -2.15227,-2.2347 -5.47852,-4.8887 -7.39165,-5.8977 l -3.47842,-1.8347 -6.95686,-0.5301 -6.95685,-0.5301 2.60882,-1.1577 c 1.43485,-0.6367 4.66988,-1.3502 7.18895,-1.5856 l 4.58012,-0.4279 3.96701,1.1107 3.967,1.1107 5.80138,4.2548 c 7.2918,5.3479 14.73887,8.9192 21.45429,10.2884 l 5.21763,1.0638 6.956861,-0.5484 c 3.82626,-0.3016 9.10912,-1.1597 11.73968,-1.9069 2.63056,-0.7472 5.56548,-1.557 6.52205,-1.7994 l 1.73921,-0.4409 -1.73921,1.4737 c -5.90064,5 -20.6929,9.9965 -29.299491,9.8968 l -5.48477,-0.064 z m 160.706031,0.366 c -7.24916,-2.6375 -12.48393,-7.1089 -15.70014,-13.4104 l -1.10959,-2.174 3.80025,3.6542 c 2.09013,2.0098 5.75685,4.5275 8.14827,5.5949 l 4.34803,1.9406 5.71249,0.019 5.71248,0.019 4.9178,-2.406 4.9178,-2.4061 3.01882,-3.5268 c 12.33555,-14.4113 5.03952,-35.6823 -13.84411,-40.3614 l -4.34803,-1.0774 4.78283,-0.073 4.78284,-0.073 5.21764,2.477 5.21763,2.477 3.57843,3.8976 3.57842,3.8975 1.94238,5.147 1.94238,5.147 -0.37952,6.0873 -0.37953,6.0872 -1.81072,4.084 -1.81072,4.084 -3.9968,3.9968 -3.9968,3.9968 -4.11659,1.8091 -4.1166,1.8091 -6.08724,0.3392 -6.08724,0.3392 z m 92.612809,-0.7226 -5.13954,-2.1716 -3.4108,-3.3015 c -2.99247,-2.8966 -5.87627,-7.0562 -5.87627,-8.4759 0,-0.2629 1.60475,1.1267 3.56611,3.0881 1.96136,1.9613 5.38544,4.3812 7.60906,5.3774 l 4.04294,1.8114 h 5.65244 5.65244 l 4.01968,-1.8011 c 2.21082,-0.9905 5.58811,-3.218 7.50509,-4.9499 l 3.48542,-3.1489 1.99418,-4.5581 1.99417,-4.5582 -0.0281,-5.6524 -0.0281,-5.6525 -1.98332,-4.5982 -1.98333,-4.5982 -3.66909,-3.2296 c -3.6987,-3.2558 -10.51651,-6.2828 -14.13288,-6.2748 -1.07614,0 -1.95661,-0.4152 -1.95661,-0.9279 v -0.9322 l 5.00024,0.583 c 6.09939,0.711 12.69501,3.552 16.97913,7.3136 l 3.20348,2.8126 2.84409,5.7795 2.84408,5.7794 -0.0574,6.5381 -0.0574,6.538 -1.9883,4.5235 -1.98831,4.5236 -4.57842,4.33 c -2.51814,2.3816 -6.0978,4.9772 -7.95481,5.7682 l -3.37638,1.438 -6.52205,0.3991 -6.52205,0.3991 z m 58.18552,1.495 c 0.47828,-0.471 5.76114,-5.3134 11.73969,-10.7608 22.2593,-20.2817 32.26823,-31.3662 39.32909,-43.5556 l 2.84682,-4.9146 7.22423,-1.9198 c 3.97333,-1.056 7.39444,-1.7497 7.60245,-1.5417 1.38878,1.3888 -13.51218,22.1522 -21.5063,29.9675 -8.84997,8.6519 -39.82176,30.6763 -46.36637,32.9715 l -1.73922,0.61 z m 51.60021,-10.6148 c 18.23266,-21.5418 22.75113,-28.2173 22.75113,-33.6122 v -3.1727 l -2.70078,-2.5229 -2.70078,-2.5229 h 7.09854 c 7.80203,0 14.2275,1.2752 15.76596,3.1289 l 0.99301,1.1965 -0.55403,2.2075 -0.55403,2.2074 -8.60691,8.6069 c -9.0597,9.0597 -39.12434,35.6906 -40.29829,35.6958 -0.37746,0 3.58532,-5.0439 8.80618,-11.2123 z m -293.964159,1.1726 -2.35259,-1.2771 -0.83834,-3.0361 -0.83833,-3.0362 0.88656,-3.2109 0.88655,-3.2108 2.54531,-2.3777 c 1.39992,-1.3077 3.68012,-2.6269 5.06712,-2.9316 l 2.52181,-0.5538 2.6389,1.3646 2.6389,1.3646 1.0015,3.3427 1.00149,3.3427 -1.77855,4.0207 -1.77855,4.0207 -2.88538,1.7592 c -3.38972,2.0666 -5.49463,2.1678 -8.7164,0.419 z m -57.650241,-5.6294 c -4.55506,-0.9143 -12.70215,-3.9928 -14.83533,-5.6058 l -1.6872,-1.2758 3.03789,0.8416 c 1.67083,0.4628 6.39351,0.8415 10.49484,0.8415 h 7.45696 l 4.723271,-1.3892 c 7.046,-2.0723 16.75683,-7.4286 26.02862,-14.3567 4.5437,-3.3952 11.18254,-7.5858 14.75299,-9.3126 l 6.49173,-3.1397 8.01245,-0.3504 8.01244,-0.3504 6.80118,1.4951 c 9.44554,2.0765 31.8903897,11.7355 30.5002397,13.1256 -0.16185,0.1619 -3.21242002,-0.6323 -6.77903,-1.7647 -3.56661,-1.1325 -9.5009997,-2.6819 -13.1875397,-3.4433 l -6.70278,-1.3842 h -8.59452 -8.59452 l -3.97541,1.1964 c -2.18647,0.658 -9.32443,4.6113 -15.86212,8.785 -23.73325,15.1515 -33.60047,18.5954 -46.094161,16.0876 z m 324.43542,-52.9839 c 2.25717,-4.281 6.09922,-10.4272 8.53789,-13.6583 l 4.43395,-5.8747 5.40895,-3.6066 c 2.97492,-1.9836 7.67079,-4.3388 10.43527,-5.2338 l 5.02634,-1.6271 5.65244,0.04 c 10.46636,0.073 14.03894,2.156 11.32714,6.6038 -2.11632,3.4712 -2.24598,6.1767 -0.3706,7.7331 l 1.39088,1.1544 4.66486,-2.4424 4.66485,-2.4424 7.45753,-6.9773 c 8.65919,-8.1016 9.40147,-8.214 4.98921,-0.7555 l -3.23004,5.4601 -6.96825,6.6772 -6.96826,6.6772 -6.95685,3.6011 c -6.80432,3.5222 -16.66113,6.9541 -17.51642,6.0988 -0.23657,-0.2366 -0.0119,-2.6926 0.49929,-5.4578 0.51118,-2.7653 0.92941,-6.2821 0.92941,-7.8153 v -2.7876 l -1.6037,-1.9804 -1.6037,-1.9805 -2.52693,4e-4 c -5.92446,10e-4 -18.98722,10.4375 -26.92717,21.5134 -5.07909,7.0852 -5.3866,5.8819 -0.74609,-2.9193 z m -80.94564,5.6336 c -10.7971,-1.9926 -18.12815,-5.5734 -32.03406,-15.6471 -2.31365,-1.6761 -5.794309,-3.4749 -7.734779,-3.9974 l -3.52814,-0.9501 -5.58547,0.9727 c -9.48577,1.6519 -28.93191,10.4028 -31.17228,14.0278 -0.62084,1.0045 -2.12307,1.0258 -2.12307,0.03 0,-1.523 15.18119,-16.8309 20.34127,-20.511 l 5.31211,-3.7886 5.65244,-1.9043 5.65245,-1.9044 5.65244,0.3192 5.652439,0.3192 3.47842,1.7969 3.47843,1.7969 5.21764,6.6423 c 7.481,9.5237 19.11185,17.7009 30.62732,21.533 3.00374,0.9996 5.46134,1.9812 5.46134,2.1813 0,0.7199 -8.38355,0.1844 -14.3485,-0.9164 z m -22.82852,-31.1125 c -1.00449,-1.0761 -2.08821,-3.012 -2.40829,-4.3019 l -0.58194,-2.3452 1.00538,-3.0463 1.00538,-3.0464 3.02079,-2.6523 3.02078,-2.6522 h 2.63573 c 3.77598,0 5.96553,1.4447 7.40281,4.8846 l 1.25574,3.0054 -0.90669,3.3672 -0.90669,3.3672 -3.06175,2.6883 -3.06176,2.6882 h -3.29658 -3.29658 z m 154.01472,-6.6992 c -4.47347,-1.8843 -5.93222,-7.9633 -3.26149,-13.5914 l 1.39699,-2.944 2.83629,-1.7529 c 3.21507,-1.987 5.50021,-2.1913 8.61854,-0.7705 l 2.15616,0.9824 1.04068,2.5124 1.04068,2.5125 -0.48296,3.6008 -0.48297,3.6007 -2.89036,2.8856 -2.89035,2.8856 -2.60882,0.4319 c -1.43485,0.2375 -3.44742,0.079 -4.47239,-0.3531 z"
       id="path215" /><path
       style="fill:#000000;stroke-width:1.48723"
       d="m -67.109481,-1669.1387 c -2.222622,-0.4015 -4.139617,-1.6164 -5.082283,-3.221 l -0.800918,-1.3633 v -6.2959 -6.2961 l 0.730513,-1.4694 0.730512,-1.4693 1.356607,-0.8385 1.356607,-0.8384 3.114543,-0.3977 3.114528,-0.3975 2.841249,0.4216 2.841235,0.4218 1.007524,0.7328 c 0.554127,0.403 1.405938,1.5125 1.892887,2.4655 l 0.885364,1.7326 v 5.7358 5.7357 l -0.885364,1.7556 -0.885363,1.7559 -1.777969,0.8831 -1.777969,0.8832 -3.534239,0.1757 c -1.943825,0.097 -4.251188,0.046 -5.127464,-0.1116 z m 7.745004,-5.5353 0.73441,-0.907 v -4.8469 -4.8471 l -0.602894,-0.6029 c -0.794687,-0.7946 -2.944091,-1.1734 -5.210229,-0.9179 l -1.828996,0.2061 -0.704144,0.8696 -0.704144,0.8696 v 4.5075 4.5075 l 0.419221,0.7833 c 0.621707,1.1617 1.848449,1.5314 4.650435,1.4016 l 2.511932,-0.116 z m -167.682033,-3.1807 v -8.657 h -2.95123 -2.95121 v -2.361 -2.361 h 8.65691 8.65692 v 2.361 2.361 h -2.95122 -2.95123 v 8.657 8.6569 h -2.75447 -2.75447 z m 18.10083,-2.361 v -11.018 l 7.18131,6e-4 7.18131,8e-4 1.34927,0.6879 c 0.74209,0.3784 1.71344,1.1845 2.15855,1.7914 l 0.8093,1.1034 0.006,3.2628 0.006,3.2629 -0.55589,1.0397 c -0.30573,0.5718 -1.04725,1.2571 -1.64783,1.5231 l -1.09196,0.4833 1.15896,0.4872 1.15897,0.4874 0.3905,1.0271 c 0.21477,0.5648 0.3905,2.3435 0.3905,3.9527 v 2.9256 h -2.75449 -2.75446 v -2.6759 -2.6756 l -0.4722,-0.4722 -0.4722,-0.4722 h -3.26602 -3.26602 v 3.1478 3.1481 h -2.75448 -2.75447 z m 12.35987,-0.5158 0.70541,-0.5159 0.20147,-1.7875 0.20149,-1.7875 -0.45203,-0.8447 -0.45201,-0.8446 h -3.52763 -3.52762 v 3.148 3.148 h 3.07275 3.07277 z m 14.00438,0.5158 v -11.018 h 2.55774 2.55773 v 11.018 11.0179 h -2.55773 -2.55774 z m 11.90032,10.5442 c 0.10649,-0.2805 1.67797,-5.2461 3.49218,-11.0345 l 3.29859,-10.5244 h 3.9588 3.9588 l 3.43122,10.7228 c 1.88716,5.8976 3.42582,10.8556 3.41924,11.018 -0.006,0.1622 -1.2351,0.295 -2.73006,0.295 h -2.71811 l -0.50424,-1.9674 -0.50425,-1.9675 h -4.2312 -4.2312 l -0.52664,1.869 -0.52665,1.8692 -2.89004,0.116 -2.89005,0.116 z m 13.67696,-7.7248 c 0,-0.7038 -2.87196,-9.2891 -2.98347,-8.9187 -0.0651,0.2164 -0.73203,2.3857 -1.48204,4.8204 l -1.36365,4.4268 h 2.91459 2.91457 z m 16.92034,-0.4584 v -8.657 h -2.95122 -2.95123 v -2.361 -2.361 h 8.65693 8.65692 v 2.361 2.361 h -2.95122 -2.95123 v 8.657 8.6569 h -2.75447 -2.75448 z m 18.10084,-2.361 v -11.018 h 2.75447 2.75447 v 4.3286 4.3284 h 4.32846 4.32847 v -4.3284 -4.3286 h 2.55772 2.55773 v 11.018 11.0179 h -2.54485 -2.54483 l -0.11124,-4.4269 -0.11125,-4.4268 -4.23008,-0.1115 -4.2301,-0.1116 v 4.5385 4.5386 h -2.75447 -2.75447 z m 27.544739,0 v -11.018 h 2.75447 2.754484 v 8.6448 8.6449 l 4.820322,0.11 4.820336,0.1101 0.117938,2.2625 0.118086,2.2627 h -7.692818 -7.692818 z m 48.971238,10.5198 c -0.105148,-0.2738 -0.143816,-5.1876 -0.08596,-10.9196 l 0.105147,-10.4214 h 4.440632 4.440646 l 2.579304,5.7057 c 1.418624,3.1381 3.050339,6.884 3.626046,8.3241 l 1.046713,2.6184 -0.137569,-8.4225 -0.137569,-8.4225 h 2.793614 2.793613 v 11.018 11.0179 h -4.460756 -4.460754 l -2.0964,-4.6237 c -1.153035,-2.5429 -2.770249,-6.2172 -3.593833,-8.165 l -1.497417,-3.5414 -0.0119,8.165 -0.0119,8.1651 h -2.570068 -2.570083 z m -185.219367,-29.8469 c -0.59516,-0.2274 -1.08211,-0.5948 -1.08211,-0.8167 v -0.4033 l 1.08211,0.3122 c 0.59516,0.1717 1.58376,0.3041 2.19685,0.2943 l 1.11474,-0.018 0.83332,-0.8333 0.83333,-0.8333 -0.38222,-1.0905 -0.38222,-1.0906 -1.82477,-0.9884 c -1.00361,-0.5436 -2.1952,-1.3237 -2.64795,-1.7334 l -0.82319,-0.745 v -1.2476 -1.2476 l 0.96785,-0.9093 0.96784,-0.9093 h 1.62055 1.62053 l 0.62192,0.6219 0.6219,0.622 -2.12819,-0.2186 -2.12816,-0.2185 -0.76039,0.8427 -0.76039,0.8426 0.37503,1.0702 0.37503,1.0702 1.82478,0.9885 c 1.00361,0.5435 2.19519,1.3236 2.64795,1.7333 l 0.82318,0.745 v 1.0976 1.0975 l -0.88536,1.0189 -0.88536,1.0191 -1.37724,0.1704 c -0.75749,0.094 -1.8642,-0.015 -2.45936,-0.2428 z m 34.06842,-0.1339 c -0.68633,-0.2986 -1.4389,-0.8998 -1.67236,-1.336 l -0.42447,-0.7931 v -4.9446 -4.9446 h 0.39349 0.39349 v 4.5068 4.5066 l 0.44775,0.9827 0.44773,0.9826 1.20139,0.4188 1.20137,0.4188 1.24414,-0.4106 1.24413,-0.4106 0.45146,-0.9908 0.45148,-0.9909 v -4.5066 -4.5068 h 0.39349 0.39351 v 4.7414 4.7416 l -0.5783,1.1183 -0.57828,1.1182 -1.25117,0.4362 c -1.59327,0.5555 -2.21855,0.5326 -3.75885,-0.1368 z m 57.92777,0.3038 c -1.45298,-0.4017 -2.62015,-1.4258 -3.42682,-3.007 l -0.80736,-1.5825 0.17514,-2.1119 0.17513,-2.1119 0.77759,-1.0415 c 0.42767,-0.5727 1.245,-1.3904 1.81632,-1.8169 l 1.03876,-0.7756 1.8462,0.028 1.84622,0.028 1.02568,0.7644 c 0.56412,0.4206 1.37352,1.3586 1.79863,2.0847 l 0.77294,1.32 v 1.9995 1.9996 l -0.77294,1.32 c -1.3752,2.3487 -3.95206,3.5428 -6.26549,2.9034 z m 3.1356,-1.0838 1.35598,-0.5665 0.79414,-1.3025 0.79413,-1.3026 0.001,-1.8886 0.002,-1.8888 -0.588,-1.137 c -0.3234,-0.6253 -0.98256,-1.4134 -1.46479,-1.7512 l -0.8768,-0.6141 h -1.72252 -1.72253 l -1.30686,1.3069 -1.30684,1.3068 -0.27871,1.4856 -0.27869,1.4856 0.47407,1.5823 c 0.26074,0.8703 0.91805,1.9937 1.46068,2.4966 0.85401,0.7915 1.37581,1.0177 3.00004,1.3005 0.16928,0.03 0.91795,-0.2013 1.66375,-0.513 z m 55.027356,0.9628 c -2.021488,-0.8158 -1.489506,-1.4759 0.601748,-0.747 l 1.251326,0.4362 1.17338,-0.4861 1.17338,-0.486 0.249677,-0.9948 0.249691,-0.9948 -0.386353,-0.6278 c -0.212495,-0.3452 -1.255936,-1.1047 -2.318756,-1.6877 -5.091042,-2.7929 -3.764209,-8.0455 1.65438,-6.5494 l 1.328335,0.3669 v 0.5855 0.5856 l -0.76112,-0.4073 c -0.418625,-0.2241 -1.388448,-0.4074 -2.15516,-0.4074 h -1.394041 l -0.655125,0.9999 -0.655139,0.9999 0.41345,0.9073 0.413465,0.9075 1.81039,0.851 c 0.995716,0.4681 2.162835,1.2033 2.593596,1.6342 l 0.783176,0.7832 v 1.2063 c 0,2.703 -2.627014,4.2316 -5.3703,3.1248 z m -141.403846,-6.102 v -6.0991 h 0.39349 0.39351 v 3.2252 3.2251 l 1.40873,-1.3561 c 0.77482,-0.7457 2.02942,-2.1971 2.78799,-3.2251 1.26877,-1.7193 2.09921,-2.3343 2.09921,-1.5543 0,0.1732 -0.88185,1.4092 -1.95968,2.7468 l -1.95969,2.4319 1.7095,2.467 c 0.94022,1.357 1.91684,2.8656 2.17027,3.3526 l 0.46079,0.8853 -0.50572,-0.015 c -0.27814,0 -1.0057,-0.8453 -1.6168,-1.869 -0.6111,-1.0238 -1.53159,-2.384 -2.04555,-3.0228 l -0.93446,-1.1615 -0.8073,0.7307 -0.80729,0.7305 v 2.3 2.3 h -0.39351 -0.39349 z m 9.44391,0 v -6.0991 h 0.59025 0.59024 v 6.0991 6.0993 h -0.59024 -0.59025 z m 3.93496,5.7221 c 0,-0.2073 1.38659,-2.7305 3.08132,-5.6073 l 3.08132,-5.2301 -3.08132,-0.1145 -3.08132,-0.1145 v -0.3776 -0.3776 h 3.78032 3.78031 l -0.19106,0.4918 c -0.10515,0.2705 -1.54439,2.7939 -3.19844,5.6073 l -3.00737,5.1155 3.15635,0.1145 3.15633,0.1145 v 0.3776 0.3776 h -3.73821 -3.73823 z m 21.64231,-5.7548 v -6.132 l 0.44814,0.1493 c 0.24648,0.082 1.97294,2.4974 3.83659,5.3671 l 3.38845,5.2178 0.10946,-5.3342 0.10946,-5.3344 h 0.38238 0.3824 v 6.128 6.1281 l -0.59436,-0.1279 c -0.3269,-0.07 -2.09329,-2.4291 -3.92531,-5.2426 l -3.33095,-5.1155 -0.009,5.2139 -0.0104,5.2138 h -0.39349 -0.39349 z m 12.19839,0.033 v -6.0991 h 2.95123 2.95122 v 0.3935 0.3935 h -2.55773 -2.55772 v 2.5578 2.5577 h 2.36098 2.36098 v 0.3934 0.3935 h -2.36098 -2.36098 v 2.7545 2.7545 h -0.39351 -0.39349 z m 10.6244,0.3936 v -5.7057 h -1.96748 -1.96747 v -0.3935 -0.3935 h 4.52521 4.52519 v 0.3935 0.3935 h -1.96747 -1.96749 v 5.7057 5.7057 h -0.59023 -0.59026 z m 12.59189,-0.3936 v -6.0991 h 0.39349 0.3935 v 3.2252 3.2251 l 1.40874,-1.3561 c 0.77481,-0.7457 2.0294,-2.1971 2.788,-3.2251 1.26877,-1.7193 2.09921,-2.3343 2.09921,-1.5543 0,0.1732 -0.88187,1.4092 -1.9597,2.7468 l -1.95968,2.4319 1.7095,2.467 c 0.94021,1.357 1.91685,2.8656 2.17027,3.3526 l 0.46079,0.8853 -0.50572,-0.015 c -0.27814,0 -1.00571,-0.8453 -1.6168,-1.869 -0.6111,-1.0238 -1.53159,-2.384 -2.04555,-3.0228 l -0.93445,-1.1615 -0.8073,0.7307 -0.80731,0.7305 v 2.3 2.3 h -0.3935 -0.39349 z m 22.82279,0 v -6.0991 h 2.33078 2.33079 l 1.21068,1.0188 1.21068,1.0187 v 1.361 1.3611 l -1.04119,0.9649 c -0.57266,0.5306 -1.28096,0.9649 -1.574,0.9649 -0.77291,0 -0.6997,0.191 1.07646,2.8064 0.88509,1.3034 1.48961,2.4889 1.34337,2.6345 -0.2865,0.2854 -0.86144,-0.365 -2.84613,-3.2196 l -1.27075,-1.8278 h -0.7951 -0.7951 v 2.5578 2.5577 h -0.59024 -0.59025 z m 4.27804,-0.2381 c 2.1571,-0.7519 2.61606,-2.5442 1.05204,-4.1082 l -0.96585,-0.9658 h -1.59187 -1.59187 v 2.7545 2.7544 h 0.92502 c 0.50875,0 1.4864,-0.1957 2.17253,-0.4349 z m 5.55936,0.2093 v -6.128 l 0.59437,0.1279 c 0.3269,0.07 2.09328,2.4292 3.92531,5.2428 l 3.33093,5.1155 0.0104,-5.214 0.009,-5.2138 h 0.39349 0.39351 v 6.132 6.132 l -0.44297,-0.1472 c -0.24364,-0.082 -1.92584,-2.422 -3.73823,-5.2017 l -3.29524,-5.0539 v 5.1688 5.1689 h -0.59024 -0.59025 z m 13.81041,3.6009 c -1.46888,-4.7558 -2.32248,-9.6712 -1.67946,-9.6712 0.17933,0 0.71058,1.8326 1.18056,4.0725 0.46998,2.2397 1.07805,4.7181 1.35126,5.5072 l 0.49675,1.4347 1.53659,-5.5072 1.5366,-5.5072 h 0.47427 0.474276 l 1.500481,5.3177 c 0.825264,2.9247 1.626807,5.1824 1.781226,5.0171 0.325406,-0.3485 1.793421,-6.2063 2.170895,-8.6624 0.141287,-0.9199 0.431847,-1.6724 0.645548,-1.6724 h 0.388538 l -0.274379,2.196 c -0.150909,1.208 -0.748716,3.9063 -1.328468,5.9963 l -1.054089,3.8003 -0.629173,0.1204 -0.629173,0.122 -1.51235,-5.3598 -1.512362,-5.3597 -1.10522,3.8659 c -0.60788,2.1263 -1.28702,4.5299 -1.50921,5.3415 l -0.404,1.4757 h -0.55925 -0.55928 z m 14.914834,-3.5721 v -6.0991 h 2.951215 2.95123 v 0.3935 0.3935 h -2.557724 -2.557738 v 2.361 2.361 h 2.360978 2.360978 v 0.3935 0.3934 h -2.360978 -2.360978 v 2.5577 2.5578 h 2.557738 2.557724 v 0.3935 0.3935 h -2.95123 -2.951215 z m 20.068314,0.3936 v -5.7057 h -1.944256 -1.944271 l -0.243192,-0.3935 -0.243192,-0.3935 h 4.548426 4.548441 v 0.3935 0.3935 h -1.967486 -1.967487 v 5.7057 5.7057 h -0.393492 -0.393491 z m 7.082935,-0.3936 v -6.0991 h 0.393491 0.393491 v 2.7545 2.7545 h 3.344722 3.344721 v -2.7545 -2.7545 h 0.393492 0.393506 v 6.0991 6.0993 h -0.393506 -0.393492 v -2.9513 -2.9512 h -3.344721 -3.344722 v 2.9512 2.9513 h -0.393491 -0.393491 z m 11.80489,0 v -6.0991 h 3.147961 3.147976 v 0.3935 0.3935 h -2.557724 -2.557724 v 2.361 2.361 h 2.360979 2.360978 v 0.3935 0.3934 h -2.360978 -2.360979 v 2.5577 2.5578 h 2.557724 2.557724 v 0.3935 0.3935 h -3.147976 -3.147961 z m 9.443913,0 v -6.0991 h 0.393491 0.393492 v 6.0991 6.0993 h -0.393492 -0.393491 z m 4.22708,4.4269 c 0.476985,-6.8664 1.108255,-10.526 1.8157,-10.526 h 0.480792 l 1.485803,4.2301 c 0.817173,2.3265 1.706359,4.7556 1.975964,5.3979 l 0.490176,1.1678 1.896694,-5.3979 1.896695,-5.3979 h 0.520888 0.520902 l 0.220943,1.2789 c 0.57123,3.3064 0.980323,6.9745 0.987417,8.8536 l 0.0074,2.0659 h -0.393506 c -0.216422,0 -0.393492,-0.5248 -0.393492,-1.1664 0,-2.314 -0.909144,-9.0988 -1.177871,-8.7902 -0.151281,0.1738 -1.046847,2.4851 -1.990152,5.1362 l -1.715119,4.8204 h -0.467109 -0.46711 l -1.911656,-5.3787 -1.911641,-5.3787 -0.462216,3.3128 c -0.254213,1.8221 -0.475542,4.2425 -0.491857,5.3787 l -0.0296,2.0659 h -0.502227 -0.502268 z m -196.484076,-23.0107 c -0.37706,-2.5145 0.0764,-12.9703 0.82027,-18.9142 6.75296,-53.9591 43.66263,-102.1496 102.37746,-133.6676 l 2.82214,-1.5149 4.45754,2.4893 c 59.696298,33.3382 99.074929,92.5663 99.092077,149.0409 l 0.0013,4.4269 H -129.0418 -233.68774 Z m 207.024033,-5.1243 c -2.082435,-36.5454 -15.083133,-67.8477 -40.481131,-97.4681 -15.298632,-17.842 -40.691872,-38.3469 -59.151152,-47.7641 l -1.56599,-0.7989 -6.66006,3.8256 c -13.13377,7.5444 -23.28217,14.4749 -34.07365,23.2698 l -6.03357,4.9172 -7.9103,7.8713 c -27.89275,27.7558 -43.8435,59.1646 -47.95978,94.4383 l -0.59666,5.1131 v 5.6097 5.6098 h 102.34788 102.347876 z m -121.381773,0.3936 c 1.36649,-2.1537 2.51324,-5.6295 2.89696,-8.7808 l 0.26663,-2.1896 -0.41842,-2.7291 -0.41842,-2.7291 -1.57512,-3.2216 -1.57513,-3.2218 -2.30413,-2.3042 -2.30412,-2.304 -2.3126,-1.2244 c -1.27193,-0.6734 -3.27436,-1.507 -4.44987,-1.8522 l -2.13727,-0.6278 h -3.39863 -3.39862 l -2.13729,0.6226 c -1.17549,0.3425 -3.24397,1.2244 -4.59662,1.96 -2.96489,1.6123 -3.11263,1.2841 -0.51545,-1.1453 2.61957,-2.4502 5.1246,-3.9867 8.24429,-5.0563 l 2.60045,-0.8917 h 3.93496 3.93496 l 2.63266,0.9024 c 8.09436,2.7744 14.48443,10.9994 14.48443,18.6438 0,0.8202 0.13281,1.4896 0.29512,1.4876 0.88891,-0.015 4.54021,-2.562 5.93454,-4.1461 l 1.61403,-1.8337 0.8423,-2.2221 0.84233,-2.222 0.009,-3.066 0.009,-3.0659 -1.44,-2.9136 -1.44001,-2.9137 -1.64669,-1.4096 c -1.83734,-1.5726 -5.32773,-3.3549 -6.57038,-3.3549 -0.44624,0 -0.81135,-0.2027 -0.81135,-0.4506 v -0.4505 l 2.77038,0.2323 2.7704,0.2322 2.24668,1.0244 2.24669,1.0244 2.0378,2.0057 2.0378,2.0055 1.08616,2.4022 1.08614,2.4022 0.0214,3.3446 0.0214,3.3448 -1.2465,2.6367 -1.24649,2.6367 -1.7266,1.7265 -1.7266,1.7267 -2.2262,1.0531 c -1.22443,0.5793 -3.01156,1.1608 -3.97143,1.2924 l -1.74521,0.2392 -0.26054,1.7373 c -0.65284,4.3536 -2.97365,8.8488 -6.16982,11.9505 -2.14608,2.0827 -2.54394,1.9713 -1.09814,-0.3072 z m 53.995635,0.3935 c 2.165005,-3.5252 3.033384,-6.6525 3.036359,-10.9353 l 0.0015,-3.1637 -0.603191,-2.3157 c -0.331757,-1.2738 -1.081291,-3.2145 -1.665639,-4.3128 l -1.062432,-1.9969 -2.761207,-2.7612 -2.761205,-2.7612 -1.99694,-1.0625 c -1.09832,-0.5843 -3.03906,-1.3339 -4.31276,-1.6657 l -2.31582,-0.6031 h -3.2206 -3.2206 l -2.50079,0.7865 c -1.37545,0.4326 -3.43044,1.3025 -4.56666,1.9331 -1.13621,0.6306 -2.06585,1.004 -2.06585,0.8298 0,-0.6253 4.87486,-4.8144 6.54908,-5.6278 l 1.70948,-0.8306 -2.26017,-0.7024 -2.26018,-0.7026 -1.93459,-1.4828 c -2.40311,-1.842 -4.37497,-4.6667 -5.17229,-7.4095 l -0.60899,-2.0949 0.11973,-2.0885 0.11972,-2.0884 0.71051,2.1083 c 1.84172,5.4651 5.78586,8.9009 11.40674,9.9366 l 2.58561,0.4764 2.64871,-0.6536 2.6487,-0.6537 1.89225,-1.2141 c 3.19403,-2.0497 6.227626,-6.3861 6.238617,-8.9178 l 0.0045,-0.8853 h 0.450571 0.450571 l -0.229881,2.7418 -0.229866,2.742 -0.829322,1.8817 c -1.19107,2.7023 -2.65715,4.6891 -4.41333,5.9806 l -1.53124,1.1261 2.95303,0.6569 c 9.171352,2.0405 15.752599,9.4285 16.609213,18.6453 l 0.247267,2.6605 -0.474709,2.8144 -0.474709,2.8143 -1.290945,2.6938 -1.290961,2.6937 -2.260754,2.442 c -2.552325,2.7568 -3.413595,3.1595 -2.066566,0.9663 z m 1.446881,-41.2943 c 1.39703,-0.8242 3.536545,-2.502 4.754497,-3.7286 l 2.214456,-2.23 1.436263,-2.7332 c 0.789943,-1.5033 1.723775,-3.9528 2.075207,-5.4431 l 0.638944,-2.7099 -0.207989,-3.3448 -0.207989,-3.3446 -0.984011,-2.7071 c -1.60725,-4.4214 -5.176127,-8.8617 -8.80424,-10.954 l -1.171536,-0.6755 -0.500587,2.2495 c -0.275331,1.2373 -1.026918,3.2953 -1.670204,4.5733 l -1.169618,2.3238 -2.022306,1.9697 -2.022293,1.9698 -2.41956,1.1322 c -1.33074,0.6227 -3.51647,1.3363 -4.85713,1.5856 l -2.4376,0.4533 -2.74074,-0.47 -2.74074,-0.47 -2.04981,-1.0287 c -2.99527,-1.5033 -5.30694,-3.5281 -6.97619,-6.1109 l -1.47278,-2.2785 -0.66476,-2.4708 -0.66475,-2.4707 0.12612,-2.1642 0.12612,-2.1642 0.67636,2.1826 c 1.9309,6.2311 7.17981,10.8269 13.57572,11.8869 l 2.60157,0.431 2.70268,-0.4635 2.70268,-0.4634 2.29645,-1.1593 c 3.506995,-1.7702 7.145014,-5.7993 8.08478,-8.9536 l 0.258525,-0.8676 -2.752507,-0.8361 -2.752491,-0.836 -2.773717,-0.067 c -3.50269,-0.085 -3.51599,-0.427 -0.0471,-1.216 5.39735,-1.2275 10.399024,-0.627 15.364068,1.8446 l 2.554735,1.2719 2.598816,2.5577 2.598801,2.5578 1.64153,3.3446 1.641531,3.3448 0.461725,3.2145 0.461711,3.2146 -0.467481,3.0814 -0.467481,3.0814 -1.555643,3.1479 c -3.23315,6.5426 -9.049351,10.978 -15.957952,12.1694 l -1.573995,0.2714 z m -59.394116,-5.1384 c 0.0177,-4.2347 1.88609,-8.3402 5.11823,-11.2463 l 1.99663,-1.7951 2.24356,-0.8765 2.24358,-0.8765 3.16344,-0.015 3.16343,-0.015 2.62124,1.2267 2.62125,1.2266 1.72353,1.7236 c 0.94795,0.9479 2.22367,2.7457 2.83492,3.9951 l 1.11138,2.2715 0.14054,3.0192 0.14069,3.0192 -0.43473,-0.9836 c -1.80557,-4.0859 -2.51959,-5.3393 -3.8864,-6.8221 l -1.55667,-1.6887 -2.27984,-1.1553 -2.27983,-1.1552 h -4.13172 -4.1317 l -1.77075,0.9403 c -3.9132,2.0778 -6.60309,5.2142 -7.54268,8.7949 -0.58817,2.2415 -1.11657,2.429 -1.10809,0.3935 z m 34.42478,-1.6599 c -1.79751,-0.41 -2.81813,-1.0709 -3.95442,-2.5607 l -1.03522,-1.3572 -0.21351,-1.592 -0.21352,-1.5918 0.67761,-1.7744 0.67762,-1.7742 1.38058,-1.053 1.38058,-1.0531 2.22412,-0.1443 2.22414,-0.1442 1.37723,0.7527 c 1.65357,0.9035 3.03464,2.8162 3.38606,4.6895 l 0.25724,1.3712 -0.44425,1.4826 c -1.05201,3.5114 -4.32656,5.525 -7.72426,4.7498 z m -36.00491,-15.8745 c -7.05231,-1.611 -12.59188,-8.4625 -12.59188,-15.5742 0,-0.6039 -0.53444,-2.1677 -1.18763,-3.4749 l -1.18764,-2.3766 -1.9729,-1.8455 c -1.0851,-1.0149 -2.98543,-2.3199 -4.22295,-2.8999 l -2.25003,-1.0546 h -4.32847 -4.32845 l -2.26865,1.1135 -2.26865,1.1136 -1.97747,1.9261 -1.97745,1.926 -1.23735,2.6443 c -1.46793,3.1368 -1.7321,2.8384 -0.9229,-1.0426 l 0.59388,-2.8482 1.04127,-1.7768 c 1.51119,-2.5787 3.33834,-4.4538 5.76458,-5.9159 l 2.13386,-1.286 2.82829,-0.5897 2.82829,-0.5896 2.61237,0.4173 c 1.4368,0.2295 3.60314,0.8856 4.81408,1.4579 l 2.20172,1.0408 1.99166,1.9915 1.99164,1.9917 1.05615,2.2344 1.05614,2.2344 0.44582,3.0779 0.44582,3.0778 1.00439,2.0808 1.0044,2.0808 1.88133,1.8813 c 2.26447,2.2645 5.18847,3.766 8.50522,4.3674 l 2.45647,0.4454 2.34929,-0.4261 c 5.84668,-1.0601 10.09205,-4.442 12.27863,-9.7812 l 0.74906,-1.829 -0.17265,2.4363 -0.17265,2.4363 -1.01685,2.2211 c -2.56411,5.6007 -7.25785,8.9229 -13.29249,9.408 l -2.49306,0.2005 z m -5.3122,-13.2057 c -6.5474,-4.0664 -4.07615,-13.4297 3.5445,-13.4297 h 1.79906 l 1.52516,0.7779 c 1.82338,0.9303 2.92458,2.3751 3.53341,4.6362 l 0.44935,1.6688 -0.44935,1.6687 c -0.60883,2.261 -1.71003,3.7059 -3.53341,4.6361 l -1.52516,0.7781 h -2.08153 -2.08154 z m 76.824053,-4.7845 c -3.58949,-0.9015 -7.066143,-3.8 -8.524194,-7.1068 l -0.796412,-1.8061 -0.357739,-3.1977 -0.357753,-3.1976 -1.01386,-1.7301 c -1.275671,-2.1767 -3.389844,-4.0478 -5.725405,-5.0668 l -1.81122,-0.7902 -2.55774,-0.045 -2.55773,-0.045 -2.01048,0.6904 -2.01048,0.6903 -1.64805,1.4107 c -0.90642,0.7759 -2.18489,2.3193 -2.84104,3.4298 l -1.19299,2.0192 0.2486,-1.5739 c 0.13668,-0.8657 0.68727,-2.4878 1.2234,-3.6048 l 0.9748,-2.0305 1.61247,-1.4569 c 0.88687,-0.8011 2.43099,-1.8325 3.43139,-2.2918 l 1.81889,-0.8352 h 3.14798 3.14796 l 1.818897,0.8352 c 2.499171,1.1474 4.937515,3.4483 6.11326,5.7685 l 0.984814,1.9436 0.308601,3.061 0.308585,3.0611 0.871145,1.7996 0.871145,1.7995 1.938858,1.7432 1.938872,1.7432 1.838544,0.6264 1.838559,0.6264 h 2.417523 2.417537 l 1.838544,-0.6264 1.838559,-0.6264 1.871382,-1.684 c 1.029267,-0.9261 2.267357,-2.4593 2.751301,-3.4068 l 0.879905,-1.7229 0.0045,1.1804 c 0.003,0.6493 -0.498282,2.243 -1.113579,3.5415 l -1.118724,2.361 -1.685642,1.5199 c -2.999728,2.7049 -7.483237,3.9104 -11.133629,2.9937 z m -2.453246,-8.8096 c -4.676253,-2.0872 -5.533671,-8.1112 -1.64101,-11.529 l 1.427444,-1.2533 1.407634,-0.2641 c 2.061792,-0.3867 4.006643,0.048 5.574778,1.2429 l 1.383497,1.0553 0.735524,1.6196 c 2.548057,5.611 -3.303614,11.6212 -8.887867,9.1286 z"
       id="path216" /></g><style
     id="style1">@media(prefers-color-scheme:dark){.lines{fill:#d7d7d7}}</style></svg>
