<?xml version="1.0" encoding="UTF-8" standalone="no"?>
<!-- Created with Inkscape (http://www.inkscape.org/) -->

<svg
   width="450.84775mm"
   height="179.89891mm"
   viewBox="0 0 450.84775 179.89891"
   version="1.1"
   id="svg1"
   xml:space="preserve"
   inkscape:version="1.4.4 (dcaf3e7, 2026-05-05)"
   sodipodi:docname="logos teams.svg"
   inkscape:export-batch-name="logos teams"
   inkscape:export-batch-path="Desktop"
   xmlns:inkscape="http://www.inkscape.org/namespaces/inkscape"
   xmlns:sodipodi="http://sodipodi.sourceforge.net/DTD/sodipodi-0.dtd"
   xmlns="http://www.w3.org/2000/svg"
   xmlns:svg="http://www.w3.org/2000/svg"><sodipodi:namedview
     id="namedview1"
     pagecolor="#ffffff"
     bordercolor="#000000"
     borderopacity="0.25"
     inkscape:showpageshadow="2"
     inkscape:pageopacity="0.0"
     inkscape:pagecheckerboard="0"
     inkscape:deskcolor="#d1d1d1"
     inkscape:document-units="mm"
     inkscape:zoom="0.69712823"
     inkscape:cx="489.14961"
     inkscape:cy="355.02794"
     inkscape:window-width="1920"
     inkscape:window-height="1050"
     inkscape:window-x="0"
     inkscape:window-y="30"
     inkscape:window-maximized="0"
     inkscape:current-layer="layer1"><inkscape:page
       x="0"
       y="0"
       width="450.84775"
       height="179.89891"
       id="page1"
       margin="0"
       bleed="0" /></sodipodi:namedview><defs
     id="defs1" /><g
     inkscape:label="Ebene 1"
     inkscape:groupmode="layer"
     id="layer1"
     transform="translate(95.138438,-359.79567)"><g
       id="g197"><path
         style="fill:#000000;stroke:none;stroke-width:2.74293"
         d="m 4.0132639,445.52952 -8.70881,17.41762 c 24.5611301,15.90374 90.2698201,19.60349 76.3350701,-28.30363 -3.41896,-11.75415 -13.70056,-20.38388 -22.62617,-28.07303 -3.70461,-3.1914 -11.12458,-8.13998 -10.20826,-13.89707 1.62302,-10.19707 17.74454,-4.62033 23.26689,-2.29967 l 7.98308,-16.69189 C 48.541534,361.50325 -5.4045421,355.56108 0.62798893,396.17959 3.4730079,415.33585 25.876574,420.42333 33.845184,436.12195 c 5.84585,11.51664 -8.1888,17.6133 -17.49403,14.81099 -4.283117,-1.28992 -8.2372751,-3.64169 -12.3378901,-5.40342 m 84.1851501,0 c -2.39181,4.17949 -8.21234,11.24852 -6.94505,16.34654 1.98536,7.98681 17.5159,11.75261 24.362666,12.84441 21.50483,3.42921 52.03098,-4.12022 51.29083,-31.36815 -0.37406,-13.77103 -9.50586,-24.18424 -19.3597,-32.81353 -4.74442,-4.15483 -14.0823,-9.61464 -14.97479,-16.46708 -1.55522,-11.94065 18.66455,-5.74173 23.68478,-3.69797 l 7.98308,-16.69189 c -20.98049,-10.91342 -84.754926,-16.70561 -68.619156,26.85204 5.33835,14.41054 34.934796,25.81596 33.375086,41.35672 -1.69601,16.89888 -22.575316,7.26685 -30.797746,3.63891 m 167.644576,26.12643 -5.80585,-20.32054 -5.80589,-3.62868 c -10.07325,2.11598 -22.38871,4.28542 -31.85844,-1.07759 -16.07923,-9.10618 -15.36969,-35.76386 -4.00155,-48.0604 12.5533,-13.57853 27.531,-2.18817 39.22497,-9.85173 4.46642,-2.92704 6.42935,-11.73292 8.24676,-16.48664 -22.82929,-12.63488 -53.37137,-12.7525 -74.74822,3.72029 -30.12505,23.21409 -23.54777,67.38935 6.52928,86.8956 8.09919,5.25269 16.63196,9.13446 26.12637,11.06186 14.53633,2.9509 27.87019,1.16001 42.09257,-2.25217"
         id="path196"
         sodipodi:nodetypes="ccsssccsssccsssssccssccccssscsssc" /><path
         style="fill:#d01b24;stroke:none;stroke-width:2.74293"
         d="M 0.70083793,442.19198 -8.0079711,459.6096 c 24.5611251,15.90374 90.2698251,19.60349 76.3350751,-28.30363 -3.41896,-11.75415 -13.70056,-20.38388 -22.62616,-28.07304 -3.70463,-3.1914 -11.12459,-8.13998 -10.20826,-13.89706 1.62302,-10.19707 17.74453,-4.62033 23.26688,-2.29968 l 7.98308,-16.69189 c -21.51354,-12.17859 -75.4596111,-18.12077 -69.4270801,22.49775 2.84501803,19.15625 25.2485901,24.24373 33.2171901,39.94236 5.84584,11.51664 -8.18881,17.6133 -17.494012,14.81098 -4.2831301,-1.28992 -8.2372891,-3.64168 -12.33790407,-5.40341 m 84.18515607,0 c -2.39181,4.17949 -8.21234,11.24852 -6.94505,16.34653 1.98536,7.98682 17.5159,11.75261 24.362666,12.84441 21.50483,3.42921 52.03098,-4.12021 51.29083,-31.36814 -0.37406,-13.77103 -9.50586,-24.18424 -19.3597,-32.81354 -4.74442,-4.15482 -14.0823,-9.61463 -14.97479,-16.46708 -1.55522,-11.94064 18.66455,-5.74172 23.68478,-3.69797 l 7.98308,-16.69189 c -20.98049,-10.91341 -84.754926,-16.70561 -68.619156,26.85204 5.33835,14.41055 34.934796,25.81596 33.375086,41.35673 -1.69601,16.89887 -22.575316,7.26685 -30.797746,3.63891 m 167.644576,26.12643 -5.80585,-20.32055 -5.80589,-3.62868 c -10.07325,2.11598 -22.38871,4.28542 -31.85844,-1.07759 -16.07923,-9.10617 -15.36969,-35.76385 -4.00155,-48.06039 12.5533,-13.57853 27.531,-2.18818 39.22497,-9.85174 4.46642,-2.92703 6.42935,-11.73292 8.24676,-16.48664 -22.82929,-12.63487 -53.37137,-12.75249 -74.74822,3.7203 -30.12505,23.21409 -23.54777,67.38934 6.52928,86.89559 8.09919,5.25269 16.63196,9.13446 26.12637,11.06186 14.53633,2.95091 27.87019,1.16002 42.09257,-2.25216"
         id="path196-2"
         sodipodi:nodetypes="ccsssccsssccsssssccssccccssscsssc" /><path
         style="fill:#000000"
         d="m 111.61565,539.30614 -0.51359,-0.38846 -1.62534,-0.008 -1.62533,-0.008 -0.1606,-0.41852 c -0.0883,-0.23018 -0.1606,-2.58762 -0.1606,-5.23875 v -4.82023 l 0.29937,-0.29937 0.29937,-0.29937 0.95348,0.51104 0.95348,0.51103 h 1.07783 1.07783 l 0.51359,0.38846 0.51359,0.38846 3.742,0.008 3.74201,0.008 0.15229,-0.39687 0.1523,-0.39688 h 0.54974 0.54974 l 1.1773,-1.12448 1.1773,-1.12448 0.001,-2.03981 10e-4,-2.03981 -0.7249,-0.67217 c -0.3987,-0.36969 -0.85673,-0.67216 -1.01785,-0.67216 -0.16113,0 -0.56751,-0.23813 -0.90309,-0.52917 l -0.61013,-0.52917 h -0.6944 c -0.38191,0 -0.92924,-0.16127 -1.21628,-0.35837 -0.28704,-0.19711 -0.81955,-0.42317 -1.18335,-0.50236 -1.5228,-0.33147 -5.17106,-1.90506 -5.44522,-2.34867 -0.0782,-0.1266 -0.35728,-0.23018 -0.62007,-0.23018 h -0.47761 l -2.02012,-1.97475 c -1.11106,-1.08612 -2.02012,-2.1431 -2.02012,-2.34885 0,-0.20576 -0.17859,-0.52233 -0.39687,-0.70348 -0.21828,-0.18116 -0.39688,-0.58597 -0.39688,-0.89957 0,-0.3136 -0.20836,-0.86457 -0.46302,-1.22437 l -0.46302,-0.65419 v -3.08107 -3.08108 l 0.46302,-0.51163 0.46302,-0.51163 v -0.93896 -0.93896 l 0.39688,-0.32938 c 0.21828,-0.18115 0.39687,-0.56265 0.39687,-0.84776 v -0.51839 l 2.52865,-2.49192 2.52865,-2.49193 h 0.48166 c 0.26492,0 0.62989,-0.17859 0.81104,-0.39687 0.18116,-0.21828 0.57332,-0.39688 0.87146,-0.39688 0.29815,0 0.75499,-0.19267 1.0152,-0.42816 l 0.47312,-0.42817 1.26751,-0.1386 c 0.69713,-0.0762 1.50236,-0.30028 1.7894,-0.49788 l 0.52189,-0.35927 h 6.67078 6.67078 l 0.67868,0.25804 0.67868,0.25803 v 4.62114 4.62114 l -0.24881,0.15378 c -0.13685,0.0846 -0.97163,0.16395 -1.85506,0.17639 l -1.60624,0.0226 -0.64918,-0.42536 -0.64917,-0.42535 h -3.43 -3.42999 l -0.39687,0.39687 c -0.21829,0.21828 -0.61872,0.39688 -0.88986,0.39688 h -0.49297 l -1.11343,1.13449 -1.11342,1.1345 v 1.59413 1.59412 l 0.74209,0.71096 c 0.40814,0.39103 0.86981,0.71096 1.02593,0.71096 0.15612,0 0.42238,0.16692 0.59169,0.37092 0.16931,0.204 0.61499,0.44801 0.9904,0.54223 0.37541,0.0942 0.85528,0.34403 1.06638,0.55512 0.2111,0.2111 0.6432,0.38804 0.96022,0.39319 0.31703,0.005 0.87407,0.17953 1.23788,0.3875 0.3638,0.20797 0.91477,0.38234 1.22437,0.3875 0.3096,0.005 0.71114,0.18797 0.89229,0.40625 0.18116,0.21828 0.5407,0.39688 0.79897,0.39688 0.25828,0 1.30021,0.42727 2.3154,0.94949 l 1.84581,0.94949 1.8393,1.78186 1.83929,1.78187 0.57541,1.18863 c 0.31647,0.65376 0.57541,1.55927 0.57541,2.01225 v 0.82361 l 0.46302,0.46317 0.46302,0.46317 -0.0142,1.75199 -0.0142,1.75199 -0.44879,0.64073 -0.44879,0.64074 v 1.23165 1.23165 l -0.36499,0.30291 c -0.20074,0.1666 -0.43369,0.62766 -0.51766,1.02458 -0.084,0.39692 -0.51504,1.10217 -0.95793,1.56722 -0.44289,0.46505 -0.80525,0.94578 -0.80525,1.06828 0,0.28141 -2.45855,2.71638 -2.74269,2.71638 -0.11603,0 -0.71952,0.41672 -1.34108,0.92604 -0.62156,0.50933 -1.2415,0.92605 -1.37764,0.92605 -0.13615,0 -0.71461,0.23812 -1.28547,0.52916 -0.57086,0.29104 -1.25938,0.52917 -1.53005,0.52917 -0.27067,0 -0.67071,0.17859 -0.889,0.39687 l -0.39687,0.39688 h -1.27171 c -0.69944,0 -1.69914,0.17859 -2.22156,0.39687 l -0.94985,0.39688 h -4.19127 -4.19126 z m 109.45656,-0.0188 -0.89027,-0.38652 h -1.80281 -1.80281 l -0.36505,-0.36505 c -0.20077,-0.20078 -0.85727,-0.44821 -1.45887,-0.54985 -0.60161,-0.10164 -1.23432,-0.35409 -1.40604,-0.56099 -0.17172,-0.20691 -0.59903,-0.37619 -0.94958,-0.37619 h -0.63736 l -0.1523,-0.39688 c -0.0838,-0.21828 -0.39037,-0.39687 -0.68135,-0.39687 h -0.52906 l -1.96924,-1.90947 c -1.87047,-1.81369 -2.30574,-2.37775 -3.01833,-3.91137 -0.16904,-0.3638 -0.47252,-0.97748 -0.67439,-1.36374 -0.20188,-0.38625 -0.37084,-0.98156 -0.37547,-1.32291 -0.005,-0.34135 -0.18322,-0.85175 -0.39688,-1.13423 l -0.38846,-0.51359 v -17.13801 -17.13803 l 0.51177,-0.2739 0.51178,-0.27389 h 4.92958 4.92958 l 0.51177,0.27389 0.51177,0.2739 v 15.56871 15.56871 l 0.39688,0.32937 c 0.21828,0.18116 0.39687,0.60395 0.39687,0.93954 0,0.33559 0.1786,0.78876 0.39688,1.00704 0.21828,0.21828 0.39687,0.51531 0.39687,0.66006 0,0.41465 1.33324,1.89128 1.70763,1.89128 0.18572,0 0.6404,0.23812 1.0104,0.52917 l 0.67273,0.52916 h 0.78577 0.78576 l 0.32938,0.39688 0.32938,0.39687 h 2.42227 2.42227 l 0.52189,-0.36371 c 0.28705,-0.20004 1.00518,-0.44479 1.59586,-0.54389 l 1.07397,-0.18018 1.46967,-1.37434 1.46968,-1.37434 0.17338,-0.7276 c 0.0954,-0.40018 0.29017,-0.7276 0.43292,-0.7276 h 0.25954 v -1.0247 c 0,-0.56359 0.24007,-1.56741 0.53348,-2.23073 l 0.53349,-1.20602 -0.0133,-14.0763 c -0.007,-7.74196 0.0599,-14.14978 0.14937,-14.23959 0.0894,-0.0898 2.32929,-0.20014 4.97741,-0.24517 l 4.81477,-0.0819 0.72008,0.27378 0.72009,0.27377 -0.009,14.49249 c -0.005,7.97086 -0.11395,15.66234 -0.24168,17.09218 l -0.23225,2.59969 -0.41977,0.46385 c -0.23088,0.25511 -0.41978,0.71258 -0.41978,1.01659 0,1.36728 -2.18412,4.51288 -4.7625,6.85901 -1.83409,1.66889 -2.20471,1.93929 -2.65801,1.93929 -0.2532,0 -0.52891,0.17859 -0.61267,0.39687 l -0.15229,0.39688 h -0.58279 c -0.32053,0 -0.79127,0.18868 -1.0461,0.41929 -0.25482,0.23062 -0.94704,0.48418 -1.53826,0.56348 -0.59123,0.0793 -1.21036,0.30734 -1.37585,0.50675 l -0.3009,0.36256 h -1.78945 -1.78944 l -0.75785,0.39524 -0.75785,0.39525 -2.77812,-0.009 -2.77813,-0.009 z M -94.9781,538.48738 c -0.19458,-0.50706 -0.22182,-60.50714 -0.0277,-61.0144 l 0.13484,-0.35237 5.75214,0.1323 5.752128,0.13229 0.0686,13.3507 0.0686,13.35071 0.20928,0.20928 0.20929,0.20929 0.71783,-1.13565 c 0.39481,-0.62461 1.07343,-1.52497 1.50803,-2.0008 0.43461,-0.47583 0.7902,-1.00986 0.7902,-1.18673 0,-0.17687 0.32742,-0.68165 0.7276,-1.12172 0.40018,-0.44008 0.96573,-1.24586 1.25677,-1.79063 0.29104,-0.54477 0.91612,-1.36569 1.38906,-1.82427 0.47295,-0.45858 0.86284,-1.01878 0.86644,-1.2449 0.004,-0.22611 0.59891,-1.06318 1.32291,-1.86015 0.72401,-0.79696 1.32016,-1.6304 1.32478,-1.85208 0.005,-0.22168 0.42134,-0.81404 0.92604,-1.31636 0.50471,-0.50232 0.91765,-1.02216 0.91765,-1.15521 0,-0.13305 0.59531,-0.99943 1.32291,-1.92529 0.72761,-0.92585 1.32292,-1.7608 1.32292,-1.85542 0,-0.0946 0.41672,-0.63331 0.92604,-1.19707 0.50932,-0.56376 0.92604,-1.15379 0.92604,-1.31119 0,-0.15739 0.522,-0.96072 1.15999,-1.78517 0.638,-0.82446 1.29703,-1.7669 1.46452,-2.09432 l 0.30453,-0.59531 h 6.98653 6.98654 l 0.17562,0.28417 0.17563,0.28417 -0.55689,0.59277 c -0.30629,0.32603 -0.55688,0.70622 -0.55688,0.84486 0,0.13864 -0.51264,0.84534 -1.1392,1.57044 -0.62655,0.72511 -1.40188,1.75145 -1.72294,2.28075 -0.32107,0.52931 -0.99905,1.41578 -1.50664,1.96993 -0.50759,0.55416 -0.92289,1.134 -0.92289,1.28854 0,0.15453 -0.65484,1.03182 -1.45521,1.94953 -0.80036,0.91772 -1.45521,1.75885 -1.45521,1.86919 0,0.11034 -0.71396,1.02548 -1.58659,2.03365 -0.87262,1.00817 -1.58858,1.9521 -1.59101,2.09762 -0.002,0.14552 -0.59657,0.91943 -1.32031,1.71979 -0.72374,0.80037 -1.31748,1.61472 -1.31941,1.80968 -0.002,0.19496 -0.59882,1.0224 -1.32643,1.83876 -0.7276,0.81635 -1.32586,1.60934 -1.32945,1.76219 -0.004,0.15285 -0.59891,0.92997 -1.32292,1.72694 -0.72401,0.79697 -1.31638,1.58218 -1.31638,1.74493 0,0.16275 -0.23812,0.5114 -0.52916,0.77479 l -0.52917,0.47889 v 0.75198 0.75198 l 0.99219,1.12524 c 0.5457,0.61889 1.14101,1.22046 1.32291,1.33683 0.1819,0.11637 0.33245,0.41403 0.33456,0.66146 0.002,0.24743 0.42,0.92612 0.92866,1.50821 1.26287,1.44514 4.35918,5.63398 4.35918,5.8973 0,0.11747 0.41294,0.62457 0.91764,1.12689 0.5047,0.50232 0.92142,0.99731 0.92604,1.09999 0.0149,0.33002 1.30609,2.11051 1.99074,2.74501 0.36492,0.3382 0.6635,0.76176 0.6635,0.94125 0,0.17948 0.45593,0.86978 1.01317,1.53399 0.55725,0.6642 1.23796,1.56484 1.51269,2.0014 0.27472,0.43656 1.00942,1.38702 1.63265,2.11212 0.62323,0.7251 1.13315,1.44904 1.13315,1.60875 0,0.15971 0.47468,0.8166 1.05484,1.45975 0.58016,0.64316 1.22731,1.52835 1.43812,1.9671 0.2108,0.43874 0.69994,1.09358 1.08697,1.4552 0.38702,0.36162 0.87166,0.98035 1.07697,1.37496 l 0.37329,0.71746 -0.51333,0.27473 -0.51332,0.27472 h -7.00721 c -7.40122,0 -7.84424,-0.0448 -7.84424,-0.79284 0,-0.25941 -0.41396,-0.93128 -0.91991,-1.49305 -0.50594,-0.56177 -0.92266,-1.20641 -0.92604,-1.43252 -0.003,-0.22612 -0.42286,-0.81502 -0.93218,-1.30867 -0.50932,-0.49366 -0.92604,-1.09005 -0.92604,-1.32532 0,-0.23527 -0.34756,-0.76074 -0.77234,-1.16772 -0.42479,-0.40697 -0.8421,-1.01785 -0.92735,-1.35751 -0.0852,-0.33966 -0.5116,-1.00799 -0.94744,-1.48518 -0.43585,-0.47719 -0.79245,-1.05586 -0.79245,-1.28592 0,-0.23006 -0.41672,-0.8222 -0.92605,-1.31585 -0.50932,-0.49366 -0.92613,-1.08256 -0.92624,-1.30868 -1.2e-4,-0.22611 -0.41684,-0.87923 -0.92605,-1.45137 -0.50921,-0.57213 -0.92583,-1.23447 -0.92583,-1.47185 0,-0.23738 -0.35719,-0.77381 -0.79375,-1.19206 -0.43656,-0.41826 -0.79375,-0.91644 -0.79375,-1.10707 0,-0.19064 -0.41672,-0.80787 -0.92604,-1.37163 -0.50933,-0.56376 -0.92614,-1.18918 -0.92625,-1.38983 -1.2e-4,-0.20064 -0.41683,-0.83292 -0.92604,-1.40505 -0.50921,-0.57214 -0.9279,-1.22699 -0.93041,-1.45521 -0.003,-0.22823 -0.31848,-0.71262 -0.70214,-1.07642 -0.38366,-0.3638 -0.85098,-1.02812 -1.03847,-1.47627 -0.1875,-0.44815 -0.52498,-0.96757 -0.74994,-1.15428 l -0.40903,-0.33946 -0.13553,0.36052 c -0.0745,0.19829 -0.16525,6.73038 -0.20157,14.51574 l -0.066,14.15521 -5.724428,0.0712 -5.72443,0.0712 z m 53.459678,0.23705 c -0.31978,-0.31978 -0.1837,-1.82948 0.21207,-2.35273 0.21365,-0.28247 0.39224,-0.82643 0.39687,-1.2088 0.005,-0.38236 0.18701,-0.84342 0.40529,-1.02458 0.21828,-0.18116 0.39766,-0.64222 0.39862,-1.02459 9.6e-4,-0.38236 0.2383,-1.05239 0.52742,-1.48895 0.28913,-0.43657 0.52647,-1.03889 0.52743,-1.3385 9.6e-4,-0.2996 0.17655,-0.77585 0.3902,-1.05833 0.21365,-0.28247 0.39225,-0.82643 0.39687,-1.2088 0.005,-0.38236 0.18701,-0.84342 0.40529,-1.02458 l 0.39688,-0.32938 v -0.89623 -0.89624 l 0.52917,-0.45308 0.52916,-0.45309 v -0.71351 c 0,-0.39243 0.16725,-1.05057 0.37167,-1.46255 1.02433,-2.06441 1.50076,-3.2802 1.36897,-3.49343 -0.0803,-0.12987 0.0906,-0.53679 0.37963,-0.90427 0.28906,-0.36748 0.52557,-0.95403 0.52557,-1.30345 0,-0.34941 0.1748,-0.86641 0.38846,-1.14889 0.21365,-0.28247 0.39303,-0.81124 0.39862,-1.17505 0.006,-0.3638 0.24671,-1.01864 0.53583,-1.4552 0.28913,-0.43657 0.52647,-1.04707 0.52743,-1.35667 9.6e-4,-0.3096 0.18033,-0.71114 0.39861,-0.89229 0.21829,-0.18116 0.39688,-0.64923 0.39688,-1.04016 0,-0.39093 0.17481,-0.9419 0.38846,-1.22438 0.21365,-0.28247 0.39303,-0.81124 0.39862,-1.17505 0.006,-0.3638 0.24671,-1.01864 0.53584,-1.4552 0.28912,-0.43657 0.52646,-1.04707 0.52742,-1.35667 9.6e-4,-0.3096 0.18034,-0.71114 0.39862,-0.89229 0.21828,-0.18116 0.39687,-0.64923 0.39687,-1.04016 0,-0.39093 0.17481,-0.9419 0.38846,-1.22438 0.21366,-0.28247 0.39225,-0.75348 0.39688,-1.04667 0.005,-0.2932 0.24654,-0.97738 0.53758,-1.5204 0.29104,-0.54302 0.52917,-1.21129 0.52917,-1.48504 0,-0.27375 0.17859,-0.64594 0.39687,-0.8271 l 0.39688,-0.32938 v -0.87475 -0.87474 l 0.39687,-0.39688 c 0.21828,-0.21828 0.39688,-0.57546 0.39688,-0.79375 0,-0.21828 0.19035,-0.58722 0.423,-0.81987 l 0.423,-0.42301 6.58605,0.0237 6.586047,0.0237 0.399283,0.39929 c 0.219606,0.2196 0.399284,0.55479 0.399284,0.74486 0,0.19007 0.178593,0.4938 0.3968753,0.67495 0.218281,0.18116 0.396875,0.5897 0.396875,0.90787 0,0.31817 0.174807,0.80961 0.38846,1.09209 0.213653,0.28247 0.393031,0.81124 0.398618,1.17504 0.0056,0.36381 0.246714,1.01865 0.535838,1.45521 0.289124,0.43657 0.526465,1.1066 0.527424,1.48896 9.58e-4,0.38236 0.180337,0.84343 0.398618,1.02458 0.218281,0.18116 0.400662,0.64222 0.40529,1.02459 0.0046,0.38236 0.183221,0.92632 0.396875,1.2088 0.213653,0.28247 0.38846,0.79947 0.38846,1.14889 0,0.34941 0.238125,0.93803 0.529167,1.30803 l 0.529166,0.67272 v 0.72568 0.72567 l 0.396875,0.32937 c 0.218282,0.18116 0.396875,0.61289 0.396875,0.9594 0,0.34651 0.238125,1.07431 0.529167,1.61733 0.291042,0.54302 0.529167,1.17468 0.529167,1.40368 0,0.229 0.174807,0.64749 0.38846,0.92996 0.213653,0.28248 0.392247,0.82644 0.396875,1.2088 0.0046,0.38236 0.187008,0.84343 0.40529,1.02458 l 0.396875,0.32938 v 0.85316 0.85316 l 0.52916603,0.61014 c 0.291042,0.33557 0.529167,0.86681 0.529167,1.18054 0,0.31372 0.174807,0.80152 0.38846,1.08399 0.213654,0.28248 0.392247,0.82643 0.396875,1.2088 0.0046,0.38236 0.187009,0.84343 0.40529,1.02458 l 0.39687497,0.32938 v 0.85316 0.85316 l 0.529167,0.61014 0.529166,0.61013 v 0.72087 c 0,0.39648 0.178594,0.86909 0.396875,1.05025 0.2182819,0.18115 0.3968749,0.64549 0.3968749,1.03185 0,0.38637 0.168756,0.94342 0.375012,1.23789 0.206257,0.29447 0.456085,0.96756 0.555174,1.49575 l 0.180163,0.96035 0.370867,0.14232 0.370868,0.14231 v 1.03424 1.03424 l 0.396875,0.32938 c 0.218281,0.18116 0.396875,0.58596 0.396875,0.89957 0,0.3136 0.185747,0.83538 0.412771,1.1595 l 0.41277,0.58931 -0.08204,0.99091 -0.08204,0.99092 H 0.10935533 -6.1083537 l -0.08185,-0.70824 c -0.04502,-0.38954 -0.253378,-0.8506 -0.463021,-1.02459 -0.209643,-0.17399 -0.381169,-0.55166 -0.381169,-0.83927 0,-0.28761 -0.173273,-0.89811 -0.385052,-1.35667 -0.503903,-1.09108 -1.206878,-3.04332 -1.395855,-3.87644 -0.236809,-1.044 -0.288838,-1.05002 -9.1115173,-1.05428 -8.67361,-0.004 -9.21591,0.0388 -9.21591,0.73102 0,0.22764 -0.18868,0.62238 -0.4193,0.8772 -0.23061,0.25483 -0.48418,0.94705 -0.56348,1.53827 -0.0793,0.59122 -0.30733,1.21035 -0.50674,1.37585 -0.19941,0.16549 -0.36256,0.62075 -0.36256,1.01168 0,0.39093 -0.17481,0.9419 -0.38846,1.22438 -0.21366,0.28247 -0.39225,0.75767 -0.39688,1.05598 -0.005,0.29832 -0.15129,0.68527 -0.32591,0.8599 l -0.3175,0.3175 h -5.45924 c -3.00258,0 -5.53861,-0.0794 -5.63562,-0.17639 z m 28.776821,-17.43754 0.416012,-0.41601 -0.168066,-0.70847 c -0.09244,-0.38965 -0.330668,-0.89643 -0.529404,-1.12617 -0.198737,-0.22974 -0.36134,-0.78071 -0.36134,-1.22438 v -0.80666 l -0.396875,-0.32938 -0.396875,-0.32938 v -0.78667 c 0,-0.43267 -0.168344,-1.10271 -0.374098,-1.48896 -1.048967,-1.96919 -1.478778,-3.03532 -1.4864,-3.68699 -0.0046,-0.3957 -0.183221,-0.95057 -0.396875,-1.23305 -0.213653,-0.28247 -0.38846,-0.77027 -0.38846,-1.08399 0,-0.31373 -0.238125,-0.84497 -0.529167,-1.18054 l -0.529166,-0.61014 v -0.75326 c 0,-0.4143 -0.119063,-0.75327 -0.264584,-0.75327 -0.14552,0 -0.264583,0.16402 -0.264583,0.36448 0,0.20046 -0.178594,0.5127 -0.396875,0.69385 l -0.396875,0.32938 v 0.99354 0.99354 l -0.396875,0.32938 -0.396875,0.32937 v 0.85797 0.85796 l -0.529167,0.67273 c -0.291041,0.37 -0.529163,0.95861 -0.529163,1.30803 0,0.34941 -0.17481,0.86641 -0.38846,1.14889 -0.21366,0.28247 -0.39225,0.87779 -0.39688,1.32291 -0.005,0.44513 -0.18322,1.04045 -0.39687,1.32292 -0.21366,0.28248 -0.39225,0.73294 -0.39688,1.00103 -0.005,0.26808 -0.24654,0.79016 -0.53758,1.16016 l -0.52917,0.67272 v 1.1329 1.13289 l 0.33073,0.13345 c 0.1819,0.0734 2.554649,0.14286 5.27277,0.15434 l 4.942039,0.0209 z m 31.69438,17.30152 -0.322594,-0.32259 v -23.2148 -23.2148 l 0.283811,-0.17541 c 0.156096,-0.0965 1.197893,-0.2267 2.315104,-0.2894 1.117212,-0.0627 3.162388,-0.2258 4.544836,-0.36243 1.382448,-0.13664 4.716198,-0.27358 7.408333,-0.30433 l 4.894792,-0.0559 0.577918,0.31354 0.577919,0.31354 1.935623,0.002 1.935623,0.002 0.79375,0.52568 0.79375,0.52568 0.827499,0.002 0.827499,0.002 0.329377,0.39688 c 0.181158,0.21828 0.538345,0.39687 0.79375,0.39687 0.255406,0 0.612593,0.1786 0.79375,0.39688 0.181158,0.21828 0.532524,0.39687 0.780813,0.39687 h 0.451436 l 1.632834,1.64807 1.632834,1.64807 v 0.4686 c 0,0.25773 0.238125,0.70672 0.529167,0.99776 0.291042,0.29105 0.532953,0.79706 0.537581,1.12448 0.0046,0.32743 0.183222,0.82643 0.396875,1.10891 l 0.388461,0.51359 v 3.19785 3.19785 l -0.363068,0.52189 c -0.199688,0.28704 -0.452808,0.93861 -0.56249,1.44793 l -0.199422,0.92605 -1.282179,1.61569 c -0.705198,0.88864 -1.851062,2.07504 -2.546364,2.63647 -0.695302,0.56142 -1.359399,1.1738 -1.475771,1.36086 -0.116371,0.18705 -0.507061,0.3401 -0.868199,0.3401 h -0.656615 l -0.152296,0.39687 -0.152295,0.39688 h -0.997629 -0.997629 l -0.326525,0.39344 -0.326526,0.39344 0.152112,0.59875 c 0.08366,0.32931 0.513675,0.99305 0.955587,1.47497 0.441911,0.48192 0.803475,1.08365 0.803475,1.33716 0,0.25351 0.416719,0.86483 0.926042,1.35849 0.509323,0.49365 0.926041,1.08897 0.926041,1.32292 0,0.23395 0.416719,0.82926 0.926042,1.32291 0.509323,0.49366 0.926042,1.08579 0.926042,1.31586 0,0.23006 0.357187,0.80937 0.79375,1.28734 0.436562,0.47797 0.79375,0.97364 0.79375,1.10148 0,0.12785 0.595312,1.00915 1.322917,1.95846 0.727604,0.9493 1.322916,1.79959 1.322916,1.88951 0,0.0899 0.416719,0.67205 0.926042,1.29362 0.509323,0.62156 0.926042,1.27257 0.926042,1.4467 0,0.17413 0.416406,0.74535 0.925347,1.26939 l 0.925347,0.9528 -0.296285,0.35701 -0.296286,0.357 H 49.877541 43.08969 l -0.720377,-0.82096 c -0.396207,-0.45152 -0.720377,-0.99376 -0.720377,-1.20497 0,-0.21121 -0.356637,-0.76452 -0.792526,-1.22957 -0.435889,-0.46505 -0.793076,-1.01476 -0.79375,-1.22158 -6.73e-4,-0.20683 -0.199013,-0.5946 -0.440755,-0.86172 -0.510992,-0.56464 -1.068045,-1.47496 -1.306891,-2.13568 -0.09206,-0.25466 -0.271945,-0.46302 -0.399748,-0.46302 -0.127803,0 -0.478828,-0.52432 -0.780055,-1.16515 -0.301227,-0.64083 -0.778086,-1.37366 -1.059688,-1.62851 -0.281602,-0.25484 -0.512004,-0.6131 -0.512004,-0.79613 0,-0.37293 -1.596284,-2.92903 -2.233305,-3.57616 -0.22689,-0.23048 -0.412528,-0.57541 -0.412528,-0.7665 0,-0.19108 -0.431825,-0.87441 -0.95961,-1.5185 l -0.95961,-1.17108 -0.227427,0.22743 -0.227428,0.22742 -0.06973,8.9862 -0.06973,8.98619 -5.564386,0.0712 -5.564386,0.0712 z m 19.342248,-26.92195 c 0.35711,-0.13577 1.079236,-0.62436 1.604725,-1.08574 l 0.955434,-0.83888 v -0.46936 c 0,-0.25815 0.178594,-0.61759 0.396875,-0.79874 l 0.396875,-0.32938 v -2.30858 -2.30858 l -1.567858,-1.49548 -1.567858,-1.49548 h -0.917376 -0.917377 l -0.152295,-0.39688 -0.152295,-0.39687 h -2.758121 -2.758122 l -0.160599,0.41851 c -0.219357,0.57164 -0.204648,11.35549 0.01579,11.57593 0.270528,0.27053 6.846051,0.20941 7.582202,-0.0705 z m 32.259639,27.06041 -0.330729,-0.13473 v -23.36118 -23.36118 l 0.330729,-0.27261 0.330729,-0.27262 5.128342,-0.0149 5.128342,-0.0149 0.492207,0.26342 0.492208,0.26342 0.06799,17.9172 0.06799,17.9172 7.408333,0.13229 7.408334,0.13229 v 5.42396 5.42396 l -13.096876,0.0465 c -7.203281,0.0256 -13.245703,-0.0141 -13.427604,-0.0882 z m 82.541864,-0.13843 -0.32259,-0.32259 v -23.2148 -23.2148 l 0.27282,-0.16861 c 0.15005,-0.0927 1.84669,-0.28001 3.77031,-0.41615 1.92362,-0.13615 3.67609,-0.30319 3.89437,-0.37121 0.21828,-0.068 2.7996,-0.14736 5.73626,-0.17632 l 5.33938,-0.0527 0.41486,0.34431 0.41486,0.3443 2.05097,-0.0359 2.05096,-0.0359 0.99123,0.53304 c 0.54517,0.29317 1.33427,0.53303 1.75354,0.53303 h 0.76231 l 0.32938,0.39688 c 0.18116,0.21828 0.54568,0.39687 0.81006,0.39687 0.38578,0 1.9641,1.13223 3.23364,2.3197 0.91519,0.85604 2.30996,2.68596 2.43895,3.19987 0.0869,0.34638 0.33078,0.80249 0.54187,1.01359 l 0.38381,0.38381 v 4.32499 4.32498 l -0.67027,1.33449 c -0.36865,0.73397 -0.78537,1.40563 -0.92604,1.49256 -0.14067,0.0869 -0.25577,0.34329 -0.25577,0.56966 0,0.55866 -2.90304,3.52594 -3.4496,3.52594 -0.24042,0 -0.65263,0.23812 -0.91602,0.52916 -0.26339,0.29104 -0.74536,0.52917 -1.07104,0.52917 h -0.59214 l -0.1523,0.39687 -0.15229,0.39688 h -0.64045 c -0.35225,0 -0.9205,0.22677 -1.26278,0.50393 l -0.62233,0.50393 0.46073,0.50909 c 0.25339,0.28 0.46081,0.67831 0.46093,0.88513 1.1e-4,0.20683 0.41683,0.84416 0.92604,1.41629 0.50921,0.57214 0.92583,1.14673 0.92583,1.27687 0,0.13014 0.53579,0.93291 1.19063,1.78393 0.65484,0.85101 1.19062,1.62561 1.19062,1.72131 0,0.0957 0.41672,0.68255 0.92605,1.30412 0.50932,0.62156 0.92604,1.25353 0.92604,1.40437 0,0.15085 0.41395,0.7339 0.9199,1.29567 0.50595,0.56177 0.92267,1.2064 0.92604,1.43252 0.003,0.22611 0.42286,0.81502 0.93218,1.30867 0.50933,0.49366 0.92604,1.10836 0.92604,1.366 0,0.25765 0.41672,0.88517 0.92605,1.39449 0.50932,0.50932 0.92604,1.06946 0.92604,1.24476 0,0.17529 0.19502,0.53421 0.43339,0.7976 l 0.43339,0.47889 -0.33714,0.40623 -0.33715,0.40624 -6.7693,-0.0705 -6.76931,-0.0705 -0.32875,-0.66146 c -0.1808,-0.3638 -0.44896,-0.84005 -0.5959,-1.05833 -1.52472,-2.26506 -2.39798,-3.68235 -2.39798,-3.89187 0,-0.1393 -0.35389,-0.60054 -0.78641,-1.02497 -0.43252,-0.42444 -0.7897,-0.91525 -0.79375,-1.09069 -0.004,-0.17543 -0.27524,-0.71627 -0.60266,-1.20185 -0.32742,-0.48559 -1.13109,-1.75824 -1.78593,-2.82812 -0.65485,-1.06988 -1.39899,-2.16615 -1.65365,-2.43616 -0.25466,-0.27001 -0.46302,-0.7057 -0.46302,-0.96819 0,-0.2625 -0.41672,-0.88117 -0.92604,-1.37482 -0.50933,-0.49366 -0.92605,-1.07264 -0.92605,-1.28662 v -0.38907 l -0.19843,0.19809 c -0.10914,0.10895 -0.25797,4.20669 -0.33073,9.10608 l -0.13229,8.90798 -5.56439,0.0712 -5.56439,0.0712 z m 20.43837,-28.25355 c 0.80522,-0.7954 1.46404,-1.63584 1.46404,-1.86766 0,-0.23182 0.17481,-0.65261 0.38846,-0.93508 l 0.38846,-0.51359 v -1.19063 -1.19062 l -0.38846,-0.51359 c -0.21365,-0.28248 -0.38846,-0.71051 -0.38846,-0.95118 0,-0.70211 -2.34248,-2.37169 -3.32756,-2.37169 -0.16788,0 -0.60797,-0.23812 -0.97797,-0.52917 l -0.67273,-0.52916 h -2.35275 -2.35274 l -0.3175,0.3175 -0.3175,0.3175 V 506 v 5.62247 l 0.37614,0.21159 0.37615,0.21158 3.31919,-0.13229 3.3192,-0.13229 z m 91.57304,28.3311 c -0.19907,-0.3221 -0.20158,-46.8981 -0.003,-47.09788 0.0877,-0.088 2.57532,-0.19641 5.52814,-0.24095 l 5.36877,-0.081 0.43061,0.43061 0.43061,0.43061 v 8.41946 8.41946 l 0.41851,0.1606 c 0.23018,0.0883 4.34567,0.1606 9.14552,0.1606 h 8.72701 l 0.51177,-0.2739 0.51177,-0.27389 v -8.55583 -8.55583 l 1.06354,-0.17007 c 1.45376,-0.23247 9.86473,-0.17495 10.26134,0.0702 l 0.31966,0.19756 -0.0676,23.53142 -0.0676,23.53141 -5.15938,0.0751 c -2.83766,0.0413 -5.42727,0.009 -5.75469,-0.0712 l -0.59531,-0.14626 -0.004,-9.32152 -0.004,-9.32152 -0.21213,-0.33417 -0.21212,-0.33416 -9.37497,0.0696 -9.37497,0.0696 -0.0696,9.36974 -0.0696,9.36973 -0.29355,0.35371 -0.29354,0.3537 h -5.50824 -5.50824 z m 61.26078,-0.12814 -0.30126,-0.363 0.0704,-23.19461 0.0704,-23.19461 0.39687,-0.24561 0.39688,-0.24562 13.69485,-0.0136 c 7.53217,-0.008 13.99131,0.0607 14.35365,0.15169 l 0.65879,0.16535 v 4.46923 4.46924 l -0.7276,0.0122 c -0.40018,0.007 -4.27767,0.0544 -8.61663,0.10586 -4.33896,0.0515 -7.93514,0.13975 -7.9915,0.19611 -0.082,0.082 -0.18958,6.85025 -0.13903,8.74401 l 0.0123,0.45925 8.26823,0.0699 8.26823,0.0699 v 4.36562 4.36563 l -8.20208,0.14567 c -4.51115,0.0801 -8.2346,0.16942 -8.27434,0.19844 -0.0397,0.029 -0.0397,2.16612 0,4.74912 l 0.0722,4.69635 8.66511,0.0698 8.6651,0.0698 v 5.02347 5.02347 h -14.51962 -14.51968 z"
         id="path197" /></g></g><style
     id="style1">@media(prefers-color-scheme:dark){.lines{fill:#d7d7d7}}</style></svg>
