<?xml version="1.0" encoding="UTF-8" standalone="no"?>
<!-- Created with Inkscape (http://www.inkscape.org/) -->

<svg
   width="61.399414mm"
   height="81.224533mm"
   viewBox="0 0 61.399414 81.224533"
   version="1.1"
   id="svg1"
   xml:space="preserve"
   inkscape:version="1.4.4 (dcaf3e7, 2026-05-05)"
   sodipodi:docname="logos teams.svg"
   inkscape:export-batch-name="logos teams"
   inkscape:export-batch-path="Desktop"
   xmlns:inkscape="http://www.inkscape.org/namespaces/inkscape"
   xmlns:sodipodi="http://sodipodi.sourceforge.net/DTD/sodipodi-0.dtd"
   xmlns="http://www.w3.org/2000/svg"
   xmlns:svg="http://www.w3.org/2000/svg"><sodipodi:namedview
     id="namedview1"
     pagecolor="#ffffff"
     bordercolor="#000000"
     borderopacity="0.25"
     inkscape:showpageshadow="2"
     inkscape:pageopacity="0.0"
     inkscape:pagecheckerboard="0"
     inkscape:deskcolor="#d1d1d1"
     inkscape:document-units="mm"
     inkscape:zoom="0.69712823"
     inkscape:cx="489.14961"
     inkscape:cy="355.02794"
     inkscape:window-width="1920"
     inkscape:window-height="1050"
     inkscape:window-x="0"
     inkscape:window-y="30"
     inkscape:window-maximized="0"
     inkscape:current-layer="layer1"><inkscape:page
       x="0"
       y="0"
       width="61.399414"
       height="81.224533"
       id="page1"
       margin="0"
       bleed="0" /></sodipodi:namedview><defs
     id="defs1" /><g
     inkscape:label="Ebene 1"
     inkscape:groupmode="layer"
     id="layer1"
     transform="translate(-1248.2932,938.60855)"><path
       style="fill:#000000"
       d="m 1274.9263,-857.66386 c -12.7527,-1.7684 -22.3462,-10.18354 -25.9109,-22.7282 l -0.5662,-1.99253 -0.078,-28.11198 -0.078,-28.11198 h 30.6997 30.6997 v 27.08514 c 0,29.73302 0.022,29.2759 -1.605,33.93338 -4.6412,13.28857 -18.9643,21.89496 -33.1621,19.92617 z m 11.0868,-5.26889 c 8.5769,-2.33353 15.3902,-8.72986 17.95,-16.8515 0.9902,-3.14183 1.2323,-5.74324 1.2323,-13.24288 v -6.68767 h -4.8948 -4.8948 l -0.01,7.60677 -0.01,7.60678 -0.5915,1.73508 c -3.8795,11.37961 -18.6664,14.76065 -27.5693,6.30374 -4.0301,-3.82817 -4.6339,-5.88153 -4.6339,-15.75976 v -7.49261 h -4.9227 -4.9228 l 0.1288,8.13594 c 0.1344,8.48693 0.2632,9.58275 1.5247,12.97682 4.5064,12.12397 18.727,19.17373 31.6077,15.66929 z m 3.5094,-15.28465 c -0.997,-3.71592 -3.0056,-10.06374 -3.1378,-9.91641 -0.095,0.10613 -0.7434,1.48258 -1.4404,3.05877 -0.7904,1.78736 -1.3383,2.73324 -1.4558,2.51354 -0.1037,-0.19374 -1.1143,-3.92413 -2.2459,-8.28975 -1.1316,-4.36563 -2.1354,-8.02781 -2.2308,-8.13817 -0.095,-0.11037 -1.2354,3.60054 -2.5335,8.24646 -1.2981,4.64591 -2.4315,8.403 -2.5188,8.34908 -0.087,-0.0539 -0.5562,-1.41722 -1.0421,-3.02956 -0.4859,-1.61233 -0.9685,-2.83834 -1.0724,-2.72446 -0.168,0.1843 -3.6913,9.99527 -3.6913,10.27904 0,0.063 4.836,0.11448 10.7465,0.11448 h 10.7465 z m -17.5142,-23.75073 c 3.8165,-1.17366 5.0626,-6.06736 1.9543,-7.67474 l -0.7968,-0.41204 0.9335,-0.88045 0.9336,-0.88046 v -1.48935 -1.48935 l -0.9426,-1.04333 c -3.3299,-3.68584 -11.4928,-1.87911 -11.4928,2.54377 v 1.46137 l 0.9558,0.9558 c 0.6596,0.65966 0.8441,0.99256 0.5953,1.0744 -2.5272,0.83135 -2.8055,5.26589 -0.4364,6.95285 1.7686,1.25939 5.7067,1.67783 8.2961,0.88153 z m -4.7926,-3.42318 c -1.3394,-1.33939 -0.4014,-3.31932 1.5726,-3.31932 1.3866,0 2.2759,0.80783 2.2759,2.06757 0,1.83465 -2.4642,2.63612 -3.8485,1.25175 z m 0.6068,-6.00277 c -1.3498,-0.50315 -1.3115,-2.56653 0.058,-3.13386 1.4396,-0.59631 2.9189,0.19523 2.9189,1.56187 0,1.30468 -1.5287,2.11189 -2.9771,1.57199 z m 34.0963,9.32102 c 3.6273,-1.64721 3.8073,-7.59959 0.2864,-9.46856 -1.1271,-0.59826 -3.4946,-0.58816 -4.6412,0.0198 -1.0802,0.57276 -1.2148,0.46443 -0.9799,-0.78814 0.393,-2.09465 2.25,-3.05058 3.4993,-1.8013 l 0.6847,0.68476 1.8168,-0.18245 c 0.9992,-0.10035 1.8168,-0.23372 1.8168,-0.29639 0,-5.25014 -9.7583,-4.89055 -11.5017,0.42385 -2.5135,7.6617 2.7124,14.2723 9.0188,11.40845 z m -4.6417,-3.36596 c -1.3625,-1.7322 -0.039,-4.14792 1.9928,-3.63792 2.137,0.53636 1.6491,4.33506 -0.5568,4.33506 -0.6438,0 -1.0383,-0.19151 -1.436,-0.69714 z m -37.3254,-4.32994 v -7.9375 h -1.5282 -1.5282 l -0.5224,1.12448 c -0.5959,1.28293 -1.9668,2.3151 -3.075,2.3151 h -0.7546 v 1.5875 1.5875 h 1.5875 1.5875 v 4.63021 4.63021 h 2.1167 2.1167 z m 29.1041,6.35 v -1.5875 h 0.9261 0.926 v -1.7198 -1.71979 h -0.926 -0.9261 v -4.49791 -4.49792 l -2.3151,0.0162 -2.3151,0.0162 -3.6371,4.28327 -3.6371,4.28328 -9e-4,1.91823 -9e-4,1.91823 h 3.7041 3.7042 v 1.5875 1.5875 h 2.249 2.2489 z m -8.1509,-5.5052 c 3.4908,-4.82754 3.653,-4.91203 3.653,-1.90314 v 2.38125 h -1.9994 -1.9994 z m -14.5144,-11.50652 c 5.5894,-2.55888 3.8192,-7.37508 -3.3638,-9.15202 -3.2232,-0.79737 -3.8688,-1.11214 -3.8688,-1.88619 0,-1.04649 2.8476,-1.14106 3.8605,-0.1282 l 0.6615,0.66146 h 2.6338 c 2.8401,0 2.896,-0.0356 2.2067,-1.4022 -2.2847,-4.52972 -12.692,-4.73802 -14.55,-0.29121 -1.3848,3.31436 0.4388,5.31581 6.113,6.70938 3.8375,0.94246 4.3922,1.3403 3.3991,2.43767 -0.8547,0.94441 -3.6518,0.57006 -4.5978,-0.61533 -0.3599,-0.45106 -0.7062,-0.49956 -3.0848,-0.43206 l -2.6794,0.076 0.3503,1.01727 c 1.2301,3.5723 8.1602,5.18438 12.9197,3.00539 z m 16.4642,0.46132 c 7.0129,-1.93142 5.74,-7.67365 -2.1328,-9.62125 -3.3191,-0.82109 -4.162,-1.29787 -3.6729,-2.07759 0.5058,-0.80624 2.8557,-0.76965 3.6827,0.0573 l 0.6753,0.67523 h 2.6338 c 2.8873,0 2.907,-0.0146 2.1162,-1.56476 -2.4181,-4.73984 -13.7878,-4.29518 -14.7015,0.57497 -0.6062,3.23144 1.1136,4.82101 6.5155,6.022 2.7543,0.61235 3.6765,1.07485 3.6765,1.84375 0,1.46589 -4.4412,1.43246 -4.9075,-0.0369 -0.1379,-0.43446 -0.4632,-0.48901 -2.9156,-0.48901 h -2.7602 v 0.62176 c 0,3.27019 6.4662,5.46088 11.7905,3.99451 z m 19.5891,-7.52214 c 1.6589,-4.14484 3.0162,-7.62742 3.0162,-7.73906 0,-0.11164 -1.2805,-0.20299 -2.8455,-0.20299 h -2.8454 l -1.4167,4.56406 c -0.7791,2.51024 -1.5331,4.86172 -1.6754,5.22553 -0.2441,0.62383 -1.5426,-3.02022 -3.1348,-8.7974 l -0.2734,-0.99219 h -2.9286 c -2.2373,0 -2.8971,0.0781 -2.7955,0.33073 0.2274,0.56541 5.5249,14.0546 5.7704,14.69307 l 0.2322,0.60401 2.9401,-0.0748 2.9401,-0.0748 z"
       id="path170-7" /></g></svg>
