<?xml version="1.0" encoding="UTF-8" standalone="no"?>
<!-- Created with Inkscape (http://www.inkscape.org/) -->

<svg
   width="374.29733mm"
   height="150.97849mm"
   viewBox="0 0 374.29733 150.97849"
   version="1.1"
   id="svg1"
   xml:space="preserve"
   inkscape:version="1.4.4 (dcaf3e7, 2026-05-05)"
   sodipodi:docname="logos teams.svg"
   inkscape:export-batch-name="logos teams"
   inkscape:export-batch-path="Desktop/3 LIGA"
   xmlns:inkscape="http://www.inkscape.org/namespaces/inkscape"
   xmlns:sodipodi="http://sodipodi.sourceforge.net/DTD/sodipodi-0.dtd"
   xmlns="http://www.w3.org/2000/svg"
   xmlns:svg="http://www.w3.org/2000/svg"><sodipodi:namedview
     id="namedview1"
     pagecolor="#ffffff"
     bordercolor="#000000"
     borderopacity="0.25"
     inkscape:showpageshadow="2"
     inkscape:pageopacity="0.0"
     inkscape:pagecheckerboard="0"
     inkscape:deskcolor="#d1d1d1"
     inkscape:document-units="mm"
     inkscape:zoom="0.037190382"
     inkscape:cx="-4006.4122"
     inkscape:cy="-8779.1516"
     inkscape:window-width="1920"
     inkscape:window-height="1050"
     inkscape:window-x="0"
     inkscape:window-y="30"
     inkscape:window-maximized="0"
     inkscape:current-layer="layer1"><inkscape:page
       x="0"
       y="0"
       width="374.29733"
       height="150.9785"
       id="page1"
       margin="0"
       bleed="0" /></sodipodi:namedview><defs
     id="defs1"><style
       id="style1-7">
      .cls-1 {
        fill: #fff;
      }
    </style></defs><g
     inkscape:label="Ebene 1"
     inkscape:groupmode="layer"
     id="layer1"
     transform="translate(782.26411,2192.3133)"><path
       style="fill:#000000;stroke-width:5.15516"
       d="m -714.96761,-2041.6905 c -1.5002,-0.3248 -3.9386,-1.4343 -5.4181,-2.4693 -1.4801,-1.0353 -3.5308,-1.8821 -4.5572,-1.8821 -5.2593,0 -22.6822,-15.3217 -25.2045,-22.1647 l -0.8796,-2.3869 h -8.2946 -8.2941 l -3.6866,-1.9063 c -5.2128,-2.6957 -7.9688,-6.1718 -9.5719,-12.0744 l -1.3899,-5.115 1.3795,-4.9969 c 1.461,-5.2907 2.5101,-6.6697 7.9111,-10.4032 l 3.3719,-2.331 h 18.9232 18.9225 l 3.939,2.327 c 4.0443,2.3884 6.478,6.5315 9.451,16.0861 2.1734,6.9859 4.6463,9.7551 10.4113,11.6579 l 4.6376,1.53 5.4274,-0.9166 5.4278,-0.9171 v -1.6934 c 0,-1.5001 -22.7038,-20.665 -39.5405,-33.377 -3.3839,-2.5549 -8.6442,-6.857 -11.6899,-9.5604 -3.0456,-2.7028 -7.2651,-6.3578 -9.3773,-8.1224 l -3.8401,-3.2081 0.6353,-9.8928 0.6345,-9.8922 3.2102,-6.6768 3.2106,-6.677 6.9615,-6.8199 c 10.9516,-10.7289 25.0324,-16.4264 40.2479,-16.2855 l 8.8658,0.082 6.8198,2.3909 c 13.7808,4.8321 25.0243,13.655 30.06187,23.59 1.4573,2.8746 3.4493,6.2256 4.4267,7.4462 l 1.77695,2.2199 0.2784,12.8425 0.2783,12.8425 -2.28465,3.4885 c -2.9024,4.4314 -10.34077,7.988 -16.70637,7.988 h -4.9391 l -6.1074,-5.63 -6.1073,-5.6294 v -5.4171 c 0,-7.1827 -3.5813,-14.4045 -8.7566,-17.6585 l -4.2014,-2.642 -5.8522,0.5954 -5.8521,0.5954 -2.7549,2.4935 -2.755,2.4932 4.0865,3.4647 c 2.2477,1.906 5.814,4.8107 7.9256,6.4557 2.111,1.645 5.8557,4.8532 8.3214,7.1302 2.4658,2.2766 7.0693,5.9378 10.2299,8.1358 3.1607,2.1988 8.1725,6.5091 11.1383,9.5789 l 5.3919,5.5819 h 26.85932 26.85938 l 3.17144,3.2953 c 1.744,1.8121 4.46541,7.1827 6.04702,11.9347 l 2.87554,8.6395 4.52725,3.0689 4.52779,3.0688 h 5.5954 c 3.07711,0 6.51561,-0.6284 7.64098,-1.3708 l 2.04609,-1.35 -6.88575,-6.4718 c -3.78697,-3.5597 -12.30948,-10.7686 -18.93955,-16.0197 -19.21534,-15.2196 -36.82539,-29.7138 -38.01049,-31.2857 -1.4909,-1.976 -0.2887,-19.736 1.6238,-23.955 3.82568,-8.4487 8.49883,-14.7406 14.80307,-19.9308 l 6.81307,-5.6094 9.51849,-3.6368 c 5.23507,-2.0008 12.62034,-4.0046 16.41144,-4.4537 l 6.89296,-0.8165 10.02421,3.0121 c 18.06058,5.4269 27.90745,13.2436 35.22727,27.9642 l 4.37518,8.7983 0.21651,11.3774 0.21653,11.378 -2.28425,3.4859 c -6.5548,10.0036 -22.30484,10.4243 -30.60567,0.8177 l -2.88277,-3.3364 -0.61862,-7.4597 -0.61862,-7.4589 -2.63634,-3.5406 c -5.964,-8.011 -14.29887,-9.8891 -22.28319,-5.0222 l -4.64324,2.8313 3.2792,3.0234 c 1.80379,1.6632 6.6553,5.7759 10.7815,9.1396 12.64765,10.3114 13.72355,11.2223 23.63125,20.0151 l 9.60559,8.5251 h 19.46126 19.46176 l -2.01928,-6.4791 c -1.11044,-3.5633 -2.92247,-9.8547 -4.0267,-13.9809 -2.23579,-8.3524 -5.54334,-19.0153 -7.82759,-25.2333 -0.82638,-2.2503 -1.73781,-9.0144 -2.02443,-15.0305 l -0.52171,-10.9388 2.47809,-2.777 c 1.36302,-1.5275 3.99576,-3.8174 5.85059,-5.0881 l 3.3725,-2.3106 h 5.83049 5.83049 l 5.36807,4.8495 5.36806,4.85 0.93824,4.3571 c 0.5155,2.3962 1.71408,5.8912 2.66263,7.7668 0.94907,1.8754 2.09609,6.1011 2.54923,9.3905 0.45365,3.2897 1.3785,6.6652 2.05588,7.5019 0.67791,0.8367 2.32806,5.5108 3.66841,10.387 1.33983,4.8765 3.17661,10.6636 4.08133,12.8607 l 1.64553,3.9952 3.61068,-12.1791 c 1.98576,-6.6981 4.88759,-16.4753 6.44808,-21.7264 1.56097,-5.2515 4.14989,-13.1564 5.75315,-17.5672 l 2.91524,-8.0194 5.1665,-3.4487 5.1665,-3.4483 6.42746,0.093 6.42744,0.093 5.11444,5.7537 5.11495,5.7535 v 5.41 c 0,4.7871 -3.73801,20.0916 -6.75532,27.6563 -1.27591,3.1994 -4.93916,15.6243 -7.56675,25.665 -1.01763,3.8885 -2.27187,8.158 -2.78739,9.487 l -0.93669,2.4167 13.91893,-0.1692 13.91893,-0.1693 4.96286,4.0168 4.96287,4.017 1.03361,4.6479 c 0.56811,2.5559 0.6645,7.0486 0.21652,9.9828 l -0.81966,5.3352 -4.2757,3.922 c -5.78409,5.3051 -8.44518,5.8671 -27.77805,5.8671 h -16.6821 l -1.28776,3.4101 c -0.70832,1.8755 -2.29404,6.6038 -3.52457,10.5073 l -2.23734,7.0971 -4.73245,4.1555 c -2.60335,2.2854 -5.4789,4.2102 -6.39033,4.2768 -0.91194,0.067 -3.99112,0.1438 -6.84348,0.1711 l -5.18557,0.051 -4.89431,-3.4823 -4.89431,-3.4824 -2.6281,-7.2558 c -1.44602,-3.9906 -2.79976,-8.542 -3.00854,-10.1139 -0.21137,-1.5722 -0.81761,-3.5668 -1.35272,-4.433 l -0.97329,-1.5747 h -16.25216 -16.25163 l -2.20589,4.2653 c -5.23043,10.115 -16.65323,18.7575 -31.28151,23.6683 l -6.81977,2.2895 h -9.54785 -9.54788 l -6.81976,-2.3146 c -12.38114,-4.2015 -23.7261,-12.3225 -30.61494,-21.9152 l -4.33596,-6.0377 h -5.7429 -5.7428 l -2.52855,4.6948 c -1.3904,2.5821 -5.34287,7.5095 -8.78287,10.95 l -6.2547,6.2549 -8.8814,4.1956 -8.8809,4.1964 -12.994,0.2835 c -7.1472,0.1547 -14.2221,0 -15.7228,-0.3042 z m 33.4173,-11.5054 7.5017,-3.3497 6.3008,-6.7749 c 3.4653,-3.7262 7.1177,-9.035 8.1168,-11.7976 l 1.8161,-5.0233 h 12.66102 12.66056 l 3.32715,6.5656 c 6.48672,12.8009 19.42979,21.3574 34.72721,22.956 l 8.25494,0.8629 8.29724,-1.6326 c 13.87407,-2.7297 25.35668,-11.4743 30.73918,-23.4106 l 2.40849,-5.3413 h 22.79765 22.79767 l 2.82811,7.8431 c 1.55584,4.3134 3.27302,9.666 3.81638,11.894 1.05681,4.3366 5.28041,9.3959 8.88749,10.6464 l 2.20898,0.7655 4.14783,-2.5223 c 2.28169,-1.3879 4.54892,-3.9464 5.03814,-5.6856 0.48976,-1.74 1.39706,-4.3908 2.01723,-5.8913 0.62068,-1.5001 1.87287,-5.4898 2.78326,-8.8659 0.91041,-3.3755 2.28064,-6.9049 3.04515,-7.8425 l 1.38983,-1.7055 h 18.99678 18.99622 l 3.86431,-1.998 3.86431,-1.9982 0.92793,-3.6987 0.92845,-3.6984 -2.6178,-3.5102 -2.6183,-3.5096 -18.6096,-0.3814 -18.61013,-0.3816 v -3.3895 c 0,-1.8645 0.58151,-4.4561 1.29241,-5.7588 0.71037,-1.3022 2.59716,-6.9718 4.19269,-12.5982 1.595,-5.6263 5.29486,-17.9018 8.22144,-27.279 2.92709,-9.3773 5.72584,-19.071 6.2197,-21.542 l 0.89802,-4.4915 -3.14825,-3.351 -3.14773,-3.3508 h -3.55089 c -4.40404,0 -9.61334,3.5018 -9.61334,6.463 0,1.2192 -1.48366,6.5548 -3.29671,11.8574 -1.8136,5.3026 -4.32726,13.3236 -5.58665,17.8244 -1.25941,4.5016 -3.42407,11.56 -4.81028,15.6856 -1.38622,4.1264 -2.92195,9.6506 -3.41324,12.2761 -0.48973,2.6254 -1.75326,6.1331 -2.80491,7.7946 -1.05166,1.6614 -1.92133,4.4237 -1.93267,6.1382 0,1.7142 -0.56346,3.9737 -1.22642,5.0206 l -1.20527,1.9039 -1.87957,-0.7213 -1.87905,-0.7211 -2.60439,-10.0413 c -1.43263,-5.5228 -3.40705,-11.5789 -4.38807,-13.4585 -0.98052,-1.8792 -1.7873,-4.5159 -1.79194,-5.86 0,-2.2218 -1.53211,-7.6187 -7.78583,-27.5645 -1.1759,-3.751 -2.31518,-8.0473 -2.5312,-9.5474 -0.2165,-1.5007 -1.26146,-5.1834 -2.32291,-8.1838 l -1.93008,-5.4563 -3.73131,-1.8275 -3.7313,-1.8274 -3.29209,0.8264 c -1.81101,0.4536 -4.3391,2.4234 -5.61809,4.3761 l -2.32601,3.5499 2.21208,6.3171 c 1.21661,3.4745 2.63172,8.6257 3.14516,11.447 0.51552,2.8214 1.47747,5.4665 2.14249,5.8774 0.66552,0.4125 1.20939,2.2229 1.20939,4.0257 0,1.8033 1.1393,6.5238 2.53222,10.4902 1.39241,3.9669 3.63129,10.8949 4.97576,15.3959 1.34446,4.501 2.71317,7.4116 3.04155,6.4672 0.59542,-1.7111 -2.30075,-12.1255 -11.28206,-40.5665 -5.45675,-17.2785 -5.6908,-19.8432 -2.10796,-23.0854 l 2.61574,-2.3672 3.18125,0.4485 3.18125,0.4486 2.28475,4.7741 c 1.25683,2.6255 3.23797,8.1497 4.40354,12.2755 2.84875,10.0861 6.8538,23.6019 9.70047,32.7353 1.2862,4.1261 2.63221,9.3432 2.99206,11.5938 0.36084,2.2502 1.10836,4.7057 1.66407,5.4558 0.55574,0.7501 2.1198,5.6604 3.47561,10.912 1.35581,5.2509 2.92556,10.1612 3.4885,10.9113 0.56243,0.7506 1.25168,2.5921 1.53056,4.0923 l 0.51037,2.7281 4.48808,-15.6856 c 2.4683,-8.6272 5.28198,-18.1411 6.2527,-21.142 2.94205,-9.0946 5.82892,-18.5662 8.93749,-29.3251 7.46673,-25.8392 9.5587,-30.0075 15.06338,-30.0075 h 3.7576 l 1.73728,2.0933 1.73781,2.0936 -1.76101,7.7956 c -2.07495,9.1876 -9.30145,32.6182 -11.17432,36.2305 -0.71864,1.3857 -0.97845,2.8473 -0.5779,3.2483 0.4021,0.402 0.10827,1.8878 -0.65058,3.305 -0.75832,1.4172 -2.5255,7.014 -3.92719,12.4372 -1.4017,5.4233 -2.9735,10.9351 -3.49315,12.2477 l -0.94442,2.3869 h 19.33132 19.33135 l 2.63788,1.4119 2.63842,1.4121 v 2.9333 c 0,1.613 -1.33468,4.3535 -2.96576,6.0896 l -2.96576,3.1572 h -21.48878 -21.48928 l -1.61098,7.761 c -0.88617,4.269 -2.1064,8.7189 -2.71109,9.8891 -0.6047,1.1697 -1.84865,4.1453 -2.76421,6.6121 -0.91554,2.4668 -2.86575,5.1279 -4.3329,5.9129 l -2.6678,1.4281 -3.18898,-0.8007 -3.18847,-0.8001 -4.18598,-12.8771 c -2.30229,-7.082 -4.18599,-13.8327 -4.18599,-15.0014 v -2.1239 h -25.19379 -25.19325 l -3.29467,7.2027 -3.29466,7.2027 -5.58097,5.0419 c -6.26352,5.6587 -12.8379,8.7889 -22.24709,10.5922 l -6.37642,1.2218 -7.76057,-1.2631 c -15.44125,-2.513 -27.6301,-11.4315 -32.81826,-24.0116 l -2.50437,-6.0732 -14.36533,0.3814 -14.36532,0.3816 -3.3632,6.7898 c -1.8502,3.7344 -6.1733,9.5849 -9.6072,13.0008 l -6.2435,6.2103 -7.2585,2.3447 -7.2579,2.3439 -9.7324,-9e-4 h -9.732 l -8.8658,-4.1824 -8.8658,-4.1824 -4.3654,-5.023 c -2.4008,-2.7633 -5.4418,-7.6324 -6.7584,-10.8209 l -2.3931,-5.7968 h -11.7234 -11.7232 l -1.6368,-1.6368 c -2.3172,-2.3172 -2.03,-8.6871 0.5052,-11.2234 l 2.143,-2.1434 h 15.4913 15.4907 l 2.1074,2.1074 c 1.1589,1.1588 2.7869,4.633 3.6184,7.7193 3.3581,12.4713 10.4753,19.0004 22.8735,20.9826 l 5.5031,0.88 7.0945,-1.7018 7.0945,-1.7023 5.2769,-5.2768 c 4.8237,-4.8231 6.8635,-9.3685 4.2045,-9.3685 -0.5897,0 -3.8122,-2.4831 -7.1605,-5.5175 -3.3488,-3.0349 -9.4644,-8.0549 -13.5905,-11.1558 -4.1257,-3.1013 -13.6937,-10.8989 -21.262,-17.329 -7.5683,-6.4301 -16.6218,-14.0231 -20.1185,-16.8733 l -6.3584,-5.183 v -4.167 c 0,-9.9535 11.8672,-26.1279 23.1874,-31.6021 l 6.1377,-2.9684 h 13.6401 13.6395 l 5.5418,2.955 c 7.4183,3.9551 15.0593,11.9222 19.234,20.055 l 3.4215,6.6663 0.7279,7.0531 0.7279,7.0534 -2.307,2.3075 -2.3074,2.3068 h -3.9463 -3.9468 l -1.3681,-2.5568 c -0.7533,-1.4065 -1.7807,-5.2429 -2.2839,-8.5251 -2.2816,-14.8768 -13.1137,-24.42 -27.6409,-24.351 l -6.312,0.051 -5.5526,2.522 -5.5521,2.5219 -4.3365,5.2604 c -2.3853,2.8935 -4.3365,6.5625 -4.3365,8.1538 v 2.8926 l 11.2526,8.9062 c 22.5925,17.881 35.8964,28.725 39.9303,32.548 l 4.1262,3.9101 27.24502,0.3712 27.24557,0.3713 2.22034,6.6955 c 3.72408,11.2268 6.8945,15.8336 14.1473,20.5557 l 4.09164,2.6642 h 10.2299 10.2299 l 4.27002,-2.271 c 6.94451,-3.6925 14.71179,-14.6391 10.39229,-14.6458 -0.56243,-9e-4 -2.64615,-1.3821 -4.62986,-3.0693 -1.9837,-1.6868 -7.7549,-6.443 -12.82449,-10.5691 -5.07009,-4.1257 -15.01955,-12.412 -22.10994,-18.4132 -7.09041,-6.0017 -16.56303,-13.6148 -21.05007,-16.9188 l -8.15855,-6.0066 0.74594,-6.0909 c 2.43221,-19.8598 20.14173,-34.3386 42.06043,-34.3881 h 9.15556 l 7.40693,2.7714 7.40693,2.7714 6.15733,6.5828 c 7.90698,8.4528 11.59654,15.786 12.71005,25.2606 l 0.89081,7.5812 -1.71616,2.0678 -1.71615,2.0677 h -4.5587 -4.55923 l -1.29343,-2.4171 c -0.71141,-1.3297 -1.87545,-5.6167 -2.58635,-9.5274 l -1.29187,-7.1094 -3.2591,-4.7614 -3.25857,-4.7612 -6.3228,-3.4433 -6.32228,-3.443 h -6.65532 -6.65583 l -5.4356,2.8023 c -2.98947,1.5415 -7.43013,5.0197 -9.86852,7.7292 l -4.43291,4.9268 v 2.9759 2.9762 l 11.75737,9.4132 c 23.1915,18.568 28.78177,23.1468 36.0557,29.5319 l 7.38114,6.479 h 29.5798 29.57978 l -1.38108,-5.115 c -0.75934,-2.813 -2.0172,-5.7287 -2.79563,-6.4788 l -1.41458,-1.3641 0.77379,5.1149 0.77379,5.1149 h -27.25068 -27.25121 l -10.51342,-8.9736 c -17.34815,-14.8076 -22.61621,-19.1905 -32.12541,-26.7294 l -9.07721,-7.1961 v -3.7839 -3.7839 l 2.65543,-2.6555 c 1.46045,-1.4604 4.68242,-3.7363 7.16052,-5.0576 l 4.50561,-2.4024 8.28331,-0.056 8.28331,-0.056 5.68355,3.7611 5.68306,3.7608 2.06257,4.9366 c 1.13465,2.7152 2.96215,8.3823 4.06176,12.5931 l 1.99968,7.6558 2.35023,1.7192 c 3.37457,2.4668 7.85286,2.1204 11.56715,-0.896 l 3.21992,-2.6145 -0.28869,-9.1185 c -0.15977,-5.0149 -0.84185,-9.8227 -1.51718,-10.6842 -0.67479,-0.8609 -1.61046,-3.175 -2.07958,-5.1417 -1.18002,-4.9536 -13.97616,-18.0419 -21.12738,-21.6109 l -5.91813,-2.9534 -9.23547,-0.7743 -9.23598,-0.7742 -7.35177,1.7367 -7.35177,1.7362 -6.93163,4.5639 c -8.88441,5.8495 -10.40156,7.5971 -15.47528,17.8251 l -4.1901,8.4481 v 5.1912 5.1914 l 3.73851,2.9487 c 2.05587,1.6218 8.54571,6.8387 14.42157,11.5934 55.4726,44.8907 52.69655,42.0161 46.75882,48.4198 l -3.25443,3.5096 -7.10743,1.8436 -7.10793,1.844 -6.45272,-1.3842 -6.45271,-1.3837 -4.66747,-3.8818 c -4.85772,-4.0395 -8.62252,-10.3464 -10.04432,-16.828 -0.4588,-2.0821 -2.04247,-4.9974 -3.52406,-6.479 l -2.69306,-2.693 h -25.19327 -25.19322 l -11.975,-9.6773 c -6.5862,-5.3221 -18.573,-14.9845 -26.6377,-21.4712 l -14.6623,-11.7945 v -3.1694 c 0,-4.9515 2.1703,-7.8605 8.7364,-11.7084 l 6.0707,-3.5581 h 7.4456 7.4461 l 6.6332,4.433 6.6326,4.4329 3.1937,10.2298 c 1.7558,5.6263 3.7374,11.611 4.4035,13.2989 l 1.2105,3.0687 h 5.3861 5.3861 l 2.8916,-3.6761 2.892,-3.6767 -0.932,-7.5765 c -0.5104,-4.1669 -2.3106,-10.6448 -3.9953,-14.3963 l -3.0632,-6.8197 -6.6403,-6.265 -6.6405,-6.2651 -7.0729,-2.9415 -7.0729,-2.9416 h -10.9593 -10.9594 l -7.2012,3.3075 c -3.9607,1.8199 -9.6855,5.4435 -12.7214,8.0535 l -5.5196,4.7448 -4.5056,8.5946 -4.5052,8.5946 v 4.602 4.6017 l 3.2056,3.441 c 1.763,1.8929 8.7781,7.6395 15.5891,12.7708 6.811,5.131 13.2076,10.3217 14.2139,11.5342 1.0068,1.213 5.5613,5.0371 10.1216,8.4978 11.6481,8.8406 25.3397,21.2382 25.3407,22.9465 0,0.7903 -1.9945,3.3648 -4.4324,5.7203 l -4.4329,4.2833 -6.1326,1.3708 -6.1331,1.3708 -6.113,-1.3702 c -10.5603,-2.3662 -18.2152,-10.3991 -21.0176,-22.0538 -0.5,-2.0821 -2.1224,-4.9978 -3.6034,-6.4791 l -2.6931,-2.6929 h -15.1345 -15.1341 l -3.8745,2.2882 -3.8741,2.289 -0.8316,3.3117 -0.8309,3.3117 2.1254,3.2436 c 2.4663,3.7638 5.0025,4.5072 17.0058,4.9839 l 8.7768,0.3507 3.9601,6.8197 c 4.3876,7.5553 11.6151,15.6856 13.9442,15.6856 0.8279,0 2.2574,0.7522 3.1761,1.6708 0.9191,0.9191 4.8778,2.7601 8.7978,4.091 l 7.127,2.4204 10.2294,-0.5371 10.2299,-0.5378 z m -3.5396,-7.1316 c 2.9297,-1.4264 7.6188,-4.7803 10.4212,-7.4527 l 5.0944,-4.8593 1.7528,-6.1379 c 0.964,-3.3755 2.3342,-6.9046 3.0446,-7.8425 l 1.2924,-1.7052 h 18.67602 18.6756 l 2.29867,4.82 c 1.26405,2.6513 2.2987,5.6361 2.2987,6.6337 0,0.997 2.94669,4.5691 6.54756,7.9373 l 6.54808,6.1249 7.82502,2.9276 c 9.43498,3.5303 13.33794,3.637 22.91056,0.6268 l 7.31775,-2.3006 6.18413,-5.0815 c 6.78213,-5.5726 8.64364,-8.5322 10.8681,-17.2817 l 1.48056,-5.8232 29.42514,0.366 29.42513,0.3661 4.95514,14.9009 c 2.72552,8.1958 5.63303,15.1223 6.46096,15.3918 l 1.5053,0.4896 3.7576,-13.3456 c 2.06618,-7.3399 4.70667,-14.42 5.86658,-15.7324 l 2.10948,-2.3874 21.95324,-0.2886 21.95325,-0.2888 -21.82386,-0.7346 -21.82332,-0.7346 -0.4485,-3.155 c -0.24745,-1.7353 0.5052,-6.0316 1.66615,-9.5478 2.91575,-8.8221 8.10545,-26.7048 7.98997,-27.5342 -0.0515,-0.3765 0.73875,-2.6777 1.75739,-5.1161 2.57191,-6.1553 10.18712,-32.9858 10.1201,-35.6571 -0.0877,-3.6103 -6.65066,12.5042 -6.70995,16.4821 -0.0515,2.0188 -0.67895,4.0559 -1.44138,4.5272 -0.76245,0.4691 -1.08878,1.3373 -0.72586,1.9249 0.36602,0.5878 -0.55057,4.3815 -2.03062,8.4308 -1.48005,4.0489 -2.62604,7.362 -2.54664,7.362 0.56139,0 -4.79841,16.6775 -5.73923,17.857 -0.65317,0.8192 -0.87895,1.7977 -0.50521,2.1744 0.37632,0.3765 -0.30416,3.389 -1.51098,6.6941 -1.20786,3.3055 -2.33169,6.9305 -2.49819,8.056 -0.16505,1.1247 -0.67119,2.9663 -1.12279,4.0916 -1.18156,2.9457 -4.72522,14.7206 -6.4656,21.4826 l -1.49138,5.797 h -1.93578 -1.93576 l -2.85595,-9.8892 c -1.57078,-5.4387 -3.80606,-13.2643 -4.96803,-17.3904 -1.16146,-4.1262 -2.62398,-8.7293 -3.2493,-10.23 -0.62583,-1.5002 -1.74398,-4.8763 -2.48529,-7.5017 -0.74133,-2.6255 -2.39612,-8.4565 -3.67719,-12.9575 -1.28105,-4.501 -2.19351,-8.1839 -2.02699,-8.1839 0.16504,0 -0.63823,-2.4553 -1.78833,-5.4562 -1.15012,-3.0003 -3.13898,-9.4453 -4.42004,-14.3216 -1.28105,-4.8762 -2.85183,-9.4487 -3.49056,-10.1613 -0.63871,-0.713 -1.16095,-3.0147 -1.16095,-5.1148 v -3.819 h -2.19197 -2.19197 l 1.02691,2.3869 c 0.56449,1.3123 2.45333,7.1496 4.19682,12.9708 1.74347,5.8212 3.80244,11.765 4.57519,13.2091 0.77224,1.4434 1.40479,4.4705 1.40479,6.7258 0,2.2561 0.54438,4.4377 1.2094,4.8486 0.66501,0.4123 1.64088,3.0558 2.16826,5.8773 0.52788,2.8214 3.007,11.247 5.50932,18.723 2.50231,7.4766 4.25197,14.0746 3.88854,14.6629 -0.36086,0.5882 -15.40053,1.0696 -33.41523,1.0696 h -32.75433 l -9.78913,-7.512 c -5.38404,-4.1318 -12.85801,-10.1898 -16.6089,-13.4621 -3.75088,-3.272 -11.42332,-9.6763 -17.04966,-14.231 -5.62634,-4.555 -12.31154,-10.0607 -14.85562,-12.2347 l -4.62572,-3.9535 0.95938,-5.1155 0.95989,-5.1148 5.565,-6.0372 5.56499,-6.0378 6.11711,-2.706 6.11762,-2.7059 h 8.14516 8.14514 l 4.97989,2.2677 c 11.69912,5.327 18.11368,13.1993 20.00614,24.5515 0.47942,2.8786 1.21611,6.1548 1.63573,7.2801 l 0.76349,2.046 0.9604,-3.4101 0.96093,-3.4095 -2.73328,-7.5019 c -3.57459,-9.8118 -8.19928,-15.4381 -16.32588,-19.8607 l -6.62025,-3.6034 -7.84306,-0.711 -7.84356,-0.7115 -7.924,2.304 -7.92399,2.3033 -7.40642,7.4064 c -4.0731,4.0736 -7.05174,7.9803 -6.6182,8.6812 0.43303,0.7017 0.16505,1.6607 -0.59852,2.1318 -0.76243,0.4691 -1.3862,2.745 -1.3862,5.0531 v 4.1962 l 8.36114,7.658 c 4.59891,4.2117 9.35558,8.2329 10.57065,8.936 1.21559,0.7026 4.05144,3.0012 6.30166,5.1083 2.25075,2.1068 4.58862,3.8339 5.19538,3.8375 0.60625,0 3.73904,2.477 6.96152,5.497 3.22197,3.0197 8.91637,7.777 12.65437,10.5706 3.73749,2.7941 9.81182,7.9801 13.49776,11.5243 l 6.70221,6.4444 -3.12247,5.9161 -3.12249,5.9162 -7.63839,5.0298 -7.63839,5.0303 h -10.77584 -10.77634 l -5.74234,-2.8915 c -7.49043,-3.7709 -13.2539,-10.4201 -16.71921,-19.2875 l -2.79254,-7.1466 -25.33707,-0.6815 -25.33712,-0.682 -8.6973,-6.7007 c -4.7835,-3.6849 -10.8459,-8.6992 -13.4715,-11.1429 -2.6255,-2.4435 -8.8766,-7.7146 -13.891,-11.7136 -5.015,-3.9982 -12.8405,-10.284 -17.391,-13.9678 l -8.273,-6.6976 v -3.606 -3.6061 l 3.986,-6.2856 3.986,-6.2853 6.0222,-3.5291 c 3.3122,-1.9409 9.0375,-4.0983 12.7225,-4.7932 l 6.7006,-1.2647 6.5012,1.3822 6.5006,1.3815 6.429,4.3154 c 3.5355,2.3729 7.0791,5.6305 7.8735,7.2384 0.7949,1.6079 2.1493,3.7715 3.0097,4.8077 0.8599,1.0366 1.9909,5.1057 2.5131,9.042 0.5223,3.9366 1.4827,7.487 2.1338,7.8895 l 1.1841,0.7315 v -4.8267 c 0,-11.0521 -8.3757,-24.274 -18.6169,-29.3885 l -6.2275,-3.1106 -8.522,-0.6836 -8.5219,-0.6841 -5.3124,1.6965 c -10.3336,3.3004 -23.0436,13.9082 -23.0436,19.2319 0,0.5552 -0.4588,1.4697 -1.0228,2.0322 -0.5629,0.5628 -1.0233,2.9585 -1.0233,5.3243 v 4.3014 l 5.0846,3.9962 c 4.7783,3.7551 11.5614,9.5556 19.4282,16.6131 1.8816,1.6878 3.8401,3.0689 4.352,3.0689 0.5103,0 3.9757,2.7703 7.6961,6.1557 3.7205,3.3859 8.5251,7.4909 10.6764,9.1216 13.2704,10.0602 21.0187,16.8542 21.7115,19.0369 l 0.7944,2.5023 -2.9533,5.2547 -2.9535,5.2551 -7.6034,4.6077 -7.6028,4.6082 -9.3829,0.53 -9.3829,0.5305 -5.8135,-2.2204 -5.814,-2.2204 -5.5439,-5.4891 -5.5433,-5.4888 -2.9663,-8.1342 -2.9657,-8.1344 h -12.8849 -12.8842 v 2.0455 2.0461 h 12.0202 12.0203 l 3.0266,6.9323 c 3.7566,8.6028 10.4372,15.6134 18.936,19.8709 l 6.5099,3.2613 10.2299,-0.4177 10.2294,-0.4176 z"
       id="path281"
       sodipodi:nodetypes="cccssscccsccssccccsccccsssscccccsscssscccsscccsscccccssscccccsscccsscscccsccscsscccsscccsccscscccsssscssccccccssscscssscccccccsssccccccsccsscsscccccccccscccsscccssccccsccccccccsscccsscsscccccsccscsscccccccccccssssscccssssscscscccsscsssccccccsccscsssscccccscsscccsscscccsssssscccccsscccsssccccsscccccsscssccccsccccccccccccsscccscscccssscsscsscccsscccccccccccccsscssccccscccssscsccsccccsscccccsscccccccsccccsscccsccccccsscccsscccccssccsccscscccccsccccscscccccscsccccccssccccccsccccccsccccccccscccccssscsscccssscccccccsccsssscccccccscccccsscsscsscccssccsccccccccsccccssscccsccccsscssssssscccsssscsscscsssscccccccccssscccssccccccccscccscscscccccccssccccscscccccsccccsscsscsscccsscscsssscscccccccccccccccccccsscccc" /></g><style
     id="style1">@media(prefers-color-scheme:dark){.lines{fill:#d7d7d7}}</style></svg>
