<?xml version="1.0" encoding="UTF-8" standalone="no"?>
<!-- Created with Inkscape (http://www.inkscape.org/) -->

<svg
   width="41.4268mm"
   height="49.989658mm"
   viewBox="0 0 41.4268 49.989658"
   version="1.1"
   id="svg1"
   xml:space="preserve"
   inkscape:version="1.4.4 (dcaf3e7, 2026-05-05)"
   sodipodi:docname="logos teams.svg"
   inkscape:export-batch-name="logos teams"
   inkscape:export-batch-path="Desktop"
   xmlns:inkscape="http://www.inkscape.org/namespaces/inkscape"
   xmlns:sodipodi="http://sodipodi.sourceforge.net/DTD/sodipodi-0.dtd"
   xmlns="http://www.w3.org/2000/svg"
   xmlns:svg="http://www.w3.org/2000/svg"><sodipodi:namedview
     id="namedview1"
     pagecolor="#ffffff"
     bordercolor="#000000"
     borderopacity="0.25"
     inkscape:showpageshadow="2"
     inkscape:pageopacity="0.0"
     inkscape:pagecheckerboard="0"
     inkscape:deskcolor="#d1d1d1"
     inkscape:document-units="mm"
     inkscape:zoom="0.69712823"
     inkscape:cx="489.14961"
     inkscape:cy="355.02794"
     inkscape:window-width="1920"
     inkscape:window-height="1050"
     inkscape:window-x="0"
     inkscape:window-y="30"
     inkscape:window-maximized="0"
     inkscape:current-layer="layer1"><inkscape:page
       x="0"
       y="0"
       width="41.4268"
       height="49.989658"
       id="page1"
       margin="0"
       bleed="0" /></sodipodi:namedview><defs
     id="defs1" /><g
     inkscape:label="Ebene 1"
     inkscape:groupmode="layer"
     id="layer1"
     transform="translate(-1129.6857,943.1803)"><g
       id="g175"><path
         style="fill:#faef33;fill-opacity:1;stroke-width:0.333999;stroke-opacity:0.478431"
         d="m 1131.9273,-934.24287 7.7572,-7.93761 c 0,0 8.6592,6.31401 23.1814,0.3608 0,0 7.4866,10.01221 7.8474,21.82842 0.3608,11.81621 -5.9532,17.85961 -14.5222,22.55002 0,0 -4.3296,2.0746 -5.3218,3.4276 0,0 -1.8942,-2.8864 -12.177,-7.93761 0,0 -9.3808,-7.7572 -8.118,-22.64021 0,0 8.2984,-0.1804 1.353,-9.65141 z"
         id="path162-0"
         sodipodi:nodetypes="cccsccccc" /><path
         style="fill:#000000;stroke-width:0.314678"
         d="m 1151.0894,-893.24574 -0.066,0.0551 -0.3194,-0.3572 -0.3194,-0.35719 -0.4138,-0.39899 -0.4138,-0.39899 -0.3095,-0.25947 -0.3096,-0.25947 -0.4417,-0.3333 -0.4417,-0.33331 -0.378,-0.2526 -0.3781,-0.2526 -0.4983,-0.30602 -0.4983,-0.30602 -0.5144,-0.28256 -0.5143,-0.28256 -1.4306,-0.73045 -1.4306,-0.73045 -0.5144,-0.28236 -0.5143,-0.28237 -0.4019,-0.24169 -0.4018,-0.24168 -0.4019,-0.26172 -0.4018,-0.26171 -0.412,-0.29896 -0.4121,-0.29896 -0.4238,-0.33936 -0.4238,-0.33935 -0.4019,-0.36133 -0.4018,-0.36132 -0.4352,-0.44531 -0.4351,-0.44532 -0.3224,-0.3697 -0.3223,-0.3697 -0.2579,-0.32148 -0.2578,-0.32148 -0.3222,-0.434 -0.3221,-0.434 -0.3216,-0.48222 -0.3216,-0.48221 -0.224,-0.36971 -0.2241,-0.3697 -0.1561,-0.27326 -0.156,-0.27325 -0.3017,-0.57867 -0.3017,-0.57866 -0.2431,-0.53044 -0.243,-0.53044 -0.2333,-0.57878 -0.2333,-0.57877 -0.1945,-0.55084 -0.1944,-0.55084 -0.1977,-0.65459 -0.1978,-0.6546 -0.1719,-0.67806 -0.1719,-0.67805 -0.084,-0.3989 -0.084,-0.3989 -0.092,-0.48222 -0.092,-0.48222 -0.097,-0.62689 -0.097,-0.62688 -0.065,-0.57866 -0.065,-0.57867 -0.049,-0.57866 -0.049,-0.57867 -0.039,-1.05283 -0.039,-1.05283 0.041,-1.02071 0.041,-1.02071 0.018,-0.24915 0.018,-0.24914 0.3092,-1.1e-4 0.3092,-1.1e-4 0.3573,-0.0335 0.3573,-0.0335 0.366,-0.0748 0.366,-0.0748 0.2575,-0.0999 0.2575,-0.0999 0.2619,-0.16119 0.2619,-0.16119 0.1974,-0.1943 0.1973,-0.19428 0.1558,-0.23861 0.1557,-0.23861 0.1011,-0.24285 0.1011,-0.24285 0.064,-0.29693 0.064,-0.29693 0.019,-0.41792 0.02,-0.41792 -0.039,-0.33592 -0.039,-0.33591 -0.08,-0.30704 -0.08,-0.30705 -0.1305,-0.32802 -0.1306,-0.32802 -0.2718,-0.49176 -0.2719,-0.49175 -0.3145,-0.46858 -0.3145,-0.46859 -0.2856,-0.36726 -0.2855,-0.36726 -0.229,-0.27326 -0.2289,-0.27325 -0.34,-0.38578 -0.34,-0.38577 0.1025,-0.10014 0.1025,-0.10014 3.6488,-3.42246 3.6488,-3.42246 0.7716,-0.79346 0.7715,-0.79347 0.418,0.27503 0.4179,0.27502 0.3532,0.21224 0.3532,0.21225 0.5469,0.28303 0.547,0.28303 0.4537,0.19169 0.4538,0.19168 0.4303,0.16017 0.4303,0.16018 0.5947,0.18211 0.5948,0.18211 0.3375,0.0806 0.3376,0.0806 0.4573,0.093 0.4574,0.093 0.5714,0.0801 0.5713,0.0801 0.4823,0.0482 0.4822,0.0482 0.6751,0.0385 0.6751,0.0385 1.0448,-0.0199 1.0448,-0.0199 0.7555,-0.065 0.7555,-0.065 0.4983,-0.0657 0.4983,-0.0657 0.4822,-0.0811 0.4822,-0.0811 0.5947,-0.12466 0.5948,-0.12467 0.4018,-0.0962 0.4019,-0.0962 0.6269,-0.18095 0.6268,-0.18095 0.5466,-0.17892 0.5465,-0.17892 0.4983,-0.18561 0.4983,-0.18561 0.4735,-0.19571 0.4735,-0.1957 0.5213,-0.24171 0.5214,-0.2417 0.021,0.0242 0.021,0.0242 0.4654,0.75548 0.4654,0.75547 0.3055,0.51437 0.3055,0.51437 0.3735,0.66325 0.3734,0.66326 0.3518,0.65661 0.3518,0.65662 0.4011,0.80189 0.4012,0.8019 0.37,0.8037 0.3701,0.80369 0.3229,0.76087 0.3228,0.76087 0.2946,0.76616 0.2945,0.76616 0.2849,0.85192 0.2848,0.85192 0.1768,0.62688 0.1769,0.62689 0.1586,0.64296 0.1586,0.64296 0.1318,0.61456 0.1318,0.61456 0.1136,0.63921 0.1135,0.63921 0.08,0.58908 0.08,0.58908 0.063,0.63254 0.063,0.63254 0.033,0.51231 0.033,0.5123 0.02,0.87006 0.021,0.87005 -0.037,0.78763 -0.037,0.78762 -0.065,0.70726 -0.065,0.70725 -0.081,0.57867 -0.081,0.57866 -0.1117,0.61081 -0.1117,0.61081 -0.1126,0.49829 -0.1126,0.4983 -0.1137,0.43399 -0.1138,0.434 -0.1285,0.434 -0.1285,0.434 -0.1614,0.48221 -0.1613,0.48222 -0.1933,0.49718 -0.1934,0.49718 -0.2234,0.51548 -0.2234,0.51548 -0.3306,0.64296 -0.3306,0.64296 -0.2824,0.48222 -0.2825,0.48222 -0.3633,0.55266 -0.3634,0.55266 -0.3351,0.44393 -0.3352,0.44392 -0.2483,0.29927 -0.2482,0.29927 -0.4432,0.47228 -0.4432,0.47228 -0.4143,0.37473 -0.4143,0.37473 -0.225,0.18796 -0.2251,0.18797 -0.2732,0.21296 -0.2733,0.21297 -0.4179,0.29896 -0.4179,0.29897 -0.4051,0.26375 -0.4051,0.26375 -0.4468,0.27159 -0.4469,0.27158 -0.5465,0.30552 -0.5465,0.30551 -0.5465,0.28333 -0.5465,0.28333 -0.5144,0.2738 -0.5144,0.27381 -0.5143,0.28889 -0.5144,0.28889 -0.434,0.25792 -0.434,0.25792 -0.4983,0.32007 -0.4983,0.32007 -0.434,0.30771 -0.434,0.30772 -0.3536,0.27274 -0.3536,0.27274 -0.434,0.36984 -0.434,0.36985 -0.2894,0.27595 -0.2893,0.27596 z m -0.015,-1.58407 0.017,-4.4e-4 0.4179,-0.35623 0.4179,-0.35623 0.5697,-0.42984 0.5697,-0.42985 0.668,-0.44392 0.668,-0.44392 0.5465,-0.3254 0.5465,-0.3254 0.6591,-0.36839 0.659,-0.3684 0.9484,-0.49946 0.9483,-0.49947 0.5305,-0.2963 0.5304,-0.29629 0.434,-0.2604 0.434,-0.2604 0.5304,-0.35631 0.5305,-0.35631 0.3744,-0.27797 0.3744,-0.27797 0.3971,-0.32976 0.3972,-0.32977 0.5583,-0.54823 0.5584,-0.54823 0.3845,-0.44503 0.3844,-0.44503 0.3149,-0.42297 0.3149,-0.42296 0.3032,-0.46614 0.3032,-0.46615 0.211,-0.35363 0.211,-0.35362 0.1934,-0.35363 0.1934,-0.35363 0.1978,-0.39562 0.1978,-0.39562 0.2119,-0.47237 0.2119,-0.47238 0.176,-0.45007 0.1761,-0.45007 0.1428,-0.40185 0.1428,-0.40185 0.1407,-0.46614 0.1406,-0.46615 0.1137,-0.41792 0.1136,-0.41793 0.1167,-0.51436 0.1166,-0.51437 0.094,-0.51082 0.094,-0.51081 0.079,-0.55007 0.079,-0.55006 0.049,-0.48222 0.049,-0.48222 0.034,-0.41793 0.034,-0.41792 0.019,-1.1734 0.019,-1.1734 -0.037,-0.72333 -0.037,-0.72333 -0.065,-0.70725 -0.065,-0.70726 -0.08,-0.59473 -0.08,-0.59474 -0.081,-0.48222 -0.081,-0.48222 -0.1291,-0.62434 -0.1292,-0.62434 -0.156,-0.62943 -0.156,-0.62943 -0.1807,-0.62688 -0.1808,-0.62689 -0.1596,-0.49829 -0.1597,-0.49829 -0.1803,-0.51437 -0.1804,-0.51437 -0.3308,-0.83585 -0.3309,-0.83584 -0.3035,-0.69118 -0.3035,-0.69118 -0.3283,-0.70726 -0.3284,-0.70725 -0.4596,-0.90015 -0.4595,-0.90014 -0.2811,-0.51436 -0.2811,-0.51437 -0.1938,-0.33755 -0.1939,-0.33756 -0.2561,-0.434 -0.2562,-0.43399 -0.3712,-0.60278 -0.3713,-0.60277 h -0.045 -0.045 l -0.092,0.0478 -0.092,0.0478 -0.6374,0.26232 -0.6374,0.26231 -0.5786,0.20507 -0.5787,0.20506 -0.5626,0.174 -0.5626,0.17399 -0.4325,0.11611 -0.4327,0.1161 -0.6107,0.14384 -0.6108,0.14385 -0.5962,0.10955 -0.5961,0.10955 -0.5305,0.0822 -0.5304,0.0822 -0.434,0.0474 -0.434,0.0474 -0.6591,0.0561 -0.659,0.0561 -1.3502,0.001 -1.3502,10e-4 -0.5144,-0.0411 -0.5144,-0.0411 -0.45,-0.0491 -0.4501,-0.0491 -0.5465,-0.0804 -0.5465,-0.0804 -0.5626,-0.11229 -0.5626,-0.11228 -0.5737,-0.14565 -0.5737,-0.14566 -0.3747,-0.12209 -0.3746,-0.12209 -0.4983,-0.18503 -0.4983,-0.18502 -0.5626,-0.25467 -0.5626,-0.25466 -0.4501,-0.23527 -0.45,-0.23528 -0.3999,-0.22922 -0.3999,-0.22921 -1.1111,1.10176 -1.111,1.10177 -2.6882,2.50317 -2.6881,2.50318 0.3256,0.38961 0.3255,0.38962 0.2862,0.38406 0.2862,0.38407 0.2623,0.40356 0.2623,0.40356 0.1464,0.25718 0.1464,0.25718 0.1851,0.3697 0.1852,0.36971 0.1055,0.27325 0.1055,0.27326 0.082,0.29124 0.082,0.29125 0.052,0.28742 0.052,0.28742 0.019,0.50115 0.019,0.50115 -0.039,0.31862 -0.039,0.31862 -0.075,0.33755 -0.075,0.33756 -0.1013,0.26257 -0.1013,0.26257 -0.1805,0.30002 -0.1804,0.30002 -0.188,0.23066 -0.188,0.23067 -0.1687,0.14911 -0.1687,0.14911 -0.2572,0.17128 -0.2572,0.17129 -0.2372,0.1185 -0.2372,0.11849 -0.3736,0.1248 -0.3736,0.12481 -0.4018,0.0672 -0.4019,0.0672 -0.101,0.0153 -0.1011,0.0153 -0.024,0.56981 -0.024,0.56981 0.022,0.72333 0.022,0.72333 0.048,0.7394 0.048,0.7394 0.065,0.65904 0.065,0.65903 0.08,0.57866 0.08,0.57866 0.1124,0.62548 0.1124,0.62548 0.097,0.43541 0.097,0.4354 0.1125,0.45007 0.1125,0.45007 0.1604,0.55759 0.1605,0.55759 0.1625,0.48722 0.1626,0.48722 0.1913,0.51436 0.1912,0.51437 0.246,0.57866 0.246,0.57867 0.3779,0.75547 0.3779,0.75548 0.3079,0.5246 0.308,0.5246 0.2948,0.45591 0.2948,0.45592 0.2396,0.33755 0.2396,0.33755 0.2826,0.37166 0.2826,0.37166 0.3151,0.36683 0.3151,0.36684 0.3566,0.38668 0.3567,0.38669 0.447,0.40566 0.4471,0.40566 0.3054,0.2565 0.3054,0.25649 0.4501,0.336 0.45,0.33599 0.3054,0.2096 0.3054,0.2096 0.4983,0.30678 0.4983,0.30678 0.411,0.23021 0.411,0.23021 1.0035,0.51767 1.0035,0.51767 0.7587,0.39544 0.7587,0.39544 0.5433,0.31124 0.5433,0.31123 0.6041,0.39038 0.604,0.39037 0.489,0.35014 0.489,0.35013 0.2411,0.19508 0.2411,0.19507 0.3215,0.27972 0.3215,0.27972 0.2564,0.26006 0.2564,0.26007 z m -0.4976,-5.66881 -0.225,0.0108 -0.1286,-0.0426 -0.1286,-0.0426 -0.096,-0.0509 -0.096,-0.0509 -0.1028,-0.10722 -0.1029,-0.10723 -0.071,-0.16072 -0.071,-0.16073 0.022,-1.32266 0.022,-1.32267 0.048,-0.16107 0.048,-0.16107 0.1434,-0.15949 0.1434,-0.1595 0.1561,-0.0671 0.1561,-0.0672 0.2205,-0.0352 0.2204,-0.0352 0.2218,0.0344 0.2218,0.0344 0.1217,0.062 0.1216,0.062 0.099,0.0834 0.099,0.0834 0.088,0.17949 0.088,0.17949 0.012,0.34144 0.012,0.34144 -0.029,0.043 -0.029,0.043 -0.3902,0.018 -0.3901,0.018 v -0.29566 -0.29566 l -0.045,-0.0879 -0.046,-0.0879 -0.079,-0.0421 -0.079,-0.0421 -0.1,0.0516 -0.1,0.0516 -0.033,0.0619 -0.033,0.0618 v 1.25302 1.25303 l 0.099,0.0832 0.099,0.0832 h 0.048 0.048 l 0.062,-0.0331 0.062,-0.0331 0.049,-0.0939 0.049,-0.0939 v -0.30306 -0.30307 l -0.04,-0.0316 -0.04,-0.0317 -0.088,-0.0211 -0.088,-0.0211 v -0.28872 -0.28871 h 0.5465 0.5465 v 1.06088 1.06088 h -0.2384 -0.2385 l -0.054,-0.14279 -0.054,-0.14279 -0.081,0.096 -0.081,0.096 -0.1326,0.068 -0.1326,0.068 z m 2.8835,-0.13309 -0.2473,0.0101 -0.082,-0.0148 -0.082,-0.0148 -0.2056,-0.10293 -0.2057,-0.10293 -0.105,-0.13805 -0.105,-0.13805 -0.048,-0.16122 -0.048,-0.16122 -0.021,-0.23379 -0.021,-0.23378 0.2852,-0.0388 0.2853,-0.0388 0.1,-0.0176 0.1,-0.0176 0.057,0.29301 0.057,0.29301 0.081,0.0634 0.081,0.0633 h 0.041 0.041 l 0.099,-0.0832 0.099,-0.0832 -2e-4,-0.1177 -2e-4,-0.11769 -0.034,-0.12198 -0.034,-0.12198 -0.1347,-0.13788 -0.1347,-0.13789 -0.3721,-0.22908 -0.3722,-0.22908 -0.1525,-0.16311 -0.1526,-0.1631 -0.06,-0.13558 -0.06,-0.13557 -0.036,-0.19885 -0.036,-0.19884 0.031,-0.19165 0.031,-0.19165 0.07,-0.16379 0.071,-0.16379 0.1289,-0.11641 0.1288,-0.11641 0.1486,-0.0661 0.1486,-0.0661 0.2411,-0.014 0.2411,-0.014 0.1882,0.0664 0.1883,0.0665 0.1129,0.0862 0.113,0.0862 0.091,0.19638 0.091,0.19638 0.035,0.22109 0.035,0.22108 -0.016,0.0157 -0.016,0.0157 -0.3311,0.06 -0.3312,0.06 -0.036,5.3e-4 -0.036,5.4e-4 -0.04,-0.24564 -0.04,-0.24564 -0.078,-0.0778 -0.078,-0.0778 -0.072,0.022 -0.072,0.022 -0.04,0.032 -0.04,0.032 -0.032,0.11858 -0.032,0.11859 0.03,0.10384 0.03,0.10385 0.064,0.10334 0.064,0.10334 0.1549,0.11557 0.1549,0.11557 0.2704,0.15769 0.2703,0.15769 0.1768,0.16058 0.1768,0.16058 0.089,0.18814 0.089,0.18814 0.038,0.22463 0.038,0.22463 -0.022,0.17341 -0.022,0.17342 -0.096,0.19227 -0.096,0.19228 -0.1026,0.0868 -0.1027,0.0868 -0.1705,0.0784 -0.1705,0.0784 z m -4.7239,-0.0524 -0.088,-0.004 -0.3361,-0.0456 -0.336,-0.0456 -0.016,-0.0158 -0.016,-0.0158 0.249,-1.9521 0.2491,-1.95211 0.011,-0.0347 0.011,-0.0347 0.4071,0.0557 0.4072,0.0557 0.013,0.0134 0.013,0.0134 -0.1287,1.07479 -0.1287,1.0748 -0.1119,0.8883 -0.1119,0.88831 v 0.0199 0.0199 z m 6.514,-0.31767 h -0.013 l -0.3764,-1.26181 -0.3765,-1.26181 -0.1776,-0.63413 -0.1776,-0.63413 v -0.0441 -0.0441 l 0.6683,-0.18169 0.6683,-0.18168 0.1434,3.1e-4 0.1434,3.1e-4 0.1645,0.0766 0.1645,0.0766 0.084,0.11016 0.084,0.11016 0.1021,0.22281 0.102,0.22282 0.015,0.24968 0.015,0.24969 -0.053,0.14019 -0.053,0.14019 -0.062,0.0565 -0.062,0.0564 0.017,0.0279 0.017,0.0279 0.1026,7e-4 0.1026,6.9e-4 0.1285,0.059 0.1286,0.0591 0.055,0.0619 0.055,0.0619 0.085,0.1918 0.085,0.19179 0.061,0.23822 0.061,0.23821 -3e-4,0.19578 -3e-4,0.19579 -0.078,0.16845 -0.078,0.16845 -0.1533,0.0972 -0.1533,0.0972 -0.4833,0.15749 -0.4832,0.15749 -0.2285,0.0671 -0.2285,0.0671 z m 0.7448,-0.90015 h 0.1 l 0.094,-0.094 0.094,-0.094 -6e-4,-0.0587 -6e-4,-0.0587 -0.046,-0.19317 -0.045,-0.19317 -0.064,-0.15042 -0.065,-0.15042 -0.066,-0.0663 -0.066,-0.0663 h -0.098 -0.098 l -0.093,0.0479 -0.093,0.0479 0.1585,0.47449 0.1586,0.47448 0.015,0.0402 0.015,0.0402 z m -0.5571,-1.64003 0.01,5e-4 0.1146,-0.0547 0.1146,-0.0547 0.019,-0.0765 0.019,-0.0765 -0.02,-0.16974 -0.02,-0.16973 -0.045,-0.10901 -0.046,-0.109 -0.07,-0.0884 -0.07,-0.0884 -0.1343,5.1e-4 -0.1343,5e-4 -0.045,0.0284 -0.045,0.0284 0.136,0.44498 0.1359,0.44497 0.038,0.0239 0.038,0.0239 z m -8.6829,2.49636 v 0.004 l -0.4983,-0.14466 -0.4983,-0.14466 -0.012,-0.0115 -0.012,-0.0115 0.149,-0.89309 0.149,-0.89308 0.028,-0.25719 0.028,-0.25718 v -0.006 -0.006 l -0.5111,1.05317 -0.5111,1.05317 -0.5091,-0.16112 -0.509,-0.16113 v -0.0462 -0.0463 l 0.4065,-1.91686 0.4065,-1.91685 0.019,-0.0208 0.02,-0.0208 0.3697,0.11913 0.3697,0.11914 -0.01,0.12672 v 0.12672 l -0.1762,0.72333 -0.1762,0.72333 -0.053,0.27325 -0.053,0.27326 -0.015,0.0804 -0.015,0.0804 0.5455,-1.10478 0.5455,-1.10477 0.052,0.02 0.052,0.02 0.3516,0.10302 0.3516,0.10303 -0.017,0.0816 -0.017,0.0816 -0.1619,1.05736 -0.1619,1.05737 0.01,0.01 0.01,0.01 0.43,-1.04452 0.4299,-1.04451 0.019,-0.0114 0.019,-0.0114 0.3617,0.0842 0.3616,0.0842 v 0.0324 0.0324 l -0.7756,1.84908 -0.7755,1.84908 z m 11.667,-1.1168 -0.1299,-0.003 -0.1049,-0.0249 -0.105,-0.0249 -0.1258,-0.0833 -0.1259,-0.0833 -0.1015,-0.1475 -0.1015,-0.14749 -0.6727,-1.43376 -0.6727,-1.43375 0.01,-0.008 0.01,-0.008 0.3638,-0.16685 0.3638,-0.16685 0.01,0.0112 0.01,0.0112 0.6837,1.41451 0.6837,1.41451 0.064,0.0563 0.064,0.0563 h 0.1243 0.1243 l 0.052,-0.0796 0.052,-0.0796 -10e-5,-0.10522 v -0.10521 l -0.6952,-1.39605 -0.6951,-1.39604 0.025,-0.0239 0.025,-0.0238 0.3444,-0.1816 0.3443,-0.18159 0.7426,1.50505 0.7425,1.50505 0.028,0.14466 0.028,0.14467 -0.025,0.12859 -0.025,0.12859 -0.036,0.0901 -0.036,0.0901 -0.1669,0.16003 -0.1669,0.16002 -0.1949,0.0948 -0.1949,0.0948 -0.1916,0.0489 -0.1916,0.0489 z m -15.7216,-0.53406 -0.1286,0.0156 -0.08,-0.0141 -0.08,-0.0141 -0.1608,-0.0515 -0.1607,-0.0515 -0.2411,-0.13468 -0.2411,-0.13467 -0.3311,-0.20197 -0.3311,-0.20197 0.01,-0.0385 0.01,-0.0385 0.9645,-1.67706 0.9644,-1.67706 0.018,-2.7e-4 0.018,-2.6e-4 0.4319,0.22941 0.4319,0.22941 0.1447,0.0966 0.1446,0.0966 0.1565,0.14819 0.1564,0.14819 0.076,0.16074 0.076,0.16074 3e-4,0.18544 3e-4,0.18543 -0.1938,0.373 -0.1939,0.373 -0.3924,0.71141 -0.3923,0.71141 -0.1389,0.1392 -0.1388,0.1392 -0.1349,0.0585 -0.1349,0.0585 z m -0.2953,-0.74983 0.058,10e-4 0.06,-0.0323 0.06,-0.0323 0.4963,-0.87592 0.4962,-0.87592 0.052,-0.10288 0.052,-0.10289 v -0.10696 -0.10696 l -0.05,-0.0716 -0.05,-0.0716 -0.093,-0.048 -0.093,-0.048 h -0.032 -0.032 l -0.1583,0.28129 -0.1583,0.2813 -0.4744,0.86016 -0.4744,0.86016 0.044,0.0529 0.044,0.0529 0.097,0.042 0.096,0.042 z m 18.358,0.13929 -0.036,0.022 -0.032,-0.0398 -0.032,-0.0398 -1.0959,-1.6194 -1.096,-1.61939 0.017,-0.0283 0.017,-0.0283 0.571,-0.38126 0.571,-0.38126 0.1214,-0.04 0.1214,-0.0401 0.2025,0.0129 0.2025,0.0129 0.1796,0.11927 0.1797,0.11927 0.1452,0.18482 0.1452,0.18482 0.063,0.13285 0.063,0.13286 0.021,0.15993 0.021,0.15992 -0.068,0.15334 -0.068,0.15334 v 0.012 0.012 h 0.1296 0.1297 l 0.1195,0.0499 0.1195,0.0499 0.092,0.0867 0.092,0.0867 0.4327,0.5733 0.4327,0.57329 -0.011,0.008 -0.011,0.008 -0.3344,0.23518 -0.3344,0.23517 -0.035,-0.0469 -0.035,-0.0469 -0.4449,-0.60096 -0.4449,-0.60095 h -0.1053 -0.1053 l -0.085,0.0666 -0.085,0.0666 v 0.04 0.04 l 0.4549,0.64081 0.4549,0.64081 v 0.0367 0.0367 l -0.3054,0.22228 -0.3054,0.22228 z m -0.646,-2.42053 h 0.03 l 0.1093,-0.10931 0.1093,-0.1093 v -0.0856 -0.0856 l -0.087,-0.17781 -0.087,-0.17782 -0.1255,-0.12931 -0.1255,-0.12932 -0.1299,0.0174 -0.1299,0.0174 -0.076,0.076 -0.076,0.076 0.2791,0.40861 0.2792,0.40862 z m -20.019,1.47604 -0.1946,-0.003 -0.085,-0.0257 -0.085,-0.0257 -0.195,-0.10391 -0.1949,-0.10392 -0.1988,-0.1799 -0.1988,-0.17989 -0.092,-0.19405 -0.092,-0.19405 -10e-5,-0.15236 v -0.15236 l 0.062,-0.16325 0.062,-0.16325 0.1748,-0.23224 0.1748,-0.23225 0.827,-1.04347 0.8269,-1.04347 0.03,-0.011 0.03,-0.011 0.3065,0.24654 0.3065,0.24655 -0.03,0.0377 -0.029,0.0377 -0.8638,1.12518 -0.8639,1.12518 -0.075,0.14803 -0.075,0.14804 0.021,0.0845 0.021,0.0845 0.105,0.0649 0.1049,0.0649 h 0.083 0.083 l 0.9546,-1.24574 0.9547,-1.24573 0.026,-0.0291 0.027,-0.0291 0.3068,0.23063 0.3069,0.23064 v 0.0258 0.0259 l -0.1868,0.25484 -0.1867,0.25484 -0.8065,1.08046 -0.8065,1.08046 -0.1704,0.0849 -0.1704,0.0849 z m 23.0966,-1.08153 -0.1447,0.0166 -0.064,-0.0148 -0.064,-0.0148 -0.1107,-0.0346 -0.1107,-0.0346 -0.1597,-0.14814 -0.1596,-0.14815 -0.4373,-0.4983 -0.4373,-0.49829 -0.2603,-0.32206 -0.2604,-0.32207 -0.065,-0.128 -0.065,-0.12801 -0.023,-0.10781 -0.023,-0.10781 v -0.16889 -0.16889 l 0.07,-0.18605 0.07,-0.18605 0.2026,-0.20261 0.2026,-0.20261 0.1711,-0.0875 0.1711,-0.0875 0.1945,-6.3e-4 0.1945,-6.3e-4 0.2073,0.0985 0.2074,0.0985 0.1301,0.11347 0.1302,0.11347 0.092,0.13336 0.092,0.13336 -0.254,0.25546 -0.2539,0.25546 h -0.036 -0.036 l -0.1384,-0.1641 -0.1384,-0.1641 -0.1,-0.0608 -0.1,-0.0608 -0.1049,-1.2e-4 -0.105,-1.2e-4 -0.064,0.10448 -0.064,0.10448 -10e-5,0.0702 -10e-5,0.0702 0.1984,0.25125 0.1984,0.25126 0.2251,0.25718 0.2252,0.25718 0.3689,0.41024 0.369,0.41023 0.1,0.0266 0.1,0.0265 0.088,-0.0299 0.088,-0.0299 0.036,-0.12084 0.036,-0.12084 -0.041,-0.0771 -0.041,-0.0771 -0.1918,-0.24885 -0.1918,-0.24885 -0.1282,0.1015 -0.1282,0.1015 -0.1576,-0.17413 -0.1576,-0.17413 -0.029,-0.0496 -0.03,-0.0496 0.3874,-0.3523 0.3873,-0.35229 0.025,-0.01 0.025,-0.01 0.5709,0.63654 0.5709,0.63654 0.094,0.10126 0.095,0.10127 -0.022,0.0687 -0.022,0.0687 -0.1191,0.0789 -0.1192,0.0788 -0.1111,-0.0319 -0.1112,-0.0319 h -0.02 -0.02 l -0.02,0.14758 -0.02,0.14757 -0.061,0.13852 -0.061,0.13851 -0.1274,0.1274 -0.1274,0.1274 -0.1732,0.0809 -0.1732,0.0808 z m -25.1771,-0.42666 h -0.011 l -0.6382,-0.63886 -0.6383,-0.63885 0.51,-0.4958 0.51,-0.4958 0.9113,-0.88263 0.9114,-0.88263 0.024,-0.009 0.024,-0.009 0.276,0.30071 0.2761,0.30071 -1.1392,1.13882 -1.1392,1.13882 0.01,0.0236 0.01,0.0236 0.2813,0.3193 0.2813,0.3193 v 0.0297 0.0297 l -0.2219,0.21423 -0.2219,0.21424 z m 12.9896,-1.70431 -0.2446,0.22154 -0.1251,-0.1298 -0.1252,-0.12981 -0.3375,-0.27306 -0.3376,-0.27305 -0.4501,-0.29951 -0.45,-0.2995 -0.3376,-0.18577 -0.3375,-0.18576 -0.5787,-0.27976 -0.5787,-0.27975 -0.8679,-0.36962 -0.868,-0.36961 -0.434,-0.20069 -0.434,-0.20069 -0.434,-0.22718 -0.434,-0.22717 -0.2894,-0.17422 -0.2893,-0.17421 -0.3536,-0.24178 -0.3536,-0.24177 -0.1608,-0.13134 -0.1607,-0.13134 -0.3215,-0.28106 -0.3215,-0.28106 -0.3491,-0.38417 -0.3491,-0.38417 -0.082,-0.11526 -0.082,-0.11525 -0.019,6.2e-4 -0.019,6.3e-4 -0.1668,0.26583 -0.1668,0.26582 -0.1963,0.21425 -0.1963,0.21424 -0.2199,0.15994 -0.2199,0.15993 -0.1885,0.0943 -0.1886,0.0943 -0.1708,0.056 -0.1709,0.056 -0.012,-0.0116 -0.012,-0.0116 0.1115,-0.52952 0.1115,-0.52952 0.1263,-0.74007 0.1264,-0.74007 0.097,-0.72333 0.097,-0.72332 0.078,-0.73941 0.078,-0.7394 0.087,-1.01266 0.087,-1.01266 0.014,-0.0477 0.014,-0.0477 0.2486,0.48173 0.2486,0.48174 0.1888,0.32147 0.1887,0.32148 0.2254,0.33756 0.2253,0.33755 0.2419,0.32024 0.2419,0.32024 0.2793,0.32272 0.2793,0.32272 0.3653,0.35518 0.3654,0.35518 0.3054,0.25329 0.3054,0.25329 0.2391,0.17681 0.2391,0.17682 -0.062,0.0248 -0.062,0.0248 -0.9163,0.13358 -0.9162,0.13358 -0.01,0.008 -0.01,0.008 0.4263,0.41541 0.4263,0.41541 0.3054,0.22789 0.3054,0.22789 0.3294,0.19818 0.3294,0.19818 0.2865,0.12607 0.2865,0.12607 0.2681,0.0794 0.2682,0.0795 0.1608,0.0331 0.1607,0.0331 0.1209,0.0195 0.121,0.0195 0.3934,-1.4e-4 0.3934,-1.5e-4 0.2607,-0.05 0.2608,-0.05 0.2339,-0.0796 0.2339,-0.0796 0.2391,-0.12896 0.2391,-0.12896 0.1828,-0.14064 0.1828,-0.14064 0.2203,-0.23353 0.2203,-0.23354 0.1693,-0.26079 0.1694,-0.2608 0.1366,-0.27283 0.1366,-0.27283 0.1111,-0.28758 0.1111,-0.28757 0.1244,-0.48784 0.1245,-0.48784 0.064,-0.44663 0.064,-0.44664 0.032,-0.33755 0.032,-0.33756 0.033,-0.57866 0.033,-0.57866 0.031,-0.85192 0.031,-0.85192 0.022,-1.74403 0.022,-1.74403 h -0.9535 -0.9534 v -0.5737 -0.5737 l 0.4098,-0.0209 0.4099,-0.0209 0.5385,-1.3e-4 0.5385,-1.3e-4 v -0.25718 -0.25719 h -0.051 -0.051 l -0.245,-0.0981 -0.245,-0.0981 -0.1943,-0.11782 -0.1944,-0.11782 -0.2572,-0.25827 -0.2572,-0.25827 -0.1078,-0.18393 -0.1079,-0.18392 -0.079,-0.19613 -0.079,-0.19612 -0.049,-0.23076 -0.049,-0.23076 0.014,-0.41793 0.014,-0.41792 0.087,-0.25718 0.087,-0.25719 0.1249,-0.21145 0.1249,-0.21146 0.1507,-0.16762 0.1507,-0.16763 0.1806,-0.13757 0.1807,-0.13757 0.1768,-0.0998 0.1768,-0.0998 0.1769,-0.0656 0.1768,-0.0656 0.225,-0.0537 0.225,-0.0537 0.3537,6.3e-4 0.3536,6.3e-4 0.2411,0.0523 0.2411,0.0523 0.3215,0.15749 0.3215,0.15748 0.1826,0.1463 0.1826,0.1463 0.161,0.19351 0.1611,0.1935 0.115,0.20575 0.1151,0.20575 0.078,0.22973 0.078,0.22973 0.038,0.26106 0.038,0.26106 -0.02,0.26054 -0.02,0.26054 -0.067,0.24023 -0.067,0.24023 -0.1264,0.24286 -0.1263,0.24286 -0.1749,0.2107 -0.1749,0.21071 -0.1709,0.12692 -0.1708,0.12693 -0.093,0.0593 -0.093,0.0593 -0.3246,0.12237 -0.3245,0.12236 -0.01,0.23978 -0.01,0.23978 0.931,0.0118 0.9311,0.0118 0.023,0.0233 0.023,0.0233 0.016,0.54193 0.016,0.54193 -0.5399,0.0213 -0.5398,0.0213 h -0.431 -0.4311 l 0.019,0.68315 0.019,0.68314 0.032,2.13784 0.032,2.13783 0.033,0.45008 0.033,0.45007 0.064,0.48222 0.064,0.48222 0.099,0.49829 0.099,0.49829 0.1419,0.434 0.1419,0.434 0.1427,0.29357 0.1428,0.29357 0.1935,0.2894 0.1936,0.28939 0.2305,0.24685 0.2306,0.24685 0.1798,0.13739 0.1798,0.13738 0.2089,0.11498 0.209,0.11497 0.2748,0.0961 0.2749,0.0961 0.252,0.0382 0.2521,0.0382 0.3472,-6.3e-4 0.3473,-6.3e-4 0.1546,-0.0213 0.1546,-0.0213 0.3375,-0.0804 0.3376,-0.0804 0.3142,-0.12827 0.3143,-0.12826 0.2911,-0.16058 0.291,-0.16058 0.327,-0.22771 0.3269,-0.2277 0.2412,-0.19986 0.2411,-0.19986 0.2652,-0.27636 0.2652,-0.27635 v -0.0269 -0.027 l -0.9725,-0.12257 -0.9725,-0.12257 -0.024,-0.0217 -0.024,-0.0217 0.2172,-0.15881 0.2171,-0.15881 0.3852,-0.32167 0.3851,-0.32167 0.4038,-0.40185 0.4037,-0.40185 0.2426,-0.28933 0.2426,-0.28933 0.2259,-0.30541 0.2259,-0.3054 0.1816,-0.2816 0.1816,-0.2816 0.3454,-0.60247 0.3454,-0.60247 0.094,-0.23478 0.094,-0.23479 0.021,0.0419 0.021,0.0419 0.039,0.61082 0.039,0.61081 0.064,0.7394 0.063,0.7394 0.082,0.72333 0.082,0.72333 0.094,0.65309 0.094,0.65309 0.1142,0.63142 0.1141,0.63142 0.095,0.42713 0.095,0.42713 v 0.0146 0.0146 l -0.1695,-0.0583 -0.1695,-0.0583 -0.1761,-0.0885 -0.1761,-0.0885 -0.1929,-0.13678 -0.1929,-0.13678 -0.2439,-0.25538 -0.2439,-0.25538 -0.1618,-0.26289 -0.1618,-0.26289 -0.2042,0.24901 -0.2042,0.249 -0.4027,0.40364 -0.4028,0.40364 -0.3858,0.30689 -0.3858,0.30689 -0.2572,0.17759 -0.2571,0.17758 -0.4823,0.28195 -0.4822,0.28195 -0.4018,0.20199 -0.4019,0.202 -1.0852,0.46883 -1.0852,0.46883 -0.2489,0.11586 -0.249,0.11587 -0.3267,0.15341 -0.3267,0.15342 -0.477,0.26431 -0.477,0.26432 -0.4018,0.26724 -0.4019,0.26723 -0.225,0.18078 -0.225,0.18077 z m 0.083,-2.6517 0.3228,-0.25969 0.3052,-0.18925 0.3052,-0.18925 0.3215,-0.15143 0.3215,-0.15144 0.3127,-0.12278 0.3127,-0.12277 -0.3288,-0.13285 -0.3287,-0.13284 -0.2085,-0.10597 -0.2086,-0.10596 -0.1963,-0.12401 -0.1964,-0.124 -0.4156,-0.42626 -0.4157,-0.42626 -0.1092,-0.1527 -0.1092,-0.15271 -0.019,0.001 -0.019,10e-4 -0.1178,0.16986 -0.1179,0.16986 -0.1776,0.20809 -0.1777,0.20809 -0.251,0.21142 -0.251,0.21141 -0.209,0.13543 -0.2089,0.13543 -0.2893,0.1386 -0.2894,0.1386 -0.1853,0.0576 -0.1852,0.0576 0.025,0.0223 0.024,0.0223 0.3215,0.13508 0.3214,0.13507 0.3956,0.20544 0.3955,0.20545 0.2635,0.1732 0.2635,0.17321 0.2399,0.2067 0.24,0.20671 z m 0.4392,-17.06016 0.1589,-0.0978 0.1102,-0.14431 0.1101,-0.1443 0.068,-0.18172 0.068,-0.18172 -0.011,-0.24111 -0.011,-0.24111 -0.1,-0.20896 -0.1,-0.20896 -0.1502,-0.14816 -0.1502,-0.14817 -0.1693,-0.0829 -0.1693,-0.0829 -0.2105,-0.0366 -0.2104,-0.0366 -0.1842,0.034 -0.1841,0.034 -0.1893,0.085 -0.1893,0.085 -0.1635,0.17279 -0.1634,0.1728 -0.064,0.14534 -0.064,0.14534 -0.027,0.16813 -0.027,0.16813 0.027,0.17163 0.027,0.17163 0.068,0.14119 0.068,0.14119 0.1386,0.15332 0.1386,0.15333 0.098,0.0567 0.098,0.0567 0.091,-0.16672 0.091,-0.16672 0.1182,-0.0946 0.1181,-0.0946 0.1414,-0.016 0.1414,-0.0159 0.1285,0.0655 0.1285,0.0655 0.08,0.12286 0.08,0.12286 0.041,0.10233 0.041,0.10233 z m -5.5337,7.90204 -0.3054,0.0123 -0.2109,-0.0571 -0.2109,-0.0571 -0.1588,-0.11372 -0.1588,-0.11372 -0.1064,-0.20795 -0.1065,-0.20795 -0.019,-0.24921 -0.019,-0.24921 0.4627,0.009 0.4626,0.009 0.032,0.15187 0.032,0.15187 0.064,0.0643 0.064,0.0643 0.098,0.0197 0.099,0.0197 0.1023,-0.0861 0.1023,-0.0861 v -0.4499 -0.44989 l -0.024,0.0124 -0.024,0.0124 -0.15,0.071 -0.1501,0.071 -0.1657,0.0314 -0.1658,0.0314 -0.1451,-0.0325 -0.145,-0.0325 -0.1228,-0.0626 -0.1227,-0.0626 -0.1002,-0.12148 -0.1002,-0.12149 -0.065,-0.17482 -0.065,-0.17482 v -0.51636 -0.51636 l 0.051,-0.18487 0.051,-0.18485 0.084,-0.14357 0.084,-0.14357 0.1038,-0.0774 0.1037,-0.0774 0.1857,-0.0682 0.1857,-0.0682 0.2193,-0.0204 0.2193,-0.0204 0.2163,0.0377 0.2163,0.0377 0.1689,0.0632 0.1689,0.0632 0.1384,0.11843 0.1383,0.11843 0.092,0.19476 0.092,0.19475 v 1.35704 l 10e-5,1.35705 -0.07,0.18593 -0.07,0.18594 -0.1475,0.15412 -0.1474,0.15413 -0.225,0.083 -0.2251,0.083 z m -0.06,-2.33481 h 0.066 l 0.1093,-0.1093 0.1093,-0.1093 v -0.43288 -0.43288 l -0.069,-0.0874 -0.069,-0.0874 -0.068,-0.0254 -0.068,-0.0254 -0.08,0.0302 -0.08,0.0302 -0.072,0.0678 -0.072,0.0678 v 0.45721 0.45721 l 0.1136,0.0998 0.1137,0.0998 z m 9.3724,2.32937 -0.3271,0.0138 -0.1607,-0.0261 -0.1608,-0.0261 -0.1522,-0.0719 -0.1523,-0.0719 -0.1225,-0.11888 -0.1225,-0.11888 -0.079,-0.15908 -0.079,-0.15909 v -1.44666 -1.44666 l 0.095,-0.17216 0.095,-0.17217 0.1425,-0.12536 0.1424,-0.12537 0.208,-0.0643 0.2081,-0.0643 0.2132,-0.0189 0.2132,-0.0189 0.201,0.0333 0.2009,0.0333 0.1928,0.0865 0.1927,0.0865 0.1316,0.1427 0.1315,0.1427 0.064,0.14469 0.064,0.1447 0.015,0.16636 0.015,0.16636 -0.025,1.23847 -0.025,1.23846 -0.1059,0.21509 -0.106,0.21508 -0.1191,0.0982 -0.1191,0.0982 -0.1712,0.0641 -0.1712,0.0641 z m -0.017,-0.78899 0.054,-0.029 0.067,-0.0849 0.067,-0.0849 v -1.21013 -1.21014 l -0.048,-0.0681 -0.048,-0.0681 -0.092,-0.0322 -0.092,-0.0322 -0.097,0.0469 -0.097,0.0469 -0.036,0.0799 -0.036,0.0799 v 1.1808 1.18081 l 0.052,0.0747 0.052,0.0747 0.1,0.042 0.1,0.042 z m 2.9525,0.79067 -0.3054,0.0121 -0.184,-0.0291 -0.184,-0.0291 -0.1628,-0.07 -0.1628,-0.07 -0.1227,-0.13945 -0.1228,-0.13945 -0.061,-0.18559 -0.061,-0.18559 v -0.47313 -0.47314 l 0.085,-0.17345 0.085,-0.17344 0.162,-0.11341 0.162,-0.1134 -0.1118,-0.0691 -0.1118,-0.0691 -0.095,-0.14341 -0.095,-0.14343 -0.04,-0.21214 -0.04,-0.21214 0.02,-0.18165 0.02,-0.18164 0.032,-0.11363 0.032,-0.11363 0.091,-0.14356 0.091,-0.14355 0.1262,-0.0871 0.1262,-0.0871 0.209,-0.0541 0.209,-0.054 0.3214,-0.002 0.3215,-0.002 0.1929,0.0564 0.1929,0.0564 0.1493,0.10835 0.1492,0.10835 0.092,0.18702 0.092,0.18703 v 0.40271 0.4027 l -0.082,0.15989 -0.082,0.15988 -0.15,0.10114 -0.15,0.10115 0.091,0.0378 0.091,0.0378 0.082,0.0861 0.082,0.0861 0.072,0.16074 0.072,0.16074 0.013,0.31008 0.013,0.31008 -0.035,0.26045 -0.035,0.26046 -0.064,0.12523 -0.064,0.12523 -0.1335,0.11432 -0.1336,0.11433 -0.1971,0.068 -0.197,0.0681 z m -0.1032,-0.7558 h 0.095 l 0.085,-0.0666 0.085,-0.0666 v -0.44919 -0.4492 l -0.079,-0.0789 -0.079,-0.0789 -0.058,-0.004 -0.058,-0.004 -0.048,0.007 -0.048,0.007 -0.088,0.0837 -0.088,0.0837 v 0.41438 0.41439 l 0.094,0.094 0.094,0.094 z m 0.01,-1.83372 0.019,10e-4 0.1092,-0.0735 0.1092,-0.0735 0.01,-0.38893 0.01,-0.38894 -0.1,-0.084 -0.1,-0.084 h -0.047 -0.047 l -0.091,0.047 -0.091,0.047 -0.02,0.052 -0.02,0.052 v 0.33703 0.33704 l 0.033,0.0616 0.033,0.0616 0.088,0.0475 0.088,0.0475 z m -14.711,2.54098 h -0.4661 v -0.008 l -0.01,-0.008 -0.019,-1.54624 -0.019,-1.54625 -0.3215,0.0915 -0.3215,0.0915 -0.025,8e-5 -0.025,8e-5 0.01,-0.37451 0.01,-0.37451 0.1929,-0.0529 0.1929,-0.0529 0.1741,-0.095 0.1742,-0.095 0.114,-0.1527 0.114,-0.15271 h 0.3467 0.3468 v 2.13784 2.13784 z m -4.386,-4.82549 -0.1147,-0.003 -0.1768,-0.0392 -0.1768,-0.0393 -0.1768,-0.0579 -0.1769,-0.0579 -0.023,-0.0207 -0.023,-0.0207 0.1332,-0.38524 0.1331,-0.38525 v -0.008 l 0.01,-0.008 0.1808,0.0622 0.1809,0.0622 0.1459,0.0219 0.146,0.0219 0.08,-0.0526 0.08,-0.0526 v -0.0924 -0.0924 l -0.1161,-0.10193 -0.1161,-0.10193 -0.079,-0.03 -0.079,-0.03 h -0.1093 -0.1093 l -0.1538,0.0519 -0.1538,0.0519 -0.3467,0.1911 -0.3467,0.19111 -0.1998,0.0742 -0.1999,0.0742 -0.1668,0.0212 -0.1667,0.0212 -0.2296,-0.0479 -0.2295,-0.0479 -0.175,-0.0801 -0.1749,-0.0801 -0.1597,-0.16396 -0.1597,-0.16397 -0.053,-0.18143 -0.053,-0.18143 0.019,-0.2217 0.019,-0.2217 0.094,-0.20187 0.095,-0.20187 0.1214,-0.13444 0.1215,-0.13444 0.1474,-0.0866 0.1473,-0.0866 0.2411,0.003 0.2411,0.003 0.2572,0.10445 0.2572,0.10445 0.01,0.01 0.01,0.01 -0.119,0.3811 -0.119,0.3811 -0.01,0.009 -0.01,0.009 -0.2859,-0.11015 -0.286,-0.11016 -0.064,0.0409 -0.064,0.0409 -0.01,0.067 -0.01,0.067 0.037,0.069 0.037,0.069 0.1445,0.064 0.1446,0.0639 h 0.1394 0.1393 l 0.1554,-0.0685 0.1553,-0.0685 0.2894,-0.1745 0.2893,-0.1745 0.1929,-0.0688 0.1929,-0.0688 0.2572,-0.002 0.2571,-0.002 0.1631,0.0508 0.1631,0.0508 0.1707,0.0865 0.1707,0.0865 0.1567,0.14658 0.1567,0.14657 0.063,0.10225 0.063,0.10225 0.035,0.1638 0.035,0.16381 -0.034,0.18744 -0.034,0.18744 -0.1132,0.23055 -0.1132,0.23056 -0.1634,0.14686 -0.1634,0.14687 -0.1634,0.0485 -0.1635,0.0485 z m 23.2131,-0.33568 -0.06,0.0189 -0.1493,-0.42708 -0.1493,-0.42708 10e-4,-0.0317 10e-4,-0.0317 1.0276,-0.68981 1.0276,-0.68982 v -0.006 -0.006 l -0.1045,0.0245 -0.1045,0.0245 -0.1429,0.0394 -0.1429,0.0394 -0.6286,0.24143 -0.6287,0.24142 -0.2677,0.0971 -0.2677,0.0971 -0.025,-0.0281 -0.025,-0.028 -0.1719,-0.32836 -0.1719,-0.32836 0.014,-0.0121 0.015,-0.0121 2.0681,-0.76333 2.0681,-0.76333 0.01,0.0108 0.01,0.0108 0.1966,0.47958 0.1966,0.47958 -9e-4,0.0348 -10e-4,0.0348 -0.9275,0.64296 -0.9275,0.64296 0.01,0.006 v 0.006 l 1.0439,-0.33524 1.044,-0.33524 0.02,-6.3e-4 0.02,-6.3e-4 0.133,0.36523 0.1329,0.36524 v 0.0329 0.0329 l -0.056,0.0159 -0.056,0.0159 -1.9853,0.61259 -1.9853,0.6126 z m -22.2476,-1.92366 -0.2122,0.0106 -0.083,-0.027 -0.083,-0.027 -0.3514,-0.2022 -0.3514,-0.20221 -0.4983,-0.30499 -0.4983,-0.305 -0.4401,-0.30322 -0.44,-0.30322 -0.084,-0.11015 -0.084,-0.11014 -0.047,-0.11147 -0.047,-0.11147 v -0.14284 -0.14283 l 0.063,-0.20235 0.063,-0.20234 0.1823,-0.26841 0.1823,-0.2684 0.1645,-0.0939 0.1644,-0.0939 0.1407,-0.0211 0.1407,-0.0211 0.1649,0.037 0.1648,0.037 0.1768,0.0817 0.1769,0.0818 0.1845,0.11858 0.1846,0.11857 3e-4,0.0266 3e-4,0.0266 -0.1986,0.3431 -0.1985,0.3431 -0.01,0.0115 -0.01,0.0115 -0.3386,-0.18159 -0.3385,-0.18159 -0.097,0.0503 -0.097,0.0503 3e-4,0.0554 3e-4,0.0554 0.019,0.0712 0.019,0.0712 0.5511,0.35988 0.5511,0.35988 0.5805,0.34848 0.5806,0.34848 h 0.118 0.1181 l 0.02,-0.0804 0.02,-0.0804 -0.019,-0.0723 -0.019,-0.0723 -0.3699,-0.2507 -0.3699,-0.25071 0.2294,-0.34403 0.2294,-0.34403 0.013,-0.0151 0.013,-0.0151 0.1504,0.0794 0.1505,0.0794 0.2417,0.17931 0.2415,0.17931 0.1188,0.13222 0.1187,0.13222 0.05,0.16848 0.05,0.1685 v 0.0999 0.0999 l -0.05,0.19161 -0.05,0.1916 -0.084,0.14264 -0.084,0.14264 -0.1225,0.13287 -0.1224,0.13288 -0.1668,0.0908 -0.1669,0.0908 z m 21.194,-0.40564 h -0.01 l -0.046,-0.0723 -0.046,-0.0723 -0.1798,-0.2985 -0.1797,-0.2985 6e-4,-0.023 7e-4,-0.023 0.8592,-0.48852 0.8592,-0.48853 1.0354,-0.57717 1.0354,-0.57716 0.228,0.38632 0.228,0.38632 -0.01,0.009 -0.01,0.009 -0.5144,0.29764 -0.5144,0.29763 -1.3633,0.76703 -1.3634,0.76704 z m -0.5156,-0.87006 -0.027,-0.002 -0.4018,-0.48376 -0.4019,-0.48377 -0.1691,-0.20289 -0.1692,-0.20289 1.648,-1.34127 1.6479,-1.34127 0.052,-0.0448 0.052,-0.0449 0.5505,0.65952 0.5506,0.65952 v 0.0301 0.0301 l -0.2633,0.21784 -0.2633,0.21785 -0.2871,-0.31071 -0.2872,-0.31071 -0.3416,0.27767 -0.3417,0.27766 -0.042,0.0376 -0.042,0.0376 0.2425,0.2774 0.2426,0.27739 v 0.016 0.016 l -0.2553,0.19433 -0.2553,0.19434 h -0.031 -0.031 l -0.2396,-0.2547 -0.2396,-0.2547 -0.4147,0.33682 -0.4148,0.33683 0.01,0.0337 0.01,0.0337 0.2601,0.3211 0.26,0.3211 -0.044,0.0401 -0.044,0.0401 -0.2466,0.19811 -0.2467,0.19812 z m -19.2184,-0.48184 -0.033,-0.002 -0.7073,-0.6441 -0.7072,-0.64411 -0.922,-0.85541 -0.922,-0.85541 0.2906,-0.31516 0.2906,-0.31517 0.021,1.2e-4 0.021,1.2e-4 0.6108,0.52974 0.6108,0.52974 0.053,6.3e-4 0.053,6.3e-4 0.1016,-0.11563 0.1015,-0.11564 -0.01,-0.0393 -0.01,-0.0393 -0.6007,-0.55809 -0.6006,-0.55809 0.3082,-0.33284 0.3082,-0.33283 0.023,0.009 0.023,0.009 1.5953,1.48839 1.5954,1.48839 v 0.0386 0.0386 l -0.2966,0.31433 -0.2965,0.31432 -0.6887,-0.64384 -0.6887,-0.64384 h -0.019 -0.019 l -0.1413,0.14399 -0.1413,0.14399 0.014,0.011 0.014,0.011 0.5786,0.54103 0.5787,0.54102 0.1086,0.10426 0.1086,0.10426 -0.2849,0.32485 -0.2849,0.32485 z m 17.9869,-1.04993 -0.022,0.0253 -0.3347,-0.26004 -0.3347,-0.26005 -0.011,-0.0308 -0.011,-0.0308 0.1199,-0.16694 0.12,-0.16693 0.2883,-0.3359 0.2883,-0.3359 0.1411,-0.19156 0.141,-0.19156 v -0.0291 -0.0291 l -0.1107,-0.12008 -0.1107,-0.12009 -0.045,0.0482 -0.045,0.0482 -0.57,0.667 -0.57,0.66699 -0.2477,-0.19161 -0.2477,-0.1916 -0.1167,-0.10569 -0.1167,-0.10569 1.4068,-1.63954 1.4069,-1.63955 h 0.017 0.017 l 0.5621,0.44048 0.562,0.44048 0.1,0.15525 0.1,0.15524 0.036,0.16688 0.036,0.16688 -0.037,0.17876 -0.037,0.17876 -0.1597,0.23887 -0.1598,0.23887 -0.1351,0.11773 -0.1351,0.11772 -0.1696,0.0791 -0.1695,0.0791 -0.2027,-0.0107 -0.2027,-0.0108 0.045,0.14466 0.045,0.14467 -0.018,0.13718 -0.018,0.13719 -0.05,0.0967 -0.05,0.0967 -0.4855,0.58585 -0.4855,0.58584 z m 0.8945,-2.61325 h 0.086 l 0.1627,-0.14233 0.1627,-0.14232 0.1194,-0.17341 0.1194,-0.17342 -0.032,-0.0848 -0.032,-0.0848 -0.066,-0.0656 -0.066,-0.0656 h -0.047 -0.047 l -0.3227,0.38328 -0.3227,0.38328 0.099,0.0829 0.099,0.0829 z m -17.0434,1.72202 -0.043,0.0167 -1.4601,-1.66095 -1.4601,-1.66094 v -0.0343 -0.0343 l 0.3428,-0.23534 0.3428,-0.23533 0.7472,0.90854 0.7473,0.90855 0.029,0.0322 0.029,0.0322 -0.082,-0.18577 -0.082,-0.18577 -0.1008,-0.20001 -0.1007,-0.2 -0.2805,-0.48222 -0.2805,-0.48222 -0.1179,-0.21348 -0.1178,-0.21348 0.439,-0.2831 0.439,-0.28309 0.052,0.064 0.052,0.064 0.7193,0.82635 0.7194,0.82634 h 0.015 0.015 l -0.143,-0.26522 -0.143,-0.26522 -0.3911,-0.76084 -0.391,-0.76084 0.2662,-0.17322 0.2662,-0.17321 0.1035,-0.0608 0.1035,-0.0608 0.015,0.0154 0.015,0.0154 0.9529,1.97159 0.9529,1.9716 -0.027,0.0269 -0.027,0.0269 -0.3822,0.24428 -0.3822,0.24428 -0.022,0.007 -0.022,0.007 -0.7584,-0.90376 -0.7584,-0.90377 -0.055,-0.0212 -0.055,-0.0212 -0.01,0.009 -0.01,0.009 0.5733,1.07329 0.5732,1.07328 -3e-4,0.0197 -3e-4,0.0197 -0.3847,0.26598 -0.3847,0.26597 z m 14.2071,-0.59709 v -2.4e-4 l -0.7555,-0.41711 -0.7555,-0.4171 -0.029,-0.0101 -0.028,-0.0101 1.0852,-1.83095 1.0851,-1.83095 0.041,-0.0437 0.041,-0.0438 0.7588,0.42455 0.7588,0.42455 v 0.0119 0.0119 l -0.1495,0.25029 -0.1494,0.25029 -0.041,0.0442 -0.041,0.0442 -0.3372,-0.18085 -0.3371,-0.18084 h -0.028 -0.029 l -0.2437,0.41342 -0.2437,0.41343 0.277,0.16518 0.277,0.16519 0.046,0.0295 0.046,0.0295 -0.1846,0.30935 -0.1846,0.30935 -0.1023,-0.0613 -0.1022,-0.0613 -0.2141,-0.11787 -0.214,-0.11788 -0.062,0.0895 -0.062,0.0895 -0.2325,0.37752 -0.2325,0.37751 0.018,0.0288 0.018,0.0288 0.3138,0.17955 0.3137,0.17955 0.046,0.0305 0.046,0.0305 -0.203,0.3079 -0.203,0.3079 z m -11.2955,-1.10643 -0.2006,0.0748 -0.028,-0.0547 -0.027,-0.0547 -0.7751,-1.94495 -0.7751,-1.94495 -0.01,-0.0429 -0.01,-0.043 0.4018,-0.15788 0.4019,-0.15789 0.038,-8e-5 0.038,-9e-5 0.064,0.16878 0.064,0.16878 0.7269,1.84727 0.727,1.84727 -0.014,0.036 -0.014,0.036 -0.204,0.0737 -0.204,0.0737 z m 9.1546,0.01 -0.049,-0.004 -0.4645,-0.16809 -0.4644,-0.16808 -0.011,-0.0346 -0.012,-0.0346 0.408,-2.0199 0.4081,-2.0199 0.015,-0.0884 0.015,-0.0884 h 0.054 0.054 l 0.3686,0.12407 0.3687,0.12405 -0.01,0.0608 -0.01,0.0608 -0.1885,0.78762 -0.1884,0.78762 -0.1013,0.49017 -0.1013,0.49016 0.011,0.0294 0.011,0.0294 0.6269,-1.19056 0.6269,-1.19056 0.032,-0.0417 0.032,-0.0417 0.4098,0.14853 0.4099,0.14853 v 0.0265 0.0265 l -1.1003,1.87989 -1.1003,1.87988 z m -8.0282,-0.46734 -0.2317,0.045 -0.034,-0.16477 -0.034,-0.16476 -0.3869,-1.97317 -0.387,-1.97317 0.015,-0.0155 0.015,-0.0155 0.6178,-0.12635 0.6178,-0.12636 0.023,0.0254 0.023,0.0254 0.3982,1.0819 0.3983,1.0819 0.027,-0.11746 0.027,-0.11746 0.01,-1.06031 v -1.06032 l 0.6218,-0.0914 0.6217,-0.0914 0.01,0.0104 0.01,0.0104 0.3627,2.12892 0.3627,2.12893 -0.023,0.0226 -0.023,0.0226 -0.3869,0.0694 -0.3869,0.0694 -0.011,-0.0188 -0.011,-0.0188 -0.1986,-1.15732 -0.1986,-1.15733 -0.028,-0.0643 -0.028,-0.0643 -0.01,0.27326 -0.01,0.27325 -0.02,0.99597 -0.02,0.99597 -0.2893,0.0549 -0.2893,0.055 -0.068,0.002 -0.068,0.002 -0.067,-0.18485 -0.067,-0.18485 -0.273,-0.7394 -0.2729,-0.7394 -0.1146,-0.25719 -0.1146,-0.25718 0.016,0.11252 0.016,0.11252 0.036,0.25718 0.036,0.25718 0.1724,0.85068 0.1725,0.85068 -0.035,0.0215 -0.035,0.0215 -0.133,0.0191 -0.1329,0.0191 z m 6.5246,-0.14397 -0.024,-0.004 -0.3697,-0.042 -0.3696,-0.042 -0.029,-0.002 -0.028,-0.002 0.022,-0.31344 0.022,-0.31344 0.095,-0.66782 0.095,-0.66782 0.016,-0.28054 0.016,-0.28055 -0.061,0.12539 -0.061,0.12539 -0.3168,1.08971 -0.3167,1.08972 -0.3214,-0.0211 -0.3215,-0.0211 -0.035,-0.0367 -0.035,-0.0367 -0.1199,-1.22131 -0.1198,-1.22132 -0.01,-0.008 -0.01,-0.008 -0.054,0.36164 -0.054,0.36164 -0.063,0.75547 -0.063,0.75548 -0.019,0.12145 -0.019,0.12146 -0.1015,-0.0157 -0.1015,-0.0157 -0.3133,-0.0203 -0.3133,-0.0203 0.015,-0.0694 0.015,-0.0693 0.1988,-2.07354 0.1989,-2.07355 0.025,-0.0281 0.025,-0.0281 0.5961,0.0415 0.596,0.0415 0.03,0.0187 0.03,0.0187 0.085,1.07696 0.085,1.07695 0.019,0.12749 0.019,0.12749 0.3389,-1.14015 0.3389,-1.14015 0.011,-0.0131 0.01,-0.0131 0.6191,0.0739 0.6191,0.0739 0.023,0.0199 0.023,0.0198 -0.2557,2.10541 -0.2557,2.10541 -10e-5,0.0402 -2e-4,0.0402 z"
         id="path161-8" /></g></g></svg>
