<?xml version="1.0" encoding="UTF-8" standalone="no"?>
<!-- Created with Inkscape (http://www.inkscape.org/) -->

<svg
   width="134.60663mm"
   height="48.432903mm"
   viewBox="0 0 134.60663 48.432903"
   version="1.1"
   id="svg1"
   xml:space="preserve"
   inkscape:version="1.4.4 (dcaf3e7, 2026-05-05)"
   sodipodi:docname="logos teams.svg"
   inkscape:export-batch-name="logos teams"
   inkscape:export-batch-path="Desktop/3 LIGA"
   xmlns:inkscape="http://www.inkscape.org/namespaces/inkscape"
   xmlns:sodipodi="http://sodipodi.sourceforge.net/DTD/sodipodi-0.dtd"
   xmlns="http://www.w3.org/2000/svg"
   xmlns:svg="http://www.w3.org/2000/svg"><sodipodi:namedview
     id="namedview1"
     pagecolor="#ffffff"
     bordercolor="#000000"
     borderopacity="0.25"
     inkscape:showpageshadow="2"
     inkscape:pageopacity="0.0"
     inkscape:pagecheckerboard="0"
     inkscape:deskcolor="#d1d1d1"
     inkscape:document-units="mm"
     inkscape:zoom="0.037190382"
     inkscape:cx="-4006.4122"
     inkscape:cy="-8779.1516"
     inkscape:window-width="1920"
     inkscape:window-height="1050"
     inkscape:window-x="0"
     inkscape:window-y="30"
     inkscape:window-maximized="0"
     inkscape:current-layer="layer1"><inkscape:page
       x="0"
       y="0"
       width="134.60663"
       height="48.432903"
       id="page1"
       margin="0"
       bleed="0" /></sodipodi:namedview><defs
     id="defs1"><style
       id="style1-7">
      .cls-1 {
        fill: #fff;
      }
    </style></defs><g
     inkscape:label="Ebene 1"
     inkscape:groupmode="layer"
     id="layer1"
     transform="translate(69.735126,759.36281)"><path
       style="fill:#000000"
       d="m -62.128497,-711.2529 c -2.692136,-0.12607 -5.504955,-0.3165 -6.250711,-0.42318 l -1.355918,-0.19395 1.801544,-4.63021 1.801544,-4.63021 1.009583,0.0432 c 0.55527,0.0237 3.926614,0.0753 7.491874,0.11446 l 6.482292,0.0713 0.852052,-0.44793 c 1.07983,-0.56768 2.06412,-3.06847 1.33076,-3.38107 -0.03638,-0.0155 -2.268802,-0.12425 -4.960937,-0.24165 -5.455131,-0.2379 -6.456355,-0.4458 -7.688104,-1.59643 l -0.850583,-0.79456 0.146036,-3.10135 0.146036,-3.10136 0.429341,-1.5875 c 2.103217,-7.7767 7.664842,-11.99178 17.810401,-13.49825 l 2.7561,-0.40924 3.87799,-0.0268 c 3.676591,-0.0254 10.305486,0.47648 10.865513,0.8226 l 0.259837,0.16058 -2.021113,5.32523 -2.021113,5.32522 -6.761942,-0.0403 -6.761941,-0.0403 -1.269379,0.36865 -1.269378,0.36864 -0.781142,0.7297 c -0.858883,0.80232 -0.978885,1.46867 -0.405696,2.25276 l 0.375446,0.51359 5.048554,0.0381 5.048554,0.0381 1.242977,0.62336 c 0.683638,0.34285 1.487291,0.95992 1.785896,1.37128 l 0.542917,0.74791 -0.02311,2.1625 -0.02311,2.16251 -0.462506,1.57366 c -2.488406,8.46677 -12.266289,14.30391 -22.774598,13.59585 -0.291042,-0.0196 -2.731823,-0.13881 -5.423958,-0.26488 z m 33.555122,-0.40792 -0.708418,-0.10837 0.122507,-0.84417 c 2.378761,-16.39157 5.409655,-36.02158 5.589544,-36.20147 l 0.238449,-0.23845 6.729001,0.0708 6.7290008,0.0708 -0.07705,0.66146 c -0.04238,0.3638 -0.7927438,4.93156 -1.6674848,10.15057 -0.874741,5.21901 -1.549804,9.52974 -1.500141,9.57941 0.09514,0.0951 2.806391,-3.85567 9.7721248,-14.23988 l 4.21521397,-6.28385 3.75679203,0.0359 c 2.066236,0.0197 5.146082,0.10903 6.8441022,0.19844 l 3.087309,0.16256 -3.491648,5.02709 c -1.9204062,2.76489 -5.1038012,7.3488 -7.0742112,10.18646 -1.97041,2.83765 -6.229801,8.9396 -9.465314,13.55989 l -5.8827498,8.40052 -8.254305,-0.0396 c -4.539868,-0.0218 -8.573094,-0.0884 -8.962724,-0.14802 z m 31.2677928,0.0248 c 0,-0.14543 11.8534282,-29.23415 14.3539782,-35.22516 l 0.800638,-1.91823 h 8.90356 8.90356 l -0.869724,7.87136 c -0.478347,4.32924 -0.840285,8.07584 -0.804306,8.32577 l 0.06542,0.45442 5.913401,-8.32578 5.913402,-8.32577 h 8.307952 c 4.569378,0 8.307508,0.0298 8.306958,0.0661 -5.5e-4,0.0364 -3.49388,8.34099 -7.762955,18.45469 l -7.76195,18.38854 -5.863091,0.0712 c -3.224701,0.0392 -5.863092,0.0148 -5.863092,-0.0541 0,-0.0689 1.610191,-4.19584 3.578202,-9.17095 1.968011,-4.97512 3.533182,-9.09068 3.478158,-9.14571 -0.05502,-0.055 -3.180897,4.06963 -6.946386,9.1659 l -6.846342,9.26594 H 25.12311 21.74442 l 0.0094,-0.99219 c 0.0052,-0.5457 0.231833,-4.74265 0.50369,-9.32656 0.271858,-4.58391 0.468441,-8.36177 0.43685,-8.39524 -0.03159,-0.0335 -1.954913,4.19324 -4.274049,9.39271 l -4.21661,9.45357 -5.7546422,0.0713 c -3.165053,0.0392 -5.754642,-0.007 -5.754642,-0.10188 z m 15.8749992,-38.86135 c 0,-0.0902 0.595312,-1.6274 1.322916,-3.416 1.547451,-3.80395 1.520481,-3.6593 0.618374,-3.31632 l -0.704543,0.26786 -0.256631,-0.25663 c -0.659952,-0.65995 2.314739,-2.33469 3.730284,-2.10013 l 0.531945,0.0881 -1.782378,4.36562 -1.782377,4.36563 -0.838795,0.0829 c -0.461337,0.0456 -0.838795,0.009 -0.838795,-0.0811 z m 4.907498,-0.49424 -0.68705,-0.68705 0.177318,-0.73319 c 0.187865,-0.7768 1.071376,-2.18563 1.374938,-2.19244 0.09923,-0.002 0.335341,-0.10232 0.524688,-0.22242 l 0.344268,-0.21837 -0.305869,-0.67131 -0.305869,-0.67131 0.45279,-0.95418 0.45279,-0.95419 0.862958,-0.53333 0.862958,-0.53334 h 1.316825 1.316826 l 0.437882,0.48385 c 0.82336,0.90981 0.258323,2.80219 -1.044952,3.49968 l -0.599487,0.32084 0.399357,0.60949 0.399357,0.6095 -0.524073,1.18475 -0.524072,1.18476 -0.71058,0.46559 -0.710579,0.46559 -1.411687,0.11706 -1.411688,0.11707 z m 3.707266,-1.61125 c 0.233684,-0.35664 0.384041,-0.86266 0.334126,-1.12448 l -0.09076,-0.47603 -0.607906,-0.0865 c -0.334349,-0.0476 -0.89868,0.10397 -1.254068,0.33683 l -0.646161,0.42338 v 0.78765 0.78765 h 0.919942 0.919942 z m 1.174819,-3.58488 c 1.047955,-1.04796 0.435411,-2.10513 -0.92095,-1.58944 l -0.651771,0.24781 -0.175492,0.69921 -0.175492,0.69922 0.36654,0.23213 c 0.570865,0.36153 0.983211,0.28502 1.557165,-0.28893 z m 1.852083,5.66774 c 0,-0.0842 0.690954,-1.00693 1.535452,-2.05052 0.844499,-1.04359 2.101614,-2.64157 2.793589,-3.55108 l 1.258137,-1.65364 h -1.874342 -1.874342 l 0.410464,-0.79375 0.410464,-0.79375 h 2.763027 2.763026 l -0.160327,0.46302 c -0.180436,0.52109 -3.265132,4.68472 -5.190523,7.006 l -1.266416,1.52681 h -0.784105 c -0.431257,0 -0.784104,-0.0689 -0.784104,-0.15309 z m 6.480828,-0.11386 c -0.09074,-0.14682 -0.08975,-0.50401 0.0022,-0.79375 l 0.1672,-0.5268 h 1.457731 1.457731 l 0.773397,-0.7734 c 0.425369,-0.42536 0.773398,-0.87271 0.773398,-0.99409 v -0.2207 l -1.165946,0.0927 -1.165946,0.0927 -0.553846,-0.55385 c -0.704931,-0.70493 -0.697009,-1.21666 0.04147,-2.67846 l 0.595313,-1.17841 0.899023,-0.59744 0.899023,-0.59745 h 1.092626 1.092626 l 0.588038,0.41188 0.588038,0.41187 -0.0063,0.97719 c -0.01374,2.13826 -1.968127,5.66175 -3.671401,6.61905 l -1.024575,0.57584 h -1.337424 -1.337423 z m 5.362229,-4.87333 c 0.05923,-0.0592 0.17049,-0.57593 0.247252,-1.14823 l 0.139566,-1.04055 -0.463677,-0.17793 -0.463677,-0.17793 -0.636226,0.41687 c -0.349924,0.22928 -0.767371,0.70471 -0.92766,1.0565 l -0.291434,0.63963 0.354808,0.42752 0.354809,0.42752 0.789277,-0.15786 c 0.434103,-0.0868 0.837736,-0.20631 0.896962,-0.26554 z m 5.363755,4.43004 -0.558677,-0.71025 0.174888,-0.81111 c 0.588606,-2.72988 2.836848,-4.75212 4.749516,-4.27207 l 0.670457,0.16827 0.294505,0.64637 0.294506,0.64637 -0.457678,1.19841 -0.457679,1.19842 h -1.697909 -1.697908 v 0.50086 c 0,0.6248 0.563408,0.85489 1.590394,0.6495 l 0.790856,-0.15817 v 0.66367 0.66367 l -0.595313,0.15954 c -0.327421,0.0877 -1.033155,0.16116 -1.568296,0.16315 l -0.972984,0.004 z m 3.781025,-3.62952 c 0.319589,-0.83283 -0.824153,-0.95022 -1.540962,-0.15816 l -0.47889,0.52917 h 0.938742 0.938741 z m 1.501746,3.96453 c 0,-0.20638 0.07227,-0.56357 0.160599,-0.79375 l 0.160599,-0.41852 h 0.765443 c 0.865226,0 0.857917,-0.0131 0.507407,0.90882 l -0.258034,0.67868 h -0.668007 -0.668007 z m 4.115046,0.13331 c -0.08223,-0.13306 0.08933,-2.10214 0.38126,-4.37575 0.291927,-2.2736 0.530777,-4.18879 0.530777,-4.25599 0,-0.0672 0.426179,-0.12217 0.947068,-0.12217 h 0.94706 l -0.15056,0.7276 c -0.2623,1.26768 -0.94787,5.73824 -0.943345,6.15156 0.0024,0.21829 1.078065,-1.24023 2.390395,-3.24114 l 2.38606,-3.63802 h 0.78353 c 0.43095,0 0.78354,0.0641 0.78354,0.14244 0,0.20563 -3.02206,4.68661 -4.6772,6.93516 l -1.412,1.91823 h -0.908533 c -0.499694,0 -0.975818,-0.10886 -1.058052,-0.24192 z m 4.880785,-0.0868 c 0,-0.20013 0.1547,-0.57544 0.34378,-0.83402 l 0.34378,-0.47014 0.70823,0.0888 0.70823,0.0888 -0.33053,0.66146 -0.33054,0.66146 -0.72147,0.0837 -0.72148,0.0837 z"
       id="path218"
       sodipodi:nodetypes="sscccsscsssscccsscsscccccccsscccsscccssssccsscccsssscsscssscsscsscccsscccssscssssscccsssscsssssscsscccsssccscscccccccccssccccccccccsscsscccccssscccssssscccccccsscsssscccsscccsscccccccsscccssscccsscccssccsscccccccsscccscccsscccssscsscccssssscssscssscsssscccccccs" /></g><style
     id="style1">@media(prefers-color-scheme:dark){.lines{fill:#d7d7d7}}</style></svg>
