<?xml version="1.0" encoding="UTF-8" standalone="no"?>
<!-- Created with Inkscape (http://www.inkscape.org/) -->

<svg
   width="450.53232mm"
   height="449.93643mm"
   viewBox="0 0 450.53232 449.93643"
   version="1.1"
   id="svg1"
   xml:space="preserve"
   inkscape:version="1.4.4 (dcaf3e7, 2026-05-05)"
   sodipodi:docname="logos teams.svg"
   inkscape:export-batch-name="logos teams"
   inkscape:export-batch-path="Desktop"
   xmlns:inkscape="http://www.inkscape.org/namespaces/inkscape"
   xmlns:sodipodi="http://sodipodi.sourceforge.net/DTD/sodipodi-0.dtd"
   xmlns="http://www.w3.org/2000/svg"
   xmlns:svg="http://www.w3.org/2000/svg"><sodipodi:namedview
     id="namedview1"
     pagecolor="#ffffff"
     bordercolor="#000000"
     borderopacity="0.25"
     inkscape:showpageshadow="2"
     inkscape:pageopacity="0.0"
     inkscape:pagecheckerboard="0"
     inkscape:deskcolor="#d1d1d1"
     inkscape:document-units="mm"
     inkscape:zoom="0.69712823"
     inkscape:cx="489.14961"
     inkscape:cy="355.02794"
     inkscape:window-width="1920"
     inkscape:window-height="1050"
     inkscape:window-x="0"
     inkscape:window-y="30"
     inkscape:window-maximized="0"
     inkscape:current-layer="layer1"><inkscape:page
       x="0"
       y="0"
       width="450.53232"
       height="449.93643"
       id="page1"
       margin="0"
       bleed="0" /></sodipodi:namedview><defs
     id="defs1" /><g
     inkscape:label="Ebene 1"
     inkscape:groupmode="layer"
     id="layer1"
     transform="translate(-1352.3943,759.89753)"><path
       style="fill:#0e2755;fill-opacity:1"
       d="m 1566.5785,-310.29493 c -179.7383,-9.69664 -276.7633,-215.57958 -169.3277,-359.30618 105.075,-140.56863 323.6283,-112.00865 389.3593,50.88046 61.0457,151.27821 -57.3258,317.20348 -220.0316,308.42572 z m 23.4141,-7.41401 c 157.096,-10.29409 252.3573,-174.73264 182.3967,-314.8505 -62.5055,-125.18687 -226.1836,-159.5545 -333.7783,-70.08372 -115.6882,96.20099 -101.4106,277.44106 27.9534,354.84265 30.1339,18.02981 61.2125,27.40886 100.0125,30.18227 2.9316,0.20954 19.8327,0.14408 23.4157,-0.0907 z m -23.548,-6.5024 c -0.582,-0.0538 -2.9038,-0.22512 -5.1593,-0.38081 -142.4747,-9.83377 -234.2024,-160.82771 -178.0065,-293.01833 62.3786,-146.73437 260.0476,-173.83808 359.3443,-49.27209 104.9482,131.65575 21.6124,326.07324 -146.6774,342.18992 -4.0695,0.38972 -26.5259,0.7561 -29.5011,0.48131 z m 28.5395,-7.10714 c 9.0027,-0.64704 16.3972,-1.21228 16.4322,-1.2561 0.1261,-0.15795 -0.5292,-8.37748 -0.6799,-8.52823 -0.085,-0.085 -4.6979,0.1639 -10.2508,0.55302 -12.0775,0.84634 -10.1651,3.75199 -11.7167,-17.80207 -0.7206,-10.00965 -1.3492,-18.23841 -1.3969,-18.28612 -0.048,-0.0477 -2.8411,0.11639 -6.2076,0.36466 l -6.1208,0.45141 v 0.94634 c -0.011,3.78685 3.0944,44.73531 3.3924,44.7342 0.1002,-3.7e-4 7.5481,-0.53007 16.5508,-1.17711 z m -30.0252,-3.39824 c 0.7584,-5.01561 2.3796,-4.06981 -10.2882,-6.00215 -5.8936,-0.89901 -10.7875,-1.71443 -10.8754,-1.81204 -0.1753,-0.19477 1.2158,-9.25924 1.4582,-9.50166 0.083,-0.0826 4.4677,0.52451 9.7446,1.34909 5.277,0.82458 9.78,1.49779 10.0067,1.49601 0.4436,-0.003 1.8517,-8.01395 1.4749,-8.39072 -0.1002,-0.10026 -4.6091,-0.87845 -10.0196,-1.72931 -5.4105,-0.85086 -9.864,-1.57371 -9.8966,-1.60634 -0.1779,-0.17787 1.405,-9.28122 1.6259,-9.35078 0.1449,-0.0457 5.0856,0.67482 10.9792,1.60105 5.8936,0.92623 10.7435,1.66011 10.7777,1.63084 0.109,-0.0935 1.3809,-8.45213 1.2986,-8.53441 -0.1525,-0.15256 -33.8715,-5.38452 -34.1354,-5.29657 -0.2194,0.0731 -7.3884,44.91124 -7.2093,45.09061 0.1192,0.11943 33.6561,5.31692 34.0309,5.27406 0.3035,-0.0347 0.5453,-1.02698 1.0278,-4.21768 z m 71.0712,-4.07583 c 13.0563,-4.19375 14.7842,-4.96891 17.9179,-8.03863 7.9436,-7.78135 2.2167,-20.06157 -8.9616,-19.21616 -1.0979,0.083 -1.9548,0.111 -1.9044,0.0621 0.05,-0.0489 0.8154,-0.62045 1.6997,-1.27021 11.6228,-8.53983 1.843,-22.27605 -12.985,-18.23792 -5.6821,1.54743 -22.1017,7.05802 -21.9794,7.37655 0.073,0.18965 3.1748,9.84146 6.8935,21.44847 3.7187,11.60701 6.818,21.2607 6.8874,21.45263 0.082,0.22689 0.3349,0.28662 0.7227,0.17074 0.3282,-0.098 5.5973,-1.78446 11.7092,-3.74761 z m -4.5101,-12.91484 c -0.8236,-2.57313 -1.396,-4.7733 -1.2719,-4.88928 1.4452,-1.35034 9.5239,-2.9773 11.0206,-2.21941 5.5084,2.78933 3.6938,7.9617 -3.6024,10.26821 -2.156,0.68157 -4.0839,1.30214 -4.2844,1.37905 -0.2709,0.10398 -0.7484,-1.05984 -1.8619,-4.53857 z m -5.6164,-17.53425 c -0.7606,-2.29677 -1.3829,-4.31573 -1.3829,-4.48656 0,-0.26271 5.1239,-2.04493 7.4778,-2.60097 5.0411,-1.19078 7.966,5.74769 3.5582,8.44068 -0.81,0.49487 -7.398,2.8228 -7.9885,2.8228 -0.155,0 -0.9041,-1.87918 -1.6646,-4.17595 z m -115.8152,22.41819 c 6.8275,-1.79829 12.0641,-7.2505 15.0171,-15.63557 4.2174,-11.97547 0.7335,-20.39674 -11.3129,-27.34526 -2.167,-1.24991 -21.4166,-9.89439 -21.6048,-9.70215 -0.457,0.46655 -18.7235,41.44504 -18.5484,41.61079 0.5329,0.50453 20.6413,9.2806 22.9552,10.01854 4.661,1.48647 10.2065,1.91948 13.4938,1.05365 z m -13.7583,-10.69165 c -1.7778,-0.50386 -7.673,-3.17473 -7.673,-3.47631 0,-0.13207 2.5599,-5.91996 5.6886,-12.86198 l 5.6885,-12.62184 0.5292,0.15461 c 2.1904,0.64001 7.5624,3.57196 9.0192,4.9226 9.9863,9.25839 -0.1841,27.58684 -13.2525,23.88292 z m 191.9552,-4.88973 c 8.3036,-5.20892 14.4053,-9.19954 14.3858,-9.40854 -0.019,-0.19961 -1.0084,-1.91438 -2.1993,-3.8106 l -2.1652,-3.44767 -2.1664,1.35615 c -1.1915,0.74588 -5.3655,3.36663 -9.2755,5.8239 -3.91,2.45726 -7.2289,4.42782 -7.3753,4.37902 -0.6534,-0.21779 -5.2379,-7.97447 -4.9009,-8.29191 0.1844,-0.17371 4.0262,-2.61096 8.5374,-5.41611 4.5111,-2.80514 8.2467,-5.13492 8.3013,-5.17727 0.055,-0.0424 -0.9421,-1.7531 -2.2149,-3.80164 l -2.3141,-3.72461 -0.5632,0.36669 c -0.3098,0.20167 -3.9566,2.48592 -8.1039,5.07611 -4.1473,2.59018 -7.7962,4.8758 -8.1085,5.07916 l -0.5679,0.36975 -2.2411,-3.53585 c -1.2326,-1.94471 -2.3748,-3.78569 -2.5383,-4.09105 l -0.2971,-0.55521 9.1916,-5.75178 c 5.0553,-3.16349 9.2863,-5.83415 9.4021,-5.93482 0.1722,-0.14969 -3.5907,-6.46267 -4.3135,-7.23657 -0.1156,-0.12381 -6.8228,3.91552 -14.9049,8.97629 l -14.6946,9.2014 0.3147,0.57959 c 1.499,2.76023 23.9248,38.1877 24.1273,38.1155 0.1455,-0.0519 6.7535,-4.16484 14.6844,-9.13993 z m -213.5192,-22.10773 c 7.0306,-9.60438 13.0648,-17.83461 13.4094,-18.28941 l 0.6264,-0.8269 -5.0869,-3.73646 c -2.7979,-2.05505 -5.1647,-3.64748 -5.2598,-3.53872 -1.1163,1.27725 -26.8052,36.66641 -26.7106,36.79677 0.3721,0.51331 9.9488,7.38558 10.0818,7.23483 0.086,-0.0977 5.9091,-8.03574 12.9397,-17.64011 z m 244.7767,-8.43206 c -1.8392,-1.75778 -4.6826,-4.50871 -6.3187,-6.1132 l -2.9748,-2.91724 2.3133,-2.36134 c 5.1047,-5.21072 6.1844,-5.29857 11.706,-0.9524 3.2857,2.58622 7.5052,5.56269 7.8858,5.56269 0.1482,0 2.3549,-2.17035 4.9038,-4.82301 l 4.6343,-4.82301 -1.6519,-0.95835 c -1.7117,-0.99299 -4.747,-3.04574 -8.6283,-5.83525 -5.8174,-4.18104 -9.187,-4.37118 -13.3661,-0.75422 -1.639,1.4185 -1.7238,1.21333 -0.4028,-0.97421 6.3643,-10.53928 -3.0419,-21.25971 -13.8908,-15.8316 -3.604,1.80321 -5.466,3.46152 -14.4078,12.83174 l -8.2034,8.59635 3.5058,3.34027 c 1.9282,1.83715 9.3398,8.94897 16.4704,15.80405 l 12.9645,12.46377 4.4023,-4.52955 4.4023,-4.52954 z m -19.1569,-18.32883 c -1.7804,-1.69437 -3.4625,-3.29226 -3.7379,-3.55086 l -0.5008,-0.47018 2.3529,-2.54774 c 4.6694,-5.05605 7.3189,-5.97031 10.2584,-3.53976 3.1413,2.59745 2.5566,5.51988 -2.0962,10.47724 -3.0838,3.28556 -2.394,3.32608 -6.2764,-0.3687 z m -255.6188,26.56078 3.0622,-2.97823 -6.6739,-7.00979 c -3.6706,-3.85539 -7.0999,-7.45685 -7.6207,-8.00326 l -0.9468,-0.99346 1.3117,-1.34312 c 0.7214,-0.73872 2.3269,-2.27451 3.5676,-3.41287 l 2.2559,-2.06975 6.9888,7.38813 c 3.8439,4.06347 7.0759,7.35601 7.1823,7.31675 0.4268,-0.15743 6.0744,-5.8345 6.0016,-6.03289 -0.043,-0.11722 -3.1441,-3.45244 -6.8913,-7.4116 -8.036,-8.49065 -7.5331,-6.89797 -3.4054,-10.78599 l 3.4076,-3.2097 7.6281,8.04014 7.628,8.04014 1.4659,-1.2808 c 0.8063,-0.70444 2.2353,-2.06272 3.1757,-3.0184 l 1.7097,-1.7376 -0.9409,-0.99463 c -10.1908,-10.77296 -22.8926,-24.01338 -23.0365,-24.01338 -0.2453,0 -33.0175,31.16557 -33.019,31.40029 0,0.25089 23.6325,25.06919 23.8831,25.07969 0.1122,0.005 1.5821,-1.33164 3.2663,-2.96967 z m 146.9452,-0.0464 c 113.9479,-10.82921 174.9688,-139.39955 111.3176,-234.54492 -64.0704,-95.77213 -208.7734,-86.49621 -260.4365,16.69479 -52.7868,105.43575 31.7934,229.00034 149.1189,217.85013 z m -21.5635,-6.39438 c -25.6848,-1.48989 -48.7595,-8.66692 -70.1616,-21.82269 -5.4422,-3.34531 -17.0193,-11.70829 -16.6791,-12.04851 0.1403,-0.14024 13.2869,-4.59748 13.563,-4.59843 0.2106,-7.2e-4 4.6159,5.18589 5.4214,6.38289 0.3095,0.45991 11.7357,2.59688 12.0743,2.2582 0.067,-0.0671 -0.3025,-1.48205 -0.8214,-3.14431 -0.5189,-1.66225 -0.9435,-3.09789 -0.9435,-3.1903 0,-0.0924 1.2204,-0.54423 2.712,-1.00402 l 2.712,-0.836 3.2769,-3.07797 c 1.8022,-1.69289 3.7259,-3.4647 4.2748,-3.93735 l 0.9979,-0.85938 2.4721,2.02772 c 1.3596,1.11524 2.5241,2.06991 2.5876,2.12147 0.2723,0.22089 -0.9585,5.22153 -1.9741,8.02061 -0.6072,1.67349 -1.0227,3.07582 -0.9233,3.1163 0.3899,0.1588 14.6504,-4.87091 14.8523,-5.23844 0.1183,-0.21527 0.4091,-1.31192 0.6462,-2.437 l 0.4311,-2.04559 2.5344,-3.17993 2.5343,-3.17993 1.0782,0.007 c 0.5931,0.004 3.1339,0.11532 5.6463,0.24825 l 4.568,0.24169 5.0893,-2.39161 c 6.1965,-2.91192 5.2631,-1.8103 7.8651,-9.28353 1.2033,-3.45612 2.2726,-6.28386 2.3763,-6.28386 0.1898,0 20.6362,7.6364 20.9261,7.81559 0.086,0.0529 -0.1335,1.48019 -0.4868,3.17175 l -0.6425,3.07556 1.4161,3.08203 c 2.1033,4.5774 8.1856,13.68677 10.0567,15.06165 6.0972,4.48029 10.5264,6.42557 15.4071,6.76676 l 2.3517,0.16441 -0.1749,-1.64335 c -0.096,-0.90385 -0.2401,-2.47679 -0.32,-3.49544 l -0.1452,-1.85208 3.6569,-3.45604 c 6.9447,-6.56336 7.7551,-6.65806 7.9539,-0.92947 0.081,2.33927 0.2174,4.25322 0.3028,4.25322 2.6194,0 11.0502,-5.28799 15.3664,-9.63819 l 2.5037,-2.52347 -0.9127,-0.99677 c -0.502,-0.54823 -1.4684,-1.59209 -2.1476,-2.3197 -0.6791,-0.7276 -1.4929,-1.9337 -1.8084,-2.68022 l -0.5735,-1.3573 1.0964,-2.18072 1.0965,-2.18072 1.8821,0.18545 1.8821,0.18546 9.7404,9.54218 c 11.6167,11.38033 11.3583,9.20739 1.9351,16.2771 -27.467,20.60702 -63.4924,31.72634 -96.5729,29.80747 z m 49.1464,-31.49631 -1.1245,-0.678 v -2.13427 c 0,-1.17385 0.1328,-2.89672 0.295,-3.8286 l 0.2951,-1.69433 2.4768,-1.63463 c 2.8938,-1.90985 2.8147,-1.72945 1.3016,-2.96937 l -1.1878,-0.97329 -2.603,1.47385 -2.6031,1.47385 -0.8394,2.14447 c -0.707,1.80626 -0.8394,2.49651 -0.8394,4.37652 0,1.22762 -0.072,2.23204 -0.161,2.23204 -0.4409,0 -3.5424,-2.53851 -3.5374,-2.8953 0.062,-4.50927 1.5219,-7.55002 4.5145,-9.40637 2.5706,-1.59457 2.5462,-1.51047 0.8588,-2.95979 l -1.288,-1.10624 -2.3762,1.45786 -2.3763,1.45786 -0.8558,1.92693 c -0.4708,1.05982 -1.0395,2.79988 -1.264,3.86681 -0.3936,1.8714 -0.5536,2.31441 -0.7512,2.07994 -2.1005,-2.49246 -2.4742,-4.24698 -1.5437,-7.24946 l 0.7365,-2.37672 2.2359,-1.4016 c 2.627,-1.64668 2.6261,-1.64343 0.9014,-3.12481 l -1.3347,-1.14637 -2.2942,1.50894 -2.2943,1.50894 -0.851,2.05052 c -1.039,2.50325 -0.9923,2.50148 -1.8666,0.0706 l -0.7121,-1.97993 1.4099,-3.35968 1.4098,-3.35969 2.4787,-1.23503 2.4787,-1.23503 11.5791,0.55775 11.5792,0.55775 2.4599,-3.17737 2.4599,-3.17738 3.6265,-8.84506 c 2.7223,-6.63951 3.543,-8.89814 3.2912,-9.05793 -0.1844,-0.11707 -1.5557,-0.23453 -3.0473,-0.26101 -1.4916,-0.0265 -2.9159,-0.0581 -3.165,-0.0702 -0.3305,-0.0161 -0.7531,0.69354 -1.5627,2.62379 l -1.1097,2.64583 -2.694,0.21914 c -3.292,0.26779 -3.2952,0.25991 -2.214,-5.44466 l 0.1379,-0.72761 -2.6007,0.004 c -3.3415,0.005 -3.248,-0.0784 -4.2016,3.75618 l -0.8086,3.25122 -2.0723,0.20661 c -2.5695,0.25618 -2.4157,0.6158 -1.476,-3.45084 0.4391,-1.90042 0.7984,-3.53552 0.7984,-3.63357 0,-2.75831 -6.4934,0.72695 -7.2891,3.91232 l -0.8068,3.23007 -2.1767,0.23559 c -2.7208,0.29449 -2.5982,0.6149 -1.3463,-3.52021 1.26,-4.16191 1.4162,-3.84937 -1.7805,-3.56161 l -2.5733,0.23164 -1.2008,3.63802 -1.2008,3.63802 h -2.4596 -2.4595 l 0.1238,-0.59531 c 0.068,-0.32742 0.1996,-1.42875 0.2922,-2.44739 0.1041,-1.14512 1.1093,-5.03346 2.6334,-10.18646 1.3559,-4.58391 3.3103,-11.20388 4.3431,-14.71105 l 1.878,-6.37668 v -7.53842 -7.53842 l -6.0193,-5.82139 -6.0192,-5.82139 -6.0854,-3.44198 c -8.635,-4.88407 -7.4567,-4.44833 -12.9646,-4.79426 l -4.7625,-0.29912 -3.5188,1.36038 -3.5188,1.36038 -1.4616,-1.4333 c -2.3582,-2.31235 -2.4829,-2.06844 2.0242,-3.95863 4.6807,-1.96303 4.4882,-1.45929 1.6411,-4.2932 -2.7554,-2.74258 -1.9431,-2.65169 -6.454,-0.72209 -3.9666,1.69675 -7.3652,0.81112 -7.3652,-1.91925 0,-0.0582 1.7838,-0.87059 3.964,-1.80528 4.6915,-2.0113 4.4816,-1.46989 1.6583,-4.27648 l -2.3151,-2.30144 -4.1853,1.31476 c -5.1278,1.61082 -4.5876,1.63682 -6.3877,-0.30745 -1.7668,-1.90838 -1.9474,-1.64876 2.371,-3.40812 1.8917,-0.77073 3.4687,-1.42207 3.5044,-1.44742 0.1883,-0.13379 -2.9153,-4.23312 -3.1852,-4.20714 -0.4087,0.0393 -13.2112,5.41129 -13.5021,5.66544 -0.12,0.1049 0.1954,1.18789 0.701,2.40666 0.6661,1.60588 0.8319,2.26597 0.6022,2.39771 -0.1743,0.1 -1.2939,0.53832 -2.4879,0.97408 l -2.1709,0.79229 -1.0421,-1.90011 c -0.573,-1.04507 -1.1381,-2.05233 -1.2557,-2.23837 -0.1668,-0.26403 -0.7459,-0.15888 -2.6389,0.4792 l -2.4251,0.81744 0.7723,2.28487 c 0.8902,2.63356 0.9602,2.48778 -1.5493,3.22699 -2.3025,0.67827 -2.1692,0.74265 -3.1005,-1.49722 -0.4111,-0.98892 -0.8254,-1.88851 -0.9205,-1.99909 -0.095,-0.11058 -1.3268,0.0586 -2.7369,0.37605 l -2.5638,0.57711 v 0.59286 c 0,0.32607 0.1786,1.52607 0.3968,2.66666 0.2183,1.14058 0.3969,2.15327 0.3969,2.25041 0,0.19389 -5.0131,1.92007 -5.1375,1.769 -0.042,-0.0514 -0.4108,-1.19486 -0.8187,-2.54093 -0.408,-1.34607 -0.8448,-2.4474 -0.9707,-2.4474 -0.1259,0 -1.0915,0.36209 -2.1457,0.80464 l -1.9169,0.80463 -0.5906,1.69235 c -0.452,1.29501 -0.5907,2.28638 -0.5907,4.22245 0,3.14973 -0.074,3.16515 -2.9531,0.61187 -4.6712,-4.14328 -4.4552,-4.03113 -4.4552,-2.31333 0,3.85588 -0.9143,5.33524 -4.7171,7.63282 l -3.1279,1.88981 -1.2369,-0.42145 c -0.6803,-0.23179 -1.2369,-0.45378 -1.2369,-0.49331 0,-0.0395 0.306,-1.42703 0.6798,-3.08335 l 0.6798,-3.01149 -0.3856,-0.66209 c -0.2122,-0.36415 -0.537,-1.3467 -0.7219,-2.18344 -0.4225,-1.91128 -0.2596,-1.94724 -3.4329,0.7584 l -2.6738,2.27975 0.1871,4.33483 c 0.103,2.38416 0.094,4.33483 -0.019,4.33483 -0.1133,0 -1.6088,-0.90682 -3.3234,-2.01516 l -3.1174,-2.01516 -0.4192,-2.28432 c -0.2306,-1.25637 -0.419,-2.54822 -0.4187,-2.87077 4e-4,-0.48773 1.8975,-7.66053 2.3115,-8.74011 0.2341,-0.61043 -0.6396,-0.33902 -2.7405,0.85123 l -2.0861,1.18197 -1.1683,2.58835 c -0.6425,1.42359 -1.256,2.69037 -1.3633,2.81506 -0.4736,0.55015 -1.6777,-4.4293 -1.7504,-7.23817 l -0.072,-2.77813 2.3764,-2.08563 c 2.6609,-2.33533 2.6887,-2.38394 1.5842,-2.76898 l -0.7923,-0.27618 -3.3208,1.6053 c -3.933,1.90126 -3.7093,2.00054 -3.1855,-1.41316 l 0.4196,-2.73426 1.6176,-1.49468 1.6177,-1.49468 4.0039,-1.4558 c 2.6515,-0.96409 4.5754,-1.502 5.6959,-1.59257 l 1.692,-0.13676 5.8486,1.89353 5.8486,1.89353 3.0427,0.083 3.0427,0.0829 16.0073,-5.4526 16.0073,-5.45261 2.2083,0.293 2.2082,0.29301 4.4857,-1.49507 4.4856,-1.49506 -0.3661,-0.56895 c -0.2013,-0.31293 -0.8704,-1.43752 -1.487,-2.4991 -0.8313,-1.43151 -1.2357,-1.89659 -1.5653,-1.80025 -0.2444,0.0714 -2.0818,0.61941 -4.0831,1.21772 -4.1272,1.23387 -3.7662,1.28058 -5.1028,-0.66013 -1.2892,-1.87191 -2.9067,-1.04981 15.0915,-7.67028 l 15.6104,-5.74213 2.6666,-1.74483 2.6666,-1.74483 1.4829,-2.26569 c 1.0531,-1.60906 1.669,-2.91746 2.1252,-4.51464 l 0.6423,-2.24896 -2.4105,-0.1668 c -1.3258,-0.0917 -3.6887,-0.23933 -5.2509,-0.32797 l -2.8403,-0.16117 -0.5271,1.03323 c -0.7187,1.40887 -1.7673,1.65065 -3.1603,0.72876 l -1.0016,-0.66284 -0.1794,-2.55164 c -0.2321,-3.30135 -0.6724,-3.05095 5.3646,-3.05095 2.8795,0 6.3253,-0.0774 7.6573,-0.17191 l 2.4219,-0.17191 v -7.99095 -7.99096 l -2.1828,-0.16992 c -4.0825,-0.31781 -4.5076,-0.25611 -8.8326,1.28211 -2.2503,0.80037 -4.2048,1.45521 -4.3433,1.45521 -0.1439,0 -0.2517,-1.2437 -0.2517,-2.90504 v -2.90504 l 1.1245,-0.56706 c 0.6185,-0.31189 1.151,-0.5889 1.1834,-0.61557 0.032,-0.0267 -0.06,-0.48053 -0.2061,-1.00855 l -0.265,-0.96006 -1.3814,-0.3105 c -0.926,-0.20814 -1.7656,-0.64217 -2.5469,-1.31653 l -1.1654,-1.00601 0.8361,-1.05568 0.8361,-1.05567 1.2042,0.36243 c 0.6624,0.19933 2.8944,0.44228 4.9602,0.53988 l 3.7559,0.17747 2.8207,-2.55058 2.8207,-2.55057 h 18.5211 18.5211 l 4.1555,-1.86446 c 2.2855,-1.02546 4.2014,-1.81848 4.2576,-1.76229 0.084,0.0845 0.6127,9.26382 0.6245,10.85506 0,0.35917 -0.9057,0.9135 -3.5769,2.18281 l -3.5806,1.70138 h -6.7205 -6.7204 l -0.957,1.16786 -0.957,1.16785 0.079,1.67642 0.079,1.67641 7.7645,0.30059 7.7645,0.30058 1.1652,1.14357 c 2.4203,2.37538 0.1113,4.62178 -3.6257,3.52745 -0.4059,-0.11883 -1.0299,1.90402 -1.0299,3.3383 0,0.26197 1.6707,1.82388 3.9687,3.71015 l 3.9688,3.25771 v 3.00191 3.0019 l -0.5954,-0.31181 c -0.3274,-0.1715 -1.9339,-1.06866 -3.5701,-1.99369 -1.6361,-0.92503 -3.0351,-1.68187 -3.1088,-1.68187 -0.074,0 -0.1341,1.52407 -0.1341,3.38682 v 3.38682 l 3.7703,2.10328 3.7704,2.10329 0.074,3.39818 c 0.041,1.869 -0.021,3.35728 -0.1369,3.30729 -0.865,-0.37241 -6.3392,-3.24295 -6.5387,-3.42876 -0.7949,-0.74002 -0.9567,-0.23726 -0.8818,2.74006 l 0.075,2.97405 3.7703,2.0812 3.7703,2.0812 v 3.41141 c 0,1.87628 -0.073,3.41141 -0.1626,3.41141 -0.089,0 -1.6831,-0.83344 -3.5416,-1.85208 -1.8584,-1.01865 -3.4522,-1.85209 -3.5416,-1.85209 -0.089,0 -0.1625,1.24287 -0.1625,2.76193 v 2.76193 l 3.7019,2.3313 3.7019,2.3313 v 2.57969 2.57969 h -0.969 c -0.6963,0 -1.7798,-0.45569 -3.8492,-1.61885 -1.5841,-0.89036 -2.9278,-1.57119 -2.9861,-1.51295 -0.058,0.0582 -0.4638,1.11414 -0.9013,2.34645 l -0.7955,2.24056 0.4511,0.43586 c 0.2481,0.23973 8.1901,6.90339 17.649,14.80813 l 17.1979,14.37226 4.4493,2.32365 c 4.9618,2.59132 4.4694,2.4957 9.6533,1.87456 l 3.7839,-0.45339 2.8995,-2.62208 c 1.5947,-1.44214 2.9544,-2.87619 3.0214,-3.18678 0.067,-0.31059 0.372,-2.18207 0.6777,-4.15884 l 0.5557,-3.59413 -11.4889,-19.02774 c -8.3248,-13.7874 -14.3821,-23.4236 -21.9941,-34.9891 -12.2088,-18.54965 -10.7696,-15.82967 -11.7838,-22.27095 l -0.8124,-5.15937 1.1579,-4.41838 c 0.8862,-3.38199 1.3299,-4.62322 1.8916,-5.29167 0.4036,-0.4803 1.7948,-2.07699 3.0915,-3.54819 l 2.3577,-2.6749 4.1532,-1.21503 4.1532,-1.21504 23.0849,-0.1384 c 12.6967,-0.0761 23.0849,-0.0582 23.0849,0.0398 0,0.098 -0.3015,1.16664 -0.67,2.3747 l -0.67,2.19646 h -9.7433 -9.7434 l -0.9504,2.31511 c -0.5228,1.27331 -0.9862,2.46624 -1.0299,2.65096 -0.063,0.2671 1.9924,0.3336 10.0408,0.32484 l 10.1203,-0.011 -0.025,0.4689 c -0.014,0.2579 -0.1635,1.06423 -0.3322,1.79183 l -0.3069,1.32292 -10.4279,0.19002 c -5.7353,0.10451 -10.5163,0.28311 -10.6244,0.39688 -0.191,0.20097 -2.0957,5.01372 -2.0957,5.29536 0,0.0774 4.8816,0.087 10.848,0.0214 5.9663,-0.0656 10.8479,-0.0745 10.8479,-0.0197 0,0.40465 -0.6442,2.63037 -0.8164,2.82078 -0.1187,0.1313 -9.3847,0.3901 -20.6701,0.57732 l -20.4548,0.33933 -2.854,0.71516 -2.8541,0.71516 -1.6222,2.01481 c -0.8923,1.10815 -1.7179,2.14328 -1.8348,2.30028 -0.1575,0.21166 6.7584,11.58284 7.6215,12.53132 0.058,0.0642 0.7284,-0.47238 1.4888,-1.19248 0.7604,-0.72011 1.937,-1.82839 2.6147,-2.46285 l 1.2322,-1.15358 1.2152,2.07595 c 1.5166,2.59087 1.5601,2.27503 -0.6414,4.66416 l -1.8565,2.01487 1.8873,3.0687 c 1.3197,2.14586 1.9775,2.99349 2.1873,2.81861 0.165,-0.13755 0.9548,-1.14909 1.7552,-2.24786 1.7429,-2.39277 1.5487,-2.41883 3.3744,0.45282 l 1.4738,2.31809 -0.8014,0.71652 c -2.888,2.58195 -3.0568,3.47345 -1.2248,6.46812 2.1792,3.56208 1.8236,3.48008 4.1461,0.95615 l 2.0175,-2.19262 0.3383,0.46255 c 0.186,0.25441 0.6831,1.12135 1.1047,1.92653 l 0.7665,1.46398 -1.6342,2.35816 -1.6342,2.35817 1.659,2.51345 c 1.9982,3.02718 1.5759,2.99992 4.0614,0.26219 l 2.0553,-2.26379 1.0123,1.59224 c 1.3024,2.04847 1.341,1.8601 -0.973,4.75577 -2.3611,2.95451 -2.3068,2.13783 -0.3728,5.60824 1.9294,3.46213 1.5337,3.41257 4.0634,0.50883 2.4485,-2.81044 2.2694,-2.76272 3.4867,-0.92929 l 0.9641,1.45195 -1.4151,2.05377 c -0.7783,1.12958 -1.7648,2.553 -2.1922,3.16316 l -0.7772,1.10938 1.2735,3.38854 c 0.7004,1.86369 1.913,4.93093 2.6948,6.81607 l 1.4213,3.42754 -0.1836,5.15849 -0.1835,5.15849 -3.8135,3.98168 c -4.5463,4.74682 -3.3902,4.10905 -9.3716,5.17013 l -4.9359,0.87561 -4.1923,-0.96277 c -2.3057,-0.52952 -4.4892,-0.99394 -4.8522,-1.03203 l -0.66,-0.0693 -0.4388,13.05086 -0.4387,13.05085 0.7518,1.65804 0.7518,1.65804 1.6454,0.7136 c 0.905,0.39249 9.1574,2.85607 18.3386,5.47462 9.1813,2.61856 16.8435,4.81331 17.0272,4.87722 0.2219,0.0772 -2.5765,5.93805 -8.3334,17.45347 l -8.6674,17.33726 -2.9114,0.007 -2.9113,0.007 -2.1694,3.27903 -2.1695,3.27902 1.3096,2.15604 1.3095,2.15605 v 2.59492 2.59493 l -1.4349,1.95139 c -0.9104,1.23798 -1.9018,2.23634 -2.712,2.73083 -0.7024,0.42869 -1.5596,0.95798 -1.9049,1.1762 l -0.6278,0.39675 0.1931,-4.24401 0.193,-4.244 -2.9757,-0.45684 -2.9757,-0.45683 -4.2625,4.20791 c -3.4386,3.39467 -4.761,4.50865 -6.8421,5.76396 l -2.5797,1.55605 v 2.19245 c 0,2.45497 0.028,2.42779 -1.5213,1.4938 z m -45.0194,-209.5406 c 3.4799,-2.99846 6.393,-5.55831 6.4735,-5.68854 0.085,-0.13692 -2.6499,-0.23679 -6.4838,-0.23679 h -6.6302 v 5.68854 c 0,3.1287 0.071,5.68854 0.1566,5.68854 0.086,0 3.0039,-2.45328 6.4839,-5.45175 z m -67.4286,205.6927 c -1.176,-0.32915 -1.9182,-0.67592 -1.9182,-0.89621 0,-4.2093 1.0326,-5.98397 4.1479,-7.1286 l 2.6927,-0.98936 -0.6904,-1.40756 -0.6903,-1.40757 -2.3797,1.24262 -2.3797,1.24261 -1.2724,2.24767 c -1.5461,2.73107 -1.4432,2.69725 -2.7008,0.88787 l -1.0237,-1.47296 0.4661,-1.75733 c 0.2563,-0.96654 0.5636,-1.94945 0.683,-2.18425 0.332,-0.65353 3.6225,-2.49556 5.3407,-2.98981 l 1.5319,-0.44066 -0.552,-0.77528 c -0.7822,-1.09841 -0.8922,-1.13063 -2.5748,-0.75408 -2.1692,0.48544 -4.4646,2.11183 -5.5472,3.93046 -1.0888,1.82896 -1.246,1.87194 -1.9315,0.52816 l -0.5587,-1.09503 0.6897,-2.07084 0.6897,-2.07084 2.5373,-1.68008 c 1.3956,-0.92405 2.6621,-1.76034 2.8145,-1.85843 0.296,-0.19055 -0.5253,-2.3352 -0.8942,-2.3352 -0.1093,0 -1.2521,0.4059 -2.5395,0.90199 l -2.3409,0.90199 -1.8521,3.05746 c -2.0513,3.38637 -2.0675,3.40052 -2.639,2.29545 -1.0242,-1.98054 -0.2363,-5.50208 2.5621,-11.45224 l 1.0868,-2.31098 0.818,-0.12118 c 0.4499,-0.0667 7.0092,-0.30793 14.5763,-0.53617 7.5671,-0.22824 14.6611,-0.48384 15.7644,-0.568 l 2.0061,-0.15302 9.2387,-12.16599 c 5.0813,-6.69129 9.278,-12.2755 9.3261,-12.40934 0.048,-0.13385 -1.2021,-1.61609 -2.7781,-3.29387 l -2.8655,-3.05051 -0.7139,-3.09518 c -0.857,-3.71546 -1.3739,-3.2198 3.8734,-3.7139 l 4.3811,-0.41254 v -0.79988 c 0,-0.43993 -0.3212,-1.78625 -0.7138,-2.99183 l -0.7139,-2.19195 -3.9825,-0.0728 -3.9825,-0.0727 -0.078,-1.91823 -0.078,-1.91823 h 4.2449 4.2449 v -2.77124 -2.77123 l -4.0349,-0.073 -4.0349,-0.073 -0.078,-1.78594 -0.078,-1.78594 h 1.4262 c 0.7843,0 2.6948,-0.0776 4.2454,-0.1725 l 2.8193,-0.1725 v -2.86332 -2.86331 l -4.0349,-0.073 -4.0349,-0.073 -0.074,-3.08421 -0.074,-3.08422 1.0004,-0.14655 c 0.5502,-0.0806 10.2872,-0.2133 21.6378,-0.29488 l 20.6375,-0.14832 2.6492,1.52701 2.6491,1.52701 4.7035,4.78843 4.7035,4.78844 -0.077,2.4876 -0.077,2.48761 -13.0485,4.39665 c -7.1767,2.41816 -13.14,4.50176 -13.2518,4.63021 -0.1915,0.21997 -7.9632,21.31792 -7.9632,21.61779 0,0.077 1.4882,2.61944 3.3071,5.64979 3.8578,6.42732 3.6926,5.7482 1.7426,7.16337 -1.9856,1.44105 -1.7164,1.55767 -3.8284,-1.65832 -1.0018,-1.5254 -1.8733,-2.77345 -1.9366,-2.77345 -0.2527,0 -4.5764,3.49821 -4.5764,3.70268 0,0.19543 0.5415,1.49506 2.3428,5.62282 l 0.5479,1.25571 -1.4765,1.09075 c -1.1659,0.86132 -1.5261,1.01459 -1.7124,0.72867 -0.1298,-0.19915 -0.9524,-1.57872 -1.8281,-3.06571 l -1.5921,-2.70363 -2.6308,1.90988 c -3.1186,2.26404 -3.0102,1.74861 -1.0772,5.11744 l 1.5695,2.73524 -0.7096,0.49877 c -0.8901,0.6257 -2.4529,1.43076 -2.5565,1.31699 -0.043,-0.0471 -0.8684,-1.30734 -1.8344,-2.80052 l -1.7563,-2.71487 -2.5067,2.01615 c -1.3787,1.10888 -2.5067,2.0612 -2.5067,2.11626 0,0.0551 0.79,1.43092 1.7555,3.05745 l 1.7554,2.95734 -0.4831,0.35325 c -0.6972,0.50979 -0.9717,0.45526 -2.8202,-0.56008 -1.403,-0.77066 -4.6238,-1.98203 -5.3008,-1.99368 -0.1091,-0.002 -0.1984,1.50069 -0.1984,3.33903 v 3.34245 l 1.7198,2.10521 c 1.911,2.33926 2.0655,2.97813 1.0078,4.16707 -0.061,0.0687 -0.67,-0.50105 -1.3532,-1.26609 l -1.2421,-1.39098 -0.7783,0.63336 -0.7783,0.63337 2.4604,2.97268 2.4604,2.97267 -0.2989,2.00945 c -0.1644,1.1052 -0.326,2.03296 -0.3592,2.06169 -0.3841,0.33265 -6.6352,3.28309 -6.738,3.18028 -0.077,-0.0767 0.2267,-1.60073 0.6742,-3.3868 l 0.8136,-3.2474 -1.1092,-2.08262 c -1.0498,-1.9711 -2.8826,-3.84702 -6.5918,-6.7471 -0.4066,-0.3179 -0.9848,0.14529 -5.3886,4.31661 l -4.9331,4.67272 -1.7552,-0.0714 -1.7551,-0.0714 -2.304,1.70868 c -2.4738,1.83459 -2.5167,1.91768 -1.9552,3.7833 l 0.3709,1.23267 -0.4371,-0.0204 c -0.2404,-0.0113 -1.3003,-0.26206 -2.3553,-0.55735 z m 6.0027,-174.50095 c -6.4665,-7.08904 -12.81,-14.20302 -14.0966,-15.80885 -3.1628,-3.9477 -4.4356,-4.28797 -7.9301,-2.12022 -2.3566,1.46185 -2.3053,1.39162 -3.0883,4.22762 -0.7684,2.78345 -0.8012,2.80129 -2.3737,1.2922 l -1.3466,-1.2922 -0.2389,-1.85209 -0.239,-1.85208 1.3392,-2.92896 1.3392,-2.92896 2.1471,-1.14927 c 3.5076,-1.87753 3.4654,-1.68201 0.5705,-2.64644 l -2.5401,-0.84624 -3.0362,1.21504 c -1.67,0.66827 -3.0963,1.21504 -3.1696,1.21504 -0.1229,0 -0.075,-0.71809 0.2928,-4.3874 l 0.1347,-1.34468 2.9393,-2.07692 2.9392,-2.07692 2.6697,0.29736 c 1.4683,0.16356 2.7511,0.215 2.8508,0.11432 0.1921,-0.19422 1.5516,-3.83669 1.4601,-3.91231 -0.03,-0.0245 -0.8277,-0.43369 -1.7735,-0.90938 l -1.7198,-0.86489 -2.94,0.30437 c -4.6787,0.48438 -4.5672,0.67951 -1.4209,-2.48589 l 2.7734,-2.79026 4.091,0.0499 4.0911,0.0499 1.1654,-1.35685 1.1655,-1.35685 -1.1555,-0.5049 c -2.8728,-1.25532 -5.8534,-2.69765 -5.758,-2.78632 0.4552,-0.42315 6.8135,-3.06377 7.3532,-3.0538 0.3789,0.007 2.2461,0.27489 4.1492,0.59531 l 3.4603,0.58259 3.3265,3.58571 3.3264,3.58571 -1.1602,6.73304 c -0.6381,3.70317 -1.1621,6.8115 -1.1643,6.90739 0,0.0959 8.5152,8.35839 18.9278,18.36108 10.4125,10.00269 18.8362,18.27451 18.7192,18.3818 -0.1635,0.14998 -24.0121,8.72339 -24.2658,8.72339 -0.031,0 -5.348,-5.80012 -11.8145,-12.88917 z m 24.0247,-13.35965 c -0.6434,-0.91559 -4.2386,-6.17344 -7.9893,-11.68411 l -6.8194,-10.01938 0.5748,-1.22541 0.5749,-1.2254 3.3301,-1.5875 c 1.8315,-0.87313 3.4121,-1.62055 3.5124,-1.66093 0.1003,-0.0404 0.4494,1.21568 0.7758,2.79125 l 0.5934,2.86467 4.6275,5.27855 c 2.5451,2.90319 4.9545,5.61104 5.3542,6.01743 l 0.7267,0.7389 7.5194,1.31163 c 4.1357,0.72139 7.6109,1.31162 7.7227,1.31162 0.1118,0 0.2033,1.77222 0.2033,3.93826 v 3.93827 l -1.3891,0.15326 c -0.764,0.0843 -4.9609,0.22628 -9.3265,0.31553 -4.3657,0.0892 -8.1363,0.21757 -8.3793,0.28517 -0.3095,0.0861 -0.7919,-0.3754 -1.6116,-1.54181 z m 24.5043,-33.74387 c -2.4337,-3.05686 -19.4082,-25.2071 -19.4082,-25.32602 0,-1.00165 3.1285,-0.004 10.2123,3.2557 l 7.3825,3.3974 -0.099,4.47951 -0.099,4.47951 1.3635,2.7172 c 0.75,1.49446 1.4822,2.64388 1.6272,2.55425 0.145,-0.0896 0.8378,-0.85282 1.5395,-1.69599 l 1.2758,-1.53305 0.1784,-2.74656 c 0.3172,-4.88662 0.5019,-6.60374 0.702,-6.52646 0.1078,0.0417 2.6642,2.69512 5.6809,5.89658 3.0167,3.20145 5.7447,6.09135 6.0623,6.42198 l 0.5774,0.60115 1.9425,-1.45332 1.9426,-1.45331 0.6914,0.49354 c 0.3803,0.27144 1.3996,1.04395 2.2651,1.7167 1.9583,1.52225 1.1379,2.15981 6.9245,-5.38155 4.1078,-5.35362 4.9952,-6.37559 5.1689,-5.95313 0.1154,0.28051 0.5668,2.41502 1.0033,4.74335 l 0.7936,4.23334 1.3961,1.23818 c 1.6399,1.45425 1.5577,1.5028 2.3178,-1.36981 l 0.5949,-2.24829 -0.3419,-3.64489 c -0.2095,-2.23316 -0.247,-3.73367 -0.097,-3.8741 0.1348,-0.12606 3.5558,-2.66875 7.6022,-5.65042 l 7.3571,-5.42121 1.1096,0.26922 c 0.6103,0.14807 1.2003,0.34944 1.3112,0.44748 0.1108,0.0981 -3.5219,6.48121 -8.0728,14.1848 l -8.2744,14.00654 -20.9197,0.0677 -20.9197,0.0677 z m 15.7939,-14.06045 -4.8823,-4.70237 4.4747,-4.80766 c 5.3424,-5.74012 3.9108,-5.74456 9.45,0.0293 l 4.6403,4.83696 -3.2853,3.56356 c -1.807,1.95995 -3.7871,4.06283 -4.4003,4.67306 l -1.1148,1.10951 z m -148.7084,231.07423 c 10.2593,-5.63644 18.76,-10.34497 18.8906,-10.46339 0.1941,-0.17595 -4.9814,-10.14897 -5.6614,-10.90947 -0.1059,-0.11842 -3.7495,1.74827 -8.0968,4.14821 -4.3474,2.39993 -7.9313,4.33653 -7.9643,4.30355 -0.3739,-0.37391 -7.4414,-13.51989 -7.3489,-13.6695 0.069,-0.11194 3.6351,-2.13405 7.9243,-4.49357 6.5251,-3.5895 7.7607,-4.36063 7.5669,-4.72233 -1.6587,-3.09604 -5.6551,-10.27008 -5.8072,-10.42458 -0.1098,-0.11148 -3.4064,1.56736 -7.3259,3.73075 -26.3085,14.52139 -32.7955,18.10438 -32.8319,18.13415 -0.1549,0.12663 6.0147,10.86961 6.2163,10.82418 0.1399,-0.0316 3.8526,-2.03123 8.2504,-4.44373 4.3978,-2.4125 8.0439,-4.33844 8.1025,-4.27987 0.059,0.0586 1.7692,3.12982 3.8014,6.82499 l 3.6951,6.71848 -0.451,0.33538 c -0.2481,0.18446 -3.8485,2.19259 -8.0009,4.4625 -4.1524,2.26991 -7.64,4.20944 -7.7502,4.31007 -0.1517,0.13843 4.398,8.74642 5.7101,10.80341 0.1618,0.2537 0.4737,0.18175 1.3199,-0.30447 0.6093,-0.35017 9.5018,-5.24831 19.761,-10.88476 z m 318.1405,3.83438 c 9.4261,-2.46894 15.0913,-10.03881 21.3149,-28.48137 0.9423,-2.79232 1.6564,-5.12638 1.5868,-5.1868 -0.6365,-0.5526 -21.3194,-11.24663 -21.4656,-11.09871 -0.1064,0.10768 -2.4495,4.44909 -5.2068,9.64757 l -5.0134,9.45178 2.4182,1.29773 c 2.8602,1.53493 5.1306,2.68516 5.3003,2.68516 0.067,0 1.0278,-1.72218 2.1355,-3.82707 2.4832,-4.71884 1.8686,-4.49126 6.0965,-2.25744 4.0275,2.12789 3.911,1.93974 2.8872,4.66395 -4.7539,12.64994 -16.5572,14.80677 -26.5868,4.85824 -6.8896,-6.83377 -3.5289,-19.54524 4.938,-18.67778 l 1.6356,0.16758 2.8075,-5.3189 c 3.3835,-6.41017 3.4521,-5.93598 -1.029,-7.10968 -13.0516,-3.41849 -27.2584,20.64603 -20.7415,35.13336 4.4064,9.79547 18.6863,16.73352 28.9226,14.05238 z m -31.4531,-202.68813 c 7.0801,-7.85028 7.8922,-10.83668 4.3476,-15.98857 -1.0967,-1.59397 -0.9293,-1.66422 0.8161,-0.34246 10.7979,8.1771 22.4202,-1.66183 16.5071,-13.97423 -1.9447,-4.04951 -17.8029,-23.1604 -18.6394,-22.46266 -0.2183,0.18207 -8.0452,6.90464 -17.3932,14.93906 l -16.9962,14.60803 3.9612,4.59491 c 2.1786,2.5272 4.0558,4.65339 4.1715,4.72486 0.1156,0.0715 3.178,-2.42268 6.8053,-5.54258 l 6.5951,-5.67253 0.4358,0.46764 c 6.431,6.90222 6.5974,8.25637 1.681,13.67761 -3.6563,4.03171 -4.9968,5.56117 -5.8194,6.63962 l -0.7106,0.93173 0.3885,0.45726 c 0.2136,0.25149 2.2025,2.57424 4.4197,5.16165 l 4.0313,4.70439 1.5787,-2.21934 c 0.8682,-1.22064 2.5872,-3.33762 3.8199,-4.70439 z m 4.4244,-23.38305 c -1.5781,-0.68601 -7.5428,-6.67925 -7.4601,-7.49582 0.061,-0.60585 7.7622,-6.72537 8.1546,-6.4801 0.8223,0.51402 4.7719,5.4282 5.4397,6.76828 2.0813,4.17675 -2.0202,8.99603 -6.1342,7.20764 z m -275.0939,28.82244 c 11.8592,-3.08287 21.7585,-21.54792 16.4282,-30.64335 -4.9624,-8.46783 -13.3097,-8.30205 -24.3928,0.48447 -5.8752,4.65766 -8.3375,5.70399 -10.4655,4.44699 -5.153,-3.04395 1.663,-12.57599 6.9735,-9.75235 l 1.2006,0.63833 3.8659,-4.8427 c 4.5295,-5.67387 4.2138,-4.84568 2.3446,-6.15068 -6.5879,-4.59941 -14.6828,-1.85239 -21.5997,7.32991 -6.8465,9.08879 -7.4896,16.68459 -1.8909,22.33495 5.9122,5.96681 11.0864,5.27182 22.0476,-2.96132 6.6694,-5.00954 8.8082,-5.80124 11.1113,-4.11303 5.3796,3.9433 -3.0028,14.1574 -9.0897,11.07584 -1.0239,-0.51841 -1.3636,-0.58803 -1.6138,-0.33072 -0.1743,0.17924 -1.9345,2.34995 -3.9116,4.82381 l -3.5948,4.49791 0.5898,0.48483 c 3.2104,2.63895 8.0176,3.71166 11.9973,2.67711 z m 239.4355,-29.81871 c 0.315,-1.33414 9.6909,-47.4637 9.7392,-47.91675 0.044,-0.41732 -9.1788,-6.64869 -12.4233,-8.39339 l -0.5693,-0.30613 -19.6714,14.34414 c -10.8192,7.88928 -19.707,14.43971 -19.7507,14.55651 -0.095,0.25298 9.8638,6.61865 10.3362,6.60715 0.1796,-0.004 1.8438,-1.25454 3.6983,-2.77813 1.8544,-1.52359 3.503,-2.77017 3.6636,-2.77017 0.7539,0 15.8575,9.88224 15.7301,10.29222 -0.333,1.07148 -1.9944,8.21766 -1.9841,8.53417 0.033,1.00772 11.0317,8.67617 11.2314,7.83038 z m -12.3295,-29.23646 c -2.6897,-1.70987 -4.8996,-3.22791 -4.911,-3.37343 -0.024,-0.30995 15.0492,-12.80903 15.2855,-12.67493 0.1228,0.0697 -4.0782,15.96851 -4.9216,18.62576 -0.2411,0.75951 -0.096,0.828 -5.4529,-2.5774 z m -182.9687,18.45469 c 2.9974,-2.11005 5.4524,-3.9785 5.4556,-4.15212 0,-0.17361 -2.7921,-10.67253 -6.2118,-23.33092 -3.4198,-12.6584 -6.2177,-23.09589 -6.2177,-23.19442 0,-0.0985 -0.1914,-0.1057 -0.4254,-0.0159 -0.5652,0.21689 -9.8934,6.78198 -9.8934,6.96288 0,0.0775 2.2689,7.58051 5.042,16.67329 2.7731,9.09278 4.9832,16.59103 4.9115,16.66279 -0.072,0.0718 -6.2886,-4.6146 -13.8151,-10.41412 -7.5266,-5.79952 -13.807,-10.50746 -13.9564,-10.46208 -1.3122,0.39839 -11.2287,7.89129 -10.8204,8.1759 0.2532,0.1765 9.1519,6.50791 19.7749,14.0698 l 19.3146,13.74889 0.6959,-0.44375 c 0.3828,-0.24407 3.1483,-2.17017 6.1457,-4.28022 z m 146.9111,-31.44126 c -2.7085,-7.84951 -4.9216,-14.37459 -4.9179,-14.50018 0,-0.12559 4.5283,-3.67108 10.0545,-7.87886 5.5263,-4.20779 9.9962,-7.70216 9.9331,-7.76528 -0.2882,-0.28822 -14.0358,-3.71952 -14.2868,-3.56591 -0.156,0.0954 -4.3669,3.6755 -9.3577,7.9558 -4.9908,4.28031 -9.132,7.72464 -9.2025,7.65408 -0.071,-0.0706 0.594,-4.45024 1.4769,-9.73261 0.8828,-5.28238 1.5116,-9.68956 1.3973,-9.79375 -0.2518,-0.2294 -11.9446,-2.4964 -12.092,-2.3444 -0.1499,0.15451 -8.94,44.19659 -8.8384,44.28391 0.1679,0.1443 11.9187,2.28603 12.0149,2.18986 0.054,-0.0541 1.1946,-4.88307 2.5344,-10.73095 2.9254,-12.76865 1.9322,-13.05513 6.9384,2.00132 2.3103,6.94862 4.2339,12.67321 4.2746,12.72132 0.1232,0.14568 14.7966,3.94538 14.8999,3.85835 0.053,-0.0445 -2.1201,-6.5032 -4.8287,-14.3527 z m -101.2329,8.67529 c 2.6921,-0.46842 4.9263,-0.87751 4.965,-0.90907 0.058,-0.0477 -5.4139,-31.37545 -5.9167,-33.87183 -0.2639,-1.31074 0.087,-0.82153 11.0021,15.34583 5.6984,8.44021 10.4476,15.43534 10.5537,15.54474 0.1688,0.17392 15.8897,-1.50135 16.021,-1.70724 0.1109,-0.17396 -4.3064,-45.23931 -4.4483,-45.38116 -0.084,-0.0838 -2.5656,0.13315 -5.5151,0.48211 l -5.3628,0.63447 0.064,0.66145 c 0.035,0.36381 0.785,7.73816 1.6656,16.38745 0.8806,8.64929 1.566,15.93104 1.5231,16.18167 -0.045,0.26514 -4.498,-6.01627 -10.6475,-15.021 l -10.5695,-15.4767 -0.6753,0.12565 c -0.3715,0.0691 -4.277,0.75612 -8.679,1.52671 -4.402,0.77059 -8.0037,1.52049 -8.0037,1.66644 0,0.14595 1.786,10.24952 3.9688,22.45237 2.1828,12.20285 3.9687,22.25419 3.9687,22.33631 0,0.0821 0.2679,0.0872 0.5953,0.0114 0.3275,-0.0759 2.798,-0.52117 5.4901,-0.9896 z m 56.886,-6.13976 c 3e-4,-0.61846 0.4168,-10.58995 0.9254,-22.15885 0.5087,-11.56891 0.9251,-21.34665 0.9255,-21.72832 l 6e-4,-0.69394 -6.1011,-0.19443 c -3.3556,-0.10693 -6.178,-0.11745 -6.2721,-0.0234 -0.2446,0.24463 -2.1853,45.22342 -1.961,45.45079 0.1832,0.18573 2.8393,0.30542 9.2409,0.41641 l 3.2412,0.0562 z"
       id="path173-3" /></g></svg>
