<?xml version="1.0" encoding="UTF-8" standalone="no"?>
<!-- Created with Inkscape (http://www.inkscape.org/) -->

<svg
   width="201.73203mm"
   height="181.901mm"
   viewBox="0 0 201.73203 181.901"
   version="1.1"
   id="svg1"
   xml:space="preserve"
   inkscape:version="1.4.4 (dcaf3e7, 2026-05-05)"
   sodipodi:docname="logos teams.svg"
   inkscape:export-batch-name="logos teams"
   inkscape:export-batch-path="Desktop/3 LIGA"
   xmlns:inkscape="http://www.inkscape.org/namespaces/inkscape"
   xmlns:sodipodi="http://sodipodi.sourceforge.net/DTD/sodipodi-0.dtd"
   xmlns="http://www.w3.org/2000/svg"
   xmlns:svg="http://www.w3.org/2000/svg"><sodipodi:namedview
     id="namedview1"
     pagecolor="#ffffff"
     bordercolor="#000000"
     borderopacity="0.25"
     inkscape:showpageshadow="2"
     inkscape:pageopacity="0.0"
     inkscape:pagecheckerboard="0"
     inkscape:deskcolor="#d1d1d1"
     inkscape:document-units="mm"
     inkscape:zoom="0.037190382"
     inkscape:cx="-4006.4122"
     inkscape:cy="-8779.1516"
     inkscape:window-width="1920"
     inkscape:window-height="1050"
     inkscape:window-x="0"
     inkscape:window-y="30"
     inkscape:window-maximized="0"
     inkscape:current-layer="layer1"><inkscape:page
       x="0"
       y="0"
       width="201.73204"
       height="181.901"
       id="page1"
       margin="0"
       bleed="0" /></sodipodi:namedview><defs
     id="defs1"><style
       id="style1-7">
      .cls-1 {
        fill: #fff;
      }
    </style></defs><g
     inkscape:label="Ebene 1"
     inkscape:groupmode="layer"
     id="layer1"
     transform="translate(715.40108,1307.2365)"><path
       style="fill:#2b70af;fill-opacity:1"
       d="m -643.25531,-1125.734 c -9.55621,-1.0991 -18.40679,-4.2345 -22.27848,-7.8924 -2.97732,-2.8129 -4.95127,-7.1078 -5.73543,-12.4792 l -0.30901,-2.1166 -16.56902,-0.068 -16.56902,-0.068 -0.54054,-0.8747 c -3.22812,-5.2232 -7.45936,-15.6857 -9.78319,-24.1906 -0.60758,-2.2237 -0.66305,-2.1875 1.56043,-1.0191 8.15,4.2828 25.67054,8.869 55.21175,14.4522 14.81555,2.8002 29.53883,5.9809 41.74938,9.0192 8.28873,2.0625 10.81259,3.0428 12.98137,5.0419 l 1.16301,1.072 0.69912,1.429 0.69912,1.4289 -0.11217,2.3462 -0.11218,2.3463 -0.8542,1.7351 -0.8542,1.7351 -1.37624,1.2374 c -0.75692,0.6805 -2.24752,1.7474 -3.31243,2.3707 l -1.9362,1.1334 -2.83104,0.9369 c -3.63555,1.2031 -7.27013,1.9206 -12.26967,2.4219 l -3.99696,0.4009 -5.84991,-0.031 -5.84992,-0.031 z m 117.41706,-29.0387 c -1.58037,-5.734 -6.0196,-12.65 -10.43211,-16.2523 -8.66708,-7.0757 -13.34997,-9.7067 -24.02413,-13.4974 -13.27156,-4.7131 -27.67733,-7.8144 -57.54686,-12.3891 -22.94302,-3.5138 -40.70717,-8.121 -45.0575,-11.6858 l -1.1851,-0.9711 -0.60591,-1.3415 c -0.33325,-0.7378 -0.68438,-1.8857 -0.78029,-2.5509 l -0.17438,-1.2095 0.28674,-1.0649 c 0.15771,-0.5857 0.63295,-1.5428 1.05609,-2.1269 l 0.76934,-1.062 1.81156,-1.2044 c 3.28292,-2.1824 7.49072,-3.4787 13.58466,-4.1847 l 2.77812,-0.3219 h 5.68854 c 12.75592,0.01 21.27623,1.8812 27.55518,6.0554 l 1.85534,1.2334 1.0775,1.3549 c 0.59262,0.7452 1.38396,2.0097 1.75853,2.81 l 0.68104,1.4553 -0.009,2.1391 -0.009,2.1391 35.82675,0.064 35.82677,0.064 -0.15121,-1.0123 c -0.0832,-0.5568 -0.22741,-1.7267 -0.32054,-2.5998 -1.59458,-14.9497 -8.8887,-25.3837 -23.97085,-34.2897 l -1.16448,-0.6876 -1.7752,-5.4225 c -0.97636,-2.9823 -1.76886,-5.5899 -1.76112,-5.7947 l 0.0141,-0.3722 4.2854,-3.0618 c 2.35697,-1.6839 6.89486,-4.9536 10.08419,-7.2658 l 5.79879,-4.2041 2.24104,2.371 c 15.35528,16.2465 24.66094,36.1374 27.47473,58.7274 l 0.39548,3.175 0.14349,6.35 0.1435,6.35 -0.43724,4.6302 c -1.17246,12.4159 -3.98872,23.0034 -9.05243,34.032 -2.05217,4.4695 -1.91689,4.3878 -2.68012,1.6186 z m -82.87498,-73.0945 c 0,-0.1561 1.85387,-5.8315 7.56319,-23.1538 1.22452,-3.7152 2.2264,-6.83 2.2264,-6.9217 0,-0.1662 -6.02222,-4.5839 -17.06563,-12.5189 -3.20146,-2.3004 -6.47568,-4.6697 -7.27604,-5.2653 l -1.45521,-1.0828 16.01958,-0.068 16.01958,-0.068 0.84291,-2.6606 c 1.7085,-5.3929 8.49744,-26.3285 8.74529,-26.9687 l 0.25609,-0.6615 0.14848,0.3969 c 0.19707,0.5268 3.65281,11.199 4.92626,15.2135 0.55392,1.7463 1.83081,5.7349 2.83754,8.8636 l 1.8304,5.6885 16.04357,0.1323 16.04357,0.1323 -7.32851,5.3134 c -4.03069,2.9223 -9.86306,7.1409 -12.96083,9.3745 l -5.63231,4.0611 0.10655,0.2828 c 0.0586,0.1555 2.03231,6.1764 4.38599,13.3797 2.35369,7.2033 4.55595,13.9005 4.8939,14.8828 0.33796,0.9823 0.56003,1.7859 0.4935,1.7859 -0.0665,0 -5.79485,-4.1272 -12.7296,-9.1715 -6.93475,-5.0444 -12.7277,-9.2556 -12.87322,-9.3583 l -0.26458,-0.1867 -6.75979,4.9265 c -3.71787,2.7096 -9.37333,6.8362 -12.56769,9.1704 -6.39252,4.671 -6.46939,4.7243 -6.46939,4.482 z m 42.86903,-15.619 c -1.15163,-3.4848 -2.79976,-8.5045 -3.6625,-11.1549 l -1.56861,-4.8188 5.58885,-4.0262 c 3.07386,-2.2145 7.32568,-5.2847 9.44847,-6.8229 l 3.85962,-2.7966 -11.68091,-0.069 -11.68091,-0.069 -1.48617,-4.5613 c -0.8174,-2.5088 -2.40527,-7.4189 -3.52861,-10.9114 -1.12334,-3.4925 -2.1331,-6.4523 -2.24392,-6.5772 l -0.20148,-0.2272 -1.89664,5.9157 c -1.04315,3.2537 -2.66899,8.266 -3.61297,11.1385 l -1.71632,5.2228 -11.68715,0.069 -11.68716,0.069 3.83276,2.7571 c 2.10801,1.5165 6.37001,4.5968 9.4711,6.8452 l 5.63836,4.0881 -0.11257,0.2986 c -0.77501,2.0554 -7.06732,21.6815 -6.97947,21.7693 0.0657,0.066 4.31108,-2.9313 9.43408,-6.66 5.12299,-3.7288 9.45282,-6.7258 9.62184,-6.66 0.16902,0.066 4.4714,3.1634 9.56084,6.8834 5.08943,3.72 9.28273,6.7344 9.31844,6.6987 0.0357,-0.036 -0.87733,-2.9161 -2.02897,-6.401 z m -138.76101,-6.9313 c 16.6472,-28.6122 44.98652,-46.9135 78.42948,-50.6492 l 3.04271,-0.3399 7.27604,0.01 7.27604,0.01 3.83646,0.4722 c 6.60362,0.8127 16.40416,2.8389 16.40416,3.3914 0,0.2104 -4.6738,14.8119 -5.60221,17.5019 l -0.35091,1.0167 -18.51767,-0.035 -18.51767,-0.035 0.26142,0.2458 c 0.14378,0.1352 2.04736,1.5289 4.23017,3.0971 2.18282,1.5682 6.29047,4.5357 9.12813,6.5946 2.83766,2.0588 7.03797,5.0917 9.33403,6.7399 2.29606,1.6481 4.24255,3.1065 4.32552,3.2407 l 0.15087,0.2441 -0.88594,-0.1458 c -16.36385,-2.6936 -49.83696,-2.5644 -67.82552,0.2617 -10.35849,1.6274 -21.72714,4.8074 -29.32178,8.2016 -1.77006,0.7911 -3.2602,1.4384 -3.31142,1.4384 -0.0512,0 0.23592,-0.5656 0.63809,-1.2568 z m 133.07486,-28.6735 c -0.14251,-0.3914 -2.63217,-8.127 -3.84575,-11.9491 l -0.73796,-2.3242 0.5676,0.1659 c 3.90709,1.1419 18.02003,9.534 22.39572,13.3175 l 0.92604,0.8007 -8.59895,0.014 c -4.72943,0.01 -9.04334,0.087 -9.58646,0.1769 l -0.9875,0.1632 z"
       id="path212"
       sodipodi:nodetypes="csscccsssssscccccccsscsscccccsssscsscsscsscsscsscccccssscsscsscsscccssccssssscccsscssscccsscsssssscsssssscsscccssscsscccsscsssssssscscccssscccssssscssssccsscssccscs" /></g><style
     id="style1">@media(prefers-color-scheme:dark){.lines{fill:#d7d7d7}}</style></svg>
