<?xml version="1.0" encoding="UTF-8" standalone="no"?>
<!-- Created with Inkscape (http://www.inkscape.org/) -->

<svg
   width="129.57274mm"
   height="156.27881mm"
   viewBox="0 0 129.57274 156.27881"
   version="1.1"
   id="svg1"
   xml:space="preserve"
   inkscape:version="1.4.4 (dcaf3e7, 2026-05-05)"
   sodipodi:docname="logos teams.svg"
   inkscape:export-batch-name="logos teams"
   inkscape:export-batch-path="Desktop"
   xmlns:inkscape="http://www.inkscape.org/namespaces/inkscape"
   xmlns:sodipodi="http://sodipodi.sourceforge.net/DTD/sodipodi-0.dtd"
   xmlns="http://www.w3.org/2000/svg"
   xmlns:svg="http://www.w3.org/2000/svg"><sodipodi:namedview
     id="namedview1"
     pagecolor="#ffffff"
     bordercolor="#000000"
     borderopacity="0.25"
     inkscape:showpageshadow="2"
     inkscape:pageopacity="0.0"
     inkscape:pagecheckerboard="0"
     inkscape:deskcolor="#d1d1d1"
     inkscape:document-units="mm"
     inkscape:zoom="0.69712823"
     inkscape:cx="489.14961"
     inkscape:cy="355.02794"
     inkscape:window-width="1920"
     inkscape:window-height="1050"
     inkscape:window-x="0"
     inkscape:window-y="30"
     inkscape:window-maximized="0"
     inkscape:current-layer="layer1"><inkscape:page
       x="0"
       y="0"
       width="129.57274"
       height="156.27882"
       id="page1"
       margin="0"
       bleed="0" /></sodipodi:namedview><defs
     id="defs1" /><g
     inkscape:label="Ebene 1"
     inkscape:groupmode="layer"
     id="layer1"
     transform="translate(-514.73275,-243.01194)"><path
       style="fill:#e2001a;fill-opacity:1"
       d="m 570.86547,398.75263 c -28.10888,-3.59078 -50.2966,-24.42426 -55.33079,-51.95362 l -0.80193,-4.38537 v -49.70085 -49.70085 h 64.6111 64.61111 l 0.17526,46.48491 0.17527,46.48491 -0.6321,6.28342 -0.63209,6.28341 -1.44671,4.9923 c -2.95847,10.20904 -7.42286,17.83942 -15.16353,25.91696 l -4.68112,4.88484 -5.5619,3.70085 c -13.49894,8.9821 -29.41051,12.74179 -45.32257,10.70909 z m 20.75742,-6.15981 c 21.67123,-4.3291 38.5889,-19.76149 45.11638,-41.15542 l 1.32602,-4.34603 0.1936,-34.35206 0.19361,-34.35206 h -12.01285 -12.01284 l -0.0102,29.08962 -0.0102,29.08961 -0.85639,4.09301 -0.85639,4.09301 -2.41037,4.88982 -2.41038,4.88981 -3.88585,3.9323 c -4.3334,4.38521 -7.7317,6.56928 -13.46375,8.65306 l -3.87057,1.40708 -5.01929,0.32709 -5.0193,0.32708 -4.54171,-1.01044 -4.54171,-1.01043 -3.77648,-1.96844 c -9.70162,-5.05682 -16.28653,-13.9252 -18.57841,-25.02091 l -0.915,-4.42981 v -28.67573 -28.67573 h -12.01682 -12.01682 l 0.2021,34.35206 0.20209,34.35206 1.3215,4.34603 c 3.1428,10.33578 7.6379,17.69515 15.55979,25.47447 l 5.35889,5.26244 4.70453,2.80741 c 13.57713,8.10208 28.59678,10.69742 44.04673,7.6111 z m -13.91519,-2.34314 c -0.30025,-0.58233 -1.14265,-2.90063 -1.87202,-5.15179 -1.89377,-5.84505 -2.01426,-5.84505 -2.33899,0 l -0.29235,5.26244 h -0.87708 -0.87707 l 0.19131,-7.6013 c 0.21257,-8.44547 0.40623,-9.64782 1.55402,-9.64782 h 0.78945 l 1.93231,5.70098 1.93231,5.70098 0.42248,-4.90276 c 0.23236,-2.69652 0.56671,-5.27864 0.743,-5.73804 l 0.32052,-0.83528 0.58885,0.36393 0.58884,0.36393 -0.0726,4.49704 c -0.0399,2.47337 -0.23729,6.31824 -0.43854,8.54415 l -0.36591,4.04711 -0.69131,0.22761 c -0.38022,0.12518 -0.93696,-0.24885 -1.2372,-0.83118 z m -14.73589,-1.44674 c -1.12558,-0.31617 -2.37517,-0.89361 -2.77686,-1.28322 l -0.73036,-0.70837 2.09022,-7.28861 c 1.14962,-4.00873 2.29835,-7.50349 2.55273,-7.76613 l 0.46252,-0.47753 3.29388,0.95756 3.29389,0.95755 v 0.85394 c 0,1.25081 -1.58265,1.65079 -3.81768,0.96484 l -1.96061,-0.60173 -0.61915,1.7761 c -0.34053,0.97686 -0.61915,1.85826 -0.61915,1.95867 0,0.10042 1.05249,0.46598 2.33886,0.81236 l 2.33887,0.62979 v 1.22223 1.22222 l -2.84846,-0.37786 -2.84845,-0.37786 -0.36488,1.82437 c -0.46868,2.3434 -0.18138,2.74642 2.2881,3.2097 2.29329,0.43022 2.76598,0.90107 2.25124,2.24246 -0.39872,1.03903 -1.32395,1.09241 -4.32471,0.24952 z m 29.75101,-0.49304 c -0.52062,-0.30419 -1.28219,-1.36332 -1.69239,-2.35361 l -0.7458,-1.80054 0.59723,-0.59723 0.59724,-0.59724 1.28114,1.7992 c 1.48173,2.0809 2.65231,2.28912 3.54037,0.62977 l 0.62586,-1.16943 -0.58904,-1.10065 c -0.63321,-1.18317 -1.8584,-1.82293 -3.49101,-1.82293 -0.56083,0 -1.60222,-0.62008 -2.3142,-1.37795 l -1.29451,-1.37794 -0.33874,-2.0874 -0.33873,-2.08739 1.50474,-1.50475 c 2.33225,-2.33224 6.23563,-0.72867 6.23563,2.56169 0,1.55491 -1.0089,1.5238 -2.30024,-0.0709 l -1.0259,-1.26694 -1.00916,0.38725 -1.00916,0.38725 0.18719,1.31823 0.18719,1.31822 2.83557,0.89725 2.83557,0.89725 0.79818,1.44161 c 0.439,0.79289 0.80751,2.51911 0.81891,3.83604 l 0.0207,2.39442 -1.0693,0.96769 c -1.17739,1.06553 -3.37798,1.23761 -4.84736,0.37906 z m -9.18045,-4.23526 0.18685,-1.31561 h 1.75415 1.75415 l 0.18684,1.31561 0.18685,1.31561 h -2.12784 -2.12784 z m 20.65191,-0.0945 c -3.16877,-1.40837 -6.42078,-6.20699 -7.11795,-10.50317 l -0.34034,-2.09724 0.96522,-1.47311 0.96523,-1.47311 h 1.92363 1.92363 l 1.63506,1.70663 1.63505,1.70663 -0.40253,0.65131 -0.40252,0.6513 -2.01672,-1.2464 -2.01672,-1.2464 -0.86056,0.71421 c -1.3003,1.07915 -1.0363,2.87667 0.92473,6.29622 l 1.77433,3.09399 1.41881,0.64645 1.41881,0.64645 0.92885,-0.77088 0.92886,-0.77088 -0.37822,-2.23866 -0.37822,-2.23867 h 0.56451 c 0.96446,0 1.91922,1.56038 2.26733,3.70553 l 0.3336,2.05572 -1.50475,1.50474 c -1.71883,1.71884 -1.81516,1.73446 -4.18912,0.67934 z m -53.64768,-1.0571 c -1.20598,-0.69901 -2.19269,-1.58879 -2.19269,-1.97728 0,-0.8603 7.80494,-12.79243 8.74954,-13.37622 l 0.67341,-0.4162 2.30512,1.52545 2.30511,1.52546 v 2.0615 c 0,3.57003 -3.67522,9.35012 -7.0572,11.09901 -2.09933,1.08561 -2.15754,1.08023 -4.78329,-0.44172 z m 5.97533,-3.36066 c 0.89133,-0.95418 2.07698,-2.6966 2.63477,-3.87206 l 1.01417,-2.13719 -0.6335,-1.39038 c -0.34843,-0.76471 -1.00362,-1.39038 -1.45599,-1.39038 h -0.8225 l -3.00392,4.52972 -3.00393,4.52971 1.00206,0.73273 c 1.53153,1.11988 2.49865,0.89284 4.26884,-1.00215 z m 53.76054,-6.02335 c -2.38372,-2.65906 -4.84092,-5.42806 -5.46043,-6.15333 l -1.12637,-1.31869 0.69026,-0.69026 0.69027,-0.69027 2.51626,2.46953 2.51626,2.46952 1.35228,-1.43943 1.35228,-1.43944 -1.82446,-2.21338 c -1.93978,-2.35328 -2.32069,-3.70108 -1.046,-3.70108 0.68186,0 5.37288,4.87314 10.10742,10.49982 l 1.55648,1.84977 -0.70074,0.69562 -0.70073,0.69561 -2.67796,-2.82919 -2.67796,-2.8292 -1.46653,1.46654 -1.46653,1.46653 2.13234,2.49116 c 1.17279,1.37014 2.13234,2.83849 2.13234,3.26299 0,1.74855 -1.80075,0.50821 -5.89848,-4.06282 z m -67.52004,3.48812 c -0.16078,-0.41899 0.11958,-1.74763 0.62302,-2.95254 0.50344,-1.2049 1.44945,-3.55909 2.10225,-5.23153 l 1.1869,-3.0408 -3.70762,3.65448 c -3.53073,3.48011 -5.13796,4.42299 -5.13796,3.01419 0,-0.88094 9.97836,-11.40357 11.29985,-11.91621 2.21382,-0.85878 2.11947,-0.25883 -1.33087,8.46348 l -1.27215,3.21594 4.01555,-3.96379 c 3.63631,-3.58944 4.8291,-4.22697 4.8291,-2.58109 0,0.70138 -11.13683,12.09968 -11.82212,12.09968 -0.27149,0 -0.62516,-0.34281 -0.78595,-0.76181 z m -9.02642,-9.00019 c 0,-0.22359 0.6814,-1.11777 1.51423,-1.98705 l 1.51422,-1.58051 -0.99675,-1.52124 c -1.08408,-1.65451 -1.76347,-1.81659 -4.01944,-0.95887 l -1.47915,0.56237 -0.37906,-0.61332 c -0.62865,-1.01718 0.42884,-1.61161 7.69799,-4.32713 11.93995,-4.46038 12.19955,-3.58858 2.05028,6.88546 l -3.82445,3.94684 h -1.03893 c -0.57142,0 -1.03894,-0.18295 -1.03894,-0.40655 z m 7.2123,-7.77441 c 2.08847,-2.34395 1.9829,-2.4997 -0.9266,-1.36703 -3.14006,1.22242 -3.08365,1.16549 -2.20441,2.22491 1.02217,1.23164 1.34903,1.14209 3.13101,-0.85788 z m 78.38884,5.61097 c -1.64083,-0.76402 -3.94315,-2.34896 -5.11627,-3.52207 l -2.13294,-2.13295 v -2.28621 -2.28621 l 1.29954,-0.91023 c 2.83507,-1.98576 8.40324,-0.0404 12.33221,4.30846 l 2.15558,2.38597 v 1.75247 1.75246 l -1.16943,1.16943 -1.16943,1.16943 -1.60797,-0.006 c -0.88438,-0.003 -2.95047,-0.63082 -4.59129,-1.39484 z m 4.68964,-1.29322 0.9249,-0.35492 v -1.47637 -1.47637 l -2.07105,-1.95325 c -1.13907,-1.07429 -3.10414,-2.26277 -4.36681,-2.64107 l -2.29577,-0.68783 -0.89563,0.74331 c -1.88104,1.56112 0.25779,4.86412 4.51396,6.97089 2.74458,1.35854 2.86585,1.38388 4.1904,0.87561 z m -97.03453,-9.64403 -0.99058,-2.98236 0.79741,-0.73136 c 0.43857,-0.40225 3.79931,-1.83509 7.4683,-3.18409 l 6.67089,-2.45273 0.85009,0.32621 0.85009,0.32621 -0.65742,0.79214 c -0.36158,0.43568 -3.38965,1.79295 -6.72905,3.01615 l -6.07163,2.22401 0.82709,2.34421 0.82709,2.34421 -0.74195,0.47092 c -0.40807,0.25901 -1.0497,0.47495 -1.42585,0.47988 l -0.6839,0.009 z m 81.87974,0.6435 c -0.19875,-0.3216 -0.20585,-0.83635 -0.0158,-1.1439 0.48097,-0.77822 2.06229,-0.0773 2.06229,0.9141 0,0.9349 -1.5062,1.10403 -2.04651,0.2298 z m 14.49893,-1.18593 c -2.87594,-0.58266 -4.63815,-1.42353 -6.45908,-3.08208 l -1.31561,-1.19828 v -1.93111 -1.9311 l 1.4204,-0.93068 1.42041,-0.93069 1.89668,0.18631 c 1.04317,0.10247 1.99666,0.49125 2.11886,0.86395 l 0.22218,0.67763 -1.74471,0.3832 c -0.9596,0.21077 -2.05824,0.76098 -2.44144,1.2227 l -0.69671,0.83949 0.7599,0.91562 c 1.20406,1.45081 3.64054,2.49662 6.78978,2.91438 l 2.91163,0.38624 0.98046,-0.98046 c 1.35406,-1.35406 1.25023,-1.77046 -0.85166,-3.41544 l -1.83212,-1.43385 0.38325,-0.62011 0.38325,-0.62012 1.68446,0.58721 c 2.26015,0.78789 3.69832,2.47967 3.69832,4.3505 v 1.53802 l -1.09635,1.05681 -1.09634,1.05682 -2.33886,0.2965 c -1.28638,0.16307 -3.44489,0.0724 -4.7967,-0.20146 z M 610.60211,353.192 c -0.21198,-0.34299 -0.23886,-0.77018 -0.0597,-0.94931 0.48101,-0.48101 2.13028,0.26986 2.13028,0.96986 0,0.79361 -1.57705,0.77796 -2.07055,-0.0206 z m -86.69568,-7.6018 c 0.3071,-0.92131 2.25912,-1.57175 4.97117,-1.65647 2.2485,-0.0702 2.72676,-0.70735 2.22973,-2.97032 l -0.37648,-1.71407 -3.75986,0.3511 -3.75986,0.3511 v -0.93513 -0.93513 l 1.90032,-0.30793 c 8.989,-1.45661 14.53463,-2.11406 15.06536,-1.78605 l 0.63258,0.39095 -0.62331,0.75105 c -0.34282,0.41307 -1.9617,0.92858 -3.59751,1.14558 l -2.9742,0.39454 0.3452,1.2874 c 0.18985,0.70808 0.34878,1.63893 0.35318,2.06857 l 0.008,0.78116 3.36212,-0.19645 3.36211,-0.19644 v 0.87707 0.87708 l -4.09301,0.70037 c -2.25116,0.38521 -6.16773,0.88646 -8.7035,1.1139 l -4.61049,0.41354 z m 99.29111,-2.80479 -6.13951,-0.95647 v -0.87707 -0.87707 l 3.36211,0.19644 c 4.11977,0.24071 4.12054,0.22432 0.13063,-2.78809 l -3.23148,-2.4398 0.34241,-0.55403 c 0.63777,-1.03193 2.33702,-0.56129 4.54518,1.25886 l 2.19937,1.81291 4.73416,-1.27742 4.73416,-1.27741 0.86922,0.86922 0.86922,0.86922 -1.09147,0.54664 c -0.60031,0.30065 -2.66019,0.88394 -4.57752,1.29618 l -3.48606,0.74954 1.35815,1.09976 c 0.74698,0.60487 1.92102,1.10336 2.60898,1.10775 2.17259,0.0139 3.88206,0.68408 3.88206,1.522 v 0.80888 l -2.48505,-0.0668 c -1.36677,-0.0367 -5.24782,-0.4972 -8.62456,-1.02325 z m -97.93991,-9.52532 c -2.87495,-1.57248 -3.43481,-4.21319 -1.31537,-6.20429 l 1.31584,-1.23618 2.92335,-0.65981 2.92334,-0.65981 2.56124,0.37952 c 3.53812,0.52428 5.28792,1.42318 6.18296,3.17626 l 0.76283,1.49413 -0.47234,1.25305 c -0.64392,1.70823 -2.81685,3.13232 -4.77942,3.13232 h -1.62405 v -0.87707 c 0,-0.4824 0.36554,-0.87708 0.8123,-0.87708 0.44676,0 1.38379,-0.46277 2.08228,-1.02837 l 1.26999,-1.02837 -0.37501,-0.97728 c -0.78086,-2.03487 -7.2566,-2.96889 -10.22143,-1.47427 l -1.46179,0.73691 -0.17692,1.22519 -0.17691,1.22519 2.39961,0.96013 2.39961,0.96014 -0.35688,0.57744 c -0.47181,0.76341 -3.20322,0.70628 -4.67323,-0.0978 z m 92.67747,-1.95603 v -0.87708 h 8.77074 8.77074 v 0.87708 0.87707 h -8.77074 -8.77074 z m 0.7309,-4.76443 c -0.402,-0.16671 -0.7309,-0.63834 -0.7309,-1.04806 v -0.74495 l 5.70098,-2.27608 5.70098,-2.27608 -5.70098,-0.16736 -5.70098,-0.16735 v -0.87153 -0.87153 l 8.62456,0.16181 8.62456,0.16181 v 0.87046 0.87047 l -5.26244,2.16536 -5.26245,2.16536 5.26245,0.18011 5.26244,0.18011 v 0.87708 0.87707 l -7.89367,0.1082 c -4.34151,0.0595 -8.22256,-0.0282 -8.62455,-0.1949 z m -94.49894,-6.09525 -1.54065,-1.21188 v -1.66927 -1.66927 l 1.54065,-1.21187 1.54064,-1.21187 h 1.67529 1.6753 v 0.74889 c 0,0.41188 -0.80966,1.05449 -1.79924,1.42802 l -1.79924,0.67913 0.19127,1.34938 0.19127,1.34938 1.81663,0.17699 1.81663,0.17698 0.74756,-1.80477 c 1.52073,-3.67138 4.80033,-4.98008 8.14529,-3.25034 l 1.65079,0.85366 0.35893,1.33903 0.35893,1.33902 -1.07333,1.46179 -1.07333,1.46179 -1.62138,0.19189 c -0.89175,0.10554 -1.90161,-0.0883 -2.24412,-0.43086 l -0.62276,-0.62275 1.89514,-0.66065 1.89514,-0.66065 -0.1779,-1.24735 -0.1779,-1.24735 -1.30067,-0.18489 -1.30066,-0.18489 -1.1425,1.93903 c -0.62837,1.06647 -1.60206,2.3995 -2.16375,2.96229 l -1.02127,1.02326 h -2.45006 -2.45006 z m 98.55375,-5.79854 c -1.06619,-0.25236 -2.57915,-1.06065 -3.36212,-1.79622 l -1.42359,-1.33739 v -1.95318 -1.95317 l 1.90033,-1.16699 c 2.03861,-1.2519 3.41103,-1.30243 3.79813,-0.13983 l 0.24056,0.72251 -1.47556,0.6723 c -1.97478,0.89977 -2.28061,1.94583 -1.02299,3.49893 l 1.04298,1.28803 3.1669,0.25364 3.16689,0.25365 1.62296,-0.62725 c 1.89553,-0.73259 2.44685,-1.83168 1.93726,-3.86204 l -0.36656,-1.46048 h -1.40998 -1.40998 l -0.18685,1.31561 -0.18685,1.31561 h -1.16943 -1.16943 v -2.04651 -2.0465 l 3.31351,-0.17391 3.3135,-0.17391 1.21804,1.30742 1.21805,1.30741 v 1.83433 1.83433 l -1.40528,1.32018 c -2.24187,2.10613 -6.94153,2.85698 -11.35049,1.81343 z m -99.49351,-4.67392 c -1.11187,-0.68717 -0.28015,-1.58997 2.18466,-2.37136 2.66716,-0.84555 4.81576,-2.1459 4.81576,-2.91455 v -0.57124 l -3.06976,-0.009 c -1.68837,-0.005 -3.46224,-0.25709 -3.94194,-0.56037 l -0.87219,-0.55142 0.62621,-0.62621 0.62622,-0.62621 8.13963,0.16332 8.13964,0.16333 0.17489,3.0165 0.17489,3.01649 -1.32825,0.93034 -1.32824,0.93034 h -2.4105 -2.41049 l -1.05645,-1.16737 -1.05646,-1.16737 -0.76115,0.6317 c -0.41863,0.34744 -1.91644,0.97939 -3.32846,1.40435 l -2.5673,0.77265 z m 14.01701,-4.103 v -1.75415 h -2.33886 c -2.4572,0 -2.5348,0.0864 -1.97033,2.19268 l 0.35257,1.31561 h 1.97831 1.97831 z m 81.3149,-4.33791 -0.68852,-0.82961 0.17839,-3.11722 0.17838,-3.11722 h 1.16943 1.16943 l 0.17822,2.7774 0.17821,2.7774 h 2.01447 2.01447 v -2.67189 -2.67189 l 1.31561,0.18685 1.31561,0.18684 0.1798,2.48505 0.1798,2.48504 h 2.30524 2.30525 v -2.96425 -2.96425 l 1.31561,0.18685 1.31561,0.18685 0.18119,3.19818 0.18119,3.19818 -1.02384,0.74865 -1.02384,0.74865 h -7.1256 -7.1256 z m -95.67109,-4.48242 -0.41153,-0.66587 0.80581,-0.51941 0.8058,-0.51941 7.89367,0.14624 7.89366,0.14625 v 0.87707 0.87708 l -8.28794,0.16196 -8.28794,0.16196 z m -0.11859,-6.52846 0.24058,-0.7309 3.71785,-0.29236 3.71785,-0.29236 -4.6e-4,-2.0465 -4.7e-4,-2.04651 -3.4707,-0.17828 c -1.90888,-0.0981 -3.73162,-0.43792 -4.05052,-0.75524 l -0.57983,-0.57696 0.87219,-0.55142 0.87218,-0.55141 7.11495,-0.009 c 7.54268,-0.01 8.96474,0.22626 8.96474,1.48621 v 0.78534 l -3.36212,0.17535 -3.36211,0.17536 v 2.04651 2.0465 l 3.36211,0.17536 3.36212,0.17536 v 0.8479 0.84789 h -8.81947 -8.81946 z m 95.42644,0.0952 c -0.59755,-0.96686 0.23927,-1.52171 5.61278,-3.72155 l 4.94359,-2.02385 -4.67772,-0.0344 c -2.57275,-0.0189 -5.07021,-0.2825 -5.54992,-0.58578 l -0.87218,-0.55141 0.62621,-0.62621 0.62622,-0.62622 8.13237,0.16333 8.13237,0.16333 0.18252,0.95158 0.18251,0.95157 -5.73005,2.26436 -5.73005,2.26436 5.70098,0.16736 5.70098,0.16735 v 0.8559 0.8559 h -8.44388 -8.44387 z m -33.25853,73.09143 c 1.90823,-0.34854 5.1798,-1.44254 7.27016,-2.4311 l 3.80065,-1.79738 4.14149,-4.14695 4.14148,-4.14696 1.85562,-3.80066 c 1.02059,-2.09035 2.24404,-5.6425 2.71878,-7.89366 l 0.86315,-4.09301 0.0102,-28.5049 0.0102,-28.5049 h -30.40523 -30.40522 v 28.01493 28.01492 l 0.85428,4.46494 0.85428,4.46494 1.90065,3.86075 1.90064,3.86075 2.94605,3.22652 c 7.19854,7.88382 17.19897,11.3011 27.54291,9.41177 z m -12.7204,-4.48024 -0.9873,-0.2204 -0.18213,-1.2451 -0.18214,-1.24509 -1.90032,-0.48981 -1.90033,-0.48982 v -1.03577 c 0,-1.42552 1.142,-2.43909 2.74816,-2.43909 1.86852,0 1.6869,-1.06344 -0.26312,-1.54068 -2.81484,-0.68889 -2.84838,-3.41495 -0.0471,-3.8271 0.6991,-0.10286 1.37941,-0.51592 1.5118,-0.91791 l 0.2407,-0.7309 h -2.60835 -2.60835 l -0.69621,-0.83888 -0.69621,-0.83887 0.18608,-1.93853 0.18607,-1.93852 2.48505,-0.1798 c 3.00924,-0.21772 3.03906,-0.50477 0.44439,-4.27676 -2.54181,-3.69515 -4.25794,-9.13901 -4.73144,-15.00894 l -0.36362,-4.50785 0.92822,-3.94684 c 0.98086,-4.17068 3.48006,-9.61014 6.31331,-13.74082 l 1.70451,-2.48504 h 0.91718 0.91718 l -0.32554,1.02325 c -0.17904,0.56279 -1.25987,3.65448 -2.40183,6.87042 l -2.0763,5.84715 -10e-4,6.43188 -10e-4,6.43187 1.13744,4.74417 c 2.54322,10.60754 3.96815,12.48336 9.49228,12.496 l 3.91367,0.009 0.92297,-1.31561 c 0.50763,-0.72358 1.71486,-3.36773 2.68273,-5.87588 l 1.75976,-4.56027 0.65272,-4.61556 0.65273,-4.61555 -0.68161,-5.99422 -0.68162,-5.99423 -1.6642,-4.71029 c -0.91531,-2.59066 -1.85965,-5.17075 -2.09853,-5.73354 l -0.43432,-1.02325 h 0.83024 c 2.00684,0 5.99109,6.03004 8.0396,12.1677 l 1.23135,3.68933 0.34219,5.37377 0.34219,5.37377 -0.64592,3.50829 -0.64591,3.5083 -2.44621,4.97008 c -1.34541,2.73355 -2.46664,5.10165 -2.49162,5.26245 -0.025,0.16079 1.00706,0.42392 2.29344,0.58471 l 2.33886,0.29236 0.18608,1.93852 0.18607,1.93853 -0.69621,0.83887 -0.6962,0.83888 h -2.316 -2.31599 l 0.2407,0.7309 c 0.13239,0.40199 0.78988,0.81206 1.46108,0.91126 2.44339,0.36112 2.28583,2.69702 -0.24687,3.65995 l -1.45251,0.55225 0.2395,0.72729 c 0.13173,0.40002 0.82701,0.81349 1.54507,0.91883 2.51801,0.3694 1.98688,3.60912 -0.59168,3.60912 h -1.09784 v 0.8353 c 0,0.45942 -0.39005,1.22536 -0.86679,1.7021 l -0.86679,0.86679 -1.13019,-0.29556 -1.1302,-0.29555 -0.35302,-1.40654 -0.35302,-1.40654 h -4.07073 -4.07073 l -0.35627,1.41947 c -0.38481,1.53321 -1.14636,1.99937 -2.69981,1.6526 z m 11.11047,-7.60362 -0.19509,-1.02325 -3.94079,-0.17289 -3.94079,-0.1729 v 0.49449 c 0,0.27197 0.31575,0.81024 0.70166,1.19615 l 0.70166,0.70166 h 3.43423 3.43422 z m -0.81554,-4.5941 c 0.50869,-0.19521 0.92489,-0.72145 0.92489,-1.16943 v -0.81452 h -4.09301 -4.09301 v 0.55566 c 0,1.42082 4.8133,2.36761 7.26113,1.42829 z m -28.30619,-49.27046 -2.62651,-0.98677 -0.17807,-0.92466 c -0.0979,-0.50856 0.42618,-1.88575 1.16472,-3.06042 l 1.34279,-2.13575 1.46179,0.2547 c 1.86228,0.32448 3.43336,-0.56426 5.78628,-3.27322 l 1.87348,-2.15699 2.16346,-0.69928 c 1.1899,-0.3846 3.28173,-1.34659 4.6485,-2.13776 l 2.48504,-1.43849 v 1.09489 c 0,1.57372 -1.43779,3.40306 -3.84302,4.88957 l -2.08974,1.29153 0.52399,0.524 0.524,0.52399 2.00385,-0.86031 c 1.10211,-0.47318 2.89394,-1.63526 3.98183,-2.58242 2.08875,-1.81854 8.53399,-4.8805 9.09412,-4.32037 0.8393,0.8393 0.10364,1.95557 -2.59372,3.93561 -1.60797,1.18036 -2.92358,2.42104 -2.92358,2.75706 v 0.61096 l 2.63449,-0.29694 2.63449,-0.29695 2.56043,-2.26414 c 1.40824,-1.24528 3.79425,-3.02097 5.30224,-3.94598 l 2.74181,-1.68185 0.59582,0.59582 0.59582,0.59582 -0.61089,1.14145 c -0.33599,0.6278 -1.54441,1.85349 -2.68539,2.72375 -1.14098,0.87027 -2.0745,1.98133 -2.0745,2.46902 v 0.88672 l 1.31561,-0.37995 c 0.72358,-0.20897 1.97341,-0.89213 2.7774,-1.51813 2.41103,-1.87729 6.01896,-3.41667 8.03984,-3.43032 l 1.90033,-0.0129 v 0.57642 c 0,0.31703 -1.05249,1.27293 -2.33887,2.12421 -2.36251,1.56344 -2.97646,2.56182 -1.57538,2.56182 0.41991,0 1.66974,0.67608 2.7774,1.50241 1.10766,0.82632 2.888,1.87329 3.95633,2.32661 l 1.94241,0.8242 -0.36895,0.59697 c -0.59014,0.95486 -4.24623,0.69113 -6.91006,-0.49845 l -2.45297,-1.09542 -14.91025,0.13598 -14.91026,0.13598 -2.8371,0.68294 c -1.5604,0.37561 -3.58091,1.06757 -4.49003,1.5377 l -1.65294,0.85476 -0.18769,1.31609 -0.18769,1.31609 -0.87708,0.0986 c -0.48239,0.0542 -2.059,-0.34549 -3.50358,-0.88821 z m 84.19438,-36.91258 v -12.86375 h -59.05631 -59.0563 v 12.86375 12.86375 h 59.0563 59.05631 z m -104.42138,9.72953 c -2.27011,-1.03341 -4.33578,-3.61707 -4.33578,-5.42301 v -1.38294 h 2.04651 2.0465 v 0.78645 c 0,0.43255 0.49935,1.23836 1.10967,1.79069 l 1.10967,1.00424 2.48526,-0.18272 2.48525,-0.18272 0.64128,-1.02325 0.64127,-1.02325 -0.63516,-1.00694 -0.63516,-1.00694 -3.74722,-1.09149 -3.74721,-1.09148 -1.60797,-1.51927 -1.60797,-1.51927 v -1.97555 c 0,-2.58868 0.81962,-4.0266 2.91187,-5.10855 l 1.70778,-0.88313 h 2.98165 2.98166 l 1.76925,0.91492 1.76924,0.91491 0.78068,1.85669 c 0.98062,2.33219 0.71858,2.74536 -1.74113,2.74536 h -1.97259 l -0.37074,-1.16808 -0.37073,-1.16807 -1.36334,-0.34218 c -2.06121,-0.51733 -3.91985,-0.0747 -4.63852,1.1046 l -0.64443,1.0575 1.10015,0.81734 c 0.60508,0.44953 2.51535,1.11113 4.24504,1.47021 l 3.14488,0.65288 1.70532,1.43493 1.70531,1.43492 0.3685,1.67777 0.3685,1.67777 -0.86139,2.0616 c -0.47376,1.13388 -1.52079,2.49365 -2.32673,3.02172 l -1.46533,0.96013 -3.11505,0.26766 -3.11505,0.26766 z m 52.67402,-0.0461 -2.33886,-0.85701 -1.58708,-1.88106 -1.58708,-1.88106 -0.59693,-2.97068 -0.59693,-2.97069 0.53723,-2.29361 c 0.65338,-2.78954 2.13455,-4.87597 4.70191,-6.62331 l 1.93304,-1.31561 h 3.45086 3.45086 l 1.68962,0.87374 c 1.91947,0.99259 3.51475,3.01348 3.51475,4.45244 v 0.97297 l -1.80323,0.26466 -1.80324,0.26465 -1.66008,-1.66008 -1.66008,-1.66008 h -1.53581 c -3.78014,0 -6.15545,2.72943 -6.15545,7.07314 0,4.53369 2.18346,6.96004 6.26333,6.96004 h 2.2472 l 1.29953,-0.91023 1.29954,-0.91023 v -1.13628 -1.13627 h -2.63122 -2.63123 v -1.75415 -1.75415 h 4.67773 4.67773 v 4.41825 4.41825 l -2.6318,1.16417 c -1.44749,0.64029 -3.88137,1.2868 -5.40862,1.43669 l -2.77683,0.27252 z m 28.65108,-0.0368 c -2.97184,-1.05071 -5.30999,-3.64241 -6.17108,-6.84028 l -0.67369,-2.5019 0.35881,-2.61786 0.35882,-2.61786 1.40342,-2.12071 1.40342,-2.12071 2.04088,-0.96846 2.04087,-0.96846 h 3.0392 3.0392 l 2.01446,0.95592 2.01445,0.95592 0.85131,1.64627 c 1.2207,2.36056 1.07953,2.77722 -1.01061,2.9829 l -1.86193,0.18323 -1.67459,-1.68118 -1.67459,-1.68117 -2.39645,0.32143 -2.39644,0.32143 -1.2298,1.22981 -1.22981,1.2298 v 4.1274 4.12739 l 1.64058,1.41117 1.64057,1.41116 h 2.3447 c 1.28958,0 2.85364,-0.27238 3.47569,-0.60529 l 1.13099,-0.60529 v -1.44122 -1.44121 h -2.33886 -2.33887 v -1.75415 -1.75415 h 4.67773 4.67773 v 4.00239 4.00239 l -1.11414,1.00828 c -2.59259,2.34626 -8.15137,3.17856 -12.04197,1.80301 z m -57.83485,-9.50392 c -1.90096,-5.38479 -3.57362,-10.11943 -3.71704,-10.52142 l -0.26075,-0.7309 h 2.35269 2.3527 l 2.58686,7.74749 2.58687,7.74748 2.5613,-7.74748 2.5613,-7.74749 h 2.25238 2.25239 l -0.18906,0.75183 c -0.10398,0.4135 -1.76377,5.1497 -3.68842,10.52488 l -3.49938,9.77306 -2.34778,-0.003 -2.34779,-0.003 z"
       id="path195" /></g><style
     id="style1">@media(prefers-color-scheme:dark){.lines{fill:#d7d7d7}}</style></svg>
