<?xml version="1.0" encoding="UTF-8" standalone="no"?>
<!-- Created with Inkscape (http://www.inkscape.org/) -->

<svg
   width="74.734047mm"
   height="35.879101mm"
   viewBox="0 0 74.734047 35.879101"
   version="1.1"
   id="svg1"
   xml:space="preserve"
   inkscape:version="1.4.4 (dcaf3e7, 2026-05-05)"
   sodipodi:docname="logos teams.svg"
   inkscape:export-batch-name="logos teams"
   inkscape:export-batch-path="Desktop"
   xmlns:inkscape="http://www.inkscape.org/namespaces/inkscape"
   xmlns:sodipodi="http://sodipodi.sourceforge.net/DTD/sodipodi-0.dtd"
   xmlns="http://www.w3.org/2000/svg"
   xmlns:svg="http://www.w3.org/2000/svg"><sodipodi:namedview
     id="namedview1"
     pagecolor="#ffffff"
     bordercolor="#000000"
     borderopacity="0.25"
     inkscape:showpageshadow="2"
     inkscape:pageopacity="0.0"
     inkscape:pagecheckerboard="0"
     inkscape:deskcolor="#d1d1d1"
     inkscape:document-units="mm"
     inkscape:zoom="0.69712823"
     inkscape:cx="489.14961"
     inkscape:cy="355.02794"
     inkscape:window-width="1920"
     inkscape:window-height="1050"
     inkscape:window-x="0"
     inkscape:window-y="30"
     inkscape:window-maximized="0"
     inkscape:current-layer="layer1"><inkscape:page
       x="0"
       y="0"
       width="74.734047"
       height="35.879101"
       id="page1"
       margin="0"
       bleed="0" /></sodipodi:namedview><defs
     id="defs1" /><g
     inkscape:label="Ebene 1"
     inkscape:groupmode="layer"
     id="layer1"
     transform="translate(-980.28125,1068.1306)"><g
       id="g176"><path
         style="fill:#f5a9a0;fill-opacity:1"
         d="m 1032.007,-1057.7195 h -16.7601 v -3.8572 -3.8572 h -3.1234 -3.1233 v -1.3483 -1.3484 h 22.9897 22.9897 v 1.3484 1.3483 h -3.1063 -3.1062 v 3.8572 3.8572 z"
         id="path169-5" /><path
         style="fill:#b8d3c7;fill-opacity:1"
         d="m 1014.066,-1032.2517 -33.78475,2e-4 v -5.3762 -5.3762 l 33.93835,4e-4 33.9384,3e-4 0.6656,0.034 0.6656,0.034 0.5974,0.052 0.5973,0.052 0.5633,0.068 0.5632,0.068 0.5461,0.084 0.5462,0.084 0.8901,0.1737 0.8901,0.1736 0.038,0.024 0.038,0.024 -0.2754,1.2791 -0.2753,1.2792 -0.011,0.012 -0.011,0.012 -0.6593,-0.123 -0.6593,-0.123 -0.6315,-0.101 -0.6315,-0.101 -0.5461,-0.069 -0.5462,-0.069 -0.6656,-0.068 -0.6656,-0.068 -0.8705,-0.034 -0.8704,-0.034 -0.7765,0.032 -0.7765,0.032 -0.4353,0.053 -0.4353,0.053 -0.3584,0.08 -0.3584,0.081 -0.278,0.1072 -0.278,0.1073 -0.2012,0.13 -0.2012,0.1301 -0.1729,0.1756 -0.1729,0.1757 -0.1043,0.1967 -0.1043,0.1967 -0.08,0.256 -0.08,0.256 v 0.6315 0.6315 l 0.079,0.272 0.079,0.2721 0.092,0.1717 0.092,0.1717 0.2413,0.2429 0.2412,0.2429 0.322,0.1577 0.322,0.1577 0.2901,0.082 0.2902,0.082 0.3242,0.054 0.3243,0.054 0.3414,0.043 0.3413,0.043 1.4849,-3e-4 1.4848,-3e-4 0.5974,-0.06 0.5973,-0.06 0.6827,-0.086 0.6827,-0.087 1.2118,-0.2053 1.2118,-0.2052 0.128,-0.019 0.128,-0.019 v 0.03 0.03 l 0.2718,1.2612 0.2719,1.2612 -0.012,0.012 -0.012,0.012 -0.5752,0.1185 -0.5752,0.1186 -0.6998,0.1171 -0.6997,0.1171 -0.6657,0.085 -0.6656,0.085 -0.751,0.069 -0.7509,0.069 -0.751,0.035 -0.7509,0.035 z"
         id="path165-6" /><path
         style="fill:#677272;fill-opacity:1"
         d="m 1024.4417,-1045.3866 -27.93063,0.01 v -5.1886 -5.1886 l 27.45273,10e-5 h 27.4528 l 0.4522,0.034 0.4521,0.034 0.2476,0.052 0.2476,0.051 0.2219,0.072 0.2219,0.072 0.2389,0.1236 0.239,0.1236 0.2461,0.2415 0.2461,0.2416 0.1365,0.2877 0.1365,0.2878 0.057,0.2882 0.057,0.2882 -0.018,0.4969 -0.018,0.4969 -0.088,0.273 -0.088,0.2731 -0.1228,0.2048 -0.1228,0.2048 -0.143,0.1474 -0.143,0.1474 -0.2048,0.135 -0.2048,0.1351 -0.2839,0.1083 -0.2839,0.1083 0.2327,0.063 0.2327,0.063 0.3243,0.1595 0.3243,0.1595 0.2942,0.2915 0.2942,0.2916 0.1204,0.256 0.1205,0.256 0.055,0.2253 0.055,0.2254 0.033,0.3435 0.033,0.3435 -0.034,0.3867 -0.034,0.3867 -0.1111,0.3245 -0.1111,0.3245 -0.1305,0.1966 -0.1305,0.1966 -0.205,0.1856 -0.2051,0.1856 -0.2607,0.1348 -0.2608,0.1349 -0.2774,0.087 -0.2774,0.087 -0.3029,0.062 -0.3029,0.061 z m 22.5118,-2.1425 4.19,-6e-4 0.2316,-0.049 0.2315,-0.049 0.1388,-0.078 0.1387,-0.078 0.089,-0.1516 0.089,-0.1516 0.014,-0.2925 0.014,-0.2925 -0.039,-0.1456 -0.039,-0.1455 -0.1007,-0.1147 -0.1007,-0.1147 -0.1646,-0.071 -0.1647,-0.071 -0.2196,-0.036 -0.2196,-0.036 -4.1389,-3e-4 -4.1388,-2e-4 v 0.9387 0.9387 z m -0.085,-4.0692 4.1047,-0.01 0.1675,-0.065 0.1674,-0.065 0.162,-0.1571 0.1619,-0.1571 0.037,-0.1366 0.037,-0.1365 2e-4,-0.1641 2e-4,-0.1641 -0.04,-0.1583 -0.04,-0.1582 -0.1447,-0.1448 -0.1448,-0.1447 -0.1823,-0.062 -0.1824,-0.062 -4.1047,-0.01 -4.1047,-0.01 v 0.9062 0.9061 z"
         id="path164-3" /></g></g></svg>
