<?xml version="1.0" encoding="UTF-8" standalone="no"?>
<!-- Created with Inkscape (http://www.inkscape.org/) -->

<svg
   width="319.21979mm"
   height="97.315453mm"
   viewBox="0 0 319.21979 97.315453"
   version="1.1"
   id="svg1"
   xml:space="preserve"
   inkscape:version="1.4.4 (dcaf3e7, 2026-05-05)"
   sodipodi:docname="logos teams.svg"
   inkscape:export-batch-name="Team Silla Hopp Murr"
   inkscape:export-batch-path="Desktop/Frauenliga"
   xmlns:inkscape="http://www.inkscape.org/namespaces/inkscape"
   xmlns:sodipodi="http://sodipodi.sourceforge.net/DTD/sodipodi-0.dtd"
   xmlns="http://www.w3.org/2000/svg"
   xmlns:svg="http://www.w3.org/2000/svg"><sodipodi:namedview
     id="namedview1"
     pagecolor="#ffffff"
     bordercolor="#000000"
     borderopacity="0.25"
     inkscape:showpageshadow="2"
     inkscape:pageopacity="0.0"
     inkscape:pagecheckerboard="0"
     inkscape:deskcolor="#d1d1d1"
     inkscape:document-units="mm"
     inkscape:zoom="0.037190382"
     inkscape:cx="-4006.4122"
     inkscape:cy="-8779.1516"
     inkscape:window-width="1920"
     inkscape:window-height="1050"
     inkscape:window-x="0"
     inkscape:window-y="30"
     inkscape:window-maximized="0"
     inkscape:current-layer="layer1"><inkscape:page
       x="0"
       y="0"
       width="319.21979"
       height="97.315453"
       id="page1"
       margin="0"
       bleed="0" /></sodipodi:namedview><defs
     id="defs1"><style
       id="style1-7">
      .cls-1 {
        fill: #fff;
      }
    </style></defs><g
     inkscape:label="Ebene 1"
     inkscape:groupmode="layer"
     id="layer1"
     transform="translate(1885.2924,-302.16109)"><path
       style="fill:#000000"
       d="m -1813.9872,399.42941 c -0.582,-0.0575 -2.368,-0.22861 -3.9687,-0.38029 -18.9201,-1.79281 -38.4031,-9.76725 -49.4771,-20.25114 l -1.3229,-1.25242 0.6614,0.15342 c 2.5078,0.58164 3.303,0.89764 5.424,2.15559 11.4314,6.77972 25.069,10.56462 42.5979,11.82234 l 4.2334,0.30374 7.8052,-0.15715 c 6.7565,-0.13603 15.7446,-0.67942 18.0578,-1.0917 l 0.7276,-0.12969 v 3.43297 3.43297 l -0.9922,0.004 c -0.5457,0.002 -1.1708,0.11792 -1.3891,0.25709 l -0.3969,0.25303 1.0584,-0.12157 1.0583,-0.12158 -1.0854,0.36556 c -0.597,0.20105 -2.5615,0.56362 -4.3656,0.80571 l -3.2802,0.44015 -7.1438,0.0917 c -3.929,0.0505 -7.62,0.0447 -8.2021,-0.0128 z m 122.4164,-4.90828 -0.8795,-0.25337 -1.1206,-1.12055 -1.1206,-1.12056 -0.3508,-1.25315 -0.3509,-1.25316 0.1337,-1.66473 0.1336,-1.66474 0.527,-1.17443 c 0.2899,-0.64594 1.0349,-1.74561 1.6555,-2.44373 l 1.1285,-1.26929 1.2314,-0.62404 c 2.3357,-1.18359 5.0166,-1.18606 6.7552,-0.006 l 0.917,0.62228 0.1627,-0.51265 0.1627,-0.51265 h 2.5167 2.5168 l -0.1487,0.72761 c -0.13,0.63602 -0.8164,4.9156 -1.8354,11.44323 l -0.3098,1.98437 h -2.5121 -2.5121 l 0.092,-0.79375 0.092,-0.79375 -0.6245,0.58269 c -0.3434,0.32047 -1.0655,0.76696 -1.6045,0.99218 l -0.9801,0.40951 -1.3976,-0.0239 c -0.7686,-0.0131 -1.7933,-0.13787 -2.277,-0.27722 z m 5.2601,-4.19663 0.9411,-0.26143 0.7565,-0.78957 0.7564,-0.78957 0.1196,-1.44192 0.1196,-1.44191 -0.6806,-0.68061 -0.6806,-0.68061 -1.2688,9.9e-4 -1.2688,9.9e-4 -0.8471,0.51648 c -3.2787,1.99914 -1.59,6.5791 2.0527,5.56716 z m 50.7154,4.02369 c -0.6931,-0.24861 -1.6892,-0.79554 -2.2135,-1.2154 l -0.9533,-0.76338 -0.5257,-1.1884 -0.5257,-1.1884 0.099,-1.88468 0.099,-1.88467 0.6157,-1.26204 c 0.3387,-0.69413 1.11,-1.75294 1.7141,-2.35293 l 1.0983,-1.09088 1.6412,-0.75293 1.6413,-0.75292 1.8005,-0.16734 1.8005,-0.16734 1.4944,0.31023 1.4944,0.31023 1.1986,0.79397 1.1987,0.79396 0.6782,1.36105 0.6783,1.36105 v 1.35523 c 0,0.74538 -0.1759,1.9424 -0.3909,2.66003 l -0.3908,1.3048 -0.9982,1.21851 c -1.3298,1.62318 -2.5425,2.46406 -4.5095,3.12668 l -1.6314,0.5496 -1.9266,-0.011 -1.9266,-0.011 z m 6.1645,-4.60189 c 0.402,-0.29727 0.9363,-0.99563 1.1871,-1.55193 l 0.4561,-1.01144 -0.1747,-0.93139 -0.1748,-0.93139 -0.6873,-0.54064 -0.6873,-0.54063 h -1.168 c -2.7556,0 -4.5848,2.7181 -3.3875,5.03352 l 0.4002,0.77391 0.8566,0.25565 c 1.126,0.33606 2.473,0.11459 3.3796,-0.55566 z m -96.2251,4.40439 c -0.059,-0.15107 0.2333,-2.38427 0.6484,-4.96268 0.8111,-5.03824 0.8139,-4.94913 -0.1579,-4.94913 h -0.6514 l 0.1812,-1.38906 c 0.1,-0.76398 0.2469,-1.65695 0.3273,-1.98437 l 0.1462,-0.59532 h 0.76 0.7601 l 0.122,-0.59531 c 0.067,-0.32742 0.1949,-1.07156 0.2838,-1.65364 0.089,-0.58209 0.2228,-1.2667 0.2976,-1.52136 l 0.136,-0.46302 h 2.5241 2.524 l -0.1346,0.35077 c -0.074,0.19292 -0.2197,1.14542 -0.3237,2.11666 l -0.1891,1.7659 h 1.377 1.377 l -0.1731,1.12448 c -0.095,0.61847 -0.2379,1.51144 -0.3173,1.98438 l -0.1442,0.85989 -0.5659,0.0367 c -0.3112,0.0202 -0.9496,0.0165 -1.4187,-0.008 l -0.8528,-0.0449 -0.131,0.60349 c -0.072,0.33192 -0.4357,2.55493 -0.8081,4.94002 -0.3724,2.38509 -0.743,4.44317 -0.8236,4.57352 l -0.1465,0.23701 -2.2602,-0.0756 -2.2603,-0.0756 z m 10.0276,0.22022 c -0.3274,-0.0631 -0.5953,-0.2627 -0.5953,-0.44363 0,-0.2961 1.1009,-7.30077 1.8658,-11.87121 l 0.2989,-1.78594 h 2.5241 2.5242 l -0.1503,0.92605 c -0.1826,1.12541 -0.097,1.13754 1.031,0.14672 0.949,-0.83322 2.352,-1.33348 3.7464,-1.33587 l 0.8599,-10e-4 v 0.70593 c 0,0.38826 -0.1277,1.43914 -0.2838,2.33529 l -0.2837,1.62935 -1.4238,-0.11808 c -3.3837,-0.2806 -4.262,0.78351 -5.1765,6.27114 -0.281,1.68685 -0.5655,3.21582 -0.6321,3.39772 l -0.121,0.33073 -1.7943,-0.036 c -0.9868,-0.0198 -2.0621,-0.0876 -2.3895,-0.15069 z m 11.9787,-0.0677 c -0.054,-0.0873 0.061,-1.10755 0.2549,-2.26725 0.576,-3.44083 1.4227,-8.88595 1.6135,-10.37675 l 0.1778,-1.38907 h 2.5751 2.575 l -0.098,0.59532 c -0.054,0.32742 -0.5159,3.21468 -1.0264,6.41614 -0.5105,3.20146 -0.9963,6.15409 -1.0796,6.5614 l -0.1514,0.74057 -2.3713,-0.0608 c -1.3042,-0.0334 -2.4155,-0.13224 -2.4694,-0.21954 z m 27.7903,0.0147 c -0.1011,-0.16348 0.5942,-5.03556 1.3155,-9.2191 l 0.1483,-0.8599 h -0.8352 -0.8352 l 0.1547,-0.85989 c 0.085,-0.47294 0.2315,-1.35943 0.3255,-1.96996 l 0.1709,-1.11007 0.8226,-0.0806 0.8225,-0.0806 0.1945,-1.19062 c 0.107,-0.65485 0.2639,-1.57758 0.3486,-2.05052 l 0.154,-0.8599 h 2.5303 2.5302 l -0.1522,0.60637 c -0.084,0.3335 -0.2321,1.286 -0.3297,2.11666 l -0.1775,1.5103 h 1.3594 1.3593 v 0.34829 c 0,0.81315 -0.5991,3.49985 -0.8095,3.63003 -0.1261,0.078 -0.7597,0.12202 -1.408,0.0978 l -1.1788,-0.0441 -0.2792,1.62202 c -0.1536,0.89212 -0.4619,2.87218 -0.6851,4.40015 -0.2232,1.52797 -0.4701,3.08835 -0.5488,3.46752 l -0.1429,0.6894 -2.365,0.0189 c -1.3007,0.0104 -2.4209,-0.0716 -2.4892,-0.18222 z m 9.4868,-0.0618 c -0.067,-0.10773 0.1834,-2.07825 0.5555,-4.37893 0.3722,-2.30067 1.0244,-6.32616 1.4494,-8.94554 0.4251,-2.61937 0.9209,-5.8043 1.102,-7.0776 l 0.3292,-2.31511 h 2.4947 2.4948 l -0.1735,1.52136 c -0.095,0.83674 -0.4446,3.15846 -0.7759,5.15937 -0.3314,2.00091 -0.5523,3.63802 -0.491,3.63802 0.061,0 0.5126,-0.35217 1.0029,-0.78261 0.4902,-0.43044 1.3989,-0.9198 2.0193,-1.08747 l 1.1279,-0.30485 1.4397,0.14753 1.4396,0.14753 0.677,0.49572 c 0.3724,0.27265 0.8852,0.90398 1.1397,1.40296 l 0.4626,0.90724 -0.018,1.5875 c -0.01,0.87312 -0.337,3.48187 -0.7272,5.79722 l -0.7095,4.20973 -2.4474,0.10063 -2.4474,0.10063 10e-5,-0.60619 c 0,-0.33341 0.2357,-2.03494 0.5236,-3.78119 0.288,-1.74625 0.5261,-3.7338 0.5292,-4.41677 l 0.01,-1.24177 -0.588,-0.41188 c -0.3234,-0.22653 -0.9146,-0.41187 -1.3137,-0.41187 h -0.7257 l -0.9165,0.80473 -0.9166,0.80473 -0.3974,1.77496 c -0.2187,0.97622 -0.541,2.78698 -0.7164,4.02391 -0.1753,1.23693 -0.4205,2.52184 -0.5449,2.85537 l -0.2261,0.60641 -2.2683,-0.0639 c -1.2476,-0.0352 -2.3228,-0.15209 -2.3894,-0.25983 z m 18.3191,0.10168 c -0.068,-0.10995 -0.024,-0.79456 0.098,-1.52136 0.2805,-1.6728 1.3273,-8.27677 2.3693,-14.9475 0.4433,-2.83765 0.8664,-5.42726 0.9403,-5.75468 l 0.1343,-0.59532 h 2.5416 2.5416 l -0.1746,0.8599 c -0.1639,0.80743 -1.1612,7.0174 -2.6875,16.7349 -0.3657,2.32833 -0.722,4.50122 -0.7916,4.82864 l -0.1267,0.59531 h -2.3606 c -1.2983,0 -2.4162,-0.0899 -2.4841,-0.19989 z m 26.7412,0.0144 c -0.067,-0.11625 0.3657,-3.33675 0.9607,-7.15667 l 1.0817,-6.94532 h 2.5419 2.5418 l -0.1256,0.85548 -0.1255,0.85548 0.9579,-0.84104 c 1.0792,-0.94759 2.4026,-1.39544 4.1299,-1.39761 l 1.1733,-10e-4 1.0815,0.52354 1.0815,0.52355 0.4868,0.82411 0.4868,0.82412 -0.015,1.6289 c -0.015,1.59317 -1.2391,9.80672 -1.5327,10.28185 l -0.1484,0.24016 -2.3561,-0.0809 -2.356,-0.0809 v -0.26458 c 0,-0.14552 0.2967,-2.13721 0.6566,-4.42598 l 0.6544,-4.16139 -0.2476,-0.65117 c -0.2879,-0.75732 -1.0218,-1.2125 -1.955,-1.2125 h -0.6585 l -0.8369,0.70414 c -1.073,0.90293 -1.1887,1.23639 -1.8399,5.3024 -0.2983,1.86239 -0.6071,3.69806 -0.6863,4.07926 l -0.144,0.6931 -2.3442,0.0474 c -1.2893,0.0261 -2.3987,-0.0477 -2.4654,-0.16393 z m -78.375,-17.05334 c -0.291,-0.15919 -0.678,-0.47598 -0.8599,-0.70399 l -0.3307,-0.41455 v -1.13123 -1.13124 l 0.8988,-0.89881 0.8988,-0.89881 0.7415,-0.14174 c 0.8294,-0.15855 1.8562,0.1593 2.5537,0.79052 l 0.4635,0.41947 v 1.11393 1.11394 l -0.5526,0.70243 c -1.0306,1.31023 -2.6556,1.81314 -3.8131,1.18008 z m -178.8804,-10.25576 c -0.061,-0.0606 -0.1102,-5.62681 -0.1102,-12.36928 v -12.25902 h -3.3073 -3.3073 v -3.43959 -3.43958 l 10.9141,-4.6e-4 10.9141,-4.7e-4 -0.081,3.44005 -0.081,3.44005 h -3.2899 -3.29 l -0.069,12.31759 -0.069,12.31758 -4.057,0.0517 c -2.2314,0.0284 -4.1066,0.002 -4.1672,-0.0586 z m 18.6532,0.13324 c -0.061,-0.0601 -0.074,-1.60792 -0.029,-3.43958 l 0.081,-3.3303 h 9.113 9.113 v 3.43959 3.43958 h -9.0841 c -4.9962,0 -9.1336,-0.0492 -9.1942,-0.10929 z m 19.4832,-0.15529 c -0.037,-0.0728 0.5687,-1.73964 1.346,-3.70417 0.7772,-1.96453 1.6454,-4.16719 1.9294,-4.89479 0.9788,-2.50818 7.7483,-20.11133 8.267,-21.4974 l 0.5199,-1.38906 h 4.5609 4.561 l 2.149,5.75469 c 1.1819,3.16508 3.8239,10.19735 5.871,15.62727 2.0472,5.42992 3.7223,9.95429 3.7226,10.05416 2e-4,0.0999 -1.9754,0.12206 -4.3904,0.0493 l -4.3907,-0.1323 -0.9535,-2.57968 -0.9535,-2.57969 h -5.7064 -5.7065 l -1.0505,2.64583 c -0.5778,1.45521 -1.1118,2.65124 -1.1867,2.65785 -1.0772,0.095 -8.5395,0.0846 -8.5886,-0.012 z m 19.8966,-11.9724 c -0.067,-0.1819 -0.8073,-2.38456 -1.6452,-4.89479 -0.8379,-2.51024 -1.6016,-4.56406 -1.6969,-4.56406 -0.095,0 -0.9053,2.20265 -1.7998,4.89479 l -1.6264,4.89479 h 3.445 3.4451 z m 31.9663,11.9724 c -0.035,-0.0728 -1.6545,-4.14637 -3.6001,-9.05247 -1.9456,-4.90609 -3.5771,-8.8805 -3.6256,-8.83202 -0.084,0.084 -1.6438,10.51578 -2.1995,14.70949 -0.1446,1.0914 -0.322,2.25226 -0.3943,2.57968 l -0.1313,0.59532 h -4.1011 -4.101 l 0.129,-0.59532 c 0.071,-0.32742 0.6183,-3.51234 1.2164,-7.0776 0.5981,-3.56526 1.5559,-9.22073 2.1284,-12.56771 0.5726,-3.34698 1.2388,-7.24627 1.4805,-8.6651 l 0.4396,-2.57969 4.1211,0.004 4.1211,0.004 0.8909,2.44325 c 1.8517,5.07779 5.4118,14.22043 5.5023,14.12997 0.052,-0.0518 1.5701,-3.77409 3.374,-8.27171 l 3.2798,-8.1775 4.1193,-0.0728 4.1192,-0.0728 0.142,0.602 c 0.078,0.3311 0.8042,5.00731 1.6137,10.39158 0.8095,5.38427 1.8202,12.09553 2.246,14.91391 0.4259,2.81838 0.7744,5.25916 0.7747,5.42396 l 3e-4,0.29963 -4.1014,-0.0791 c -2.2558,-0.0435 -4.1014,-0.12824 -4.1014,-0.18831 0,-0.0601 -0.2457,-1.98903 -0.5461,-4.28655 -0.6071,-4.64485 -1.2104,-9.4708 -1.4732,-11.78407 -0.095,-0.83675 -0.2468,-1.52136 -0.3372,-1.52136 -0.091,0 -1.8167,3.95883 -3.836,8.7974 -2.0194,4.83857 -3.7126,8.84519 -3.7626,8.9036 -0.1342,0.15659 -3.3141,0.18108 -3.3875,0.0261 z m 29.879,-0.6205 c -3.517,-0.91638 -6.7479,-4.18952 -7.0626,-7.15513 l -0.081,-0.76416 1.6208,-0.46254 1.6207,-0.46253 0.32,1.06795 c 0.176,0.58738 0.6279,1.53329 1.0043,2.10204 l 0.6843,1.03408 1.171,0.68625 c 0.6441,0.37745 1.6374,0.77153 2.2073,0.87576 l 1.0363,0.18949 1.2531,-0.23383 1.253,-0.23384 1.2484,-0.85153 1.2484,-0.85153 0.6699,-1.23069 0.6698,-1.2307 v -1.49404 c 0,-1.89457 -0.4545,-2.97641 -1.7154,-4.08351 l -1.0004,-0.8784 -4.0783,-1.94919 c -2.243,-1.07204 -4.5419,-2.31639 -5.1086,-2.76521 l -1.0303,-0.81603 -0.8096,-1.62003 -0.8095,-1.62004 2e-4,-1.61138 2e-4,-1.61139 0.7614,-1.5875 c 1.2227,-2.54943 3.1861,-4.04913 6.0902,-4.65203 l 1.4714,-0.30546 1.5515,0.16216 c 2.6369,0.27561 5.3432,1.8179 6.5139,3.71215 0.7052,1.14098 0.7356,1.04901 -0.6593,1.99048 -1.4857,1.00263 -1.4456,1.00465 -2.1669,-0.10893 -0.7486,-1.15583 -1.6119,-1.72176 -3.2906,-2.1572 l -1.3275,-0.34436 -1.3634,0.29075 -1.3634,0.29076 -1.094,1.09088 -1.094,1.09088 -0.2897,1.04912 -0.2897,1.04912 0.2855,1.06021 0.2855,1.0602 0.8521,0.80022 c 0.4686,0.44012 1.1414,0.94245 1.4951,1.11628 0.3536,0.17384 2.3694,1.14396 4.4794,2.15582 l 3.8365,1.83975 1.1175,1.11962 c 1.4296,1.43234 2.1448,2.9243 2.3519,4.90621 l 0.1649,1.57692 -0.4281,1.67085 -0.428,1.67085 -0.936,1.41008 c -1.0784,1.62466 -2.1951,2.54757 -4.1844,3.45832 l -1.4084,0.6448 -1.9612,0.12693 -1.9611,0.12693 z m 130.2352,-0.0326 c -11.8527,-2.47456 -16.919,-16.25762 -9.5696,-26.0345 l 1.2007,-1.59725 1.634,-1.22832 c 1.9695,-1.4805 2.9681,-2.00627 5.2061,-2.74096 l 1.7028,-0.55899 2.1441,-0.16481 2.1441,-0.16481 2.2073,0.44725 2.2072,0.44725 2.1182,1.065 2.1182,1.065 2.015,2.02837 2.0149,2.02837 0.8386,1.58938 c 0.4611,0.87416 1.085,2.47911 1.3864,3.56656 l 0.5479,1.97717 v 2.42485 2.42484 l -0.5596,1.81381 c -0.3077,0.99759 -0.9192,2.52818 -1.3589,3.4013 l -0.7993,1.5875 -2.0146,2.00104 c -2.2442,2.22923 -3.722,3.14956 -6.6317,4.1302 l -1.9713,0.66439 -2.3943,0.10073 -2.3943,0.10074 z m 6.5544,-3.36005 c 0.7276,-0.15642 2.0341,-0.65692 2.9033,-1.11221 l 1.5804,-0.82781 1.4689,-1.45521 1.469,-1.45521 0.831,-1.5875 c 2.7273,-5.21018 1.9729,-10.97165 -1.9995,-15.26967 l -1.4197,-1.53619 -2.1521,-1.05601 -2.1521,-1.056 -1.8728,-0.25711 -1.8729,-0.25711 -1.6426,0.26453 c -6.684,1.07644 -11.12,6.23948 -11.1417,12.96798 l -0.01,2.0025 0.4264,1.43708 c 2.0779,7.00347 8.4076,10.74008 15.5809,9.19794 z m -118.9302,-12.65564 v -15.875 h 1.7198 1.7198 v 15.875 15.875 h -1.7198 -1.7198 z m 9.966,15.69861 c -0.097,-0.097 -0.1764,-7.24077 -0.1764,-15.875 v -15.69861 h 1.8521 1.8521 v 14.14865 14.14866 l 4.2995,0.0727 4.2994,0.0727 0.079,1.65365 0.079,1.65365 h -6.054 c -3.3296,0 -6.1333,-0.0794 -6.2303,-0.17639 z m 15.6986,-15.7107 v -15.88709 l 1.73,0.0782 1.73,0.0782 -0.015,13.65883 c -0.01,7.51235 0.06,13.85243 0.1504,14.08906 l 0.1651,0.43023 h 4.1609 c 4.8511,0 4.4042,-0.19048 4.2918,1.82919 l -0.09,1.6104 h -6.0619 -6.0619 z m 13.1121,15.30984 c 0.1698,-0.53482 1.2932,-3.09957 4.6146,-10.53525 0.5525,-1.23693 2.1005,-4.74927 3.44,-7.80521 1.3394,-3.05594 2.8865,-6.56828 3.4379,-7.80521 0.5514,-1.23693 1.4235,-3.19465 1.9381,-4.35049 l 0.9355,-2.10154 0.6973,1.57237 c 2.5443,5.73704 13.3641,31.11299 13.3641,31.34303 v 0.28273 l -1.8843,-0.0777 -1.8842,-0.0777 -1.8045,-4.36562 -1.8044,-4.36563 -6.8312,-0.0704 -6.8312,-0.0704 -1.8554,4.43604 -1.8554,4.43603 -1.9338,0.0782 -1.9339,0.0782 z m 19.3524,-12.12275 c -0.1853,-0.69322 -5.0175,-12.18949 -5.0912,-12.11239 -0.1673,0.17516 -5.3305,12.37113 -5.2651,12.43669 0.04,0.0399 2.4101,0.0726 5.2674,0.0726 h 5.195 z m 12.9056,12.38198 c -0.072,-0.18889 -0.1005,-7.3086 -0.063,-15.82157 l 0.069,-15.47812 1.786,-0.0782 1.7859,-0.0782 v 6.49438 6.49438 h 8.0698 8.0698 v -6.48229 -6.48229 h 1.8542 1.8541 l -0.068,15.80885 -0.068,15.80885 h -1.7198 -1.7198 l -0.07,-7.73906 -0.07,-7.73906 h -8.0618 -8.0618 l -0.07,7.73906 -0.07,7.73906 -1.657,0.0789 -1.6571,0.0789 z m 66.0195,-15.54489 v -15.88709 h 3.9201 c 7.2891,0 10.1368,1.17995 11.9818,4.96458 l 0.6108,1.25312 0.1006,2.24896 0.1005,2.24896 -0.5924,1.5793 -0.5924,1.5793 -1.3741,1.37417 -1.3742,1.37417 -1.8071,0.55815 -1.8071,0.55815 -2.5327,0.12448 c -1.393,0.0685 -2.6201,0.12534 -2.7267,0.1264 -0.1067,0.001 -0.2258,3.06778 -0.2646,6.81494 l -0.071,6.81302 -1.786,0.0782 -1.7859,0.0782 z m 9.1998,-1.73841 c 1.6816,-0.49937 2.8969,-1.49481 3.532,-2.89295 l 0.4857,-1.06928 0.01,-1.37183 c 0.01,-2.22858 -0.8958,-3.79075 -2.7723,-4.78415 l -0.7937,-0.42021 -2.9766,-0.11863 -2.9765,-0.11864 v 5.58955 5.58954 h 2.0686 2.0686 z m 12.1432,17.42493 c -0.097,-0.097 -0.1763,-7.24077 -0.1763,-15.875 v -15.69861 h 3.9201 c 7.2397,0 9.9131,1.0953 11.9098,4.87954 l 0.7061,1.33816 2e-4,2.64584 2e-4,2.64583 -0.7425,1.51195 -0.7424,1.51194 -1.1677,1.02788 -1.1678,1.02788 -1.703,0.55908 -1.7031,0.55908 -2.8029,0.18121 -2.8029,0.18121 v 6.8402 6.8402 h -1.6757 c -0.9216,0 -1.755,-0.0794 -1.8521,-0.17639 z m 9.0235,-17.42493 c 1.6816,-0.49937 2.8969,-1.49481 3.532,-2.89295 l 0.4857,-1.06928 0.01,-1.15992 c 0,-0.63796 -0.1349,-1.62945 -0.3068,-2.2033 l -0.3126,-1.04337 -1.0258,-0.87804 -1.0258,-0.87805 -1.16,-0.2921 c -0.638,-0.16065 -2.1788,-0.29209 -3.4241,-0.29209 h -2.2641 v 5.55625 5.55625 h 2.0687 2.0686 z m -286.4923,5.82736 c -0.01,-0.0728 -0.013,-1.59081 -0.018,-3.37344 l -0.01,-3.24115 h 8.6834 8.6833 l 0.074,3.37344 0.074,3.37344 h -8.7391 c -4.8066,0 -8.7433,-0.0595 -8.7483,-0.13229 z m -8e-4,-12.77597 c -0.01,-0.39478 -0.035,-1.9382 -0.066,-3.42983 l -0.056,-2.71205 9.2022,7e-5 9.2022,7e-5 -0.074,3.37344 -0.074,3.37343 -9.062,0.0563 -9.062,0.0563 z m 272.2662,-18.48672 c -0.2183,-0.0728 -0.5755,-0.20124 -0.7938,-0.28542 -0.2183,-0.0842 -0.5628,-0.12514 -0.7656,-0.091 -0.2027,0.0341 -0.4409,-0.0441 -0.5291,-0.17383 -0.4634,-0.68111 -7.7608,-4.4157 -11.4053,-5.83689 -11.2938,-4.40401 -24.2001,-6.75645 -39.0593,-7.11934 l -6.3833,-0.15589 -4.5969,0.31128 c -3.8781,0.26261 -7.576,0.57143 -11.4761,0.95837 -2.6861,0.26651 -3.9016,0.35141 -3.4396,0.24028 l 0.5292,-0.1273 -0.081,-3.25364 -0.081,-3.25364 0.3806,-0.31586 c 0.5654,-0.46925 3.8831,-1.03844 8.8559,-1.51934 l 4.4185,-0.42729 7.6729,0.14522 7.673,0.14522 3.0427,0.41388 c 15.6438,2.1279 29.1468,7.05739 40.3028,14.71315 2.2362,1.53458 6.4392,5.00161 6.6378,5.47547 l 0.1386,0.33073 -0.3224,-0.0209 c -0.1774,-0.0115 -0.5011,-0.0804 -0.7193,-0.15326 z m -76.7979,-17.3545 c -0.052,-0.90951 -0.094,-0.16536 -0.094,1.65365 0,1.81901 0.042,2.56315 0.094,1.65364 0.052,-0.9095 0.052,-2.39778 0,-3.30729 z m 2.1137,-1.68121 c -0.088,-0.0879 -0.3161,-0.0973 -0.5071,-0.0209 l -0.3473,0.13896 0.5071,0.0209 c 0.279,0.0115 0.4352,-0.0511 0.3473,-0.13897 z m -1.1851,-0.27996 c -0.1819,-0.0734 -0.4796,-0.0734 -0.6615,0 -0.1819,0.0734 -0.033,0.13346 0.3308,0.13346 0.3638,0 0.5126,-0.0601 0.3307,-0.13346 z"
       id="path288" /></g><style
     id="style1">@media(prefers-color-scheme:dark){.lines{fill:#d7d7d7}}</style></svg>
