<?xml version="1.0" encoding="UTF-8" standalone="no"?>
<!-- Created with Inkscape (http://www.inkscape.org/) -->

<svg
   width="136.19896mm"
   height="188.75304mm"
   viewBox="0 0 136.19896 188.75304"
   version="1.1"
   id="svg1"
   xml:space="preserve"
   inkscape:version="1.4.4 (dcaf3e7, 2026-05-05)"
   sodipodi:docname="logos teams.svg"
   inkscape:export-batch-name="logos teams"
   inkscape:export-batch-path="Desktop/3 LIGA"
   xmlns:inkscape="http://www.inkscape.org/namespaces/inkscape"
   xmlns:sodipodi="http://sodipodi.sourceforge.net/DTD/sodipodi-0.dtd"
   xmlns="http://www.w3.org/2000/svg"
   xmlns:svg="http://www.w3.org/2000/svg"><sodipodi:namedview
     id="namedview1"
     pagecolor="#ffffff"
     bordercolor="#000000"
     borderopacity="0.25"
     inkscape:showpageshadow="2"
     inkscape:pageopacity="0.0"
     inkscape:pagecheckerboard="0"
     inkscape:deskcolor="#d1d1d1"
     inkscape:document-units="mm"
     inkscape:zoom="0.037190382"
     inkscape:cx="-4006.4122"
     inkscape:cy="-8779.1516"
     inkscape:window-width="1920"
     inkscape:window-height="1050"
     inkscape:window-x="0"
     inkscape:window-y="30"
     inkscape:window-maximized="0"
     inkscape:current-layer="layer1"><inkscape:page
       x="0"
       y="0"
       width="136.19896"
       height="188.75305"
       id="page1"
       margin="0"
       bleed="0" /></sodipodi:namedview><defs
     id="defs1"><style
       id="style1-7">
      .cls-1 {
        fill: #fff;
      }
    </style></defs><g
     inkscape:label="Ebene 1"
     inkscape:groupmode="layer"
     id="layer1"
     transform="translate(1101.1683,1493.4748)"><path
       style="fill:#f58218;fill-opacity:1"
       d="m -1033.343,-1304.763 c -0.051,-0.05 -1.4018,-0.1622 -3.0025,-0.2495 -6.01,-0.3277 -7.3923,-0.4488 -7.6612,-0.6708 l -0.2763,-0.2282 -7.2761,-0.034 c -4.0018,-0.019 -7.9309,-0.1003 -8.7312,-0.1812 -0.8004,-0.081 -3.4899,-0.2508 -5.9767,-0.3775 l -4.5214,-0.2305 -1.1671,-0.5034 -1.1671,-0.5033 -0.2975,-1.0269 -0.2975,-1.0269 0.087,-2.1167 c 0.048,-1.1641 0.1016,-2.2952 0.1193,-2.5135 0.018,-0.2183 -0.036,-2.7186 -0.1196,-5.5563 -0.083,-2.8376 -0.2068,-7.362 -0.2741,-10.0541 -0.1318,-5.2692 -0.3088,-9.1039 -0.6901,-14.949 -0.3889,-5.9627 -0.5243,-7.3627 -0.7902,-8.1754 -0.138,-0.4219 -0.251,-1.1606 -0.251,-1.6417 v -0.8745 l 0.9922,-0.1934 c 1.5838,-0.3086 7.1018,-0.049 11.3109,0.5327 1.0589,0.1463 9.0832,0.5723 9.9219,0.5268 0.3638,-0.02 1.8819,-0.073 3.3734,-0.1187 1.4916,-0.046 2.712,-0.1591 2.712,-0.2524 0,-0.2803 -1.2676,-0.7692 -2.456,-0.9472 -0.9953,-0.1491 -1.8467,-0.506 -4.5363,-1.9014 -0.7914,-0.4106 -1.2987,-0.7875 -2.472,-1.8364 -0.3655,-0.3268 -1.3026,-0.9172 -2.0824,-1.312 -0.7798,-0.3949 -1.4179,-0.8717 -1.4179,-1.0596 0,-0.1879 -0.195,-0.3416 -0.4334,-0.3416 -0.2384,0 -0.9501,-0.4762 -1.5816,-1.0583 -0.6315,-0.5821 -1.2618,-1.0583 -1.4008,-1.0583 -0.139,0 -0.321,-0.2152 -0.4044,-0.4782 -0.083,-0.2629 -0.6824,-1.0071 -1.331,-1.6536 l -1.1793,-1.1755 -0.163,-0.7276 c -0.09,-0.4002 -0.2703,-0.7276 -0.4013,-0.7276 -0.131,0 -0.4933,-0.5061 -0.8052,-1.1245 -0.3118,-0.6185 -0.7891,-1.3362 -1.0605,-1.5948 -0.2714,-0.2587 -0.5722,-0.7842 -0.6685,-1.1676 -0.096,-0.3835 -0.3466,-0.8977 -0.5563,-1.1426 -0.414,-0.4835 -1.6219,-3.2083 -1.8428,-4.1567 -0.075,-0.323 -0.3021,-0.7245 -0.5043,-0.8923 -0.2022,-0.1678 -0.3687,-0.5584 -0.3701,-0.868 -10e-4,-0.3096 -0.2991,-1.1998 -0.6615,-1.9783 -0.3624,-0.7784 -0.6589,-1.5821 -0.6589,-1.7859 0,-0.2038 -0.1744,-0.3706 -0.3875,-0.3706 -0.2132,0 -0.5106,-0.2299 -0.661,-0.5108 l -0.2733,-0.5108 0.4128,-0.4128 0.4128,-0.4128 -0.3923,-2.1853 c -0.6097,-3.3968 -0.7856,-5.5459 -0.8283,-10.1227 -0.022,-2.3283 -0.061,-4.488 -0.087,-4.7992 l -0.048,-0.5659 -0.8599,-0.1597 c -0.856,-0.159 -12.7494,-0.4857 -19.4678,-0.5348 l -3.5265,-0.026 -0.5745,-0.7882 -0.5744,-0.7882 0.045,-16.9424 0.045,-16.9423 0.3055,-6.2143 c 0.168,-3.4178 0.3034,-7.5449 0.3008,-9.1713 l -0.01,-2.957 0.3668,-0.3044 c 0.2018,-0.1674 0.6413,-0.2655 0.9767,-0.218 l 0.6099,0.087 0.084,0.7276 0.084,0.7276 h 3.6204 c 1.9913,0 4.3944,-0.1338 5.3403,-0.2909 0.9459,-0.1571 2.8509,-0.3871 4.2333,-0.5111 1.3825,-0.124 3.8615,-0.4396 5.509,-0.7012 l 2.9955,-0.4758 0.2772,-0.4958 0.2771,-0.4958 0.1005,-6.1188 c 0.093,-5.6984 0.358,-9.6857 0.7789,-11.7412 l 0.176,-0.8599 h -0.956 -0.9561 v -0.463 -0.463 l 0.7121,-0.3308 c 0.3917,-0.1819 0.9266,-0.3307 1.1886,-0.3307 0.262,0 0.4764,-0.1096 0.4764,-0.2435 0,-0.134 0.8037,-0.3294 1.7859,-0.4344 0.9823,-0.1049 2.4408,-0.4197 3.2412,-0.6994 0.8004,-0.2797 2.0505,-0.6192 2.7781,-0.7543 0.7276,-0.1351 1.9778,-0.4362 2.7781,-0.669 0.8004,-0.2328 1.991,-0.5368 2.6459,-0.6756 0.6548,-0.1387 1.4883,-0.41 1.8521,-0.6027 0.3638,-0.1927 1.3163,-0.4935 2.1166,-0.6683 0.8004,-0.1748 1.6934,-0.421 1.9844,-0.5471 0.4555,-0.1974 2.2857,-0.6508 7.4783,-1.8528 0.6205,-0.1437 1.4896,-0.2612 1.9313,-0.2612 0.4417,0 1.1246,-0.1581 1.5176,-0.3513 0.393,-0.1933 1.667,-0.5645 2.8311,-0.825 1.1642,-0.2605 2.4144,-0.5952 2.7782,-0.7439 0.3638,-0.1487 1.0781,-0.3604 1.5875,-0.4704 1.3298,-0.2873 7.8405,-1.8721 10.6226,-2.5857 l 0.9653,-0.2475 0.3482,0.2152 0.3482,0.2152 -0.01,4.8441 c 0,4.8541 -0.047,7.5496 -0.1602,10.268 -0.155,3.7131 0.2915,21.5688 0.5468,21.8676 0.018,0.022 2.5043,0.094 5.5238,0.1617 l 5.4901,0.1224 1.7198,0.4441 c 3.3169,0.8567 3.8585,1.0147 6.6146,1.929 14.37662,4.7693 26.26699,15.0105 32.11842,27.6636 l 1.13214,2.4481 0.59162,2.5135 c 0.32539,1.3825 0.83087,3.1684 1.12329,3.9688 0.29241,0.8003 0.64539,1.9314 0.78438,2.5135 0.139,0.5821 0.49127,1.5732 0.78284,2.2024 0.69178,1.493 1.09527,3.6455 0.9021,4.8126 l -0.15387,0.9295 0.45226,1.0549 0.45226,1.0548 0.10919,2.2455 c 0.0601,1.235 0.20419,2.3661 0.32028,2.5135 0.11609,0.1474 0.29312,1.161 0.3934,2.2524 0.10028,1.0915 0.36145,3.175 0.58038,4.6303 0.64658,4.2979 0.83354,9.1441 0.64303,16.6687 -0.0332,1.3097 -0.0422,2.5598 -0.02,2.7781 0.0463,0.4562 -0.23358,7.2172 -0.37238,8.9959 -0.0511,0.6548 -0.27391,2.0836 -0.49513,3.175 -0.22122,1.0914 -0.48022,2.6987 -0.57557,3.5718 -0.29615,2.7121 -0.59475,4.4192 -1.15695,6.6146 -0.29811,1.1642 -0.60249,2.5929 -0.67638,3.175 -0.1578,1.2431 -0.37968,2.1762 -0.69207,2.9104 -0.12382,0.2911 -0.27108,1.184 -0.32723,1.9844 l -0.1021,1.4552 -1.55511,3.175 c -0.85532,1.7463 -1.63552,3.2346 -1.73379,3.3073 -0.47052,0.3484 -1.56872,2.2503 -1.56872,2.7168 0,0.2895 -0.49438,1.2506 -1.09863,2.1358 -0.60424,0.8852 -1.40009,2.2689 -1.76855,3.0748 -0.36846,0.8059 -0.83709,1.6332 -1.0414,1.8383 -0.2043,0.2051 -0.67641,0.86 -1.04912,1.4552 -0.37271,0.5952 -0.7503,1.1418 -0.83908,1.2145 -0.0888,0.073 -0.39571,0.5788 -0.68207,1.1245 -0.28636,0.5457 -0.65074,0.9922 -0.80974,0.9922 -0.15899,0 -0.77592,0.4167 -1.37095,0.926 -0.59503,0.5094 -1.20076,0.9261 -1.34606,0.9261 -0.24799,0 -1.23645,0.8311 -3.38277,2.8442 -0.50422,0.473 -1.0021,0.8603 -1.10639,0.8608 -0.10429,4e-4 -1.01623,0.4171 -2.02653,0.926 l -1.83692,0.9252 h -0.9853 -0.98531 l -0.1342,-0.3307 -0.13419,-0.3307 -0.24493,0.3481 c -0.2407,0.342 -0.86434,0.7218 -2.70899,1.6496 -0.51108,0.257 -1.15461,0.7164 -1.43006,1.0207 -0.27546,0.3044 -0.7181,0.5534 -0.9837,0.5534 -0.6168,0 -2.621,0.7733 -3.1393,1.2112 -0.5584,0.4718 -2.6371,1.1617 -3.5142,1.1662 -0.4049,0 -1.1314,0.169 -1.6145,0.3709 -0.8549,0.3572 -1.8955,0.5724 -3.9404,0.815 -0.5497,0.065 -1.0881,0.1734 -1.1965,0.2404 -0.1084,0.067 -1.1572,0.1866 -2.3305,0.2657 -1.1733,0.079 -2.4504,0.2645 -2.838,0.4118 -0.3875,0.1474 -2.1038,0.3312 -3.8139,0.4086 -1.7101,0.077 -3.2284,0.1478 -3.3739,0.1564 -0.1455,0.01 -1.0385,0.01 -1.9844,0 -0.9458,-0.011 -2.5117,0.032 -3.4797,0.097 -0.968,0.064 -1.8014,0.076 -1.8521,0.026 z m -0.092,-14.1775 c 7.9036,-0.5979 10.6922,-0.7843 13.626,-0.9109 2.8194,-0.1216 4.14,-0.3255 8.7313,-1.3484 4.3735,-0.9744 12.0871,-3.8818 12.96458,-4.8866 0.0728,-0.083 0.78713,-0.6804 1.5875,-1.3269 1.77615,-1.4348 5.55625,-5.187 5.55625,-5.5153 0,-0.131 0.0922,-0.2779 0.2048,-0.3264 0.24685,-0.1063 3.23478,-4.5895 3.23478,-4.8535 0,-0.1021 0.30098,-0.4224 0.66884,-0.7118 0.83275,-0.655 1.63264,-2.1896 1.77037,-3.3964 0.0575,-0.5039 0.29538,-1.5709 0.52861,-2.3713 0.23323,-0.8004 0.62088,-2.2291 0.86145,-3.175 0.24056,-0.9459 0.54611,-2.1365 0.679,-2.6458 0.13288,-0.5094 0.24445,-1.5274 0.24792,-2.2622 0.003,-0.7349 0.11234,-1.4493 0.24192,-1.5875 0.12959,-0.1383 0.30248,-1.1763 0.3842,-2.3067 0.0817,-1.1304 0.20317,-2.1436 0.26989,-2.2515 0.0667,-0.108 0.20473,-1.3857 0.3067,-2.8395 0.10196,-1.4538 0.22168,-2.705 0.26604,-2.7805 0.0444,-0.075 0.15733,-1.5042 0.25106,-3.175 0.0937,-1.6708 0.28057,-3.4607 0.4152,-3.9777 l 0.24478,-0.9399 -0.10897,-6.2038 c -0.10637,-6.0553 -0.30174,-10.5497 -0.56298,-12.9507 -0.0712,-0.6549 -0.24,-2.6194 -0.37501,-4.3657 -0.13501,-1.7462 -0.36734,-3.9489 -0.51628,-4.8948 -0.14895,-0.9458 -0.32223,-2.0769 -0.38508,-2.5135 -0.51035,-3.5454 -1.40068,-7.104 -2.25068,-8.9958 -0.13076,-0.2911 -0.38609,-0.9459 -0.56741,-1.4552 -0.54708,-1.5368 -1.91271,-4.315 -2.53611,-5.1594 -0.32231,-0.4366 -0.67314,-1.151 -0.77964,-1.5875 -0.1065,-0.4366 -0.27837,-0.8533 -0.38193,-0.9261 -0.10357,-0.073 -0.44557,-0.6085 -0.76,-1.1906 -1.14109,-2.1124 -1.9641,-3.4414 -2.18458,-3.5278 -0.12388,-0.049 -0.22523,-0.2449 -0.22523,-0.4364 0,-0.5338 -7.20123,-8.0743 -7.71094,-8.0743 -0.0971,0 -0.67525,-0.4167 -1.28485,-0.9261 -0.6097,-0.5093 -1.2758,-0.926 -1.4803,-0.926 -0.2045,0 -0.3718,-0.091 -0.3718,-0.2022 0,-0.2991 -1.9685,-1.0982 -3.9498,-1.6034 -0.9563,-0.2439 -1.7983,-0.5148 -1.8711,-0.6022 -0.2381,-0.2859 -1.4262,-0.8457 -2.2427,-1.0567 -0.44,-0.1137 -1.9311,-0.5219 -3.3135,-0.907 -1.3825,-0.3852 -3.6275,-0.9243 -4.9889,-1.1979 -1.3615,-0.2737 -2.6603,-0.6506 -2.8862,-0.8376 l -0.4109,-0.3399 -2.463,0.027 -2.463,0.027 -0.3393,0.2739 c -0.1866,0.1507 -1.2918,0.4057 -2.456,0.5667 -1.1642,0.1611 -2.9272,0.4133 -3.918,0.5605 l -1.8012,0.2677 -0.4695,-0.2512 c -0.2582,-0.1382 -0.6263,-0.4403 -0.818,-0.6714 l -0.3487,-0.4201 -0.072,-2.8355 c -0.039,-1.5595 -0.1383,-4.0856 -0.22,-5.6136 -0.082,-1.528 -0.1882,-5.3697 -0.237,-8.5371 l -0.089,-5.7591 -0.3132,-0.3131 c -0.3936,-0.3937 -0.4106,-1.968 -0.024,-2.2071 l 0.2895,-0.1789 -0.1668,-1.0935 c -0.092,-0.6014 -0.207,-1.6388 -0.2561,-2.3054 -0.049,-0.6665 -0.2282,-1.4713 -0.3979,-1.7885 l -0.3086,-0.5765 -1.1138,0.603 c -1.3862,0.7506 -2.6366,1.1816 -4.0904,1.4098 -0.6184,0.097 -1.1244,0.2655 -1.1244,0.3742 0,0.1088 -0.3687,0.2715 -0.8193,0.3616 -0.8155,0.1631 -4.4911,1.4674 -7.5151,2.6668 -0.8731,0.3463 -2.0847,0.6869 -2.6923,0.7568 -1.1198,0.1289 -2.2987,0.5726 -4.7076,1.7715 l -1.3314,0.6626 -0.3383,3.703 -0.3384,3.703 0.142,1.8521 c 0.2819,3.6776 0.1194,11.9554 -0.2463,12.5472 -0.097,0.1568 -0.5468,0.2851 -0.9997,0.2851 h -0.8234 l -0.5026,0.4548 -0.5025,0.4548 -5.3091,-0.06 -5.3092,-0.06 -0.3875,0.3216 -0.3876,0.3217 -5.1416,-0.043 -5.1416,-0.043 0.1301,4.4205 c 0.269,9.1413 0.3666,11.3461 0.5763,13.0195 0.2264,1.8055 0.2617,2.7782 0.1249,3.4396 -0.045,0.2183 -0.068,0.8136 -0.05,1.3229 l 0.032,0.9261 5.8865,0.048 c 3.2375,0.026 7.1366,0.1819 8.6646,0.346 1.528,0.1641 3.3734,0.3322 4.101,0.3734 0.7276,0.041 2.3682,0.1678 3.6458,0.2813 l 2.3229,0.2062 0.2645,0.4942 0.2645,0.4942 -0.157,1.6567 c -0.4065,4.2885 -0.4408,5.8696 -0.2655,12.24 0.048,1.7462 0,3.294 -0.1112,3.4396 -0.1093,0.1455 -0.3387,0.6799 -0.5099,1.1876 l -0.3112,0.9231 0.3203,1.3259 c 0.1762,0.7292 0.4479,1.4449 0.6036,1.5904 0.4775,0.4462 0.9353,1.5405 1.0514,2.5136 0.061,0.5093 0.2403,1.2612 0.3988,1.6709 0.1585,0.4096 0.2882,0.999 0.2882,1.3097 0,0.3108 0.3995,1.6425 0.8877,2.9594 0.4882,1.3169 1.1125,3.1087 1.3874,3.9819 0.9067,2.8799 5.4889,10.264 6.5885,10.617 0.291,0.093 0.5887,0.2432 0.6614,0.3327 0.2707,0.333 2.6087,2.1471 2.7673,2.1471 0.2149,0 1.6625,1.0292 2.5121,1.786 0.3676,0.3274 0.747,0.5953 0.843,0.5953 0.096,0 0.5914,0.4167 1.1008,0.926 0.5093,0.5094 1.1279,0.9261 1.3746,0.9261 0.2468,0 0.7708,0.2293 1.1645,0.5097 0.6437,0.4583 2.2434,1.236 5.1295,2.4936 0.5507,0.2399 1.1612,0.4363 1.3567,0.4363 0.1955,0 0.4841,0.1549 0.6413,0.3443 0.1571,0.1894 1.154,0.7661 2.2152,1.2817 l 1.9294,0.9373 1.9844,0.3529 c 1.0914,0.194 3.294,0.3906 4.8948,0.4367 1.6007,0.046 3.3498,0.2204 3.8869,0.3871 l 0.9765,0.303 1.0079,-0.1996 c 0.5543,-0.1099 1.7222,-0.2777 2.5953,-0.3729 l 1.5875,-0.1732 1.2081,-0.5903 c 0.6644,-0.3247 1.3787,-0.5992 1.5875,-0.61 0.2087,-0.011 0.8557,-0.2312 1.4378,-0.4898 l 1.0583,-0.4702 0.8847,0.4183 0.8846,0.4184 -0.1353,0.834 -0.1354,0.834 0.2697,0.2696 0.2696,0.2697 -0.6067,1.9223 c -0.6373,2.0196 -1.8004,3.9588 -3.3469,5.5808 l -0.9235,0.9684 -0.9616,0.1781 c -0.5289,0.098 -1.8547,0.604 -2.9461,1.1245 l -1.9843,0.9464 -1.8521,0.2135 c -1.0187,0.1174 -2.8046,0.3324 -3.9688,0.4777 -1.1641,0.1454 -3.4475,0.256 -5.0741,0.2459 -1.6267,-0.01 -3.0996,0.069 -3.2732,0.1766 -0.1736,0.1073 -2.236,0.181 -4.5831,0.1637 -2.3471,-0.017 -5.22,0.09 -6.3842,0.2389 -2.6085,0.3331 -2.4111,0.3333 -6.7337,-0.01 l -3.5587,-0.2794 -1.2497,0.4151 -1.2497,0.4151 -1.5859,-0.3276 -1.5859,-0.3275 -1.2617,0.2468 -1.2617,0.2469 -0.228,0.7937 -0.2279,0.7938 0.1399,2.5135 c 0.077,1.3825 0.3233,3.2139 0.5475,4.07 l 0.4077,1.5564 -0.1747,1.0894 c -0.2277,1.4202 -0.2304,1.9517 -0.032,6.5134 0.092,2.11 0.1731,4.5835 0.181,5.4966 l 0.014,1.6602 0.7276,0.286 c 0.7272,0.2859 1.6935,0.3463 10.3849,0.649 2.5466,0.089 4.6676,0.1971 4.7132,0.2408 0.2106,0.2018 7.1754,0.1039 10.5004,-0.1476 z m 7.6729,-64.8651 c -0.8731,-0.111 -2.2721,-0.2765 -3.1088,-0.3677 -0.8368,-0.091 -1.5214,-0.2618 -1.5214,-0.3792 0,-0.2608 -1.528,-1.0459 -2.0356,-1.0459 -1.1343,0 -2.9611,-1.4575 -4.4467,-3.5475 -0.291,-0.4095 -0.678,-0.9014 -0.8599,-1.0932 -0.1819,-0.1917 -0.3307,-0.483 -0.3307,-0.6473 0,-0.1643 -0.3029,-0.8412 -0.673,-1.5042 l -0.673,-1.2054 -0.299,-3.4757 c -0.3595,-4.1779 -0.3732,-5.2329 -0.1028,-7.9192 l 0.2076,-2.0623 0.4738,-0.4513 c 0.2605,-0.2481 0.7765,-1.0465 1.1466,-1.7741 l 0.6729,-1.323 1.674,-1.52 c 0.9207,-0.8361 2.0907,-1.8901 2.6,-2.3423 0.5093,-0.4522 2.0571,-1.3513 3.4396,-1.998 1.3824,-0.6467 2.7202,-1.2893 2.9729,-1.428 l 0.4595,-0.2523 h 2.7948 2.7949 l 0.7337,0.3794 c 0.4036,0.2087 0.8934,0.5718 1.0885,0.8069 0.5023,0.6052 2.4801,1.4596 3.3789,1.4596 1.9898,0 8.2663,5.114 8.2663,6.7352 0,0.088 0.2036,0.6036 0.4523,1.1446 0.2488,0.541 0.5798,1.9957 0.7357,3.2327 l 0.2834,2.2489 -0.3887,1.8521 c -0.2138,1.0186 -0.4815,1.8905 -0.595,1.9375 -0.1135,0.047 -0.2817,0.5232 -0.3738,1.0583 -0.092,0.5351 -0.6163,1.9254 -1.1649,3.0896 l -0.9975,2.1167 -1.7433,1.8521 c -0.9588,1.0186 -2.0343,2.1604 -2.3901,2.5372 -1.0071,1.0668 -3.3408,2.5197 -5.2118,3.2448 l -1.7031,0.6599 -1.9844,0.091 c -1.0914,0.05 -2.6988,7e-4 -3.5719,-0.1103 z m 4.1374,-16.6708 1.2269,-1.0296 0.1645,-0.8223 0.1644,-0.8222 -0.3026,-0.6828 -0.3027,-0.6828 -0.8241,-0.3969 -0.8242,-0.3969 v -0.5292 -0.5291 l 0.5953,-0.2612 c 0.3274,-0.1436 0.5953,-0.4115 0.5953,-0.5953 v -0.3341 h 0.4988 0.4987 l 0.4389,-0.6699 c 0.2414,-0.3685 0.523,-0.6191 0.6258,-0.557 0.1027,0.062 0.3403,-0.053 0.5279,-0.2561 0.1877,-0.203 0.2472,-0.3828 0.1323,-0.3996 -0.6453,-0.094 -1.3196,0.1511 -1.7944,0.6527 -0.2959,0.3126 -0.7694,0.609 -1.0522,0.6587 -0.2828,0.05 -0.6644,0.2878 -0.848,0.5292 -0.1836,0.2413 -0.3533,0.3198 -0.3771,0.1742 -0.024,-0.1455 -0.1169,0.1399 -0.2069,0.6341 l -0.1636,0.8986 -0.5147,0.292 c -0.9456,0.5364 -1.3697,1.0795 -1.417,1.8147 -0.026,0.401 -0.3696,1.2165 -0.7639,1.8124 l -0.717,1.0835 0.393,0.7002 0.393,0.7002 0.7842,0.1463 c 1.1541,0.2155 1.7067,0.012 3.0694,-1.1318 z m 3.9324,-9.0668 c 0,-0.073 -0.059,-0.1323 -0.1323,-0.1323 -0.073,0 -0.1323,0.06 -0.1323,0.1323 0,0.073 0.059,0.1323 0.1323,0.1323 0.073,0 0.1323,-0.059 0.1323,-0.1323 z m 43.65626,67.2041 c 0,-0.073 -0.0595,-0.1322 -0.13229,-0.1322 -0.0728,0 -0.13229,0.059 -0.13229,0.1322 0,0.073 0.0595,0.1323 0.13229,0.1323 0.0728,0 0.13229,-0.06 0.13229,-0.1323 z m 1.05833,-30.427 c 0,-0.073 -0.0595,-0.1323 -0.13229,-0.1323 -0.0728,0 -0.13229,0.06 -0.13229,0.1323 0,0.073 0.0595,0.1323 0.13229,0.1323 0.0728,0 0.13229,-0.059 0.13229,-0.1323 z m -2.38125,-4.2334 c 0,-0.073 -0.0595,-0.1323 -0.13229,-0.1323 -0.0728,0 -0.13229,0.06 -0.13229,0.1323 0,0.073 0.0595,0.1323 0.13229,0.1323 0.0728,0 0.13229,-0.06 0.13229,-0.1323 z m 2.11667,-0.7937 c 0,-0.073 -0.0595,-0.1323 -0.13229,-0.1323 -0.0728,0 -0.13229,0.06 -0.13229,0.1323 0,0.073 0.0595,0.1323 0.13229,0.1323 0.0728,0 0.13229,-0.059 0.13229,-0.1323 z m -0.52917,-1.3229 c 0,-0.073 -0.0595,-0.1323 -0.13229,-0.1323 -0.0728,0 -0.13229,0.059 -0.13229,0.1323 0,0.073 0.0595,0.1323 0.13229,0.1323 0.0728,0 0.13229,-0.06 0.13229,-0.1323 z m 3.70417,-0.2646 c 0,-0.073 -0.0595,-0.1323 -0.13229,-0.1323 -0.0728,0 -0.13229,0.059 -0.13229,0.1323 0,0.073 0.0595,0.1323 0.13229,0.1323 0.0728,0 0.13229,-0.06 0.13229,-0.1323 z m 0,-1.0584 c 0,-0.073 -0.0595,-0.1322 -0.13229,-0.1322 -0.0728,0 -0.13229,0.06 -0.13229,0.1322 0,0.073 0.0595,0.1323 0.13229,0.1323 0.0728,0 0.13229,-0.059 0.13229,-0.1323 z m 1.05833,-0.5291 c 0,-0.073 -0.0595,-0.1323 -0.13229,-0.1323 -0.0728,0 -0.13229,0.06 -0.13229,0.1323 0,0.073 0.0595,0.1323 0.13229,0.1323 0.0728,0 0.13229,-0.06 0.13229,-0.1323 z m -3.96875,-2.9104 c 0,-0.073 -0.0595,-0.1323 -0.13229,-0.1323 -0.0728,0 -0.13229,0.06 -0.13229,0.1323 0,0.073 0.0595,0.1323 0.13229,0.1323 0.0728,0 0.13229,-0.06 0.13229,-0.1323 z m -4.23333,-42.8625 c 0,-0.073 -0.0595,-0.1323 -0.13229,-0.1323 -0.0728,0 -0.13229,0.059 -0.13229,0.1323 0,0.073 0.0595,0.1323 0.13229,0.1323 0.0728,0 0.13229,-0.06 0.13229,-0.1323 z m -54.76876,-26.9875 c 0,-0.073 -0.059,-0.1323 -0.1323,-0.1323 -0.073,0 -0.1323,0.059 -0.1323,0.1323 0,0.073 0.06,0.1323 0.1323,0.1323 0.073,0 0.1323,-0.06 0.1323,-0.1323 z m -39.6875,78.3166 c 0,-0.073 0.06,-0.1323 0.1323,-0.1323 0.073,0 0.1323,0.06 0.1323,0.1323 0,0.073 -0.059,0.1323 -0.1323,0.1323 -0.073,0 -0.1323,-0.059 -0.1323,-0.1323 z"
       id="path219"
       sodipodi:nodetypes="csscssscccccssssssscssssssssssssssscsssssssscsssscccssscsscccccsccssccccssscccsscccccsssssssssssssssssscccsssscssscssssscccssssssssssssscssssssssssssssscccccssssscssssssccscccsssssssssssssssssssscssssssssssssssssssssssscccssscsscssscsscssscssssssscccssscccccccccsssscsssscccsssscssssssssssssssssssscssscsscssscccccccsscsscssssssccccccccccsscssscsssccsssssssscsscsscsssscccsssssscsssscssscsssscccccccccsscccssssssssscssscccsssssssssssssssssssssssssssssssssssssssssssssssssssssssssssssssssss" /></g><style
     id="style1">@media(prefers-color-scheme:dark){.lines{fill:#d7d7d7}}</style></svg>
