<?xml version="1.0" encoding="UTF-8" standalone="no"?>
<!-- Created with Inkscape (http://www.inkscape.org/) -->

<svg
   width="57.175831mm"
   height="94.097008mm"
   viewBox="0 0 57.175831 94.097008"
   version="1.1"
   id="svg1"
   xml:space="preserve"
   inkscape:version="1.4.4 (dcaf3e7, 2026-05-05)"
   sodipodi:docname="logos teams.svg"
   inkscape:export-batch-name="logos teams"
   inkscape:export-batch-path="Desktop"
   xmlns:inkscape="http://www.inkscape.org/namespaces/inkscape"
   xmlns:sodipodi="http://sodipodi.sourceforge.net/DTD/sodipodi-0.dtd"
   xmlns="http://www.w3.org/2000/svg"
   xmlns:svg="http://www.w3.org/2000/svg"><sodipodi:namedview
     id="namedview1"
     pagecolor="#ffffff"
     bordercolor="#000000"
     borderopacity="0.25"
     inkscape:showpageshadow="2"
     inkscape:pageopacity="0.0"
     inkscape:pagecheckerboard="0"
     inkscape:deskcolor="#d1d1d1"
     inkscape:document-units="mm"
     inkscape:zoom="0.69712823"
     inkscape:cx="489.14961"
     inkscape:cy="355.02794"
     inkscape:window-width="1920"
     inkscape:window-height="1050"
     inkscape:window-x="0"
     inkscape:window-y="30"
     inkscape:window-maximized="0"
     inkscape:current-layer="layer1"><inkscape:page
       x="0"
       y="0"
       width="57.175831"
       height="94.097008"
       id="page1"
       margin="0"
       bleed="0" /></sodipodi:namedview><defs
     id="defs1" /><g
     inkscape:label="Ebene 1"
     inkscape:groupmode="layer"
     id="layer1"
     transform="translate(66.034923,-148.26379)"><path
       style="fill:#ffe900;fill-opacity:1"
       d="m -65.598763,242.27433 c -0.0944,-0.0944 -0.17157,-4.84179 -0.17157,-10.54983 v -10.37826 l 0.60636,-0.15219 c 0.33351,-0.0837 1.28601,-0.23207 2.11667,-0.3297 l 1.5103,-0.1775 v 8.7708 8.77081 l 0.99219,-0.1513 c 0.5457,-0.0832 2.80789,-0.42205 5.02708,-0.75298 l 4.0349,-0.60168 v 1.78716 1.78716 l -0.72761,0.14649 c -0.40018,0.0806 -3.28745,0.50721 -6.41614,0.94809 -3.1287,0.44088 -5.93876,0.85851 -6.24458,0.92805 -0.30582,0.0696 -0.63324,0.0492 -0.7276,-0.0451 z m 22.62142,-3.30337 c -1.62415,-0.28389 -3.36642,-1.38477 -4.21194,-2.66139 l -0.72168,-1.08963 -0.0855,-5.3679 -0.0855,-5.3679 0.71511,-1.59348 c 2.60563,-5.80612 11.2487,-7.69791 14.91478,-3.26454 1.26139,1.52538 1.3948,2.33551 1.29777,7.88046 l -0.088,5.02708 -0.60671,1.1364 c -2.11559,3.9626 -6.59033,6.09412 -11.1283,5.3009 z m 5.25284,-4.19836 c 3.19735,-1.61465 4.06868,-11.89646 1.13864,-13.43612 -2.44758,-1.28613 -6.24451,0.12648 -7.20783,2.68159 -0.43302,1.14856 -0.36127,8.4723 0.0937,9.56113 0.779,1.86441 3.55063,2.41795 5.97552,1.1934 z m 11.96936,-8.64665 0.0692,-10.50875 1.91246,-0.2876 1.91246,-0.2876 4.43754,6.32544 4.43754,6.32544 0.0705,-6.88972 0.0705,-6.88973 0.45866,-0.13302 c 0.25227,-0.0732 1.14327,-0.21334 1.98002,-0.31151 l 1.5213501,-0.1785 v 10.46591 c 0,5.75625 -0.0917,10.52256 -0.20368,10.5918 -0.11203,0.0692 -1.0347701,0.19964 -2.0505201,0.28979 l -1.84684,0.1639 -4.36562,-6.3308 -4.36563,-6.33081 -0.13229,7.04453 -0.13229,7.04453 -1.05834,0.18748 c -0.58208,0.10311 -1.44665,0.19434 -1.92126,0.20273 l -0.86293,0.0153 z m -40.27978,-10.61121 c 0,-0.14296 1.71324,-5.11915 3.80719,-11.0582 l 3.80719,-10.79828 0.697,-0.1864 c 0.38334,-0.10252 1.24534,-0.22571 1.91555,-0.27376 l 1.21856,-0.0874 3.67375,9.39271 c 2.02056,5.16599 3.74134,9.64808 3.82395,9.9602 l 0.15022,0.5675 -1.41077,0.17411 c -0.77592,0.0958 -1.72276,0.23341 -2.10409,0.30589 l -0.69332,0.13178 -0.74153,-2.13016 c -0.40785,-1.17158 -0.81022,-2.12829 -0.89418,-2.12602 -0.94232,0.0255 -7.57787,1.10249 -7.71241,1.25171 -0.0988,0.10965 -0.49772,1.16894 -0.88638,2.35398 l -0.70666,2.15462 -1.24443,0.17051 c -0.68443,0.0938 -1.57185,0.23498 -1.97203,0.31379 -0.40019,0.0788 -0.72761,0.0263 -0.72761,-0.11663 z m 9.78959,-9.17996 c 2.59516,-0.29503 2.49723,-0.0253 1.27617,-3.5149 -0.59556,-1.702 -1.19979,-3.3922 -1.34274,-3.75601 -0.22957,-0.58425 -0.4107,-0.2145 -1.55188,3.16806 -1.52494,4.52005 -1.53432,4.59331 -0.56437,4.40759 0.40019,-0.0766 1.38245,-0.21375 2.18282,-0.30474 z m 16.13958,-3.02136 v -8.74746 l -0.59531,0.002 c -0.53821,0.002 -2.88093,0.32217 -4.7625,0.65126 l -0.72761,0.12726 v -1.80775 -1.80774 l 3.50573,-0.46462 c 1.92815,-0.25554 5.51108,-0.74877 7.96207,-1.09606 2.45099,-0.34729 4.50481,-0.63144 4.56406,-0.63144 0.0593,0 0.10773,0.76589 0.10773,1.70197 0,1.97808 0.23485,1.82421 -3.50573,2.29687 l -2.57969,0.32596 v 8.79679 8.79678 l -0.7276,0.1363 c -0.40019,0.075 -1.29316,0.21077 -1.98438,0.30181 l -1.25677,0.16553 z m 14.87978,-3.91681 0.0692,-10.51518 1.71979,-0.32091 c 2.50787,-0.46796 2.38125,-0.68134 2.38125,4.01276 v 4.10934 h 0.53091 c 0.4954,0 4.85883,-0.59923 6.82543,-0.93735 0.61305,-0.10539 0.86072,-0.28416 0.82943,-0.59864 -0.0245,-0.24661 -0.0309,-2.13228 -0.0142,-4.19039 0.0344,-4.22136 -0.13182,-3.92876 2.39386,-4.21451 l 1.6053601,-0.18162 v 10.4696 c 0,5.75828 -0.0917,10.52625 -0.20368,10.59548 -0.11203,0.0692 -1.0347701,0.20787 -2.0505201,0.30808 l -1.84684,0.18219 0.0601,-4.3935 c 0.0331,-2.41643 -0.0337,-4.3935 -0.1484,-4.3935 -0.11469,0 -1.92042,0.23812 -4.01275,0.52916 -2.09233,0.29104 -3.84125,0.52917 -3.88649,0.52917 -0.0452,0 -0.0823,2.01184 -0.0823,4.47076 v 4.47075 l -1.67532,0.29174 c -0.92142,0.16046 -1.87529,0.29175 -2.1197,0.29175 h -0.44439 z m -34.45895,-20.14499 v -8.77283 l -0.59531,0.12067 c -0.63278,0.12827 -1.84232,0.29629 -4.10104,0.56968 l -1.38906,0.16813 v -1.71843 -1.71843 l 0.59531,-0.14475 c 0.32742,-0.0796 2.08359,-0.33601 3.9026,-0.56977 1.81901,-0.23376 5.18253,-0.69703 7.47448,-1.02949 l 4.16719,-0.60448 v 1.76442 1.76442 l -2.3151,0.32283 c -1.27331,0.17756 -2.64773,0.38593 -3.05427,0.46304 l -0.73917,0.1402 0.0365,8.6034 c 0.041,9.65937 0.20106,8.98636 -2.19616,9.23155 l -1.78594,0.18267 z m 16.13959,-3.96723 v -10.59237 l 0.85989,-0.1329 c 9.27683,-1.43378 11.02468,-1.38815 12.99274,0.33926 2.6478,2.32404 1.88038,7.98365 -1.39619,10.29666 l -1.01682,0.71779 2.51299,3.66957 c 1.84447,2.69337 2.42226,3.72564 2.17194,3.88035 -0.55371,0.34221 -3.99806,0.60994 -4.18411,0.32523 -4.35052,-6.65758 -4.61599,-6.90536 -6.97951,-6.5147 l -0.99218,0.164 v 3.90409 3.90409 l -1.25677,0.17235 c -0.69123,0.0948 -1.5842,0.23684 -1.98438,0.31565 l -0.7276,0.14329 z m 6.64336,-1.7277 c 4.35475,-0.70692 6.34148,-3.60077 4.04718,-5.89507 l -0.68654,-0.68654 -2.18269,0.16778 c -1.20049,0.0923 -2.55842,0.24292 -3.01763,0.33476 l -0.83493,0.16699 v 3.14192 c 0,1.72806 0.0893,3.14148 0.19843,3.14092 0.10914,-5.5e-4 1.22342,-0.16739 2.47618,-0.37076 z m 15.10653,7.31708 0.0782,-1.78594 2.11667,-0.26458 2.11666,-0.26458 0.0706,-6.9756 0.0706,-6.97559 -0.86435,0.15334 c -0.47539,0.0843 -1.49523,0.23314 -2.26631,0.33067 l -1.40197,0.17731 0.079,-1.82023 0.0791,-1.82023 5.82083,-0.84598 c 3.20146,-0.46528 6.0887301,-0.85291 6.4161501,-0.8614 l 0.59531,-0.0154 v 1.7198 c 0,0.94588 -0.0298,1.72873 -0.0661,1.73966 -0.0364,0.0109 -1.01865,0.16072 -2.1828201,0.33286 l -2.11666,0.31297 -0.0706,6.9739 -0.0706,6.9739 1.26122,-0.17981 c 0.69368,-0.0989 1.71352,-0.24792 2.2663201,-0.33117 l 1.0051,-0.15136 -0.0791,1.81698 -0.079,1.81699 -5.8208301,0.84802 c -3.20146,0.46641 -6.09417,0.85553 -6.42824,0.86472 l -0.6074,0.0167 z m -41.62411,-20.88647 c -0.0168,-1.42741 -0.009,-2.80238 0.0162,-3.05547 0.0405,-0.39967 -0.11674,-0.43779 -1.19583,-0.28988 -1.00002,0.13707 -1.21829,0.0978 -1.1187,-0.20129 0.0794,-0.23846 0.87415,-0.48293 2.21848,-0.68243 2.81142,-0.41721 3.02078,-0.414 3.02078,0.0463 0,0.26211 -0.26218,0.39687 -0.77211,0.39687 -1.5756,0 -1.60914,0.0665 -1.60914,3.1877 0,1.62559 -0.11453,2.93728 -0.26458,3.03001 -0.16878,0.10432 -0.27562,-0.77617 -0.29505,-2.43178 z m 3.99767,1.29311 c -0.67668,-0.54794 -0.87253,-3.94018 -0.2903,-5.0281 0.69666,-1.30172 3.04301,-1.79769 3.99601,-0.84469 0.62217,0.62217 0.70261,1.5875 0.13229,1.5875 -0.2221,0 -0.39687,-0.23591 -0.39687,-0.53571 0,-1.7738 -2.97989,-0.90567 -3.33189,0.97068 -0.53769,2.86614 1.11569,4.63619 2.86887,3.07131 0.67705,-0.60433 0.63006,-1.91292 -0.0622,-1.73189 -0.66743,0.17454 -1.49894,-0.12775 -1.17268,-0.42631 0.13348,-0.12215 0.7487,-0.29824 1.36716,-0.39133 l 1.12448,-0.16925 v 1.21411 c 0,2.2787 -2.54571,3.65149 -4.23488,2.28368 z m 7.67446,-3.86735 v -3.28623 l 1.72147,-0.18436 c 2.2901,-0.24525 3.5833,1.3049 2.10922,2.52828 -0.35563,0.29515 -0.34019,0.37793 0.13229,0.70886 1.7907,1.25426 -0.26594,3.48761 -3.23537,3.51337 l -0.72761,0.006 z m 3.11613,2.0806 c 1.39515,-0.97719 0.41891,-2.29519 -1.47234,-1.98777 l -0.93197,0.15148 -0.10477,1.12409 -0.10476,1.12408 h 1.0129 c 0.5571,0 1.27752,-0.18534 1.60094,-0.41188 z m -0.13956,-3.07184 c 1.39178,-0.7186 0.34841,-2.08385 -1.38907,-1.81757 l -0.92604,0.14192 -0.009,1.1258 -0.009,1.12581 0.93537,-0.16844 c 0.51445,-0.0927 1.14372,-0.27603 1.39839,-0.40752 z m 2.44112,3.52155 c -0.29756,-0.29756 -0.0747,-0.53622 0.64911,-0.6952 l 0.77513,-0.17024 -0.011,-2.28754 c -0.0133,-2.76205 -0.0659,-2.92564 -0.89108,-2.7679 -0.60371,0.1154 -0.90852,-0.27483 -0.44057,-0.56404 0.52383,-0.32375 3.49654,-0.48958 3.49654,-0.19505 0,0.16795 -0.33783,0.37294 -0.75072,0.45551 l -0.75072,0.15015 -0.0294,2.63939 -0.0294,2.63939 0.7801,-0.17134 c 0.57676,-0.12668 0.7801,-0.0738 0.7801,0.20282 0,0.36334 -3.27874,1.06346 -3.57815,0.76405 z m 4.63648,-3.83687 c 0,-3.75708 -0.0986,-3.60929 2.40856,-3.60929 h 1.57153 l 0.314,0.68915 c 0.25681,0.56363 0.2355,0.82594 -0.11703,1.44018 -0.37077,0.64602 -0.37847,0.79466 -0.0551,1.06304 0.38918,0.32299 0.49867,1.47162 0.21159,2.21973 -0.23497,0.61234 -1.33948,1.10294 -2.9445,1.30791 l -1.38906,0.17738 z m 3.50573,1.63245 c 0.55432,-0.64393 0.56495,-0.76786 0.11827,-1.37874 -0.28452,-0.38911 -0.56186,-0.43892 -1.5875,-0.28511 l -1.24275,0.18636 v 1.18384 1.18384 l 1.12448,-0.17616 c 0.62689,-0.0982 1.32937,-0.41416 1.5875,-0.71403 z m -0.33073,-2.86049 c 1.08194,-1.08194 0.4071,-1.96574 -1.29335,-1.69383 l -1.0879,0.17396 v 1.02452 1.02451 h 0.92604 c 0.57327,0 1.12763,-0.20158 1.45521,-0.52916 z m 2.38125,0.45576 v -3.30729 l 0.8599,-0.14838 c 2.79947,-0.48307 3.44127,-0.51091 3.32064,-0.14405 -0.0726,0.22082 -0.76771,0.45913 -1.75354,0.60119 l -1.63325,0.23536 v 1.05784 1.05784 l 1.47896,-0.17382 c 1.13608,-0.13352 1.45303,-0.096 1.36713,0.16201 -0.0615,0.18471 -0.28054,0.35767 -0.48677,0.38436 -0.20622,0.0267 -0.82143,0.12138 -1.36713,0.21042 l -0.99219,0.1619 v 1.19485 1.19485 l 1.25677,-0.17075 c 0.69122,-0.0939 1.46513,-0.22829 1.71979,-0.29862 0.28729,-0.0793 0.46302,0.0181 0.46302,0.25678 0,0.25785 -0.41432,0.44258 -1.25677,0.56035 -0.69122,0.0966 -1.64372,0.24246 -2.11666,0.32407 l -0.8599,0.14839 z m 5.29167,-0.81802 v -3.27267 l 0.99218,-0.164 c 2.50593,-0.4142 3.50573,0.0384 3.50573,1.58706 0,0.78317 -0.81607,1.94729 -1.36509,1.94729 -0.15738,0 0.14491,0.52605 0.67176,1.169 1.57951,1.92758 0.91377,2.17794 -0.76188,0.28651 -1.449,-1.63561 -2.24895,-1.48357 -2.24895,0.42743 0,0.9721 -0.0983,1.29205 -0.39688,1.29205 -0.33139,0 -0.39687,-0.54001 -0.39687,-3.27267 z m 3.31766,-0.70469 c 0.88268,-0.73255 0.23294,-2.39355 -0.87027,-2.22479 -0.1819,0.0278 -0.62838,0.0655 -0.99219,0.0837 l -0.66145,0.0331 v 1.35776 1.35775 l 1.06871,-0.14334 c 0.58779,-0.0788 1.24263,-0.28769 1.4552,-0.46411 z m 2.12006,2.61108 c 2.08908,-6.58211 2.60154,-7.19401 3.6841,-4.39896 1.85595,4.7919 1.75272,4.44233 1.31186,4.44233 -0.22359,0 -0.58064,-0.41672 -0.79344,-0.92604 -0.40386,-0.96658 -0.68419,-1.06361 -2.19808,-0.76083 -0.67619,0.13524 -0.88181,0.35126 -1.13329,1.19062 -0.16897,0.56398 -0.47499,1.02541 -0.68004,1.02541 -0.26184,0 -0.31873,-0.17044 -0.19111,-0.57253 z m 3.33315,-2.99934 c -0.051,-0.29104 -0.24468,-0.88635 -0.43048,-1.32292 l -0.3378,-0.79375 -0.29502,0.73928 c -0.16226,0.4066 -0.37058,1.04034 -0.46294,1.40832 l -0.16792,0.66906 0.89341,-0.0854 c 0.72722,-0.0695 0.87618,-0.18385 0.80075,-0.61458 z m 3.47219,2.43644 c -2.12798,-0.94953 -0.99296,-6.2415 1.43641,-6.69725 1.49108,-0.27973 3.35877,1.61039 2.07722,2.10216 -0.27598,0.10591 -0.41086,0.004 -0.41086,-0.31028 0,-1.11131 -1.57828,-1.49143 -2.63607,-0.63489 -0.6981,0.56529 -1.06323,3.31477 -0.56407,4.24748 0.62541,1.16857 2.76971,0.93218 3.08914,-0.34055 0.17938,-0.71471 0.90475,-0.93769 0.90475,-0.27812 0,1.32061 -2.48677,2.5405 -3.89652,1.91145 z m 4.95485,-3.75936 c 0,-2.76342 0.0653,-3.30729 0.39688,-3.30729 0.29986,0 0.39687,0.32338 0.39687,1.32292 v 1.32292 l 0.59532,-0.003 c 0.32742,-0.002 1.04179,-0.0767 1.5875,-0.16691 l 0.9921801,-0.164 v -1.42059 c 0,-1.08636 0.0934,-1.42059 0.39688,-1.42059 0.33161,0 0.39687,0.54386 0.39687,3.30729 0,2.76342 -0.0653,3.30729 -0.39687,3.30729 -0.30882,0 -0.39688,-0.35334 -0.39688,-1.59254 v -1.59254 l -0.5953101,0.12209 c -0.32742,0.0671 -1.0418,0.19387 -1.5875,0.28161 l -0.99219,0.15953 v 1.57551 c 0,1.22406 -0.0885,1.57551 -0.39687,1.57551 -0.33161,0 -0.39688,-0.54387 -0.39688,-3.30729 z"
       id="path177" /></g><style
     id="style1">@media(prefers-color-scheme:dark){.lines{fill:#d7d7d7}}</style></svg>
