<?xml version="1.0" encoding="UTF-8"?>
<svg xmlns="http://www.w3.org/2000/svg" id="Ebene_1" data-name="Ebene 1" viewBox="0 0 760.26 331">
  <defs>
    <style>
      .cls-1 {
        fill: #fff;
      }
    </style>
  </defs>
  <path class="cls-1" d="M712.57,220.88h-245.41l-13.4,50.05h179.64c39.84,0,67.67-17.71,79.17-50.05M753.77,14.7c-7.7-9.62-23-14.7-44.25-14.7h-183.23l-57.3,214.02,191.03-.1c-4.76-12.77-15.33-22.83-26.6-29.92-1.85-5.92-5.32-10.21-7.05-16.25-7.94-6.53-20.57-8.37-26.6-16.79-2.41,11.21-11.06,17.59-14.66,25.99-12.28,2.43-20.32-3.93-29.32-5.96-6.37-1.43-15.86-4.6-23.55-4.97-3.31-.16-7.05,3.42-13.09,3.02-.9-.06-4.45,4.41-5.23,4.83-3.02,1.61-5.03-.81-5.03-.81,2.82-9.86,18.12-22.75,19.93-22.95,1.81-.2,5.64,8.46,7.45,9.06,1.81.61,32.23-1.36,39.61,5.86,2.39-7.26,4.27-14.37,4.88-22.2.25-3.2-1.01-6.97-.54-10.29.86-6.07,7.63-9.9,9.23-14.08,2.97-7.78-3.08-13.71-2.17-22.2-1.35,1.29-3.59,3.24-1.63,4.32-2.9-.35-7.23.71-9.23-.54.12-2.79,5.95-2.71,3.8-5.95-1.5,3.38-4.44,5.32-8.15,6.5.33-2.63.33-2.78,0-5.41,1.09-1.81,5.5-.29,5.43-3.25-2.15.73-6.08,2.34-6.52-1.09.46-1.52,2.93-1.04,4.89-1.08-.56-2.52-1.2-4.94-2.72-6.5-.66,1.96,1.09,4.27,0,4.87-4.18.02-3.86-4.46-5.43-7.04.52-2.18,5.51.08,4.34-3.79-.32,0-5.98,3.01-5.43-1.63.59-1.68,2.65-.23,3.8-2.16-2.25-.15-2.11.71-3.8,0,1.71-2.61,3.52-3.94,1.63-7.58,4.77.96,5.67-1.92,8.14-3.25-.97-.84-2.72-.9-2.17-3.25,3.34-2.54,3.58,3.74,5.43,0,1.92-1.27-2.55-.66-2.71-1.63,3.73-4.58,11.84-4.8,18.46-6.5.4-9.17,6.03-13.11,5.97-22.74h2.17c-.23-4.02.39-7.19,2.17-9.2,1.56-.06,3.55.29,4.34-.54.78-1.75.51-4.54.54-7.04h1.63c.47,5.3,3.87,7.69,5.42,11.91,2.13.05,4.76-.42,4.35,2.17-4.01,1.59-7.53,3.69-11.94,4.87-2.85,6.73-4.35,14.8-4.89,23.82,4.35,2.27,3.4,5.01,6.52,8.66,1.07-.37-.13-3.02,1.09-3.25,5.6-3.67,8.28-12.6,12.49-18.41,3.33-4.6,7.97-6.58,6.52-15.7,6.97.27,3.01-10.35,7.06-13,1.16,2.13.44,6.4,0,8.66,2.59.67,3.81,2.7,7.06,2.71-2.68,3.59-6.04,9.87-10.32,13.54-3.85,17.09-12.94,28.96-23.89,38.99-2.88,6.69,5.02,9.78,5.43,16.25.22,3.44-2.54,6.7-3.26,10.29-1.66,8.27-.89,18.35-5.43,24.37,1.28,1.42,1.79,3.63,2.17,5.95,10.87,6.91,20.25,14.99,27.69,25.45,2.46,3.46,2.49,7.2,4.35,11.37,1.27,2.85,4.78,5.69,7.06,9.21,4.09,6.31,6.18,11.51,11.94,15.7,4.43-.87,5.3,3.66,8.69,4.33,4.9.98,9.54-4.5,13.57,0l-17.52,14.21,48.34-.02,7.88-29.84c5.4-20.36.22-34.43-16.31-44.29l-11.69-6.97,12.46-5.59c24.2-10.85,37.75-24.78,42.64-43.82l7.9-29.92c4.52-16.88,3.22-29.92-3.86-38.76"/>
  <path class="cls-1" d="M685.16,327.8h-1.55v2.99h1.55v-2.99ZM660.24,305.8l10.59,24.99h1.65l10.56-24.99h-1.9l-9.5,22.74-9.5-22.74h-1.9ZM653.49,327.8h-1.55v2.99h1.55v-2.99ZM632.76,329.17v-10.38h12.71v-1.55h-12.71v-9.82h14.54v-1.62h-16.33v24.99h16.65v-1.62h-14.85ZM600.48,328.38c-1.1-.62-1.99-1.44-2.66-2.46-.67-1.02-1.14-2.19-1.41-3.5-.27-1.31-.4-2.66-.4-4.05v-12.57h-1.79v12.57c0,1.6.17,3.14.51,4.64.34,1.5.91,2.85,1.72,4.03.81,1.19,1.88,2.14,3.22,2.85,1.34.72,3,1.07,5,1.07s3.54-.34,4.86-1.02c1.31-.68,2.38-1.6,3.2-2.76.82-1.16,1.41-2.5,1.78-4.03.36-1.52.55-3.12.55-4.79v-12.57h-1.79v12.57c0,1.34-.14,2.66-.4,3.98-.27,1.31-.73,2.49-1.37,3.52-.64,1.03-1.53,1.87-2.64,2.5-1.12.63-2.52.95-4.21.95s-3.05-.31-4.15-.93M574.65,321.07l5.56-13.09,5.46,13.09h-11.02ZM568.81,330.79h1.94l3.48-8.24h11.93l3.48,8.24h1.9l-10.56-24.99h-1.55l-10.63,24.99ZM564.41,330.79h1.55v-12.14h-7.21v1.44h5.67v4.82c-1.27,1.53-2.59,2.64-3.96,3.34-1.37.7-2.82,1.06-4.35,1.06-1.41,0-2.72-.3-3.94-.9-1.22-.6-2.28-1.4-3.19-2.41-.9-1.01-1.61-2.18-2.13-3.5-.52-1.33-.77-2.73-.77-4.21,0-1.38.22-2.73.67-4.05.44-1.31,1.09-2.49,1.94-3.52.84-1.03,1.87-1.87,3.06-2.5,1.2-.63,2.53-.95,4.01-.95,1.76,0,3.34.37,4.73,1.11,1.39.74,2.52,1.93,3.36,3.57l1.48-.88c-.4-.8-.88-1.53-1.46-2.2s-1.26-1.24-2.04-1.72c-.79-.48-1.68-.86-2.67-1.13-1-.27-2.12-.4-3.36-.4-1.67,0-3.2.35-4.61,1.04s-2.62,1.63-3.64,2.8c-1.02,1.17-1.82,2.52-2.39,4.05-.58,1.53-.86,3.11-.86,4.75s.29,3.12.88,4.65c.59,1.53,1.39,2.89,2.43,4.08,1.03,1.2,2.27,2.16,3.71,2.89,1.44.73,3.01,1.09,4.7,1.09,3.19,0,6-1.36,8.41-4.08v3.91ZM539.8,308.54c-1.03-.99-2.18-1.72-3.45-2.2-1.27-.48-2.71-.72-4.33-.72-1.31,0-2.51.15-3.59.46-1.08.31-2.01.76-2.78,1.36-.77.6-1.38,1.33-1.81,2.2-.43.87-.65,1.87-.65,2.99,0,1.03.17,1.89.53,2.57.35.68.87,1.26,1.57,1.74.69.48,1.55.88,2.57,1.2,1.02.32,2.2.62,3.54.9,1.31.28,2.46.58,3.45.88s1.8.67,2.45,1.09c.64.42,1.13.92,1.46,1.5.33.58.49,1.27.49,2.09,0,1.62-.62,2.83-1.85,3.63-1.23.8-2.94,1.2-5.12,1.2-1.9,0-3.61-.32-5.14-.97-1.53-.64-2.82-1.52-3.87-2.62l-.95,1.44c2.7,2.49,5.99,3.73,9.89,3.73,1.34,0,2.55-.14,3.64-.42,1.09-.28,2.03-.7,2.82-1.25.79-.55,1.4-1.24,1.83-2.06.43-.82.65-1.78.65-2.89s-.21-2.03-.62-2.78c-.41-.75-1-1.38-1.76-1.9-.76-.52-1.69-.94-2.78-1.28-1.09-.34-2.31-.65-3.64-.93-1.29-.28-2.39-.55-3.31-.81-.91-.26-1.67-.57-2.27-.95-.6-.38-1.04-.83-1.32-1.36-.28-.53-.42-1.19-.42-1.99,0-1.57.56-2.82,1.67-3.75,1.11-.93,2.89-1.39,5.33-1.39,2.96,0,5.24.9,6.86,2.71l.92-1.41ZM517.46,305.8h-1.8v24.99h1.8v-24.99ZM495.56,329.17v-10.38h12.71v-1.55h-12.71v-9.82h14.54v-1.62h-16.33v24.99h16.65v-1.62h-14.85ZM472.37,307.42h8.52c.77,0,1.5.17,2.16.51.67.34,1.25.79,1.76,1.36.5.56.9,1.21,1.2,1.95.29.74.44,1.51.44,2.31s-.12,1.53-.37,2.27c-.25.74-.61,1.4-1.07,1.97-.47.58-1.03,1.04-1.69,1.39-.66.35-1.38.53-2.18.53h-8.76v-12.28ZM472.37,330.79v-9.43h8.1l6.05,9.43h2.08l-6.23-9.71c.87-.14,1.66-.43,2.39-.88.73-.44,1.35-1.01,1.87-1.69.52-.68.91-1.45,1.2-2.31.28-.86.42-1.74.42-2.66s-.18-1.87-.55-2.8c-.37-.93-.87-1.76-1.51-2.5-.64-.74-1.41-1.33-2.31-1.78-.89-.45-1.87-.67-2.92-.67h-10.38v24.99h1.8ZM458.08,307.42c.66,0,1.26.13,1.8.4.54.27,1,.63,1.39,1.09.39.46.69.99.91,1.58.22.6.33,1.24.33,1.92,0,.63-.12,1.26-.35,1.87-.24.61-.56,1.14-.97,1.6s-.9.83-1.46,1.11c-.56.28-1.18.42-1.87.42h-9.15v-10h9.36ZM463.15,325.97c-.26.61-.6,1.15-1.04,1.64-.43.48-.95.86-1.55,1.14-.6.28-1.25.42-1.95.42h-9.89v-10.24h10.14c.66,0,1.27.14,1.85.42.58.28,1.07.66,1.5,1.14.42.48.75,1.03.99,1.65.23.62.35,1.26.35,1.92s-.13,1.29-.39,1.9M464.08,320.35c-.83-1.16-1.97-1.95-3.4-2.38,1.13-.49,2.01-1.27,2.64-2.32.63-1.06.95-2.22.95-3.48,0-.77-.13-1.54-.4-2.31-.27-.76-.65-1.44-1.14-2.04-.49-.6-1.09-1.09-1.8-1.46-.7-.38-1.49-.56-2.36-.56h-11.65v24.99h11.68c.91,0,1.78-.16,2.61-.49.82-.33,1.54-.79,2.15-1.37.61-.59,1.09-1.27,1.44-2.06.35-.79.53-1.64.53-2.55,0-1.48-.42-2.8-1.25-3.96M416.13,307.42h8.52c.77,0,1.5.17,2.16.51.67.34,1.26.79,1.76,1.36.5.56.9,1.21,1.2,1.95.29.74.44,1.51.44,2.31s-.12,1.53-.37,2.27c-.25.74-.61,1.4-1.07,1.97-.47.58-1.03,1.04-1.69,1.39-.66.35-1.38.53-2.18.53h-8.76v-12.28ZM416.13,330.79v-9.43h8.1l6.05,9.43h2.08l-6.23-9.71c.87-.14,1.67-.43,2.39-.88.73-.44,1.35-1.01,1.87-1.69.52-.68.91-1.45,1.2-2.31.28-.86.42-1.74.42-2.66s-.18-1.87-.55-2.8c-.37-.93-.87-1.76-1.51-2.5-.64-.74-1.41-1.33-2.31-1.78-.89-.45-1.87-.67-2.92-.67h-10.38v24.99h1.8ZM394.23,329.17v-10.38h12.71v-1.55h-12.71v-9.82h14.54v-1.62h-16.33v24.99h16.65v-1.62h-14.85ZM383.78,305.8v11.4h-15.77v-11.4h-1.8v24.99h1.8v-11.97h15.77v11.97h1.79v-24.99h-1.79ZM340.72,322.81c.58,1.54,1.38,2.91,2.41,4.12,1.03,1.21,2.26,2.19,3.68,2.94,1.42.75,2.99,1.13,4.7,1.13.96,0,1.94-.12,2.94-.37,1-.25,1.94-.62,2.83-1.11s1.7-1.1,2.43-1.83c.73-.73,1.3-1.56,1.72-2.5l-1.55-.74c-.42.85-.95,1.58-1.58,2.2-.63.62-1.31,1.13-2.04,1.53-.73.4-1.49.69-2.29.88-.8.19-1.57.28-2.32.28-1.41,0-2.72-.3-3.94-.91-1.22-.61-2.28-1.42-3.17-2.45-.89-1.02-1.6-2.2-2.11-3.54-.52-1.34-.77-2.75-.77-4.22,0-1.31.22-2.62.65-3.92.43-1.3,1.07-2.47,1.92-3.5.84-1.03,1.88-1.87,3.1-2.52,1.22-.64,2.63-.97,4.22-.97.73,0,1.47.08,2.22.25.75.16,1.47.43,2.16.79.69.37,1.34.84,1.94,1.43.6.59,1.12,1.31,1.57,2.18l1.48-.85c-.77-1.6-1.95-2.9-3.52-3.92-1.57-1.02-3.47-1.53-5.7-1.53-1.88,0-3.55.37-5.02,1.11-1.47.74-2.7,1.7-3.71,2.87-1.01,1.17-1.78,2.5-2.31,3.99-.53,1.49-.79,2.99-.79,4.49,0,1.6.29,3.16.86,4.7M334.68,305.8h-1.8v24.99h1.8v-24.99ZM328.81,330.79v-1.62h-14.92v-23.37h-1.79v24.99h16.72ZM304.36,322.57c-.43,1.33-1.07,2.48-1.92,3.47-.85.99-1.89,1.75-3.15,2.31s-2.7.83-4.35.83h-6.51v-21.75h6.51c1.62,0,3.05.27,4.29.81,1.24.54,2.29,1.29,3.15,2.25.86.96,1.51,2.11,1.95,3.43.44,1.33.67,2.78.67,4.35s-.22,2.99-.65,4.31M294.95,330.79c1.81,0,3.44-.3,4.91-.9,1.47-.6,2.71-1.44,3.75-2.53,1.03-1.09,1.83-2.4,2.38-3.94.55-1.54.83-3.26.83-5.16,0-1.71-.25-3.33-.74-4.84-.49-1.51-1.23-2.83-2.22-3.96-.99-1.13-2.22-2.02-3.71-2.67s-3.22-.99-5.19-.99h-8.31v24.99h8.31ZM265.24,307.42h8.52c.77,0,1.5.17,2.16.51.67.34,1.26.79,1.76,1.36.5.56.9,1.21,1.2,1.95.29.74.44,1.51.44,2.31s-.12,1.53-.37,2.27c-.25.74-.61,1.4-1.07,1.97-.47.58-1.03,1.04-1.69,1.39-.66.35-1.38.53-2.18.53h-8.76v-12.28ZM265.24,330.79v-9.43h8.1l6.05,9.43h2.08l-6.23-9.71c.87-.14,1.67-.43,2.39-.88.73-.44,1.35-1.01,1.87-1.69.52-.68.91-1.45,1.2-2.31.28-.86.42-1.74.42-2.66s-.18-1.87-.55-2.8c-.37-.93-.87-1.76-1.51-2.5-.64-.74-1.41-1.33-2.31-1.78-.89-.45-1.87-.67-2.92-.67h-10.38v24.99h1.8ZM237.37,314.28c.47-1.31,1.14-2.49,2.01-3.54.87-1.04,1.91-1.88,3.13-2.52,1.22-.63,2.58-.95,4.08-.95s2.75.31,3.94.91c1.2.61,2.24,1.42,3.12,2.45s1.57,2.19,2.06,3.52c.49,1.33.74,2.7.74,4.14s-.23,2.7-.7,4.01c-.47,1.31-1.13,2.49-1.99,3.54-.86,1.04-1.89,1.88-3.1,2.52-1.21.63-2.56.95-4.07.95s-2.79-.31-4.01-.92c-1.22-.61-2.27-1.42-3.15-2.45-.88-1.02-1.56-2.19-2.04-3.52-.48-1.33-.72-2.7-.72-4.14s.23-2.7.7-4.01M251.2,329.92c1.43-.69,2.67-1.62,3.71-2.78,1.04-1.16,1.87-2.5,2.46-4.03.6-1.53.9-3.13.9-4.82,0-1.55-.28-3.08-.84-4.59-.56-1.51-1.36-2.87-2.38-4.07-1.02-1.2-2.25-2.16-3.7-2.9-1.44-.74-3.03-1.11-4.77-1.11s-3.21.35-4.65,1.04c-1.43.69-2.67,1.63-3.71,2.8-1.04,1.17-1.87,2.52-2.46,4.05-.6,1.53-.9,3.12-.9,4.79s.28,3.16.85,4.68c.56,1.53,1.36,2.87,2.39,4.05,1.03,1.17,2.26,2.12,3.69,2.85,1.43.73,3.02,1.09,4.75,1.09s3.21-.35,4.65-1.04M249.76,298.55h-1.55v3.1h1.55v-3.1ZM244.97,298.55h-1.55v3.1h1.55v-3.1ZM228.07,330.79h1.65v-24.99h-1.8v22l-17.53-22h-1.37v24.99h1.8v-21.61l17.25,21.61ZM191.12,330.79h1.65v-24.99h-1.79v22l-17.53-22h-1.37v24.99h1.8v-21.61l17.25,21.61ZM146,314.28c.47-1.31,1.14-2.49,2.01-3.54s1.91-1.88,3.13-2.52c1.22-.63,2.58-.95,4.08-.95s2.74.31,3.94.91c1.2.61,2.23,1.42,3.12,2.45.88,1.02,1.57,2.19,2.06,3.52.49,1.33.74,2.7.74,4.14s-.24,2.7-.7,4.01c-.47,1.31-1.13,2.49-1.99,3.54-.86,1.04-1.89,1.88-3.1,2.52-1.21.63-2.56.95-4.07.95s-2.79-.31-4.01-.92c-1.22-.61-2.27-1.42-3.15-2.45-.88-1.02-1.56-2.19-2.04-3.52-.48-1.33-.72-2.7-.72-4.14s.23-2.7.7-4.01M159.83,329.92c1.43-.69,2.67-1.62,3.71-2.78,1.04-1.16,1.87-2.5,2.46-4.03s.9-3.13.9-4.82c0-1.55-.28-3.08-.85-4.59-.56-1.51-1.36-2.87-2.38-4.07-1.02-1.2-2.25-2.16-3.7-2.9-1.44-.74-3.03-1.11-4.77-1.11s-3.22.35-4.65,1.04c-1.43.69-2.67,1.63-3.71,2.8-1.04,1.17-1.87,2.52-2.46,4.05-.6,1.53-.9,3.12-.9,4.79s.28,3.16.84,4.68c.56,1.53,1.36,2.87,2.39,4.05,1.03,1.17,2.26,2.12,3.7,2.85,1.43.73,3.01,1.09,4.75,1.09s3.21-.35,4.65-1.04M142.72,330.79v-1.62h-14.92v-23.37h-1.8v24.99h16.72ZM117.35,305.8v11.4h-15.77v-11.4h-1.8v24.99h1.8v-11.97h15.77v11.97h1.8v-24.99h-1.8ZM95.56,305.8h-20.1v1.62h9.15v23.37h1.8v-23.37h9.15v-1.62ZM59.52,321.07l5.56-13.09,5.45,13.09h-11.02ZM53.68,330.79h1.94l3.48-8.24h11.93l3.48,8.24h1.9l-10.56-24.99h-1.55l-10.63,24.99ZM49.56,305.8h-1.8v24.99h1.8v-24.99ZM26.37,307.42h8.52c.77,0,1.5.17,2.16.51.67.34,1.25.79,1.76,1.36.5.56.9,1.21,1.2,1.95.29.74.44,1.51.44,2.31s-.12,1.53-.37,2.27c-.25.74-.61,1.4-1.07,1.97-.47.58-1.03,1.04-1.69,1.39-.66.35-1.38.53-2.18.53h-8.76v-12.28ZM26.37,330.79v-9.43h8.1l6.05,9.43h2.08l-6.23-9.71c.87-.14,1.66-.43,2.39-.88.73-.44,1.35-1.01,1.87-1.69.52-.68.91-1.45,1.2-2.31.28-.86.42-1.74.42-2.66s-.18-1.87-.55-2.8c-.36-.93-.87-1.76-1.51-2.5-.65-.74-1.41-1.33-2.31-1.78-.89-.45-1.87-.67-2.92-.67h-10.38v24.99h1.8ZM20.35,305.8H.25v1.62h9.15v23.37h1.8v-23.37h9.15v-1.62Z"/>
  <path class="cls-1" d="M457.87,219.49h-138.02l13.93,50.29h110.89l13.19-50.29ZM352.06,108.19c2.83,2.57,11.26,10.58,11.66,14.13.26,2.26-.49,3.74-1.35,5.72h15.59c.09,0,1.54-.27,1.7-.32,1.04-.33,1.34-3.53.9-3.84-.3-.21-2.87-.11-3.5-.11-1.38,0-2.82.18-4.24,0-2.52-.33-3.64-2.76-4.59-4.84-2.88-6.31-3.82-11.77-4.3-18.58-.12-1.7-.22-5.53-2.34-5.74-4-.39-9,.33-12.92,1.24-2.69.63-6.18,1.43-8.07,3.48,4.08,2.39,7.95,5.68,11.45,8.86M358.16,134.59c-.38.22-3.52,7.32-3.62,7.94-.08.52.04,2.78-.24,3.02-.13.11,2.02,4.94,2.91,4.38,1.33-1.58,2.98-3.15,4.26-4.72,1.84-2.25,3.94-4.51,1.9-7.49-.59-.86-4.36-3.62-5.22-3.12M376.52,132.31l3.83,10.97c3.22-.72,6.41-1.93,9.77-2.19,2-.15,5.14.32,6.88-.08.78-.18,1.95-1.47,1.94-2.29-.02-1.24-3.37-2.04-4.44-2.3-1.92-.48-9.69-1.27-10.58-2.21-.34-.36-.28-.94-.51-1.18-.71-.73-5.63.2-6.9-.72M315.58,204.76l2.39,7.93h61.17c-12.42-4.69-20.5-18.32-21.91-31.15-.09-.79.31-2.54-.45-2.92-.28-.14-2.69.09-2.92.22-.34.2-.34.91-.57,1.23-.61.83-2.11.23-2.53.5-.05.03-.25.7-.48.98-1.46,1.73-4.86,1.76-6.95,2.14.2,3.26-.12,6.06-1.72,8.93-1.7,3.05-4.43,5.37-7.84,6.3-4.1,1.12-8.82-.29-12.98-.62-1.51,2.32-3.27,4.48-5.2,6.47M318.23,132l4.44,16.46c1.26-1.4,7.43-8.17,7.58-8.68.2-.67.45-4.07.17-5.01-2.98-5.03-12.02-3.69-12.19-2.77M323.23,128.27s.45-.33.23-.45l-10.43-13.68c-1.02,3.42,2.18,8.69,2.62,12.06,1.9,3.97,6.22,2.08,7.59,2.08M303.54,219.49h-103.05l-13.19,50.29h109.33l9.78-37.34-2.87-12.95ZM515.38.25h-109.77l-9.78,37.31,5.63,14.88h-12.9L369.51.25h-111.5l-55.73,212.44h73.3c-15.24-6.66-24.81-23.69-20.78-42.25,4.79-22.06,28.73-34.41,49.63-25.38,1.39.6,3.51,2.13,4.68,2.5.59.19,3.4-3.3,3.19-4.99-.46-3.78-6.82-25.65-7.29-29.5-.12-.94.44-2.18.38-2.28-.02-.03-.46-.15-.66-.34-.45-.43-.93-1.19-1.29-1.48-1.02-.83-4.87-2.06-5.23-2.56-.54-.73.26-1.7.8-1.7h3.25c-1.47-2.74-1.03-7.13-.38-10.14,2.12-9.92,14.61-20.48,23.56-24.44,6.19-2.74,17.09-5.48,23.82-5.12,5.48.29,10.41,2.89,15.37,4.93.09-1.24-1.06-2.6.14-3.56.92-.73,3.89-1.82,5.13-2.28,6.24-2.31,14.31-3.91,20.81-1.95,4.69,1.42,9.56,5.78,10.66,10.65.36,1.6,1.03,7.93-.99,8.53-1.2.35-2.23-.41-2.42-.4-.49.03-.14,1.02-.27,1.49-.28.97-1.79,1.84-2.03,2.92-.2.88.21,2.51-.25,3.11-.65.85-2.08.03-2.67.37-.25.14-.53,1.33-.74,1.61-.6.84-2.87-.14-4.1.84-1.05.83-.21,2.38-.96,2.63-1.27.42-1.9-.69-2.18-.63-.21.05-.63.7-1.13.9-2.64,1.06-4.38-2.48-6.11-3.57-2.31-1.45-1.61,1.39-1.89,2.97-.2,1.1-.73,2.35-.85,3.41-.29,2.61,1.41,6.4,2.15,9.01.43,1.52.84,5.26,1.87,6.21,1.03.94,5.16,1.22,6.73,1.57,2.1.47,5.08,1.88,6.85,2.12,1.74.23,3.86.07,5.59.25,3.49.36,7.27,1.54,10.61,2.63,1.22.4,3.41,2.01,4.52,2.88,1.42,1.12,2.44,5.59,1.25,6.83-.3.31-.79.25-1.08.44-.35.23-.61,1.14-1.22,1.32-.81.24-1.2-.38-1.71-.36-.35.02-.74.36-1.18.38-.58.03-2.33.05-2.85-.04-1.19-.21-1.71-1.55-2.74-1.63-1.79-.15-4.79.51-6.73.58-2.97.11-5.93-.14-8.87-.46.95.83.12,2.7.25,3.23.18.74,8.32,1.86,9.66,2.21,2.73.72,5.92,1.66,4.68,5.22-.3.85-.96,1.19-1.36,1.78-.15.23-.36.17,0,.45,14.5,3.01,25.99,14.94,28.61,29.49,2.83,15.72-4.47,33.54-19.26,40.65-.73.35-1.54.65-2.4.93h51.5L515.38.25Z"/>
  <path class="cls-1" d="M13.07,219.42L0,269.51h133.5l13.07-50.09H13.07ZM248.77,0H25.32L.74,93.91h45.09l-29.64,113.55-1.23,3.18h.4s-.5,1.92-.5,1.92h8.48c5.41-1.98,11.57-4.41,12.92-5.15,3.69-1.99,6.85-5.6,10.47-8.03,3.83-2.57,10.88-5.29,13.96-7.93,2.55-2.19,5.18-7.77,7.47-10.69,4.45-5.68,15.58-16.33,21.74-20.27,1.29-.82,2.64-1.67,4.22-1.92,4.16,2.05,9.3,3.21,13.48,5.07,7.57,3.37,14.46,8.56,22.21,11.35,2.7.97,16.14,3.24,15.24,6.67-.23.9-2.32.88-2.09,1.35,3.5,1.77,5.9,5.19,0,4.57,1.78,1.27,3.98,1.8,1.88,4.04-3.62,3.85-5.74.6-9.6-1.1-2.16,7.42-3.71.46-4.94-.32-.76-.48-2.05-.18-3.14-1-2.53-1.89-.93-4.81-7.37-8.17-5.38-2.82-11.68-3.69-17.46-4.67-1.43-.25-6.44-1.43-7.2-1.23-3.33.85-2.74,5.7-3.84,8.22-.28.63-2.72,4.38-3.17,4.89-1.31,1.47-5.95,4.04-6.17,4.38-.53.85-.03,5.12-.47,7.08-.58,2.59-2.5,3.57-3.2,5.83,3.22.49,3.71-2.94,5.66-4.2,3.18-2.06,11.95-3.43,15.79-2.99,6.94.79,13.87,7.72,14.35,14.23h34.25l30.97-118.66h44.85L248.77,0Z"/>
</svg>