<?xml version="1.0" encoding="UTF-8" standalone="no"?>
<!-- Created with Inkscape (http://www.inkscape.org/) -->

<svg
   width="44.262596mm"
   height="44.314579mm"
   viewBox="0 0 44.262596 44.314579"
   version="1.1"
   id="svg1"
   xml:space="preserve"
   inkscape:version="1.4.4 (dcaf3e7, 2026-05-05)"
   sodipodi:docname="logos teams.svg"
   inkscape:export-batch-name="logos teams"
   inkscape:export-batch-path="Desktop"
   xmlns:inkscape="http://www.inkscape.org/namespaces/inkscape"
   xmlns:sodipodi="http://sodipodi.sourceforge.net/DTD/sodipodi-0.dtd"
   xmlns="http://www.w3.org/2000/svg"
   xmlns:svg="http://www.w3.org/2000/svg"><sodipodi:namedview
     id="namedview1"
     pagecolor="#ffffff"
     bordercolor="#000000"
     borderopacity="0.25"
     inkscape:showpageshadow="2"
     inkscape:pageopacity="0.0"
     inkscape:pagecheckerboard="0"
     inkscape:deskcolor="#d1d1d1"
     inkscape:document-units="mm"
     inkscape:zoom="0.69712823"
     inkscape:cx="489.14961"
     inkscape:cy="355.02794"
     inkscape:window-width="1920"
     inkscape:window-height="1050"
     inkscape:window-x="0"
     inkscape:window-y="30"
     inkscape:window-maximized="0"
     inkscape:current-layer="layer1"><inkscape:page
       x="0"
       y="0"
       width="44.262596"
       height="44.314579"
       id="page1"
       margin="0"
       bleed="0" /></sodipodi:namedview><defs
     id="defs1" /><g
     inkscape:label="Ebene 1"
     inkscape:groupmode="layer"
     id="layer1"
     transform="translate(-1128.9713,1114.1606)"><path
       style="fill:#050505;stroke:none;stroke-width:0.720123"
       d="m 1150.2357,-1114.1249 c -1.6752,0.2199 -3.315,0.2954 -4.9617,0.7531 -5.3294,1.4814 -9.9672,4.8666 -12.9336,9.5503 -4.9842,7.8695 -4.3577,18.2449 1.3455,25.5618 1.5302,1.9632 3.4296,3.6304 5.5188,4.9754 2.0358,1.3105 4.3348,2.2685 6.6895,2.8268 2.6369,0.6251 5.378,0.7784 8.0628,0.4254 10.6566,-1.4013 19.0069,-10.6266 19.2704,-21.3851 0.2462,-10.0482 -6.5131,-19.151 -16.1693,-21.9035 -1.617,-0.4609 -3.2863,-0.7071 -4.9617,-0.7805 -0.6115,-0.027 -1.2488,-0.1041 -1.8607,-0.024 m 0.2658,0.7912 c 0.4877,-0.058 0.9765,0.019 1.462,0.031 1.8452,0.045 3.6866,0.3823 5.4491,0.9299 8.9202,2.7715 15.247,11.4058 15.0174,20.7784 -0.2586,10.5601 -8.4403,19.6826 -19.0046,20.8143 -2.6696,0.286 -5.3765,0.083 -7.9742,-0.6196 -2.2056,-0.5966 -4.2902,-1.5694 -6.2022,-2.8151 -7.5334,-4.9079 -11.0129,-14.4171 -8.8546,-23.0501 0.5879,-2.3519 1.597,-4.6407 2.9638,-6.6452 2.8707,-4.2102 7.1354,-7.2985 12.0487,-8.6643 1.6924,-0.4704 3.3695,-0.5557 5.0946,-0.7593 m -1.6391,11.2842 c 0.2961,-0.141 0.4992,-0.4689 0.7163,-0.7088 0.465,-0.5139 0.9756,-1.1323 1.5874,-1.476 0.3747,-0.2105 0.7405,-0.027 1.0632,0.2005 0.6938,0.4885 1.3384,1.1857 1.86,1.8514 0.2146,0.2739 0.5283,0.6875 0.4244,1.0626 -0.1233,0.4455 -1.2344,0.6202 -1.6199,0.7919 -1.1319,0.5041 -2.1979,1.2878 -2.7085,2.4427 -0.1669,0.3776 -0.5884,1.4473 -0.3027,1.8357 0.1694,0.2304 0.9215,0.3392 1.1949,0.3794 10e-4,-2.4205 2.341,-4.2527 4.6516,-4.2529 -0.3259,0.3556 -0.8454,0.5546 -1.2404,0.8293 -0.8981,0.6247 -1.6804,1.3372 -2.1198,2.3604 -0.1127,0.2622 -0.4989,1.0717 -0.3138,1.3422 0.1402,0.205 0.7001,0.2655 0.9273,0.3412 0.8725,0.2908 1.7622,0.6345 2.6581,0.8417 -0.3825,-1.6064 1.0569,-3.0557 2.6138,-3.0567 v 0.044 c -0.774,0.3661 -1.5831,1.0905 -1.7874,1.9492 -0.074,0.3131 -0.2015,0.9817 0.015,1.262 0.2747,0.3559 1.1997,0.1482 1.5067,-0.042 1.2885,-0.7994 1.093,-2.6983 0.2925,-3.7006 -0.1754,-0.2195 -0.518,-0.7953 -0.8241,-0.8108 -0.2961,-0.015 -0.7259,0.2887 -0.9746,0.4311 -0.7516,0.4302 -1.3693,1.0431 -1.8595,1.7531 -0.2629,0.3807 -0.4495,0.9412 -0.7986,1.2404 -0.2702,-2.1385 1.3185,-3.4331 3.1897,-4.0314 -0.5479,-0.778 -1.3345,-1.3857 -1.8773,-2.1708 -0.2153,-0.3113 -0.2581,-0.6878 -0.4261,-1.0189 -0.1641,-0.3234 -0.4397,-0.615 -0.6774,-0.886 -0.3439,-0.392 -0.732,-0.7624 -1.1392,-1.0877 -0.1808,-0.1444 -0.5143,-0.2965 -0.615,-0.5113 -0.1214,-0.259 0.082,-0.8223 0.1151,-1.1034 0.082,-0.6927 0.1031,-1.4112 -0.2532,-2.0379 -0.5162,0.1755 -0.8837,0.8533 -1.2444,1.2405 -0.4106,0.4407 -0.9905,0.839 -1.3213,1.3417 -0.1656,0.2516 -0.2151,0.6298 -0.2951,0.9176 -0.2185,0.7863 -0.4107,1.617 -0.4175,2.4366 m -0.5316,-2.348 c -0.3268,0.2422 -0.6448,0.4962 -0.9746,0.7344 -0.1446,0.1043 -0.3855,0.2172 -0.4606,0.3876 -0.1875,0.4253 -0.027,1.2481 -0.027,1.7133 0,1.4794 0.1329,2.9534 0.1329,4.4302 h -0.044 l -1.6835,-5.1833 -2.0821,0.9303 0.9396,5.3605 0.8767,3.4555 1.5063,0.2658 c -0.2348,-0.8583 -0.6863,-1.679 -0.9745,-2.5252 -0.6235,-1.8302 -1.1077,-4.0417 -1.1077,-5.9806 h 0.044 c 0.4626,1.6181 1.091,3.2286 1.6244,4.8288 0.2575,0.7726 0.4237,1.7931 0.8565,2.4809 0.5531,-1.0497 0.5596,-2.7022 2.0821,-2.7024 8e-4,-1.5847 0.2431,-3.3516 1.0379,-4.7403 0.4044,-0.7065 0.9814,-1.2188 1.443,-1.8606 -1.9518,0.2923 -2.9735,2.891 -3.6327,4.4744 -0.196,-0.4645 -0.055,-1.2283 -0.01,-1.7277 0.096,-1.0047 0.094,-2.0082 0.2348,-3.0125 0.054,-0.385 0.301,-0.956 0.2157,-1.3291 m 3.8543,2.3716 c -0.3738,0.092 -0.2402,0.3442 0,0.5174 0.2826,0.2038 0.7132,0.3404 1.0606,0.2311 0.314,-0.099 0.064,-0.4079 -0.087,-0.536 -0.2646,-0.2242 -0.637,-0.295 -0.9739,-0.2125 m -13.7778,16.3236 v -1.9936 c 1.0299,0 0.8519,1.36 1.4901,1.9226 0.2475,0.2181 1.0684,0.071 1.3894,0.071 l -1.1518,-2.3037 c 0.9897,-0.3807 1.2432,-1.8705 0.5275,-2.612 -0.644,-0.6671 -1.6768,-0.6164 -2.5211,-0.5794 -0.2704,0.012 -0.6668,-0.052 -0.9162,0.073 -0.1484,0.074 -0.1027,0.3254 -0.1027,0.4606 v 1.4177 2.6137 c 0,0.1941 -0.095,0.7531 0.071,0.8848 0.2208,0.1749 0.9363,0.046 1.2137,0.046 m 21.1317,-5.2718 -1.9492,5.2718 c 0.2761,0 1.0463,0.1333 1.2474,-0.071 0.2878,-0.2924 0.1399,-1.121 0.6577,-1.1668 0.3756,-0.033 1.3054,-0.152 1.629,0.043 0.3386,0.2039 0.2456,0.8461 0.5011,1.1238 0.1913,0.208 1.0082,0.071 1.2809,0.071 -0.044,-0.5058 -0.3357,-1.0326 -0.5128,-1.5062 -0.3199,-0.8554 -0.6323,-1.7138 -0.9513,-2.5695 -0.1235,-0.3311 -0.272,-1.1631 -0.5604,-1.3719 -0.2541,-0.184 -1.0454,0.1374 -1.3424,0.1758 m -27.9098,0.886 h 1.5063 v 3.234 c 0,0.2258 -0.1175,0.957 0.071,1.1063 0.2207,0.1748 0.9363,0.046 1.2137,0.046 v -4.3858 h 1.0632 l 0.3975,-0.071 0.09,-0.9922 h -3.1011 l -1.1251,0.045 -0.1153,1.0177 m 10.9424,-1.0632 v 5.449 h 1.2404 v -5.449 h -1.2404 m 5.3161,0 -0.044,1.0632 h 1.5063 v 4.3858 h 1.2847 v -4.3858 h 1.462 l 0.044,-1.0632 h -4.253 m 5.4491,0 v 5.449 h 2.3923 l 0.9036,-0.046 0.1153,-0.9734 h -2.1269 v -1.2404 h 1.8606 v -0.9746 l -1.8606,0.044 v -1.2404 h 1.4176 l 0.5304,-0.071 0.09,-0.9479 h -3.3226 m 10.5437,5.4491 h 1.1519 l 0.2215,-3.4555 h 0.044 l 1.1961,3.4555 1.2178,-0.046 0.3685,-0.8847 0.8946,-2.5252 h 0.044 l 0.2088,2.5695 0.128,0.8404 1.1694,0.046 -0.5759,-5.4491 c -0.2986,0 -0.969,-0.1262 -1.2183,0.045 -0.2507,0.1727 -0.3525,0.828 -0.4515,1.1063 -0.3501,0.9836 -0.654,2.0141 -1.0769,2.9682 -0.4452,-0.9519 -0.7426,-1.9862 -1.116,-2.9682 -0.1046,-0.2749 -0.2117,-0.9343 -0.4571,-1.1063 -0.1585,-0.1111 -1.0984,-0.1258 -1.1913,0.057 -0.1952,0.3842 -0.1211,1.0654 -0.1721,1.4922 -0.1511,1.2625 -0.3859,2.5827 -0.3861,3.8542 m -25.3705,-4.5806 c 0.9749,-0.4797 1.828,1.1163 0.8276,1.6195 -0.1706,0.086 -0.7395,0.2383 -0.8848,0.055 -0.1346,-0.1699 -0.045,-0.6508 -0.045,-0.8593 0,-0.1819 -0.092,-0.7192 0.1027,-0.815 m 21.6935,0.5935 0.6646,1.7721 -1.2848,0.044 c 0.079,-0.5335 0.3329,-1.3598 0.6202,-1.8164 m -14.9738,1.0632 v 0.9747 h 2.2151 v -0.9747 h -2.2151 m -5.449,4.1644 v 2.658 h 0.4873 v -1.0189 c 0.6267,0.01 0.4637,0.6898 0.8699,0.9734 0.1262,0.088 0.3571,0.045 0.5034,0.045 l -0.5759,-1.1075 c 0.5792,-0.2555 0.731,-1.1129 0.1329,-1.458 -0.4138,-0.2388 -0.9694,-0.1279 -1.4176,-0.093 m 11.2968,0 v 1.8164 c 0,0.2135 -0.071,0.5847 0.027,0.7782 0.075,0.1483 0.3248,0.1078 0.4606,0.1078 0.3938,2e-4 0.881,0.035 1.1787,-0.2804 0.3577,-0.3789 0.1656,-0.9956 -0.337,-1.0929 0.1123,-0.1178 0.2576,-0.2063 0.3342,-0.3551 0.5534,-1.0752 -1.0976,-1.0186 -1.6633,-0.974 m 8.816,0 v 2.6581 h 0.4873 v -1.0189 c 0.6198,0.01 0.4674,0.6923 0.87,0.9734 0.1262,0.088 0.3571,0.045 0.5033,0.045 l -0.5759,-1.1075 c 0.5792,-0.2555 0.731,-1.1129 0.1329,-1.4581 -0.4138,-0.2387 -0.9694,-0.1279 -1.4176,-0.092 m 6.4237,1.2404 h -1.019 v 0.3545 h 0.6203 c 0,0.1571 0.039,0.3815 -0.045,0.5216 -0.1705,0.283 -0.7411,0.2232 -0.9733,0.067 -0.5157,-0.346 -0.5534,-1.1996 -0.088,-1.598 0.1386,-0.1187 0.3064,-0.1801 0.4867,-0.2002 0.2693,-0.03 0.5338,0.066 0.7974,0.1016 0.081,-0.6614 -0.8266,-0.6041 -1.2847,-0.439 -0.6235,0.2247 -0.812,0.8052 -0.7968,1.4136 0.021,0.8477 0.6702,1.2746 1.4613,1.2387 0.2295,-0.01 0.6092,-0.066 0.7707,-0.248 0.1987,-0.2239 0.071,-0.9234 0.071,-1.2122 m -30.4793,-1.2404 v 2.6581 h 0.4873 v -1.1519 h 1.0189 v -0.3544 h -1.0189 v -0.7531 h 1.0632 v -0.3987 h -1.5505 m 8.1957,0 v 2.6581 h 1.5949 l 0.044,-0.3544 h -1.1518 v -0.7975 h 1.0189 v -0.3544 c -0.224,0 -0.8335,0.107 -0.9734,-0.1026 -0.1048,-0.157 -0.045,-0.4691 -0.045,-0.6505 h 1.0632 v -0.3987 h -1.5505 m 4.0314,0 v 2.6581 h 0.4873 v -2.6581 h -0.4873 m 7.2211,0 c 0,0.6582 -0.1886,1.6699 0.1492,2.2593 0.3318,0.579 1.4271,0.6425 1.7764,0.044 0.3497,-0.5992 0.1566,-1.6317 0.1566,-2.303 h -0.4874 c 0,0.526 0.2276,1.7684 -0.1871,2.1533 -0.2992,0.2778 -0.7311,0.1047 -0.8695,-0.2483 -0.2045,-0.5213 -0.051,-1.3482 -0.051,-1.905 h -0.4873 m -15.0182,1.3291 v -1.019 c 0.1886,0 0.402,-0.025 0.5751,0.065 0.3077,0.16 0.3472,0.6096 0.074,0.8268 -0.1797,0.1432 -0.4334,0.1274 -0.6494,0.1276 m 11.2968,-0.1773 v -0.8417 c 0.1847,0 0.4035,-0.029 0.5713,0.065 0.276,0.1534 0.2666,0.5567 0,0.7127 -0.1644,0.095 -0.3854,0.065 -0.5676,0.065 m 8.8159,0.1772 v -1.0189 c 0.1873,0 0.4028,-0.027 0.574,0.065 0.3008,0.1602 0.3431,0.6138 0.075,0.8269 -0.1797,0.1431 -0.4334,0.1274 -0.6494,0.1275 m -8.816,1.0189 v -0.886 c 0.2202,0 0.4658,-0.027 0.6599,0.099 0.2894,0.1871 0.2652,0.5774 -0.04,0.7351 -0.1778,0.092 -0.4256,0.052 -0.6196,0.052 z"
       id="path13-8" /></g></svg>
