<?xml version="1.0" encoding="UTF-8" standalone="no"?>
<!-- Created with Inkscape (http://www.inkscape.org/) -->

<svg
   width="187.45535mm"
   height="64.337624mm"
   viewBox="0 0 187.45535 64.337624"
   version="1.1"
   id="svg1"
   xml:space="preserve"
   inkscape:version="1.4.4 (dcaf3e7, 2026-05-05)"
   sodipodi:docname="logos teams.svg"
   inkscape:export-batch-name="logos teams"
   inkscape:export-batch-path="Desktop"
   xmlns:inkscape="http://www.inkscape.org/namespaces/inkscape"
   xmlns:sodipodi="http://sodipodi.sourceforge.net/DTD/sodipodi-0.dtd"
   xmlns="http://www.w3.org/2000/svg"
   xmlns:svg="http://www.w3.org/2000/svg"><sodipodi:namedview
     id="namedview1"
     pagecolor="#ffffff"
     bordercolor="#000000"
     borderopacity="0.25"
     inkscape:showpageshadow="2"
     inkscape:pageopacity="0.0"
     inkscape:pagecheckerboard="0"
     inkscape:deskcolor="#d1d1d1"
     inkscape:document-units="mm"
     inkscape:zoom="0.69712823"
     inkscape:cx="489.14961"
     inkscape:cy="355.02794"
     inkscape:window-width="1920"
     inkscape:window-height="1050"
     inkscape:window-x="0"
     inkscape:window-y="30"
     inkscape:window-maximized="0"
     inkscape:current-layer="layer1"><inkscape:page
       x="0"
       y="0"
       width="187.45535"
       height="64.337624"
       id="page1"
       margin="0"
       bleed="0" /></sodipodi:namedview><defs
     id="defs1" /><g
     inkscape:label="Ebene 1"
     inkscape:groupmode="layer"
     id="layer1"
     transform="translate(-259.47659,-153.42132)"><path
       style="fill:#000000;stroke-width:0.390187"
       d="m 349.019,217.66766 c -0.90024,-0.11003 -1.66416,-0.26872 -1.91297,-0.39738 -0.15384,-0.0796 -0.94778,-0.24214 -1.7643,-0.36131 -1.09792,-0.16024 -1.60359,-0.28311 -1.94153,-0.47178 -0.25132,-0.14031 -0.78558,-0.32588 -1.18722,-0.41238 -0.85463,-0.18405 -1.11786,-0.28288 -1.60779,-0.60363 -0.19873,-0.13011 -0.6733,-0.31752 -1.05459,-0.41646 -0.40776,-0.10581 -0.79433,-0.28096 -0.93866,-0.42529 -0.13497,-0.13497 -0.53791,-0.33643 -0.89542,-0.44771 -0.37523,-0.11678 -0.78582,-0.33224 -0.97123,-0.50965 -0.17666,-0.16904 -0.51442,-0.35839 -0.7506,-0.42078 -0.23617,-0.0624 -0.58459,-0.25927 -0.77427,-0.43753 -0.18968,-0.17826 -0.58492,-0.43082 -0.8783,-0.56125 -0.30474,-0.13548 -0.56134,-0.32511 -0.59854,-0.44233 -0.0361,-0.11381 -0.226,-0.25828 -0.42633,-0.3244 -0.19866,-0.0656 -0.57231,-0.30193 -0.83035,-0.52526 -0.25803,-0.22332 -0.63914,-0.4931 -0.8469,-0.5995 -0.20776,-0.10641 -0.48367,-0.33748 -0.61312,-0.5135 -0.12946,-0.17601 -0.30169,-0.32003 -0.38274,-0.32003 -0.0811,0 -0.2771,-0.16594 -0.43567,-0.36876 -0.15857,-0.20281 -0.45914,-0.45754 -0.66793,-0.56607 -0.2088,-0.10852 -0.40993,-0.29275 -0.44695,-0.40939 -0.037,-0.11665 -0.24857,-0.32651 -0.47012,-0.46636 -0.22154,-0.13986 -0.43018,-0.36335 -0.46364,-0.49666 -0.0349,-0.13903 -0.20803,-0.31256 -0.40608,-0.407 -0.18988,-0.0906 -0.37766,-0.27181 -0.41728,-0.4028 -0.0396,-0.13099 -0.26426,-0.43049 -0.4992,-0.66555 -0.49192,-0.49219 -0.91538,-1.00208 -1.35629,-1.63311 -0.17034,-0.24379 -0.4607,-0.6418 -0.64523,-0.88447 -0.18454,-0.24266 -0.33552,-0.52561 -0.33552,-0.62875 0,-0.10315 -0.15634,-0.34389 -0.34742,-0.53497 -0.19108,-0.19108 -0.44429,-0.60632 -0.56269,-0.92276 -0.11839,-0.31644 -0.32584,-0.68593 -0.46101,-0.82109 -0.14603,-0.14603 -0.32236,-0.53751 -0.43455,-0.96476 -0.10383,-0.39545 -0.27207,-0.81255 -0.37386,-0.92688 -0.25092,-0.28186 -0.45722,-0.80515 -0.60883,-1.54433 -0.0695,-0.33913 -0.25709,-0.85015 -0.41674,-1.13561 -0.22567,-0.40349 -0.33591,-0.82918 -0.49533,-1.9127 -0.11279,-0.76653 -0.29878,-1.64988 -0.41332,-1.96299 -0.68372,-1.86902 -0.66053,-10.69478 0.0335,-12.74611 0.13487,-0.39865 0.29797,-1.16616 0.36243,-1.70557 0.14157,-1.18471 0.34385,-1.94705 0.60518,-2.28076 0.10706,-0.1367 0.27791,-0.63505 0.37967,-1.10744 0.11022,-0.51171 0.29987,-1.03335 0.46915,-1.29047 0.15627,-0.23736 0.36136,-0.69923 0.45575,-1.02637 0.0944,-0.32715 0.28904,-0.73437 0.43257,-0.90493 0.14351,-0.17057 0.35235,-0.5507 0.46408,-0.84473 0.11172,-0.29404 0.3332,-0.69981 0.49217,-0.90172 0.15896,-0.20191 0.40908,-0.60521 0.55582,-0.89622 0.14673,-0.29101 0.33986,-0.55715 0.42916,-0.59142 0.0893,-0.0343 0.25101,-0.26908 0.35934,-0.5218 0.10833,-0.25273 0.29245,-0.5106 0.40915,-0.57306 0.1167,-0.0625 0.28081,-0.24626 0.36469,-0.40846 0.44376,-0.85814 4.8387,-5.17054 5.26951,-5.17054 0.0775,0 0.24174,-0.14166 0.36503,-0.31481 0.12329,-0.17315 0.40655,-0.38779 0.62946,-0.47698 0.22291,-0.0892 0.45215,-0.24971 0.50941,-0.3567 0.0573,-0.107 0.36949,-0.32904 0.69384,-0.49342 0.32435,-0.16439 0.70092,-0.41817 0.83683,-0.56396 0.13592,-0.14579 0.47604,-0.34111 0.75583,-0.43404 0.2798,-0.0929 0.53444,-0.23597 0.56586,-0.31787 0.0695,-0.18112 0.97919,-0.65551 1.25702,-0.65551 0.11007,0 0.39472,-0.16257 0.63254,-0.36126 0.24569,-0.20527 0.68453,-0.4332 1.01633,-0.52788 0.32116,-0.0916 0.67747,-0.25205 0.79181,-0.35647 0.2786,-0.25444 0.79766,-0.46048 1.54714,-0.61414 0.34068,-0.0699 0.746,-0.23347 0.9007,-0.3636 0.26456,-0.22253 1.06679,-0.45302 2.14479,-0.6162 0.25551,-0.0387 0.69685,-0.18082 0.98075,-0.31586 1.91074,-0.90887 11.06423,-0.8742 12.994,0.0492 0.23474,0.11233 0.86493,0.27935 1.40042,0.37117 0.9901,0.16977 1.57617,0.36161 1.86162,0.60939 0.0872,0.0757 0.48383,0.19604 0.8813,0.26736 0.83453,0.14973 1.35544,0.3432 1.65038,0.61294 0.11433,0.10457 0.53058,0.26243 0.92498,0.35081 0.42656,0.0956 0.8954,0.28635 1.15717,0.47086 0.24203,0.1706 0.63941,0.36382 0.88307,0.42937 0.51945,0.13975 0.92798,0.33917 1.15034,0.56153 0.0875,0.0875 0.46356,0.2957 0.83568,0.46265 0.37212,0.16696 0.67658,0.35138 0.67658,0.40982 0,0.0584 0.32339,0.26912 0.71864,0.46816 0.39525,0.19904 0.76858,0.45522 0.82962,0.56927 0.061,0.11405 0.27296,0.27505 0.47093,0.35777 0.19796,0.0827 0.44018,0.29181 0.53827,0.46466 0.0981,0.17285 0.27123,0.34271 0.38479,0.37748 0.27315,0.0836 0.67104,0.45358 0.67104,0.6239 0,0.0745 0.16213,0.20322 0.36028,0.28602 0.23046,0.0963 0.42163,0.27917 0.53052,0.50752 0.0936,0.19635 0.27804,0.40612 0.40979,0.46615 0.13176,0.06 0.33064,0.28767 0.44196,0.50588 0.11132,0.2182 0.32037,0.45049 0.46456,0.51618 0.1442,0.0657 0.355,0.30141 0.46845,0.5238 0.11346,0.22239 0.27251,0.42976 0.35345,0.46082 0.081,0.0311 0.28933,0.30494 0.46309,0.60863 0.17375,0.30369 0.4403,0.66728 0.59233,0.80797 0.15202,0.14069 0.3658,0.46193 0.47506,0.71388 0.10925,0.25194 0.2905,0.52241 0.40277,0.60105 0.11228,0.0786 0.34255,0.40676 0.51173,0.72915 0.16917,0.32239 0.40384,0.70633 0.52147,0.8532 0.42295,0.52804 0.38738,1.83903 -0.0621,2.28849 -0.13802,0.13801 -0.34055,0.53887 -0.45008,0.89079 -0.19777,0.63542 -0.97532,1.55732 -1.59171,1.88721 -0.26157,0.13998 -2.7489,0.24513 -3.4196,0.14455 -0.6114,-0.0917 -1.60761,-1.03911 -1.982,-1.88491 -0.13057,-0.29499 -0.33597,-0.58908 -0.45645,-0.65357 -0.12049,-0.0645 -0.30267,-0.30397 -0.40485,-0.5322 -0.10219,-0.22824 -0.29439,-0.46912 -0.42713,-0.53529 -0.13273,-0.0662 -0.37344,-0.31703 -0.53492,-0.55746 -0.16147,-0.24042 -0.36176,-0.43713 -0.44509,-0.43713 -0.0833,0 -0.24863,-0.16459 -0.36732,-0.36577 -0.1187,-0.20117 -0.39249,-0.4559 -0.60844,-0.56607 -0.21594,-0.11017 -0.4226,-0.29477 -0.45925,-0.41024 -0.0366,-0.11546 -0.2484,-0.30267 -0.47056,-0.416 -0.22217,-0.11334 -0.4811,-0.32384 -0.5754,-0.46776 -0.0943,-0.14393 -0.31565,-0.32195 -0.49189,-0.39559 -0.17623,-0.0736 -0.52947,-0.33069 -0.78498,-0.57121 -0.25552,-0.24052 -0.64104,-0.52857 -0.85674,-0.64012 -0.21569,-0.11154 -0.41939,-0.27375 -0.45266,-0.36045 -0.0333,-0.0867 -0.29813,-0.26416 -0.58858,-0.39434 -0.29045,-0.13018 -0.63929,-0.3576 -0.7752,-0.50536 -0.13591,-0.14777 -0.48434,-0.34661 -0.77428,-0.44187 -0.28994,-0.0953 -0.67043,-0.29764 -0.84552,-0.44972 -0.1751,-0.15208 -0.54676,-0.33594 -0.8259,-0.40858 -0.92666,-0.24112 -1.48512,-0.43514 -1.54872,-0.53806 -0.52373,-0.84741 -12.11252,-0.83328 -13.92818,0.017 -0.34068,0.15954 -1.0143,0.3705 -1.49693,0.4688 -0.48263,0.0983 -0.97043,0.25927 -1.08399,0.35771 -0.29712,0.25756 -0.7518,0.46457 -1.33205,0.60646 -0.28706,0.0702 -0.67772,0.27064 -0.90254,0.46307 -0.21801,0.18661 -0.57744,0.39354 -0.79872,0.45984 -0.22128,0.0663 -0.47806,0.23611 -0.57061,0.37736 -0.0926,0.14126 -0.31835,0.31955 -0.50177,0.39621 -0.18343,0.0767 -0.56568,0.35565 -0.84946,0.61996 -0.28378,0.26432 -0.54801,0.48058 -0.58718,0.48058 -0.23333,0 -2.92138,2.91214 -3.55713,3.85368 -0.12159,0.18008 -0.34307,0.45057 -0.49218,0.60108 -0.1491,0.15051 -0.32399,0.42925 -0.38864,0.61942 -0.0647,0.19017 -0.29339,0.56907 -0.50831,0.84199 -0.21492,0.27293 -0.44555,0.66782 -0.51253,0.87752 -0.067,0.2097 -0.23628,0.50412 -0.37624,0.65426 -0.13997,0.15013 -0.36843,0.58688 -0.5077,0.97055 -0.13927,0.38368 -0.36228,0.82721 -0.49559,0.98564 -0.13331,0.15843 -0.29782,0.53467 -0.36557,0.83609 -0.15878,0.70637 -0.38233,1.29403 -0.61858,1.62607 -0.1179,0.16571 -0.26753,0.76451 -0.40178,1.60792 -0.11765,0.73913 -0.32026,1.66826 -0.45025,2.06474 l -0.23634,0.72086 7.8e-4,2.2196 7.8e-4,2.21959 0.23189,0.6723 c 0.12753,0.36976 0.32598,1.24903 0.44098,1.95394 0.15448,0.94689 0.28587,1.41845 0.50305,1.80539 0.16167,0.28806 0.37397,0.85862 0.47177,1.26793 0.0978,0.4093 0.25036,0.80418 0.33903,0.87751 0.21357,0.17663 0.64226,1.10551 0.64353,1.39439 3.9e-4,0.12578 0.14588,0.3937 0.32296,0.59537 0.17707,0.20168 0.42852,0.6289 0.55877,0.94938 0.13026,0.32049 0.31405,0.62591 0.40843,0.67873 0.0944,0.0528 0.2631,0.30949 0.37493,0.57037 0.11183,0.26089 0.38153,0.66767 0.59933,0.90396 0.21781,0.23629 0.45598,0.59546 0.52927,0.79815 0.0733,0.20269 0.23957,0.41696 0.36949,0.47616 0.12993,0.0592 0.32732,0.28617 0.43864,0.50437 0.11131,0.2182 0.32003,0.45033 0.4638,0.51584 0.14378,0.0655 0.33059,0.25288 0.41514,0.4164 0.0846,0.1635 0.31593,0.421 0.51418,0.5722 0.19823,0.15121 0.39018,0.36865 0.42654,0.4832 0.0364,0.11455 0.24517,0.29962 0.46403,0.41128 0.21887,0.11166 0.42878,0.30017 0.46647,0.41892 0.0392,0.12354 0.26039,0.29814 0.51703,0.40816 0.24669,0.10574 0.52047,0.30207 0.60842,0.43628 0.0879,0.13422 0.34226,0.3245 0.56515,0.42284 0.22289,0.0983 0.58006,0.33892 0.79372,0.53462 0.22204,0.20338 0.61662,0.42215 0.92101,0.51064 0.29289,0.0851 0.65953,0.27252 0.81477,0.41637 0.17167,0.15911 0.5906,0.34421 1.06946,0.47253 0.75883,0.20336 1.36732,0.48003 1.36732,0.62171 0,0.088 0.41657,0.17009 1.77079,0.34887 0.60486,0.0798 1.46431,0.27581 1.90988,0.43547 l 0.81014,0.29029 4.02624,-0.004 4.02624,-0.004 0.77428,-0.27194 c 0.42585,-0.14957 1.30853,-0.37165 1.9615,-0.49352 0.89146,-0.16638 1.25153,-0.2808 1.44532,-0.45931 0.14195,-0.13075 0.58329,-0.34239 0.98075,-0.4703 0.4118,-0.13253 0.81148,-0.33645 0.92913,-0.47406 0.11356,-0.13282 0.42056,-0.33139 0.68222,-0.44128 0.26166,-0.10989 0.59223,-0.31628 0.7346,-0.45866 0.14238,-0.14237 0.46255,-0.36164 0.71148,-0.48725 0.24895,-0.12561 0.58376,-0.38525 0.74404,-0.57697 0.16029,-0.19172 0.35952,-0.34859 0.44275,-0.34859 0.0832,0 0.34472,-0.18583 0.58109,-0.41295 0.23636,-0.22712 0.48074,-0.41294 0.54305,-0.41294 0.26847,0 3.96463,-3.61113 4.23876,-4.14125 0.0812,-0.15698 0.2387,-0.34922 0.35004,-0.42721 0.11135,-0.078 0.29277,-0.35251 0.40316,-0.61003 0.11039,-0.25753 0.31414,-0.55746 0.45279,-0.66651 0.13864,-0.10906 0.30413,-0.29556 0.36776,-0.41445 0.0636,-0.11889 0.26844,-0.2726 0.45515,-0.34157 0.18671,-0.069 0.54852,-0.22633 0.80403,-0.34968 l 0.46457,-0.22428 24.027,-0.0273 24.027,-0.0273 0.14464,-0.23079 c 0.0795,-0.12693 0.19963,-0.46916 0.26684,-0.76051 0.29364,-1.27279 1.78622,-1.55679 3.21446,-0.61162 0.20795,0.13761 0.67407,0.30199 1.03583,0.36528 0.87773,0.15355 1.32056,0.29816 1.67501,0.54696 0.16204,0.11374 0.7305,0.30959 1.26324,0.43522 0.56657,0.13361 1.12991,0.33948 1.35718,0.49598 0.26498,0.18247 0.69437,0.32313 1.35023,0.44231 0.64046,0.11638 1.08873,0.26148 1.34208,0.43439 0.21193,0.14465 0.76198,0.34513 1.24201,0.45269 0.83555,0.18722 1.34797,0.387 1.66769,0.6502 0.0852,0.0701 0.5672,0.20742 1.07119,0.30513 1.26841,0.24592 1.5615,0.40539 1.86523,1.01489 0.37942,0.76141 0.063,1.05151 -1.43949,1.31979 -0.39746,0.071 -0.95702,0.26058 -1.24347,0.42136 -0.28645,0.16077 -0.89039,0.3677 -1.34208,0.45983 -0.49445,0.10086 -0.9938,0.28053 -1.25484,0.45151 -0.27937,0.18299 -0.75668,0.3477 -1.34208,0.46313 -0.58535,0.11543 -1.0611,0.2796 -1.33751,0.46155 -0.2688,0.17693 -0.76999,0.35309 -1.34208,0.47171 -0.57971,0.1202 -1.01565,0.27427 -1.19403,0.42199 -0.17742,0.14692 -0.65296,0.31579 -1.29046,0.45826 -0.57045,0.12749 -1.16666,0.33177 -1.37084,0.46969 -0.19908,0.13449 -0.80171,0.34387 -1.34208,0.46631 -0.53941,0.12223 -1.01779,0.25632 -1.06306,0.29798 -0.38913,0.35807 -1.47746,-0.57091 -1.58071,-1.34927 -0.0378,-0.28525 -0.13541,-0.58525 -0.21683,-0.66666 -0.12762,-0.12762 -3.20625,-0.14802 -22.33659,-0.14802 h -22.18857 l -0.18067,0.21044 c -0.0994,0.11575 -0.31505,0.35824 -0.47931,0.53888 -0.16426,0.18063 -0.36652,0.49243 -0.44947,0.69287 -0.0829,0.20045 -0.29699,0.51134 -0.47563,0.69086 -0.17864,0.17953 -0.60354,0.66177 -0.94423,1.07167 -1.28577,1.54698 -3.88283,4.00822 -4.51404,4.27798 -0.18595,0.0795 -0.45895,0.27502 -0.60667,0.43456 -0.14772,0.15954 -0.44968,0.35454 -0.67104,0.43333 -0.22135,0.0788 -0.57583,0.29858 -0.78773,0.48842 -0.21324,0.19104 -0.59434,0.39781 -0.8535,0.46307 -0.25753,0.0648 -0.63752,0.25243 -0.84443,0.41686 -0.2069,0.16443 -0.63582,0.37267 -0.95314,0.46277 -0.31733,0.0901 -0.78735,0.29651 -1.04449,0.45871 -0.25715,0.1622 -0.85511,0.38748 -1.32881,0.50062 -0.47369,0.11314 -0.93862,0.27572 -1.03317,0.36128 -0.26124,0.23642 -0.80999,0.43294 -1.60967,0.57645 -0.39746,0.0713 -1.00427,0.26373 -1.34846,0.42756 -0.46131,0.21959 -0.99873,0.35186 -2.04461,0.50323 -0.78035,0.11294 -1.56343,0.28012 -1.74018,0.37153 -0.72419,0.37449 -5.06102,0.61419 -6.94548,0.38387 z m -71.60027,-6.88795 c -0.0289,-0.0289 -0.67062,-0.12809 -1.42603,-0.2204 -1.54609,-0.18894 -2.20836,-0.35843 -2.5297,-0.64741 -0.12095,-0.10878 -0.49202,-0.30809 -0.82459,-0.44291 -0.33256,-0.13482 -0.68098,-0.3406 -0.77427,-0.45728 -0.0933,-0.11669 -0.39517,-0.29761 -0.67084,-0.40206 -0.27568,-0.10444 -0.65191,-0.32219 -0.83607,-0.48389 -0.18416,-0.1617 -0.56254,-0.39126 -0.84085,-0.51014 -0.27831,-0.11888 -0.62215,-0.32595 -0.76411,-0.46016 -0.14195,-0.1342 -0.5136,-0.34216 -0.82589,-0.46213 -0.31229,-0.11998 -0.66072,-0.32477 -0.77428,-0.45511 -0.11356,-0.13034 -0.50032,-0.34447 -0.85947,-0.47585 -0.38971,-0.14256 -0.71742,-0.33718 -0.81276,-0.48268 -0.0879,-0.1341 -0.2818,-0.27309 -0.43098,-0.30887 -0.40939,-0.0982 -0.97033,-0.40068 -1.1867,-0.63993 -0.10604,-0.11726 -0.41295,-0.28631 -0.68202,-0.37569 -0.26907,-0.0894 -0.60042,-0.28153 -0.73633,-0.42703 -0.13591,-0.1455 -0.53009,-0.39324 -0.87596,-0.55053 -0.34587,-0.15729 -0.65846,-0.36316 -0.69466,-0.45747 -0.0362,-0.0943 -0.27541,-0.26133 -0.5316,-0.37115 -0.8638,-0.37027 -1.09933,-1.16883 -0.62215,-2.1094 0.14172,-0.27933 0.25766,-0.56611 0.25766,-0.63729 0,-0.0712 0.13008,-0.26074 0.28906,-0.42126 0.15898,-0.16051 0.39738,-0.58338 0.52976,-0.93971 0.15709,-0.42281 0.34357,-0.72112 0.53684,-0.85873 0.16287,-0.11598 0.29613,-0.28097 0.29613,-0.36664 0,-0.0857 0.1358,-0.29156 0.30178,-0.45753 l 0.30177,-0.30177 h 0.67226 c 0.78925,0 1.05632,0.0864 1.52594,0.4934 0.19084,0.16541 0.56427,0.3826 0.82984,0.48263 0.26557,0.10004 0.58775,0.29353 0.71596,0.43 0.12819,0.13646 0.49161,0.36635 0.8076,0.51086 0.31598,0.14452 0.69065,0.36863 0.8326,0.49804 0.14195,0.1294 0.48364,0.31831 0.75932,0.41979 0.27567,0.10148 0.65717,0.32143 0.84776,0.48878 0.1906,0.16734 0.51218,0.34999 0.71463,0.40589 0.20245,0.0559 0.51781,0.23203 0.70079,0.3914 0.3899,0.33958 0.9234,0.6281 1.16141,0.6281 0.0924,0 0.31047,0.14256 0.4847,0.31678 0.17422,0.17422 0.57414,0.41307 0.8887,0.53076 0.31457,0.11769 0.69108,0.33892 0.8367,0.49162 0.14563,0.1527 0.47844,0.35637 0.73959,0.45259 0.26116,0.0962 0.58342,0.29054 0.71614,0.43182 0.1438,0.15307 0.53597,0.34472 0.97049,0.47426 1.52007,0.4532 1.61859,0.46754 2.27825,0.33171 0.3404,-0.0701 1.10671,-0.20367 1.7029,-0.29683 0.69347,-0.10836 1.30714,-0.27576 1.70341,-0.46465 0.38937,-0.1856 1.06036,-0.3705 1.80665,-0.49784 0.73783,-0.1259 1.38261,-0.30284 1.70341,-0.46744 0.36865,-0.18917 0.91691,-0.3235 1.91822,-0.46999 0.99249,-0.1452 1.55038,-0.28129 1.90988,-0.46588 0.37783,-0.19401 0.85145,-0.30318 1.84993,-0.42644 0.88606,-0.10938 1.52406,-0.24724 1.87765,-0.40574 0.58275,-0.26123 1.15859,-0.39286 2.50992,-0.57373 0.48263,-0.0646 1.12331,-0.22721 1.42374,-0.36135 0.6456,-0.28825 1.14149,-0.38312 3.48001,-0.66574 0.96527,-0.11665 2.28929,-0.30161 2.94226,-0.41101 0.65297,-0.1094 1.86955,-0.2472 2.7035,-0.30622 3.73043,-0.26401 3.84598,-0.19456 4.02016,2.41646 0.0532,0.79797 0.13447,1.74644 0.18053,2.10771 0.085,0.6666 0.001,1.0927 -0.34755,1.76709 -0.2165,0.41867 -0.53069,0.49146 -2.68091,0.62111 -1.07643,0.0649 -1.98519,0.13534 -2.01946,0.15652 -0.0913,0.0564 -3.23674,0.52835 -4.83486,0.72541 -0.97498,0.12022 -1.51885,0.24023 -1.85826,0.41005 -0.50131,0.25083 -1.06178,0.36974 -2.69847,0.57253 -0.63347,0.0785 -1.14431,0.20721 -1.44532,0.36417 -0.30447,0.15877 -0.94774,0.31928 -1.85924,0.46394 -0.76654,0.12164 -1.55656,0.30412 -1.75561,0.40551 -0.49277,0.25099 -0.99557,0.37678 -2.26752,0.56724 -0.63123,0.0945 -1.2969,0.26528 -1.60017,0.41047 -0.33257,0.15922 -1.03902,0.3297 -1.96462,0.47411 -0.94786,0.14789 -1.53934,0.29186 -1.71848,0.4183 -0.6215,0.43865 -5.67507,1.17988 -5.97812,0.87683 z m 2.9477,-15.07055 c -1.13604,-0.16403 -1.66044,-0.33051 -1.83752,-0.58331 -0.0741,-0.10581 -0.40325,-0.29284 -0.73144,-0.41563 -0.32817,-0.12279 -0.74386,-0.35112 -0.92374,-0.5074 -0.17989,-0.15628 -0.56429,-0.36209 -0.85423,-0.45736 -0.28994,-0.0953 -0.63336,-0.28624 -0.76315,-0.42439 -0.12978,-0.13816 -0.52473,-0.34728 -0.87766,-0.46473 -0.35293,-0.11745 -0.74781,-0.3265 -0.87751,-0.46457 -0.12971,-0.13806 -0.533,-0.34991 -0.8962,-0.47078 -0.40623,-0.13518 -0.71983,-0.31049 -0.81485,-0.45551 -0.10121,-0.15447 -0.37316,-0.29712 -0.78873,-0.41372 -0.38746,-0.10872 -0.74755,-0.29126 -0.92541,-0.46912 -0.16013,-0.16013 -0.46541,-0.34751 -0.67839,-0.41639 -0.59235,-0.19159 -1.12966,-0.48483 -1.19359,-0.65141 -0.0316,-0.0825 -0.3159,-0.22506 -0.63169,-0.31686 -0.31578,-0.0918 -0.72534,-0.2985 -0.91013,-0.45935 -0.18479,-0.16084 -0.54746,-0.3852 -0.80593,-0.49859 -1.03846,-0.45555 -1.71254,-2.40381 -0.83169,-2.40381 0.0477,0 0.2118,-0.34284 0.36462,-0.76187 0.15283,-0.41903 0.39134,-0.86847 0.53002,-0.99875 0.13868,-0.13028 0.25214,-0.27824 0.25214,-0.32879 0,-0.41037 0.48696,-1.12808 1.09324,-1.61131 l 0.66899,-0.5332 0.48595,0.25869 c 0.26728,0.14229 0.55601,0.25972 0.64164,0.26096 0.24899,0.004 1.0616,0.40173 1.3429,0.65789 0.14195,0.12927 0.48364,0.31806 0.75932,0.41955 0.27567,0.10148 0.65445,0.31904 0.84173,0.48347 0.18727,0.16443 0.5545,0.36337 0.81606,0.44209 0.26156,0.0787 0.63891,0.28653 0.83854,0.46181 0.19963,0.17528 0.57736,0.37268 0.8394,0.43866 0.26204,0.066 0.62817,0.25319 0.81362,0.41602 0.18545,0.16282 0.60134,0.38693 0.92421,0.49801 0.32287,0.11109 0.73654,0.33324 0.91927,0.49368 0.18273,0.16043 0.59655,0.37484 0.9196,0.47645 0.32306,0.10162 0.66864,0.28494 0.76796,0.4074 0.0993,0.12246 0.45931,0.33242 0.79999,0.4666 0.34069,0.13417 0.7256,0.35934 0.85537,0.50038 0.67639,0.73515 5.82451,0.75004 6.85002,0.0198 0.36065,-0.2568 0.69572,-0.35719 1.88091,-0.56352 0.55147,-0.096 1.0282,-0.24333 1.20111,-0.37117 0.20503,-0.15158 0.72388,-0.28277 1.82138,-0.46051 0.84407,-0.1367 1.65082,-0.31169 1.79277,-0.38886 0.47715,-0.25939 1.28281,-0.46199 2.47769,-0.62305 0.66901,-0.0902 1.45759,-0.26935 1.80664,-0.41048 0.34516,-0.13956 1.23651,-0.34321 2.01312,-0.45993 0.91344,-0.13728 1.59301,-0.30083 1.97209,-0.47462 0.40107,-0.18387 1.02564,-0.32737 2.03727,-0.46809 0.88141,-0.1226 1.61457,-0.28236 1.8522,-0.40359 0.59542,-0.30376 1.87921,-0.44823 3.63084,-0.4086 l 1.57212,0.0356 0.24547,0.28555 c 0.38412,0.44682 0.44853,0.89677 0.47636,3.32775 0.0368,3.21312 0.10969,3.11642 -2.45957,3.26197 -1.31897,0.0747 -1.78712,0.13987 -2.0816,0.28972 -0.5656,0.28782 -1.07227,0.40727 -2.46091,0.5802 -0.93571,0.11652 -1.37105,0.2211 -1.71077,0.41097 -0.33558,0.18756 -0.84167,0.31109 -1.92039,0.46874 -0.91124,0.13317 -1.67342,0.30636 -2.01704,0.45833 -0.34878,0.15424 -1.11002,0.32537 -2.06559,0.46434 -1.06949,0.15554 -1.65654,0.29354 -2.00184,0.47059 -0.30728,0.15756 -0.94826,0.32463 -1.72742,0.45024 -0.8075,0.13018 -1.41857,0.29167 -1.75503,0.4638 -0.31428,0.16079 -0.98997,0.34773 -1.72743,0.47792 -0.66619,0.11761 -1.45884,0.32718 -1.76145,0.46571 -1.09171,0.49981 -6.02863,0.8217 -8.07366,0.52641 z m 135.11485,-1.97765 c -0.1761,-0.074 -0.34877,-0.25217 -0.41102,-0.424 -0.059,-0.16297 -0.22958,-0.61082 -0.37899,-0.99521 -0.14941,-0.38439 -0.27166,-0.76046 -0.27166,-0.8357 0,-0.0752 -0.0849,-0.2137 -0.18879,-0.30767 l -0.18879,-0.17085 -17.64539,-0.006 c -18.14267,-0.006 -18.48516,-0.0135 -18.86618,-0.39442 l -0.22453,-0.22448 v -2.7172 c 0,-2.98591 0.032,-3.1659 0.59801,-3.36321 0.2117,-0.0738 5.99494,-0.10817 18.19903,-0.10817 h 17.88871 l 0.21396,-0.27202 c 0.11769,-0.14961 0.21397,-0.34124 0.21397,-0.42585 0,-0.13578 0.10761,-0.41424 0.67287,-1.7412 0.26638,-0.62533 1.59877,-0.59214 2.63072,0.0655 0.26408,0.16831 0.78996,0.36376 1.21859,0.4529 0.41472,0.0862 0.99543,0.29268 1.29046,0.45874 0.29504,0.16607 0.89378,0.37967 1.33052,0.47467 0.44559,0.0969 0.96663,0.29047 1.18723,0.441 0.21623,0.14754 0.74156,0.3466 1.16741,0.44234 0.76128,0.17116 1.37489,0.42258 1.49139,0.61108 0.0325,0.0526 0.51166,0.19716 1.06472,0.32114 0.62566,0.14026 1.1845,0.33839 1.47917,0.52444 0.26048,0.16445 0.54236,0.29901 0.62641,0.29901 0.37696,0 1.67554,0.41378 1.8772,0.59815 0.12272,0.1122 0.33927,0.23854 0.48123,0.28074 1.45152,0.43154 1.53883,1.15081 0.1877,1.54629 -0.35875,0.105 -0.74651,0.27434 -0.86169,0.37631 -0.25257,0.22361 -0.80463,0.42188 -1.6832,0.6045 -0.35958,0.0747 -0.71799,0.20011 -0.79647,0.2786 -0.20495,0.20495 -0.72832,0.40692 -1.54561,0.59646 -0.3917,0.0908 -0.78378,0.22767 -0.87129,0.30406 -0.31523,0.27519 -0.80442,0.46066 -1.62616,0.61655 -0.59064,0.11204 -0.91574,0.23209 -1.10602,0.40845 -0.18654,0.17287 -0.57884,0.32115 -1.27428,0.48162 -0.63187,0.14581 -1.10857,0.319 -1.28444,0.46666 -0.17163,0.14409 -0.63998,0.31776 -1.21228,0.44953 -0.5416,0.1247 -1.10822,0.33095 -1.3515,0.49194 -0.553,0.36596 -1.61112,0.57197 -2.03101,0.39542 z m -65.31103,-1.90113 c -0.36117,-0.0506 -0.71377,-0.17367 -0.87751,-0.3064 -0.24634,-0.19968 -0.45222,-0.30531 -1.23346,-0.6329 -0.13038,-0.0547 -0.31252,-0.23088 -0.40473,-0.39156 -0.0922,-0.16068 -0.29584,-0.3657 -0.45249,-0.45561 -0.15665,-0.0899 -0.36298,-0.31849 -0.45853,-0.50797 -0.0955,-0.18948 -0.30342,-0.48388 -0.46196,-0.65422 -0.26053,-0.27993 -0.61776,-1.10376 -0.61776,-1.42465 0,-0.0698 -0.10101,-0.3121 -0.22446,-0.53838 -0.33094,-0.6066 -0.39227,-2.02651 -0.11171,-2.58634 0.11191,-0.2233 0.3076,-0.75352 0.43488,-1.17827 0.13666,-0.4561 0.35402,-0.91193 0.53091,-1.11339 0.16473,-0.18762 0.29951,-0.37506 0.29951,-0.41654 0,-0.18404 1.60443,-1.7039 2.11752,-2.00591 0.13857,-0.0816 1.83127,-0.37008 2.70676,-0.46135 0.60866,-0.0635 2.6816,0.22314 3.21628,0.44466 1.0392,0.43056 2.89557,2.55351 2.90154,3.31823 3.9e-4,0.071 0.0501,0.12905 0.11006,0.12905 0.75908,0 0.7882,3.69982 0.0383,4.86383 -0.19458,0.30203 -0.35379,0.63559 -0.35379,0.74123 0,0.10565 -0.14986,0.3395 -0.33303,0.51967 -0.18316,0.18017 -0.40383,0.45296 -0.49037,0.6062 -0.2123,0.37592 -1.31209,1.32155 -1.537,1.32155 -0.0992,0 -0.3385,0.11664 -0.53172,0.25919 -0.61951,0.45706 -2.71229,0.6875 -4.26721,0.46988 z m -61.41984,-10.38884 c -0.3287,-0.0796 -0.68579,-0.19196 -0.79354,-0.24962 -0.10774,-0.0577 -0.55889,-0.15344 -1.00254,-0.21282 -1.05311,-0.14098 -1.70323,-0.35669 -1.98777,-0.65957 -0.12652,-0.13468 -0.39872,-0.27652 -0.60487,-0.31519 -0.44051,-0.0826 -0.91757,-0.31007 -1.21046,-0.57707 -0.11499,-0.10482 -0.52724,-0.28886 -0.91611,-0.40897 -0.38888,-0.12011 -0.81821,-0.32954 -0.95407,-0.46541 -0.13586,-0.13586 -0.58032,-0.36293 -0.98768,-0.5046 -0.40736,-0.14166 -0.8498,-0.37528 -0.9832,-0.51915 -0.13341,-0.14387 -0.32197,-0.26203 -0.41904,-0.26259 -0.27621,-0.002 -1.25743,-0.49034 -1.32195,-0.6585 -0.0319,-0.0832 -0.36916,-0.24572 -0.74942,-0.36122 -0.39103,-0.11877 -0.83913,-0.34191 -1.03148,-0.51364 -0.18706,-0.167 -0.50944,-0.33541 -0.71642,-0.37423 -0.4378,-0.0821 -0.91613,-0.30864 -1.20935,-0.57269 -0.11356,-0.10225 -0.50845,-0.28666 -0.87752,-0.40978 -0.55977,-0.18675 -0.76999,-0.32939 -1.26777,-0.86019 l -0.59674,-0.63631 0.0619,-0.36133 c 0.0341,-0.19873 0.16975,-0.52393 0.30154,-0.72266 0.13179,-0.19873 0.3186,-0.60667 0.41513,-0.90653 0.0965,-0.29985 0.28565,-0.6761 0.42027,-0.83608 0.13462,-0.15999 0.35287,-0.58873 0.48501,-0.95276 0.56105,-1.54567 1.85508,-2.0251 2.95894,-1.09627 0.16722,0.14071 0.47997,0.28884 0.69499,0.32918 0.46422,0.0871 0.90891,0.30376 1.30933,0.63797 0.1605,0.13396 0.36956,0.24402 0.46456,0.24458 0.27431,0.002 1.18761,0.46952 1.38477,0.70947 0.0988,0.12026 0.27209,0.21865 0.38505,0.21865 0.36329,0 1.07871,0.32933 1.37623,0.63352 0.15902,0.16259 0.36808,0.29663 0.46456,0.29788 0.25083,0.003 1.06714,0.38836 1.31364,0.61975 0.11499,0.10794 0.51502,0.29075 0.88895,0.40625 0.37394,0.1155 0.79137,0.32148 0.92764,0.45775 0.13626,0.13626 0.45631,0.30386 0.71121,0.37244 0.55904,0.1504 1.009,0.36951 1.29557,0.63088 0.11697,0.10669 0.58154,0.30671 1.03237,0.44449 0.45083,0.13778 1.00373,0.34702 1.22866,0.46499 0.64934,0.34053 2.40023,0.31123 3.19693,-0.0535 0.32195,-0.14739 1.16695,-0.37534 1.87778,-0.50656 0.71084,-0.13121 1.37056,-0.30671 1.46605,-0.39 0.24078,-0.21 0.73263,-0.34997 1.87703,-0.53415 0.62423,-0.10047 1.19139,-0.26548 1.5602,-0.45394 0.40632,-0.20762 0.93018,-0.3501 1.75327,-0.47684 0.75793,-0.11672 1.25902,-0.24779 1.41431,-0.36994 0.31594,-0.24851 0.70111,-0.36542 1.84296,-0.55938 0.53781,-0.0914 1.13778,-0.2673 1.3937,-0.40872 0.30051,-0.16605 0.89397,-0.32142 1.79145,-0.469 0.78743,-0.12948 1.55788,-0.32234 1.86424,-0.46665 0.83336,-0.39255 3.14059,-0.67163 5.55262,-0.67163 3.21456,0 3.30116,0.0968 3.27692,3.66404 l -0.0126,1.85738 -0.35847,0.53989 c -0.58811,0.88576 -0.55426,0.87591 -3.3344,0.96981 -2.57178,0.0869 -3.0524,0.1557 -3.89118,0.55733 -0.2839,0.13593 -1.01916,0.34074 -1.6339,0.45511 -0.61475,0.11438 -1.35805,0.32524 -1.6518,0.46858 -0.35144,0.1715 -0.9856,0.32974 -1.85456,0.46276 -0.85379,0.13069 -1.51056,0.29343 -1.85827,0.46043 -0.2979,0.14309 -1.07573,0.35427 -1.74385,0.47348 -0.75856,0.13533 -1.37415,0.30911 -1.65903,0.46833 -0.29013,0.16217 -0.86349,0.32184 -1.59509,0.44423 -0.80188,0.13415 -1.22664,0.25753 -1.42575,0.41415 -0.34727,0.27317 -0.72152,0.37696 -2.10785,0.58454 -0.5923,0.0887 -1.13292,0.20773 -1.20135,0.26453 -0.45974,0.38155 -3.79549,0.5441 -5.02976,0.24511 z m 141.3201,-0.0547 c -0.34007,-0.26749 -0.7571,-1.07082 -0.84666,-1.63091 -0.0369,-0.23063 -0.12721,-0.50159 -0.20073,-0.60215 l -0.13367,-0.18282 -22.71813,-0.0516 -22.71812,-0.0516 -0.28624,-0.28599 -0.28623,-0.286 -0.0516,-2.29493 c -0.0764,-3.3987 -0.0334,-3.60702 0.78557,-3.79699 0.23214,-0.0539 9.86205,-0.0942 22.81725,-0.0956 18.18291,-0.002 22.43647,-0.0276 22.52619,-0.13573 0.0608,-0.0733 0.15923,-0.35025 0.21865,-0.61544 0.40868,-1.8236 1.25341,-2.3506 2.50319,-1.56165 0.23031,0.14539 0.81789,0.33768 1.39419,0.45625 0.63968,0.13162 1.10978,0.29131 1.31381,0.44629 0.18494,0.14047 0.6629,0.31529 1.14362,0.4183 0.45424,0.0973 1.15984,0.33656 1.56799,0.53162 0.40816,0.19506 0.82728,0.35466 0.93137,0.35466 0.38921,0 1.59919,0.39617 1.81702,0.59492 0.14085,0.12851 0.61238,0.28816 1.25106,0.42358 0.59636,0.12644 1.17919,0.31932 1.3937,0.46122 0.21058,0.13931 0.80166,0.33712 1.37836,0.46127 0.59923,0.129 1.14481,0.31374 1.34208,0.45444 0.18282,0.1304 0.55983,0.31731 0.83781,0.41536 1.27701,0.45045 1.14846,1.14161 -0.27368,1.47142 -0.38085,0.0883 -0.85862,0.27335 -1.0617,0.41117 -0.20308,0.13782 -0.72658,0.32432 -1.16333,0.41445 -0.43675,0.0901 -0.93346,0.23908 -1.1038,0.33099 -0.17034,0.0919 -0.42978,0.22935 -0.57653,0.30543 -0.14674,0.0761 -0.68699,0.2245 -1.20055,0.32984 -0.53708,0.11016 -1.07022,0.28871 -1.25503,0.4203 -0.17671,0.12583 -0.79173,0.34716 -1.3667,0.49184 -0.57498,0.14468 -1.20489,0.37128 -1.39982,0.50356 -0.19492,0.13228 -0.61918,0.29172 -0.9428,0.35432 -1.15286,0.223 -1.56915,0.33335 -1.56915,0.41593 0,0.15283 -0.86777,0.50035 -1.54855,0.62015 -0.36908,0.065 -0.90898,0.25371 -1.1998,0.41947 -0.62702,0.35738 -0.94629,0.37789 -1.31901,0.0847 z"
       id="path181" /></g><style
     id="style1">@media(prefers-color-scheme:dark){.lines{fill:#d7d7d7}}</style></svg>
