<?xml version="1.0" encoding="UTF-8" standalone="no"?>
<!-- Created with Inkscape (http://www.inkscape.org/) -->

<svg
   width="100.33685mm"
   height="33.841892mm"
   viewBox="0 0 100.33685 33.841892"
   version="1.1"
   id="svg1"
   xml:space="preserve"
   inkscape:version="1.4.4 (dcaf3e7, 2026-05-05)"
   sodipodi:docname="logos teams.svg"
   inkscape:export-batch-name="logos teams"
   inkscape:export-batch-path="Desktop"
   xmlns:inkscape="http://www.inkscape.org/namespaces/inkscape"
   xmlns:sodipodi="http://sodipodi.sourceforge.net/DTD/sodipodi-0.dtd"
   xmlns="http://www.w3.org/2000/svg"
   xmlns:svg="http://www.w3.org/2000/svg"><sodipodi:namedview
     id="namedview1"
     pagecolor="#ffffff"
     bordercolor="#000000"
     borderopacity="0.25"
     inkscape:showpageshadow="2"
     inkscape:pageopacity="0.0"
     inkscape:pagecheckerboard="0"
     inkscape:deskcolor="#d1d1d1"
     inkscape:document-units="mm"
     inkscape:zoom="0.69712823"
     inkscape:cx="489.14961"
     inkscape:cy="355.02794"
     inkscape:window-width="1920"
     inkscape:window-height="1050"
     inkscape:window-x="0"
     inkscape:window-y="30"
     inkscape:window-maximized="0"
     inkscape:current-layer="layer1"><inkscape:page
       x="0"
       y="0"
       width="100.33685"
       height="33.841892"
       id="page1"
       margin="0"
       bleed="0" /></sodipodi:namedview><defs
     id="defs1" /><g
     inkscape:label="Ebene 1"
     inkscape:groupmode="layer"
     id="layer1"
     transform="translate(-1079.9447,872.61521)"><path
       style="fill:#000000;stroke-width:0.490313"
       d="m 1128.3808,-838.84432 c -0.4188,-0.0371 -0.8476,-0.11358 -0.953,-0.16998 -0.1053,-0.0564 -0.5677,-0.14514 -1.0275,-0.19723 -0.4597,-0.0521 -0.9192,-0.14926 -1.021,-0.21595 -0.1018,-0.0667 -0.4516,-0.16276 -0.7774,-0.21348 -0.3258,-0.0507 -0.6865,-0.15135 -0.8016,-0.22361 -0.115,-0.0723 -0.3703,-0.15943 -0.5673,-0.19372 -0.1969,-0.0343 -0.4837,-0.13952 -0.6372,-0.23387 -0.1536,-0.0944 -0.3798,-0.17155 -0.5028,-0.17155 -0.1229,0 -0.3196,-0.075 -0.4371,-0.16674 -0.1174,-0.0917 -0.3142,-0.19489 -0.4373,-0.22929 -0.2378,-0.0664 -1.1179,-0.45866 -1.343,-0.5985 -0.074,-0.0459 -0.2626,-0.14253 -0.4195,-0.21474 -0.1569,-0.0722 -0.4389,-0.2333 -0.6267,-0.35797 -0.1879,-0.12466 -0.4019,-0.2656 -0.4758,-0.31318 -0.074,-0.0476 -0.2753,-0.18683 -0.4477,-0.30943 -0.1723,-0.12261 -0.405,-0.26363 -0.5171,-0.31339 -0.112,-0.0498 -0.2271,-0.15151 -0.2558,-0.22611 -0.029,-0.0746 -0.098,-0.13599 -0.1543,-0.13642 -0.1563,-10e-4 -0.7739,-0.61888 -0.7739,-0.77395 0,-0.23643 0.5453,-0.64252 1.431,-1.06579 0.1716,-0.082 0.4086,-0.22513 0.5269,-0.31816 0.1183,-0.093 0.2839,-0.16913 0.3681,-0.16913 0.084,0 0.2228,-0.077 0.3079,-0.17101 0.085,-0.0941 0.2594,-0.19728 0.3873,-0.22938 0.128,-0.0321 0.3283,-0.13366 0.4453,-0.22569 0.117,-0.092 0.3317,-0.19345 0.4771,-0.22539 0.1454,-0.0319 0.2644,-0.0966 0.2644,-0.14367 0,-0.0471 0.1712,-0.16649 0.3805,-0.26536 0.5596,-0.26436 0.9005,-0.43866 1.052,-0.53783 0.074,-0.0484 0.2854,-0.1531 0.47,-0.23275 0.1847,-0.0797 0.3358,-0.17568 0.3358,-0.21338 0,-0.0377 0.1813,-0.13778 0.4029,-0.22241 0.2216,-0.0846 0.4029,-0.18555 0.4029,-0.22429 0,-0.0387 0.151,-0.11994 0.3357,-0.18047 0.1847,-0.0605 0.4207,-0.16528 0.5245,-0.23279 0.1607,-0.10441 0.2046,-0.10378 0.2942,0.004 0.058,0.0698 0.2409,0.15238 0.4066,0.18345 0.1656,0.0311 0.3502,0.11558 0.4101,0.18779 0.06,0.0722 0.2755,0.17561 0.479,0.22978 0.2036,0.0542 0.4311,0.15286 0.5057,0.21929 0.075,0.0664 0.3091,0.15977 0.5212,0.20742 0.2121,0.0477 0.4532,0.14632 0.5359,0.21927 0.083,0.0729 0.3316,0.16058 0.5531,0.19475 0.2216,0.0342 0.5439,0.13314 0.7163,0.21992 0.1723,0.0868 0.5719,0.18684 0.8879,0.22235 0.3159,0.0355 0.7514,0.12463 0.9677,0.19805 1.1637,0.39509 4.322,-0.26683 4.322,-0.9058 0,-0.0558 0.091,-0.19881 0.2015,-0.31774 0.284,-0.30491 0.2992,-1.55157 0.022,-1.8385 -0.098,-0.10207 -0.2902,-0.31358 -0.426,-0.47004 -0.1358,-0.15645 -0.3008,-0.28446 -0.3666,-0.28446 -0.066,0 -0.1927,-0.0806 -0.2818,-0.17906 -0.089,-0.0985 -0.2304,-0.17906 -0.3139,-0.17906 -0.084,0 -0.3413,-0.10073 -0.5728,-0.22383 -0.2315,-0.12311 -0.5101,-0.22383 -0.619,-0.22383 -0.1089,0 -0.3425,-0.0774 -0.519,-0.17204 -0.1766,-0.0946 -0.5477,-0.21396 -0.8248,-0.26518 -0.2771,-0.0512 -0.5954,-0.15073 -0.7073,-0.22114 -0.1119,-0.0704 -0.4015,-0.15598 -0.6434,-0.19017 -0.242,-0.0342 -0.5839,-0.13927 -0.7597,-0.23353 -0.1759,-0.0943 -0.4227,-0.17138 -0.5484,-0.17138 -0.1257,0 -0.3859,-0.0802 -0.5782,-0.17826 -0.1924,-0.098 -0.493,-0.20367 -0.6681,-0.23472 -0.1751,-0.031 -0.4392,-0.12685 -0.587,-0.21288 -0.1477,-0.086 -0.4069,-0.18233 -0.576,-0.214 -0.1691,-0.0317 -0.3706,-0.11378 -0.4477,-0.18248 -0.077,-0.0687 -0.3067,-0.16923 -0.5102,-0.22341 -0.2036,-0.0542 -0.42,-0.15864 -0.481,-0.23215 -0.061,-0.0735 -0.1595,-0.13366 -0.2189,-0.13366 -0.2842,0 -1.637,-1.02979 -2.3493,-1.78821 -0.2556,-0.27216 -0.5476,-0.57965 -0.6491,-0.68331 -0.1014,-0.10367 -0.1844,-0.22834 -0.1844,-0.27705 0,-0.0487 -0.097,-0.20125 -0.2151,-0.33898 -0.1184,-0.13772 -0.2387,-0.36791 -0.2674,-0.51154 -0.029,-0.14362 -0.1109,-0.31971 -0.1824,-0.39131 -0.072,-0.0716 -0.156,-0.32106 -0.1875,-0.55437 -0.031,-0.23331 -0.1245,-0.62565 -0.2067,-0.87186 -0.2092,-0.62618 -0.2087,-2.76724 8e-4,-3.40218 0.081,-0.24621 0.1731,-0.66281 0.2042,-0.92577 0.031,-0.26296 0.1353,-0.62497 0.2315,-0.80445 0.096,-0.17949 0.1749,-0.41216 0.1749,-0.51704 0,-0.10488 0.075,-0.28678 0.1668,-0.40422 0.092,-0.11743 0.1965,-0.30832 0.2328,-0.42419 0.2796,-0.892 2.1588,-3.01357 3.3717,-3.80651 0.5371,-0.35115 0.9263,-0.58457 1.2873,-0.77196 0.1969,-0.10226 0.4588,-0.24439 0.5819,-0.31586 0.1231,-0.0715 0.2894,-0.13052 0.3695,-0.13124 0.08,-4.9e-4 0.193,-0.0582 0.2507,-0.12775 0.058,-0.0695 0.3032,-0.17399 0.5455,-0.23212 0.2423,-0.0581 0.5912,-0.18254 0.7755,-0.27646 0.1842,-0.0939 0.4696,-0.17077 0.6343,-0.17077 0.1646,0 0.4737,-0.0794 0.6868,-0.17652 0.2502,-0.11398 0.6951,-0.19814 1.2558,-0.23756 0.5346,-0.0376 0.9148,-0.10739 0.989,-0.18161 0.1611,-0.16104 5.2023,-0.1789 5.2557,-0.0186 0.021,0.0618 0.4378,0.13318 1.0595,0.18126 0.564,0.0436 1.1954,0.14162 1.4032,0.21777 0.2078,0.0762 0.6496,0.17697 0.9818,0.22401 0.3322,0.0471 0.6868,0.13981 0.7881,0.20614 0.1012,0.0663 0.3644,0.14927 0.585,0.1843 0.2205,0.0351 0.5419,0.1347 0.7143,0.22146 0.1723,0.0868 0.4745,0.18747 0.6714,0.22379 0.197,0.0363 0.4258,0.12669 0.5084,0.20083 0.083,0.0741 0.3238,0.17379 0.5359,0.22143 0.2121,0.0477 0.4466,0.13965 0.5212,0.20443 0.075,0.0648 0.2835,0.16524 0.4642,0.22323 0.1807,0.058 0.377,0.1638 0.4362,0.23515 0.059,0.0713 0.1779,0.12972 0.2637,0.12972 0.086,0 0.2603,0.082 0.3878,0.18225 0.1274,0.10024 0.3448,0.2217 0.4831,0.26991 0.1383,0.0482 0.3685,0.23435 0.5116,0.41364 l 0.2601,0.32597 -0.2039,0.16513 c -0.1122,0.0908 -0.2556,0.16512 -0.3188,0.16512 -0.063,0 -0.1364,0.0564 -0.1628,0.12529 -0.026,0.0689 -0.202,0.17546 -0.3901,0.2368 -0.1881,0.0613 -0.3622,0.14122 -0.3868,0.17751 -0.045,0.0664 -0.495,0.31217 -1.0729,0.58594 -0.1715,0.0813 -0.4086,0.22386 -0.5268,0.31689 -0.1183,0.093 -0.284,0.16913 -0.3682,0.16913 -0.084,0 -0.224,0.0783 -0.3106,0.17399 -0.087,0.0957 -0.2736,0.19952 -0.4157,0.23072 -0.142,0.0312 -0.2833,0.0972 -0.3139,0.14678 -0.031,0.0495 -0.2225,0.17035 -0.4263,0.2685 -0.592,0.28502 -1.0978,0.55965 -1.2316,0.6687 -0.068,0.0555 -0.2246,0.13067 -0.3477,0.16697 -0.1231,0.0363 -0.3044,0.13898 -0.4029,0.22815 -0.099,0.0892 -0.2882,0.18922 -0.4216,0.22232 -0.1334,0.0331 -0.2877,0.11461 -0.3429,0.18112 -0.055,0.0665 -0.2382,0.16641 -0.4066,0.22199 -0.1684,0.0556 -0.3062,0.1366 -0.3062,0.18005 0,0.0434 -0.1616,0.12741 -0.3592,0.1866 -0.1975,0.0592 -0.4027,0.16004 -0.4558,0.22411 -0.079,0.0954 -0.1317,0.0944 -0.29,-0.006 -0.1062,-0.0673 -0.3726,-0.15132 -0.592,-0.1867 -0.2193,-0.0353 -0.5416,-0.13607 -0.7162,-0.22376 -0.1746,-0.0877 -0.5189,-0.18663 -0.7652,-0.21986 -0.2462,-0.0332 -0.5391,-0.11919 -0.651,-0.19104 -0.5226,-0.33576 -3.9036,-0.33002 -4.291,0.007 -0.832,0.72442 -0.7879,0.64146 -0.7879,1.482 0,1.11238 0.9325,1.99243 2.5068,2.36586 0.1478,0.0351 0.3291,0.11565 0.4029,0.17912 0.074,0.0635 0.2955,0.13994 0.4924,0.16991 0.197,0.03 0.5178,0.13605 0.7128,0.23573 0.1951,0.0997 0.4576,0.18125 0.5833,0.18125 0.1257,0 0.3736,0.0777 0.5509,0.17272 0.1772,0.095 0.4788,0.20063 0.6701,0.23472 0.1914,0.0341 0.4688,0.13254 0.6165,0.21876 0.1478,0.0862 0.4489,0.18396 0.6692,0.2172 0.2203,0.0332 0.462,0.11382 0.5372,0.17908 0.075,0.0653 0.3461,0.1676 0.6022,0.22743 0.2561,0.0598 0.5102,0.16253 0.5647,0.22822 0.054,0.0657 0.2554,0.14583 0.4464,0.17809 0.1909,0.0323 0.4365,0.13614 0.5457,0.23083 0.1092,0.0947 0.2651,0.17216 0.3465,0.17216 0.081,0 0.2845,0.10072 0.4513,0.22383 0.1669,0.1231 0.3509,0.22383 0.4089,0.22383 0.3764,0 2.7504,2.34196 2.9631,2.92314 0.033,0.0911 0.1299,0.25598 0.2144,0.36634 0.085,0.11037 0.1818,0.3521 0.2162,0.53719 0.034,0.18509 0.1185,0.39907 0.187,0.47552 0.1618,0.18049 0.4287,2.64479 0.3583,3.30795 -0.029,0.27083 -0.09,0.8971 -0.137,1.3917 -0.052,0.54802 -0.1554,1.0551 -0.2657,1.2982 -0.099,0.21941 -0.1818,0.50428 -0.1829,0.63306 -8e-4,0.12877 -0.077,0.33022 -0.1694,0.44765 -0.092,0.11744 -0.1959,0.34422 -0.2308,0.50397 -0.035,0.15974 -0.113,0.3209 -0.1736,0.35812 -0.061,0.0372 -0.1618,0.19571 -0.225,0.35219 -0.063,0.15647 -0.1917,0.35409 -0.2857,0.43914 -0.094,0.0851 -0.1709,0.20742 -0.1709,0.27192 0,0.0645 -0.081,0.16039 -0.1791,0.2131 -0.099,0.0527 -0.179,0.13793 -0.179,0.18938 0,0.10371 -1.3506,1.51062 -1.4508,1.51129 -0.035,2.3e-4 -0.1599,0.0911 -0.2782,0.20187 -0.3768,0.35294 -1.2578,0.96246 -1.3912,0.96246 -0.038,0 -0.2047,0.10072 -0.3715,0.22382 -0.1669,0.12311 -0.3707,0.22383 -0.453,0.22383 -0.082,0 -0.2525,0.0809 -0.3782,0.17985 -0.1258,0.0989 -0.3629,0.20493 -0.5269,0.23557 -0.164,0.0307 -0.4191,0.12589 -0.5669,0.21164 -0.1477,0.0858 -0.4426,0.18212 -0.6554,0.21415 -0.2127,0.032 -0.4746,0.11545 -0.5819,0.18538 -0.1073,0.0699 -0.5175,0.16906 -0.9114,0.22029 -0.3939,0.0512 -0.8976,0.15911 -1.1191,0.23975 -0.4562,0.16599 -4.9277,0.25937 -6.3571,0.13276 z m 32.6791,8.6e-4 c -0.32,-0.0362 -0.6767,-0.11702 -0.7925,-0.1796 -0.1159,-0.0626 -0.4771,-0.15151 -0.8028,-0.19763 -0.3256,-0.0461 -0.6782,-0.14029 -0.7835,-0.20926 -0.1053,-0.069 -0.3484,-0.15408 -0.5402,-0.18913 -0.1919,-0.035 -0.4899,-0.13859 -0.6622,-0.23012 -0.1724,-0.0915 -0.4544,-0.22613 -0.6267,-0.29912 -0.1724,-0.073 -0.3738,-0.16951 -0.4477,-0.21449 -0.074,-0.045 -0.235,-0.12905 -0.3581,-0.18684 -0.3642,-0.17096 -0.7614,-0.40311 -0.9001,-0.52608 -0.1134,-0.10056 -0.3909,-0.28765 -0.885,-0.59664 -0.2384,-0.1491 -0.4564,-0.35005 -1.4748,-1.35953 -1.2109,-1.20025 -1.3062,-1.30567 -1.3062,-1.44428 0,-0.0614 -0.055,-0.13272 -0.1225,-0.15857 -0.1203,-0.0461 -0.6833,-0.85085 -0.6833,-0.97657 0,-0.0353 -0.1007,-0.1838 -0.2238,-0.3301 -0.1231,-0.14631 -0.2238,-0.33725 -0.2238,-0.42433 0,-0.0871 -0.077,-0.22762 -0.1702,-0.31234 -0.094,-0.0847 -0.1954,-0.28835 -0.2262,-0.45253 -0.031,-0.16418 -0.1143,-0.3469 -0.1856,-0.40604 -0.071,-0.0591 -0.1553,-0.25456 -0.1867,-0.43427 -0.031,-0.17971 -0.1211,-0.42746 -0.1991,-0.55057 -0.078,-0.1231 -0.1914,-0.46556 -0.2521,-0.76101 -0.061,-0.29546 -0.1716,-0.71849 -0.2467,-0.94008 -0.075,-0.22159 -0.1787,-0.80578 -0.2303,-1.2982 -0.052,-0.49242 -0.1318,-1.09676 -0.178,-1.34297 -0.1067,-0.56768 -0.1048,-1.89775 0,-2.5964 0.046,-0.29545 0.1261,-0.96022 0.1783,-1.47726 0.052,-0.51704 0.1691,-1.14152 0.2596,-1.38773 0.091,-0.24622 0.1917,-0.64563 0.2247,-0.8876 0.033,-0.24196 0.1371,-0.58382 0.2314,-0.75968 0.094,-0.17587 0.1713,-0.3927 0.1713,-0.48186 0,-0.0892 0.1008,-0.35132 0.2239,-0.58257 0.1231,-0.23125 0.2238,-0.48635 0.2238,-0.56689 0,-0.0805 0.058,-0.19487 0.1297,-0.25408 0.071,-0.0592 0.1765,-0.25552 0.2337,-0.43624 0.057,-0.18072 0.1536,-0.36886 0.2143,-0.41811 0.061,-0.0492 0.1589,-0.23705 0.2183,-0.41736 0.059,-0.1803 0.1665,-0.35026 0.2379,-0.37769 0.072,-0.0274 0.13,-0.10603 0.13,-0.17467 0,-0.0686 0.1108,-0.26969 0.2462,-0.44678 0.1354,-0.1771 0.3469,-0.46561 0.47,-0.64115 0.1232,-0.17554 0.3045,-0.41415 0.4029,-0.53024 0.098,-0.11609 0.3,-0.36564 0.4477,-0.55456 0.3134,-0.40083 1.574,-1.6614 2.0503,-2.05035 0.1809,-0.14773 0.4272,-0.34917 0.5473,-0.44766 0.1201,-0.0985 0.3631,-0.27978 0.54,-0.40289 0.1769,-0.1231 0.4297,-0.30896 0.5617,-0.41302 0.132,-0.10405 0.327,-0.21639 0.4332,-0.24962 0.1063,-0.0332 0.2144,-0.11552 0.2402,-0.18287 0.026,-0.0674 0.1664,-0.14867 0.3123,-0.18073 0.146,-0.0321 0.3342,-0.13429 0.4183,-0.22719 0.084,-0.0929 0.2736,-0.19544 0.4212,-0.22787 0.1477,-0.0324 0.345,-0.13543 0.4384,-0.22891 0.093,-0.0935 0.2283,-0.16994 0.2995,-0.16994 0.071,0 0.319,-0.10072 0.5505,-0.22383 0.2316,-0.1231 0.4808,-0.22382 0.5538,-0.22382 0.073,0 0.2584,-0.0754 0.4119,-0.16766 0.1536,-0.0922 0.4533,-0.19387 0.666,-0.2259 0.2127,-0.032 0.476,-0.11664 0.5849,-0.18803 0.109,-0.0714 0.4798,-0.16976 0.8241,-0.21859 0.3443,-0.0488 0.7459,-0.14756 0.8924,-0.2194 0.1577,-0.0774 0.7571,-0.16389 1.4701,-0.21222 0.7711,-0.0523 1.2162,-0.1191 1.2385,-0.18592 0.047,-0.14043 2.7658,-0.14788 2.8126,-0.008 0.018,0.0549 0.495,0.13537 1.1042,0.18638 0.5896,0.0494 1.195,0.14771 1.3453,0.21855 0.1503,0.0708 0.508,0.167 0.7948,0.21368 0.2868,0.0467 0.6112,0.14365 0.7208,0.2155 0.1097,0.0718 0.3564,0.15746 0.5482,0.19027 0.1919,0.0328 0.4496,0.12837 0.5727,0.21236 0.1231,0.084 0.395,0.20271 0.6043,0.26382 0.2093,0.0611 0.3805,0.14657 0.3805,0.18993 0,0.0433 0.119,0.10495 0.2644,0.13689 0.1454,0.0319 0.3601,0.13336 0.4771,0.22539 0.117,0.092 0.3174,0.19359 0.4453,0.22569 0.1279,0.0321 0.3022,0.13532 0.3873,0.22938 0.085,0.0941 0.2058,0.17101 0.2683,0.17101 0.062,0 0.2332,0.10072 0.3795,0.22383 0.1464,0.1231 0.3103,0.22382 0.3643,0.22382 0.054,0 0.1485,0.0806 0.21,0.17907 0.062,0.0985 0.1421,0.17906 0.1791,0.17906 0.037,0 0.2388,0.13183 0.4485,0.29296 1.7301,1.32933 2.3258,2.21973 1.6557,2.47452 -0.1141,0.0434 -0.2589,0.1409 -0.3218,0.21673 -0.063,0.0758 -0.2321,0.1637 -0.3758,0.19528 -0.1438,0.0316 -0.2865,0.0979 -0.3171,0.14746 -0.031,0.0495 -0.2224,0.16901 -0.4263,0.26552 -0.2038,0.0965 -0.5318,0.27418 -0.7287,0.39483 -0.197,0.12066 -0.4985,0.28456 -0.67,0.36424 -0.1715,0.0797 -0.4086,0.22097 -0.5269,0.314 -0.1183,0.093 -0.2839,0.16914 -0.3681,0.16914 -0.084,0 -0.2228,0.077 -0.3079,0.171 -0.085,0.0941 -0.2626,0.19792 -0.3944,0.23081 -0.1318,0.0329 -0.3015,0.11555 -0.3772,0.1837 -0.076,0.0682 -0.2771,0.189 -0.4476,0.26857 -0.1706,0.0796 -0.5116,0.25967 -0.7578,0.40024 -0.2462,0.14057 -0.5987,0.32312 -0.7834,0.40566 -0.1846,0.0825 -0.3357,0.17988 -0.3357,0.21631 0,0.0364 -0.1511,0.1314 -0.3358,0.21106 -0.1846,0.0797 -0.3961,0.18439 -0.47,0.23275 -0.074,0.0483 -0.2552,0.14843 -0.4029,0.22237 -0.1477,0.0739 -0.4096,0.20538 -0.5819,0.29209 -0.1724,0.0867 -0.3738,0.20625 -0.4477,0.26565 -0.8108,0.65196 -1.5446,0.36979 -1.1258,-0.4329 0.494,-0.94694 0.3197,-2.15975 -0.3256,-2.26592 -0.2112,-0.0348 -0.553,-0.13928 -0.7596,-0.23228 -0.5019,-0.22599 -2.6233,-0.24649 -3.1406,-0.0303 -0.1827,0.0763 -0.5125,0.17918 -0.7329,0.22859 -0.3599,0.0806 -0.9402,0.34077 -1.7683,0.79263 -0.5143,0.28066 -1.5684,1.20003 -2.006,1.74977 -0.2352,0.29546 -0.5031,0.62208 -0.5954,0.72584 -0.092,0.10375 -0.2201,0.31527 -0.2842,0.47004 -0.064,0.15476 -0.1504,0.28139 -0.1918,0.28139 -0.041,0 -0.1173,0.15646 -0.1689,0.34769 -0.052,0.19123 -0.1506,0.395 -0.2202,0.45281 -0.07,0.0578 -0.1538,0.27402 -0.1871,0.48047 -0.033,0.20644 -0.1232,0.47429 -0.2001,0.59521 -0.4561,0.71709 -0.4529,5.11381 0,5.83421 0.074,0.11721 0.1638,0.35412 0.1987,0.52647 0.035,0.17234 0.1179,0.37526 0.1844,0.45093 0.066,0.0757 0.1835,0.28718 0.2599,0.47004 0.076,0.18285 0.1759,0.33246 0.2212,0.33246 0.045,0 0.1108,0.0906 0.1457,0.20145 0.066,0.21078 1.3264,1.49964 1.466,1.49964 0.044,0 0.1943,0.0952 0.3335,0.21158 0.1392,0.11637 0.3538,0.242 0.4769,0.27918 0.1231,0.0372 0.2876,0.12339 0.3655,0.19157 0.078,0.0682 0.3715,0.16646 0.6525,0.2184 0.2809,0.0519 0.6755,0.15255 0.8768,0.22357 0.4746,0.16744 1.7752,0.1693 2.1729,0.003 0.1659,-0.0693 0.5965,-0.17177 0.9568,-0.22768 0.3604,-0.0559 0.7195,-0.15987 0.7981,-0.23103 0.079,-0.0712 0.2814,-0.15554 0.4505,-0.1875 0.1691,-0.032 0.3705,-0.11252 0.4476,-0.17901 0.077,-0.0665 0.2785,-0.16813 0.4476,-0.22586 0.1692,-0.0577 0.4037,-0.17911 0.5211,-0.26972 0.1174,-0.0906 0.2631,-0.16473 0.3237,-0.16473 0.061,0 0.2115,-0.0797 0.3354,-0.17722 l 0.2253,-0.17721 0.5254,0.27283 c 0.289,0.15006 0.7269,0.38549 0.9731,0.52317 0.2462,0.13769 0.7363,0.39861 1.0891,0.57984 0.3528,0.18122 0.6879,0.38556 0.7448,0.45407 0.057,0.0685 0.221,0.1504 0.3648,0.18198 0.1437,0.0316 0.2864,0.0979 0.317,0.14746 0.031,0.0495 0.2224,0.16938 0.4263,0.26634 0.2039,0.097 0.5721,0.29132 0.8183,0.43191 0.4228,0.24143 0.7234,0.40456 1.4928,0.81014 0.6653,0.35069 0.7498,0.67686 0.2833,1.09393 -0.1803,0.16123 -0.4362,0.39387 -0.5687,0.51697 -0.4135,0.38445 -0.8455,0.71292 -0.9397,0.71462 -0.05,8.6e-4 -0.1407,0.0822 -0.2022,0.18069 -0.062,0.0985 -0.1576,0.17906 -0.2135,0.17906 -0.056,0 -0.1866,0.0843 -0.2902,0.1873 -0.2499,0.24833 -1.6683,1.15567 -1.8066,1.15567 -0.06,0 -0.1303,0.0566 -0.1569,0.12585 -0.027,0.0692 -0.1691,0.15239 -0.3168,0.18482 -0.1476,0.0324 -0.3147,0.11475 -0.3713,0.18293 -0.057,0.0682 -0.2507,0.17217 -0.4315,0.23109 -0.1807,0.0589 -0.4188,0.1773 -0.5292,0.26306 -0.1104,0.0858 -0.338,0.18169 -0.5058,0.21318 -0.1678,0.0315 -0.3535,0.11555 -0.4127,0.1868 -0.059,0.0713 -0.2545,0.15567 -0.4343,0.18759 -0.1797,0.0319 -0.4476,0.12857 -0.5953,0.21479 -0.1477,0.0862 -0.4297,0.18106 -0.6267,0.21076 -0.197,0.0297 -0.5177,0.13555 -0.7128,0.23523 -0.1951,0.0997 -0.5058,0.18124 -0.6906,0.18124 -0.1847,0 -0.5488,0.087 -0.8092,0.19321 -0.5104,0.20835 -4.7858,0.32886 -6.1586,0.17359 z m -81.1152,-1.39644 c 0,-0.81179 0.026,-1.02961 0.1226,-1.02961 0.1184,0 0.2324,-0.42675 0.2346,-0.87784 5e-4,-0.11349 0.077,-0.37537 0.1691,-0.58195 0.092,-0.20658 0.1963,-0.57704 0.2308,-0.82325 0.034,-0.24621 0.1211,-0.53855 0.1924,-0.64964 0.071,-0.1111 0.1693,-0.41047 0.2176,-0.66526 0.048,-0.2548 0.1429,-0.52651 0.2101,-0.60379 0.067,-0.0773 0.1508,-0.30168 0.1858,-0.49865 0.035,-0.19697 0.1359,-0.47899 0.2243,-0.62672 0.088,-0.14772 0.1867,-0.41563 0.2187,-0.59534 0.032,-0.17971 0.1148,-0.37386 0.1842,-0.43146 0.069,-0.0576 0.1535,-0.22942 0.187,-0.38184 0.034,-0.15242 0.1569,-0.45781 0.2744,-0.67863 0.1174,-0.22083 0.2134,-0.45965 0.2134,-0.53072 0,-0.0711 0.081,-0.23167 0.1791,-0.35687 0.098,-0.1252 0.1791,-0.28677 0.1791,-0.35905 0,-0.11106 0.2667,-0.68405 0.5526,-1.18741 0.042,-0.0739 0.1585,-0.29545 0.2589,-0.49242 0.1004,-0.19697 0.2986,-0.55957 0.4405,-0.80578 0.1418,-0.24621 0.3242,-0.59563 0.4052,-0.77649 0.081,-0.18085 0.2046,-0.35082 0.2746,-0.37769 0.07,-0.0269 0.1274,-0.12762 0.1274,-0.22387 0,-0.0962 0.1007,-0.29471 0.2238,-0.44101 0.1231,-0.1463 0.2238,-0.30235 0.2238,-0.34678 0,-0.0444 0.061,-0.15948 0.1346,-0.25567 0.3474,-0.45155 0.5879,-0.82269 0.6788,-1.04782 0.055,-0.13541 0.1331,-0.24621 0.1742,-0.24621 0.041,0 0.099,-0.077 0.1291,-0.1712 0.051,-0.16172 0.4133,-0.67851 0.7063,-1.00831 0.073,-0.0824 0.183,-0.2436 0.2438,-0.35812 0.061,-0.11453 0.2869,-0.42982 0.5024,-0.70065 0.2154,-0.27083 0.4506,-0.573 0.5227,-0.67148 0.2601,-0.35559 1.0576,-1.34743 1.2415,-1.544 0.1033,-0.11058 0.3693,-0.40647 0.5908,-0.65755 0.6291,-0.71275 2.6434,-2.76742 2.7131,-2.76742 0.034,0 0.2137,-0.15564 0.3982,-0.34586 0.352,-0.36262 1.1676,-1.0333 2.0838,-1.71336 0.2985,-0.22159 0.6517,-0.48803 0.785,-0.59209 0.1333,-0.10405 0.333,-0.21756 0.4438,-0.25224 0.1108,-0.0347 0.2015,-0.10128 0.2015,-0.14799 0,-0.0467 0.141,-0.1522 0.3133,-0.23438 0.1724,-0.0822 0.3134,-0.17788 0.3134,-0.21266 0,-0.0348 0.1611,-0.12771 0.3581,-0.20652 0.197,-0.0788 0.3581,-0.18078 0.3581,-0.2266 0,-0.0458 0.1511,-0.13243 0.3358,-0.19246 0.1846,-0.06 0.3679,-0.16387 0.4073,-0.23077 0.039,-0.0669 0.1244,-0.12163 0.1889,-0.12163 0.064,0 0.2597,-0.0966 0.4336,-0.2146 0.174,-0.11803 0.4387,-0.24149 0.5883,-0.27435 0.1496,-0.0328 0.3183,-0.11553 0.3749,-0.18371 0.057,-0.0682 0.2507,-0.1714 0.4315,-0.22939 0.1807,-0.058 0.3916,-0.1603 0.4687,-0.22735 0.077,-0.0671 0.2786,-0.14926 0.4477,-0.18268 0.1691,-0.0334 0.4082,-0.13087 0.5313,-0.21652 0.1231,-0.0857 0.385,-0.18308 0.5819,-0.21647 0.197,-0.0334 0.4214,-0.11739 0.4987,-0.18668 0.077,-0.0693 0.349,-0.16551 0.6038,-0.21383 0.2548,-0.0483 0.5541,-0.14697 0.6652,-0.21922 0.1111,-0.0722 0.4236,-0.1594 0.6944,-0.19366 0.2709,-0.0343 0.6117,-0.12267 0.7575,-0.19646 0.1458,-0.0738 0.587,-0.17019 0.9804,-0.21421 0.3935,-0.044 0.8987,-0.14867 1.1227,-0.23255 0.6734,-0.25215 9.2629,-0.28726 9.3961,-0.0384 0.1014,0.18949 -0.026,1.23137 -0.1723,1.40749 -0.045,0.0541 -0.1237,0.46874 -0.1749,0.92129 -0.051,0.45254 -0.1526,0.97366 -0.2251,1.15804 -0.072,0.18437 -0.1702,0.67767 -0.2171,1.09623 -0.047,0.41856 -0.1433,0.90203 -0.2142,1.07438 -0.071,0.17234 -0.1574,0.61478 -0.1923,0.9832 -0.035,0.36841 -0.1207,0.80698 -0.1907,0.97458 -0.07,0.16761 -0.1682,0.66543 -0.2181,1.10626 -0.05,0.44083 -0.1462,0.90877 -0.2138,1.03986 -0.068,0.13109 -0.1526,0.56067 -0.1888,0.9546 -0.036,0.39394 -0.1354,0.89755 -0.2206,1.11914 -0.085,0.22159 -0.1803,0.71633 -0.2114,1.09943 -0.031,0.3831 -0.1144,0.80815 -0.1849,0.94457 -0.071,0.13641 -0.1695,0.61722 -0.2199,1.06845 -0.05,0.45124 -0.1374,0.90616 -0.1935,1.01094 -0.056,0.10478 -0.1576,0.61406 -0.2255,1.13172 -0.068,0.51767 -0.1674,0.99402 -0.221,1.05856 -0.054,0.0645 -0.135,0.48117 -0.181,0.92583 -0.046,0.44467 -0.1439,0.96178 -0.2177,1.14913 -0.074,0.18736 -0.1724,0.68311 -0.2193,1.10167 -0.047,0.41855 -0.1435,0.90202 -0.2148,1.07437 -0.071,0.17235 -0.1573,0.62007 -0.1913,0.99493 -0.034,0.37487 -0.1203,0.79438 -0.1918,0.93224 -0.072,0.13786 -0.1669,0.60721 -0.212,1.04299 -0.083,0.79985 -0.3122,1.32733 -0.5773,1.32733 -0.063,0 -0.1852,0.0783 -0.2718,0.17399 -0.087,0.0957 -0.2699,0.1987 -0.4074,0.2289 -0.1376,0.0302 -0.3189,0.13093 -0.4029,0.22383 -0.084,0.0929 -0.2691,0.19444 -0.4112,0.22564 -0.1421,0.0312 -0.2833,0.0973 -0.3139,0.14678 -0.031,0.0495 -0.2225,0.16679 -0.4263,0.26058 -0.3746,0.17231 -0.4719,0.2277 -1.047,0.59583 -0.175,0.11202 -0.3836,0.20367 -0.4636,0.20367 -0.08,0 -0.2074,0.0619 -0.283,0.13755 -0.076,0.0757 -0.2773,0.19591 -0.448,0.26724 -0.1707,0.0713 -0.3338,0.16764 -0.3625,0.21404 -0.029,0.0464 -0.2026,0.13328 -0.3866,0.19308 -0.184,0.0598 -0.365,0.16044 -0.4023,0.22364 -0.037,0.0632 -0.2186,0.16458 -0.4029,0.22527 -0.1843,0.0607 -0.3754,0.15998 -0.4246,0.22066 -0.049,0.0607 -0.2406,0.15818 -0.4253,0.21667 -0.1846,0.0585 -0.3357,0.13741 -0.3357,0.17536 0,0.038 -0.1511,0.13679 -0.3358,0.21963 -0.1846,0.0828 -0.5371,0.26782 -0.7834,0.41106 -0.2462,0.14325 -0.5484,0.30315 -0.6715,0.35533 -0.1231,0.0522 -0.2842,0.13601 -0.3581,0.18627 -0.074,0.0503 -0.2753,0.15282 -0.4476,0.2279 -0.1724,0.0751 -0.4067,0.1832 -0.5207,0.24027 -0.3637,0.18211 -0.5172,-0.41838 -0.2418,-0.94635 0.072,-0.13894 0.1718,-0.5718 0.2207,-0.96192 0.049,-0.39012 0.1455,-0.82034 0.2146,-0.95606 0.069,-0.13571 0.155,-0.52783 0.1909,-0.87136 0.036,-0.34353 0.136,-0.80686 0.2223,-1.02961 0.086,-0.22275 0.1826,-0.66024 0.214,-0.97221 0.031,-0.31197 0.1163,-0.69471 0.1887,-0.85055 0.072,-0.15583 0.1696,-0.5855 0.2156,-0.95481 0.046,-0.36932 0.1103,-0.73679 0.1426,-0.81661 0.1338,-0.33077 -0.4463,-0.26595 -0.9143,0.10215 -0.124,0.0975 -0.2943,0.17727 -0.3785,0.17727 -0.084,0 -0.2239,0.0783 -0.3105,0.17399 -0.087,0.0957 -0.2737,0.19951 -0.4158,0.23072 -0.142,0.0312 -0.2833,0.0973 -0.3139,0.14678 -0.031,0.0495 -0.2225,0.17035 -0.4263,0.2685 -0.6089,0.29317 -1.0999,0.56112 -1.2321,0.67246 -0.068,0.0576 -0.232,0.13172 -0.3635,0.16473 -0.1315,0.033 -0.3088,0.13697 -0.3939,0.23103 -0.085,0.0941 -0.2262,0.17101 -0.3136,0.17101 -0.087,0 -0.2207,0.0619 -0.2963,0.13755 -0.076,0.0757 -0.2859,0.19952 -0.4671,0.27525 -0.1813,0.0757 -0.3869,0.19507 -0.4571,0.2652 -0.07,0.0701 -0.2312,0.15354 -0.358,0.18537 -0.1268,0.0318 -0.3012,0.1285 -0.3875,0.21484 -0.086,0.0863 -0.282,0.18444 -0.4347,0.21799 -0.1527,0.0335 -0.2777,0.0962 -0.2777,0.13922 0,0.043 -0.1712,0.15969 -0.3805,0.25925 -0.2093,0.0996 -0.441,0.21581 -0.5148,0.25832 -0.3401,0.19574 -0.6972,0.38366 -0.9834,0.51745 -0.1715,0.0802 -0.4086,0.22192 -0.5269,0.31495 -0.1182,0.093 -0.2839,0.16913 -0.3681,0.16913 -0.084,0 -0.2227,0.077 -0.3079,0.17101 -0.085,0.0941 -0.2626,0.19777 -0.3943,0.23047 -0.1318,0.0327 -0.3202,0.13241 -0.4187,0.22159 -0.098,0.0892 -0.279,0.19257 -0.4012,0.22978 -0.1221,0.0372 -0.3236,0.1341 -0.4476,0.21532 -0.4178,0.27355 -0.5824,0.36733 -0.8956,0.51035 -0.1715,0.0783 -0.4086,0.21854 -0.5269,0.31156 -0.1182,0.093 -0.2839,0.16914 -0.3681,0.16914 -0.084,0 -0.2227,0.077 -0.3079,0.17101 -0.085,0.0941 -0.2626,0.19792 -0.3944,0.2308 -0.1317,0.0329 -0.3015,0.11555 -0.3771,0.1837 -0.076,0.0682 -0.2771,0.18829 -0.4477,0.26699 -0.1705,0.0787 -0.4108,0.2005 -0.5339,0.27069 -0.1833,0.10449 -0.8684,0.12784 -3.7827,0.12892 l -3.5589,10e-4 z m 23.887,-8.74719 c 0.059,-0.0591 0.1076,-0.19003 0.1079,-0.29097 3e-4,-0.10095 0.064,-0.30441 0.1407,-0.45214 0.077,-0.14772 0.1756,-0.57902 0.2189,-0.95843 0.043,-0.37942 0.1395,-0.80732 0.2138,-0.9509 0.074,-0.14359 0.1624,-0.53821 0.196,-0.87696 0.034,-0.33874 0.1304,-0.79719 0.2152,-1.01878 0.085,-0.22159 0.1828,-0.66221 0.2176,-0.97915 0.035,-0.31695 0.119,-0.68377 0.1869,-0.81517 0.068,-0.1314 0.1647,-0.56682 0.2149,-0.9676 0.05,-0.40079 0.1479,-0.83974 0.217,-0.97546 0.069,-0.13571 0.1551,-0.52877 0.1911,-0.87347 0.036,-0.34469 0.127,-0.74599 0.2024,-0.89178 0.075,-0.14578 0.1724,-0.58204 0.2157,-0.96946 0.043,-0.38743 0.1386,-0.82013 0.2118,-0.96155 0.073,-0.14143 0.133,-0.38397 0.133,-0.53897 v -0.28183 l -0.5596,0.0611 c -0.3078,0.0336 -0.7119,0.13826 -0.8981,0.23262 -0.1862,0.0944 -0.4072,0.17156 -0.4911,0.17156 -0.084,0 -0.3547,0.0958 -0.6016,0.21292 -0.2469,0.11711 -0.5497,0.25897 -0.6728,0.31523 -0.1231,0.0563 -0.4253,0.21952 -0.6715,0.36279 -0.2462,0.14327 -0.5393,0.30299 -0.6514,0.35492 -0.112,0.0519 -0.2908,0.1756 -0.3973,0.27483 -0.1066,0.0992 -0.2306,0.1804 -0.2758,0.1804 -0.045,0 -0.194,0.0907 -0.3307,0.20144 -0.1367,0.1108 -0.3786,0.30217 -0.5375,0.42528 -0.3341,0.25877 -0.8777,0.70071 -1.1013,0.89531 -0.3258,0.2836 -2.0331,1.98716 -2.0331,2.0287 0,0.024 -0.2236,0.31271 -0.497,0.64146 -0.2733,0.32875 -0.5654,0.68995 -0.649,0.80267 -0.084,0.11272 -0.2428,0.30997 -0.3536,0.43834 -0.1108,0.12837 -0.2015,0.25774 -0.2016,0.28748 0,0.0297 -0.1007,0.17114 -0.2238,0.31421 -0.123,0.14307 -0.2237,0.31202 -0.2237,0.37543 0,0.0634 -0.072,0.16794 -0.1612,0.23229 -0.089,0.0643 -0.2144,0.24793 -0.2794,0.40796 -0.065,0.16004 -0.1463,0.29098 -0.1804,0.29098 -0.034,0 -0.1293,0.14101 -0.2115,0.31336 -0.082,0.17234 -0.1853,0.31336 -0.2292,0.31336 -0.044,0 -0.1039,0.1203 -0.1333,0.26733 -0.029,0.14704 -0.1352,0.33729 -0.235,0.42279 -0.1,0.0855 -0.1816,0.21925 -0.1816,0.29722 0,0.078 -0.1007,0.27829 -0.2238,0.44515 -0.1231,0.16686 -0.2238,0.35056 -0.2238,0.40821 0,0.0577 -0.081,0.20727 -0.1791,0.33247 -0.204,0.25937 -0.2309,0.47691 -0.067,0.543 0.263,0.10613 10.6852,0.0596 10.793,-0.0481 z"
       id="path160-4" /></g></svg>
