<?xml version="1.0" encoding="UTF-8" standalone="no"?>
<!-- Created with Inkscape (http://www.inkscape.org/) -->

<svg
   width="458.78748mm"
   height="182.03336mm"
   viewBox="0 0 458.78748 182.03336"
   version="1.1"
   id="svg1"
   xml:space="preserve"
   inkscape:version="1.4.4 (dcaf3e7, 2026-05-05)"
   sodipodi:docname="logos teams.svg"
   inkscape:export-batch-name="TSV Neustadt"
   inkscape:export-batch-path="Desktop/Liga"
   xmlns:inkscape="http://www.inkscape.org/namespaces/inkscape"
   xmlns:sodipodi="http://sodipodi.sourceforge.net/DTD/sodipodi-0.dtd"
   xmlns="http://www.w3.org/2000/svg"
   xmlns:svg="http://www.w3.org/2000/svg"><sodipodi:namedview
     id="namedview1"
     pagecolor="#ffffff"
     bordercolor="#000000"
     borderopacity="0.25"
     inkscape:showpageshadow="2"
     inkscape:pageopacity="0.0"
     inkscape:pagecheckerboard="0"
     inkscape:deskcolor="#d1d1d1"
     inkscape:document-units="mm"
     inkscape:zoom="0.012061024"
     inkscape:cx="-22800.717"
     inkscape:cy="-10654.153"
     inkscape:window-width="1920"
     inkscape:window-height="1050"
     inkscape:window-x="0"
     inkscape:window-y="30"
     inkscape:window-maximized="0"
     inkscape:current-layer="layer1"><inkscape:page
       x="0"
       y="-4.9901646e-21"
       width="458.78748"
       height="182.03336"
       id="page2"
       margin="0"
       bleed="0" /></sodipodi:namedview><defs
     id="defs1"><style
       id="style1-7">
      .cls-1 {
        fill: #fff;
      }
    </style></defs><g
     inkscape:label="Ebene 1"
     inkscape:groupmode="layer"
     id="layer1"
     transform="translate(-162.72592,377.65245)"><path
       style="fill:#24b23c;fill-opacity:1"
       d="m 162.72592,-286.63579 v -91.01667 h 229.39375 229.39376 v 91.01667 91.01667 H 392.11967 162.72592 Z m 377.48646,84.51611 2.05834,-0.42298 0.83433,-0.51276 0.83432,-0.51275 0.93401,-1.03383 0.934,-1.03383 0.33372,-1.01092 0.33372,-1.01091 0.095,-10.23766 0.095,-10.23766 -0.28457,-1.05681 -0.28457,-1.05681 -1.07312,-1.3576 -1.07311,-1.35759 -1.18311,-0.50714 -1.1831,-0.50714 -3.09583,-0.30479 -3.09583,-0.30479 -4.49792,0.15878 -4.49791,0.15878 -1.57718,0.41796 -1.57719,0.41795 -0.93636,0.70566 -0.93636,0.70566 -0.32145,0.40764 -0.32146,0.40764 -0.63858,1.32841 -0.63859,1.3284 0.0456,6.07993 0.0456,6.07993 0.54187,1.19062 0.54187,1.19063 0.68087,0.80528 0.68087,0.80528 1.46781,0.74264 1.46781,0.74264 2.06035,0.24896 2.06036,0.24896 5.4904,-0.0771 5.4904,-0.0771 0.0786,0.23659 0.0786,0.2366 -0.14501,1.07617 -0.14501,1.07617 -0.92604,0.62589 -0.92605,0.62589 -8.86652,-0.0751 -8.86653,-0.0751 -0.32774,0.20256 -0.32775,0.20255 v 2.2113 2.21129 l 0.33073,0.12768 0.33073,0.12768 8.92187,0.0306 8.92187,0.0306 z m -12.30109,-13.72071 -0.86567,-0.3144 -0.45724,-0.45663 -0.45725,-0.45664 -0.0818,-5.30541 -0.0818,-5.30541 0.41388,-0.63166 0.41389,-0.63166 0.85851,-0.23132 0.85852,-0.23132 4.5393,-0.0544 4.53929,-0.0544 0.88467,0.36979 0.88466,0.36979 0.3859,0.4653 0.3859,0.4653 0.011,6.19026 0.011,6.19026 -5.68854,-0.0316 -5.68854,-0.0315 z m 61.91828,4.95837 0.19844,-0.11416 v -8.27828 -8.27828 l 0.48526,-0.5595 0.48525,-0.5595 0.72259,-0.27473 0.7226,-0.27473 4.28225,0.001 4.28226,0.001 0.92604,0.2577 0.92604,0.2577 0.39688,0.60072 0.39687,0.60072 0.13229,8.33437 0.1323,8.33438 2.68229,0.13229 2.68229,0.13229 0.43894,-0.0879 0.43893,-0.0879 -0.0785,-9.43707 -0.0785,-9.43707 -0.69577,-1.0688 -0.69577,-1.06879 -0.92665,-0.70679 -0.92665,-0.70679 -1.02341,-0.40348 -1.02341,-0.40347 -2.11667,-0.2217 -2.11667,-0.2217 -5.82083,0.1653 -5.82083,0.16531 -1.6371,0.87443 -1.6371,0.87444 -0.65833,0.96415 -0.65834,0.96414 -0.42273,1.32292 -0.42273,1.32292 0.0723,8.46666 0.0723,8.46667 0.92604,0.16971 0.92604,0.16971 2.11667,-0.13731 2.11667,-0.13732 z m -399.25879,-12.57842 0.0687,-12.76006 4.8948,-0.042 4.89479,-0.042 0.20802,-0.0302 0.20801,-0.0302 -0.0757,-2.57969 -0.0757,-2.57969 h -13.75833 -13.75834 l -0.0757,2.57406 -0.0757,2.57407 5.23504,0.0718 5.23503,0.0718 0.0301,1.45521 0.0301,1.4552 0.036,11.31094 0.036,11.31094 h 3.43705 3.43704 z m 14.22389,3.96962 0.13229,-8.65816 0.55538,-0.55497 0.55537,-0.55496 1.03213,-0.23942 1.03212,-0.23942 2.81597,-0.006 2.81596,-0.006 0.11056,-0.33073 0.11056,-0.33073 -0.0161,-1.98437 -0.0161,-1.98438 -4.49792,-0.0773 -4.49792,-0.0773 -1.19062,0.3223 -1.19063,0.3223 -0.92604,0.58319 -0.92604,0.5832 -0.56745,0.62697 -0.56744,0.62697 -0.55704,1.05441 -0.55703,1.05442 v 9.33888 9.33887 l 3.10886,-0.0745 3.10885,-0.0745 z m 19.5164,-2.85122 0.0695,-11.50937 -0.45082,-0.33073 -0.45082,-0.33073 h -2.34808 -2.34807 l -0.51177,0.27389 -0.51177,0.27389 v 11.45597 11.45597 l 0.18433,0.18434 0.18434,0.18433 3.05681,-0.0741 3.05681,-0.0741 z m 28.77006,10.87479 1.32292,-0.63458 0.74822,-0.68833 0.74823,-0.68833 0.69429,-1.45521 0.6943,-1.45521 -0.0794,-6.21771 -0.0794,-6.21771 -0.5047,-1.11315 -0.50471,-1.11316 -0.97571,-0.9476 -0.97571,-0.9476 -1.09371,-0.48379 -1.0937,-0.4838 -1.72112,-0.29972 -1.72111,-0.29972 -7.65125,0.002 -7.65124,0.002 -1.39915,0.16804 -1.39915,0.16804 0.0762,2.14476 0.0762,2.14477 8.99583,0.13229 8.99583,0.13229 0.83121,0.45498 0.83121,0.45498 0.29447,0.8447 0.29446,0.84469 -0.0784,0.0784 -0.0784,0.0783 -7.52962,0.0965 -7.52961,0.0965 -1.71979,0.80944 -1.71979,0.80943 -0.6841,0.75876 -0.68411,0.75876 -0.50652,1.32292 -0.50652,1.32291 v 2.51354 2.51355 l 1.05833,1.58151 1.05833,1.58151 1.05834,0.70566 1.05833,0.70565 1.19063,0.27148 1.19062,0.27147 7.67292,-0.0451 7.67291,-0.0451 z m -15.34139,-4.25968 -0.79083,-0.3974 -0.33051,-0.66146 -0.33051,-0.66145 -0.004,-1.23955 -0.004,-1.23955 0.25322,-0.66601 0.25321,-0.66601 0.79198,-0.40955 0.79198,-0.40954 6.1647,-2e-5 6.1647,-1e-5 -0.0273,2.63804 -0.0273,2.63805 -0.34784,0.41912 -0.34784,0.41912 -0.55093,0.29504 -0.55092,0.29503 -5.15862,0.0218 -5.15862,0.0218 z m 71.77322,2.32708 0.0756,-2.56718 -9.46828,-0.0787 -9.46829,-0.0786 -0.82262,-0.45054 -0.82263,-0.45054 -0.31247,-0.75436 -0.31246,-0.75436 0.0768,-2.49927 0.0768,-2.49926 9.82898,0.0987 9.82897,0.0987 0.29134,-0.54436 0.29133,-0.54436 v -1.84784 -1.84784 l -0.1606,-0.41852 -0.1606,-0.41851 H 298.39897 288.3431 l 0.10205,-2.75686 0.10205,-2.75687 0.5179,-0.57227 0.5179,-0.57227 0.93141,-0.38948 0.93141,-0.38948 5.95313,0.18339 5.95312,0.18339 3.07695,-0.19305 3.07694,-0.19305 0.12824,-2.29099 0.12824,-2.291 -0.27236,-0.3444 -0.27236,-0.34439 -10.60574,0.0905 -10.60574,0.0905 -1.45521,0.58078 -1.45521,0.58077 -1.36876,1.41471 -1.36877,1.41471 -0.43033,1.48029 -0.43034,1.4803 0.0793,8.94899 0.0793,8.94899 0.61118,1.22854 0.61118,1.22854 0.93841,0.9384 0.9384,0.9384 1.20396,0.56593 1.20395,0.56593 1.08292,0.21626 1.08292,0.21627 10.05416,-0.0387 10.05417,-0.0387 z m 28.57747,0.4735 0.0781,-2.0937 -0.34264,-0.21736 -0.34263,-0.21736 -6.42465,-0.004 -6.42464,-0.004 -0.89625,-0.37448 -0.89625,-0.37447 -0.28588,-0.53417 -0.28588,-0.53417 v -5.41784 -5.41783 l 0.81405,-0.68498 0.81405,-0.68498 h 6.80595 6.80595 l 0.3175,-0.3175 0.3175,-0.3175 v -1.87854 -1.87854 l -0.3175,-0.3175 -0.3175,-0.3175 h -6.87072 -6.87072 l -1.66264,0.28953 -1.66263,0.28954 -1.39127,0.83494 -1.39126,0.83495 -0.71915,1.05833 -0.71914,1.05834 -0.14413,0.79375 -0.14413,0.79375 -0.0391,5.82083 -0.0391,5.82083 0.20141,0.79375 0.20142,0.79375 0.38936,0.79375 0.38937,0.79375 0.83027,0.87728 0.83028,0.87728 0.79375,0.36571 0.79375,0.36571 0.92604,0.25646 0.92604,0.25645 7.9375,-0.0442 7.9375,-0.0442 z m 10.63758,-6.7764 v -9.00238 l 0.67868,-0.25804 0.67868,-0.25803 4.81142,0.001 4.81143,0.001 0.95252,0.26459 0.95252,0.26459 0.50269,0.55499 0.50268,0.555 0.13229,8.37321 0.1323,8.37321 h 3.0427 3.04271 l 0.0698,-8.71804 0.0698,-8.71803 -0.40264,-1.21222 -0.40263,-1.21223 -0.82631,-1.00246 -0.82632,-1.00246 -1.44158,-0.63753 -1.44158,-0.63754 -2.95555,-0.29956 -2.95555,-0.29957 -3.70416,0.17337 -3.70417,0.17337 -0.8599,0.15037 -0.85989,0.15038 v -3.8376 -3.8376 l -0.41852,-0.16059 -0.41851,-0.1606 h -2.33797 -2.33797 l -0.41852,0.1606 -0.41851,0.16059 v 15.44982 15.44982 h 3.175 3.175 z m 31.93056,8.67165 0.2118,-0.33073 0.002,-8.99583 0.002,-8.99583 3.175,-0.1323 3.175,-0.13229 0.33073,-0.21405 0.33073,-0.21405 v -1.81757 -1.81757 l -0.41577,-0.41578 -0.41578,-0.41577 h -3.11011 -3.11011 l 0.0826,-3.19923 0.0826,-3.19924 -0.27023,-0.50493 -0.27023,-0.50493 h -2.61489 -2.61488 l -0.36752,0.14103 -0.36752,0.14103 0.087,15.27095 0.087,15.27095 -0.006,0.19843 -0.006,0.19844 h 2.89481 2.8948 z m 38.55259,-0.0878 0.1606,-0.41852 v -1.81261 -1.81262 l -0.46302,-0.11848 -0.46302,-0.11849 -8.54707,-0.0158 -8.54707,-0.0158 -0.87288,-0.28808 -0.87288,-0.28807 -0.59202,-0.63018 -0.59202,-0.63018 0.0901,-0.45826 0.0901,-0.45827 0.39687,-0.21311 0.39688,-0.21311 1.98437,-0.57409 1.98438,-0.57408 2.77812,-0.88729 2.77813,-0.88729 3.96875,-1.21952 3.96875,-1.21951 0.89224,-0.22264 0.89225,-0.22265 0.28926,-0.28926 0.28927,-0.28927 -0.0617,-2.12637 -0.0617,-2.12637 -0.6912,-1.32188 -0.69119,-1.32188 -0.82548,-0.61101 -0.82548,-0.611 -0.92605,-0.44917 -0.92604,-0.44916 -2.87294,-0.25365 -2.87294,-0.25364 -4.45825,0.12192 -4.45825,0.12192 -1.00318,0.1839 -1.00319,0.1839 -1.32663,0.58173 -1.32662,0.58173 -1.23086,1.369 -1.23085,1.36901 -0.1798,1.9187 -0.17979,1.91871 0.0967,5.15498 0.0967,5.15499 0.57451,1.08338 0.57451,1.08338 0.93089,0.81734 0.9309,0.81734 0.88296,0.41899 0.88296,0.41899 1.17829,0.23099 1.1783,0.23098 9.82742,0.029 9.82742,0.029 z m -20.74149,-13.80761 v -1.84732 l 0.17083,-0.85415 0.17083,-0.85414 0.82136,-0.50086 0.82136,-0.50085 5.02708,4.9e-4 5.02709,4.8e-4 0.98907,0.27469 0.98907,0.27468 0.2677,0.5002 0.2677,0.5002 v 0.10762 0.10761 l -1.78594,0.67908 -1.78594,0.67908 -1.71979,0.44807 -1.71979,0.44808 -2.64583,0.86564 -2.64584,0.86565 -0.70302,0.16481 -0.70303,0.1648 -0.42145,0.16173 -0.42146,0.16173 z m 31.07173,13.98875 0.1467,-0.23737 0.0674,-8.45354 0.0673,-8.45354 0.386,-0.46478 0.386,-0.46478 0.67233,-0.28126 0.67234,-0.28126 3.4103,-0.15419 3.4103,-0.1542 -0.009,-1.98438 -0.009,-1.98437 -0.0277,-0.33073 -0.0277,-0.33073 h -4.22031 -4.22031 l -1.39952,0.30014 -1.39952,0.30015 -0.66402,0.4095 -0.66403,0.40951 -0.74886,0.67941 -0.74887,0.67942 -0.6402,1.34844 -0.64019,1.34845 v 8.99235 8.99235 l 0.17639,0.17639 0.17639,0.17639 h 2.8507 2.8507 z m 36.39703,-0.58882 1.4552,-0.69391 0.90087,-0.89359 0.90086,-0.8936 0.51504,-1.15717 0.51504,-1.15716 0.0898,-12.31704 0.0898,-12.31704 -0.25826,-0.48257 -0.25826,-0.48256 h -2.8728 -2.8728 l -0.1606,0.41851 -0.1606,0.41852 v 3.28565 3.28565 l -6.68073,0.003 -6.68073,0.003 -1.32292,0.36533 -1.32291,0.36533 -0.95449,0.41308 -0.95449,0.41308 -1.34165,1.46798 -1.34165,1.46797 -0.17802,1.42489 -0.17803,1.42489 0.1096,5.65215 0.1096,5.65215 0.7288,1.2483 0.72881,1.2483 0.80299,0.67567 0.80299,0.67568 1.09735,0.49526 1.09735,0.49526 0.52917,0.13714 0.52917,0.13714 7.54062,-0.0428 7.54063,-0.0428 z m -14.68438,-4.34081 -1.05833,-0.38128 -0.0797,-0.004 -0.0797,-0.004 -0.38337,-0.91754 -0.38337,-0.91755 v -4.40028 -4.40028 l 0.41726,-0.87931 0.41726,-0.87931 0.9718,-0.38877 0.9718,-0.38876 1.45521,-0.0615 1.45521,-0.0615 4.43177,0.0328 4.43177,0.0328 v 6.04974 6.04973 l -0.5412,0.68803 -0.5412,0.68803 -0.98016,0.27222 -0.98015,0.27222 -4.23333,-0.0101 -4.23334,-0.0101 z m 31.01424,-6.08039 0.058,-11.1151 -0.15055,-0.57571 -0.15056,-0.57571 -2.68556,-0.0847 -2.68557,-0.0847 -0.33073,0.096 -0.33073,0.096 v 11.56926 11.56926 l 0.18457,0.18457 0.18456,0.18456 2.92429,-0.0743 2.92429,-0.0743 z m 11.98055,2.58927 0.13229,-8.52583 0.60214,-0.6023 0.60213,-0.60229 4.55724,-0.0815 4.55724,-0.0815 1.05536,0.225 1.05536,0.22501 0.56971,0.84539 0.5697,0.84538 -0.0683,7.61006 -0.0683,7.61006 0.12558,0.59531 0.12558,0.59531 h 2.82882 2.82882 l 0.3175,-0.3175 0.3175,-0.3175 v -7.7037 -7.7037 l -0.28924,-1.56461 -0.28923,-1.56461 -0.35313,-0.68288 -0.35313,-0.68287 -0.87899,-0.8602 -0.87899,-0.86019 -1.19063,-0.54533 -1.19062,-0.54533 -6.35,-0.19321 -6.35,-0.19321 -1.71979,0.25617 -1.7198,0.25617 -1.09697,0.51496 -1.09698,0.51496 -0.95235,1.02931 -0.95236,1.02932 -0.53036,1.34552 -0.53035,1.34552 v 8.54507 8.54506 l 0.18433,0.18434 0.18434,0.18433 3.05681,-0.0741 3.05681,-0.0741 z m 85.01032,6.58413 0.21136,-1.9417 -0.31081,-0.37449 -0.3108,-0.37449 -8.76409,0.053 -8.7641,0.0529 -1.08085,-0.46 -1.08085,-0.46001 -0.43356,-0.90918 -0.43356,-0.90918 0.45608,-0.23289 0.45607,-0.2329 3.96875,-1.12317 3.96875,-1.12317 0.52294,-0.2784 0.52295,-0.27841 0.79997,-0.20456 0.79997,-0.20457 4.46489,-1.31798 4.46489,-1.31798 0.32772,-0.3543 0.32771,-0.35431 -0.2315,-2.486 -0.2315,-2.48599 -0.85694,-1.18327 -0.85693,-1.18327 -1.35625,-0.75311 -1.35625,-0.75311 -2.47211,-0.30058 -2.47212,-0.30058 -5.16747,0.1472 -5.16747,0.1472 -1.53473,0.40869 -1.53472,0.40868 -0.71423,0.37162 -0.71424,0.37162 -0.57081,0.62045 -0.57081,0.62045 -0.60979,1.18091 -0.6098,1.18091 0.0614,6.6243 0.0614,6.6243 0.66634,1.37009 0.66633,1.37009 1.37888,0.91469 1.37889,0.9147 1.45521,0.26507 1.4552,0.26506 9.78959,-0.0363 9.78958,-0.0363 z m -20.72093,-10.39926 -0.004,-0.0945 -0.10153,-2.02392 -0.10154,-2.02392 0.49013,-0.80594 0.49012,-0.80594 1.00484,-0.29808 1.00484,-0.29809 5.20487,0.0852 5.20487,0.0852 0.68719,0.6462 0.68719,0.64621 -0.094,0.27984 -0.094,0.27983 -0.3741,0.0256 -0.37409,0.0256 -0.52917,0.19686 -0.52917,0.19686 -0.52917,0.21094 -0.52916,0.21094 -3.04271,0.95713 -3.04271,0.95714 -0.29394,-0.001 -0.29394,-10e-4 -1.95502,0.63219 -1.95502,0.63219 -0.46302,0.18987 -0.46302,0.18987 z m -334.67517,-13.87041 0.76877,-0.73653 0.17056,-0.90913 0.17055,-0.90913 -0.42438,-0.88994 -0.42438,-0.88994 -0.99965,-0.43863 -0.99965,-0.43862 -1.19062,-0.0137 -1.19063,-0.0137 -0.99034,0.47497 -0.99033,0.47496 -0.30067,1.00354 -0.30067,1.00355 0.1717,0.91524 0.1717,0.91523 0.46329,0.41927 0.46328,0.41927 0.65602,0.27809 0.65602,0.27808 1.67533,-0.10314 1.67533,-0.10313 z m 257.45175,0.39891 1.06781,-0.54476 0.38853,-0.92987 0.38852,-0.92988 -0.17867,-0.57589 -0.17867,-0.57589 -0.50527,-0.7175 -0.50527,-0.71749 -1.37917,-0.43475 -1.37917,-0.43474 -1.16536,0.3138 -1.16537,0.3138 -0.75194,0.75194 -0.75194,0.75194 v 0.90727 0.90726 l 0.60448,0.89903 0.60447,0.89902 0.91688,0.3158 0.91688,0.31579 1.00273,0.0149 1.00273,0.0149 z m -206.76541,-34.38288 2.60881,-0.53179 1.32292,-0.4273 1.32292,-0.42731 2.77812,-1.2235 2.77813,-1.2235 1.5875,-1.04373 1.5875,-1.04374 1.82003,-1.55258 1.82003,-1.55258 0.95809,-1.0938 0.9581,-1.0938 0.94955,-1.0726 0.94954,-1.0726 1.1203,-1.66759 1.1203,-1.66758 0.39645,-0.84596 0.39645,-0.84595 0.4992,-0.92605 0.4992,-0.92604 0.93253,-2.38125 0.93254,-2.38125 0.43049,-1.98437 0.4305,-1.98438 0.22694,-1.05833 0.22694,-1.05833 0.01,-33.20521 0.01,-33.20521 -0.001,-0.19844 -10e-4,-0.19844 -49.80781,0.009 -49.80781,0.009 -1.45521,0.37844 -1.45521,0.37844 -1.32292,0.38054 -1.32291,0.38055 -1.90968,0.69602 -1.90967,0.69603 -1.52991,0.79386 -1.52991,0.79385 -1.20947,0.71827 -1.20947,0.71828 -1.56866,1.2344 -1.56865,1.2344 -2.14794,2.20518 -2.14795,2.20518 -1.22549,1.78474 -1.2255,1.78474 v 0.12023 0.12022 l -0.78868,1.16861 -0.78869,1.16861 -0.91723,2.14297 -0.91723,2.14298 -0.58238,1.9272 -0.58239,1.9272 -0.5286,2.24896 -0.5286,2.24896 -0.10418,33.05274 -0.10419,33.05274 0.13466,0.35091 0.13466,0.35091 h 49.32397 49.32397 z m -97.00681,-32.42148 v -28.45536 l 0.40105,-3.62537 0.40105,-3.62537 0.41026,-1.5875 0.41025,-1.5875 0.51585,-1.53466 0.51585,-1.53466 1.30121,-2.48733 1.30121,-2.48732 0.61278,-0.87281 0.61278,-0.87281 1.81818,-2.0961 1.81817,-2.09611 1.65127,-1.40962 1.65126,-1.40962 h 0.15683 0.15683 l 0.97525,-0.66183 0.97526,-0.66182 2.1735,-1.04229 2.17351,-1.0423 1.55935,-0.57161 1.55934,-0.57162 2.11667,-0.4085 2.11666,-0.40849 47.04579,-0.10023 47.04579,-0.10023 -0.11192,30.63185 -0.11192,30.63186 -0.3972,2.26495 -0.3972,2.26496 -0.30073,0.56192 -0.30073,0.56192 -9.1e-4,0.48042 -9e-4,0.48041 -0.75482,1.85209 -0.75482,1.85208 -0.73413,1.45521 -0.73414,1.45521 -1.54974,2.26835 -1.54974,2.26835 -2.03313,2.02654 -2.03312,2.02655 -1.7403,1.1647 -1.74029,1.16471 -1.77001,0.93643 -1.77001,0.93644 -2.72791,0.90548 -2.72791,0.90549 -1.92314,0.30525 -1.92313,0.30525 h -46.69405 -46.69405 z m 48.63956,13.11655 2.20519,-0.25354 0.83752,-0.26612 0.83752,-0.26611 1.85208,-0.57113 1.85209,-0.57113 1.85208,-0.8688 1.85208,-0.86881 3.57188,-1.69978 3.57187,-1.69979 1.5875,-0.6712 1.5875,-0.67121 1.5875,-0.48695 1.5875,-0.48695 3.70417,0.0455 3.70417,0.0455 1.45521,0.45005 1.4552,0.45004 1.85209,0.91431 1.85208,0.91432 0.7023,0.49926 0.70231,0.49925 h 0.17919 0.1792 l 3.36635,2.24896 3.36635,2.24896 0.91153,-0.0127 0.91152,-0.0127 0.92604,-0.45031 0.92604,-0.45031 0.62015,-1.29908 0.62015,-1.29908 -0.41529,-1.45982 -0.41528,-1.45982 -0.86632,-0.89941 -0.86632,-0.89941 -1.98438,-1.38257 -1.98437,-1.38258 -1.41547,-0.8599 -1.41547,-0.85989 -1.89182,-1.02414 -1.89183,-1.02414 -1.40517,-0.55205 -1.40518,-0.55205 -2.56357,-0.55675 -2.56358,-0.55674 -3.70416,0.12732 -3.70417,0.12733 -1.32292,0.32548 -1.32291,0.32548 -1.85209,0.55901 -1.85208,0.55902 -1.45521,0.62771 -1.45521,0.62771 -4.6302,2.24745 -4.63021,2.24746 -0.43755,0.23046 -0.43755,0.23046 -2.86974,0.70872 -2.86975,0.70872 -4.10104,-0.14345 -4.10104,-0.14344 -2.10276,-0.58199 -2.10275,-0.58199 -0.41079,-0.23409 -0.41078,-0.23409 -0.66146,-0.26799 -0.66146,-0.26799 -0.92604,-0.55507 -0.92604,-0.55507 -1.91422,-1.43783 -1.91422,-1.43784 -0.91096,-0.38063 -0.91097,-0.38062 -1.24279,0.23218 -1.24279,0.23217 -0.79049,0.79049 -0.79048,0.79048 -0.2049,1.12052 -0.2049,1.12051 0.23366,0.84625 0.23366,0.84625 0.90474,1.05699 0.90474,1.05699 1.93838,1.30697 1.93839,1.30697 0.53136,0.32134 0.53137,0.32135 2.14253,1.05636 2.14254,1.05636 1.42934,0.51825 1.42934,0.51825 1.5875,0.45995 1.5875,0.45994 1.85208,0.18499 1.85209,0.18499 2.24896,0.0368 2.24895,0.0368 z m 0.15871,-12.85268 1.60485,-0.41024 1.45521,-0.40609 1.45521,-0.4061 2.24896,-1.06956 2.24896,-1.06956 3.43958,-1.65034 3.43958,-1.65035 1.45521,-0.59433 1.45521,-0.59433 0.92604,-0.40566 0.92604,-0.40567 0.92605,-0.21843 0.92604,-0.21844 1.32291,-0.26416 1.32292,-0.26416 1.89487,-0.31087 1.89486,-0.31087 2.47076,0.14785 2.47076,0.14786 2.84427,-2.88777 2.84427,-2.88776 v -0.36138 -0.36137 l -0.48333,-0.631 -0.48334,-0.63099 -1.48927,-2.42554 -1.48927,-2.42554 -1.44818,-2.07238 -1.44819,-2.07238 -1.27556,-1.79743 -1.27557,-1.79744 -1.2347,-1.58212 -1.23471,-1.58213 -1.94029,-2.14436 -1.9403,-2.14437 -1.32291,-1.25429 -1.32292,-1.25429 -0.92604,-0.7764 -0.92604,-0.7764 -1.45521,-0.94765 -1.45521,-0.94765 -1.05833,-0.45254 -1.05834,-0.45254 -1.7609,-0.49804 -1.76091,-0.49804 -3.26618,-0.4309 -3.26617,-0.4309 -4.63021,0.14237 -4.63021,0.14236 -3.30729,0.28582 -3.30729,0.28581 -0.88081,0.13089 -0.88081,0.13089 -0.44211,0.23756 -0.44211,0.23757 -0.70122,1.4142 -0.70122,1.41419 -0.68784,1.48074 -0.68784,1.48074 v 0.55195 0.55195 l 0.51385,0.16309 0.51384,0.16309 2.99189,-0.14674 2.99188,-0.14675 3.70416,0.24957 3.70417,0.24956 2.64583,0.29036 2.64584,0.29036 2.10565,0.67395 2.10565,0.67394 1.49149,0.80068 1.49149,0.80068 1.76067,1.29288 1.76067,1.29287 -0.002,0.33208 -0.002,0.33208 -0.90569,0.61672 -0.90569,0.61671 -1.84474,1.49995 -1.84474,1.49996 -2.07641,1.69515 -2.07641,1.69515 -0.39687,0.35884 -0.39688,0.35884 -2.62533,2.17934 -2.62532,2.17934 -1.60801,1.29683 -1.60801,1.29683 -1.85208,1.61717 -1.85208,1.61716 -1.58171,1.31934 -1.5817,1.31934 -0.45293,0.39688 -0.45294,0.39687 -1.33504,1.05834 -1.33505,1.05833 -0.004,0.43926 -0.004,0.43926 1.1089,1.40286 1.10889,1.40286 0.67705,0.59462 0.67704,0.59462 1.52135,0.81992 1.52136,0.81992 v -0.11989 -0.1199 l 1.12447,0.35127 1.12448,0.35126 2.76077,0.0177 2.76077,0.0177 z m 45.52482,-23.40134 1.05747,-0.59438 0.65624,-0.5162 0.65624,-0.5162 0.82997,-1.16737 0.82997,-1.16737 0.46042,-1.64094 0.46043,-1.64093 -0.16691,-1.25817 -0.1669,-1.25817 -0.41875,-1.00758 -0.41876,-1.00757 -0.89072,-1.2174 -0.89072,-1.2174 -1.00399,-0.6644 -1.00399,-0.66441 -1.49049,-0.4333 -1.4905,-0.4333 h -0.79131 -0.7913 l -1.73303,0.53528 -1.73302,0.53527 -1.41567,1.29384 -1.41567,1.29384 -0.748,1.52764 -0.74801,1.52763 0.18373,2.26438 0.18373,2.26439 0.82337,1.54479 0.82337,1.5448 1.07579,0.85891 1.07579,0.85891 0.92605,0.41572 0.92604,0.41572 0.52916,0.1445 0.52917,0.1445 2.11667,-0.0853 2.11666,-0.0853 z m 156.28628,55.56769 2.56248,-0.51807 1.66953,-0.56242 1.66953,-0.56242 2.68696,-1.26744 2.68696,-1.26743 1.18779,-0.81722 1.18779,-0.81723 2.29817,-1.96894 2.29817,-1.96894 1.6336,-1.94246 1.63361,-1.94246 0.59531,-0.84774 0.59532,-0.84775 v -0.13125 -0.13126 l 0.63677,-0.93834 0.63677,-0.93833 0.92083,-1.91769 0.92083,-1.91768 0.39345,-0.92604 0.39344,-0.92604 0.41197,-1.5875 0.41197,-1.5875 0.54518,-2.64584 0.54518,-2.64583 0.035,-32.80834 0.035,-32.80833 -0.0327,-0.33073 -0.0328,-0.33073 -48.74948,0.002 -48.74948,0.002 -2.34394,0.26854 -2.34394,0.26853 -0.43419,0.23196 -0.43418,0.23196 -0.92604,0.15138 -0.92604,0.15139 -2.02814,0.78605 -2.02813,0.78605 -1.54374,0.81621 -1.54374,0.81621 -1.20261,0.72026 -1.20261,0.72025 -1.44322,1.09942 -1.44323,1.09942 -2.5252,2.60474 -2.5252,2.60475 -0.81176,1.19063 -0.81177,1.19062 -0.44139,0.79375 -0.4414,0.79375 -0.5027,0.79375 -0.50271,0.79375 -0.76197,1.5875 -0.76196,1.5875 -0.81455,2.64583 -0.81455,2.64584 -0.32404,1.5875 -0.32405,1.5875 -0.22094,1.71979 -0.22093,1.71979 -0.0136,32.03663 -0.0136,32.03664 0.17639,0.17639 0.17638,0.17639 49.36685,-0.002 49.36684,-0.002 z m -97.14645,-33.14518 0.005,-29.17031 0.25235,-2.39427 0.25234,-2.39427 0.53395,-2.23594 0.53395,-2.23594 0.5503,-1.4552 0.55031,-1.45521 0.64421,-1.32292 0.6442,-1.32292 0.60094,-1.05833 0.60093,-1.05833 0.51589,-0.79375 0.51589,-0.79375 1.81668,-2.1776 1.81668,-2.17761 1.75773,-1.39427 1.75772,-1.39427 0.79786,-0.51805 0.79786,-0.51804 0.66146,-0.37482 0.66146,-0.37483 1.83266,-0.91978 1.83266,-0.91979 1.21005,-0.38472 1.21005,-0.38473 2.38125,-0.5735 2.38125,-0.57351 47.17435,-0.0783 47.17435,-0.0783 -0.0967,30.49818 -0.0967,30.49819 -0.35211,1.85208 -0.35211,1.85208 -0.60808,2.11667 -0.60807,2.11667 -0.41474,1.14011 -0.41474,1.14012 -0.82439,1.63311 -0.82439,1.6331 -1.15637,1.75526 -1.15637,1.75526 -2.17693,2.32106 -2.17693,2.32106 -1.32833,0.97564 -1.32833,0.97565 -1.85208,1.08898 -1.85209,1.08898 -1.5875,0.6577 -1.5875,0.65771 -1.85208,0.53455 -1.85208,0.53455 -2.38125,0.27773 -2.38125,0.27773 -46.10365,7.4e-4 -46.10365,7.5e-4 z m 36.74989,21.86106 1.47782,-0.42967 0.52916,-0.19671 0.52917,-0.1967 1.54003,-0.76197 1.54003,-0.76196 2.14014,-1.8526 2.14015,-1.85259 1.26678,-1.85208 1.26678,-1.85209 0.56743,-1.45521 0.56743,-1.4552 0.39059,-1.45521 0.3906,-1.45521 0.14686,-2.77813 0.14687,-2.77812 -0.6965,-2.2707 -0.6965,-2.2707 -0.68491,-1.43347 -0.6849,-1.43346 -0.89128,-1.35443 -0.89129,-1.35444 -1.49404,-1.36547 -1.49405,-1.36547 -1.13177,-0.77868 -1.13177,-0.77868 -1.94709,-0.89625 -1.94709,-0.89625 -1.32292,-0.31865 -1.32291,-0.31864 -2.13638,-0.15119 -2.13637,-0.15119 -2.36567,0.43475 -2.36566,0.43475 -1.33733,0.50814 -1.33732,0.50814 -1.0398,0.60202 -1.03981,0.60202 -1.32291,0.97675 -1.32292,0.97675 -1.10844,1.15238 -1.10845,1.15239 -1.07374,1.5875 -1.07374,1.5875 -6.3e-4,0.30868 -6.3e-4,0.30868 -0.20978,0.0882 -0.20978,0.0882 -0.75301,2.51354 -0.753,2.51354 0.005,3.30729 0.005,3.30729 0.69499,2.06527 0.695,2.06526 0.56323,1.10974 0.56322,1.10973 0.74678,1.05834 0.74678,1.05833 1.13524,1.2092 1.13525,1.2092 1.43955,1.12703 1.43954,1.12703 1.212,0.61416 1.212,0.61417 1.71408,0.58309 1.71408,0.5831 1.5875,0.21802 1.5875,0.21802 2.35865,-0.11369 2.35864,-0.1137 z m -8.44406,-7.49338 -0.66146,-0.20506 -1.32291,-0.61913 -1.32292,-0.61913 -1.65996,-1.64842 -1.65996,-1.64842 -0.64329,-1.40724 -0.6433,-1.40725 -0.30114,-1.9461 -0.30113,-1.94609 0.32402,-1.75808 0.32401,-1.75807 0.77434,-1.5875 0.77434,-1.5875 1.24145,-1.2719 1.24145,-1.27191 1.32292,-0.75218 1.32292,-0.75218 2.08123,-0.4567 2.08123,-0.4567 1.62293,0.16986 1.62294,0.16987 1.17995,0.4105 1.17995,0.4105 0.80442,0.43976 0.80443,0.43976 1.28365,1.19608 1.28365,1.19608 0.70072,1.05833 0.70073,1.05833 0.535,1.47947 0.53501,1.47946 -0.0529,2.62158 -0.0529,2.62158 -0.65623,1.4552 -0.65622,1.45521 -0.924,1.28499 -0.924,1.28499 -1.47907,1.04926 -1.47906,1.04926 -1.45111,0.51002 -1.4511,0.51002 -2.71859,-0.0227 -2.71859,-0.0227 z m 66.41126,7.423 1.71895,-0.50048 1.30997,-0.57126 1.30997,-0.57126 1.31604,-0.94548 1.31603,-0.94547 0.28441,-0.23994 0.28441,-0.23994 0.81487,-0.71941 0.81486,-0.71941 1.1372,-1.45521 1.1372,-1.45521 0.75992,-1.56824 0.75991,-1.56824 v -0.30934 -0.30934 l 0.42458,-0.8511 0.42459,-0.85109 0.26042,-2.03383 0.26043,-2.03382 -0.17177,-2.44685 -0.17176,-2.44685 -0.668,-1.91877 -0.668,-1.91878 -0.83743,-1.58577 -0.83743,-1.58577 -1.83297,-1.93406 -1.83296,-1.93405 -1.07745,-0.78009 -1.07746,-0.78009 -2.11666,-1.01952 -2.11667,-1.01951 -2.63125,-0.469 -2.63126,-0.469 -2.13124,0.17686 -2.13125,0.17686 -1.5875,0.40648 -1.5875,0.40648 -1.87531,0.90964 -1.87531,0.90964 -1.03511,0.87537 -1.0351,0.87537 -0.44388,0.16328 -0.44388,0.16329 -1.57077,1.90341 -1.57077,1.90341 -0.85936,1.75026 -0.85937,1.75026 -0.22321,0.52917 -0.2232,0.52916 -0.39405,1.71979 -0.39404,1.7198 -0.17287,2.16673 -0.17288,2.16674 0.45134,1.79965 0.45134,1.79965 0.69099,1.72216 0.69099,1.72215 0.66972,1.03002 0.66973,1.03002 0.30645,0.52637 0.30645,0.52638 1.80312,1.81704 1.80312,1.81704 h 0.29682 0.29682 l 0.42128,0.46303 0.42127,0.46302 1.00879,0.52663 1.0088,0.52663 0.13229,0.14607 0.13229,0.14607 2.24896,0.70177 2.24896,0.70177 3.57271,0.0146 3.57272,0.0146 z m -8.46751,-7.35273 -0.39687,-0.13851 -1.65817,-0.81408 -1.65816,-0.81407 -1.22105,-1.2038 -1.22104,-1.20379 -0.68368,-1.06388 -0.68367,-1.06388 -0.47753,-1.32291 -0.47754,-1.32292 -0.0208,-2.24896 -0.0208,-2.24896 0.5504,-1.5481 0.55039,-1.5481 0.57577,-0.96544 0.57576,-0.96544 0.81835,-0.8815 0.81834,-0.88149 1.51298,-0.89122 1.51297,-0.89123 1.75604,-0.54238 1.75604,-0.54239 h 1.37909 1.37909 l 1.91708,0.50331 1.91708,0.50332 0.46711,0.42273 0.46711,0.42272 h 0.25951 0.25952 l 1.64941,1.65365 1.64942,1.65365 0.63315,1.33722 0.63315,1.33723 0.31574,1.81311 0.31574,1.81312 -0.15253,1.63348 -0.15254,1.63348 -0.37444,1.08681 -0.37443,1.0868 -0.93804,1.41322 -0.93804,1.41321 -1.5667,1.23087 -1.5667,1.23087 -1.62453,0.54727 -1.62454,0.54726 -2.72033,-0.0209 -2.72032,-0.0209 z m -28.31127,-0.35058 0.66231,-0.8588 1.13394,-1.35569 1.13393,-1.35569 0.20302,-0.26458 0.20301,-0.26458 1.33029,-1.98438 1.33029,-1.98437 0.37391,-0.8599 0.37391,-0.8599 h 0.17898 0.17897 l 0.17492,-0.79641 0.17492,-0.79641 0.41013,-0.82213 0.41014,-0.82213 0.21888,-0.82885 0.21887,-0.82886 0.40772,-1.44672 0.40771,-1.44672 v -1.7464 -1.74641 l -0.42501,-1.43708 -0.42502,-1.43708 -0.707,-1.32292 -0.70701,-1.32292 -0.69428,-1.07839 -0.69429,-1.07839 -2.16826,-2.14508 -2.16825,-2.14508 -1.42399,-0.87757 -1.42398,-0.87757 -0.005,-0.1916 -0.005,-0.1916 1.91823,-1.08122 1.91823,-1.08122 0.79375,-0.48949 0.79375,-0.4895 1.28118,-0.68508 1.28119,-0.68508 h 0.0885 0.0885 l 0.86962,1.51995 0.86963,1.51995 1.12497,1.09334 1.12497,1.09335 1.29031,0.67468 1.29031,0.67469 2.4892,0.31422 2.4892,0.31423 4.73926,0.11987 4.73926,0.11988 0.61637,-0.1547 0.61637,-0.1547 0.67882,-1.33959 0.67883,-1.3396 -0.0813,-0.83872 -0.0813,-0.83873 -1.05834,-0.18647 -1.05833,-0.18647 -3.04271,-0.42898 -3.04271,-0.42898 -2.30006,-0.61028 -2.30006,-0.61029 -0.74265,-0.58141 -0.74264,-0.58141 -0.45193,-0.83869 -0.45194,-0.83869 -0.0111,-0.57969 -0.0111,-0.5797 -0.23527,-0.14541 -0.23527,-0.1454 -0.18094,-0.72093 -0.18094,-0.72093 -0.53344,-1.1998 -0.53344,-1.1998 -1.08986,-2.24896 -1.08986,-2.24896 -1.2599,-1.8946 -1.2599,-1.8946 -0.77633,-0.5528 -0.77633,-0.55279 h -1.2589 -1.25891 l -1.34608,0.84596 -1.34608,0.84596 -1.31543,1.07227 -1.31544,1.07227 -0.41893,0.39687 -0.41894,0.39688 -2.76355,2.5118 -2.76355,2.51181 -2.21207,2.1184 -2.21208,2.1184 -1.62278,1.97642 -1.62278,1.97642 -0.56321,0.82993 -0.5632,0.82993 -0.56288,1.62648 -0.56287,1.62647 v 0.3807 0.3807 l 0.5718,1.00731 0.5718,1.00731 1.08184,1.14678 1.08185,1.14677 1.79419,1.16833 1.79418,1.16833 h 0.0902 0.0902 l 2.4812,1.4842 2.4812,1.4842 1.59119,1.13044 1.59119,1.13043 1.11182,1.20618 1.11183,1.20619 0.17822,0.71011 0.17823,0.71011 -0.1582,2.24165 -0.15819,2.24165 -0.23953,0.30502 -0.23953,0.30503 -0.18001,1.1775 -0.18002,1.17749 -0.19884,0.27772 -0.19883,0.27771 -0.58357,1.46094 -0.58357,1.46095 -0.72735,1.34689 -0.72734,1.3469 -1.12448,2.08657 -1.12448,2.08657 v 0.31848 0.31849 l 1.65365,0.0802 1.65364,0.0802 0.92519,-0.0359 0.92519,-0.0359 z m 20.06226,-52.65187 1.1437,-0.51902 0.78916,-0.56193 0.78916,-0.56194 0.67081,-1.06263 0.67081,-1.06263 0.40294,-1.35633 0.40294,-1.35633 -0.15044,-1.32292 -0.15044,-1.32291 -0.28303,-0.97086 -0.28302,-0.97085 -1.15205,-1.28135 -1.15205,-1.28136 -1.2888,-0.65821 -1.2888,-0.65821 -2.25414,0.005 -2.25413,0.005 -1.18545,0.71756 -1.18545,0.71756 -0.59531,0.5102 -0.59532,0.51021 v 0.20511 0.20512 l -0.49344,0.54622 -0.49344,0.54622 -0.4326,1.30391 -0.4326,1.3039 v 1.42446 1.42446 l 0.66726,1.41048 0.66727,1.41047 1.20061,1.10669 1.20061,1.10669 1.10869,0.50335 1.10869,0.50335 h 1.85208 1.85208 z m 172.43883,71.70031 2.58765,-0.53243 1.74095,-0.53743 1.74096,-0.53743 2.64583,-1.26915 2.64584,-1.26916 1.25906,-0.96828 1.25906,-0.96828 h 0.23952 0.23952 l 3.01418,-2.97656 3.01418,-2.97656 1.2179,-1.7198 1.21791,-1.71979 1.1263,-1.98437 1.12631,-1.98438 0.62838,-1.5875 0.62837,-1.5875 0.63397,-1.85208 0.63397,-1.85208 0.31287,-1.5875 0.31287,-1.5875 0.21059,-1.45521 0.21059,-1.45521 0.0223,-32.74678 0.0223,-32.74678 -50.07239,0.0217 -50.0724,0.0217 -2.77812,0.74761 -2.77813,0.74761 -0.92604,0.32371 -0.92604,0.32371 -2.24896,1.06529 -2.24896,1.0653 -1.45521,0.92201 -1.45521,0.92201 -1.87043,1.40105 -1.87043,1.40106 -1.43686,1.65685 -1.43686,1.65685 -0.92604,1.07626 -0.92604,1.07625 -0.62668,0.89161 -0.62668,0.89161 -1.26436,2.54798 -1.26436,2.54797 -0.44533,1.05833 -0.44533,1.05834 -0.51971,1.5875 -0.51971,1.5875 -0.24003,1.45521 -0.24003,1.4552 -0.2774,1.61823 -0.27741,1.61823 -0.0991,30.79323 -0.0991,30.79323 0.13836,2.05052 0.13836,2.05053 h 49.40875 49.40874 z m -97.12349,-4.29622 -0.12123,-0.33073 0.10078,-29.76563 0.10079,-29.76562 0.42141,-2.51354 0.42142,-2.51355 0.3904,-1.32291 0.3904,-1.32292 0.62419,-1.71979 0.62419,-1.71979 0.69018,-1.37251 0.69018,-1.37251 1.38038,-2.06708 1.38038,-2.06707 2.80604,-2.77812 2.80604,-2.77813 2.23518,-1.30592 2.23519,-1.30593 1.27831,-0.61668 1.27832,-0.61668 1.64587,-0.49808 1.64588,-0.49807 1.98437,-0.48974 1.98438,-0.48973 47.1713,-0.0725 47.1713,-0.0725 -0.10324,31.02871 -0.10323,31.02871 -0.3992,1.85208 -0.39919,1.85209 -0.32446,1.19062 -0.32446,1.19063 -0.48845,1.4552 -0.48844,1.45521 -0.97487,1.85209 -0.97486,1.85208 -1.2018,1.85208 -1.2018,1.85209 -2.00742,2.07315 -2.00743,2.07315 -1.71979,1.26694 -1.71979,1.26694 -0.79375,0.43358 -0.79375,0.43359 -0.39688,0.24865 -0.39687,0.24865 -1.05834,0.43152 -1.05833,0.43151 -0.81127,0.34734 -0.81126,0.34733 -1.96686,0.54582 -1.96686,0.54582 -2.24202,0.2754 -2.24202,0.2754 h -46.11889 -46.11889 z m 72.99419,-7.24567 0.64651,-0.69724 1.87205,-3.73454 1.87205,-3.73453 0.54661,-1.78958 0.54661,-1.78958 0.51741,-2.02306 0.51741,-2.02305 v -3.08466 -3.08465 l -0.40616,-1.36768 -0.40616,-1.36769 -0.69892,-1.39232 -0.69892,-1.39231 -0.75863,-1.05834 -0.75864,-1.05833 -1.77431,-1.81545 -1.7743,-1.81545 -1.45521,-0.99265 -1.45521,-0.99266 -1.38906,-0.72535 -1.38906,-0.72536 0.002,-0.17071 0.002,-0.17071 1.78379,-2.36381 1.78378,-2.36382 0.66146,-0.92226 0.66146,-0.92227 0.31649,-0.10466 0.31648,-0.10465 0.70042,1.14178 0.70042,1.14178 0.82159,1.19062 0.82159,1.19063 1.31557,1.52772 1.31558,1.52772 0.88751,0.54851 0.88751,0.54851 1.38238,0.36803 1.38237,0.36802 0.95753,0.003 0.95753,0.003 2.21747,-0.38805 2.21748,-0.38805 1.69951,-0.55938 1.69952,-0.55938 2.40152,-1.1652 2.40153,-1.16521 0.46193,-0.36313 0.46193,-0.36314 -0.49675,-1.50575 -0.49675,-1.50575 -0.14536,-0.14536 -0.14536,-0.14536 -1.3542,0.29042 -1.3542,0.29042 h -4.40135 -4.40136 l -1.11234,-0.53847 -1.11233,-0.53847 -0.66256,-0.98288 -0.66257,-0.98289 -0.39576,-0.92604 -0.39575,-0.92604 -0.86699,-2.24896 -0.86699,-2.24896 -0.88822,-1.71979 -0.88823,-1.71979 -0.5508,-0.92604 -0.5508,-0.92604 -0.93576,-1.14829 -0.93575,-1.14828 -0.69038,-0.65798 -0.69039,-0.65798 -1.7317,-1.14409 -1.73171,-1.14409 -0.96915,-0.40494 -0.96915,-0.40493 -1.61999,-0.41503 -1.61999,-0.41502 -2.02915,2.2e-4 -2.02916,2.2e-4 -1.9212,0.4008 -1.92121,0.40081 -1.23967,0.42088 -1.23967,0.42088 -1.9985,1.06262 -1.9985,1.06261 -1.4552,0.94454 -1.45521,0.94453 -3.50573,3.49994 -3.50573,3.49995 v 0.47286 0.47287 l 0.97974,1.00335 0.97974,1.00334 h 0.41642 0.41642 l 1.84498,-1.8777 1.84499,-1.87771 1.05833,-0.69355 1.05834,-0.69354 1.05833,-0.56998 1.05833,-0.56998 1.45521,-0.40801 1.45521,-0.40802 2.38125,-0.063 2.38125,-0.063 1.32292,0.0444 1.32291,0.0445 0.36823,0.23318 0.36823,0.23317 -0.50164,0.75496 -0.50164,0.75496 -0.43249,0.92605 -0.43249,0.92604 -2.41066,4.91329 -2.41066,4.91329 v 0.19065 0.19065 l -0.59531,0.84132 -0.59532,0.84131 -1.01161,1.33079 -1.01162,1.33078 -2.13648,2.17422 -2.13649,2.17421 -2.27586,1.12042 -2.27585,1.12041 -3.43959,0.0409 -3.43958,0.0409 -1.19062,-0.46597 -1.19063,-0.46598 -0.39687,-0.16792 -0.39688,-0.16791 -0.52917,-0.32036 -0.52916,-0.32035 -1.23349,-0.85658 -1.23348,-0.85659 -1.24605,-1.45852 -1.24605,-1.45852 h -0.39281 -0.3928 l -0.56293,0.71566 -0.56294,0.71565 -0.60364,0.88953 -0.60365,0.88952 0.40011,0.84222 0.40011,0.84222 0.99547,1.05833 0.99546,1.05833 1.98189,1.65566 1.98188,1.65565 1.46788,1.01729 1.46788,1.01729 1.77594,0.84758 1.77594,0.84757 1.91556,0.43383 1.91555,0.43383 2.77813,-0.0145 2.77812,-0.0145 1.57512,-0.33173 1.57512,-0.33173 0.93842,-0.40756 0.93842,-0.40756 3.175,-1.5597 3.175,-1.5597 0.97944,-0.15204 0.97944,-0.15203 2.15869,0.71602 2.1587,0.71603 1.49208,0.95188 1.49207,0.95189 1.53359,1.4593 1.53359,1.45929 0.45079,0.94024 0.45078,0.94024 -0.0232,3.30729 -0.0232,3.3073 -0.7254,2.51354 -0.72541,2.51354 -0.67564,1.71979 -0.67564,1.71979 -0.90081,1.94528 -0.90082,1.94528 0.30693,0.36983 0.30692,0.36982 h 2.73502 2.73502 z m 8.59172,-60.4415 1.62841,-0.81373 0.89511,-1.1045 0.89511,-1.1045 0.19695,-0.66146 0.19695,-0.66146 0.28667,-0.35733 0.28668,-0.35732 -0.0181,-1.75934 -0.0181,-1.75934 -0.67569,-1.47888 -0.6757,-1.47888 -0.83809,-0.8381 -0.83809,-0.83809 -1.23455,-0.72457 -1.23455,-0.72457 -2.24896,-0.001 -2.24896,-10e-4 -1.19062,0.61982 -1.19063,0.61981 -0.61935,0.57081 -0.61935,0.57081 -0.79528,1.17563 -0.79528,1.17563 -0.28363,1.52513 -0.28362,1.52513 0.32767,1.46419 0.32766,1.46418 0.84143,1.23996 0.84142,1.23996 0.95978,0.76669 0.95977,0.7667 1.0246,0.36523 1.0246,0.36522 1.74368,0.0116 1.74368,0.0116 z"
       id="path317" /></g><style
     id="style1">@media(prefers-color-scheme:dark){.lines{fill:#d7d7d7}}</style></svg>
