<?xml version="1.0" encoding="UTF-8" standalone="no"?>
<!-- Created with Inkscape (http://www.inkscape.org/) -->

<svg
   width="250.86391mm"
   height="272.70456mm"
   viewBox="0 0 250.86391 272.70456"
   version="1.1"
   id="svg1"
   xml:space="preserve"
   inkscape:version="1.4.4 (dcaf3e7, 2026-05-05)"
   sodipodi:docname="logos teams.svg"
   inkscape:export-batch-name="logos teams"
   inkscape:export-batch-path="Desktop/3 LIGA"
   xmlns:inkscape="http://www.inkscape.org/namespaces/inkscape"
   xmlns:sodipodi="http://sodipodi.sourceforge.net/DTD/sodipodi-0.dtd"
   xmlns="http://www.w3.org/2000/svg"
   xmlns:svg="http://www.w3.org/2000/svg"><sodipodi:namedview
     id="namedview1"
     pagecolor="#ffffff"
     bordercolor="#000000"
     borderopacity="0.25"
     inkscape:showpageshadow="2"
     inkscape:pageopacity="0.0"
     inkscape:pagecheckerboard="0"
     inkscape:deskcolor="#d1d1d1"
     inkscape:document-units="mm"
     inkscape:zoom="0.037190382"
     inkscape:cx="-4006.4122"
     inkscape:cy="-8779.1516"
     inkscape:window-width="1920"
     inkscape:window-height="1050"
     inkscape:window-x="0"
     inkscape:window-y="30"
     inkscape:window-maximized="0"
     inkscape:current-layer="layer1"><inkscape:page
       x="0"
       y="0"
       width="250.86391"
       height="272.70453"
       id="page1"
       margin="0"
       bleed="0" /></sodipodi:namedview><defs
     id="defs1"><style
       id="style1-7">
      .cls-1 {
        fill: #fff;
      }
    </style></defs><g
     inkscape:label="Ebene 1"
     inkscape:groupmode="layer"
     id="layer1"
     transform="translate(732.56713,1054.8002)"><path
       style="fill:#000000"
       d="m -731.89915,-783.16441 c -0.36739,-0.36739 -0.66798,-1.72863 -0.66798,-3.02499 v -2.35701 l 2.39561,0.60126 2.39561,0.60126 0.63235,-1.02317 0.63235,-1.02316 -3.02796,-3.44866 -3.02796,-3.44866 v -2.62313 -2.62314 l 2.00393,-2.00393 c 2.85054,-2.85054 8.01574,-1.85935 8.01574,1.5382 v 1.4677 h -2.50492 -2.50491 v 1.10782 c 0,0.6093 1.12721,2.44744 2.50491,4.08475 3.37652,4.01276 3.63923,7.86507 0.75625,11.0894 l -1.56781,1.75344 h -2.68362 c -1.47599,0 -2.9842,-0.30059 -3.35159,-0.66798 z m 21.81325,-2.40371 -2.94287,-3.0717 v -5.52721 -5.52722 l 3.3382,-2.98268 3.33819,-2.98268 2.17263,0.30946 2.17262,0.30946 0.32018,2.25443 0.32018,2.25442 h -2.53936 -2.53935 l -1.03722,1.93806 c -1.48681,2.77813 -1.27985,6.28735 0.52255,8.86064 l 1.55976,2.22687 h 1.94712 1.94712 v 2.50492 2.50492 h -2.81844 -2.81844 z m 18.59942,-7.88026 v -11.09133 h 2.50492 2.50492 v 4.00787 4.00787 h 2.00393 2.00394 v -4.00787 -4.00787 h 2.53881 2.53882 l -0.28439,10.77115 -0.28439,10.77115 -2.25443,0.32018 -2.25442,0.32017 v -5.07952 -5.07952 h -1.94904 -1.94903 l -0.3054,4.75934 -0.30539,4.75935 -2.25442,0.32018 -2.25443,0.32017 z m 24.04721,0 v -11.09133 h 4.35356 4.35356 l 1.65824,1.83234 c 2.10966,2.33115 2.12392,6.01203 0.0323,8.3233 l -1.626,1.79671 1.626,4.06377 c 0.8943,2.23508 1.626,4.5369 1.626,5.11516 v 1.05137 l -2.25443,-0.32017 -2.25442,-0.32018 -1.15274,-3.50689 -1.15274,-3.50688 -0.35021,3.50688 -0.35022,3.50689 -2.25442,0.32018 -2.25443,0.32017 z m 7.01377,-5.13866 c 0,-1.06964 -0.45088,-1.9448 -1.00197,-1.9448 -0.55108,0 -1.00196,1.15382 -1.00196,2.56405 v 2.56405 l 1.00196,-0.61925 c 0.55109,-0.34058 1.00197,-1.49441 1.00197,-2.56405 z m 12.75953,15.33913 c -0.21137,-0.41331 0.7289,-5.39671 2.08949,-11.07423 l 2.47379,-10.32275 2.59654,0.30308 2.59654,0.30309 2.21525,10.01967 c 2.74079,12.39668 2.72379,11.52262 0.22424,11.52262 h -2.09774 l -0.52404,-2.00393 -0.52404,-2.00394 h -1.98088 -1.98088 l -0.52404,2.00394 -0.52404,2.00393 h -1.82794 c -1.00537,0 -2.00088,-0.33816 -2.21225,-0.75148 z m 7.65893,-10.01967 c -0.9437,-3.93371 -1.38108,-4.06592 -1.38108,-0.41748 v 3.17289 h 1.02105 1.02106 z m 14.56689,10.35593 c -0.22961,-0.22837 0.003,-5.18811 0.51664,-11.02164 l 0.93412,-10.60642 h 3.32424 3.32424 l 0.0153,3.75738 c 0.008,2.06656 0.45242,4.4337 0.98662,5.26033 l 0.97129,1.50295 0.0153,-3.67543 c 0.008,-2.02149 0.28902,-4.38863 0.62352,-5.26033 l 0.60819,-1.5849 h 2.80875 2.80876 l 0.68921,8.76722 c 0.37907,4.82196 0.75771,9.66752 0.84142,10.7679 l 0.15221,2.00069 -2.14955,0.30968 -2.14955,0.30968 -0.78774,-6.31824 -0.78773,-6.31824 -0.84415,5.48478 c -0.46429,3.01663 -1.28421,5.92484 -1.82206,6.46269 l -0.97791,0.97791 -0.95131,-0.95187 c -0.52322,-0.52353 -1.36934,-3.88263 -1.88026,-7.46466 l -0.92895,-6.51278 -0.12367,4.13311 c -0.068,2.27321 -0.40548,5.54213 -0.7499,7.26426 l -0.62623,3.13115 h -1.7117 c -0.94143,0 -1.89956,-0.18685 -2.12918,-0.41522 z m 28.13858,-10.47611 v -11.15195 h 4.43728 4.43728 l 1.57452,1.57452 c 1.80362,1.80362 2.02715,4.72526 0.56985,7.44825 l -1.00468,1.87726 1.00468,0.62092 c 1.43368,0.88607 1.24206,5.8068 -0.30872,7.92762 l -1.31339,1.79617 -4.69841,0.52958 -4.69841,0.52958 z m 7.54188,4.83564 c 0.70701,-1.14397 -1.47721,-4.35084 -2.36125,-3.4668 -0.30008,0.30008 -0.61137,1.43819 -0.69174,2.52913 l -0.14613,1.98352 h 1.27637 c 0.70201,0 1.56724,-0.47063 1.92275,-1.04585 z m 0.0323,-10.8816 c -0.37327,-0.60397 -1.25304,-1.09812 -1.95505,-1.09812 h -1.27637 l 0.25004,2.25443 c 0.13752,1.23993 0.28761,2.46376 0.33354,2.71962 0.0459,0.25586 0.81317,-0.26448 1.705,-1.15631 l 1.62151,-1.6215 z m 14.4691,5.91565 v -11.02164 h 4.50885 4.50885 v 2.00394 2.00393 h -2.00393 -2.00394 v 2.00394 2.00393 h 2.00394 2.00393 v 2.00393 2.00394 h -2.00393 -2.00394 v 2.50492 2.50491 h 2.00394 2.00393 v 2.50492 2.50492 h -4.50885 -4.50885 z m 19.70535,10.35366 c -0.36739,-0.36739 -0.66798,-5.32712 -0.66798,-11.02164 v -10.35366 h 4.35356 4.35356 l 1.65824,1.83234 c 2.09519,2.31516 2.12767,6.00788 0.0728,8.27847 l -1.58543,1.75188 2.08641,4.71668 c 2.5624,5.79273 2.58114,5.46391 -0.31134,5.46391 h -2.39775 l -1.55849,-3.75738 -1.55848,-3.75737 -0.0516,3.75737 -0.0516,3.75738 h -1.83694 c -1.01032,0 -2.13753,-0.30059 -2.50492,-0.66798 z m 6.74283,-13.95096 c 0.68144,-1.77583 -0.0188,-3.41647 -1.45814,-3.41647 -0.51856,0 -0.94283,1.12721 -0.94283,2.50492 0,2.80284 1.46219,3.35797 2.40097,0.91155 z m 17.86778,13.97015 c -0.70045,-0.29382 -1.94038,-1.82376 -2.75541,-3.39985 l -1.48187,-2.86562 v -5.13666 -5.13667 l 2.92883,-2.92883 c 3.47573,-3.47573 4.93628,-3.62288 8.45867,-0.85217 3.00457,2.3634 3.3953,4.4329 1.00978,5.34831 l -1.63025,0.62558 -1.23076,-1.68315 -1.23075,-1.68316 -1.69821,0.65167 -1.6982,0.65166 0.30085,5.77343 0.30086,5.77343 h 1.99021 1.99021 l 0.33769,-1.75344 0.33768,-1.75344 h -2.07741 -2.0774 v -2.00394 -2.00393 h 4.63995 4.63996 l -0.60593,3.73388 c -0.33326,2.05363 -1.45134,4.87167 -2.48462,6.26229 l -1.87869,2.52842 -2.40583,0.19321 c -1.3232,0.10626 -2.97891,-0.0472 -3.67936,-0.34102 z m -201.6248,-49.86034 v -21.47875 l 2.59399,-3.08278 c 3.61822,-4.3 4.66894,-3.84539 2.08211,0.90087 l -2.17118,3.98365 1.10303,1.77766 c 0.60666,0.97772 2.23151,1.91397 3.61077,2.08057 l 2.50775,0.30289 4.40496,-3.55055 c 13.27857,-10.703 15.36207,-11.78845 11.38854,-5.93313 -2.8321,4.17333 -2.99486,5.27863 -1.14903,7.80296 l 1.3257,1.813 3.10398,-0.68175 c 1.70719,-0.37496 4.37955,-1.89055 5.93857,-3.36798 8.72609,-8.26939 17.44176,-14.08899 10.94587,-7.30873 l -2.78429,2.90616 -0.15858,3.21817 -0.15859,3.21816 1.59836,1.03699 1.59836,1.03698 2.64339,-0.66345 c 1.45386,-0.36489 5.88995,-3.58748 9.85798,-7.16131 6.6107,-5.95397 11.36095,-8.92913 7.57219,-4.74259 -4.05644,4.48231 -4.23888,9.25693 -0.42041,11.00199 l 2.19931,1.00509 v 18.41849 18.41849 l -33.81639,0.26382 -33.81639,0.26382 z m 72.14163,18.96626 v -2.48583 l 2.75541,-0.5912 c 40.31684,-8.65031 55.21259,-54.04971 27.16971,-82.80812 l -5.6447,-5.78874 -6.32254,-2.99008 c -3.47739,-1.64455 -8.71504,-3.52551 -11.63922,-4.17991 l -5.31669,-1.18983 v -36.91334 c 0,-20.30233 -0.25509,-36.91334 -0.56686,-36.91334 -0.31177,0 -1.43898,0.46675 -2.50491,1.03722 l -1.93807,1.03723 v 56.91604 56.91604 l -2.55206,1.16279 c -5.50187,2.50683 -9.47154,0.89447 -9.47154,-3.84703 0,-1.43282 0.54106,-3.14618 1.20236,-3.80748 3.03245,-3.03245 -1.0168,-0.74943 -5.60319,3.15915 -8.76009,7.46547 -13.07853,9.04049 -15.98421,5.82976 -2.35929,-2.60699 -2.05641,-5.55645 0.93575,-9.11243 3.81178,-4.53004 1.83184,-3.78145 -6.42282,2.42842 -8.84938,6.65725 -10.38233,7.51438 -13.43933,7.51438 -4.74589,0 -6.38458,-5.27201 -3.09743,-9.96509 l 1.67769,-2.39523 -4.4331,3.06781 c -2.4382,1.6873 -5.52618,4.24293 -6.86218,5.67918 -1.33599,1.43625 -2.80137,2.61136 -3.25639,2.61136 h -0.82731 v -61.62097 -61.62098 h 31.13949 31.13948 l 9.70175,-5.96194 c 13.43934,-8.25874 27.58186,-14.77264 37.97,-17.48864 4.83031,-1.2628 10.05167,-2.8155 11.60302,-3.4503 1.55135,-0.6348 5.08328,-1.1542 7.84874,-1.1542 h 5.02811 l -0.39662,1.1898 c -0.21813,0.6544 -1.49564,1.5074 -2.8389,1.8954 -11.30428,3.2656 -14.53333,4.3322 -14.96689,4.944 -0.66428,0.9374 -18.1042,8.0023 -19.75383,8.0023 -0.70811,0 -1.28747,0.6281 -1.28747,1.3957 0,0.7677 -0.75173,1.6842 -1.6705,2.0368 l -1.6705,0.641 1.16951,1.16955 c 0.64324,0.64323 1.16952,2.43199 1.16952,3.97502 v 2.80551 h 5.29799 5.29799 l 4.932,-5.00728 4.93199,-5.0073 4.25531,-1.6251 4.25532,-1.6251 3.50669,0.6578 3.50669,0.6579 2.04735,2.6028 2.04735,2.60276 v 3.37176 3.37176 h 3.0059 3.0059 v 14.32813 14.32813 l 1.20237,1.20236 c 0.66129,0.6613 1.56306,1.20236 2.00393,1.20236 h 0.80157 v -15.53049 -15.53049 h 2.30219 2.3022 l 1.22381,-9.68958 c 1.54266,-12.214 3.82355,-14.7661 10.16419,-11.3727 l 1.83311,0.9811 1.19224,4.9698 c 0.65573,2.7334 1.0883,6.4626 0.96126,8.28714 -0.12703,1.82455 -0.16542,4.12616 -0.0853,5.11469 l 0.14566,1.79734 7.18471,-0.29439 7.18472,-0.29438 2.18473,-6.51279 c 1.20161,-3.58201 2.7233,-7.83601 3.38153,-9.45331 l 1.1968,-2.9406 -1.29805,-0.7347 c -3.49943,-1.9806 -9.81477,-7.0301 -9.81477,-7.8474 0,-3.8045 4.96872,-4.8752 11.14858,-2.4025 l 4.17537,1.6706 3.74308,-0.9991 3.74308,-0.999 1.69973,3.8525 1.69972,3.8525 3.17718,1.6233 c 1.74745,0.8928 6.16369,3.5453 9.81386,5.8944 l 6.63668,4.2712 5.88791,-1.4055 c 3.23835,-0.773 9.57731,-2.0124 14.08656,-2.7542 l 8.19865,-1.3487 1.25561,0.776 1.25561,0.776 -1.31071,1.5794 c -0.7209,0.8686 -1.77311,1.5793 -2.33825,1.5793 -1.50319,0 -18.65278,8.40101 -18.71425,9.16748 -0.0287,0.35794 1.51118,2.97396 3.42197,5.81338 5.43321,8.07371 6.77328,14.41049 3.7901,17.92217 l -1.75344,2.06408 -3.69203,0.65109 -3.69203,0.65109 -1.13951,-4.35761 c -0.62673,-2.39669 -3.00003,-7.64236 -5.274,-11.65705 l -4.13449,-7.29944 -1.55463,0.29773 -1.55462,0.29774 -0.50098,16.01941 -0.50099,16.01941 -9.61406,13.52655 c -12.02865,16.92376 -19.87267,29.28371 -31.14287,49.07233 l -8.83975,15.52114 5.25998,2.72485 c 7.3677,3.8167 6.8475,4.16422 14.90252,-9.9557 8.23421,-14.43403 20.56121,-34.35312 25.87727,-41.81483 l 3.55691,-4.99254 0.31404,3.79142 0.31404,3.79143 -4.92258,7.7139 c -15.06811,23.61239 -36.42425,65.19485 -46.80182,91.12766 l -6.91655,17.28393 h -4.80995 -4.80996 v -67.47748 -67.47749 l -2.00393,-1.81353 -2.00394,-1.81354 v 69.29102 69.29102 h -34.06688 -34.06688 z m 13.11387,-122.00859 c 0.0486,-0.68885 0.16128,-3.95777 0.25049,-7.26426 l 0.1622,-6.0118 1.10047,0.19983 1.10048,0.19983 1.16473,-12.72442 c 0.6406,-6.99843 1.80814,-17.9096 2.59452,-24.24704 l 1.42979,-11.52262 -0.93959,-0.95187 c -3.24741,-3.28986 -0.71138,-6.58216 7.20971,-9.35966 3.10441,-1.0886 6.59877,-2.9336 7.76525,-4.1001 1.16647,-1.1664 2.90991,-2.1564 3.87431,-2.1999 0.96439,-0.043 1.25794,-0.2839 0.65232,-0.5341 -4.39249,-1.8147 -56.51199,25.11368 -56.51199,29.19791 0,1.2712 9.77169,-0.74801 14.52852,-3.00215 2.75541,-1.30572 6.13705,-2.85839 7.51476,-3.45038 1.3777,-0.592 3.28155,-1.6331 4.23078,-2.31357 l 1.72586,-1.23721 0.97515,0.97945 0.97515,0.97945 -1.88782,9.73606 c -1.74711,9.01037 -4.01519,34.11899 -4.01519,44.44987 v 4.42914 h 3.0059 3.0059 z m -3.0942,-13.77705 v -3.0059 h 1.00197 1.00197 v 3.0059 3.00591 h -1.00197 -1.00197 z m 6.01181,13.52656 c 0,-0.27554 -0.22545,-0.50098 -0.50099,-0.50098 -0.27554,0 -0.50098,0.22544 -0.50098,0.50098 0,0.27554 0.22544,0.50098 0.50098,0.50098 0.27554,0 0.50099,-0.22544 0.50099,-0.50098 z m 19.6845,-6.74925 c 0.42096,-0.68114 0.85421,-6.57354 0.96277,-13.09424 0.22073,-13.25886 0.29034,-13.48099 3.56349,-11.37184 l 2.34136,1.50872 3.5819,-0.11931 3.5819,-0.11932 6.93876,4.62058 c 3.81631,2.54132 9.71498,7.13729 13.10815,10.21328 l 6.16939,5.59269 h 2.53869 c 9.42997,0 -4.56231,-13.97437 -23.10133,-23.07175 -10.50353,-5.15425 -10.40241,-4.80466 -3.43127,-11.86294 3.25791,-3.29864 6.58295,-7.31945 7.38897,-8.93515 l 1.46548,-2.93763 -0.34829,-3.39889 -0.34829,-3.39888 -2.56561,-2.25439 -2.5656,-2.2545 h -2.48236 c -1.36529,0 -4.68081,1.1141 -7.36782,2.4757 l -4.88546,2.47565 -3.57845,4.36702 c -4.58216,5.59193 -8.18495,15.20199 -9.61512,25.64731 l -1.12815,8.23957 0.69429,9.45838 0.69429,9.45837 h 3.81146 3.81145 z m 0.75474,-30.22564 c -0.51271,-1.3361 1.20027,-5.80237 5.93358,-15.47075 3.71291,-7.58407 10.0124,-11.91738 12.66983,-8.71539 l 1.21328,1.46191 -0.70827,3.22474 c -1.51556,6.90029 -8.23094,16.21231 -13.7071,19.00723 -4.44843,2.2704 -4.70984,2.29422 -5.40132,0.49226 z m 17.63551,-21.08007 c 0,-0.7941 -0.49637,-1.75059 -1.10304,-2.12553 l -1.10303,-0.68171 -2.12553,2.12553 -2.12553,2.12553 h 3.22856 3.22857 z m 56.58102,32.85105 c 0.41732,-1.01706 1.35395,-5.16228 2.0814,-9.2116 l 1.32265,-7.3624 1.77573,-1.96217 c 1.82157,-2.0128 16.89877,-10.86713 18.50462,-10.86713 0.49165,0 0.89391,-0.43673 0.89391,-0.97052 v -0.97052 l -1.50295,0.57674 -1.50295,0.57674 v -1.61015 -1.61015 h 1.80354 c 0.99195,0 2.37681,0.5636 3.07747,1.25245 l 1.27393,1.25246 -0.32206,-1.44344 -0.32206,-1.44344 1.97204,-0.42557 1.97204,-0.42556 -1.30106,1.56768 -1.30106,1.56768 2.77526,-0.19966 2.77527,-0.19965 4.22726,6.82715 c 2.325,3.75494 4.8137,8.81328 5.53046,11.24076 l 1.30318,4.41361 2.92337,-0.32004 2.92337,-0.32003 0.97103,-1.73513 0.97103,-1.73514 -0.68065,-3.62817 c -0.81966,-4.36913 -3.99801,-10.91875 -6.76499,-13.94056 l -2.01762,-2.20344 0.5682,-1.48071 c 0.31251,-0.81439 2.51126,-2.38729 4.88611,-3.49534 2.37485,-1.10806 5.896,-2.91246 7.82479,-4.00986 1.92878,-1.0973 4.80002,-2.2746 6.38052,-2.6162 1.58051,-0.3415 2.67683,-0.8178 2.43627,-1.0584 -0.5598,-0.5598 -14.68619,1.9159 -22.34657,3.9163 l -5.87925,1.5353 -6.57745,-4.3306 c -3.6176,-2.3818 -7.70467,-4.9144 -9.08237,-5.6281 -1.37771,-0.7138 -3.96598,-2.4604 -5.75173,-3.8816 l -3.24681,-2.5839 0.56237,-1.7718 0.56236,-1.7719 -2.57299,1.1724 -2.57299,1.1723 -5.93977,-1.7984 c -10.18027,-3.0824 -12.09582,-0.5836 -3.53161,4.6068 l 5.5639,3.3721 -0.48836,1.5096 c -0.26859,0.8302 -1.61152,4.4809 -2.98429,8.1126 -1.37276,3.6317 -3.18618,9.9441 -4.02982,14.02756 l -1.53388,7.42447 -2.29819,1.76541 c -10.61386,8.15326 -12.22409,10.7402 -4.25965,6.84339 l 3.9654,-1.94017 0.32558,1.43347 c 0.17907,0.78841 -0.15368,5.35165 -0.73946,10.14053 l -1.06505,8.70707 1.23204,0.76144 1.23203,0.76144 2.61988,-2.8684 c 1.44093,-1.57762 2.96131,-3.70054 3.37863,-4.7176 z m 4.75346,-32.28499 0.47578,-4.95154 -1.3471,0.51693 -1.34711,0.51693 v -1.58158 c 0,-0.86986 1.09207,-4.05096 2.42682,-7.06906 l 2.42682,-5.4874 6.98913,3.5858 c 3.84403,1.9723 8.2753,4.6817 9.84728,6.021 l 2.85815,2.43497 -1.28098,0.53295 c -0.70454,0.29313 -5.83579,2.76037 -11.40278,5.48275 l -10.12179,4.9498 z m 11.74398,-3.03515 7.44962,-3.81377 -2.43978,-1.5526 c -5.32404,-3.3882 -10.4135,-5.6878 -11.03603,-4.9865 -1.00777,1.1354 -3.92835,10.38431 -3.92835,12.44033 v 1.82545 l 1.25246,-0.0496 c 0.68885,-0.0273 4.60479,-1.76576 8.70208,-3.86332 z m -9.95454,-4.60377 c 0,-0.2756 -0.22544,-0.501 -0.50098,-0.501 -0.27554,0 -0.50098,0.2254 -0.50098,0.501 0,0.2755 0.22544,0.5009 0.50098,0.5009 0.27554,0 0.50098,-0.2254 0.50098,-0.5009 z m 1.50295,-6.5128 c 0.34059,-0.5511 0.39381,-1.002 0.11827,-1.002 -0.27554,0 -0.77965,0.4509 -1.12023,1.002 -0.34059,0.551 -0.39381,1.0019 -0.11827,1.0019 0.27554,0 0.77965,-0.4509 1.12023,-1.0019 z m -5.50244,-8.9914 -1.49458,-0.9449 1.20162,-1.2016 1.20162,-1.2016 1.54542,1.2826 c 2.99375,2.4846 0.94125,4.2121 -2.45408,2.0655 z m -25.18135,51.68803 1.37916,-0.88891 -0.57063,-6.12486 c -0.31384,-3.36867 -0.10744,-12.08997 0.45868,-19.38065 l 1.02931,-13.25581 -1.16661,-3.5348 c -2.03145,-6.1554 -7.30911,-7.0327 -8.54188,-1.4199 -0.35445,1.6138 -0.99353,6.4232 -1.42018,10.68747 l -0.77572,7.75326 0.95015,1.21571 0.95015,1.2157 -0.45142,9.30495 c -0.24827,5.11772 -0.56859,9.75583 -0.71182,10.30692 -0.14322,0.55108 -0.20646,1.90373 -0.14053,3.0059 l 0.11987,2.00393 h 3.75616 c 2.06589,0 4.37678,-0.40001 5.13531,-0.88891 z m -44.23412,-50.31583 c -0.33295,-0.3329 -1.19714,-0.3685 -1.92044,-0.079 l -1.31508,0.5263 1.92044,0.079 c 1.05624,0.043 1.64802,-0.1933 1.31508,-0.5263 z m 9.28907,-2.4005 1.50295,-0.9713 h -1.50295 c -0.82662,0 -2.17928,0.4371 -3.0059,0.9713 l -1.50295,0.9713 h 1.50295 c 0.82662,0 2.17928,-0.4371 3.0059,-0.9713 z m 44.08655,205.12132 c 0,-7.3298 26.64361,-65.14503 40.75501,-88.43622 1.85302,-3.05844 1.84286,-3.34785 1.55799,44.38111 l -0.2706,45.33901 h -21.0212 -21.0212 z m -23.33434,-212.91592 c -1.53556,-1.6028 -3.24836,-4.5671 -3.8062,-6.5875 l -1.01427,-3.6734 1.30232,-2.6543 c 0.71628,-1.4599 2.95014,-3.9793 4.96412,-5.5987 l 3.6618,-2.9443 1.99133,0.6321 c 1.09524,0.3476 2.21777,1.4979 2.49452,2.5562 l 0.50319,1.9242 -1.36511,1.8 c -1.26749,1.6713 -1.96004,5.3069 -1.01092,5.3069 3.81571,0 13.0034,-6.5312 14.11511,-10.0339 l 0.66205,-2.0859 -1.20744,-1.4549 c -0.66409,-0.8002 -1.77334,-1.4548 -2.46501,-1.4548 -0.69167,0 -1.78025,-0.6298 -2.41907,-1.3996 l -1.1615,-1.3995 -1.96709,0.5144 -1.96709,0.5144 v -1.0513 c 0,-1.6038 2.85433,-2.1409 10.11702,-1.9034 l 6.61015,0.2161 1.55127,1.2882 c 0.8532,0.7084 1.84451,2.8512 2.20291,4.7617 l 0.65164,3.4735 -1.96049,4.432 c -1.07827,2.4376 -3.8668,6.5001 -6.19673,9.0278 l -4.23623,4.5958 -5.12125,1.4424 c -2.81668,0.7933 -6.69981,1.7186 -8.62917,2.0562 l -3.50792,0.6138 z m 11.74049,-0.8148 6.35241,-1.5957 3.559,-2.9336 3.559,-2.9337 2.68026,-5.4782 2.68027,-5.4783 -0.61415,-2.447 c -0.33778,-1.3458 -1.322,-3.1548 -2.18716,-4.0199 l -1.57302,-1.5731 h -4.18679 -4.18679 l 3.25639,1.9855 3.2564,1.9855 -0.004,1.7681 c -0.002,0.9725 -0.87557,3.198 -1.94114,4.9456 l -1.9374,3.1773 -4.49738,2.6357 c -2.47356,1.4496 -5.77074,2.7251 -7.32706,2.8344 l -2.82966,0.1988 0.004,-3.1632 c 0.002,-1.7398 -0.33908,-2.9512 -0.75855,-2.6919 -0.41947,0.2592 -1.03537,-0.2393 -1.36867,-1.1079 l -0.606,-1.5792 1.36455,-1.6543 1.36456,-1.6542 -2.17672,1.1597 c -1.1972,0.6378 -3.15327,2.4011 -4.34683,3.9185 l -2.17011,2.7589 0.64001,4.0107 0.64001,4.0108 2.70485,2.2184 c 3.27684,2.6875 2.83185,2.6585 10.64936,0.6948 z m -11.00437,-8.5113 c -0.37026,-0.5991 -0.17143,-1.5911 0.44185,-2.2044 l 1.11506,-1.115 1.11506,1.115 c 1.15619,1.1562 0.43257,3.2936 -1.11506,3.2936 -0.48603,0 -1.18664,-0.4901 -1.55691,-1.0892 z"
       id="path199" /></g><style
     id="style1">@media(prefers-color-scheme:dark){.lines{fill:#d7d7d7}}</style></svg>
