<?xml version="1.0" encoding="UTF-8" standalone="no"?>
<!-- Created with Inkscape (http://www.inkscape.org/) -->

<svg
   width="404.18954mm"
   height="37.46423mm"
   viewBox="0 0 404.18954 37.46423"
   version="1.1"
   id="svg1"
   xml:space="preserve"
   inkscape:version="1.4.4 (dcaf3e7, 2026-05-05)"
   sodipodi:docname="logos teams.svg"
   inkscape:export-batch-name="logos teams"
   inkscape:export-batch-path="Desktop"
   xmlns:inkscape="http://www.inkscape.org/namespaces/inkscape"
   xmlns:sodipodi="http://sodipodi.sourceforge.net/DTD/sodipodi-0.dtd"
   xmlns="http://www.w3.org/2000/svg"
   xmlns:svg="http://www.w3.org/2000/svg"><sodipodi:namedview
     id="namedview1"
     pagecolor="#ffffff"
     bordercolor="#000000"
     borderopacity="0.25"
     inkscape:showpageshadow="2"
     inkscape:pageopacity="0.0"
     inkscape:pagecheckerboard="0"
     inkscape:deskcolor="#d1d1d1"
     inkscape:document-units="mm"
     inkscape:zoom="0.69712823"
     inkscape:cx="489.14961"
     inkscape:cy="355.02794"
     inkscape:window-width="1920"
     inkscape:window-height="1050"
     inkscape:window-x="0"
     inkscape:window-y="30"
     inkscape:window-maximized="0"
     inkscape:current-layer="layer1"><inkscape:page
       x="0"
       y="0"
       width="404.18954"
       height="37.46423"
       id="page1"
       margin="0"
       bleed="0" /></sodipodi:namedview><defs
     id="defs1" /><g
     inkscape:label="Ebene 1"
     inkscape:groupmode="layer"
     id="layer1"
     transform="translate(-160.15295,138.7757)"><path
       style="fill:#000000;stroke-width:3.20844"
       d="m 481.15021,-103.40601 v -2.09444 l 9.53999,-0.23999 9.53996,-0.23999 0.28459,-1.48557 0.28458,-1.48558 h -6.89562 -6.89558 l -2.46649,-1.27545 -2.46646,-1.27549 -0.56248,-2.99809 c -0.30929,-1.64895 -0.39861,-5.26275 -0.19828,-8.03064 l 0.364,-5.03251 1.5653,-1.72961 1.56528,-1.72961 h 9.07476 9.07476 l 1.40495,1.55241 1.40491,1.5524 -0.0128,11.39335 c -0.0128,12.00487 -0.16203,12.68333 -3.1146,14.23737 l -1.85419,0.97598 h -9.81819 -9.81816 z m 19.52473,-16.17793 v -6.38776 l -2.1775,-0.82791 c -2.84564,-1.08188 -7.6935,-1.05663 -9.76291,0.051 l -1.64202,0.87876 v 5.84171 5.84168 l 1.06113,0.4282 c 0.58361,0.2355 3.63966,0.45832 6.79121,0.49519 l 5.73009,0.067 z m -331.07129,-2.10125 v -11.88459 h -4.72537 -4.72533 l 0.26855,-2.33449 0.26854,-2.33446 h 12.30907 12.30907 l 0.26854,2.33446 0.26855,2.33449 h -4.72536 -4.72534 v 11.88459 11.88463 h -3.39559 -3.39559 z m 14.43129,2.67828 v -9.20634 l 1.54971,-1.40244 1.54968,-1.40247 5.2415,-0.54785 5.24154,-0.54784 v 2.24319 2.24318 h -2.60253 c -1.43138,0 -3.3414,0.39544 -4.24451,0.87876 l -1.64199,0.87876 v 8.03471 8.03469 h -2.5467 -2.5467 z m 17.82691,-1.40491 v -10.61125 h 2.97115 2.97118 v 10.61125 10.61126 h -2.97118 -2.97115 z m 13.96828,8.5276 -2.08366,-2.0837 v -3.04831 -3.04831 l 2.08366,-2.08369 2.08366,-2.08366 h 7.74945 7.74942 l -0.35106,-1.06113 -0.35107,-1.06113 -9.26981,-0.42444 -9.2698,-0.42445 -0.27143,-1.91001 -0.27112,-1.91002 h 10.48144 10.48141 l 1.88669,1.32146 1.8867,1.32149 v 7.9683 7.96827 l -1.8867,1.32149 -1.88669,1.3215 h -8.33871 -8.33872 z m 17.28261,-5.34425 0.26598,-2.7589 h -6.84499 -6.84499 v 3.00685 3.00686 l 6.57898,-0.24801 6.57897,-0.24801 z m 30.91874,6.54799 -1.92237,-0.7723 -0.90144,-2.35728 -0.90148,-2.35728 0.27721,-9.20233 0.27721,-9.20233 2.00409,-1.62113 2.00406,-1.62116 h 10.51721 10.51722 v 2.12226 2.12225 h -8.88357 -8.88361 l -0.87876,1.64199 c -0.48332,0.90308 -0.87876,2.6221 -0.87876,3.82004 v 2.17808 h 9.33789 9.33792 v 2.12223 2.12225 h -9.33792 -9.33789 v 2.48607 2.48606 l 1.33398,1.33401 1.33397,1.33397 h 8.42839 8.42836 v 2.12226 2.12226 l -9.97457,-0.0539 c -5.48602,-0.0289 -10.83966,-0.40134 -11.89698,-0.82611 z m 31.51013,-1.28896 -2.16884,-2.16884 0.29742,-7.23752 0.29742,-7.23748 1.64786,-1.20489 1.64782,-1.2049 h 8.38579 8.38581 l -0.27111,1.91002 -0.27112,1.91001 -7.0399,0.24705 -7.03994,0.24705 0.24866,6.11963 0.24865,6.11959 6.79119,0.42445 6.79121,0.42444 0.27112,1.91005 0.27111,1.91002 h -8.16218 -8.16219 z m 21.77077,-11.838 v -14.00685 h 2.97115 2.97114 v 3.39559 3.39563 h 7.25423 7.25426 l 2.08366,2.08366 2.08366,2.08366 v 8.52759 8.5276 h -2.5467 -2.54671 v -6.72179 c 0,-3.69696 -0.23197,-7.32603 -0.51527,-8.06455 l -0.51528,-1.34277 h -6.27591 -6.27594 v 8.06455 8.06456 h -2.97114 -2.97115 z m 30.75213,-0.21208 0.23261,-14.21909 h 2.5467 2.54671 l 0.26116,3.60783 0.26117,3.60784 h 2.92232 2.92234 v 2.12222 2.12226 h -2.97114 -2.97115 v 8.48903 8.48899 h -2.99168 -2.99168 z m 18.86998,12.13542 -2.08369,-2.08369 v -6.4439 -6.44394 l 2.08369,-2.08366 2.08366,-2.08365 h 8.5276 8.52759 l 1.74783,1.74783 1.74787,1.74786 -0.26213,2.64572 -0.26213,2.64571 -9.14234,2.60988 -9.14233,2.60984 0.23903,1.27337 0.23903,1.27333 9.11564,0.24096 9.1156,0.24095 v 2.09354 2.09355 h -10.2254 -10.22538 z m 14.66596,-12.24862 c 1.04165,-0.28779 1.90116,-0.90548 1.91002,-1.37238 l 0.016,-0.84892 h -6.15453 -6.15454 l -0.26373,2.7285 -0.26373,2.72846 4.50821,-1.35608 c 2.47955,-0.74584 5.36051,-1.59165 6.40213,-1.87958 z m 11.26407,5.12594 v -9.20634 l 1.54972,-1.40244 1.54967,-1.40248 5.24154,-0.54784 5.24151,-0.54784 v 2.24318 2.24319 h -2.60253 c -1.43138,0 -3.3414,0.39544 -4.24448,0.87876 l -1.64202,0.87876 v 8.03471 8.03468 h -2.5467 -2.54671 z m 20.7595,7.12268 -2.08366,-2.08369 v -5.94094 -5.94095 l 0.96591,-2.11992 0.9659,-2.11994 2.55636,-0.89118 c 1.406,-0.49012 5.34135,-0.89115 8.74522,-0.89115 h 6.18883 l 0.26341,-3.18338 0.26342,-3.18336 2.33446,-0.26854 2.33447,-0.26855 v 13.1662 13.1662 l -1.88667,1.3215 -1.88669,1.32149 h -8.33871 -8.33872 z m 17.26454,-9.16427 0.24802,-6.57898 h -5.48413 c -3.01626,0 -6.08838,0.23197 -6.8269,0.51527 l -1.3428,0.51528 v 5.71 c 0,7.05563 -0.1001,6.96258 7.17858,6.6633 l 5.97938,-0.24577 z m 10.36331,0.63668 v -10.61125 h 2.97118 2.97115 v 10.61125 10.61125 h -2.97115 -2.97118 z m 11.03573,1.73086 v -8.8804 l 1.85785,-1.73086 1.85788,-1.73085 h 8.14005 8.14004 l 1.8867,1.32146 1.88669,1.32149 v 9.28976 9.28979 h -2.51484 -2.51484 l -0.24417,-7.85234 -0.24416,-7.85232 -5.86632,-0.2541 -5.86632,-0.25411 -0.69966,1.10303 c -0.38482,0.60665 -0.70551,4.25456 -0.71266,8.10645 l -0.0128,7.00343 h -2.5467 -2.5467 z m 61.5067,6.79673 -2.08366,-2.08369 v -6.4439 -6.44394 l 2.08366,-2.08366 2.08366,-2.08365 h 8.5276 8.52759 l 1.74786,1.74783 1.74787,1.74786 -0.26213,2.64572 -0.26213,2.64571 -9.14233,2.60988 -9.14234,2.60984 0.23903,1.27337 0.23903,1.27333 9.11561,0.24096 9.11564,0.24095 v 2.09354 2.09355 h -10.22541 -10.22541 z m 14.66599,-12.24862 c 1.04162,-0.28779 1.90113,-0.90548 1.91002,-1.37238 l 0.016,-0.84892 h -6.1545 -6.15453 l -0.26374,2.7285 -0.26373,2.72846 4.50825,-1.35608 c 2.47955,-0.74584 5.36051,-1.59165 6.40213,-1.87958 z m 12.11297,5.45189 v -8.8804 l 1.85788,-1.73086 1.85788,-1.73085 h 8.14005 8.14004 l 1.8867,1.32146 1.88669,1.32149 v 9.28976 9.28979 h -2.51484 -2.51484 l -0.24417,-7.85234 -0.24416,-7.85232 -5.86632,-0.2541 -5.86632,-0.25411 -0.69966,1.10303 c -0.38482,0.60665 -0.70554,4.25456 -0.71266,8.10645 l -0.0128,7.00343 h -2.5467 -2.5467 z m -337.86248,-17.43552 v -1.69781 h 2.5467 2.5467 v 1.69781 1.69778 h -2.5467 -2.5467 z m 239.39001,0 v -1.69781 h 2.5467 2.54671 v 1.69781 1.69778 h -2.54671 -2.5467 z"
       id="path194"
       sodipodi:nodetypes="ccccccccccssccccccccsccccccsscccsscccccccccccccccccccccccccccsscccccccccccccccccccccccccccccccccccccccccccccccccccccccccccccccssccccccccccccccccsccccccccccccccccccccccccccccccccccccssccccccccccccccccccccccccccccccccccccccccccccccccsscccccsssccccccccssccccccccccccssccccccccccccccsscsscccccccccccccccccccccccccccsscccccccccccccccccccccccccccsscccccsssccccccccccccccccsscccccccccccccccccccccc" /></g><style
     id="style1">@media(prefers-color-scheme:dark){.lines{fill:#d7d7d7}}</style></svg>
