<?xml version="1.0" encoding="UTF-8" standalone="no"?>
<!-- Created with Inkscape (http://www.inkscape.org/) -->

<svg
   width="102.36211mm"
   height="97.098167mm"
   viewBox="0 0 102.36211 97.098167"
   version="1.1"
   id="svg1"
   xml:space="preserve"
   inkscape:version="1.4.4 (dcaf3e7, 2026-05-05)"
   sodipodi:docname="logos teams.svg"
   inkscape:export-batch-name="Triathlon Team Göppingen"
   inkscape:export-batch-path="Desktop/Frauenliga"
   xmlns:inkscape="http://www.inkscape.org/namespaces/inkscape"
   xmlns:sodipodi="http://sodipodi.sourceforge.net/DTD/sodipodi-0.dtd"
   xmlns="http://www.w3.org/2000/svg"
   xmlns:svg="http://www.w3.org/2000/svg"><sodipodi:namedview
     id="namedview1"
     pagecolor="#ffffff"
     bordercolor="#000000"
     borderopacity="0.25"
     inkscape:showpageshadow="2"
     inkscape:pageopacity="0.0"
     inkscape:pagecheckerboard="0"
     inkscape:deskcolor="#d1d1d1"
     inkscape:document-units="mm"
     inkscape:zoom="0.037190382"
     inkscape:cx="-4006.4122"
     inkscape:cy="-8779.1516"
     inkscape:window-width="1920"
     inkscape:window-height="1050"
     inkscape:window-x="0"
     inkscape:window-y="30"
     inkscape:window-maximized="0"
     inkscape:current-layer="layer1"><inkscape:page
       x="0"
       y="0"
       width="102.36211"
       height="97.098167"
       id="page1"
       margin="0"
       bleed="0" /></sodipodi:namedview><defs
     id="defs1"><style
       id="style1-7">
      .cls-1 {
        fill: #fff;
      }
    </style></defs><g
     inkscape:label="Ebene 1"
     inkscape:groupmode="layer"
     id="layer1"
     transform="translate(2185.5862,-581.68967)"><path
       style="fill:#000000"
       d="m -2141.6677,678.5415 c -26.4464,-4.47799 -43.9238,-23.74025 -43.9185,-48.40361 l 8e-4,-3.83646 0.3964,-2.63013 c 0.218,-1.44657 0.7543,-3.99862 1.1917,-5.67122 l 0.7952,-3.04111 1.3492,-3.06002 c 1.4529,-3.29531 1.6958,-3.74232 3.8903,-7.16106 8.2779,-12.89539 23.2634,-21.47532 39.7368,-22.75125 l 3.8341,-0.29697 3.7454,0.26761 3.7454,0.2676 3.2717,0.66246 c 19.119,3.87115 34.6098,18.08302 39.1284,35.89786 l 0.7991,3.15059 0.2445,2.71199 c 2.3773,26.36345 -13.5937,47.45158 -40.3511,53.27988 l -3.175,0.69158 -6.6146,0.0843 -6.6146,0.0843 z m 9.5907,-1.30778 c 1.4676,0 2.5963,-0.072 2.5082,-0.16007 -0.088,-0.088 -1.5664,-0.14814 -3.2852,-0.13357 l -3.1252,0.0265 0.083,-3.76903 0.083,-3.76904 0.3591,-0.36691 0.3591,-0.36691 0.4101,0.15736 0.4101,0.15735 0.073,3.78143 0.073,3.78143 0.8936,0.0854 c 0.4914,0.047 1.0052,-0.0263 1.1416,-0.16273 l 0.2482,-0.24814 -0.2838,-2.74769 c -0.156,-1.51123 -0.3478,-3.13464 -0.426,-3.60759 l -0.1424,-0.85989 h 0.9264 0.9264 l 1.0816,1.85208 c 1.348,2.30799 1.3769,2.30348 1.2746,-0.19844 l -0.084,-2.05052 0.5802,-0.0826 0.5802,-0.0826 0.1402,0.87632 c 0.077,0.48198 0.2669,2.00742 0.4219,3.38987 0.155,1.38244 0.3362,2.76976 0.4026,3.08291 l 0.1209,0.56938 -0.9907,0.28307 -0.9908,0.28307 0.7938,-0.11568 c 1.7102,-0.24924 4.943,-0.92633 5.2096,-1.0911 l 0.2813,-0.17382 -0.7885,-0.33154 c -1.0771,-0.45286 -1.8421,-1.61357 -2.3372,-3.54602 l -0.416,-1.62392 0.3042,-0.92174 0.3042,-0.92173 0.7586,-0.39228 c 1.4641,-0.75714 3.1864,-0.29648 3.5094,0.93868 l 0.1448,0.55339 -0.5748,0.22008 -0.5748,0.22008 -0.5462,-0.50079 c -0.6945,-0.63675 -1.084,-0.63341 -1.4295,0.0122 l -0.2746,0.51302 0.276,1.28662 c 0.1517,0.70764 0.5075,1.6674 0.7905,2.13281 l 0.5146,0.84619 h 0.6497 c 0.8735,0 1.0418,-0.36181 0.6793,-1.46028 l -0.3039,-0.92077 -0.6049,0.15184 -0.605,0.15184 -0.1492,-0.57031 -0.1491,-0.57032 0.9329,-0.38977 c 0.513,-0.21438 1.1134,-0.35353 1.3342,-0.30923 l 0.4014,0.0805 0.4948,1.5875 c 0.2721,0.87313 0.4965,1.79761 0.4987,2.05441 v 0.46691 l -0.8599,0.5444 -0.8599,0.5444 0.926,-0.18521 c 3.3257,-0.66518 10.0847,-3.72294 13.8906,-6.28412 10.7741,-7.25023 17.907,-17.68808 20.5092,-30.01149 l 0.5455,-2.58346 0.1586,-4.10104 0.1585,-4.10105 -0.3117,-2.67505 c -0.8474,-7.26955 -3.3815,-14.08121 -7.5913,-20.40543 l -1.9785,-2.97216 -2.967,-3.08701 c -8.199,-8.53061 -17.8555,-13.41284 -30.0868,-15.21151 l -2.249,-0.33072 -4.2333,0.0132 c -26.1435,0.0815 -47.2542,18.26999 -49.629,42.75921 l -0.3135,3.23239 0.1756,3.175 0.1755,3.175 0.6452,3.175 c 2.4779,12.19365 9.5443,22.59928 20.1545,29.6785 2.7225,1.8164 7.2265,4.2263 8.8157,4.71687 l 0.6614,0.20418 -0.7276,-0.73325 -0.7276,-0.73325 v -1.0884 -1.0884 l 0.6209,-1.32292 c 0.6658,-1.41878 1.7616,-2.66051 2.5757,-2.9189 l 0.5024,-0.15946 v -0.57749 c 0,-0.31761 0.063,-0.8156 0.1365,-1.10665 l 0.1328,-0.52916 -2.3193,-1.26147 c -4.8097,-2.61607 -9.239,-6.3857 -12.3399,-10.50229 l -1.9129,-2.5394 -1.4738,-2.90259 c -2.2397,-4.41122 -3.1953,-7.70053 -3.6785,-12.66283 l -0.3064,-3.14566 0.2943,-3.07205 0.2942,-3.07204 0.6721,-2.51355 c 4.0347,-15.08942 16.6203,-25.5553 32.9327,-27.38618 l 3.8365,-0.43059 2.2489,0.16241 c 16.1128,1.16363 28.6742,9.81051 34.3909,23.67363 0.6999,1.69728 0.9958,2.9224 0.7059,2.9224 -0.051,0 -0.4524,-0.12534 -0.8918,-0.27854 l -0.7991,-0.27855 -0.2809,-0.58135 -0.2808,-0.58135 -0.018,0.49247 -0.018,0.49246 -0.9902,-0.18576 c -1.4298,-0.26823 -1.3911,-0.17596 -1.3911,-3.3132 v -2.87968 l -0.5553,-0.94117 c -0.3054,-0.51764 -0.6587,-0.94116 -0.7851,-0.94116 h -0.2298 l 0.1626,3.39988 0.1626,3.39988 -0.299,0.18483 c -0.1645,0.10165 -0.7178,0.10627 -1.2296,0.0103 l -0.9306,-0.17457 v -5.08381 -5.0838 l -0.6149,-0.57771 c -0.875,-0.82205 -0.8724,-0.83761 -0.7911,4.64288 0.041,2.73389 0.024,5.10886 -0.037,5.27772 l -0.1102,0.30702 -1.0757,-0.27306 -1.0757,-0.27305 v -6.4351 -6.43511 l -0.5881,-0.41187 c -0.3234,-0.22654 -0.6806,-0.41188 -0.7937,-0.41188 h -0.2057 v 6.64289 6.64289 l -0.4185,-0.1606 c -0.2302,-0.0883 -0.5576,-0.16242 -0.7276,-0.16465 -0.17,-0.002 -0.4753,-0.10928 -0.6784,-0.23789 l -0.3693,-0.23384 0.055,-7.14376 0.055,-7.14377 -0.6047,-0.42355 c -0.3326,-0.23296 -0.6972,-0.42356 -0.8104,-0.42356 h -0.2057 v 7.40834 7.40833 h -0.2731 c -0.1502,0 -0.6609,-0.16207 -1.135,-0.36015 l -0.862,-0.36014 0.026,-7.60884 0.026,-7.60884 -0.3654,-0.36539 c -0.201,-0.20096 -0.5355,-0.36539 -0.7434,-0.36539 h -0.378 v 7.80521 c 0,4.29286 -0.089,7.80454 -0.1984,7.80373 -0.1091,-8.1e-4 -0.656,-0.12854 -1.2153,-0.28384 l -1.0169,-0.28236 0.1239,-8.05893 0.1239,-8.05894 -0.4787,-0.25618 c -0.2633,-0.14091 -0.6761,-0.25619 -0.9174,-0.25619 h -0.4388 l 0.075,8.00365 0.075,8.00364 -0.7601,-0.0564 c -0.418,-0.0311 -0.9168,-0.11661 -1.1084,-0.19013 l -0.3484,-0.13369 v -8.19255 -8.19256 l -0.5558,-0.1764 -0.5558,-0.17641 -0.2695,0.2695 -0.2695,0.2695 0.1055,7.82657 0.1056,7.82658 h -0.4537 c -0.2494,0 -0.759,-0.11612 -1.1323,-0.25803 l -0.6786,-0.25804 v -8.04548 -8.04548 l -0.5751,-0.15039 c -0.3163,-0.0827 -0.6818,-0.0845 -0.8121,-0.004 l -0.2371,0.14649 0.061,7.77988 c 0.068,8.70953 0.1553,8.12792 -1.1581,7.72481 l -0.9749,-0.29919 -0.07,-7.82815 -0.07,-7.82815 -0.7276,-0.0837 -0.7276,-0.0837 v 7.71151 7.71151 l -0.8599,-0.18386 c -0.4729,-0.10113 -0.9907,-0.28877 -1.1505,-0.41698 l -0.2906,-0.2331 0.1283,-7.10675 0.1282,-7.10674 -0.2547,-0.15746 c -0.1402,-0.0866 -0.5136,-0.0898 -0.8299,-0.007 l -0.5751,0.15039 v 7.01004 7.01005 l -0.9902,-0.18576 c -0.5445,-0.10217 -1.0803,-0.24151 -1.1906,-0.30965 -0.1102,-0.0681 -0.2004,-3.09342 -0.2004,-6.72285 v -6.59897 h -0.6615 -0.6614 v 6.35 6.35 h -0.512 c -0.2816,0 -0.8217,-0.11776 -1.2002,-0.26168 l -0.6883,-0.26169 0.02,-5.36071 c 0.011,-2.94839 0.015,-5.50954 0.01,-5.69144 -0.014,-0.4617 -0.9345,-0.41387 -1.3356,0.0694 l -0.3321,0.40012 0.1224,4.88265 c 0.067,2.68546 0.053,4.99223 -0.031,5.12615 l -0.1534,0.2435 -0.926,-0.30074 -0.9261,-0.30075 -0.072,-4.69635 -0.072,-4.69636 h -0.2368 c -0.1303,0 -0.4252,0.0723 -0.6554,0.1606 l -0.4185,0.1606 v 4.16093 c 0,4.72497 0.059,4.53961 -1.3356,4.18558 l -1.0456,-0.26541 v -3.4074 c 0,-3.55222 -0.039,-3.66841 -0.9995,-2.99552 l -0.588,0.41188 v 2.78095 2.78095 l -0.5292,-0.15012 c -0.291,-0.0826 -0.7673,-0.21767 -1.0583,-0.30024 l -0.5292,-0.15012 v -1.83426 c 0,-2.01701 0,-2.01896 -0.9353,-1.40694 l -0.6522,0.4273 v 1.19105 1.19106 l -0.5953,-0.16522 c -0.3274,-0.0909 -0.8581,-0.23543 -1.1792,-0.32125 l -0.5838,-0.15603 -1.5064,1.41487 c -5.5862,5.24687 -9.3003,12.19885 -10.564,19.77344 l -0.4585,2.74816 0.1378,3.73413 0.1378,3.73414 0.4928,1.98437 0.4928,1.98438 0.076,-2.57969 0.076,-2.57969 0.5858,0.0186 c 0.3221,0.0102 0.8238,0.11153 1.1148,0.22513 l 0.5292,0.20653 v 5.39727 5.39726 l 0.6596,1.15606 0.6596,1.15606 0.071,-6.17493 0.071,-6.17493 0.2247,-0.22475 0.2248,-0.22474 0.9608,0.40147 0.9609,0.40147 0.01,7.75256 0.01,7.75257 0.4966,0.59531 c 0.2732,0.32742 0.5668,0.59531 0.6527,0.59531 0.086,0 0.156,-3.62438 0.156,-8.05417 v -8.05418 l 0.2233,-0.13799 c 0.1228,-0.0759 0.6585,-0.0178 1.1906,0.12912 l 0.9673,0.2671 v 9.1891 9.18911 l 0.4119,0.58804 c 0.2266,0.32342 0.5227,0.58804 0.6581,0.58804 h 0.2463 l 0.069,-9.45885 0.069,-9.45886 0.7762,0.0565 c 0.4268,0.0311 0.9328,0.11661 1.1244,0.19014 l 0.3484,0.13368 v 10.10778 10.10778 l 0.4379,0.48386 c 0.2408,0.26612 0.5699,0.48385 0.7313,0.48385 h 0.2933 l 0.01,-2.57969 c 0,-1.41882 0.032,-6.07714 0.062,-10.35182 l 0.055,-7.77213 0.8516,0.17032 c 0.4684,0.0937 0.9339,0.25739 1.0344,0.3638 0.1004,0.10642 0.2293,4.97478 0.2863,10.81859 l 0.1037,10.6251 0.3496,0.42125 c 0.1923,0.23169 0.5136,0.42125 0.7141,0.42125 h 0.3645 V 650.2168 639.33943 l 0.9901,0.18576 c 0.5446,0.10217 1.0804,0.24151 1.1907,0.30965 0.1102,0.0681 0.2004,5.1029 0.2004,11.18837 v 11.06449 l 0.3853,0.31976 c 0.2119,0.17586 0.5053,0.24559 0.6519,0.15495 l 0.2667,-0.1648 0.013,-10.8947 c 0.014,-11.70602 -0.02,-11.41011 1.2698,-10.95515 l 0.867,0.30577 0.07,11.32704 0.069,11.32703 0.3864,0.24444 c 0.2125,0.13444 0.5353,0.24626 0.7172,0.24848 l 0.3307,0.004 V 652.77538 641.5462 l 0.2233,-0.13798 c 0.1228,-0.0759 0.6586,-0.0178 1.1906,0.12911 l 0.9674,0.2671 v 11.33634 11.33634 l 0.4207,0.16145 c 0.2314,0.0888 0.5291,0.0945 0.6615,0.0127 l 0.2407,-0.14877 V 653.5296 642.5567 l 0.3307,-0.12272 c 0.1819,-0.0675 0.6879,-0.0255 1.1245,0.0934 l 0.7937,0.21611 0.1323,11.09356 0.1323,11.09356 0.5548,0.0792 0.5547,0.0792 0.1729,-2.43499 c 0.095,-1.33924 0.1728,-6.22669 0.1728,-10.861 V 643.367 h 0.3797 c 0.2088,0 0.685,0.11611 1.0583,0.25803 l 0.6787,0.25804 v 10.57426 10.57427 l 0.2669,0.16498 c 0.1469,0.0907 0.5041,0.0897 0.7938,-0.002 l 0.5268,-0.1672 V 654.69184 644.3563 l 0.9588,0.1556 c 0.5274,0.0856 1.016,0.21276 1.0859,0.28264 0.07,0.0699 0.1132,4.51004 0.096,9.86704 -0.017,5.357 0.06,9.87384 0.1709,10.03742 l 0.2015,0.29742 0.5953,-0.22275 0.5954,-0.22275 v -9.48942 c 0,-10.42495 -0.064,-9.92837 1.2276,-9.48109 l 0.9181,0.31786 0.052,9.03126 c 0.054,9.44465 0.066,9.56287 0.955,9.0873 l 0.5518,-0.29533 v -8.57403 c 0,-9.2046 -0.037,-8.96044 1.2821,-8.51043 l 0.8851,0.30204 0.01,8.13594 0.01,8.13594 h 0.2472 c 0.1359,0 0.4774,-0.12326 0.7589,-0.2739 l 0.5118,-0.27389 v -7.5157 -7.5157 l 0.2233,-0.13799 c 0.1228,-0.0759 0.6585,-0.0178 1.1906,0.12912 l 0.9673,0.2671 v 6.86673 6.86673 h 0.243 c 0.1336,0 0.4313,-0.0723 0.6614,-0.1606 l 0.4186,-0.1606 v -6.33 -6.33 l 0.3307,-0.12271 c 0.1819,-0.0675 0.6879,-0.0255 1.1245,0.0933 l 0.7937,0.21602 0.071,5.47125 c 0.039,3.00918 0.1584,5.46746 0.2646,5.46283 0.1062,-0.005 0.4312,-0.18821 0.7222,-0.40795 l 0.5292,-0.39953 0.07,-4.66711 c 0.08,-5.31174 -0.021,-4.92505 1.2259,-4.69107 l 0.9531,0.1788 v 3.67472 3.67472 h 0.2147 c 0.118,0 0.4752,-0.24276 0.7937,-0.53947 l 0.5791,-0.53948 v -2.90515 -2.90515 l 0.7276,0.17393 c 0.4002,0.0957 0.9444,0.28524 1.2094,0.42129 l 0.4818,0.24735 -0.043,1.10511 c -0.024,0.60781 -0.032,1.21286 -0.019,1.34456 0.05,0.48669 1.0586,-0.71723 1.2212,-1.45751 0.093,-0.42147 0.2481,-0.76565 0.3457,-0.76484 0.5893,0.005 2.1618,0.59477 2.1618,0.81092 0,0.57303 -4.5379,4.95813 -7.1352,6.89495 l -2.7696,2.06529 -2.6544,1.31712 c -3.2487,1.61206 -6.4875,2.75178 -9.8777,3.47597 l -2.5662,0.54817 -4.9226,0.15206 -4.9226,0.15205 -2.3534,-0.45265 c -1.2945,-0.24895 -3.2944,-0.69985 -4.4444,-1.002 l -2.0909,-0.54935 -0.5108,0.70133 c -0.281,0.38573 -0.6796,0.70133 -0.8857,0.70133 -0.4788,0 -0.4713,0.13607 0.052,0.93419 l 0.4265,0.65098 -0.1848,0.99335 c -0.3,1.61272 -1.2115,3.47168 -2.0467,4.17446 l -0.7788,0.65536 -1.1042,0.008 -1.1042,0.008 0.4397,0.25659 c 0.5863,0.34223 3.6844,1.30709 4.2108,1.3114 l 0.4171,0.003 0.8533,-3.10886 c 0.4693,-1.70987 0.9847,-3.44606 1.1453,-3.85819 l 0.2921,-0.74934 0.9511,0.17401 c 0.5231,0.0957 1.3082,0.37921 1.7448,0.62999 l 0.7937,0.45597 0.081,0.96334 0.081,0.96333 -0.4167,0.80583 -0.4167,0.80583 -0.5905,0.12972 c -0.3248,0.0714 -0.9363,0.16237 -1.3589,0.20227 l -0.7684,0.0726 -0.4809,1.45521 c -0.2646,0.80037 -0.4843,1.47333 -0.4884,1.49547 -0.03,0.16384 1.8692,0.62764 3.1761,0.7755 0.8749,0.099 1.6547,0.28335 1.7327,0.40971 0.078,0.12636 0.4624,0.21758 0.854,0.20273 l 0.712,-0.027 -0.7998,-0.25863 -0.7999,-0.25863 0.3377,-2.95551 c 0.1857,-1.62553 0.4266,-3.37222 0.5353,-3.88154 l 0.1975,-0.92605 1.221,-0.0792 1.221,-0.0792 0.8295,0.69801 0.8296,0.69802 v 0.99913 0.99913 l -0.5483,0.69708 -0.5484,0.69707 -1.0427,0.16675 -1.0428,0.16675 -0.1471,0.58614 c -0.081,0.32238 -0.1091,1.05104 -0.063,1.61925 l 0.085,1.03312 2.1697,0.14125 c 1.1934,0.0777 2.2587,0.23022 2.3675,0.33896 0.1087,0.10873 0.3624,0.13447 0.5638,0.0572 0.2014,-0.0773 1.567,-0.14052 3.0345,-0.14052 z m 13.8911,-6.99704 c -1.8618,-4.02143 -1.8937,-3.6212 0.3597,-4.50531 l 1.8811,-0.73803 0.2315,0.3655 c 0.3921,0.61899 0.2801,0.77422 -0.951,1.31881 -1.345,0.59494 -1.2944,0.51388 -0.8836,1.4155 0.3594,0.7887 0.5086,0.81302 1.5821,0.25789 0.9412,-0.48674 1.5505,-0.33782 1.5505,0.37898 v 0.50875 l -1.0584,0.42346 c -1.3097,0.52406 -1.3088,0.50691 -0.1251,2.22033 0.028,0.04 0.6013,-0.16342 1.2748,-0.45213 l 1.2246,-0.52492 0.2681,0.50088 c 0.1474,0.27548 0.2681,0.55557 0.2681,0.62243 0,0.16623 -3.3647,1.50155 -3.7731,1.49741 l -0.328,-0.003 z m 5.5309,-2.39376 c -2.2598,-3.39302 -2.2859,-3.46637 -1.3785,-3.87977 l 0.6466,-0.29464 2.0653,1.33102 c 2.4905,1.60505 2.5345,1.58875 1.163,-0.4309 -0.5951,-0.87635 -1.082,-1.76576 -1.082,-1.97646 0,-0.44133 0.7916,-0.82275 1.0678,-0.51452 0.6898,0.7696 3.9593,5.95444 3.9593,6.27867 v 0.40065 l -0.6354,0.15946 -0.6353,0.15945 -2.1948,-1.46943 c -2.681,-1.79494 -2.7007,-1.78121 -1.0074,0.70011 l 1.3617,1.99529 -0.1799,0.29094 c -0.099,0.16001 -0.3925,0.29093 -0.6525,0.29093 h -0.4727 z m -47.1367,2.46912 c -0.291,-0.16005 -0.7348,-0.54338 -0.9863,-0.85185 l -0.4571,-0.56084 -0.01,-0.93775 -0.01,-0.93775 0.8599,-1.43463 0.8599,-1.43463 0.899,-0.60419 0.8991,-0.60418 h 0.8666 0.8666 l 0.814,0.68498 0.8141,0.68498 v 0.58737 c 0,0.32305 -0.1583,0.80379 -0.3517,1.06831 l -0.3517,0.48094 -0.5743,-0.30739 -0.5744,-0.30739 v -0.78444 -0.78444 h -0.4905 c -1.5792,0 -3.6207,3.87573 -2.5219,4.78765 l 0.4272,0.35453 0.6311,-0.73376 c 0.7341,-0.85338 0.768,-1.05506 0.25,-1.48495 l -0.3811,-0.31633 0.1449,-0.37753 c 0.1896,-0.4943 0.6563,-0.47657 1.799,0.0684 1.165,0.55551 1.1643,0.56856 -0.1331,2.47906 l -1.0682,1.57298 -0.8501,-0.008 c -0.4675,-0.004 -1.0881,-0.139 -1.3792,-0.29905 z m 64.9552,-18.51809 c -0.6548,-0.13301 -1.4701,-0.30272 -1.8117,-0.37713 l -0.6211,-0.13529 0.1687,-0.67224 0.1687,-0.67223 -0.8043,-2.08584 -0.8044,-2.08584 v -1.00073 c 0,-1.17053 -0.1248,-1.37626 -1.1866,-2.03327 -0.4365,-0.27014 -1.1176,-0.79231 -1.5135,-1.16038 l -0.7198,-0.66922 -0.1766,0.50504 c -0.097,0.27776 -0.523,1.24833 -0.9464,2.1568 l -0.7699,1.65177 -0.6422,0.16118 -0.6422,0.16119 -2.4868,-0.4239 c -3.0927,-0.52716 -3.8912,-0.52894 -5.8714,-0.0131 l -1.577,0.41074 -0.7401,0.70909 -0.7401,0.7091 -0.2411,-0.39003 c -0.722,-1.16823 1.8046,-4.51838 2.898,-3.84262 l 0.2554,0.15785 -0.1667,0.43433 -0.1666,0.43434 0.5089,-0.20288 c 0.2799,-0.11159 1.1638,-0.37821 1.9642,-0.59249 l 1.4552,-0.38961 1.769,0.0784 c 2.2175,0.0983 2.0918,0.28618 2.0887,-3.12142 v -2.87753 l 0.3214,-0.63947 c 0.1768,-0.35171 0.4871,-0.69418 0.6896,-0.76105 l 0.3682,-0.12157 -0.1887,0.76214 c -0.1037,0.41917 -0.251,1.13502 -0.3273,1.59078 l -0.1387,0.82864 0.3485,0.21537 c 0.1917,0.11846 0.8876,0.23206 1.5466,0.25244 l 1.1982,0.0371 0.5292,-0.45536 c 0.291,-0.25045 0.8017,-0.53807 1.1347,-0.63916 l 0.6056,-0.1838 1.7757,1.90899 c 0.9766,1.04994 1.9203,2.16076 2.097,2.46849 l 0.3214,0.5595 0.032,1.98438 c 0.017,1.09141 0.1191,2.68633 0.226,3.54428 l 0.1942,1.5599 0.7242,0.62291 0.7242,0.62291 h 0.655 0.655 l 0.1567,0.40829 c 0.086,0.22455 0.1122,0.44789 0.058,0.49629 -0.3112,0.27719 -1.3064,0.3255 -2.3478,0.11398 z m -45.6117,-12.17777 -1.0295,-0.28808 -1.261,-1.22167 -1.261,-1.22167 -0.3165,-1.18788 -0.3165,-1.18789 0.1605,-1.19336 0.1605,-1.19337 0.7267,-1.03087 0.7267,-1.03087 1.4258,-0.80135 1.4257,-0.80136 1.3524,-0.0176 c 0.7438,-0.01 1.7722,0.0789 2.2855,0.19695 l 0.9331,0.21456 0.5882,-1.04658 0.5882,-1.04658 v -0.95112 -0.95112 l -0.7276,-0.18211 c -0.4002,-0.10016 -1.0848,-0.39964 -1.5213,-0.66551 -0.4366,-0.26587 -1.1212,-0.48385 -1.5214,-0.48439 l -0.7276,-9.9e-4 v -0.39688 -0.39687 h 1.6669 1.6669 l 0.331,0.33073 0.331,0.33073 -0.167,-1.05834 -0.1669,-1.05833 0.625,-0.92604 0.625,-0.92604 0.7077,-0.0826 0.7076,-0.0826 0.9623,1.3394 c 0.5292,0.73666 1.1297,1.33939 1.3343,1.33939 h 0.372 v -0.53988 c 0,-0.29694 -0.2618,-0.89405 -0.5818,-1.32691 l -0.5819,-0.78703 0.4574,-0.45742 0.4574,-0.45743 2.1035,-0.0955 2.1034,-0.0955 0.8457,0.29481 0.8457,0.29481 1.0199,-0.53162 c 0.561,-0.29239 1.3512,-0.53163 1.7561,-0.53163 h 0.7361 l 0.7109,0.74209 c 0.8335,0.86999 0.8745,1.29045 0.248,2.54315 l -0.4631,0.92574 -0.757,0.32006 -0.7571,0.32007 -0.917,-0.49385 c -0.5044,-0.27162 -1.0877,-0.82381 -1.2962,-1.22709 -0.2086,-0.40327 -0.6272,-0.86595 -0.9303,-1.02815 l -0.551,-0.29493 -0.6292,0.15791 c -0.3461,0.0869 -0.7559,0.39464 -0.9107,0.68396 l -0.2815,0.52604 h 0.2414 c 0.1329,0 0.3898,-0.17859 0.5709,-0.39687 0.1812,-0.21828 0.6083,-0.39688 0.9492,-0.39688 h 0.6197 l 0.2739,0.51178 c 0.1506,0.28147 0.2739,1.39245 0.2739,2.46883 v 1.95706 l 0.661,0.35379 c 0.845,0.45218 1.1516,0.15831 0.54,-0.51748 l -0.4714,-0.52093 0.156,-0.40673 0.1561,-0.40673 h 1.0107 c 2.6667,0 6.0899,2.17772 4.4265,2.81603 l -0.4002,0.15358 -0.3999,-0.33188 c -0.22,-0.18254 -0.4365,-0.28516 -0.4813,-0.22804 -0.4795,0.61222 -0.9642,1.47046 -0.9642,1.70735 v 0.29513 l 0.961,0.0361 c 1.3144,0.0494 1.9122,0.25248 3.0906,1.0497 l 1.009,0.68257 0.7099,1.20919 0.7099,1.20919 v 1.60825 l 9e-4,1.60825 -0.7978,1.29047 -0.7979,1.29047 -1.4151,0.7393 -1.4152,0.73931 h -1.5658 -1.5658 l -0.9837,-0.41029 c -1.1587,-0.48327 -2.578,-1.78087 -3.1687,-2.89701 l -0.4202,-0.79375 v -1.62437 -1.62437 l 0.4676,-0.71369 c 0.7558,-1.15349 0.4224,-0.99187 -1.9559,0.94812 l -2.249,1.83448 -0.2914,0.98679 c -0.1603,0.54274 -0.3825,1.25469 -0.4939,1.58211 l -0.2024,0.59531 h -0.4859 c -0.2672,0 -0.7831,-0.13541 -1.1463,-0.30091 l -0.6604,-0.30091 -0.7192,0.85467 c -0.3955,0.47006 -1.1976,1.15674 -1.7825,1.52595 l -1.0634,0.67129 -1.6044,0.0863 c -0.8824,0.0474 -2.0676,-0.0434 -2.6338,-0.20182 z m 4.5236,-1.45214 c 0.4851,-0.23016 1.1336,-0.772 1.4413,-1.20409 l 0.5594,-0.78562 0.078,-1.16614 0.078,-1.16613 h -1.7066 -1.7065 l -0.3047,0.66863 -0.3046,0.66864 0.3103,0.31032 c 0.1707,0.17068 0.3103,0.52464 0.3103,0.78657 v 0.47625 h -0.51 -0.5099 l -0.5484,-0.69714 -0.5484,-0.69714 v -0.87721 -0.87721 l 0.3819,-0.21371 c 0.21,-0.11754 0.8807,-0.91031 1.4904,-1.76173 l 1.1085,-1.54802 -0.3659,-0.23174 c -1.1725,-0.74262 -4.0894,-0.0566 -5.31,1.24892 -3.6491,3.90277 1.0851,9.42591 6.057,7.06655 z m 17.8627,-0.10029 c 0.5412,-0.15031 1.3363,-0.56975 1.767,-0.93209 l 0.7829,-0.65882 0.451,-1.18095 0.451,-1.18095 -0.1435,-1.07039 -0.1436,-1.07039 -0.7006,-0.91858 c -0.3854,-0.50521 -1.1653,-1.1556 -1.7331,-1.4453 l -1.0325,-0.52672 h -1.0689 -1.0688 v 0.38933 c 0,0.55537 1.207,3.21202 1.5579,3.42887 0.1618,0.1 0.2941,0.46438 0.2941,0.80979 v 0.62801 l -0.5418,0.17198 -0.5419,0.17199 -0.3842,-0.31884 c -0.2113,-0.17537 -0.3841,-0.58575 -0.3841,-0.91196 0,-0.32621 -0.3342,-1.32918 -0.7425,-2.22881 l -0.7425,-1.63569 -0.746,0.58676 c -4.0151,3.15825 -0.3832,9.29621 4.6701,7.89276 z m -12.4261,-3.22951 c 0.061,-0.1819 0.057,-0.54039 -0.01,-0.79664 l -0.1208,-0.46592 -0.6293,-0.15793 c -0.3461,-0.0869 -0.8081,-0.0893 -1.0267,-0.005 l -0.3975,0.15253 v 0.66976 c 0,0.77846 0.1765,0.83147 0.8224,0.24697 0.53,-0.47968 1.0824,-0.28709 0.8576,0.29897 l -0.1491,0.3884 h 0.2708 c 0.149,0 0.321,-0.14883 0.3822,-0.33073 z m 4.1661,-4.65238 c 1.3825,-1.08649 2.6879,-2.13617 2.901,-2.33262 l 0.3874,-0.35718 h -2.5141 -2.5141 l -1.1806,1.78523 c -0.6494,0.98188 -1.2534,2.10569 -1.3423,2.49735 l -0.1617,0.71212 0.2782,0.27821 0.2782,0.27821 0.6772,-0.44295 c 0.3725,-0.24362 1.8084,-1.33189 3.1908,-2.41837 z m -7.5485,2.35008 c 0.086,-0.13848 -0.1763,-0.62329 -0.582,-1.07735 l -0.7377,-0.82556 -0.6051,0.81843 c -0.3328,0.45014 -0.5331,0.93494 -0.445,1.07735 0.2056,0.33279 2.1649,0.33868 2.3698,0.007 z m 2.1516,-3.60848 c 0.2034,-0.48688 0.3698,-1.01604 0.3698,-1.1759 v -0.29065 l -0.7276,0.0837 -0.7276,0.0837 0.026,0.33073 c 0.014,0.1819 0.044,0.75447 0.066,1.27238 l 0.04,0.94166 0.2916,-0.18021 c 0.1604,-0.0991 0.458,-0.57856 0.6615,-1.06545 z m -2.276,0.53736 v -0.41249 l -0.2689,0.16619 c -0.1479,0.0914 -0.2004,0.27702 -0.1167,0.41249 0.2268,0.36698 0.3856,0.29855 0.3856,-0.16619 z m 13.6802,-4.19163 c -0.053,-0.15987 -0.3542,-0.32872 -0.6702,-0.37522 l -0.5746,-0.0846 v 0.76805 c 0,0.42243 0.088,0.8556 0.1946,0.96259 0.2466,0.24661 1.1784,-0.88097 1.0502,-1.27087 z m -12.0927,0.78327 c 0,-0.0642 -0.1191,-0.19026 -0.2646,-0.28019 -0.1455,-0.0899 -0.2646,-0.0374 -0.2646,0.11667 0,0.15411 0.1191,0.2802 0.2646,0.2802 0.1455,0 0.2646,-0.0525 0.2646,-0.11668 z m 1.4229,-1.60666 c 0.5271,-0.22024 0.9584,-0.51789 0.9584,-0.66146 0,-0.36364 -0.1414,-0.33463 -1.3335,0.27351 -1.6121,0.82245 -1.3395,1.10437 0.3751,0.38795 z m 4.3979,-1.32592 v -0.668 l -0.7102,-0.27005 c -0.3907,-0.14852 -0.9562,-0.23487 -1.2568,-0.19188 l -0.5465,0.0781 1.1906,0.8481 c 0.6549,0.46645 1.2204,0.8534 1.2568,0.85989 0.036,0.006 0.066,-0.2888 0.066,-0.65621 z m 6.35,-2.90386 c 0,-0.0728 -0.06,-0.1323 -0.1323,-0.1323 -0.073,0 -0.1322,0.0595 -0.1322,0.1323 0,0.0728 0.059,0.13229 0.1322,0.13229 0.073,0 0.1323,-0.0595 0.1323,-0.13229 z m 0.1323,-1.45521 0.1636,-0.26459 h -0.6927 -0.6927 l 0.1635,0.26459 c 0.09,0.14552 0.3281,0.26458 0.5292,0.26458 0.2011,0 0.4392,-0.11906 0.5291,-0.26458 z m -2.5135,-0.13229 c 0,-0.0728 -0.059,-0.1323 -0.1323,-0.1323 -0.073,0 -0.1323,0.0595 -0.1323,0.1323 0,0.0728 0.059,0.13229 0.1323,0.13229 0.073,0 0.1323,-0.0595 0.1323,-0.13229 z m 18.8675,18.13111 0.1657,-1.39861 -1.4468,-1.74305 -1.4468,-1.74305 v -0.58723 -0.58722 l 2.1828,-1.43302 c 1.2005,-0.78817 2.6292,-1.5788 3.1748,-1.75697 l 0.9921,-0.32395 -0.1635,-1.02213 -0.1634,-1.02213 0.5823,-0.94222 0.5823,-0.94221 0.654,-0.16414 c 1.8584,-0.46644 2.7618,0.0557 3.0299,1.75138 l 0.2106,1.33267 -0.2699,0.77421 -0.2698,0.77422 -0.8394,0.0814 -0.8393,0.0814 -0.3,0.92604 -0.3,0.92604 -0.3763,0.005 c -0.2069,0.003 -0.7468,0.41922 -1.1997,0.92605 l -0.8233,0.9215 -0.8509,-0.3211 -0.8508,-0.32111 -0.4937,0.26427 c -0.8892,0.47586 -0.3683,1.54093 1.7094,3.49525 l 1.0127,0.95249 -0.087,0.61093 -0.087,0.61093 -0.5292,-0.0173 c -0.291,-0.01 -0.8585,-0.10156 -1.261,-0.20454 l -0.7318,-0.18724 -0.2441,0.64185 c -0.1342,0.35303 -0.3892,0.7316 -0.5667,0.84128 l -0.3226,0.19942 z m 4.5217,-2.47631 -0.7174,-0.61708 0.4951,-0.83813 c 0.5264,-0.89118 0.8795,-1.02754 1.3757,-0.53132 l 0.3068,0.30681 1.0779,-0.71331 1.0779,-0.71331 0.4315,-0.90479 c 0.2373,-0.49763 0.6073,-0.97225 0.8222,-1.05471 l 0.3906,-0.14993 0.6242,0.40898 0.6242,0.40898 v 0.66476 0.66476 l -1.1245,0.48548 c -0.6184,0.26701 -1.3626,0.75646 -1.6536,1.08766 -1.6477,1.87502 -2.7673,2.32375 -3.7306,1.49515 z m -53.0652,-3.90722 -0.289,-0.17861 0.2805,-1.28657 c 0.1543,-0.70761 0.3431,-2.25374 0.4196,-3.43584 l 0.139,-2.14927 0.5761,-0.97643 0.5761,-0.97643 -0.2345,-0.21993 c -0.129,-0.12097 -1.187,-0.45961 -2.3512,-0.75254 -1.1642,-0.29293 -2.9164,-0.894 -3.8938,-1.3357 l -1.7771,-0.8031 -0.1645,-0.65555 c -0.2044,-0.81434 -0.071,-1.57971 0.2792,-1.60463 0.1455,-0.0104 0.3022,0.3086 0.3483,0.70879 l 0.084,0.7276 h 0.5251 0.5251 l 0.3833,-0.91754 c 0.4821,-1.15369 0.4825,-1.46371 0,-1.46371 -0.2097,0 -0.4507,-0.11225 -0.5355,-0.24944 l -0.1541,-0.24943 1.1969,-0.52944 c 0.6582,-0.29119 1.1968,-0.63985 1.1968,-0.77481 v -0.24538 l -2.6027,-0.18453 c -3.1442,-0.22291 -4.4794,-0.5024 -5.0299,-1.0529 l -0.4145,-0.41446 0.3304,-0.3304 0.3304,-0.33041 0.2738,0.39466 0.2737,0.39467 0.1347,-0.33235 0.1347,-0.33234 0.7464,0.44087 0.7463,0.44087 0.7946,-0.32912 0.7945,-0.32912 0.4871,0.25463 c 0.418,0.21857 7.055,0.62446 10.269,0.62801 l 1.0507,0.001 0.117,-0.35106 c 0.064,-0.19308 0.4456,-0.67962 0.8472,-1.0812 l 0.7301,-0.73015 h 0.7071 c 1.7627,0 2.4624,0.93613 1.9548,2.61514 l -0.2893,0.95674 -0.6875,0.51368 -0.6876,0.51368 -0.9025,-0.0608 -0.9025,-0.0608 -1.2484,0.80109 -1.2483,0.80108 -1.6352,0.22363 c -2.441,0.33383 -2.4732,0.57601 -0.2454,1.84653 3.0026,1.71238 3.0488,1.91291 1.3617,5.90988 l -1.218,2.88557 0.3289,0.39631 c 0.1809,0.21797 0.8529,0.52824 1.4933,0.6895 l 1.1643,0.29318 -0.097,0.29663 c -0.053,0.16315 -0.5419,0.33402 -1.0854,0.37973 l -0.9881,0.0831 0.1043,0.31378 c 0.057,0.17258 0.4518,0.38899 0.8763,0.48091 0.4246,0.0919 0.7124,0.19376 0.6397,0.22629 -0.5051,0.22582 -4.3083,0.64985 -4.5406,0.50625 z m -5.7782,-12.54133 c 0,-0.0728 -0.059,-0.1323 -0.1323,-0.1323 -0.073,0 -0.1323,0.0595 -0.1323,0.1323 0,0.0728 0.06,0.13229 0.1323,0.13229 0.073,0 0.1323,-0.0595 0.1323,-0.13229 z m 3.5548,-1.74752 c -0.1847,-0.2988 -0.9089,-0.31185 -0.9089,-0.0164 0,0.37233 0.2978,0.54389 0.6858,0.39501 0.2032,-0.078 0.3036,-0.24837 0.2231,-0.37864 z m 56.3649,-1.32183 -0.1764,-0.5558 0.2247,-0.22284 c 0.1236,-0.12256 1.3558,-0.82266 2.7383,-1.55578 1.3824,-0.73313 2.4337,-1.33524 2.3362,-1.33803 -0.097,-0.003 -1.5766,0.29747 -3.2869,0.66726 l -3.1097,0.67233 -0.4172,-0.41786 -0.4172,-0.41786 2.4474,-2.4088 c 1.346,-1.32484 2.4474,-2.44632 2.4474,-2.49218 0,-0.0459 -1.2721,0.63881 -2.8269,1.5215 l -2.8269,1.60487 -0.3481,-0.47607 c -0.1915,-0.26184 -0.3481,-0.60279 -0.3481,-0.75767 0,-0.26929 7.3696,-4.26834 7.5112,-4.07591 0.038,0.0512 0.3514,0.50212 0.6973,1.00214 l 0.6289,0.90913 -2.1698,2.01531 c -2.7166,2.52328 -2.7411,2.47133 0.7492,1.58825 l 2.9189,-0.73852 0.6495,0.95586 0.6496,0.95585 -0.2087,0.20866 c -0.3024,0.30244 -7.1815,3.91196 -7.4555,3.91196 -0.1269,0 -0.3102,-0.25011 -0.4072,-0.5558 z m -74.9773,-2.4869 c -3.4328,-1.68479 -3.2879,-1.65353 -3.6797,-0.79375 -0.3185,0.69921 -0.7185,0.8161 -1.371,0.40064 l -0.3969,-0.25272 1.1875,-2.25266 c 1.2705,-2.41005 1.5486,-2.67575 2.2575,-2.15739 l 0.4536,0.33173 -0.4097,0.79238 -0.4098,0.79237 3.1568,1.5609 c 3.2712,1.61745 3.3364,1.67452 2.8829,2.52193 -0.3698,0.69111 -0.3087,0.70683 -3.6712,-0.94343 z m 2.093,-4.92188 c -3.9549,-2.86046 -3.7692,-2.47997 -2.101,-4.30524 l 1.3604,-1.48851 h 0.8638 0.8638 l 0.6972,0.54837 0.6971,0.54837 v 0.65056 0.65056 l 0.3307,0.0991 c 0.1819,0.0545 1.2575,0.37145 2.3902,0.70437 l 2.0594,0.60533 -0.6564,0.65636 -0.6563,0.65636 -1.5817,-0.4789 c -2.6324,-0.79701 -3.1768,-0.19577 -1.099,1.21368 1.445,0.98016 1.5676,1.25699 0.8459,1.91008 -0.6277,0.56809 -0.2433,0.75681 -4.0141,-1.97045 z m 1.0584,-3.03871 v -0.61975 l -0.5292,-0.28321 -0.5292,-0.2832 -0.5291,0.2832 c -0.7297,0.3905 -0.6622,0.91728 0.1976,1.54362 l 0.7268,0.52942 0.3315,-0.27516 c 0.1824,-0.15134 0.3316,-0.55406 0.3316,-0.89492 z m 66.7279,2.74829 c -0.4354,-0.43543 -0.3979,-1.03745 0.1098,-1.76239 l 0.4274,-0.61014 -0.8895,-0.91773 -0.8895,-0.91773 -0.53,0.14815 c -0.2916,0.0815 -0.7809,0.21536 -1.0874,0.29751 l -0.5572,0.14936 -0.435,-0.43491 c -0.6506,-0.6507 -0.5517,-0.81048 0.8219,-1.32681 0.6912,-0.25984 2.433,-0.99039 3.8706,-1.62345 1.4376,-0.63306 2.8338,-1.15102 3.1027,-1.15102 h 0.489 l 0.4171,0.63664 0.4172,0.63665 -1.1577,1.81075 c -0.6367,0.99591 -1.6058,2.61442 -2.1536,3.59669 -0.9971,1.78805 -1.3621,2.06211 -1.9558,1.46843 z m 2.4103,-5.10959 c 1.1685,-1.68319 1.1772,-1.67458 -0.7376,-0.7355 -1.5768,0.77336 -1.6938,0.96891 -1.0232,1.70999 0.6059,0.66952 0.628,0.65729 1.7608,-0.97449 z m -65.4341,-0.3905 -3.0427,-2.88428 0.5762,-0.58349 0.5761,-0.5835 0.8791,0.7299 c 1.62,1.34512 5.2447,4.96571 5.2447,5.23875 0,0.25861 -0.7831,0.97625 -1.0584,0.96993 -0.073,-0.002 -1.5015,-1.30096 -3.175,-2.88731 z m 4.9091,0.75448 c -0.069,-0.19847 -0.729,-2.02031 -1.4677,-4.04856 -1.4524,-3.98747 -1.4609,-4.07816 -0.4365,-4.62642 l 0.6878,-0.36806 3.7099,2.46066 c 4.031,2.67359 3.9175,2.56608 3.2469,3.0751 -0.6411,0.48669 -1.0563,0.45286 -1.911,-0.15569 l -0.7358,-0.52399 -1.1126,0.80592 -1.1125,0.80593 0.1943,0.44567 c 0.1069,0.24512 0.2059,0.72665 0.2201,1.07006 l 0.026,0.62438 -0.592,0.39792 -0.5921,0.39792 z m 1.269,-4.58499 c 0.6058,-0.45896 0.525,-0.59199 -1.0447,-1.71925 l -1.2602,-0.90499 0.1511,0.38148 c 1.1385,2.87566 1.2143,2.95453 2.1538,2.24276 z m 49.7813,2.88121 c -1.9625,-1.47916 -1.966,-1.49007 -0.8843,-2.71658 0.4864,-0.55147 1.5987,-1.91324 2.4718,-3.02615 1.866,-2.3785 1.7977,-2.3621 3.8285,-0.91798 1.6583,1.17916 1.8512,1.50892 1.1992,2.05 l -0.3962,0.32886 -0.909,-0.69333 c -1.1259,-0.85874 -1.5611,-0.87066 -2.0939,-0.0574 l -0.4167,0.63595 1.074,0.88675 1.074,0.88675 -0.5071,0.4589 -0.5071,0.45891 -1.0842,-0.79731 -1.0842,-0.79732 -0.5516,0.77478 c -0.5636,0.79139 -0.7082,1.34893 -0.3533,1.36166 0.1091,0.004 0.6103,0.34862 1.1138,0.76602 l 0.9153,0.7589 -0.3524,0.4246 c -0.5144,0.61974 -0.7812,0.53704 -2.5366,-0.78603 z m -44.9823,-5.81823 c -1.5896,-2.96351 -1.8713,-3.24433 -2.7712,-2.76272 l -0.5668,0.30332 -0.3799,-0.31535 c -0.7105,-0.58965 -0.3824,-0.93427 2.0028,-2.10337 l 2.3828,-1.16794 0.4614,0.46822 0.4615,0.46822 -0.4401,0.31456 c -0.242,0.17301 -0.6343,0.43362 -0.8717,0.57914 l -0.4317,0.26459 1.7312,3.0427 1.7313,3.04271 -0.447,0.33073 c -0.2459,0.1819 -0.6532,0.33073 -0.9051,0.33073 h -0.458 z m 39.4922,2.50976 c -0.6719,-0.39135 -0.6247,-0.53703 1.1701,-3.60756 l 1.6331,-2.79397 -0.4931,-0.36051 c -0.2711,-0.19828 -0.5893,-0.36051 -0.707,-0.36051 -0.326,0 -0.2552,-1.00164 0.086,-1.21227 l 0.2996,-0.18517 2.3462,1.15002 c 2.3464,1.15009 2.5551,1.35946 2.0895,2.09586 l -0.2486,0.39322 -0.8718,-0.32988 -0.8718,-0.32989 -0.2679,0.36435 c -0.1474,0.2004 -0.917,1.51134 -1.7103,2.91322 -1.4645,2.58789 -1.6315,2.74194 -2.4536,2.26309 z m -33.6671,-2.16161 c -0.063,-0.18191 -0.6492,-1.90705 -1.3025,-3.83365 l -1.1879,-3.50291 0.4996,-0.2674 c 0.2748,-0.14707 0.6765,-0.2674 0.8927,-0.2674 h 0.393 l 0.4384,1.31981 c 0.526,1.58378 0.6327,1.66567 1.6904,1.29697 0.9393,-0.32746 0.9789,-0.52422 0.4221,-2.10214 l -0.402,-1.13939 0.2036,-0.19391 c 0.112,-0.10666 0.4939,-0.23398 0.8487,-0.28294 l 0.6452,-0.089 1.3669,3.83645 c 1.4532,4.07881 1.4582,4.15151 0.2935,4.28152 l -0.7534,0.0841 -0.5171,-1.66712 -0.5171,-1.66711 -0.4493,0.12476 c -0.2471,0.0686 -0.7171,0.20178 -1.0446,0.29589 l -0.5953,0.17111 0.01,0.57749 c 0.01,0.31761 0.1795,0.87514 0.3875,1.23894 0.208,0.3638 0.3823,0.91661 0.3875,1.22846 l 0.01,0.56701 -0.4185,0.1606 c -0.6644,0.25494 -1.1761,0.18797 -1.3002,-0.17013 z m 26.6091,-0.69513 -0.6418,-0.17937 -0.1837,-0.65416 c -0.319,-1.13601 -0.7816,-3.83309 -0.7816,-4.55707 0,-0.38284 -0.1004,-0.7581 -0.2231,-0.83393 l -0.223,-0.13786 -0.6335,2.52339 c -0.3485,1.38787 -0.7059,2.64041 -0.7943,2.78343 l -0.1607,0.26003 -0.7227,-0.18139 -0.7227,-0.18139 0.1559,-0.56156 c 0.086,-0.30886 0.5487,-2.04963 1.0288,-3.86838 l 0.8729,-3.30683 0.4676,-0.09 c 0.2571,-0.0495 0.735,-0.0229 1.062,0.0592 l 0.5945,0.14921 0.4946,3.22488 0.4946,3.22487 0.1972,-0.63867 c 0.1085,-0.35127 0.4554,-1.62094 0.771,-2.82149 l 0.5739,-2.18281 h 0.6168 c 0.9806,0 0.978,0.28073 -0.041,4.3494 l -0.9644,3.85268 -0.2979,-0.0264 c -0.1639,-0.0145 -0.5868,-0.10709 -0.9398,-0.20573 z m -19.1592,-1.66579 c -0.086,-0.48413 -0.3477,-2.29431 -0.5818,-4.02262 l -0.4257,-3.1424 0.2535,-0.25344 c 0.1394,-0.1394 0.535,-0.2136 0.8792,-0.1649 l 0.6259,0.0886 0.3118,2.37119 c 0.1715,1.30416 0.3872,2.77308 0.4793,3.26427 l 0.1676,0.89306 1.3727,-0.0893 1.3727,-0.0893 0.08,0.69183 0.08,0.69183 -1.6678,0.18426 c -0.9173,0.10135 -1.9207,0.24566 -2.2298,0.3207 l -0.5621,0.13642 z m 7.5552,-0.074 -0.8688,-0.39131 -0.5145,-1.13351 -0.5144,-1.13351 v -1.19063 -1.19062 l 0.5012,-1.10386 c 0.2756,-0.60712 0.8182,-1.31157 1.2056,-1.56545 l 0.7045,-0.4616 h 1.1799 1.1799 l 0.7175,0.53092 c 0.3946,0.292 0.8766,0.85555 1.0711,1.25232 l 0.3536,0.72141 -0.013,1.69627 -0.013,1.69627 -0.4122,0.79718 c -0.5281,1.02128 -1.4424,1.61435 -2.7063,1.75549 l -1.0022,0.11194 z m 3.0367,-2.55435 c 0.439,-1.24821 0.4178,-2.50429 -0.058,-3.42441 l -0.4037,-0.78062 -0.7208,0.004 c -2.1275,0.012 -2.805,4.75318 -0.7908,5.53413 l 0.5991,0.23231 0.5292,-0.33386 c 0.291,-0.18363 0.6713,-0.73785 0.845,-1.23161 z m 3.0922,86.33355 c 0.1183,-0.19146 -1.8222,-3.7128 -2.3208,-4.21139 l -0.2021,-0.2021 0.1682,1.71819 c 0.092,0.945 0.223,1.98607 0.2901,2.31349 l 0.1219,0.59531 h 0.9053 c 0.498,0 0.9648,-0.0961 1.0374,-0.2135 z m -19.1507,-0.96151 c 0,-0.27926 -0.5078,-0.39658 -0.6588,-0.15222 l -0.1662,0.2689 h 0.4125 c 0.2268,0 0.4125,-0.0525 0.4125,-0.11668 z m -4.0459,-3.91821 c 0.2994,-0.32743 0.7437,-0.98943 0.9872,-1.47112 l 0.4429,-0.87581 -0.081,-0.97628 -0.081,-0.97627 -0.5648,-0.0805 -0.5647,-0.0806 -0.5437,0.69114 c -0.299,0.38013 -0.7437,1.21488 -0.9881,1.85501 l -0.4445,1.16387 0.1689,0.67293 0.1689,0.67294 h 0.478 c 0.2629,0 0.723,-0.26789 1.0223,-0.59531 z m 12.8943,-0.28274 0.2605,-0.74061 -0.3873,-0.2447 c -0.6303,-0.39828 -0.9113,-0.14136 -0.9999,0.91436 l -0.083,0.99447 0.4749,-0.0915 0.4749,-0.0915 z m -5.684,-0.56445 c 0.1754,-0.21129 0.2776,-0.59824 0.2272,-0.8599 l -0.092,-0.47573 h -0.5065 -0.5065 l -0.1901,0.71087 c -0.2769,1.03518 0.3987,1.43058 1.0675,0.62476 z m -4.7597,-6.21595 0.2597,-0.48522 -0.4567,-0.1189 -0.4567,-0.1189 -0.028,0.74304 -0.028,0.74305 0.2247,-0.13892 c 0.1237,-0.0764 0.3417,-0.35727 0.4845,-0.62415 z m 0.8015,-0.14676 c 0,-0.0728 -0.059,-0.13229 -0.1323,-0.13229 -0.073,0 -0.1323,0.0595 -0.1323,0.13229 0,0.0728 0.06,0.13229 0.1323,0.13229 0.073,0 0.1323,-0.0595 0.1323,-0.13229 z m -1.8521,-0.79375 c 0,-0.0728 -0.059,-0.13229 -0.1323,-0.13229 -0.073,0 -0.1323,0.0595 -0.1323,0.13229 0,0.0728 0.06,0.13229 0.1323,0.13229 0.073,0 0.1323,-0.0595 0.1323,-0.13229 z"
       id="path285" /></g><style
     id="style1">@media(prefers-color-scheme:dark){.lines{fill:#d7d7d7}}</style></svg>
