<?xml version="1.0" encoding="UTF-8" standalone="no"?>
<!-- Created with Inkscape (http://www.inkscape.org/) -->

<svg
   width="123.54604mm"
   height="143.77502mm"
   viewBox="0 0 123.54604 143.77502"
   version="1.1"
   id="svg1"
   xml:space="preserve"
   inkscape:version="1.4.4 (dcaf3e7, 2026-05-05)"
   sodipodi:docname="logos teams.svg"
   inkscape:export-batch-name="logos teams"
   inkscape:export-batch-path="Desktop"
   xmlns:inkscape="http://www.inkscape.org/namespaces/inkscape"
   xmlns:sodipodi="http://sodipodi.sourceforge.net/DTD/sodipodi-0.dtd"
   xmlns="http://www.w3.org/2000/svg"
   xmlns:svg="http://www.w3.org/2000/svg"><sodipodi:namedview
     id="namedview1"
     pagecolor="#ffffff"
     bordercolor="#000000"
     borderopacity="0.25"
     inkscape:showpageshadow="2"
     inkscape:pageopacity="0.0"
     inkscape:pagecheckerboard="0"
     inkscape:deskcolor="#d1d1d1"
     inkscape:document-units="mm"
     inkscape:zoom="0.69712823"
     inkscape:cx="489.14961"
     inkscape:cy="355.02794"
     inkscape:window-width="1920"
     inkscape:window-height="1050"
     inkscape:window-x="0"
     inkscape:window-y="30"
     inkscape:window-maximized="0"
     inkscape:current-layer="layer1"><inkscape:page
       x="0"
       y="0"
       width="123.54604"
       height="143.77502"
       id="page1"
       margin="0"
       bleed="0" /></sodipodi:namedview><defs
     id="defs1" /><g
     inkscape:label="Ebene 1"
     inkscape:groupmode="layer"
     id="layer1"
     transform="translate(77.774904,22.729577)"><g
       transform="matrix(4.0834893,0,0,4.0834893,-78.603852,-43.322204)"
       id="g52"><g
         stroke-width="0.265"
         id="g1" /><g
         transform="matrix(0.88988,0,0,0.88988,0.203,5.0429)"
         id="g51"><g
           transform="translate(-29.295,-129.68)"
           fill="none"
           stroke-width="0"
           id="g36"><path
             d="m 32.166,131.63 c 0.09232,0.0402 0.29147,0.1268 0.72454,0.22997 0.43306,0.10316 1.1357,0.23106 1.7894,0.23324 0.65373,0.002 1.3108,-0.11952 1.9203,-0.33375 0.6095,-0.21423 1.1989,-0.52736 1.7626,-0.83053 0.56371,-0.30317 1.1073,-0.59936 1.68,-0.81424 0.57269,-0.21488 1.1953,-0.35445 1.7138,-0.40828 0.51848,-0.0538 0.95487,-0.0252 1.4846,0.0847 0.52975,0.10992 1.1823,0.30897 1.6627,0.51728 0.48039,0.20832 0.81894,0.43547 1.0518,0.59128 0.23291,0.15581 0.38689,0.25799 0.50446,0.25172 0.11757,-0.006 0.24979,-0.0974 0.54142,-0.28434 0.29163,-0.18699 0.75358,-0.477 1.1423,-0.67407 0.38873,-0.19706 0.71831,-0.30809 1.2251,-0.37079 0.50679,-0.0627 1.2272,-0.0803 1.7585,-0.0373 0.5313,0.043 0.90946,0.1468 1.3769,0.31965 0.46743,0.17285 1.0304,0.4169 1.7246,0.72578 0.69426,0.30887 1.5288,0.68658 2.2759,0.93607 0.74718,0.24948 1.4283,0.37695 2.0712,0.37288 0.64288,-0.004 1.2955,-0.14347 1.6695,-0.21582 0.37391,-0.0723 0.57407,-0.0923 0.63768,-0.033 0.06361,0.0593 0.09357,0.19654 0.1756,0.52426 0.08203,0.32772 0.21781,0.8531 0.35588,1.2828 0.13807,0.42973 0.2796,0.76804 0.47887,1.232 0.19927,0.4639 0.45819,1.0578 0.72249,1.5822 0.2643,0.52436 0.5365,0.98477 0.64156,1.245 0.10506,0.26023 -0.0198,0.38312 -0.35131,0.58117 -0.33151,0.19805 -0.93537,0.52737 -1.3794,0.87039 -0.44403,0.34302 -0.75845,0.71975 -0.98385,1.0723 -0.2254,0.35251 -0.36887,0.69123 -0.45196,1.1327 -0.0831,0.44144 -0.10834,1.0204 -0.06087,1.5272 0.04747,0.50685 0.16787,0.97027 0.30124,1.3557 0.13337,0.38547 0.2837,0.70278 0.58284,1.1123 0.29914,0.40952 0.7643,0.9342 1.0789,1.2419 0.31457,0.30773 0.49484,0.41671 0.59486,0.55062 0.10002,0.13391 0.1255,0.33672 0.11431,0.68594 -0.0112,0.34922 -0.0555,0.87347 -0.12924,1.5571 -0.07375,0.68364 -0.17714,1.5284 -0.32553,2.3749 -0.14839,0.84647 -0.34262,1.6994 -0.52536,2.4163 -0.18274,0.7169 -0.35467,1.3008 -0.5496,1.8571 -0.19492,0.55636 -0.41341,1.0867 -0.64197,1.5891 -0.22856,0.50243 -0.46781,0.97835 -0.69544,1.396 -0.22763,0.4176 -0.44492,0.77908 -0.6834,1.155 -0.23848,0.37592 -0.49998,0.76932 -0.89974,1.2673 -0.39976,0.49798 -0.94057,1.1041 -1.449,1.6094 -0.50842,0.50526 -0.98659,0.91181 -1.5686,1.3417 -0.58205,0.42994 -1.2723,0.88618 -1.9916,1.2822 -0.71929,0.39602 -1.4761,0.73628 -2.1945,1.0509 -0.7184,0.31457 -1.4045,0.60619 -2.15,1.0127 -0.7455,0.40651 -1.5634,0.93583 -2.025,1.201 -0.4616,0.26517 -0.63367,0.27749 -0.77087,0.22078 -0.1372,-0.0567 -0.29983,-0.17821 -0.57447,-0.34944 -0.27464,-0.17123 -0.66213,-0.39269 -1.0688,-0.60132 -0.40672,-0.20862 -0.83572,-0.40587 -1.6646,-0.75025 -0.82889,-0.34437 -2.0611,-0.83743 -2.9787,-1.264 -0.9176,-0.42654 -1.5245,-0.78871 -2.0346,-1.1357 -0.5101,-0.34699 -0.92926,-0.68264 -1.3413,-1.0596 -0.41208,-0.37699 -0.82098,-0.7989 -1.2621,-1.2972 -0.44112,-0.4983 -0.9169,-1.0754 -1.3194,-1.6231 -0.40246,-0.54774 -0.73331,-1.0686 -1.0386,-1.612 -0.30529,-0.5434 -0.58656,-1.1116 -0.81115,-1.6327 -0.22459,-0.52112 -0.39426,-0.99969 -0.61309,-1.7378 -0.21882,-0.73812 -0.48843,-1.7406 -0.70891,-2.6916 -0.22048,-0.951 -0.39244,-1.853 -0.52853,-2.8499 -0.13609,-0.9969 -0.23679,-2.0927 -0.29272,-2.7264 -0.05593,-0.63367 -0.06735,-0.80805 -0.02341,-0.92237 0.04393,-0.11432 0.18631,-0.19215 0.37004,-0.29124 0.18373,-0.0991 0.43998,-0.23642 0.64833,-0.37122 0.20835,-0.13479 0.37739,-0.2717 0.55999,-0.46167 0.1826,-0.18996 0.38278,-0.43772 0.54599,-0.69892 0.16321,-0.26121 0.29348,-0.54129 0.40358,-0.86919 0.1101,-0.3279 0.20269,-0.71402 0.25895,-1.0629 0.05626,-0.3489 0.07865,-0.67152 0.06338,-1.0094 -0.01527,-0.33791 -0.06833,-0.69383 -0.15849,-1.0097 -0.09016,-0.31584 -0.22014,-0.59834 -0.4329,-0.90033 -0.21276,-0.30199 -0.51531,-0.63346 -0.78372,-0.8967 -0.26841,-0.26324 -0.50813,-0.46373 -0.84028,-0.64119 -0.33214,-0.17747 -0.7687,-0.33748 -0.98368,-0.45453 -0.21498,-0.11706 -0.22683,-0.33496 -0.16672,-0.46529 0.06011,-0.13032 0.18548,-0.29686 0.38042,-0.61434 0.19494,-0.31748 0.46126,-0.78901 0.6703,-1.1913 0.20904,-0.40229 0.36205,-0.73764 0.5455,-1.1703 0.18346,-0.43268 0.39805,-0.96436 0.56402,-1.4201 0.16597,-0.45571 0.28436,-0.83842 0.36644,-1.1254 0.08208,-0.28697 0.13472,-0.50612 0.15627,-0.59584 0.02155,-0.0897 0.0426,-0.10803 0.0426,-0.10803 l 0.02149,-0.0176 c 0,0 -2e-6,-1e-5 0.09232,0.0402 z"
             id="path1" /><path
             d="m 31.122,137.33 c 0.07877,-0.12445 0.23694,-0.37435 0.45085,-0.77568 0.21391,-0.40133 0.48468,-0.95588 0.6771,-1.3758 0.19242,-0.41992 0.30674,-0.70571 0.41147,-1.0024 0.10473,-0.29669 0.20016,-0.6051 0.30181,-0.76977 0.10165,-0.16468 0.29198,-0.20227 0.4334,-0.18371 0.14142,0.0186 0.30949,0.0787 0.50431,0.10977 0.19482,0.0311 0.41899,0.0334 0.62626,0.0281 0.20727,-0.005 0.40117,-0.0184 0.63761,-0.05 0.23644,-0.0315 0.51663,-0.0817 0.80444,-0.1438 0.28781,-0.062 0.5842,-0.13612 0.87851,-0.23467 0.29431,-0.0985 0.58908,-0.22255 0.94187,-0.39243 0.35279,-0.16989 0.76597,-0.38669 1.1689,-0.59675 0.40293,-0.21006 0.79643,-0.41377 1.1221,-0.55656 0.32564,-0.14278 0.58441,-0.225 0.82006,-0.28801 0.23566,-0.063 0.45019,-0.10727 0.67085,-0.1348 0.22066,-0.0275 0.45079,-0.0388 0.69822,-0.0342 0.24743,0.005 0.51544,0.0252 0.72436,0.0511 0.20892,0.026 0.36213,0.0578 0.55316,0.11464 0.19103,0.0569 0.42302,0.13954 0.69642,0.27189 0.2734,0.13234 0.59056,0.31556 0.85228,0.4827 0.26172,0.16715 0.47098,0.32 0.69003,0.50848 0.21905,0.18848 0.44884,0.41339 0.59469,0.51627 0.14585,0.10287 0.2569,0.0701 0.39417,-0.0408 0.13727,-0.11085 0.34292,-0.31258 0.53851,-0.49197 0.19559,-0.1794 0.38209,-0.33741 0.62007,-0.49119 0.23798,-0.15378 0.52793,-0.30359 0.78491,-0.41899 0.25698,-0.11539 0.4818,-0.19681 0.74857,-0.25422 0.26676,-0.0574 0.57662,-0.091 0.90591,-0.10401 0.32929,-0.013 0.68064,-0.006 0.97984,0.034 0.29919,0.0397 0.54802,0.11223 0.78652,0.19644 0.2385,0.0842 0.468,0.18057 0.70343,0.287 0.23543,0.10643 0.47789,0.22343 0.75367,0.36462 0.27578,0.1412 0.58697,0.30763 0.94319,0.48439 0.35622,0.17677 0.75847,0.36442 1.2967,0.53313 0.53828,0.16872 1.2134,0.3187 1.6462,0.39387 0.43278,0.0752 0.62492,0.0758 0.89669,0.0718 0.27178,-0.004 0.62421,-0.013 0.88075,-0.0382 0.25654,-0.0252 0.42013,-0.0672 0.52661,-0.0712 0.10648,-0.004 0.2153,0.0664 0.26722,0.16432 0.05192,0.0979 0.09941,0.25761 0.22396,0.61165 0.12455,0.35405 0.3265,0.90349 0.49213,1.3189 0.16563,0.41541 0.29552,0.69841 0.44595,1.0121 0.15043,0.31371 0.32164,0.65871 0.3814,0.86257 0.05976,0.20386 -0.03651,0.32067 -0.25141,0.4704 -0.21489,0.14973 -0.58904,0.3792 -0.83096,0.55247 -0.24192,0.17327 -0.35637,0.2939 -0.52038,0.47785 -0.16402,0.18394 -0.37894,0.43267 -0.52051,0.62685 -0.14157,0.19417 -0.21068,0.33499 -0.30214,0.52181 -0.09146,0.18683 -0.20563,0.42042 -0.28867,0.65926 -0.08304,0.23885 -0.13568,0.48516 -0.17784,0.76302 -0.04216,0.27786 -0.07433,0.59018 -0.09429,0.86279 -0.01997,0.27262 -0.02787,0.50701 -0.06145,0.63728 -0.03358,0.13027 -0.1183,0.16784 -0.45778,0.26275 -0.33948,0.0949 -0.94888,0.25378 -1.7083,0.44977 -0.75941,0.19599 -1.6697,0.42931 -2.5187,0.6443 -0.84896,0.21499 -1.6368,0.41171 -2.476,0.62251 -0.83917,0.21081 -1.7299,0.43576 -2.9603,0.74951 -1.2304,0.31376 -2.8009,0.71639 -4.2942,1.0975 -1.4933,0.38111 -2.9097,0.74076 -4.7781,1.2195 -1.8684,0.47873 -4.189,1.0766 -5.5515,1.4305 -1.3625,0.3539 -1.7674,0.46395 -2.0201,0.51922 -0.25274,0.0553 -0.39738,0.0562 -0.45529,-0.007 -0.05791,-0.0631 -0.09264,-0.20064 -0.12787,-0.52646 -0.03524,-0.32582 -0.07346,-0.84994 -0.0648,-1.1428 0.0087,-0.29288 0.11094,-0.40776 0.22864,-0.50784 0.1177,-0.10008 0.27927,-0.2169 0.50142,-0.40973 0.22215,-0.19282 0.50746,-0.46386 0.71917,-0.68344 0.21171,-0.21958 0.35195,-0.38994 0.47979,-0.56829 0.12784,-0.17836 0.24458,-0.36637 0.37158,-0.6042 0.127,-0.23783 0.26481,-0.52642 0.35973,-0.74228 0.09492,-0.21586 0.14756,-0.36055 0.20244,-0.59753 0.05488,-0.23697 0.11294,-0.56907 0.1489,-0.84151 0.03596,-0.27245 0.04997,-0.48709 0.05286,-0.74689 0.0029,-0.2598 -0.0053,-0.56753 -0.02522,-0.81069 -0.01994,-0.24317 -0.05195,-0.42536 -0.12318,-0.68243 -0.07122,-0.25708 -0.18226,-0.59193 -0.28415,-0.84212 -0.10189,-0.25019 -0.19639,-0.41914 -0.28034,-0.56094 -0.08395,-0.14179 -0.1587,-0.2587 -0.31182,-0.43764 -0.15312,-0.17895 -0.3865,-0.42241 -0.5962,-0.61617 -0.2097,-0.19376 -0.39878,-0.34063 -0.61845,-0.48501 -0.21967,-0.14438 -0.47317,-0.28853 -0.62523,-0.3826 -0.15206,-0.0941 -0.27066,-0.196 -0.28192,-0.20567 -0.01126,-0.01 -0.01126,-0.0103 0.06751,-0.13476 z"
             id="path2-3" /><path
             d="m 31.774,136.77 c 0.25789,-0.52091 0.7751,-1.5656 1.0653,-2.1769 0.2902,-0.6113 0.35559,-0.79356 0.41818,-0.88812 0.06259,-0.0945 0.14718,-0.10481 0.35124,-0.0935 0.20406,0.0113 0.54954,0.0424 0.955,0.0392 0.40545,-0.003 0.8808,-0.0403 1.3762,-0.14042 0.49538,-0.10011 1.024,-0.26599 1.5166,-0.45362 0.49254,-0.18763 0.9576,-0.39993 1.437,-0.63668 0.47942,-0.23676 0.975,-0.4988 1.3873,-0.67655 0.41232,-0.17776 0.74744,-0.27297 1.0774,-0.32975 0.32998,-0.0568 0.66252,-0.0768 0.90576,-0.0789 0.24325,-0.002 0.40067,0.014 0.67475,0.0671 0.27408,0.053 0.66716,0.14334 0.95434,0.23647 0.28717,0.0931 0.46913,0.1894 0.646,0.2893 0.17687,0.0999 0.35012,0.20428 0.53118,0.32863 0.18106,0.12434 0.37178,0.26975 0.5422,0.42985 0.17042,0.16011 0.32058,0.33492 0.45392,0.46845 0.13334,0.13353 0.25014,0.22598 0.36224,0.24977 0.1121,0.0238 0.26686,-0.0403 0.44021,-0.17402 0.17335,-0.13368 0.40805,-0.35555 0.71524,-0.59313 0.30718,-0.23758 0.69075,-0.49425 0.93588,-0.64704 0.24513,-0.15279 0.35556,-0.20364 0.52761,-0.26399 0.17205,-0.0603 0.40896,-0.13164 0.6072,-0.17391 0.19824,-0.0423 0.35854,-0.0557 0.52698,-0.0692 0.16844,-0.0135 0.34512,-0.0272 0.6337,0.003 0.28858,0.0303 0.69358,0.10529 1.0153,0.17874 0.3217,0.0734 0.56671,0.14656 1.0672,0.3783 0.50049,0.23174 1.2569,0.62241 1.765,0.86967 0.50809,0.24725 0.7712,0.35252 1.116,0.46267 0.34477,0.11016 0.77736,0.22723 1.1467,0.30149 0.36939,0.0743 0.68343,0.10727 1.118,0.12009 0.43462,0.0128 0.99503,0.006 1.2944,0.015 0.29937,0.009 0.39671,0.0709 0.45105,0.18006 0.05434,0.10914 0.11723,0.29858 0.28914,0.73052 0.17191,0.43194 0.4542,1.1097 0.65651,1.568 0.20231,0.45823 0.32613,0.7005 0.38365,0.84527 0.05752,0.14477 0.03048,0.29035 -0.079,0.37342 -0.10949,0.0831 -0.32175,0.20676 -0.49599,0.31764 -0.17424,0.11089 -0.31278,0.21054 -0.45797,0.33553 -0.14518,0.12499 -0.29917,0.27688 -0.44142,0.43139 -0.14225,0.1545 -0.27407,0.31319 -0.41784,0.52529 -0.14377,0.2121 -0.3027,0.4825 -0.4236,0.70571 -0.1209,0.22322 -0.20627,0.40363 -0.2952,0.70937 -0.08892,0.30574 -0.18231,0.74 -0.23782,1.12 -0.05551,0.37999 -0.07398,0.71127 -0.11021,0.89881 -0.03623,0.18754 -0.12288,0.26114 -0.36226,0.3333 -0.23938,0.0722 -0.66074,0.16771 -1.3889,0.34318 -0.72816,0.17547 -1.7633,0.43093 -3.3192,0.81494 -1.5559,0.38402 -3.6329,0.89668 -5.3432,1.3304 -1.7103,0.43371 -3.0539,0.78848 -5.3032,1.374 -2.2493,0.58551 -5.4044,1.4018 -7.33,1.9027 -1.9256,0.50096 -2.6219,0.68662 -2.9937,0.77316 -0.37181,0.0865 -0.47647,0.0587 -0.52802,-0.15531 -0.05155,-0.21403 -0.11453,-0.63224 -0.10945,-0.89055 0.0051,-0.25832 0.09278,-0.37712 0.32255,-0.59985 0.22977,-0.22272 0.61341,-0.56494 0.92115,-0.87661 0.30774,-0.31167 0.54325,-0.5968 0.7252,-0.86104 0.18195,-0.26424 0.31286,-0.51084 0.43982,-0.77239 0.12696,-0.26154 0.25114,-0.54059 0.36607,-0.9216 0.11493,-0.38101 0.22258,-0.8701 0.27768,-1.3771 0.05509,-0.50698 0.05834,-1.0452 0.02847,-1.4513 -0.02986,-0.40603 -0.09338,-0.69284 -0.17214,-0.94152 -0.07876,-0.24869 -0.17373,-0.46294 -0.3671,-0.77891 -0.19337,-0.31598 -0.49155,-0.74303 -0.83287,-1.1217 -0.34132,-0.37868 -0.73691,-0.72219 -1.0082,-0.9271 -0.2713,-0.2049 -0.42618,-0.27687 -0.51576,-0.32947 -0.08958,-0.0526 -0.12363,-0.0959 -0.13681,-0.11271 -0.01318,-0.0168 -0.01315,-0.0168 0.24475,-0.53771 z"
             id="path3-4" /><path
             d="m 34.729,138.49 c 0,0 -0.02066,-3.5926 -0.02066,-3.5926 l 5.6803,0.0331 v 3.0923 c -0.04961,0.0427 -0.0992,0.0854 -0.15699,0.11503 -0.05779,0.0296 -0.12393,0.0461 -0.1845,0.0448 -0.06057,-10e-4 -0.11569,-0.0206 -0.15984,-0.0508 -0.04415,-0.0302 -0.0772,-0.0716 -0.09249,-0.11019 -0.01528,-0.0386 -0.01252,-0.0744 -0.01938,-0.17982 -0.0069,-0.1054 -0.0234,-0.28041 -0.03994,-0.47471 -0.01654,-0.19431 -0.03308,-0.4079 -0.06404,-0.57601 -0.03096,-0.1681 -0.07643,-0.29075 -0.12876,-0.39481 -0.05233,-0.10405 -0.11157,-0.18947 -0.17219,-0.26804 -0.06062,-0.0786 -0.12263,-0.15021 -0.1736,-0.20124 -0.05097,-0.051 -0.09092,-0.0814 -0.1667,-0.11381 -0.07578,-0.0325 -0.18739,-0.0669 -0.27771,-0.0787 -0.09032,-0.0118 -0.15921,-7.4e-4 -0.19587,0.0146 -0.03666,0.0153 -0.04077,0.0345 -0.04491,0.0594 -0.0041,0.0249 -0.0083,0.0552 -0.01039,0.0972 -0.0021,0.042 -0.0075,2.3527 -0.01029,3.5351 l -0.12816,5.6348 c 0.0124,0.0413 0.02491,0.083 0.0539,0.13606 0.02898,0.053 0.07448,0.11781 0.12857,0.16752 0.05409,0.0497 0.11552,0.0838 0.20095,0.10996 0.08542,0.0261 0.19428,0.0441 0.30105,0.0488 0.10677,0.005 0.21151,-0.003 0.29422,-0.005 0.08271,-0.001 0.14333,0.004 0.18387,0.0573 0.04054,0.0532 0.06121,0.15378 0.06323,0.22326 0.002,0.0695 -0.01452,0.10808 -0.05952,0.15591 -0.045,0.0478 -0.12029,0.10639 -0.34155,0.18014 -0.22126,0.0738 -0.58888,0.16325 -1.0705,0.28108 -0.48163,0.11782 -1.0769,0.26389 -1.4903,0.36242 -0.41342,0.0985 -0.64491,0.14952 -0.78821,0.1757 -0.1433,0.0262 -0.19839,0.0275 -0.23633,0.0104 -0.03794,-0.0171 -0.0586,-0.0529 -0.07859,-0.0908 -0.01999,-0.0379 -0.0393,-0.0779 -0.04695,-0.15989 -0.0077,-0.082 -0.0035,-0.20604 0.0144,-0.2854 0.01792,-0.0794 0.04959,-0.11378 0.11119,-0.1442 0.06161,-0.0304 0.15218,-0.0565 0.24176,-0.0848 0.08958,-0.0283 0.17777,-0.0586 0.25489,-0.0937 0.07712,-0.0351 0.14328,-0.0751 0.2025,-0.11848 0.05922,-0.0434 0.11161,-0.0903 0.15845,-0.13504 0.04684,-0.0448 0.08817,-0.0875 0.11708,-0.13564 0.02891,-0.0482 0.04544,-0.10188 0.05396,-0.15143 0.0085,-0.0496 0.05216,-4.4279 0.07421,-6.6396 l 0.0041,-2.9683 c -0.0028,-0.0634 -0.0055,-0.1265 -0.02882,-0.17819 -0.0233,-0.0517 -0.06742,-0.0917 -0.11565,-0.11111 -0.04824,-0.0194 -0.10059,-0.0181 -0.18698,0.0167 -0.08639,0.0348 -0.20868,0.10429 -0.30794,0.17945 -0.09926,0.0752 -0.17369,0.15364 -0.2309,0.23914 -0.05721,0.0855 -0.0958,0.17645 -0.1461,0.28462 -0.0503,0.10817 -0.11231,0.23356 -0.15916,0.36176 -0.04685,0.1282 -0.07855,0.25911 -0.1019,0.41895 -0.02336,0.15983 -0.03863,0.35147 -0.053,0.48793 -0.01437,0.13646 -0.02836,0.22181 -0.04007,0.32587 -0.0117,0.10405 -0.02135,0.22807 -0.02749,0.3032 -0.0061,0.0751 -0.009,0.10401 -0.02964,0.12592 -0.0206,0.0219 -0.05917,0.0384 -0.09349,0.0519 -0.03432,0.0135 -0.06763,0.0251 -0.11652,0.0334 -0.04889,0.008 -0.11502,0.0138 -0.16186,0.0165 -0.04684,0.003 -0.07715,0.003 -0.104,-0.004 -0.02685,-0.007 -0.05167,-0.0206 -0.06422,-0.0275 -0.01255,-0.007 -0.01245,-0.007 -0.01245,-0.007 z"
             id="path4-0" /><path
             d="m 40.478,145.11 c 0.0063,-0.4089 0.01895,-1.2267 0.04023,-1.6815 0.02129,-0.45485 0.05541,-0.55958 0.12509,-0.61649 0.06969,-0.0569 0.18814,-0.0865 0.31773,-0.10394 0.12959,-0.0174 0.27872,-0.0239 0.36292,0.005 0.0842,0.0293 0.1198,0.12313 0.15615,0.24327 0.03635,0.12014 0.08286,0.29319 0.19007,0.5298 0.10722,0.23661 0.28013,0.549 0.41878,0.74543 0.13865,0.19643 0.25576,0.2914 0.38434,0.36824 0.12858,0.0769 0.27879,0.1438 0.43939,0.17664 0.1606,0.0328 0.33147,0.0315 0.4914,-0.0147 0.15993,-0.0462 0.3168,-0.14219 0.43416,-0.23531 0.11736,-0.0931 0.20981,-0.1952 0.30836,-0.3916 0.09856,-0.19639 0.21373,-0.50306 0.26916,-0.73611 0.05542,-0.23305 0.05472,-0.40264 0.05313,-0.54096 -0.0016,-0.13832 -0.0041,-0.24686 -0.06826,-0.46484 -0.06414,-0.21799 -0.18992,-0.5475 -0.38312,-0.8844 -0.1932,-0.3369 -0.45546,-0.68341 -0.79878,-1.0909 -0.34332,-0.40751 -0.77025,-0.87939 -1.0796,-1.2584 -0.30931,-0.37906 -0.50285,-0.66798 -0.62917,-0.89749 -0.12632,-0.22951 -0.18857,-0.4056 -0.23668,-0.66489 -0.0481,-0.25929 -0.08359,-0.60982 -0.09061,-0.84833 -0.007,-0.23852 0.01488,-0.37684 0.07156,-0.54807 0.05667,-0.17122 0.1499,-0.38398 0.30292,-0.59502 0.15302,-0.21103 0.3756,-0.43132 0.58564,-0.59331 0.21004,-0.162 0.42267,-0.27704 0.66562,-0.34859 0.24295,-0.0716 0.53484,-0.10608 0.75771,-0.11184 0.22288,-0.006 0.38666,0.0162 0.52872,0.0503 0.14206,0.0341 0.26369,0.0807 0.43321,0.16785 0.16952,0.0872 0.39172,0.21771 0.5464,0.32206 0.15468,0.10434 0.24634,0.18519 0.30923,0.216 0.06289,0.0308 0.16764,-0.0257 0.20578,-0.10128 0.03814,-0.0756 0.07465,-0.20836 0.12557,-0.27686 0.05092,-0.0685 0.14554,-0.082 0.22408,-0.0751 0.07853,0.007 0.17377,0.035 0.21713,0.094 0.04336,0.059 0.05562,0.16955 0.0591,0.59645 0.0035,0.4269 -7.38e-4,1.1799 -0.03114,1.5726 -0.0304,0.39277 -0.13807,0.45478 -0.22554,0.46634 -0.08747,0.0115 -0.20373,-9.9e-4 -0.27547,-0.053 -0.07174,-0.052 -0.10946,-0.16292 -0.18798,-0.39283 -0.07852,-0.22992 -0.20729,-0.60654 -0.32587,-0.85581 -0.11858,-0.24928 -0.23594,-0.3917 -0.36632,-0.50834 -0.13038,-0.11664 -0.28282,-0.21541 -0.43391,-0.26761 -0.15108,-0.0522 -0.31214,-0.0623 -0.46683,-0.0451 -0.1547,0.0172 -0.31316,0.0632 -0.44955,0.14503 -0.13639,0.0819 -0.25797,0.2029 -0.35256,0.34218 -0.09459,0.13927 -0.16662,0.30521 -0.20819,0.49151 -0.04156,0.18631 -0.05629,0.41396 0.01217,0.68312 0.06846,0.26916 0.2247,0.60903 0.37635,0.86812 0.15165,0.25908 0.30402,0.44859 0.5422,0.72071 0.23818,0.27212 0.5627,0.62745 0.81038,0.91514 0.24768,0.28769 0.41912,0.50837 0.54171,0.66576 0.12259,0.15739 0.19628,0.25141 0.29683,0.45617 0.10055,0.20477 0.22893,0.52267 0.30695,0.81565 0.07803,0.29298 0.10758,0.56856 0.11243,0.84031 0.0048,0.27175 -0.01492,0.54553 -0.058,0.77089 -0.04309,0.22537 -0.11013,0.40653 -0.18602,0.57675 -0.07589,0.17021 -0.16201,0.33224 -0.2588,0.47499 -0.09679,0.14275 -0.20677,0.27001 -0.33495,0.39308 -0.12818,0.12307 -0.28026,0.24704 -0.44603,0.36198 -0.16577,0.11493 -0.35058,0.2252 -0.56009,0.30529 -0.20951,0.0801 -0.44547,0.13039 -0.69419,0.15655 -0.24872,0.0262 -0.51319,0.0288 -0.75102,-0.0164 -0.23783,-0.0452 -0.4541,-0.1406 -0.61336,-0.22907 -0.15926,-0.0885 -0.27241,-0.17644 -0.36044,-0.2359 -0.08803,-0.0595 -0.19185,-0.11319 -0.22732,-0.0988 -0.03547,0.0143 -0.05703,0.0915 -0.06577,0.20463 -0.0087,0.11312 -0.0087,0.27655 -0.05968,0.38689 -0.05102,0.11035 -0.17105,0.17768 -0.29716,0.21348 -0.12611,0.0358 -0.27744,0.0476 -0.36107,0.0251 -0.08363,-0.0225 -0.1205,-0.11371 -0.13302,-0.14467 -0.01252,-0.031 -0.01244,-0.0312 -0.0061,-0.44006 z"
             id="path5-7" /><path
             d="m 31.377,151.06 c 9.0044,-2.3215 18.009,-4.644 27.013,-6.9648 0.08285,-0.0162 0.16882,-0.0145 0.25144,0.002 0.07066,0.0427 0.06258,0.13721 0.09822,0.20328 0.12388,0.3423 0.25305,0.68266 0.37897,1.0242 0.20194,0.36095 0.40544,0.72102 0.60804,1.0816 0.18233,0.22201 0.35443,0.4529 0.54341,0.66914 0.35448,0.30997 0.70868,0.62056 1.0761,0.91527 0.04103,0.19897 0.02643,0.40336 0.03895,0.60492 -7.93e-4,0.19501 -0.03429,0.38791 -0.04842,0.58209 -0.05346,0.53895 -0.10154,1.0786 -0.16154,1.6168 -0.12213,0.64752 -0.24039,1.2958 -0.36108,1.9436 -0.26982,0.93105 -0.53087,1.8648 -0.8071,2.7939 -0.25722,0.60786 -0.50804,1.2186 -0.77198,1.8235 -0.3815,0.71194 -0.76329,1.4237 -1.1454,2.1354 -0.3437,0.46048 -0.68055,0.92621 -1.0295,1.3827 -0.50525,0.55561 -1.0128,1.1091 -1.5196,1.6634 -0.6105,0.48071 -1.2197,0.96302 -1.83,1.4441 -0.75208,0.40373 -1.5043,0.80714 -2.2568,1.2102 -1.1309,0.43797 -2.2638,0.8712 -3.3938,1.3113 -0.31575,0.16488 -0.63514,0.32294 -0.9585,0.47225 -0.16066,0.0905 -0.31581,0.19082 -0.46856,0.29393 -0.09951,0.0701 -0.1876,0.1557 -0.2856,0.22694 -0.0749,0.0427 -0.16282,0.0724 -0.24883,0.0478 -0.13283,-0.029 -0.23971,-0.1192 -0.36458,-0.16836 -0.19025,-0.0878 -0.39317,-0.15219 -0.56648,-0.2729 -0.21882,-0.13771 -0.43058,-0.287 -0.65461,-0.41625 -0.10221,-0.0491 -0.2112,-0.0826 -0.31546,-0.12728 -0.549,-0.21859 -1.0996,-0.43321 -1.6554,-0.63414 -0.37418,-0.13938 -0.74964,-0.27567 -1.1217,-0.4206 -0.6351,-0.31261 -1.2701,-0.62536 -1.9051,-0.93818 -0.39026,-0.25156 -0.78453,-0.49724 -1.1707,-0.75489 -0.51687,-0.40594 -1.0319,-0.81415 -1.5479,-1.2212 -0.44627,-0.49892 -0.89255,-0.99782 -1.3389,-1.4967 -0.30926,-0.43405 -0.62584,-0.86301 -0.9305,-1.3003 -0.19688,-0.3399 -0.40225,-0.675 -0.59322,-1.0182 -0.23029,-0.48567 -0.47228,-0.96589 -0.69404,-1.4555 -0.20093,-0.48478 -0.4084,-0.96703 -0.59944,-1.4558 -0.15708,-0.44683 -0.32413,-0.89032 -0.4737,-1.3397 -0.14606,-0.60205 -0.31523,-1.1987 -0.43751,-1.8064 -0.11746,-0.55237 -0.23515,-1.1047 -0.35242,-1.6571 z"
             id="path6-5" /><path
             d="m 51.376,135.75 c -0.0097,0.23978 -0.02895,0.71934 -0.11141,0.98164 -0.08246,0.2623 -0.29405,0.32776 -0.40092,0.32809 -0.10687,3.2e-4 -0.19863,-0.0755 -0.23799,-0.17027 -0.03936,-0.0948 -0.06314,-0.2391 -0.10151,-0.40403 -0.03836,-0.16492 -0.09177,-0.35243 -0.15689,-0.50913 -0.06512,-0.1567 -0.14297,-0.28527 -0.23998,-0.39419 -0.09701,-0.10892 -0.21947,-0.20361 -0.34622,-0.24613 -0.12675,-0.0425 -0.28066,-0.0373 -0.4476,0.0544 -0.16694,0.0917 -0.38072,0.28991 -0.50936,0.45012 -0.12864,0.1602 -0.18999,0.30136 -0.25338,0.50986 -0.06339,0.2085 -0.13091,0.49008 -0.20064,0.84802 -0.06973,0.35793 -0.14235,0.79535 -0.18687,1.4468 -0.04452,0.6515 -0.06112,1.519 -0.05151,2.1143 0.0096,0.59535 0.0457,0.92249 0.12015,1.2365 0.07446,0.31404 0.19131,0.62749 0.32334,0.82832 0.13203,0.20084 0.31498,0.32202 0.46001,0.35678 0.14502,0.0348 0.30272,0.005 0.45773,-0.0653 0.155,-0.0702 0.32977,-0.18633 0.45292,-0.31366 0.12316,-0.12734 0.19974,-0.26956 0.28078,-0.49756 0.08103,-0.228 0.16929,-0.55143 0.21924,-0.78218 0.04994,-0.23075 0.06423,-0.37913 0.10593,-0.47497 0.0417,-0.0958 0.14058,-0.16017 0.24249,-0.18975 0.10191,-0.0296 0.23671,-0.0384 0.31063,0.0115 0.07392,0.0499 0.11312,0.2135 0.12714,0.57206 0.01401,0.35856 0.01211,0.95143 -0.02359,1.2893 -0.0357,0.33791 -0.15908,0.48599 -0.24332,0.5137 -0.08424,0.0277 -0.22768,-0.0311 -0.29109,-0.0459 -0.06341,-0.0148 -0.26478,0.0612 -0.39317,0.13667 -0.12839,0.0755 -0.28781,0.19019 -0.47279,0.30031 -0.18498,0.11012 -0.4023,0.21939 -0.69166,0.27166 -0.28935,0.0523 -0.66026,0.0513 -0.92742,-0.0117 -0.26716,-0.0629 -0.43535,-0.19037 -0.60225,-0.36674 -0.1669,-0.17638 -0.34128,-0.41024 -0.4789,-0.63929 -0.13762,-0.22905 -0.24278,-0.45948 -0.33572,-0.72155 -0.09294,-0.26208 -0.17439,-0.55755 -0.23554,-0.86003 -0.06116,-0.30248 -0.10238,-0.61431 -0.12532,-0.95614 -0.02294,-0.34184 -0.02778,-0.71586 -0.01198,-1.0805 0.0158,-0.36464 0.05243,-0.72227 0.13686,-1.1593 0.08443,-0.43707 0.21866,-0.96201 0.33556,-1.3296 0.1169,-0.36759 0.21948,-0.58709 0.32301,-0.77442 0.10352,-0.18732 0.21162,-0.34857 0.38636,-0.53111 0.17474,-0.18253 0.42482,-0.39606 0.62893,-0.53265 0.20411,-0.1366 0.37013,-0.20226 0.60692,-0.24434 0.23679,-0.0421 0.55249,-0.0617 0.8076,-0.028 0.2551,0.0337 0.4697,0.12615 0.62953,0.22871 0.15983,0.10255 0.28125,0.22406 0.3562,0.25252 0.07495,0.0285 0.17232,-0.1404 0.23481,-0.21714 0.06249,-0.0767 0.1915,-0.18388 0.27231,-0.18616 0.08081,-0.002 0.24041,0.0907 0.27079,0.21693 0.03038,0.12627 0.01384,0.33546 0.0056,0.43936 -0.0082,0.10391 -0.0082,0.10426 -0.01782,0.34404 z"
             id="path7-7" /><path
             d="m 52.044,135.63 c 0.03411,0.0487 0.10231,0.14617 0.15474,0.36013 0.05242,0.21396 0.0893,0.5466 0.10931,0.87657 0.02001,0.32998 0.02336,0.65909 0.01875,1.2551 -0.0046,0.596 -0.0172,1.459 -0.0282,2.0848 -0.011,0.62571 -0.02041,1.0142 -0.04135,1.3024 -0.02094,0.2882 -0.05368,0.4777 -0.07656,0.58662 -0.02288,0.10892 -0.03649,0.14013 -0.07039,0.17997 -0.03389,0.0398 -0.08919,0.0896 -0.14386,0.14556 -0.05467,0.056 -0.11246,0.12246 -0.14463,0.18916 -0.03217,0.0667 -0.04349,0.14033 -0.04395,0.20412 -4.62e-4,0.0638 0.01004,0.12117 0.03653,0.15826 0.0265,0.0371 0.07962,0.0604 0.13202,0.0674 0.0524,0.007 0.11358,0.002 0.28056,-0.032 0.16698,-0.0336 0.44006,-0.0956 0.7311,-0.16404 0.29104,-0.0685 0.60018,-0.14348 0.78008,-0.21274 0.1799,-0.0693 0.25003,-0.15716 0.27919,-0.20551 0.02916,-0.0483 0.03668,-0.0815 0.03864,-0.13554 0.002,-0.054 -0.002,-0.13672 -0.03332,-0.19197 -0.03136,-0.0553 -0.09494,-0.0947 -0.14334,-0.1285 -0.0484,-0.0338 -0.08725,-0.0661 -0.11386,-0.11468 -0.02662,-0.0485 -0.04597,-0.12354 -0.05563,-0.17874 -0.0097,-0.0552 -0.01126,-0.0969 -0.0085,-0.23239 0.0027,-0.13552 0.0098,-0.36501 0.02103,-0.71454 0.01124,-0.34952 0.02665,-0.81918 0.04482,-1.0811 0.01817,-0.26195 0.04963,-0.34358 0.07819,-0.37675 0.02856,-0.0332 0.0661,-0.045 0.16168,-0.0647 0.09558,-0.0197 0.25369,-0.0482 0.40089,-0.0603 0.1472,-0.0121 0.28834,-0.008 0.38236,0.0188 0.09403,0.0272 0.15103,0.0873 0.18287,0.13503 0.03184,0.0477 0.04659,0.0917 0.05499,0.18655 0.0084,0.0949 0.01057,0.24157 0.007,0.51203 -0.0036,0.27045 -0.01283,0.66502 -0.03179,0.94195 -0.01895,0.27693 -0.04831,0.44026 -0.08109,0.55318 -0.03278,0.11291 -0.07027,0.18134 -0.11255,0.23938 -0.04228,0.058 -0.09091,0.10759 -0.12339,0.16991 -0.03247,0.0623 -0.05381,0.15515 -0.05345,0.22103 3.57e-4,0.0659 0.01958,0.12189 0.04806,0.15692 0.02848,0.035 0.07848,0.0558 0.12193,0.0646 0.04345,0.009 0.08995,0.009 0.17462,-0.003 0.08467,-0.0126 0.20863,-0.0387 0.53278,-0.11721 0.32415,-0.0785 0.84909,-0.20964 1.1429,-0.29116 0.29384,-0.0815 0.38164,-0.1262 0.41874,-0.16232 0.03711,-0.0361 0.04895,-0.0783 0.04664,-0.12661 -0.0023,-0.0483 -0.021,-0.11393 -0.04538,-0.14646 -0.02438,-0.0325 -0.06741,-0.0455 -0.13808,-0.051 -0.07067,-0.006 -0.18435,-0.007 -0.27259,-0.0316 -0.08824,-0.025 -0.16908,-0.0823 -0.21334,-0.14844 -0.04426,-0.0661 -0.06583,-0.15416 -0.07662,-0.24096 -0.01078,-0.0868 -0.01168,-0.176 -0.006,-0.93845 0.0057,-0.76246 0.01788,-2.1982 0.02466,-3.0104 0.0068,-0.8123 0.0081,-1.0012 0.0189,-1.1204 0.01078,-0.11915 0.03498,-0.17828 0.06737,-0.22329 0.03239,-0.045 0.0767,-0.0849 0.13694,-0.12983 0.06024,-0.045 0.1411,-0.0981 0.20025,-0.13691 0.05915,-0.0388 0.10078,-0.066 0.12339,-0.12164 0.02261,-0.0556 0.02859,-0.16727 0.02001,-0.22286 -0.0086,-0.0556 -0.03223,-0.0828 -0.07823,-0.1002 -0.046,-0.0174 -0.12267,-0.0285 -0.18644,-0.034 -0.06377,-0.006 -0.11936,-0.006 -0.40894,-0.007 -0.28958,-10e-4 -0.81318,-0.002 -1.1103,0.01 -0.2971,0.0122 -0.37446,0.0403 -0.41868,0.0704 -0.04422,0.0301 -0.06526,0.069 -0.07295,0.13353 -0.0077,0.0645 -0.0036,0.1684 0.01569,0.23426 0.0193,0.0659 0.05718,0.10824 0.10232,0.15343 0.04513,0.0452 0.10321,0.099 0.13632,0.14151 0.03311,0.0425 0.04561,0.0779 0.05784,0.15088 0.01223,0.073 0.02471,0.18828 0.02867,0.56643 0.004,0.37815 -8e-5,1.0239 -0.01492,1.3804 -0.01484,0.3565 -0.04227,0.42825 -0.07466,0.46939 -0.03239,0.0411 -0.07689,0.0597 -0.15636,0.0788 -0.07947,0.0191 -0.19943,0.0406 -0.33532,0.0515 -0.13588,0.0109 -0.29048,0.0115 -0.39753,8.9e-4 -0.10705,-0.0106 -0.16974,-0.0337 -0.20527,-0.0631 -0.03553,-0.0294 -0.05056,-0.0737 -0.06171,-0.17667 -0.01114,-0.10293 -0.0204,-0.27244 -0.02334,-0.648 -0.0029,-0.37557 3.26e-4,-0.95926 0.0096,-1.2885 0.0093,-0.32921 0.02497,-0.40584 0.04641,-0.45555 0.02143,-0.0497 0.04992,-0.0762 0.09985,-0.12348 0.04993,-0.0472 0.12184,-0.11564 0.16159,-0.20863 0.03975,-0.093 0.04816,-0.21853 0.03071,-0.29614 -0.01745,-0.0776 -0.07344,-0.12577 -0.12778,-0.14653 -0.05434,-0.0207 -0.12052,-0.0246 -0.2594,-0.0263 -0.13888,-0.002 -0.35134,-0.001 -0.64522,-2.3e-4 -0.29388,0.001 -0.66917,0.003 -0.87872,0.0204 -0.20956,0.0172 -0.26802,0.0606 -0.29351,0.0991 -0.0255,0.0385 -0.03261,0.0857 -0.01912,0.15162 0.01349,0.0659 0.05021,0.16155 0.07506,0.21754 0.02485,0.056 0.04091,0.0798 0.04855,0.0911 0.0076,0.0113 0.0076,0.0119 0.04167,0.0606 z"
             id="path8-5" /><path
             d="m 35.078,155.66 -1.029,-3.9698 0.61973,-0.1637 0.9179,3.2624 0.81852,-0.22217 0.20463,0.66066 z"
             id="path9" /><path
             d="m 37.279,155.07 0.0497,-1.1313 1.4792,-0.38587 0.65773,0.95591 0.64312,-0.22217 -2.2538,-3.6073 -1.0173,0.23386 -0.22802,4.3089 z"
             id="path10" /><path
             d="m 37.396,153.21 1.0465,-0.27771 -0.9179,-1.4704 z"
             id="path11" /><path
             d="m 40.793,154.14 c -0.01169,-0.0789 -0.82728,-3.1513 -0.82728,-3.1513 l 2.3883,2.7683 0.80682,-0.22217 -1.0027,-3.9844 -0.65189,0.16078 0.79513,2.9642 -2.172,-2.6046 -1.0231,0.26601 1.0582,4.0049 z"
             id="path12" /><path
             d="m 45.193,149.84 c 0.02153,0.009 0.06424,0.0269 0.09459,0.0386 0.03035,0.0117 0.0482,0.0172 0.06595,0.0116 0.01775,-0.006 0.03565,-0.0221 0.04876,-0.0428 0.01311,-0.0207 0.02133,-0.0453 0.01931,-0.0962 -0.002,-0.0509 -0.01443,-0.12807 -0.03026,-0.20452 -0.01583,-0.0765 -0.03514,-0.15227 -0.05993,-0.22395 -0.0248,-0.0717 -0.05511,-0.13916 -0.10122,-0.19367 -0.04611,-0.0545 -0.10807,-0.0958 -0.17352,-0.12549 -0.06545,-0.0297 -0.13438,-0.0476 -0.22191,-0.06 -0.08752,-0.0124 -0.19361,-0.0193 -0.30455,-0.0235 -0.11094,-0.004 -0.22669,-0.005 -0.33766,0.004 -0.11097,0.009 -0.21705,0.0283 -0.31908,0.0558 -0.10203,0.0276 -0.19983,0.0634 -0.29287,0.10747 -0.09304,0.0441 -0.18127,0.0965 -0.25435,0.15853 -0.07308,0.062 -0.13098,0.13371 -0.19711,0.215 -0.06613,0.0813 -0.14058,0.17227 -0.19571,0.26603 -0.05513,0.0938 -0.09096,0.19024 -0.12195,0.33497 -0.03099,0.14474 -0.05715,0.33766 -0.0605,0.54852 -0.0033,0.21087 0.01584,0.43687 0.0655,0.66151 0.04966,0.22465 0.12958,0.4465 0.21022,0.6477 0.08063,0.20121 0.16193,0.38171 0.24949,0.52571 0.08756,0.14399 0.18126,0.25147 0.26663,0.33354 0.08537,0.0821 0.16548,0.1411 0.26196,0.19481 0.09648,0.0537 0.21085,0.10331 0.32383,0.13426 0.11298,0.031 0.2246,0.0434 0.34379,0.0495 0.11918,0.006 0.24596,0.006 0.35478,-0.009 0.10881,-0.0152 0.19976,-0.0455 0.29274,-0.0793 0.09298,-0.0338 0.1881,-0.071 0.26177,-0.11368 0.07367,-0.0427 0.12604,-0.0909 0.21216,-0.17017 0.08613,-0.0792 0.20602,-0.18948 0.28316,-0.26731 0.07715,-0.0778 0.11163,-0.12334 0.14467,-0.17703 0.03305,-0.0537 0.06477,-0.11574 0.07768,-0.15925 0.01291,-0.0435 -0.22646,-1.0521 -0.3491,-1.5689 l -0.7028,0.20257 0.34313,1.4056 c -0.11576,0.0758 -0.23145,0.15155 -0.34165,0.20735 -0.1102,0.0558 -0.21493,0.0916 -0.30583,0.11023 -0.0909,0.0186 -0.16806,0.0199 -0.24522,0.0117 -0.07715,-0.008 -0.15432,-0.0262 -0.22734,-0.0557 -0.07302,-0.0296 -0.14193,-0.0709 -0.21152,-0.11636 -0.06959,-0.0455 -0.13992,-0.0951 -0.19853,-0.15363 -0.05861,-0.0585 -0.10543,-0.126 -0.15714,-0.22315 -0.05171,-0.0971 -0.10821,-0.22394 -0.15578,-0.35416 -0.04757,-0.13022 -0.08616,-0.2639 -0.1156,-0.39084 -0.02944,-0.12694 -0.05052,-0.25204 -0.05607,-0.38505 -0.0055,-0.13301 0.0041,-0.27632 0.02128,-0.40174 0.0172,-0.12542 0.04201,-0.23293 0.08198,-0.31845 0.03997,-0.0855 0.0951,-0.14891 0.1523,-0.20267 0.05721,-0.0538 0.11647,-0.0979 0.18612,-0.13785 0.06965,-0.04 0.14956,-0.0758 0.2178,-0.10613 0.06824,-0.0303 0.12468,-0.0551 0.19569,-0.0758 0.07101,-0.0207 0.15645,-0.0372 0.24053,-0.0399 0.08409,-0.003 0.1668,0.008 0.23777,0.0242 0.07097,0.0159 0.13026,0.0366 0.20535,0.0738 0.07509,0.0372 0.16605,0.091 0.21137,0.11776 0.04532,0.0268 0.04532,0.0268 0.06685,0.0358 z"
             id="path13" /><path
             d="m 45.564,148.69 c 0.003,0.006 1.0955,3.9977 1.0955,3.9977 l 2.3192,-0.66145 -0.17363,-0.58705 -1.7074,0.45475 -0.28112,-1.0997 1.7529,-0.46715 -0.1819,-0.63253 -1.7115,0.49197 -0.26045,-1.0087 1.7198,-0.47956 -0.17776,-0.62011 z"
             id="path14" /><path
             d="m 49.387,152.01 -1.0962,-4.1013 0.95591,-0.23971 2.2392,2.7391 -0.81266,-3.0694 0.64896,-0.14324 1.0641,3.9844 -0.8419,0.22801 -2.4614,-2.8414 0.85359,3.277 z"
             id="path15" /><path
             d="m 53.088,151.02 c 0.003,-0.15786 0.0263,-1.1547 0.0263,-1.1547 l 1.4821,-0.43848 0.70451,0.99683 0.59927,-0.27479 -2.2509,-3.5605 -1.0758,0.27186 -0.11109,4.2972 z"
             id="path16" /><path
             d="m 53.129,149.12 1.1372,-0.33032 -0.9793,-1.4295 z"
             id="path17" /><path
             d="m 54.979,146.89 c 0.08159,0.30436 0.24505,0.91413 0.37382,1.3694 0.12877,0.4553 0.22311,0.75699 0.31802,0.96754 0.09491,0.21055 0.19228,0.33249 0.29116,0.42694 0.09888,0.0944 0.20333,0.16526 0.36514,0.2073 0.16181,0.042 0.39547,0.0579 0.59547,0.0531 0.2,-0.005 0.37792,-0.0303 0.53442,-0.0758 0.15649,-0.0455 0.29998,-0.11322 0.4142,-0.18192 0.11422,-0.0687 0.20494,-0.14187 0.27899,-0.22691 0.07405,-0.085 0.13591,-0.18566 0.18085,-0.30015 0.04494,-0.11448 0.07426,-0.24826 0.08635,-0.39213 0.01208,-0.14388 0.0076,-0.30209 -0.0166,-0.47504 -0.02425,-0.17294 -0.06864,-0.36241 -0.18069,-0.80717 -0.11204,-0.44476 -0.29192,-1.1456 -0.4231,-1.5077 -0.13118,-0.36212 -0.25891,-0.39843 -0.35065,-0.39166 -0.09173,0.007 -0.20999,0.0597 -0.24278,0.15171 -0.0328,0.092 -0.01339,0.26234 0.05434,0.56417 0.06773,0.30184 0.18557,0.75079 0.28067,1.1593 0.09509,0.40848 0.16811,0.77996 0.18904,1.0155 0.02093,0.23552 -0.01353,0.35384 -0.11596,0.46443 -0.10243,0.11059 -0.29399,0.23925 -0.50126,0.28086 -0.20727,0.0416 -0.50732,-4.5e-4 -0.66396,-0.0877 -0.15664,-0.0872 -0.24371,-0.24469 -0.38866,-0.72419 -0.14494,-0.47949 -0.35539,-1.2953 -0.49973,-1.7224 -0.14434,-0.42712 -0.27559,-0.49265 -0.36978,-0.48609 -0.09419,0.007 -0.22382,0.0757 -0.26731,0.14692 -0.04348,0.0712 -0.0332,0.17257 -0.0284,0.21995 0.0048,0.0474 0.0048,0.0474 0.0864,0.35177 z"
             id="path18" /><path
             d="m 48.07,155.76 c 0.0061,-0.001 0.01824,-0.004 0.02919,-0.005 0.01094,-0.001 0.02055,-8.1e-4 0.03021,7.9e-4 0.0097,0.002 0.01868,0.004 0.0257,0.008 0.007,0.004 0.01171,0.008 0.01667,0.0146 0.005,0.007 0.0102,0.0153 0.01404,0.0263 0.0038,0.011 0.0065,0.0245 0.0083,0.038 0.0018,0.0135 0.0028,0.0273 0.0031,0.0396 3.19e-4,0.0122 -1.3e-5,0.0228 -0.0032,0.0335 -0.0032,0.0107 -0.0089,0.0211 -0.01491,0.0298 -0.006,0.009 -0.01159,0.015 -0.01854,0.0201 -0.007,0.005 -0.01623,0.01 -0.02865,0.011 -0.01242,0.001 -0.02889,7e-5 -0.04078,-0.002 -0.01189,-0.002 -0.01993,-0.006 -0.02976,-0.0118 -0.0098,-0.006 -0.02241,-0.0146 -0.03144,-0.0224 -0.009,-0.008 -0.01445,-0.0146 -0.01857,-0.0221 -0.0041,-0.008 -0.0068,-0.0159 -0.0084,-0.0254 -0.0015,-0.009 -0.0019,-0.0202 -0.0017,-0.0282 1.36e-4,-0.008 8.43e-4,-0.0138 0.003,-0.0197 0.0022,-0.006 0.0061,-0.0127 0.0098,-0.0187 0.0037,-0.006 0.0069,-0.0109 0.01062,-0.0165 0.0037,-0.006 0.0082,-0.0128 0.01201,-0.0182 0.0038,-0.005 0.007,-0.009 0.01158,-0.0141 0.0045,-0.005 0.01008,-0.0104 0.01281,-0.0132 0.0027,-0.003 0.0028,-0.003 0.0089,-0.004 z"
             id="path19" /><path
             d="m 48.105,155.61 c 0.04504,0.0161 0.18248,0.0652 0.21556,0.13609 0.03308,0.0709 0.0014,0.25379 -0.05635,0.32025 -0.05775,0.0665 -0.18979,0.0973 -0.26897,0.0685 -0.07918,-0.0288 -0.15922,-0.12433 -0.1739,-0.20206 -0.01467,-0.0777 0.03067,-0.17449 0.077,-0.22833 0.04633,-0.0538 0.10714,-0.0838 0.13439,-0.0972 0.02725,-0.0134 0.02724,-0.0134 0.07228,0.003 z"
             id="path20" /><path
             d="m 49.787,153.98 c 0.01378,-0.0103 0.04135,-0.031 0.06895,-0.0222 0.0276,0.009 0.06709,0.0635 0.0684,0.0964 0.0013,0.033 -0.03898,0.0882 -0.06238,0.0881 -0.0234,-7e-5 -0.07247,-0.0463 -0.08499,-0.0727 -0.01252,-0.0264 -0.0079,-0.0541 -0.0059,-0.0667 0.0021,-0.0126 0.0021,-0.0126 0.01587,-0.023 z"
             id="path21" /><path
             d="m 50.379,154.09 c 0.01238,1e-4 0.09202,7.6e-4 0.0944,0.016 0.0024,0.0153 -0.02907,0.0923 -0.04337,0.0896 -0.0143,-0.003 -0.04799,-0.0432 -0.05756,-0.062 -0.0096,-0.0188 -0.0077,-0.0316 -0.0068,-0.0378 9.03e-4,-0.006 9.47e-4,-0.006 0.01333,-0.006 z"
             id="path22" /><path
             d="m 50.425,153.48 c 0.01414,0.004 0.09117,0.029 0.08877,0.0422 -0.0024,0.0132 -0.06697,0.0649 -0.08191,0.0642 -0.01494,-7.1e-4 -0.03413,-0.0846 -0.03306,-0.094 0.0011,-0.009 0.0067,-0.0132 0.0094,-0.015 0.0027,-0.002 0.0027,-0.002 0.01679,0.003 z"
             id="path23" /><path
             d="m 51.067,154.31 c 0.01038,-0.0147 0.0409,-0.0581 0.06571,-0.0616 0.02481,-0.003 0.07908,0.0326 0.08841,0.0575 0.0093,0.0248 -0.01901,0.0876 -0.04241,0.0886 -0.0234,9.9e-4 -0.08812,-0.0453 -0.1051,-0.0575 -0.01699,-0.0122 -0.01699,-0.0122 -0.0066,-0.0269 z"
             id="path24" /><path
             d="m 50.232,154.73 c 0.0054,-10e-4 0.07862,-0.0184 0.08112,-0.004 0.0025,0.0147 -0.0037,0.0631 -0.01326,0.0678 -0.0096,0.005 -0.0565,-0.0451 -0.06487,-0.054 -0.0084,-0.009 -0.0084,-0.009 -0.003,-0.0101 z"
             id="path25" /><path
             d="m 51.92,154.2 c 0.01286,-0.009 0.06287,-0.0431 0.08086,-0.0446 0.01799,-10e-4 0.04432,0.0391 0.03525,0.0574 -0.0091,0.0183 -0.06968,0.0593 -0.08678,0.0552 -0.0171,-0.004 -0.0311,-0.0348 -0.03665,-0.047 -0.0055,-0.0122 -0.0055,-0.0123 0.0073,-0.0211 z"
             id="path26" /><path
             d="m 51.88,154.8 c 0.0093,-0.009 0.04773,-0.047 0.06051,-0.0371 0.01278,0.01 0.03271,0.065 0.03334,0.0852 6.31e-4,0.0201 -0.07287,0.0357 -0.08133,0.0241 -0.0085,-0.0116 -0.01516,-0.0374 -0.01848,-0.0502 -0.0033,-0.0128 -0.0033,-0.0128 0.006,-0.0219 z"
             id="path27" /><path
             d="m 53.822,154.86 c 0.0083,-0.006 0.08158,-0.0634 0.08488,-0.0633 0.0033,3e-5 -0.05852,0.0988 -0.0659,0.0981 -0.0074,-7e-4 -0.01923,-0.0172 -0.02323,-0.0228 -0.004,-0.006 -0.004,-0.006 0.0043,-0.012 z"
             id="path28" /><path
             d="m 54.643,155.63 c 0.01631,-0.027 0.05855,-0.0971 0.08663,-0.11219 0.02808,-0.0151 0.08807,0.0338 0.09626,0.0806 0.0082,0.0469 -0.0046,0.13577 -0.03093,0.17052 -0.02638,0.0348 -0.10692,0.0377 -0.12999,0.0143 -0.02307,-0.0234 -0.03087,-0.0761 -0.03457,-0.10118 -0.0037,-0.025 -0.0037,-0.0251 0.01261,-0.0521 z"
             id="path29" /><path
             d="m 54.429,154.61 c 0.01344,-0.0219 0.04529,-0.0738 0.06795,-0.0838 0.02266,-0.01 0.07978,0.0448 0.07484,0.0765 -0.0049,0.0317 -0.07097,0.10616 -0.09329,0.11212 -0.02232,0.006 -0.04799,-0.0502 -0.05547,-0.0665 -0.0075,-0.0164 -0.0075,-0.0164 0.006,-0.0383 z"
             id="path30" /><path
             d="m 54.924,154.53 c 0,0 0.10083,0.0148 0.09747,0.0349 -0.0034,0.0201 -0.01102,0.066 -0.01831,0.08 -0.0073,0.014 -0.06514,-0.051 -0.07244,-0.0672 -0.0073,-0.0162 -0.007,-0.032 -0.0069,-0.0399 1.43e-4,-0.008 1.38e-4,-0.008 1.38e-4,-0.008 z"
             id="path31" /><path
             d="m 55.271,155.25 c 0.01861,-0.0119 0.07587,-0.0484 0.1039,-0.0513 0.02803,-0.003 0.08366,0.0552 0.09186,0.0946 0.0082,0.0394 0.0031,0.0976 -0.01832,0.12536 -0.02139,0.0277 -0.15538,0.0258 -0.17511,-10e-4 -0.01974,-0.0271 -0.02136,-0.0908 -0.02206,-0.11835 -7.03e-4,-0.0275 0.0011,-0.0365 0.0011,-0.0365 0,0 2.9e-5,-5.8e-4 0.01864,-0.0125 z"
             id="path32" /><path
             d="m 55.283,156.35 c -6.09e-4,-7.6e-4 0.04848,0.0605 0.04357,0.0543 -0.0049,-0.006 -0.04297,-0.0536 -0.04357,-0.0543 z"
             id="path33" /><path
             d="m 55.816,156.63 c 0.01365,0.0148 0.06676,0.0726 0.06656,0.0878 -1.95e-4,0.0152 -0.11123,0.0318 -0.11712,0.0179 -0.0059,-0.0139 0.01908,-0.0814 0.02543,-0.0985 0.0063,-0.0171 0.01144,-0.0221 0.01144,-0.0221 0,0 3e-5,8e-5 0.01368,0.0149 z"
             id="path34" /><path
             d="m 47.101,157.69 c 0.02416,-0.009 0.07408,-0.0279 0.12067,-0.0381 0.04658,-0.0102 0.09265,-0.0129 0.1427,-0.005 0.05005,0.008 0.10411,0.0272 0.17522,0.0479 0.07111,0.0207 0.15936,0.0431 0.23613,0.0733 0.07677,0.0302 0.14207,0.0682 0.23214,0.0877 0.09006,0.0195 0.20493,0.0205 0.26512,0.0223 0.06019,0.002 0.06825,0.006 0.0732,0.0157 0.005,0.01 0.01087,0.0328 0.01217,0.0545 0.0013,0.0217 -0.0012,0.0476 -0.004,0.0637 -0.0027,0.0161 -0.0061,0.0244 -0.03639,0.0303 -0.03031,0.006 -0.08844,0.01 -0.13618,0.0144 -0.04774,0.005 -0.08765,0.0111 -0.13096,0.0239 -0.04331,0.0129 -0.0929,0.0328 -0.13816,0.0487 -0.04526,0.0159 -0.08649,0.0278 -0.13405,0.0402 -0.04756,0.0124 -0.10161,0.0253 -0.17759,0.023 -0.07598,-0.002 -0.17392,-0.0198 -0.26381,-0.0408 -0.08989,-0.0209 -0.17174,-0.0453 -0.2246,-0.0797 -0.05286,-0.0343 -0.07672,-0.0787 -0.08965,-0.1247 -0.01293,-0.046 -0.01494,-0.0938 -0.0085,-0.13107 0.0064,-0.0373 0.02227,-0.0657 0.03371,-0.0829 0.01144,-0.0172 0.0201,-0.026 0.02432,-0.0303 0.0042,-0.004 0.0043,-0.004 0.02844,-0.0134 z"
             id="path35" /><path
             d="m 47.949,165.5 c 0.5408,-0.30986 1.6224,-0.92959 2.4195,-1.4246 0.79708,-0.49501 1.3096,-0.86529 1.8027,-1.2473 0.49305,-0.38198 0.96662,-0.77564 1.447,-1.2473 0.48038,-0.47166 0.9676,-1.0212 1.2853,-1.408 0.31766,-0.38685 0.46577,-0.61096 0.61194,-0.87795 0.14616,-0.267 0.29038,-0.57687 0.39951,-0.88186 0.10913,-0.30499 0.18319,-0.60511 0.22607,-0.8224 0.04288,-0.2173 0.05458,-0.35177 0.05361,-0.57296 -9.66e-4,-0.2212 -0.0146,-0.52911 -0.04091,-0.78831 -0.02631,-0.2592 -0.06528,-0.46966 -0.14518,-0.69378 -0.0799,-0.22412 -0.20073,-0.46188 -0.32935,-0.66261 -0.12862,-0.20073 -0.26505,-0.36444 -0.39854,-0.48332 -0.13349,-0.11888 -0.26406,-0.19293 -0.39366,-0.24361 -0.1296,-0.0507 -0.25822,-0.078 -0.59634,-0.0897 -0.33812,-0.0117 -0.88575,-0.008 -1.1868,-0.01 -0.30105,-0.002 -0.35566,-0.01 -0.40226,-0.0286 -0.0466,-0.0189 -0.09514,-0.0565 -0.10043,-0.078 -0.0053,-0.0215 0.04393,-0.0606 0.0831,-0.0713 0.03917,-0.0108 0.09254,-0.0121 0.35265,-0.0189 0.26011,-0.007 0.72725,-0.0191 1.0105,-0.0291 0.28325,-0.01 0.38266,-0.0178 0.52128,-0.0547 0.13863,-0.0368 0.31665,-0.10271 0.50563,-0.19039 0.18898,-0.0877 0.38917,-0.19722 0.50433,-0.27341 0.11516,-0.0762 0.14723,-0.12176 0.16037,-0.16524 0.01315,-0.0435 0.01078,-0.0934 -0.01667,-0.13163 -0.02745,-0.0382 -0.08422,-0.0739 -0.13398,-0.0849 -0.04976,-0.0111 -0.11244,0.002 -0.17001,0.0292 -0.05757,0.0269 -0.13101,0.0728 -0.27329,0.14826 -0.14228,0.0755 -0.35489,0.18159 -0.4892,0.23812 -0.13431,0.0565 -0.19366,0.064 -0.22178,0.0573 -0.02812,-0.007 -0.03195,-0.0758 -0.01462,-0.10064 0.01733,-0.0249 0.05298,-0.0557 0.11958,-0.0937 0.0666,-0.038 0.16505,-0.0837 0.30286,-0.15974 0.13781,-0.0761 0.31608,-0.18308 0.41884,-0.26068 0.10276,-0.0776 0.13338,-0.1318 0.13558,-0.1777 0.0022,-0.0459 -0.02476,-0.10116 -0.07235,-0.15431 -0.04759,-0.0531 -0.12408,-0.11448 -0.18252,-0.13953 -0.05844,-0.0251 -0.11512,-0.0163 -0.15785,0.01 -0.04273,0.026 -0.08629,0.0718 -0.17916,0.15004 -0.09287,0.0782 -0.23517,0.189 -0.33502,0.26458 -0.09985,0.0756 -0.15749,0.11614 -0.24652,0.17063 -0.08903,0.0545 -0.20992,0.12327 -0.29518,0.15734 -0.08526,0.0341 -0.15127,0.0332 -0.16056,0.0215 -0.0093,-0.0117 0.02045,-0.0446 0.05645,-0.0704 0.036,-0.0257 0.08425,-0.0508 0.134,-0.0795 0.04975,-0.0288 0.10206,-0.0619 0.21098,-0.14918 0.10892,-0.0873 0.27576,-0.2296 0.40692,-0.35628 0.13116,-0.12669 0.22667,-0.23779 0.28318,-0.3255 0.05652,-0.0877 0.07404,-0.152 0.06771,-0.21001 -0.0063,-0.058 -0.03799,-0.11221 -0.07336,-0.15116 -0.03537,-0.0389 -0.08482,-0.0719 -0.1269,-0.0782 -0.04208,-0.006 -0.09148,0.006 -0.12521,0.0274 -0.03373,0.0212 -0.05682,0.0568 -0.07514,0.0908 -0.01833,0.0341 -0.03369,0.0694 -0.10376,0.14862 -0.07006,0.0792 -0.19501,0.2025 -0.35359,0.33406 -0.15858,0.13156 -0.35108,0.27166 -0.504,0.37864 -0.15292,0.10698 -0.26633,0.18089 -0.43187,0.26045 -0.16554,0.0796 -0.38327,0.1648 -0.5166,0.2161 -0.13333,0.0513 -0.18247,0.0687 -0.21193,0.072 -0.02946,0.003 -0.05979,-0.0294 -0.04017,-0.0481 0.01961,-0.0187 0.0621,-0.0592 0.10549,-0.0902 0.04339,-0.031 0.0926,-0.0562 0.1179,-0.0761 0.0253,-0.0199 0.04339,-0.0732 0.03119,-0.0962 -0.01221,-0.023 -0.06059,-0.0505 -0.13508,-0.0624 -0.07449,-0.0119 -0.18974,-0.0166 -0.28124,-0.0191 -0.0915,-0.002 -0.15952,-0.003 -0.3123,0.008 -0.15278,0.0111 -0.39073,0.0335 -0.62469,0.0749 -0.23396,0.0414 -0.46392,0.10184 -0.76599,0.23046 -0.30207,0.12862 -0.67625,0.32546 -1.0941,0.60314 -0.4179,0.27769 -0.87953,0.63625 -1.1982,0.87595 -0.31863,0.23971 -0.49428,0.36057 -0.70011,0.60345 -0.20583,0.24287 -0.44185,0.60777 -0.57171,0.81613 -0.12986,0.20836 -0.15388,0.26086 -0.17825,0.32446 -0.02437,0.0636 -0.04933,0.13905 -0.07227,0.22551 -0.02294,0.0865 -0.04419,0.18492 -0.05676,0.3199 -0.01257,0.13498 -0.01647,0.30648 -0.0096,0.43891 0.0069,0.13243 0.02475,0.22671 0.05215,0.27609 0.02739,0.0494 0.10524,0.0612 0.18499,0.0344 0.07975,-0.0268 0.19554,-0.0871 0.28274,-0.12362 0.0872,-0.0365 0.14774,-0.0496 0.22293,-0.0564 0.07519,-0.007 0.16772,-0.008 0.24911,0.007 0.08139,0.0146 0.15167,0.045 0.33638,0.0865 0.18471,0.0416 0.48386,0.0944 0.68038,0.12088 0.19652,0.0265 0.29067,0.0267 0.36335,0.0175 0.07268,-0.009 0.12559,-0.0285 0.17602,-0.0483 0.05043,-0.0198 0.09916,-0.0403 0.18072,-0.0978 0.08155,-0.0575 0.19594,-0.15186 0.28344,-0.24936 0.08751,-0.0975 0.14814,-0.19809 0.20866,-0.34032 0.06052,-0.14223 0.12096,-0.32623 0.16228,-0.46364 0.04132,-0.13741 0.06357,-0.22844 0.07056,-0.34631 0.007,-0.11786 -0.0013,-0.26256 -0.02952,-0.40518 -0.02825,-0.14263 -0.07648,-0.28319 -0.13091,-0.39895 -0.05443,-0.11576 -0.11506,-0.20671 -0.18602,-0.29123 -0.07096,-0.0845 -0.15242,-0.16278 -0.21489,-0.21445 -0.06246,-0.0517 -0.10881,-0.0785 -0.12413,-0.0956 -0.01532,-0.0171 0.03169,-0.0609 0.07012,-0.0621 0.03842,-0.001 0.10142,0.0166 0.16565,0.0477 0.06423,0.0311 0.13655,0.0776 0.21716,0.14943 0.0806,0.0718 0.16948,0.16897 0.24631,0.28334 0.07683,0.11438 0.1416,0.24598 0.18466,0.39171 0.04307,0.14573 0.06444,0.30558 0.06088,0.48637 -0.0036,0.18078 -0.03206,0.38269 -0.03477,0.50227 -0.0027,0.11958 0.02627,0.16677 0.05128,0.20988 0.02501,0.0431 0.05044,0.0894 0.07144,0.13035 0.02099,0.0409 0.03814,0.0777 0.04539,0.14346 0.0073,0.0658 0.0053,0.16195 -0.03738,0.3482 -0.04267,0.18624 -0.12604,0.46254 -0.21941,0.7223 -0.09336,0.25976 -0.19672,0.50299 -0.25528,0.65148 -0.05856,0.14849 -0.07233,0.20222 -0.06908,0.23826 0.0032,0.036 0.0418,0.0709 0.12913,0.0781 0.08733,0.007 0.24759,0.009 0.34824,2.6e-4 0.10065,-0.008 0.14723,-0.0285 0.17413,-0.0702 0.0269,-0.0417 0.044,-0.1099 0.07003,-0.23524 0.02603,-0.12535 0.06122,-0.30883 0.08501,-0.43197 0.02379,-0.12314 0.03625,-0.18626 0.04731,-0.21707 0.01105,-0.0308 0.09823,-0.0177 0.09915,0.018 9.2e-4,0.0357 0.0021,0.10763 0.0025,0.26493 3.34e-4,0.15729 -2e-4,0.40024 0.01016,0.52584 0.01036,0.12561 0.06607,0.14723 0.1426,0.15364 0.07653,0.006 0.19627,0.006 0.26414,-0.008 0.06787,-0.014 0.09323,-0.0584 0.10409,-0.25371 0.01086,-0.1953 0.0148,-0.55482 0.02497,-0.74414 0.01017,-0.18931 0.06485,-0.25313 0.07828,-0.23634 0.01343,0.0168 0.03775,0.0699 0.07366,0.24201 0.03592,0.17214 0.08702,0.47118 0.1266,0.62916 0.03958,0.15798 0.08263,0.18399 0.11742,0.19192 0.03479,0.008 0.07563,0.005 0.09909,-0.0172 0.02347,-0.0223 0.03755,-0.0821 0.04398,-0.18535 0.0064,-0.10321 0.0078,-0.26077 -0.0021,-0.38186 -0.0098,-0.12108 -0.03096,-0.20626 -0.08229,-0.36625 -0.05133,-0.15998 -0.13307,-0.39562 -0.19214,-0.56373 -0.05907,-0.16812 -0.09548,-0.26879 -0.14676,-0.37803 -0.05128,-0.10924 -0.11743,-0.22706 -0.18662,-0.30348 -0.06919,-0.0764 -0.14158,-0.11151 -0.19664,-0.13669 -0.05506,-0.0252 -0.10343,-0.0448 -0.10334,-0.0666 9e-5,-0.0218 0.04655,-0.0685 0.10279,-0.0972 0.05624,-0.0288 0.13618,-0.051 0.22345,-0.0716 0.08727,-0.0206 0.18395,-0.0401 0.29618,-0.0457 0.11224,-0.006 0.24041,0.003 0.34737,0.0128 0.10696,0.01 0.19344,0.0217 0.32661,0.0699 0.13317,0.0482 0.313,0.13296 0.44687,0.21247 0.13387,0.0795 0.22191,0.15389 0.30161,0.23121 0.0797,0.0773 0.15142,0.15796 0.21627,0.24376 0.06485,0.0858 0.12306,0.17699 0.17042,0.276 0.04737,0.099 0.08389,0.2058 0.10433,0.31877 0.02044,0.11297 0.02483,0.23292 0.02118,0.35849 -0.0036,0.12557 -0.0153,0.25828 -0.04916,0.45907 -0.03387,0.20079 -0.08996,0.46988 -0.16418,0.74257 -0.07421,0.27269 -0.16654,0.54899 -0.39495,0.99823 -0.22841,0.44924 -0.5929,1.0714 -0.87505,1.5189 -0.28215,0.44752 -0.48197,0.72038 -0.72244,0.94982 -0.24047,0.22944 -0.52159,0.41548 -0.77118,0.53894 -0.24959,0.12346 -0.46766,0.18434 -0.60447,0.22138 -0.13681,0.037 -0.19616,0.0511 -0.37482,0.0563 -0.17866,0.005 -0.48154,0.002 -0.73522,-0.0379 -0.25367,-0.0404 -0.4584,-0.11855 -0.57685,-0.16396 -0.11845,-0.0454 -0.15174,-0.0585 -0.18894,-0.0847 -0.0372,-0.0263 -0.07992,-0.0663 -0.1282,-0.0908 -0.04828,-0.0245 -0.1042,-0.0339 -0.15589,-0.0381 -0.0517,-0.004 -0.10223,-0.004 -0.12676,0.0525 -0.02453,0.0565 -0.02306,0.16931 -0.02098,0.25193 0.0021,0.0826 0.0048,0.13531 0.03105,0.17679 0.02627,0.0415 0.07846,0.0732 0.14533,0.10159 0.06687,0.0284 0.15219,0.0557 0.20684,0.0806 0.05464,0.0249 0.09265,0.0596 0.07635,0.0756 -0.01631,0.016 -0.07314,0.0285 -0.13546,0.0348 -0.06232,0.006 -0.13365,0.007 -0.19688,0.0274 -0.06323,0.02 -0.12032,0.0605 -0.1615,0.10088 -0.04119,0.0404 -0.07182,0.0862 -0.08559,0.13069 -0.01377,0.0445 -0.01377,0.1019 0.02331,0.12855 0.03708,0.0266 0.11779,0.0353 0.21207,0.0394 0.09428,0.004 0.20683,0.004 0.30614,0.004 0.09931,2.1e-4 0.18566,5.5e-4 0.2036,0.0154 0.01795,0.0148 -0.03498,0.0455 -0.12014,0.0732 -0.08516,0.0277 -0.20699,0.0547 -0.34536,0.0788 -0.13837,0.0241 -0.29432,0.0455 -0.37494,0.0664 -0.08062,0.0209 -0.09375,0.0658 -0.09557,0.11862 -0.0018,0.0528 0.0036,0.12812 0.01761,0.16992 0.01396,0.0418 0.07765,0.067 0.1301,0.0667 0.05246,-3.6e-4 0.12109,-0.0158 0.19994,-0.0225 0.07885,-0.007 0.16927,-0.005 0.20797,0.008 0.0387,0.0128 0.0093,0.0667 -0.0374,0.0958 -0.04667,0.0292 -0.12503,0.0593 -0.19176,0.0926 -0.06673,0.0333 -0.12231,0.07 -0.19402,0.1064 -0.07171,0.0364 -0.16002,0.0726 -0.21742,0.10763 -0.05739,0.0351 -0.09024,0.0763 -0.12112,0.14941 -0.03088,0.0731 -0.06536,0.18496 -0.08563,0.27295 -0.02027,0.088 -0.02641,0.15262 -0.01995,0.18545 0.0065,0.0328 0.07843,0.0379 0.13575,0.0259 0.05732,-0.012 0.13512,-0.0387 0.17402,-0.052 0.0389,-0.0133 0.0389,-0.0103 0.0389,-0.0103 0,0 6.6e-5,-0.001 0.54087,-0.31123 z"
             id="path36" /></g><g
           class="lines"
           transform="translate(-29.295,-129.68)"
           fill="#10158b"
           id="g50"><g
             transform="translate(-0.065531,-0.072223)"
             stroke-width="0"
             id="g41"><path
               d="m 47.275,165.35 0.82312,-0.42457 c 0.1657,-0.0714 0.11344,-0.19198 -0.0606,-0.18341 -0.10208,0.0168 -0.68067,0.11146 -0.646,-0.0829 0.03951,-0.20808 0.6454,-0.18832 0.81246,-0.24301 0.36546,-0.0702 0.15485,-0.2159 -0.13201,-0.20498 -0.97099,0.0727 -0.84379,-0.28917 -0.11139,-0.30485 0.44193,-0.007 0.44457,-0.18389 0.03497,-0.2623 -0.87329,-0.27725 -0.55283,-0.70805 0.03428,-0.44596 0.15014,0.10697 0.32734,0.16898 0.50294,0.22061 0.55878,0.15464 1.1674,0.17874 1.7205,-0.0128 0.66223,-0.22121 1.2285,-0.68466 1.6207,-1.2576 0.49676,-0.70222 0.9897,-1.4181 1.3173,-2.218 0.28574,-0.69657 0.45848,-1.4507 0.42135,-2.2066 -0.03464,-0.38576 -0.26081,-0.72757 -0.54034,-0.98429 -0.33693,-0.3121 -0.78467,-0.50232 -1.2443,-0.51993 -0.22453,-0.008 -0.45452,0.0138 -0.66609,0.0926 -0.07808,0.0384 -0.21697,0.0916 -0.16807,0.20292 0.04458,0.10032 0.1641,0.12025 0.24351,0.18383 0.07515,0.0538 0.10851,0.14439 0.1567,0.21981 0.2771,0.52118 0.37587,1.1035 0.48126,1.6243 0.04506,0.206 -0.11063,0.28312 -0.1718,0.0673 l -0.17229,-0.77943 c -0.05862,-0.0805 -0.17298,-0.011 -0.18419,0.0719 l -0.05397,1.0051 c 0.0011,0.1877 -0.37806,0.19695 -0.38019,0.006 l -0.03059,-0.80849 c -0.02875,-0.0846 -0.15398,-0.0785 -0.19166,-0.004 -0.19247,0.82333 -0.10546,0.47053 -0.19247,0.82333 -0.04928,0.33073 -0.59212,0.19213 -0.48989,-0.1836 l 0.46976,-1.3733 c 0.02213,-0.13251 0.04205,-0.26796 0.03097,-0.4024 -0.02707,-0.14785 -0.1541,-0.26082 -0.15288,-0.41678 -0.0017,-0.21754 0.04584,-0.4335 0.02625,-0.65141 -0.01727,-0.37293 -0.16544,-0.74466 -0.43787,-1.0044 -0.13026,-0.12925 -0.28992,-0.23745 -0.47167,-0.27538 -0.08763,-0.0105 -0.14517,0.0933 -0.10344,0.16707 0.0291,0.0892 0.12816,0.1053 0.18654,0.16581 0.39087,0.36662 0.53869,0.95213 0.41142,1.4674 -0.03448,0.13395 -0.08542,0.26296 -0.13337,0.39251 -0.11805,0.29958 -0.32027,0.58018 -0.60978,0.73284 -0.15665,0.0861 -0.34061,0.10173 -0.51525,0.0793 -0.28501,-0.0333 -0.56526,-0.0958 -0.84498,-0.15831 -0.16626,-0.0313 -0.33408,-0.0729 -0.50443,-0.0649 -0.18146,0.0188 -0.3462,0.1045 -0.5123,0.17247 -0.08639,0.0175 -0.15921,-0.0586 -0.16523,-0.14081 -0.02071,-0.11606 -0.0016,-0.23439 -0.0077,-0.3514 0.0071,-0.37966 0.11195,-0.76315 0.33459,-1.0741 0.2172,-0.32848 0.42728,-0.66742 0.71163,-0.94361 0.17741,-0.17321 0.38392,-0.31232 0.57918,-0.46402 0.31129,-0.23105 0.62086,-0.46458 0.93711,-0.68882 0.55883,-0.38948 1.1578,-0.74609 1.8235,-0.91537 0.44693,-0.11311 0.91235,-0.14408 1.3715,-0.11559 0.09779,0.0126 0.11496,0.14823 -0.02011,0.16148 -0.0799,0.0262 -0.14536,0.16107 -0.033,0.19262 0.12156,0.0341 0.23276,-0.0497 0.34155,-0.0904 0.7604,-0.26984 1.2859,-0.75914 1.8077,-1.2576 0.19828,-0.12863 0.48451,0.15569 -0.03053,0.53917 -0.739,0.58077 -0.47964,0.40483 -0.739,0.58077 -0.0598,0.0693 0.02711,0.16456 0.10611,0.14085 0.09576,-1.4e-4 0.17576,-0.0584 0.25031,-0.11114 l 0.91432,-0.66036 c 0.18036,-0.1208 0.52363,0.18258 0.09157,0.43824 -0.24182,0.15739 -0.51181,0.26953 -0.74037,0.44758 -0.06809,0.0766 0.018,0.18012 0.10149,0.19339 0.09321,0.0262 0.16302,-0.0506 0.24164,-0.0831 0.3696,-0.16995 -0.0625,0.004 0.76424,-0.38051 0.15202,-0.0829 0.28692,0.16838 -0.04483,0.33032 -0.11358,0.0655 -0.22571,0.13355 -0.34534,0.18782 -0.29412,0.14428 -0.61354,0.24602 -0.94282,0.25798 l -1.5282,0.0738 c -0.19114,10e-4 -0.21742,0.28568 0.29941,0.26642 0.59233,0.0301 1.189,-0.0195 1.7782,0.0642 0.19714,0.0323 0.37624,0.13349 0.5224,0.26729 0.27095,0.23819 0.46567,0.55016 0.62121,0.87254 0.18179,0.3935 0.25668,0.82736 0.27614,1.2579 0.03116,0.45907 0.0085,0.92596 -0.1163,1.3708 -0.45362,1.5385 -1.4307,2.5631 -2.4328,3.6066 -0.75644,0.738 -1.5848,1.4009 -2.4634,1.9877 -1.0102,0.6799 -2.3746,1.4223 -3.4307,2.0269 -0.42049,0.25262 -0.60423,-0.0533 -0.40575,-0.20899 z m 1.0247,-9.6966 c -0.2604,-0.25727 -0.65709,0.20295 -0.46101,0.44014 0.29942,0.29346 0.74712,-0.095 0.46101,-0.44014 z"
               id="path37" /><path
               d="m 47.386,158.11 c -0.15785,-0.0236 -0.25704,-0.0777 -0.3083,-0.19808 -0.02926,-0.11921 0.1483,-0.21411 0.34239,-0.19854 0.30684,0.0167 0.71553,0.0955 0.71699,0.24933 -0.0038,0.18858 -0.4771,0.16552 -0.75108,0.14734 z"
               id="path38" /><path
               d="m 48.097,155.92 c -0.0365,-0.007 -0.04886,-0.0534 -0.03592,-0.0845 0.01471,-0.0478 0.08711,-0.0322 0.09008,0.0142 0.0079,0.0341 -0.01737,0.0738 -0.05416,0.0703 z"
               id="path39" /><path
               transform="scale(0.26458)"
               d="m 114.39,570.35 c -0.78097,-4.1839 -1.69,-7.1818 -1.6015,-13.8 0.0145,-1.0858 0.21917,-1.2512 2.1264,-2.3099 12.76,-9.7416 15.387,-23.444 -1.35,-30.839 -2.2146,-0.9861 -2.3715,-1.0829 -2.5292,-1.5609 -0.16216,-0.49132 -0.0951,-0.64851 1.0544,-2.4711 l 8.8246,-20.318 c 0.18508,-0.70544 0.3536,-1.2997 0.37449,-1.3206 0.0209,-0.0209 0.3941,0.0913 0.82937,0.24938 1.1598,0.4211 3.3034,0.92238 5.0533,1.1817 9.2762,1.5444 14.028,-2.0275 19.662,-4.9956 4.947,-2.6087 8.8618,-3.7577 12.804,-3.7577 4.0785,0 9.8131,1.8857 13.555,4.3458 2.4116,1.939 2.3558,1.9245 4.4386,0.23815 3.0474,-1.9046 5.0947,-3.1016 6.6505,-3.6002 10.416,-2.3895 15.641,1.1514 20.741,3.3914 9.5414,4.7741 14.533,5.3576 22.326,4.3566 l 2.6686,-0.33623 c 0.0711,0.13287 0.16015,0.73794 0.75561,2.6569 l 6.7488,16.67 c 1.2812,2.6113 1.5409,3.0009 1.3578,3.443 -0.14121,0.34093 -0.85733,0.74744 -2.774,1.9678 -15.777,12.938 -8.7539,24.611 0.61353,34.669 -9.4468,56.094 -12.036,63.15 -53.925,77.082 -1.5798,0.61517 -5.0198,1.939 -6.3042,3.0266 -2.5575,1.6888 -2.2181,1.679 -4.6162,0.10336 -0.83661,-0.42816 -2.8642,-1.2992 -6.8062,-2.8347 -30.071,-13.882 -37.334,-13.613 -50.678,-65.239 z m 57.653,63.679 c 2.3902,1.5748 2.0056,1.5648 4.1473,0.17715 1.8406,-1.2303 2.5739,-1.6782 5.2264,-2.8199 33.95,-12.8 42.651,-14.153 50.442,-72.044 -7.1621,-7.7441 -7.1478,-7.7517 -9.427,-15.377 -103,26.201 0.11811,-0.0886 -103.78,26.438 1.0707,4.7949 0.78352,3.5207 1.0559,4.7654 10.907,43.803 24.511,46.276 47.316,56.425 1.9784,0.9252 2.7018,1.1417 5.0198,2.4361 z m -49.042,-68.096 c 97.118,-24.893 0,3e-5 97.118,-24.893 0.50388,-0.15917 0.99387,-0.3953 1.1374,-0.54813 0.2692,-0.28655 0.32598,-0.64929 0.59006,-3.7699 0.4963,-6.1484 3.3918,-11.257 8.4634,-14.713 2.1185,-1.4058 2.3883,-1.6189 2.6248,-2.0735 0.35071,-0.67404 0.28503,-0.88541 -1.4056,-4.5233 -1.2533,-2.6969 -1.9794,-4.4881 -3.2016,-7.8988 -0.448,-1.2502 -0.89613,-2.4923 -0.99582,-2.7603 -0.0997,-0.268 -0.33888,-0.61988 -0.53149,-0.78196 -0.33071,-0.27827 -0.39783,-0.29057 -1.2047,-0.22092 -0.46996,0.0406 -1.238,0.1217 -1.7069,0.1803 -0.4689,0.0586 -1.8318,0.10878 -3.0289,0.11153 -2.553,0.006 -3.6423,-0.14903 -7.1582,-1.0178 -3.6471,-0.90121 -5.07,-1.4644 -9.7588,-3.8628 -6.6186,-3.3855 -8.5005,-3.9868 -12.482,-3.9882 -3.5314,-0.001 -5.2444,0.34117 -7.9481,1.589 -2.0538,0.94791 -3.282,1.8039 -5.5252,3.8508 -0.7734,0.70573 -1.5533,1.3592 -1.7332,1.4522 -0.43841,0.22671 -0.67552,0.0979 -2.0422,-1.1098 -2.2812,-2.0157 -3.9686,-3.0816 -6.4219,-4.328 -2.9596,-1.5036 -4.5866,-1.6824 -8.2856,-1.6838 -7.5003,-0.0413 -14.61,4.9516 -19.605,6.9858 -4.1122,1.1077 -8.3296,2.3402 -12.715,1.5612 -2.332,-0.6133 -2.296,-0.27291 -3.4729,2.144 -6.5419,13.867 -4.9114,10.301 -6.5419,13.867 0,0.27139 0.47087,0.62721 2.294,1.7335 1.9692,1.1949 2.7166,1.7857 4.4136,3.4888 8.6542,10.463 5.3918,24.003 -4.4345,32.392 -1.5298,1.2446 -2.001,1.3537 -1.9368,2.3592 -0.005,1.4631 0.1516,5.8278 0.50434,6.672 0.36185,0.86602 0.85632,0.84478 4.9902,-0.21434 z"
               id="path40" /><path
               transform="scale(0.26458)"
               d="m 119.26,561.53 c -0.1124,-1.5835 -0.0924,-1.6151 2.7693,-4.3752 12.474,-12.552 10.997,-29.769 -1.1583,-37.328 -0.56257,-0.3585 -1.1205,-0.72238 -1.2397,-0.80864 l 2.2868,-5.2639 4.1874,-8.4177 c 0,0 0.54259,-0.14659 2.2252,-0.0401 11.454,-0.21204 13.619,-1.9418 24.703,-7.4241 3.317,-1.314 7.0244,-1.5685 10.513,-0.72174 4.406,0.71866 6.8955,3.1977 9.4786,5.3439 2.5282,2.5246 2.7133,2.534 5.4277,0.27417 4.4835,-4.096 8.6762,-6.6333 15.609,-5.2696 3.2433,0.61023 4.2419,0.99087 9.6453,3.6764 6.0312,3.4481 10.434,4.7908 17.884,4.7846 l 3.6627,0.0729 0.27738,0.28413 c 0.1609,0.16481 0.63541,1.1974 1.13,2.4589 1.0264,2.6181 2.3996,5.8697 3.4242,8.108 0.9087,1.9852 0.9296,2.258 0.21313,2.7824 -0.25985,0.19018 -1.0014,0.67758 -1.6479,1.0831 -6.656,5.154 -7.7495,9.1459 -8.8973,16.555 -0.0945,0.82224 -0.232,1.627 -0.30551,1.7883 -0.20451,0.44885 -0.83566,0.68269 -3.7356,1.384 l -88.137,22.439 c -7.9611,1.8602 -7.5142,1.7524 -7.9611,1.8602 -0.0798,-0.6822 -0.27569,-2.2596 -0.35529,-3.2466 z m 17.13,-6.0066 11.51,-2.8426 c 1.4941,-0.36899 1.9577,-0.86649 1.9414,-1.6387 -0.007,-0.33561 -0.0937,-0.63756 -0.23904,-0.83264 -0.21791,-0.29255 -0.28524,-0.3091 -1.5232,-0.37447 -2.9432,0.0915 -2.4054,0.29305 -2.4185,-27.102 0.0279,-8.6544 0.0755,-8.9314 0.11459,-9.1267 0.0625,-0.31265 0.11644,-0.35516 0.45034,-0.35516 3.0641,1.2116 3.6737,5.2185 3.911,8.3678 0,0.0954 0.039,0.47771 0.22172,0.66042 0.45832,0.45832 1.9902,0.46888 2.3932,-0.24247 l 0.11274,-0.19903 v -12.073 l -21.968,-0.151 0.0804,6.9611 c -0.0152,7.2376 0.0975,6.9747 0.27257,7.1135 0.39315,0.31161 2.3367,0.22581 2.3554,-0.4708 0.44643,-3.4813 1.3039,-8.7972 4.4946,-10.054 0.53461,0.26517 0.52055,0.60102 0.53502,9.8334 -0.0857,30.92 0.54878,28.385 -2.3708,29.195 -1.1502,0.37829 -2.3786,0.85272 -2.3786,1.9168 0,0.86338 0.1795,1.4502 0.48063,1.5714 0.30146,0.1213 2.025,-0.15705 2.025,-0.15705 z m 18.657,-4.7813 c 0.55044,-0.13843 1.0694,-0.58397 1.2127,-1.0412 0.0631,-0.2011 0.14914,-0.71086 0.1913,-1.1328 0.0422,-0.42193 0.12453,-0.76715 0.18303,-0.76715 0.0585,0 0.53649,0.28326 1.0622,0.62945 1.8317,1.2062 2.929,1.5445 4.981,1.5354 0.90789,-0.004 1.749,-0.0823 2.4524,-0.22819 3.1691,-0.65739 6.318,-3.2825 7.6269,-6.3583 0.61239,-1.4391 0.80915,-2.4029 0.87533,-4.2876 0.0724,-2.0616 -0.12333,-3.4594 -0.72843,-5.2023 -0.85903,-2.4744 -1.8188,-3.8591 -5.7183,-8.2505 -1.0824,-1.2189 -2.2555,-2.6016 -2.607,-3.0727 -1.133,-1.5188 -2.0535,-3.5174 -2.2837,-4.9588 -0.34299,-2.1471 0.87606,-4.4682 2.7078,-5.1558 0.51347,-0.19273 0.83676,-0.23505 1.5572,-0.20384 1.1198,0.0485 1.7326,0.32321 2.6823,1.2024 0.82229,0.7613 1.4034,1.8785 2.3176,4.456 0.34282,0.96645 0.71844,1.8523 0.83471,1.9686 0.25767,0.25767 0.96876,0.43133 1.4072,0.34365 0.44124,-0.0883 0.73054,-0.49463 0.89945,-1.2634 0.15979,-0.72732 0.21826,-8.2636 0.0683,-8.7996 -0.12183,-0.43545 -0.55232,-0.6797 -1.2156,-0.68971 -0.67585,-0.0102 -0.90873,0.16538 -1.2396,0.93452 -0.39943,0.9285 -0.45208,0.93365 -1.581,0.15441 -1.1683,-0.80642 -2.697,-1.6411 -3.4842,-1.9024 -2.0498,-0.68051 -5.2293,-0.31937 -7.1868,0.81631 -1.2386,0.71862 -3.1234,2.6231 -3.7086,3.7474 -0.86523,1.6622 -1.0434,2.5879 -0.875,4.5458 0.37789,4.3937 0.70374,4.9617 7.2249,12.594 2.6537,3.1058 3.9408,5.1334 4.7032,7.409 0.58884,1.7576 0.57273,3.2451 -0.0554,5.1164 -0.69058,2.0572 -1.4614,3.1134 -2.7248,3.7337 -0.59089,0.29011 -0.80761,0.33409 -1.6465,0.33409 -0.84884,0 -1.0581,-0.0436 -1.7252,-0.35965 -1.3471,-0.6382 -2.0918,-1.5222 -3.2705,-3.8821 -0.30214,-0.60493 -0.68281,-1.538 -0.84594,-2.0734 -0.33672,-1.1053 -0.57785,-1.4273 -1.1489,-1.5344 -0.50546,-0.0948 -1.5689,0.0351 -2.1323,0.26054 -0.85659,0.34274 -0.7924,0.93134 -0.90714,6.7988 -0.0723,3.6984 -0.21975,4.0051 -0.0327,4.2905 0.33114,0.50539 0.94892,0.59044 2.1304,0.29331 z m 30.728,-6.633 c 1.066,-0.20396 2.0029,-0.62875 3.5264,-1.5989 1.501,-0.95576 1.861,-1.0814 2.641,-0.92163 0.77238,0.15822 1.1123,-0.011 1.4706,-0.73213 0.37763,-0.76008 0.24381,-2.1508 0.18771,-5.05 -0.0628,-3.2454 -0.20654,-3.6316 -1.3419,-3.6058 -0.64314,0.0146 -1.04,0.18248 -1.2697,0.5331 -0.0871,0.133 -0.31869,0.95643 -0.51456,1.8298 -0.69782,3.1118 -1.2142,4.3608 -2.1511,5.2031 -1.3082,1.1762 -2.6748,1.4832 -3.6385,0.8173 -0.92599,-0.6398 -1.7458,-2.3364 -2.2254,-4.6054 -0.24253,-1.1474 -0.34653,-7.7445 -0.16992,-10.778 0.28391,-4.877 1.205,-9.7128 2.1302,-11.183 0.43977,-0.69889 1.5462,-1.7426 2.1968,-2.0723 0.67906,-0.34411 1.1158,-0.35915 1.7047,-0.0587 1.1207,0.57174 1.8256,1.79 2.4321,4.203 0.33313,1.3256 0.4299,1.5667 0.73992,1.8437 0.62732,0.56051 1.5797,0.34801 2.2011,-0.49116 0.43908,-0.59293 0.57792,-1.4217 0.63718,-4.603 0.0282,-1.5163 0.0528,-3.3004 -0.61458,-3.617 -0.58645,-0.27829 -0.91662,-0.1539 -1.6641,0.6269 -0.35522,0.37107 -0.67848,0.67467 -0.71837,0.67467 -0.0399,0 -0.39515,-0.23023 -0.78948,-0.51162 -1.341,-0.95689 -2.4811,-1.3103 -4.2032,-1.3028 -1.8042,0.008 -3.2227,0.40871 -4.4613,1.2609 -1.6393,1.1278 -3.0436,2.682 -3.8892,4.304 -1.1196,2.1478 -2.4007,7.0465 -2.7458,10.499 -0.20015,2.0028 -0.0795,6.5625 0.21978,8.3099 0.72833,4.2517 2.0348,7.2166 4.1838,9.4947 0.79701,0.84487 1.7202,1.3935 2.6505,1.5752 0.81997,0.16013 2.5214,0.13867 3.4753,-0.0438 z m 13.913,-3.8793 c 3.8401,-0.90549 4.5213,-1.2032 4.7877,-2.0922 0.1984,-0.6622 0.001,-1.2046 -0.62888,-1.7314 -0.42375,-0.35421 -0.52103,-0.51163 -0.58668,-0.94943 -0.0916,-0.61112 0.14785,-7.5941 0.28539,-8.3211 0.0512,-0.27069 0.14295,-0.542 0.20388,-0.60293 0.1805,-0.1805 2.1994,-0.46457 2.8145,-0.39601 0.44377,0.0495 0.63673,0.13921 0.8808,0.40965 l 0.31254,0.3463 -0.003,2.1292 c -0.005,3.823 -0.25659,5.784 -0.84307,6.5616 -0.59923,0.79444 -0.80766,1.6753 -0.52251,2.2081 0.17757,0.33179 0.73983,0.50125 1.4001,0.42197 0.64751,-0.0778 4.9792,-1.1297 6.6167,-1.6068 1.558,-0.45397 1.8652,-0.75229 1.6346,-1.5874 -0.13169,-0.47696 -0.33194,-0.58522 -1.2738,-0.68863 -0.50313,-0.0553 -0.74866,-0.15016 -1.0229,-0.39539 l -0.36081,-0.3227 0.007,-9.9251 c 0.008,-11.26 -0.0664,-10.409 0.96891,-11.115 1.0343,-0.70456 1.1268,-0.82888 1.1268,-1.5152 0,-1.0681 0.10205,-1.0401 -3.9417,-1.0805 -4.345,-0.0434 -4.8383,0.0409 -5.0914,0.8698 -0.17534,0.57435 0.0457,1.2676 0.58952,1.849 0.50759,0.54266 0.51854,0.57063 0.6279,1.6049 0.11924,1.1278 0.0273,7.1356 -0.1196,7.8148 -0.12758,0.58993 -0.49309,0.71922 -2.1797,0.771 -1.1374,0.0349 -1.466,0.01 -1.648,-0.12712 -0.21854,-0.16415 -0.22869,-0.32545 -0.26327,-4.1862 -0.0443,-4.9457 -0.0311,-5.0795 0.56673,-5.7281 0.79507,-0.86255 0.95481,-2.0083 0.35804,-2.5681 l -0.28285,-0.26534 -3.6557,0.003 c -3.1513,0.003 -3.7139,0.0292 -4.0778,0.1914 -0.28998,0.12923 -0.44677,0.28622 -0.50079,0.50144 -0.0945,0.3765 0.11404,1.2202 0.41784,1.6906 1.1488,1.7785 1.3047,3.4751 1.1963,13.013 -0.0803,7.0624 -0.17884,9.6615 -0.42227,11.135 -0.12945,0.78387 -0.18315,0.89201 -0.7482,1.5066 -0.69617,0.75726 -0.82773,1.035 -0.82773,1.7473 0,0.39622 0.0653,0.57446 0.29411,0.80331 0.27307,0.27307 0.34423,0.28888 0.99445,0.22107 0.38519,-0.0402 1.6976,-0.30821 2.9166,-0.59563 z"
               id="path41" /></g><g
             class="lines"
             transform="rotate(-14.39,-1.2553,-7.5609)"
             fill="#10158b"
             aria-label="LANGENAU"
             id="g49"><path
               d="m -5.1528,158.5 v 0.448 h -2.224 v -3.696 h 0.51733 v 3.248 z"
               id="path42" /><path
               d="m -2.2402,158.95 q -0.090667,-0.24 -0.17067,-0.46933 -0.08,-0.23467 -0.16533,-0.47467 h -1.6747 l -0.336,0.944 h -0.53867 q 0.21333,-0.58666 0.4,-1.0827 0.18667,-0.50134 0.36267,-0.94934 0.18133,-0.448 0.35733,-0.85333 0.176,-0.41067 0.368,-0.81067 h 0.47467 q 0.192,0.4 0.368,0.81067 0.176,0.40533 0.352,0.85333 0.18133,0.448 0.368,0.94934 0.18667,0.496 0.4,1.0827 z m -0.48533,-1.3707 q -0.17067,-0.464 -0.34133,-0.896 -0.16533,-0.43734 -0.34667,-0.83734 -0.18667,0.4 -0.35733,0.83734 -0.16533,0.432 -0.33067,0.896 z"
               id="path43" /><path
               d="m 1.1098,158.95 c -2.0267,-2.8853 0,0 -2.0267,-2.8853 v 2.8853 h -0.50667 v -3.696 h 0.41067 l 2.048,2.736 v -2.736 h 0.50667 v 3.696 z"
               id="path44" /><path
               d="m 4.4651,157.13 h 0.51733 v 1.728 q -0.064,0.0213 -0.18667,0.048 -0.11733,0.0267 -0.27733,0.0533 -0.15467,0.0267 -0.34133,0.0427 -0.18667,0.0213 -0.37867,0.0213 -0.38933,0 -0.70933,-0.128 -0.32,-0.128 -0.54933,-0.37333 -0.22933,-0.24534 -0.35733,-0.60267 -0.12267,-0.35733 -0.12267,-0.82133 0,-0.464 0.13867,-0.82134 0.144,-0.36266 0.384,-0.608 0.24,-0.24533 0.56,-0.37333 0.32533,-0.128 0.69333,-0.128 0.25067,0 0.44267,0.032 0.19733,0.032 0.336,0.0747 0.13867,0.0427 0.224,0.0853 0.090667,0.0427 0.12267,0.064 l -0.16533,0.432 q -0.15467,-0.10133 -0.41067,-0.16533 -0.256,-0.0693 -0.52267,-0.0693 -0.28267,0 -0.51733,0.10134 -0.22933,0.10133 -0.39467,0.29333 -0.16,0.192 -0.25067,0.46933 -0.090667,0.272 -0.090667,0.61334 0,0.33066 0.074667,0.60266 0.08,0.272 0.23467,0.46934 0.16,0.192 0.38933,0.29866 0.23467,0.10667 0.54933,0.10667 0.224,0 0.37867,-0.0213 0.16,-0.0267 0.22933,-0.048 z"
               id="path45" /><path
               d="m 5.5431,158.95 v -3.696 h 2.256 v 0.44267 H 6.0604 v 1.0987 h 1.5467 v 0.432 H 6.0604 v 1.28 h 1.872 v 0.44266 z"
               id="path46" /><path
               d="M 10.872,158.95 Q 10.75467,158.75267 10.6,158.50734 10.45067,158.262 10.27467,158.00067 10.09867,157.734 9.90667,157.462 9.72,157.19 9.53334,156.93934 q -0.18667,-0.256 -0.36267,-0.48 -0.176,-0.224 -0.32533,-0.39467 v 2.8853 H 8.33867 v -3.696 h 0.41067 q 0.25067,0.26667 0.53333,0.624 0.288,0.352 0.56533,0.73067 0.28267,0.37333 0.528,0.736 0.25067,0.36267 0.42133,0.64533 v -2.736 H 11.304 v 3.696 z"
               id="path47" /><path
               d="m 14.44,158.95 q -0.09067,-0.24 -0.17067,-0.46933 -0.08,-0.23467 -0.16533,-0.47467 h -1.6747 l -0.336,0.944 h -0.53867 q 0.21333,-0.58666 0.4,-1.0827 0.18667,-0.50134 0.36267,-0.94934 0.18133,-0.448 0.35733,-0.85333 0.176,-0.41067 0.368,-0.81067 h 0.47467 q 0.192,0.4 0.368,0.81067 0.176,0.40533 0.352,0.85333 0.18133,0.448 0.368,0.94934 0.18667,0.496 0.4,1.0827 z m -0.48533,-1.3707 q -0.17067,-0.464 -0.34133,-0.896 -0.16533,-0.43734 -0.34667,-0.83734 -0.18667,0.4 -0.35733,0.83734 -0.16533,0.432 -0.33067,0.896 z"
               id="path48" /><path
               d="m 16.58,159.03 q -0.36267,0 -0.62933,-0.112 -0.26667,-0.112 -0.43733,-0.304 -0.17067,-0.19733 -0.256,-0.464 -0.08,-0.26666 -0.08,-0.576 v -2.32 h 0.51733 v 2.2613 q 0,0.55466 0.24533,0.80533 0.24533,0.25067 0.64,0.25067 0.19733,0 0.35733,-0.0587 0.16533,-0.064 0.28267,-0.192 0.11734,-0.128 0.18133,-0.32533 0.064,-0.20267 0.064,-0.48 v -2.2613 h 0.51733 v 2.32 q 0,0.30934 -0.08533,0.576 -0.08,0.26667 -0.256,0.464 -0.17067,0.192 -0.43733,0.304 -0.26133,0.112 -0.624,0.112 z"
               id="path49" /></g></g></g></g></g><style
     id="style1">@media(prefers-color-scheme:dark){.lines{fill:#d7d7d7}}</style></svg>
