<?xml version="1.0" encoding="UTF-8" standalone="no"?>
<!-- Created with Inkscape (http://www.inkscape.org/) -->

<svg
   width="234.95908mm"
   height="99.932297mm"
   viewBox="0 0 234.95908 99.932297"
   version="1.1"
   id="svg1"
   xml:space="preserve"
   inkscape:version="1.4.4 (dcaf3e7, 2026-05-05)"
   sodipodi:docname="logos teams.svg"
   inkscape:export-batch-name="logos teams"
   inkscape:export-batch-path="Desktop/3 LIGA"
   xmlns:inkscape="http://www.inkscape.org/namespaces/inkscape"
   xmlns:sodipodi="http://sodipodi.sourceforge.net/DTD/sodipodi-0.dtd"
   xmlns="http://www.w3.org/2000/svg"
   xmlns:svg="http://www.w3.org/2000/svg"><sodipodi:namedview
     id="namedview1"
     pagecolor="#ffffff"
     bordercolor="#000000"
     borderopacity="0.25"
     inkscape:showpageshadow="2"
     inkscape:pageopacity="0.0"
     inkscape:pagecheckerboard="0"
     inkscape:deskcolor="#d1d1d1"
     inkscape:document-units="mm"
     inkscape:zoom="0.037190382"
     inkscape:cx="-4006.4122"
     inkscape:cy="-8779.1516"
     inkscape:window-width="1920"
     inkscape:window-height="1050"
     inkscape:window-x="0"
     inkscape:window-y="30"
     inkscape:window-maximized="0"
     inkscape:current-layer="layer1"><inkscape:page
       x="0"
       y="0"
       width="234.95908"
       height="99.932297"
       id="page1"
       margin="0"
       bleed="0" /></sodipodi:namedview><defs
     id="defs1"><style
       id="style1-7">
      .cls-1 {
        fill: #fff;
      }
    </style></defs><g
     inkscape:label="Ebene 1"
     inkscape:groupmode="layer"
     id="layer1"
     transform="translate(279.62345,1369.7876)"><path
       style="fill:#000000"
       d="m -211.08775,-1277.3298 4.6e-4,-7.4744 h 1.5875 1.5875 v 6.6145 6.6146 h 1.17143 1.17142 l 0.54837,-0.6971 0.54837,-0.6972 v -5.9174 -5.9174 h 1.5875 1.5875 v 6.6145 6.6146 h 1.02902 1.02902 l 0.55858,-0.463 0.55858,-0.463 0.066,-6.0854 0.066,-6.0855 1.65364,-0.079 1.65365,-0.079 v 5.2523 5.2524 l -0.67022,1.3449 -0.67022,1.345 -1.09263,0.7575 -1.09264,0.7575 -3.13245,0.1323 c -1.72285,0.073 -3.16199,0.07 -3.19809,-0.01 -0.0361,-0.076 -1.52435,-0.076 -3.30724,0 l -3.24161,0.1383 z m 23.1294,7.3643 c -0.0606,-0.061 -0.11019,-3.4242 -0.11019,-7.4745 v -7.3642 h 4.10105 4.10104 v 0.926 0.926 h -2.51354 -2.51355 v 2.3813 2.3812 h 1.73656 1.73655 l -0.0829,0.8599 -0.0829,0.8599 -1.65365,0.079 -1.65365,0.079 v 2.3686 2.3686 h 2.53031 2.5303 l -0.0829,0.8103 -0.0829,0.8102 -3.92472,0.05 c -2.15859,0.027 -3.97429,0 -4.03489,-0.061 z m 13.74231,-0.1583 c -0.0567,-0.1477 -0.0713,-3.4815 -0.0325,-7.4084 l 0.0706,-7.1398 1.65364,-0.079 1.65365,-0.079 v 6.6272 6.6272 h 2.38125 2.38125 v 0.8599 0.8599 h -4.00244 -4.00243 z m 11.39313,0.1583 c -0.0606,-0.061 -0.11021,-0.4342 -0.11021,-0.8302 v -0.7199 l 3.175,-5.5831 c 1.74625,-3.0706 3.175,-5.6438 3.175,-5.7182 0,-0.074 -1.42875,-0.1353 -3.175,-0.1353 h -3.175 v -0.9318 -0.9319 l 4.96094,0.072 4.96093,0.072 0.0815,0.7044 0.0815,0.7044 -3.29972,5.7779 -3.29973,5.7779 3.30056,0.074 3.30055,0.074 -0.0823,0.7998 -0.0823,0.7998 -4.85073,0.052 c -2.6679,0.029 -4.90032,0 -4.96093,-0.058 z m 15.61009,0 c -0.0604,-0.061 -0.10988,-3.4299 -0.10988,-7.4871 v -7.3769 l 1.6126,0.079 1.6126,0.079 0.041,3.175 0.0411,3.175 h 1.5455 1.54549 l 0.042,-3.175 0.042,-3.175 1.65779,-0.079 1.65778,-0.079 -0.0703,7.4542 -0.0703,7.4543 -1.5875,-6e-4 -1.5875,-5e-4 v -3.2079 -3.208 l -1.6673,3e-4 -1.6673,3e-4 0.0442,3.2053 0.0442,3.2053 -1.50817,0.036 c -0.8295,0.02 -1.55763,-0.014 -1.61807,-0.074 z m 30.05244,-7.3643 1.8e-4,-7.4744 h 1.59162 1.59162 l -0.0703,7.4384 -0.0703,7.4385 -1.52153,0.036 -1.52154,0.036 z m 9.64472,7.3736 c -0.0658,-0.066 -0.11954,-3.4335 -0.11954,-7.4838 v -7.3642 h 0.33454 c 0.18401,0 1.87893,1.5478 3.7665,3.4395 1.88757,1.8918 3.561648,3.4396 3.720171,3.4396 0.158522,0 1.804597,-1.5478 3.657943,-3.4396 l 3.36972,-3.4395 h 0.777645 0.777645 v 7.4083 7.4083 h -1.5875 -1.5875 v -4.2333 c 0,-2.3283 -0.08726,-4.2333 -0.19392,-4.2333 -0.106656,0 -1.416343,1.2182 -2.910416,2.7072 l -2.716498,2.7073 -2.77131,-2.7619 -2.77131,-2.7619 -0.073,4.3312 -0.073,4.3313 -0.74035,0.032 c -0.4072,0.018 -0.79415,-0.022 -0.8599,-0.087 z m -23.66746,-7.4397 v -7.4083 h 4.10104 4.10104 v 0.926 0.926 h -2.51354 -2.51354 v 2.3813 2.3812 h 1.73655 1.73656 l -0.0829,0.8599 -0.0829,0.8599 -1.65364,0.079 -1.65365,0.079 v 2.3686 2.3686 h 2.51354 2.51354 v 0.7938 0.7937 h -4.10104 -4.10104 z m -119.85625,-36.5125 v -20.9021 h -14.29204 -14.29204 l 0.0707,-6.6807 0.0707,-6.6808 15.67657,-0.068 c 8.6221,-0.037 15.67232,-0.1566 15.66713,-0.2646 -0.005,-0.108 -0.18191,-0.9107 -0.39274,-1.7838 -0.45612,-1.889 -0.49844,-4.469 -0.10879,-6.6322 l 0.2828,-1.5699 1.0776,-2.249 1.0776,-2.2489 2.04295,-2.0464 2.04295,-2.0463 1.96377,-0.9326 c 1.08008,-0.5129 2.85256,-1.1219 3.93885,-1.3532 l 1.97506,-0.4207 2.16935,0.1446 2.16934,0.1446 1.92573,0.6697 1.92572,0.6697 1.80211,1.2314 c 4.01037,2.7401 6.32887,6.761 6.92463,12.009 l 0.1652,1.4552 -0.39198,2.1166 c -0.21558,1.1642 -0.4713,2.3846 -0.56825,2.712 l -0.17627,0.5953 h 15.77356 15.77357 v 6.6123 6.6123 l -14.35365,0.069 -14.35364,0.068 -0.0677,20.8359 -0.0677,20.836 h -7.8036 -7.80361 v -22.4896 -22.4896 h -2.11667 -2.11666 v 22.4896 22.4896 h -7.80521 -7.80521 z m 23.39799,-25.9017 c 0.9918,-0.459 2.08491,-1.0562 2.42913,-1.3269 l 0.62586,-0.4923 -0.32805,-0.2682 c -0.8629,-0.7055 -3.76496,-1.958 -5.01541,-2.1648 -0.76893,-0.1271 -1.59306,-0.3077 -1.83139,-0.4013 l -0.43333,-0.1703 -0.16198,-0.8099 c -0.38515,-1.9257 -0.0256,-3.7847 0.79284,-4.0987 l 0.4336,-0.1664 0.24497,0.4377 0.24498,0.4378 h 0.7995 c 0.43973,0 0.97304,-0.1735 1.18514,-0.3856 0.36779,-0.3678 0.56842,-0.3644 1.62709,0.028 0.60404,0.2239 1.60564,0.1381 2.51018,-0.215 0.86873,-0.3391 0.71439,-0.7504 -0.28157,-0.7504 h -0.71671 l -1.01905,-0.6925 -1.01906,-0.6925 0.36232,-0.2295 0.36233,-0.2295 h -0.43063 c -0.23684,0 -0.58688,-0.1923 -0.77785,-0.4224 l -0.34723,-0.4184 1.43931,0.057 1.43931,0.057 0.73446,-0.346 c 1.05775,-0.4982 0.75322,-0.8852 -0.88176,-1.1205 -0.78454,-0.1129 -1.54265,-0.3215 -1.68468,-0.4635 -0.14202,-0.142 -0.47254,-0.2582 -0.73448,-0.2582 -0.26193,0 -0.47625,-0.1191 -0.47625,-0.2646 0,-0.1455 0.24596,-0.2646 0.54656,-0.2646 0.60619,0 1.50271,-0.424 2.04657,-0.9678 l 0.35509,-0.3551 h -0.54807 c -0.30143,0 -0.54806,0.1321 -0.54806,0.2935 v 0.2935 l -0.99219,-0.1672 c -0.5457,-0.092 -1.21344,-0.19 -1.48385,-0.2179 -0.27042,-0.028 -0.91876,-0.4419 -1.44077,-0.9201 l -0.9491,-0.8693 h 0.3616 c 0.19888,0 0.54957,0.1626 0.77931,0.3613 0.22974,0.1988 0.71961,0.4328 1.08861,0.52 l 0.67091,0.1586 v -0.5028 -0.5028 l -1.06778,-0.2831 c -1.14843,-0.3044 -2.45037,-1.2349 -2.14921,-1.5361 0.10128,-0.1013 0.26698,-0.058 0.36821,0.096 0.29489,0.4481 1.88312,0.8955 3.17926,0.8955 h 1.19646 l 0.48385,-0.4378 c 0.63405,-0.5739 0.61035,-0.7434 -0.11146,-0.7971 -0.32742,-0.024 -0.9525,-0.1112 -1.38906,-0.1931 l -0.79375,-0.1489 0.85989,0.2976 c 0.96779,0.3349 1.14125,0.7502 0.31334,0.7502 -0.7423,0 -1.62089,-0.4976 -1.42845,-0.8089 0.0861,-0.1393 -0.0297,-0.3246 -0.25718,-0.4119 -0.7251,-0.2783 -0.44548,-0.5784 0.53886,-0.5784 0.52387,0 1.07904,-0.1265 1.23371,-0.2812 l 0.28121,-0.2812 -0.72177,-0.2744 c -0.93797,-0.3566 -0.9648,-0.3513 -0.77128,0.153 l 0.16401,0.4274 -0.63534,-0.1982 c -1.31625,-0.4105 -1.72537,-0.6135 -2.06767,-1.026 l -0.35225,-0.4244 h 0.28137 c 0.15475,0 0.35495,0.1191 0.44488,0.2646 0.24658,0.399 0.85683,0.3187 1.45219,-0.1911 0.75524,-0.6467 0.67371,-0.7968 -0.54435,-1.0026 l -1.07654,-0.1819 0.14747,-0.3843 c 0.0811,-0.2113 0.0595,-0.3325 -0.0479,-0.2693 -0.10748,0.063 -0.48348,0.01 -0.83557,-0.1266 l -0.64017,-0.2416 0.30023,-0.3002 0.30023,-0.3002 -0.45382,-0.3698 -0.45381,-0.3698 0.31586,-0.1328 0.31587,-0.1328 -0.17023,-0.4459 c -0.0936,-0.2452 -0.29191,-0.5769 -0.44063,-0.7369 l -0.2704,-0.291 -0.3562,0.3562 c -0.19592,0.1959 -0.3892,0.6656 -0.42952,1.0438 -0.0403,0.3781 -0.18107,0.7655 -0.31278,0.8608 -0.13171,0.095 -0.23947,0.3507 -0.23947,0.5676 v 0.3942 l -0.77934,0.135 -0.77935,0.135 0.76555,0.3488 0.76554,0.3488 -0.38307,0.2424 c -0.2107,0.1333 -0.8891,0.2442 -1.50756,0.2464 h -1.12448 v 0.2562 c 0,0.1408 0.32742,0.4298 0.7276,0.642 l 0.72761,0.386 -0.92604,0.4059 c -1.16147,0.5091 -0.49085,0.5311 0.91591,0.03 1.05376,-0.3753 1.50981,-0.3265 1.05082,0.1124 -0.2038,0.1949 -2.85282,1.078 -3.23369,1.078 -0.0619,0 -0.044,-0.1786 0.0397,-0.3969 l 0.1523,-0.3969 h -0.40419 c -0.2223,0 -0.34598,0.094 -0.27484,0.2093 l 0.12935,0.2093 -0.97363,-0.086 -0.97363,-0.087 1.03943,0.5387 c 0.57169,0.2963 1.2563,0.5387 1.52136,0.5387 0.91933,0 0.47643,0.5238 -0.58664,0.6938 l -1.06857,0.1709 0.10527,0.2953 0.10528,0.2952 0.69871,-0.05 0.6987,-0.05 v 0.2791 0.2791 l 0.50938,-0.1332 0.50937,-0.1332 -0.12705,0.3311 c -0.14089,0.3671 -1.24061,0.9319 -1.81457,0.9319 -0.20285,0 -0.44535,0.1239 -0.53889,0.2752 l -0.17007,0.2752 0.74977,-0.1769 c 0.41237,-0.097 1.14299,-0.4133 1.62359,-0.7022 0.48059,-0.289 0.94394,-0.4552 1.02966,-0.3695 0.22964,0.2296 -1.03351,1.2083 -1.57275,1.2186 -0.25466,0 -0.46302,0.1024 -0.46302,0.2167 0,0.1143 -0.20836,0.2245 -0.46302,0.2449 -0.25466,0.02 -0.70115,0.076 -0.99219,0.1228 l -0.52916,0.086 0.0367,-0.4631 c 0.0202,-0.2546 -0.0691,-0.463 -0.19843,-0.463 -0.12936,0 -0.23519,0.1786 -0.23519,0.3969 0,0.2183 -0.12609,0.3969 -0.2802,0.3969 -0.15411,0 -0.20661,-0.1191 -0.11667,-0.2646 l 0.16352,-0.2646 h -0.67708 c -1.23248,0 -0.65198,0.866 0.77814,1.1609 0.43656,0.09 1.38906,0.1867 2.11667,0.215 l 1.32291,0.051 -0.72906,0.264 -0.72906,0.264 0.14451,0.4553 0.14451,0.4553 -0.32601,0.2015 c -0.1793,0.1108 -1.13664,0.1864 -2.12743,0.1681 l -1.80142,-0.034 v 0.2511 c 0,0.1381 0.22752,0.4786 0.50559,0.7567 l 0.50558,0.5055 1.7224,0.1845 c 0.94732,0.1014 1.8509,0.105 2.00796,0.01 0.43285,-0.2676 0.34162,0.148 -0.15232,0.6938 -0.24084,0.2661 -0.71006,0.4838 -1.04272,0.4838 -0.33266,0 -0.66876,0.1034 -0.74688,0.2298 -0.0781,0.1265 -0.62991,0.3079 -1.22619,0.4032 l -1.08414,0.1734 0.10811,0.3243 c 0.24412,0.7324 4.30783,1.7252 4.84847,1.1846 0.0892,-0.089 0.32908,-0.098 0.53314,-0.02 l 0.371,0.1424 v -0.2929 c 0,-0.1611 0.22821,-0.2929 0.50712,-0.2929 0.27892,0 0.56027,-0.1488 0.62524,-0.3307 0.065,-0.1819 0.20453,-0.2507 0.31015,-0.1529 0.10562,0.098 -0.11738,0.6332 -0.49556,1.1898 -0.37818,0.5565 -0.59712,1.0316 -0.48654,1.0557 0.11058,0.024 0.50958,0.1114 0.88667,0.1938 l 0.68561,0.15 0.0173,1.147 0.0173,1.147 -1.62899,0.3371 c -2.31336,0.4787 -4.01246,1.0927 -4.83218,1.7463 l -0.70764,0.5643 1.16166,0.9423 1.16166,0.9422 1.71979,0.5457 c 0.94589,0.3002 1.89839,0.6109 2.11667,0.6906 0.21828,0.08 1.65404,0.102 3.19059,0.05 l 2.79371,-0.095 z m -5.67091,0.1 c 0,-0.2154 0.11766,-0.3918 0.26147,-0.3918 0.1438,0 0.244,-0.2083 0.22266,-0.463 -0.0213,-0.2546 -0.0199,-0.6841 0.003,-0.9543 l 0.0419,-0.4914 0.39688,0.1523 c 0.44476,0.1707 0.50293,-0.048 0.15782,-0.5926 l -0.23095,-0.3646 -0.29417,0.1818 c -0.16179,0.1 -0.29416,0.4517 -0.29416,0.7815 v 0.5998 l -0.66042,0.6204 c -0.73723,0.6926 -1.23966,0.5309 -0.60848,-0.1958 0.43461,-0.5004 0.83694,-2.4491 0.50565,-2.4491 -0.11045,0 -0.66851,0.3539 -1.24014,0.7864 -1.9759,1.4951 -2.32863,0.9163 -0.379,-0.6218 l 1.30056,-1.0261 0.0779,-1.6197 0.0779,-1.6198 h 0.39687 0.39688 l 0.0775,1.5741 c 0.0958,1.946 0.21343,2.0887 2.17597,2.6393 l 1.58298,0.4442 1e-4,0.317 9e-5,0.3171 -1.1647,-0.021 -1.1647,-0.021 0.29811,0.4773 0.29811,0.4774 -0.52256,0.395 -0.52257,0.395 0.87883,0.01 0.87883,0.01 -0.0851,-0.7227 -0.0851,-0.7227 0.41454,-0.081 c 0.45148,-0.088 1.83442,0.8813 1.83442,1.2862 v 0.2504 l -0.67189,-0.1686 -0.6719,-0.1686 0.0766,0.332 0.0766,0.332 -0.66146,0.1856 c -0.3638,0.1021 -1.227,0.2621 -1.91823,0.3557 l -1.25677,0.1701 z m -1.90169,-0.043 c 0.191,-0.076 0.4192,-0.067 0.50712,0.021 0.0879,0.088 -0.0683,0.1505 -0.34727,0.139 l -0.50711,-0.021 z m -1.74885,-0.5752 -0.34325,-0.2168 0.4005,-0.3324 c 0.22028,-0.1829 0.52769,-0.29 0.68314,-0.2382 l 0.28264,0.094 -0.33989,0.455 -0.33989,0.4551 z m -1.22539,-0.2719 -0.16597,-0.2686 0.55924,-0.2993 c 0.74784,-0.4002 0.9035,-0.1869 0.27722,0.3798 l -0.50452,0.4566 z m -0.9449,-0.5172 c 0,-0.1924 1.13009,-0.8362 1.46766,-0.8362 0.38081,0 0.0195,0.4899 -0.55407,0.7512 -0.80341,0.3661 -0.91359,0.3763 -0.91359,0.085 z m 11.64167,0.06 c 0,-0.097 0.20836,-0.3383 0.46302,-0.5366 l 0.46302,-0.3605 -0.46302,0.1612 -0.46302,0.1613 v -0.2724 c 0,-0.1498 -0.41672,-0.4099 -0.92604,-0.578 -0.50933,-0.1681 -0.92605,-0.4155 -0.92605,-0.5497 0,-0.1342 -0.0893,-0.23 -0.19843,-0.2127 -0.55699,0.088 -1.12448,-0.061 -1.12448,-0.2959 0,-0.5341 1.24528,-0.2412 3.77031,0.8867 1.19971,0.536 1.2415,0.8228 0.19844,1.3622 -0.43657,0.2258 -0.79375,0.3312 -0.79375,0.2344 z m -12.11975,-0.4065 c 0.062,-0.1964 0.502,-0.555 0.97779,-0.7969 1.19986,-0.6101 1.36597,-0.8593 0.42633,-0.6397 -0.43656,0.1021 -0.97723,0.4223 -1.2015,0.7116 l -0.40774,0.526 -0.45215,-0.1735 c -0.88182,-0.3383 -0.51155,-0.6058 2.39212,-1.7276 l 0.59531,-0.23 v 0.2589 c 0,0.1424 0.29766,0.2589 0.66146,0.2589 h 0.66146 v 0.2929 0.2929 l -0.3937,-0.1511 -0.3937,-0.151 0.063,0.2989 0.063,0.2989 -0.85327,0.1859 c -0.46929,0.1023 -1.16777,0.3921 -1.55216,0.6439 l -0.6989,0.458 z m 4.44683,-0.2248 c 0,-0.1455 0.23813,-0.2645 0.52917,-0.2645 0.29104,0 0.52916,0.119 0.52916,0.2645 0,0.1456 -0.23812,0.2646 -0.52916,0.2646 -0.29104,0 -0.52917,-0.119 -0.52917,-0.2646 z m 3.43958,-2.1166 c 0,-0.1456 0.1786,-0.2646 0.39688,-0.2646 0.21828,0 0.39687,0.119 0.39687,0.2646 0,0.1455 -0.17859,0.2646 -0.39687,0.2646 -0.21828,0 -0.39688,-0.1191 -0.39688,-0.2646 z m -3.43958,-4.2386 c 0,-0.1484 0.27059,-0.714 0.60132,-1.2568 0.33072,-0.5428 0.76884,-1.3167 0.97361,-1.7199 l 0.37229,-0.7329 0.22685,0.2268 0.22684,0.2269 -0.26786,0.7045 c -0.14733,0.3875 -0.20834,0.7046 -0.13558,0.7046 0.20869,0 0.72247,-1.4063 0.70083,-1.9183 -0.0108,-0.2546 0.0921,-0.463 0.22856,-0.463 0.43042,0 0.26931,1.5671 -0.26976,2.6237 -0.51251,1.0046 -1.15972,1.4841 -1.61961,1.1999 l -0.23768,-0.1469 0.15757,0.4106 0.15757,0.4106 h -0.55748 c -0.30661,0 -0.55747,-0.1214 -0.55747,-0.2698 z m 1.71979,-1.3177 c 0.0899,-0.1455 0.10399,-0.2646 0.0312,-0.2646 -0.0728,0 -0.20587,0.1191 -0.29581,0.2646 -0.0899,0.1455 -0.10399,0.2646 -0.0312,0.2646 0.0728,0 0.20588,-0.1191 0.29581,-0.2646 z m -8.06979,-0.5291 c 0,-0.1456 0.18562,-0.2646 0.41249,-0.2646 h 0.41249 l -0.16352,0.2646 c -0.0899,0.1455 -0.27556,0.2645 -0.41249,0.2645 -0.13693,0 -0.24897,-0.119 -0.24897,-0.2645 z m 1.13189,-0.088 c 0.0556,-0.1669 0.56129,-0.4326 1.1237,-0.5904 l 1.02254,-0.2869 1.13656,-0.9886 1.13656,-0.9887 -0.26641,0.6116 c -0.14652,0.3363 -0.33242,0.7991 -0.4131,1.0282 -0.14764,0.4193 -1.34871,0.9537 -2.96731,1.3203 l -0.87369,0.1979 z m 3.36603,0.08 c 0,-0.15 0.20836,-0.3497 0.46302,-0.4437 0.25466,-0.094 0.54584,-0.2951 0.64707,-0.447 0.10123,-0.1519 0.26915,-0.1912 0.37315,-0.087 0.104,0.1041 -0.0863,0.428 -0.42297,0.72 -0.67327,0.5839 -1.06027,0.6781 -1.06027,0.2579 z m 6.35,0.01 c 0,-0.1456 0.11203,-0.2646 0.24897,-0.2646 0.13693,0 0.32255,0.119 0.41249,0.2646 l 0.16352,0.2645 h -0.41249 c -0.22687,0 -0.41249,-0.119 -0.41249,-0.2645 z m 3.04271,-0.5457 c -0.43657,-0.2789 -1.0383,-0.6359 -1.33718,-0.7933 -0.61605,-0.3245 -1.28981,-1.2816 -1.0623,-1.5091 0.0829,-0.083 0.59716,0.2027 1.14281,0.6347 0.54564,0.4319 1.43857,1.0569 1.98427,1.3887 0.5457,0.3318 0.99219,0.653 0.99219,0.7139 0,0.2774 -1.00087,0.024 -1.71979,-0.4349 z m -3.57188,0.017 c 0,-0.194 0.0794,-0.2734 0.17639,-0.1764 0.097,0.097 0.097,0.2558 0,0.3528 -0.097,0.097 -0.17639,0.018 -0.17639,-0.1764 z m 1.05833,-0.5448 c 0,-0.1541 -0.0978,-0.2197 -0.21738,-0.1458 -0.24325,0.1503 -1.10553,-0.758 -1.10553,-1.1645 0,-0.4144 0.34028,-0.2947 1.12448,0.3955 0.73593,0.6478 0.94797,1.195 0.46302,1.195 -0.14552,0 -0.26459,-0.1261 -0.26459,-0.2802 z m -3.99891,-0.8443 c -0.0166,-0.036 -0.0684,-0.3854 -0.11505,-0.7756 l -0.0849,-0.7096 0.37963,-0.315 c 0.2088,-0.1733 0.37963,-0.4791 0.37963,-0.6796 0,-0.2004 0.17859,-0.3644 0.39688,-0.3644 h 0.39687 v -0.3969 c 0,-0.2183 0.11341,-0.3969 0.25201,-0.3969 h 0.25202 l -0.0995,0.7862 c -0.15414,1.2179 -0.40994,1.8547 -0.71831,1.7881 -0.15484,-0.033 -0.3361,0.088 -0.4028,0.27 l -0.12127,0.3307 h 0.35278 0.35278 l -0.39688,0.2565 c -0.38101,0.2462 -0.76044,0.3376 -0.82391,0.1984 z m -5.61428,-0.904 c -0.33216,-0.3321 -0.17577,-0.5534 0.62584,-0.8854 0.9504,-0.3937 1.06246,-0.3252 0.76296,0.4665 l -0.22522,0.5953 h -0.4936 c -0.27147,0 -0.57297,-0.079 -0.66998,-0.1764 z m 1.80799,-0.088 c 0.0899,-0.1455 0.27555,-0.2645 0.41249,-0.2645 0.13693,0 0.24896,0.119 0.24896,0.2645 0,0.1456 -0.18562,0.2646 -0.41249,0.2646 h -0.41249 z m -3.97963,-0.2822 c -0.25185,-0.4074 -0.0951,-0.4649 0.86807,-0.3182 l 0.8572,0.1305 -0.14521,0.235 c -0.20322,0.3288 -1.36919,0.294 -1.58006,-0.047 z m 4.24688,-0.5158 c 0.0914,-0.1479 0.27702,-0.2004 0.41249,-0.1167 0.36698,0.2268 0.29856,0.3856 -0.16619,0.3856 h -0.41249 z m 10.58066,-0.01 c -0.43656,-0.1234 -1.11284,-0.29 -1.50285,-0.3703 -0.82651,-0.1701 -1.53986,-0.8066 -1.53986,-1.3739 v -0.3972 l 0.69714,0.5484 c 0.38343,0.3016 0.9056,0.5484 1.16038,0.5484 0.25479,0 0.80428,0.1778 1.22109,0.3952 0.41682,0.2174 1.0923,0.396 1.50107,0.3969 h 0.74322 l -0.16352,0.2646 c -0.19064,0.3084 -0.99492,0.3032 -2.11667,-0.014 z m -10.44897,-0.6856 c 0.001,-0.1247 0.29879,-0.3644 0.66145,-0.5326 l 0.6594,-0.3058 v 0.372 c 0,0.2045 -0.10933,0.3719 -0.24295,0.3719 -0.13362,0 -0.43127,0.072 -0.66145,0.1606 -0.23019,0.088 -0.41759,0.059 -0.41645,-0.066 z m 2.90835,-0.857 c 0,-0.1455 0.11906,-0.3382 0.26458,-0.4281 0.14552,-0.09 0.26458,-0.044 0.26458,0.1011 0,0.1455 -0.11906,0.3381 -0.26458,0.4281 -0.14552,0.09 -0.26458,0.044 -0.26458,-0.1011 z m 3.32937,-0.7305 c -0.22151,-0.5773 0.0726,-0.8456 0.38513,-0.3514 0.31288,0.4947 0.31954,0.7861 0.018,0.7861 -0.12995,0 -0.31135,-0.1956 -0.4031,-0.4347 z m 2.22688,0.3024 c 0,-0.073 0.0595,-0.1323 0.13229,-0.1323 0.0728,0 0.13229,0.06 0.13229,0.1323 0,0.073 -0.0595,0.1323 -0.13229,0.1323 -0.0728,0 -0.13229,-0.06 -0.13229,-0.1323 z m -4.57614,-0.3094 c -0.18953,-0.3066 0.25214,-1.0601 0.48496,-0.8272 0.094,0.094 0.0574,0.3737 -0.0813,0.6216 l -0.25222,0.4507 z m -3.75824,-0.352 c 0.0899,-0.1456 0.33509,-0.2646 0.54478,-0.2646 0.2097,0 0.38126,-0.1191 0.38126,-0.2646 0,-0.1455 0.11907,-0.2646 0.26459,-0.2646 0.50423,0 0.26141,0.4457 -0.40933,0.7513 -0.82559,0.3761 -0.99316,0.3853 -0.7813,0.043 z m 2.98294,-0.1952 c -0.0549,-0.2565 -0.0116,-0.6449 0.0963,-0.8632 0.10785,-0.2183 0.26509,-0.7243 0.34941,-1.1245 0.0843,-0.4001 0.27244,-0.7276 0.41804,-0.7276 h 0.26471 l -0.11936,0.5953 c -0.37305,1.8606 -0.50915,2.3389 -0.69889,2.4562 -0.11571,0.072 -0.2553,-0.08 -0.3102,-0.3362 z m 4.02852,0.1952 c 0,-0.1941 0.0794,-0.2734 0.17639,-0.1764 0.097,0.097 0.097,0.2557 0,0.3527 -0.097,0.097 -0.17639,0.018 -0.17639,-0.1763 z m -1.32292,-0.6615 c 0,-0.073 0.0595,-0.1323 0.1323,-0.1323 0.0728,0 0.13229,0.06 0.13229,0.1323 0,0.073 -0.0595,0.1323 -0.13229,0.1323 -0.0728,0 -0.1323,-0.06 -0.1323,-0.1323 z m -1.70278,-0.4744 c 0.0994,-0.261 0.24731,-0.4078 0.32877,-0.3264 0.0815,0.082 1.7e-4,0.295 -0.18065,0.4745 l -0.32877,0.3263 z m 1.4382,-1.3777 c 0,-0.073 0.0595,-0.1323 0.13229,-0.1323 0.0728,0 0.13229,0.06 0.13229,0.1323 0,0.073 -0.0595,0.1323 -0.13229,0.1323 -0.0728,0 -0.13229,-0.059 -0.13229,-0.1323 z m -5.15937,-0.6614 c 0.0899,-0.1456 0.21602,-0.2646 0.28019,-0.2646 0.0642,0 0.11668,0.119 0.11668,0.2646 0,0.1455 -0.12609,0.2645 -0.2802,0.2645 -0.15411,0 -0.20661,-0.119 -0.11667,-0.2645 z m 0.98588,-0.047 c 0.0572,-0.1715 0.29951,-0.4352 0.53853,-0.5859 l 0.43458,-0.2742 0.21071,0.2107 0.21071,0.2108 -0.51317,0.3752 c -0.62424,0.4564 -1.02191,0.4851 -0.88136,0.063 z m 1.66073,-0.2161 c -0.1897,-0.3069 0.30262,-1.0596 0.69307,-1.0596 0.36564,0 0.27097,0.6968 -0.14113,1.0388 l -0.37332,0.3098 z m 3.71373,-1.1897 c -0.43088,-0.3521 -0.69682,-0.7268 -0.59099,-0.8326 0.21854,-0.2186 1.55089,0.6985 1.71049,1.1773 0.16256,0.4876 -0.2604,0.3574 -1.1195,-0.3447 z m -5.87527,0.2183 c 0.097,-0.097 0.25576,-0.097 0.35277,0 0.097,0.097 0.0176,0.1764 -0.17639,0.1764 -0.19402,0 -0.2734,-0.079 -0.17638,-0.1764 z m 4.40972,-0.2205 c 0,-0.073 0.0595,-0.1322 0.13229,-0.1322 0.0728,0 0.13229,0.059 0.13229,0.1322 0,0.073 -0.0595,0.1323 -0.13229,0.1323 -0.0728,0 -0.13229,-0.06 -0.13229,-0.1323 z m -2.11667,-0.926 c 0,-0.1455 0.18562,-0.2646 0.41249,-0.2646 h 0.41249 l -0.16352,0.2646 c -0.0899,0.1455 -0.27556,0.2646 -0.41249,0.2646 -0.13693,0 -0.24897,-0.1191 -0.24897,-0.2646 z m 1.05833,-0.6615 c 0,-0.6538 0.3585,-0.887 0.64671,-0.4207 0.19123,0.3094 -0.10185,1.0822 -0.41043,1.0822 -0.12995,0 -0.23628,-0.2977 -0.23628,-0.6615 z m -2.64583,-0.8613 c 0,-0.2236 1.91909,-0.8796 2.08573,-0.713 0.0585,0.058 -0.0443,0.2878 -0.22834,0.5096 l -0.33468,0.4033 h -0.76136 c -0.41874,0 -0.76135,-0.09 -0.76135,-0.1999 z m 4.63021,-0.5939 -0.16352,-0.2645 h 0.4281 0.42811 l -0.16352,0.2645 c -0.0899,0.1456 -0.209,0.2646 -0.26459,0.2646 -0.0556,0 -0.17464,-0.119 -0.26458,-0.2646 z m -1.05833,-0.2645 -0.16353,-0.2646 h 0.41249 c 0.22687,0 0.41249,0.119 0.41249,0.2646 0,0.1455 -0.11203,0.2645 -0.24896,0.2645 -0.13694,0 -0.32256,-0.119 -0.41249,-0.2645 z m -1.67019,-0.5457 c 0.0637,-0.191 0.27203,-0.3994 0.46302,-0.4631 l 0.34727,-0.1157 -0.11576,0.3472 c -0.0637,0.191 -0.27202,0.3994 -0.46302,0.4631 l -0.34726,0.1157 z m 22.96914,64.9717 v -6.7469 h 39.16683 39.16684 l 0.98007,-0.4095 c 1.38058,-0.5768 2.13875,-1.3728 2.46633,-2.5894 l 0.28246,-1.0489 -0.44509,-1.1655 -0.44509,-1.1654 -1.07751,-0.7132 -1.07752,-0.7133 -22.2446,-0.1323 -22.24459,-0.1323 -1.39685,-0.6312 -1.39685,-0.6313 -1.15849,-1.2885 -1.15849,-1.2885 -0.42122,-1.2362 -0.42123,-1.2362 v -10.4891 -10.4891 l 0.41124,-1.2069 c 0.5229,-1.5346 1.93232,-3.1852 3.51358,-4.1147 l 1.23456,-0.7258 32.87448,-0.07 32.87448,-0.07 -1e-5,6.5525 -1e-5,6.5525 h -26.47867 -26.47867 l -0.88971,0.9709 -0.8897,0.9708 -0.1774,0.9457 c -0.24816,1.3228 0.0143,2.1253 1.08129,3.3064 l 0.92245,1.021 1.17238,0.2952 1.17237,0.2952 h 21.39925 21.39925 l 1.3039,0.4432 1.3039,0.4432 1.32292,1.3563 1.32292,1.3562 0.47138,1.3249 0.47139,1.3249 -0.0745,11.2293 -0.0745,11.2293 -0.65897,1.2903 -0.65896,1.2903 -1.14165,1.005 -1.14165,1.0049 -1.22308,0.4167 -1.22308,0.4168 h -45.85808 -45.85808 z m 104.51042,-13.9673 v -20.7142 l 0.40524,-1.577 c 0.22287,-0.8673 0.81917,-2.4545 1.32509,-3.5272 l 0.91987,-1.9503 1.91604,-1.9158 1.91605,-1.9158 1.917288,-0.9654 c 1.054507,-0.531 2.66185,-1.141 3.571875,-1.3555 l 1.65459,-0.3901 h 24.143228 24.143229 v 6.4823 6.4823 h -21.177207 -21.177206 l -0.981647,0.5034 c -1.241157,0.6365 -2.035322,1.4855 -2.556519,2.7329 l -0.409503,0.9801 v 1.9928 1.9929 h 23.151041 23.151041 v 6.35 6.35 h -23.151041 -23.151041 v 10.5833 10.5834 h -7.805209 -7.805209 z"
       id="path213" /></g><style
     id="style1">@media(prefers-color-scheme:dark){.lines{fill:#d7d7d7}}</style></svg>
