<?xml version="1.0" encoding="UTF-8" standalone="no"?>
<!-- Created with Inkscape (http://www.inkscape.org/) -->

<svg
   width="49.741699mm"
   height="36.512402mm"
   viewBox="0 0 49.741699 36.512402"
   version="1.1"
   id="svg1"
   xml:space="preserve"
   inkscape:version="1.4.4 (dcaf3e7, 2026-05-05)"
   sodipodi:docname="logos teams.svg"
   inkscape:export-batch-name="logos teams"
   inkscape:export-batch-path="Desktop"
   xmlns:inkscape="http://www.inkscape.org/namespaces/inkscape"
   xmlns:sodipodi="http://sodipodi.sourceforge.net/DTD/sodipodi-0.dtd"
   xmlns="http://www.w3.org/2000/svg"
   xmlns:svg="http://www.w3.org/2000/svg"><sodipodi:namedview
     id="namedview1"
     pagecolor="#ffffff"
     bordercolor="#000000"
     borderopacity="0.25"
     inkscape:showpageshadow="2"
     inkscape:pageopacity="0.0"
     inkscape:pagecheckerboard="0"
     inkscape:deskcolor="#d1d1d1"
     inkscape:document-units="mm"
     inkscape:zoom="0.69712823"
     inkscape:cx="489.14961"
     inkscape:cy="355.02794"
     inkscape:window-width="1920"
     inkscape:window-height="1050"
     inkscape:window-x="0"
     inkscape:window-y="30"
     inkscape:window-maximized="0"
     inkscape:current-layer="layer1"><inkscape:page
       x="0"
       y="0"
       width="49.741699"
       height="36.512402"
       id="page1"
       margin="0"
       bleed="0" /></sodipodi:namedview><defs
     id="defs1" /><g
     inkscape:label="Ebene 1"
     inkscape:groupmode="layer"
     id="layer1"
     transform="translate(-1120.6151,1058.1109)"><path
       style="fill:#0ca34e;stroke:none"
       d="m 1120.6151,-1040.6485 v 0.2646 l 2.7184,1.3821 2.8379,-0.5884 0.2646,0.7938 5.2917,-1.8521 -4.498,19.05 c 5.7442,-1.9052 6.4325,-11.075 7.7064,-16.1396 0.3466,-1.3779 0.5803,-3.3027 1.4755,-4.4414 1.034,-1.3154 3.3218,-1.6788 4.8411,-2.1732 -0.2867,1.4784 -0.9721,3.6934 0.5894,4.7256 1.7016,1.1249 6.0109,-0.3378 6.1803,2.683 0.1251,2.2313 -2.5857,4.0477 -4.3885,4.7441 -0.6264,0.242 -1.9026,0.799 -2.447,0.1202 -0.9394,-1.1715 3.1577,-2.8549 2.2861,-4.7898 -0.4995,-1.1091 -1.9968,-0.5353 -2.7495,-0.076 -1.7908,1.0923 -4.453,3.3194 -4.6953,5.5577 -0.3426,3.1633 2.9602,3.3966 5.2245,2.9065 4.0963,-0.8866 8.2947,-3.2079 9.6936,-7.4045 0.625,-1.875 1.0335,-5.7496 -1.2311,-6.6427 -1.3697,-0.5402 -4.8365,0.7699 -5.1757,-1.3093 -0.584,-3.5806 6.453,-4.3369 3.3343,-1.7843 -0.3303,0.2704 -0.7136,0.5004 -1.0649,0.7405 v 0.5292 c 2.5953,0.7064 5.6638,-1.7938 8.2021,-2.3813 -0.161,2.9377 -3.7513,2.5735 -2.3813,5.8209 l 2.1167,-0.7938 -1.5875,10.8479 c 1.8452,0.4219 2.781,-1.0706 3.3475,-2.6458 1.0029,-2.7885 0.8099,-6.3746 2.0801,-8.9673 0.5469,-1.1161 1.8209,-1.0532 2.6636,-1.8018 0.9085,-0.807 0.8953,-2.1396 0.9046,-3.2538 l -2.6458,0.7937 c 0,-4.6913 3.523,-4.2664 6.8,-6.49 1.3895,-0.9429 3.0626,-3.4883 4.0479,-4.8871 l -4.4979,1.4753 -10.0542,4.614 -5.5562,-0.8813 -4.2333,2.0471 -7.4084,2.6395 z"
       id="path14-9" /></g></svg>
