<?xml version="1.0" encoding="UTF-8" standalone="no"?>
<!-- Created with Inkscape (http://www.inkscape.org/) -->

<svg
   width="67.791069mm"
   height="93.435936mm"
   viewBox="0 0 67.791069 93.435936"
   version="1.1"
   id="svg1"
   xml:space="preserve"
   inkscape:version="1.4.4 (dcaf3e7, 2026-05-05)"
   sodipodi:docname="logos teams.svg"
   inkscape:export-batch-name="logos teams"
   inkscape:export-batch-path="Desktop"
   xmlns:inkscape="http://www.inkscape.org/namespaces/inkscape"
   xmlns:sodipodi="http://sodipodi.sourceforge.net/DTD/sodipodi-0.dtd"
   xmlns="http://www.w3.org/2000/svg"
   xmlns:svg="http://www.w3.org/2000/svg"><sodipodi:namedview
     id="namedview1"
     pagecolor="#ffffff"
     bordercolor="#000000"
     borderopacity="0.25"
     inkscape:showpageshadow="2"
     inkscape:pageopacity="0.0"
     inkscape:pagecheckerboard="0"
     inkscape:deskcolor="#d1d1d1"
     inkscape:document-units="mm"
     inkscape:zoom="0.69712823"
     inkscape:cx="489.14961"
     inkscape:cy="355.02794"
     inkscape:window-width="1920"
     inkscape:window-height="1050"
     inkscape:window-x="0"
     inkscape:window-y="30"
     inkscape:window-maximized="0"
     inkscape:current-layer="layer1"><inkscape:page
       x="0"
       y="0"
       width="67.791069"
       height="93.435936"
       id="page1"
       margin="0"
       bleed="0" /></sodipodi:namedview><defs
     id="defs1" /><g
     inkscape:label="Ebene 1"
     inkscape:groupmode="layer"
     id="layer1"
     transform="translate(-57.642276,-137.60925)"><path
       style="fill:#000000;stroke-width:0.422098"
       d="m 89.527261,230.72121 c -12.056627,-3.19078 -21.914227,-9.19867 -26.833523,-16.35416 -0.323771,-0.47095 -0.650437,-0.93588 -0.725921,-1.03317 -0.749254,-0.96573 -2.515855,-4.91019 -3.161159,-7.05822 -1.213533,-4.0395 -1.164101,-2.78062 -1.164101,-29.64446 v -23.36765 l 0.307123,-0.0648 c 5.605367,-1.18272 12.685351,-3.54178 16.835791,-5.60972 3.478092,-1.73294 12.423486,-7.0553 16.224521,-9.65333 l 0.477604,-0.32645 1.425519,1.05644 c 9.225975,6.83725 22.687745,13.0009 31.653815,14.49311 l 0.86552,0.14405 v 24.26483 c 0,28.06382 0.0828,26.20055 -1.34341,30.24741 -3.59559,10.20268 -15.07842,18.91106 -29.913884,22.68617 -2.662931,0.67763 -2.879746,0.68789 -4.647895,0.21995 z m 3.071205,-2.91973 c 9.969364,-2.40832 19.456554,-7.71804 24.340924,-13.62295 l 0.69092,-0.83527 H 91.643249 65.656185 l 0.149706,0.19544 c 4.621476,6.03328 13.304819,11.17151 23.820137,14.0952 1.898434,0.52785 1.560071,0.50877 2.972438,0.16758 z m 7.847734,-7.02954 c -0.19841,-0.0863 -0.462074,-0.32301 -0.585901,-0.52611 l -0.225143,-0.36928 v -1.89856 -1.89857 l 0.225388,-0.36968 c 0.569636,-0.9343 2.370836,-0.92544 3.060406,0.0151 l 0.2313,0.31547 v 1.93797 1.93797 l -0.2313,0.31521 c -0.48079,0.6552 -1.63236,0.90672 -2.47475,0.54051 z m 1.24623,-1.01505 c 0.23491,-0.2349 0.25901,-3.24136 0.0285,-3.55658 -0.51832,-0.70885 -0.87107,0.0959 -0.83309,1.90052 0.0366,1.73684 0.26127,2.19937 0.80458,1.65606 z m -24.531439,-1.19258 -0.03022,-2.26153 -0.53048,-0.034 -0.530481,-0.034 v -0.55228 -0.55228 h 1.731043 1.731047 v 0.5584 0.5584 h -0.502563 -0.502559 v 2.28944 2.28945 h -0.667773 -0.667768 z m 2.594251,-0.58632 v -2.84785 l 1.200562,0.006 c 1.478729,0.008 1.91379,0.14 2.183895,0.66378 0.27959,0.54218 0.21408,1.5714 -0.122843,1.93004 l -0.24228,0.2579 0.249295,0.24922 c 0.20595,0.20589 0.261017,0.41862 0.316688,1.2234 0.03706,0.53579 0.105259,1.06212 0.151546,1.16961 l 0.08416,0.19544 h -0.725921 c -0.848017,0 -0.861498,-0.0169 -0.861498,-1.07744 0,-0.89971 -0.12473,-1.15616 -0.562333,-1.15616 h -0.331111 v 1.1168 1.1168 H 80.425321 79.75524 Z m 2.017588,-0.50649 c 0.549522,-0.2941 0.201122,-1.33624 -0.446723,-1.33624 h -0.230703 v 0.72593 0.72592 h 0.230703 c 0.126887,0 0.327911,-0.052 0.446723,-0.11561 z m 1.891221,0.50649 v -2.84785 h 0.725921 0.725921 v 2.84785 2.84784 h -0.725921 -0.725921 z m 1.727856,2.42904 c 0.03976,-0.23034 0.308655,-1.4993 0.597552,-2.81992 l 0.525268,-2.40113 0.794997,-0.0325 0.795002,-0.0325 0.06388,0.25591 c 0.03512,0.14074 0.292206,1.31128 0.571268,2.60119 0.279066,1.2899 0.533655,2.45836 0.565756,2.59656 l 0.05837,0.25128 h -0.667147 -0.667148 l -0.0696,-0.4188 c -0.113726,-0.6843 -0.126482,-0.698 -0.64991,-0.698 -0.530852,0 -0.625832,0.12222 -0.629247,0.80969 l -0.0017,0.30711 h -0.6799 -0.679895 z m 2.290627,-1.78688 c -0.0056,-0.23461 -0.326641,-2.18068 -0.366272,-2.22031 -0.02533,-0.0253 -0.109593,0.41883 -0.187238,0.98703 -0.07765,0.56819 -0.165695,1.09697 -0.19566,1.17506 -0.03786,0.0987 0.06836,0.14198 0.348345,0.14198 0.221556,0 0.401927,-0.0377 0.400825,-0.0838 z m 2.235607,-0.0838 v -2.28945 h -0.502559 -0.502563 v -0.5584 -0.5584 h 1.731047 1.731043 v 0.5584 0.5584 h -0.558403 -0.558402 v 2.28945 2.28944 h -0.670082 -0.670081 z m 2.680325,-0.5584 v -2.84785 h 0.670082 0.670081 v 1.1168 1.11681 h 0.446724 0.446719 v -1.11681 -1.1168 h 0.670082 0.670081 v 2.84785 2.84784 h -0.670081 -0.670082 v -1.17264 -1.17264 h -0.446719 -0.446724 v 1.17264 1.17264 h -0.670081 -0.670082 z m 3.90881,0 v -2.84785 h 0.670081 0.670081 v 2.28945 2.28944 h 0.781761 0.781764 v 0.5584 0.5584 h -1.451846 -1.451841 z m 7.035854,-0.005 v -2.85318 l 0.6951,0.0333 0.69511,0.0333 0.44962,1.41566 c 0.51391,1.61811 0.57129,1.72577 0.53525,1.0043 -0.0143,-0.28677 -0.0395,-0.96115 -0.0558,-1.49862 l -0.0298,-0.97722 0.64215,2e-5 0.64217,2e-5 v 2.84784 2.84785 h -0.70255 -0.70254 l -0.4264,-1.38114 c -0.58255,-1.88691 -0.61776,-1.89644 -0.54443,-0.14733 l 0.0641,1.52847 h -0.63097 -0.63097 z m -31.978604,-8.21178 c 0.867349,-0.41987 1.266975,-1.18922 1.26592,-2.4371 -0.0013,-1.47892 -0.364976,-2.03129 -1.96714,-2.98738 -1.412075,-0.84266 -1.799553,-1.52145 -1.134436,-1.98731 0.498887,-0.34944 1.091956,0.069 1.091956,0.77035 v 0.39596 h 1.005122 1.005123 l -0.0025,-0.53048 c -0.01228,-2.65596 -4.159844,-3.46157 -5.185349,-1.00719 -0.655806,1.56957 -0.0439,2.85704 1.971529,4.14815 1.28659,0.82421 1.554222,1.40701 0.931901,2.02932 -0.558998,0.559 -1.177719,0.14138 -1.177719,-0.79494 v -0.60614 h -1.005122 -1.005122 v 0.85032 c 0,2.03631 2.162993,3.14534 4.20579,2.15644 z m 4.66399,0.22082 c 0.240854,-0.0669 0.581774,-0.26545 0.757599,-0.44127 l 0.319681,-0.31968 0.06604,0.33021 0.06604,0.33021 h 0.711962 0.711962 v -2.5128 -2.51281 h -1.451846 -1.451842 v 0.8376 0.8376 h 0.390881 0.39088 v 0.67516 c 0,1.06068 -0.783947,1.60835 -1.312241,0.91675 -0.172491,-0.22582 -0.20037,-5.29017 -0.03086,-5.60689 0.374592,-0.69993 1.176621,-0.28879 1.286692,0.65959 l 0.07835,0.67507 h 1.062202 1.062202 l -0.04166,-0.80969 c -0.158236,-3.07635 -4.98595,-3.60208 -5.674337,-0.61792 -0.149052,0.64614 -0.145789,5.07392 0.0043,5.77356 0.314028,1.46428 1.568666,2.19771 3.054026,1.78531 z m 29.681714,0.007 c 0.22699,-0.063 0.55365,-0.26451 0.72592,-0.44772 l 0.31323,-0.33309 0.0566,0.30874 0.0566,0.30874 0.75311,0.033 0.75312,0.033 v -2.51791 -2.51791 h -1.45184 -1.45185 v 0.83052 0.83053 l 0.36296,0.035 0.36297,0.035 -0.0119,0.71754 c -0.0139,0.83514 -0.29166,1.19783 -0.81861,1.06887 -0.61618,-0.15081 -0.6213,-0.17625 -0.6213,-3.08459 v -2.6862 l 0.26365,-0.2135 c 0.60606,-0.49075 1.13235,-0.0969 1.13235,0.84747 v 0.61424 h 1.133 1.133 l -0.0672,-0.80169 c -0.0988,-1.17831 -0.42037,-1.73422 -1.24808,-2.15753 l -0.65571,-0.33534 h -1.016 c -2.43926,0 -2.85118,0.6866 -2.85214,4.75406 -8.5e-4,4.19809 0.76737,5.33999 3.14824,4.67873 z m -40.226697,-3.7371 v -3.6296 h 0.837604 0.8376 v -0.94929 -0.94928 h -2.792005 -2.792004 v 0.94928 0.94929 h 0.8376 0.837604 v 3.6296 3.62961 h 1.1168 1.116801 z m 21.330925,2.68033 v -0.94928 h -1.396002 -1.396002 v -0.94928 -0.94929 h 1.284319 1.284323 v -0.94928 -0.94928 h -1.284323 -1.284319 v -0.78176 -0.78176 h 1.340158 1.340163 v -0.94929 -0.94928 h -2.456964 -2.456963 v 4.57889 4.57889 h 2.512803 2.512807 z m 2.680325,-0.94928 v -1.89857 h 0.725921 0.725921 v 1.89857 1.89856 h 1.060961 1.060962 v -4.57889 -4.57889 h -1.060962 -1.060961 v 1.73104 1.73105 h -0.725921 -0.725921 v -1.73105 -1.73104 h -1.116805 -1.116801 v 4.57889 4.57889 h 1.116801 1.116805 z m 6.365773,-2.68033 v -4.5789 H 94.943751 93.82695 v 4.57889 4.57889 h 1.116801 1.116805 z m 2.630307,3.88089 c -0.03094,-0.3839 -0.07891,-1.47697 -0.106631,-2.42905 l -0.05039,-1.73104 0.795858,2.42904 0.79586,2.42905 h 1.09455 1.09454 v -4.57889 -4.57889 h -1.01356 -1.01356 l 0.0694,2.09401 c 0.0382,1.1517 0.0893,2.26989 0.11362,2.48488 0.0243,0.21499 -0.32258,-0.71475 -0.770958,-2.06609 l -0.815233,-2.45696 -1.13268,-0.0318 -1.132685,-0.0318 v 4.58279 4.5828 h 1.064073 1.064072 z m 15.461887,-0.25128 v -0.94928 h -1.396 -1.39601 v -0.94928 -0.94929 h 1.28433 1.28432 v -0.94928 -0.94928 h -1.28432 -1.28433 v -0.78176 -0.78176 h 1.34017 1.34016 v -0.94929 -0.94928 h -2.45696 -2.45697 v 4.57889 4.57889 h 2.51281 2.5128 z m 2.51437,-1.03304 c -0.0362,-1.09028 -0.0913,-2.18147 -0.12255,-2.42486 -0.0982,-0.76547 0.0683,-0.3638 0.84056,2.02798 l 0.75018,2.32336 1.13577,0.0318 1.13576,0.0318 v -4.58279 -4.5828 h -1.06678 -1.06679 l 0.0596,0.92136 c 0.0328,0.50675 0.0823,1.59982 0.11003,2.42905 l 0.0505,1.50768 -0.7984,-2.42904 -0.79841,-2.42905 h -1.14853 -1.14852 v 4.57889 4.57889 h 1.06671 1.06672 z m -49.755103,-12.3686 v -1.396 h 6.533291 6.533296 v 1.396 1.39601 l 1.31224,1.2e-4 1.312246,1.3e-4 -0.03432,-2.28958 -0.03432,-2.28956 h 8.549926 8.549922 v 2.28944 2.28945 h 1.340162 1.34016 v -3.07121 -3.07121 h 7.3709 7.37089 v 3.07121 3.07121 h 2.68063 2.68062 l -0.0282,-20.57012 -0.0282,-20.5701 -0.61424,-0.15017 c -9.5147,-2.32613 -20.02136,-7.14338 -28.696053,-13.157 l -1.693733,-1.17416 -2.087623,1.32682 c -7.363863,4.68022 -12.954731,7.74831 -17.160786,9.41731 -3.091614,1.22677 -10.491976,3.55573 -11.298484,3.55573 -0.128203,0 -0.152407,3.28091 -0.152407,20.66084 v 20.66085 h 3.12705 3.127044 z m -0.896499,-4.37754 1.454902,-1.64138 v -1.15063 -1.15063 h 6.086571 6.086572 v 1.13206 1.13205 l 1.088883,1.51471 c 0.598882,0.83309 1.129071,1.58007 1.178191,1.65995 0.07301,0.11873 -1.502561,0.14525 -8.630357,0.14525 h -8.719664 z m 15.52661,-2.49079 v -2.34529 h 9.604497 9.604505 v 2.34529 2.34528 h -9.604505 -9.604497 z m 20.772522,-0.67008 V 186.54 h 7.37089 7.3709 v 1.45185 1.45184 h -7.3709 -7.37089 z M 66.978485,185.3956 c -2.34626,-4.00603 -1.107088,-9.43691 2.675437,-11.72554 l 0.675822,-0.40891 0.636419,-1.59834 c 0.712313,-1.78894 0.76789,-2.21971 0.39492,-3.06088 -0.351325,-0.79238 -0.32112,-1.58606 0.09724,-2.55493 0.620265,-1.43648 0.917933,-2.43869 1.492675,-5.02561 0.313872,-1.41275 0.583834,-2.58223 0.599912,-2.59883 0.01608,-0.0166 0.369952,1.16441 0.786386,2.62449 0.704989,2.47176 1.036188,3.44456 1.795463,5.27362 0.374271,0.9016 0.337721,1.74942 -0.108213,2.51035 -0.395063,0.67412 -0.383624,0.75467 0.389175,2.7404 l 0.678962,1.7446 0.5216,0.27334 c 3.586394,1.87939 5.040227,7.18679 3.08107,11.24784 l -0.498363,1.03304 H 73.726735 67.25648 Z m 38.630725,-0.0243 c -1.26631,-0.23296 -1.65744,-0.36922 -2.35494,-0.82042 -2.12495,-1.37459 -3.00594,-3.66267 -2.45575,-6.37798 0.44707,-2.20639 0.96051,-2.9324 3.53492,-4.99843 2.87582,-2.30792 3.77975,-3.3946 4.33607,-5.21267 0.29929,-0.9781 0.29456,-1.14075 -0.0449,-1.54421 -0.19192,-0.22808 -0.2792,-0.46611 -0.2792,-0.7614 0,-0.29528 0.0873,-0.53331 0.2792,-0.76139 0.62515,-0.74295 0.29857,-2.3957 -0.33504,-1.69557 -0.55553,0.61385 -1.22848,0.0633 -1.22848,-1.00512 0,-1.06838 0.67295,-1.61898 1.22848,-1.00512 0.11117,0.12284 0.31999,0.22335 0.46403,0.22335 0.37783,0 0.34087,-0.395 -0.0731,-0.78176 -0.18427,-0.17213 -0.33504,-0.36263 -0.33504,-0.42331 0,-0.80539 2.12702,-0.95967 2.48224,-0.18005 l 0.13421,0.29457 -0.3031,0.26072 c -0.39779,0.34216 -0.41987,0.82983 -0.0376,0.82983 0.14604,0 0.32809,-0.0754 0.40456,-0.16751 0.52166,-0.62858 1.33782,0.31602 1.15203,1.33332 -0.14584,0.79847 -0.83894,1.16392 -1.17795,0.62108 -0.0767,-0.12285 -0.25304,-0.22336 -0.39183,-0.22336 h -0.25234 v 0.76809 c 0,0.56087 0.0472,0.80724 0.17489,0.91322 0.57201,0.47473 0.63893,1.27426 0.15298,1.82773 l -0.34223,0.38977 0.18918,0.703 c 0.55467,2.06121 1.65444,3.58756 3.67815,5.10481 0.85994,0.64472 2.021,1.62677 2.58013,2.18233 l 1.01661,1.01011 0.36402,0.94928 c 1.61448,4.21021 -0.3425,8.07572 -4.35164,8.59556 -1.24784,0.1618 -7.25843,0.12631 -8.20849,-0.0485 z m -21.386756,-1.56707 v -1.396 h -0.949283 c -0.522106,0 -0.951309,-0.0377 -0.953786,-0.0838 -0.0095,-0.17794 8.997852,-37.43935 9.050602,-37.44005 0.03073,-4e-4 1.937394,8.35434 4.237071,18.5661 2.299677,10.21176 4.202155,18.65267 4.227721,18.75757 0.04056,0.16649 -0.0721,0.19488 -0.886664,0.22336 l -0.933154,0.0326 -0.03136,1.36808 -0.03136,1.36808 h -6.8649 -6.864896 z"
       id="path178" /></g><style
     id="style1">@media(prefers-color-scheme:dark){.lines{fill:#d7d7d7}}</style></svg>
