<?xml version="1.0" encoding="UTF-8" standalone="no"?>
<!-- Created with Inkscape (http://www.inkscape.org/) -->

<svg
   width="159.30188mm"
   height="202.61504mm"
   viewBox="0 0 159.30188 202.61504"
   version="1.1"
   id="svg1"
   xml:space="preserve"
   inkscape:version="1.4.4 (dcaf3e7, 2026-05-05)"
   sodipodi:docname="logos teams.svg"
   inkscape:export-batch-name="TSV Neustadt"
   inkscape:export-batch-path="Desktop/Liga"
   xmlns:inkscape="http://www.inkscape.org/namespaces/inkscape"
   xmlns:sodipodi="http://sodipodi.sourceforge.net/DTD/sodipodi-0.dtd"
   xmlns="http://www.w3.org/2000/svg"
   xmlns:svg="http://www.w3.org/2000/svg"><sodipodi:namedview
     id="namedview1"
     pagecolor="#ffffff"
     bordercolor="#000000"
     borderopacity="0.25"
     inkscape:showpageshadow="2"
     inkscape:pageopacity="0.0"
     inkscape:pagecheckerboard="0"
     inkscape:deskcolor="#d1d1d1"
     inkscape:document-units="mm"
     inkscape:zoom="0.21014409"
     inkscape:cx="787.55487"
     inkscape:cy="-3590.3937"
     inkscape:window-width="1920"
     inkscape:window-height="1050"
     inkscape:window-x="0"
     inkscape:window-y="30"
     inkscape:window-maximized="0"
     inkscape:current-layer="layer1"><inkscape:page
       x="3.175079e-19"
       y="0"
       width="159.3019"
       height="202.61504"
       id="page2"
       margin="0"
       bleed="0" /></sodipodi:namedview><defs
     id="defs1"><style
       id="style1-7">
      .cls-1 {
        fill: #fff;
      }
    </style></defs><g
     inkscape:label="Ebene 1"
     inkscape:groupmode="layer"
     id="layer1"
     transform="translate(1330.0517,-327.64542)"><g
       id="g101"><path
         style="fill:#000000"
         d="m -1252.7913,529.04826 c -18.5144,-9.87807 -31.1954,-18.76315 -42.4343,-29.73206 -16.2916,-15.90018 -26.0675,-33.16505 -30.038,-53.04895 -1.1395,-5.70655 -1.6132,-10.26318 -1.7962,-17.2784 l -0.1609,-6.16589 -1.4155,-1.20929 -1.4155,-1.2093 0.067,-33.63288 0.067,-33.63288 1.3891,-0.37135 1.3891,-0.37135 V 342.677 c 0,-7.45974 0.077,-9.77949 0.3307,-9.97953 0.3623,-0.28549 0.2402,-0.26883 10.1203,-1.38184 37.9949,-4.28022 78.944,-4.82737 118.6656,-1.5856 9.8596,0.80466 26.8785,2.70144 27.2096,3.03253 0.052,0.0521 0.077,15.24751 0.056,33.76759 l -0.038,33.67286 -1.4254,1.86545 -1.4253,1.86546 -0.1121,16.53645 c -0.1184,17.45613 -0.1488,17.96059 -1.5234,25.26771 -5.9481,31.61954 -28.3692,58.61869 -66.3973,79.95468 -3.3541,1.88186 -8.5414,4.58975 -8.7497,4.56755 -0.063,-0.007 -1.1259,-0.5521 -2.3628,-1.21205 z m 4.7096,-4.09003 c 11.7625,-6.31036 22.0925,-13.07691 31.0472,-20.33719 5.0614,-4.10365 14.8139,-13.80074 18.3739,-18.26942 12.4262,-15.59832 19.1576,-31.7809 21.0051,-50.4973 0.3438,-3.4835 0.3657,-35.49228 0.024,-35.49228 -0.1482,0 -0.2908,6.9744 -0.3583,17.52865 -0.1204,18.83239 -0.1639,19.54173 -1.6716,27.2738 -2.3649,12.12879 -7.897,24.89449 -15.2691,35.23401 -6.9767,9.7852 -16.9188,19.77428 -27.8309,27.96262 -6.8481,5.13872 -16.4321,11.2052 -24.6063,15.5752 -1.4552,0.77797 -2.7724,1.58186 -2.9271,1.78643 -0.3196,0.4224 -2.1329,-0.41486 -8.0509,-3.71733 -16.0112,-8.93486 -30.3085,-19.97306 -40.1318,-30.98363 -12.9596,-14.52585 -20.5828,-29.6546 -23.7533,-47.14013 -0.9665,-5.33034 -1.2114,-8.30767 -1.3871,-16.86285 -0.086,-4.18372 -0.2289,-7.6061 -0.3176,-7.60529 -0.089,8.1e-4 -0.6239,0.12991 -1.1893,0.28689 l -1.0279,0.28541 0.1463,7.31988 c 0.1886,9.43563 0.7617,14.40004 2.575,22.3044 3.0425,13.26296 9.743,26.58098 19.349,38.45844 11.659,14.416 27.6896,27.03858 48.6449,38.30315 l 4.6302,2.48898 0.079,-1.26281 0.079,-1.26281 z m 1.2341,-2.5345 c 16.0456,-8.76214 28.5551,-17.90263 38.9292,-28.44496 8.7988,-8.94151 14.4823,-16.73736 19.385,-26.58968 3.8739,-7.78496 6.2214,-14.67509 7.8421,-23.01742 1.5051,-7.74697 1.5198,-7.98605 1.6433,-26.61327 l 0.1154,-17.39636 -1.6736,0.001 c -3.5956,0.003 -18.7083,0.55261 -25.6185,0.93251 -22.1446,1.21744 -43.7433,3.62731 -66.5427,7.42448 -7.3569,1.22529 -16.629,2.92723 -17.3302,3.18107 -0.5609,0.20306 1.9486,1.19088 7.2761,2.86419 5.1065,1.6039 8.4274,2.40114 11.1089,2.66684 2.0768,0.2058 4.3227,1.19691 5.4787,2.41776 0.392,0.41393 1.0316,1.44995 1.4214,2.30227 0.6261,1.36878 0.6949,1.79036 0.5894,3.61173 -0.1018,1.75925 -0.2523,2.28312 -1.0245,3.56746 -0.949,1.57823 -2.326,2.67991 -2.5538,2.04314 -0.2709,-0.75731 -1.4713,-1.89862 -2.5421,-2.41701 -1.3368,-0.64711 -3.7171,-0.73511 -5.0313,-0.186 -4.2151,1.76117 -5.5149,7.52879 -2.3999,10.64852 2.0497,2.05273 4.6587,2.24232 7.4182,0.53906 2.6322,-1.62467 5.239,-1.81149 8.1063,-0.58095 0.3836,0.16461 0.463,0.0593 0.463,-0.61342 0,-1.34272 1.0622,-3.75838 2.1911,-4.98307 0.5837,-0.63324 1.9071,-1.70978 2.9408,-2.3923 2.3581,-1.55687 4.8266,-3.87555 5.4724,-5.14015 0.5373,-1.05228 0.9628,-3.13313 0.6407,-3.13313 -0.1099,0 -0.9394,0.36407 -1.8432,0.80905 -1.3317,0.65557 -1.9112,0.79361 -3.0544,0.72761 -0.776,-0.0448 -1.4552,-0.21586 -1.5093,-0.38012 -0.1437,-0.43659 3.3134,-3.65256 4.9225,-4.57918 0.5366,-0.30901 0.1247,-0.78617 -0.5307,-0.61478 -0.3076,0.0804 -1.4683,0.99482 -2.5794,2.03198 -3.1968,2.984 -4.5761,3.59056 -6.6591,2.92841 -0.6174,-0.19626 -0.6241,-0.21874 -0.1236,-0.41436 0.291,-0.11376 0.8863,-0.22357 1.3229,-0.24403 0.5897,-0.0276 0.6737,-0.0847 0.3268,-0.22186 -0.3805,-0.1505 0.075,-0.71008 2.4613,-3.02412 2.7206,-2.638 2.8738,-2.83944 2.1601,-2.83944 -1.8779,0 -3.5878,1.06924 -3.8562,2.41139 -0.1351,0.67543 -0.2285,0.74878 -0.6595,0.5181 -0.8548,-0.45748 -1.6134,-2.30538 -1.3391,-3.2619 0.3126,-1.09021 1.5645,-2.3483 3.2453,-3.2614 0.751,-0.40801 1.5825,-1.01655 1.8478,-1.35232 0.8858,-1.12104 2.7222,-1.98572 4.5245,-2.13039 2.0576,-0.16517 3.6316,0.18933 7.4779,1.68426 3.7986,1.4764 5.3763,1.68161 7.0923,0.92252 0.701,-0.31007 1.3181,-0.52016 1.3714,-0.46687 0.053,0.0533 -0.03,0.68598 -0.1839,1.40598 -0.5248,2.44723 -1.7343,3.71962 -4.1753,4.39231 l -1.1379,0.31357 0.2053,1.06602 c 0.1129,0.58632 0.2082,3.21798 0.2118,5.84814 l 0.01,4.78211 0.8402,1.63287 0.8401,1.63288 -0.5683,0.39803 c -0.3125,0.21892 -0.7149,0.39804 -0.8941,0.39804 -0.2176,0 -0.1118,0.4614 0.3186,1.38906 0.3544,0.76398 0.7807,1.99696 0.9474,2.73995 l 0.303,1.35089 1.3358,-0.50753 c 1.6292,-0.61905 4.2711,-0.66716 5.5114,-0.10035 0.49,0.22395 1.5325,0.76718 2.3166,1.20717 4.1035,2.30255 8.5125,-0.5268 8.4904,-5.44843 -0.01,-2.26506 -1.651,-4.87795 -3.7289,-5.93802 -2.2995,-1.17312 -5.7887,-0.40336 -7.4014,1.63286 -0.448,0.56571 -0.9095,1.02856 -1.0256,1.02856 -0.4761,0 -1.9719,-1.81266 -2.5887,-3.13716 -0.5726,-1.22936 -0.6441,-1.68562 -0.5393,-3.43958 0.08,-1.34562 0.3083,-2.38662 0.6811,-3.11136 1.5165,-2.94745 3.1862,-3.91261 7.9727,-4.60855 5.0494,-0.73415 16.0316,-4.22709 18.8975,-6.01043 0.5592,-0.34799 1.1676,-0.57484 1.352,-0.5041 0.4623,0.17739 0.9855,2.40088 0.7731,3.28499 -0.4875,2.02849 -2.0245,3.8181 -4.7955,5.58378 -0.764,0.48679 -1.3891,0.92692 -1.3891,0.97805 0,0.19472 4.3938,-1.53987 6.133,-2.42121 0.7245,-0.36711 1.4475,-0.62405 1.6068,-0.57096 0.3936,0.1312 -2.8931,2.28757 -5.4909,3.60251 -1.1641,0.58928 -2.0252,1.07641 -1.9136,1.08251 0.5735,0.0313 5.5163,-1.17088 6.6694,-1.62217 0.7313,-0.2862 1.6978,-0.87434 2.1477,-1.30699 0.9503,-0.91375 1.203,-0.76156 1.6765,1.00977 0.5924,2.21572 -0.508,4.33892 -2.9642,5.71909 -0.6148,0.3455 -2.5139,1.20501 -4.2201,1.91004 -1.7063,0.70502 -3.0666,1.31756 -3.023,1.36119 0.1177,0.11768 7.4762,-1.19797 9.2062,-1.64599 1.752,-0.45375 2.0074,-0.47443 1.668,-0.1351 -0.4302,0.43024 -3.8124,1.63785 -7.1302,2.54586 l -3.175,0.86893 4.3656,0.0124 c 4.6919,0.0133 6.3259,-0.21701 7.4802,-1.05442 0.9252,-0.67123 1.2515,-0.47159 1.2496,0.76463 0,2.77463 -1.4631,4.68623 -4.1295,5.41086 -0.8567,0.2328 -3.1962,0.68806 -5.1991,1.01168 -2.0028,0.32362 -3.5927,0.63718 -3.533,0.6968 0.1761,0.17614 9.1677,1.12818 10.6803,1.13084 0.764,0.001 1.389,0.10975 1.389,0.24092 0,0.35819 -5.6615,0.64055 -9.1942,0.45856 l -3.1089,-0.16016 2.6458,0.80242 c 3.4766,1.05434 6.8988,1.82285 8.1491,1.82997 0.553,0.003 1.3566,-0.17592 1.786,-0.39794 l 0.7806,-0.40367 v 0.80904 c 0,1.71987 -1.3508,3.80521 -3.0427,4.69745 -1.0849,0.57209 -3.3988,0.50304 -6.5729,-0.19616 -1.4322,-0.3155 -2.6599,-0.51778 -2.7282,-0.44951 -0.068,0.0683 1.937,1.14857 4.4562,2.40066 2.5191,1.25208 4.3953,2.27665 4.1692,2.27681 -0.4363,3.1e-4 -4.4425,-1.32211 -7.5264,-2.48444 -1.7887,-0.67415 -1.8251,-0.67756 -1.0651,-0.0996 0.4329,0.32912 1.2977,1.04041 1.9219,1.58065 1.2896,1.11612 4.1083,3.14241 5.0963,3.66355 0.3638,0.1919 1.2293,0.47844 1.9234,0.63674 l 1.2619,0.28784 -0.7784,1.22733 c -0.4498,0.70926 -1.2715,1.51632 -1.9466,1.91197 -2.3741,1.39133 -4.7887,0.73054 -9.6078,-2.62934 -1.3514,-0.94221 -2.5303,-1.7131 -2.6198,-1.7131 -0.2102,0 2.7594,3.86844 5.6603,7.37363 1.2488,1.50889 2.508,3.0567 2.7983,3.43959 1.6721,2.20546 -3.8713,-3.15744 -8.4071,-8.13345 -0.9779,-1.07274 -1.7766,-1.84665 -1.7751,-1.7198 0.01,0.46385 6.1482,11.90522 6.9627,12.96934 0.4618,0.60336 1.2564,1.37231 1.7657,1.70877 0.5093,0.33646 0.9769,0.6477 1.039,0.69165 0.1994,0.14103 -0.8723,0.8767 -2.0531,1.40938 -2.5257,1.1393 -5.9199,0.33831 -7.6304,-1.80064 -0.4352,-0.54423 -2.727,-4.08514 -5.0927,-7.86868 -4.854,-7.76296 -5.2406,-8.31518 -6.4865,-9.26542 -3.2794,-2.50134 -7.9808,0.74817 -8.5179,5.88744 -0.527,5.04155 2.7554,10.16639 7.5836,11.84051 0.6501,0.22541 1.322,0.46028 1.4933,0.52195 0.224,0.0807 0.1683,0.48837 -0.1985,1.45364 -0.9441,2.48472 -0.4785,5.45449 1.178,7.51389 0.465,0.5781 0.478,0.57177 3.0231,-1.47583 1.063,-0.85518 2.6392,-1.8613 3.5028,-2.23582 1.3929,-0.60409 1.6614,-0.64312 2.3793,-0.34578 0.445,0.18434 0.9821,0.66966 1.1935,1.0785 0.6556,1.26783 0.3973,3.71275 -0.277,2.62171 -0.09,-0.14552 -0.5614,-0.26459 -1.0476,-0.26459 -0.6555,0 -1.3618,0.35914 -2.7317,1.38907 l -1.8475,1.38906 2.8134,0.20074 c 1.5473,0.1104 3.15,0.33703 3.5615,0.50361 1.5851,0.64173 1.876,2.27242 0.6413,3.59513 -0.6427,0.68859 -0.9926,0.76068 -0.9926,0.20454 0,-0.21493 -0.2679,-0.56598 -0.5953,-0.78012 -0.7277,-0.47593 -3.7599,-0.78697 -4.7778,-0.4901 l -0.743,0.21669 1.2333,0.92059 c 1.2654,0.94454 3.0308,3.2957 3.0308,4.03653 0,0.74528 -1.3108,2.01717 -2.263,2.1958 -1.2149,0.22793 -1.8796,-0.0211 -1.4471,-0.54214 1.2998,-1.56614 -4.2657,-6.48567 -8.5607,-7.56718 -1.5135,-0.38111 -3.6042,0.11505 -3.6042,0.85535 0,0.97737 -0.7871,0.71086 -1.6658,-0.56404 -0.8364,-1.21353 -0.5179,-2.35115 0.9205,-3.28716 0.7124,-0.46362 0.8326,-0.46395 4.1848,-0.0114 l 0.9261,0.12501 -1.0925,-1.00408 c -0.6008,-0.55225 -1.7348,-1.31862 -2.5199,-1.70306 -1.9915,-0.97512 -7.0663,-2.85783 -7.7032,-2.85783 -1.3526,0 -4.1012,2.63123 -4.6451,4.44682 -0.1712,0.57119 -0.3112,1.54669 -0.3112,2.16777 0,2.12205 0.5122,3.18382 2.5066,5.19573 l 1.872,1.88844 -1.2904,0.15283 c -1.6711,0.19792 -3.4509,1.25413 -4.3159,2.56123 -0.6034,0.9118 -0.6735,1.24611 -0.5774,2.75495 0.087,1.36537 0.2424,1.85965 0.7588,2.41237 1.9647,2.10292 4.9346,1.89849 6.6813,-0.45991 0.2909,-0.39275 0.5817,-1.30561 0.6533,-2.05052 0.071,-0.73844 0.2175,-1.34262 0.3256,-1.34262 0.3986,0 0.8557,2.41403 0.7455,3.93748 -0.1315,1.81717 -1.0432,3.43713 -2.409,4.2805 -0.7683,0.47434 -1.3974,0.68474 -4.7843,1.59995 -1.2787,0.34553 -2.2828,1.32163 -2.2828,2.21912 0,0.97384 0.8238,2.46147 2.2277,4.02293 0.6666,0.74139 1.2119,1.48056 1.2119,1.64261 0,0.62045 -4.8108,9.87088 -5.0186,9.64997 -0.278,-0.29555 -4.771,-9.22515 -4.771,-9.48212 0,-0.10519 0.5219,-0.80556 1.1596,-1.55637 1.3808,-1.62548 2.28,-3.23993 2.28,-4.09353 0,-0.89071 -1.3141,-2.07681 -2.6701,-2.41012 -3.8912,-0.95638 -5.3523,-1.81698 -6.3264,-3.72632 -0.8036,-1.57524 -0.9185,-2.93131 -0.3907,-4.60952 0.2551,-0.81102 0.5514,-1.47458 0.6585,-1.47458 0.1071,0 0.2528,0.60418 0.3237,1.34262 0.1363,1.41815 0.6882,2.37222 1.8923,3.27124 0.5602,0.41823 1.1264,0.54551 2.4267,0.54551 1.6043,0 1.7491,-0.0531 2.6795,-0.9835 0.8909,-0.89092 0.9927,-1.14 1.0818,-2.64584 0.086,-1.44912 0.01,-1.79945 -0.6054,-2.73146 -0.9498,-1.44281 -2.1221,-2.19238 -4.0409,-2.58378 l -1.6042,-0.32722 1.2722,-1.05264 c 0.6998,-0.57895 1.6732,-1.6345 2.1632,-2.34566 0.8335,-1.2097 0.8906,-1.43135 0.8863,-3.43958 0,-1.689 -0.1272,-2.3775 -0.5797,-3.22995 -0.6482,-1.22094 -2.0927,-2.58722 -3.3888,-3.20529 -0.8447,-0.40281 -0.9627,-0.37972 -4.2687,0.83531 -1.8699,0.68727 -4.0742,1.60767 -4.8982,2.04534 -1.4042,0.74572 -2.8315,1.94368 -2.5817,2.16682 0.061,0.0547 0.9761,-0.007 2.0332,-0.13613 1.5497,-0.18995 2.0734,-0.15723 2.7041,0.16894 1.5478,0.80041 1.7506,2.2795 0.5067,3.69624 -0.8315,0.94702 -1.2963,1.01318 -1.2963,0.18451 0,-0.57606 -2.0704,-1.23198 -3.1079,-0.98462 -2.3688,0.5648 -4.3504,1.62398 -6.4805,3.46375 -2.408,2.0799 -3.1607,3.2657 -2.6211,4.12968 0.4053,0.64897 -0.1126,0.88717 -1.4026,0.64516 -0.8749,-0.16414 -2.2629,-1.4324 -2.2629,-2.06774 0,-0.65087 1.7572,-2.95632 3.0658,-4.02229 l 1.4019,-1.14193 -1.3078,-0.17348 c -2.5753,-0.34163 -4.6306,0.25112 -5.0807,1.46531 -0.1007,0.27174 -0.3141,0.19074 -0.8433,-0.32012 -0.9703,-0.93681 -1.0011,-2.23833 -0.072,-3.0377 0.8337,-0.71704 3.8564,-1.28572 5.9231,-1.11433 0.7862,0.0652 1.3359,0.0407 1.2216,-0.0544 -2.3875,-1.98782 -3.8654,-2.91482 -4.6471,-2.91482 -0.4833,0 -1.0197,0.1409 -1.1919,0.31309 -0.4655,0.46552 -0.7123,0.0491 -0.6809,-1.14859 0.033,-1.25502 0.7523,-2.3383 1.7805,-2.68104 0.976,-0.32532 3.4511,0.74405 5.2899,2.28551 0.7471,0.62631 1.7604,1.41646 2.2518,1.75589 l 0.8933,0.61715 0.4963,-0.63715 c 0.9434,-1.21129 1.8902,-3.43558 1.8805,-4.41774 -0.01,-0.54005 -0.3193,-1.66991 -0.6976,-2.5108 -0.3782,-0.8409 -0.6878,-1.57581 -0.6878,-1.63313 0,-0.0573 0.4465,-0.24878 0.9922,-0.42545 4.507,-1.45915 7.5367,-4.97711 8.3035,-9.64169 0.4106,-2.49823 0.01,-4.37406 -1.389,-6.4656 -1.6963,-2.54016 -3.6746,-3.40271 -5.876,-2.56198 -0.6267,0.23934 -1.5062,0.82065 -1.9544,1.29179 -0.7918,0.83216 -3.8645,5.5211 -8.1598,12.45183 -3.2937,5.31445 -4.8089,6.46983 -8.1347,6.20287 -1.616,-0.12972 -2.6656,-0.52605 -3.7578,-1.41891 -0.4206,-0.34388 -0.4517,-0.46122 -0.1517,-0.57216 0.8961,-0.33129 2.737,-2.38591 3.8151,-4.25786 0.6411,-1.11328 2.1949,-4.10774 3.4528,-6.65436 l 2.2871,-4.63021 -1.392,1.5875 c -2.1673,2.47155 -7.3948,7.78839 -8.2759,8.41727 -0.6346,0.45294 -0.5157,0.22287 0.5927,-1.14723 2.6107,-3.22728 7.4771,-9.48276 7.4771,-9.61151 0,-0.0708 -1.2799,0.73879 -2.8443,1.79901 -3.9825,2.6991 -5.297,3.32059 -7.0234,3.32059 -1.1344,0 -1.6594,-0.15945 -2.6201,-0.79578 -1.0638,-0.70468 -2.8457,-2.78605 -2.5666,-2.9981 0.058,-0.0441 0.7358,-0.21961 1.5061,-0.3901 1.5611,-0.34547 3.4889,-1.5572 6.9845,-4.39003 2.336,-1.8931 2.718,-2.35877 1.3629,-1.66109 -1.2878,0.66301 -7.4605,2.82677 -8.0641,2.82677 -0.3153,0 1.4811,-1.01951 3.992,-2.26557 2.511,-1.24607 4.5018,-2.32927 4.4239,-2.40712 -0.078,-0.0779 -1.3106,0.13154 -2.7394,0.46532 -3.3513,0.78285 -5.433,0.80716 -6.8313,0.0798 -1.3137,-0.68339 -2.5271,-2.55973 -2.7111,-4.19246 l -0.1351,-1.19836 0.8569,0.42747 c 1.2393,0.61826 3.3556,0.37117 8.207,-0.95824 2.2556,-0.61807 4.1213,-1.14033 4.146,-1.16057 0.025,-0.0202 -2.4755,-0.0364 -5.5562,-0.0359 -3.9422,6.2e-4 -5.758,-0.0947 -6.1304,-0.3218 -0.4525,-0.27596 -0.2865,-0.32385 1.1464,-0.33073 2.0459,-0.01 9.241,-0.75978 9.9499,-1.0371 0.3435,-0.13435 -0.6619,-0.399 -3.0427,-0.80091 -6.2647,-1.05756 -7.6135,-1.61086 -8.6335,-3.54152 -0.4431,-0.83859 -0.6546,-3.66689 -0.3008,-4.02188 0.098,-0.098 0.5144,0.0662 0.926,0.36494 1.1755,0.85307 2.7906,1.07887 7.6276,1.06637 l 4.4979,-0.0116 -3.4395,-0.87607 c -3.1536,-0.80322 -5.4946,-1.59253 -6.8082,-2.29557 -0.8985,-0.48084 -0.3122,-0.53894 1.2888,-0.12772 1.9257,0.49466 9.1252,1.80226 9.2478,1.67964 0.05,-0.0495 -1.5366,-0.78039 -3.5248,-1.62412 -5.005,-2.12397 -5.9695,-2.84663 -6.6714,-4.99852 -0.2558,-0.78439 -0.2584,-1.28824 -0.012,-2.31592 0.3802,-1.5846 0.6501,-1.79674 1.406,-1.1048 1.0255,0.93876 2.8248,1.67277 5.6988,2.32474 1.5479,0.35115 2.993,0.63555 3.2113,0.63199 0.2183,-0.004 -0.796,-0.62757 -2.254,-1.38667 -2.8573,-1.48764 -5.3577,-3.16447 -4.9309,-3.30673 0.1451,-0.0484 0.8662,0.21727 1.6024,0.59033 0.7362,0.37307 1.9363,0.91563 2.6668,1.20569 0.7305,0.29007 1.9235,0.76379 2.6511,1.0527 0.7276,0.28892 1.3229,0.47819 1.3229,0.4206 0,-0.0576 -0.8036,-0.6095 -1.7859,-1.22646 -3.4555,-2.17037 -4.5457,-3.46052 -4.8021,-5.68261 l -0.1588,-1.37678 -7.6929,1.65696 c -4.2311,0.91133 -10.5045,2.32469 -13.9408,3.14081 -3.4363,0.81611 -6.3146,1.48384 -6.3961,1.48384 -0.2568,0 -0.1555,12.94869 0.1272,16.27188 1.0534,12.3811 4.5266,24.13977 10.305,34.8886 10.7543,20.00464 29.3699,37.24947 55.8434,51.7312 2.6847,1.46861 4.9366,2.67175 5.0042,2.67364 0.068,0.002 1.794,-0.90912 3.8364,-2.02446 z m -3.8271,-28.03957 V 470.6667 l -1.0465,1.18889 c -1.0027,1.13917 -4.2522,3.11895 -5.1192,3.11895 -0.2244,0 0.3203,0.72577 1.241,1.65364 3.1311,3.15559 3.4211,6.69594 0.8361,10.20739 l -1.1641,1.58138 1.4935,0.88556 c 2.0954,1.2424 3.0437,2.67842 3.1797,4.81542 0.1678,2.63515 -0.9414,4.3366 -3.3625,5.1578 -1.9011,0.64481 -4.0521,0.0694 -5.4734,-1.46425 l -0.6173,-0.66612 0.2447,0.8533 c 0.5706,1.98973 1.6917,2.84085 4.8604,3.68999 2.5508,0.68356 3.3953,1.10502 3.9692,1.98079 1.0985,1.67656 0.6853,3.33315 -1.5007,6.01702 l -1.2213,1.49944 1.7167,3.45786 c 0.9442,1.90182 1.7723,3.45786 1.8402,3.45786 0.068,0 0.1235,-10.67286 0.1235,-23.71746 z m -18.5684,-19.6514 c 0.172,-0.49327 0.1466,-1.02287 -0.081,-1.68398 l -0.3315,-0.9644 1.8931,-1.45001 c 1.0412,-0.7975 2.2607,-1.9075 2.7101,-2.46666 0.9668,-1.20305 2.0644,-3.32455 2.2961,-4.43796 0.111,-0.53388 -0.067,-0.31731 -0.5426,0.66146 -0.9754,2.00563 -4.2368,5.21405 -6.2938,6.19163 -0.8731,0.41496 -1.6187,0.78054 -1.6568,0.8124 -0.038,0.0319 0.1837,0.62998 0.4929,1.32914 0.4036,0.91234 0.5253,1.59975 0.4312,2.43505 -0.1253,1.1116 -0.1096,1.1443 0.35,0.72837 0.2646,-0.23951 0.594,-0.75928 0.732,-1.15504 z m -20.1491,-5.44112 c 0.9448,-0.66176 2.3802,-3.01345 7.7551,-12.70564 1.2105,-2.18281 2.6553,-4.71289 3.2106,-5.6224 0.5554,-0.9095 0.9486,-1.65364 0.8739,-1.65364 -0.4534,0 -1.7324,0.89636 -2.1651,1.51736 -0.2804,0.40238 -1.7929,3.17238 -3.361,6.15555 -3.9349,7.48563 -5.6482,10.54599 -6.5542,11.70781 -0.8068,1.03457 -0.7129,1.26891 0.2407,0.60096 z m 77.7824,-0.76647 c -0.7973,-1.04454 -2.7122,-4.50497 -7.1925,-12.99751 -2.0755,-3.93413 -2.9701,-5.27286 -3.8849,-5.81322 -1.0235,-0.60461 -1.1156,-0.43296 -0.3625,0.67543 0.629,0.92561 1.4376,2.3484 5.1756,9.10654 3.3665,6.08655 4.8068,8.41946 5.7582,9.32657 1.2805,1.22092 1.5461,1.06463 0.5061,-0.29781 z m -37.3458,-2.57301 c 2.2108,-1.40209 4.4462,-3.86389 5.5016,-6.05887 1.5121,-3.14467 1.8348,-4.67209 1.9724,-9.33295 l 0.1231,-4.17358 -3.0044,0.20483 c -3.8942,0.26548 -8.0225,0.25973 -12.0664,-0.0168 l -3.2412,-0.22164 v 3.34165 c 0,3.86947 0.4856,6.62015 1.6043,9.08742 0.9979,2.20064 2.8125,4.721 4.1974,5.82972 1.0476,0.83873 3.1595,2.15054 3.4731,2.15736 0.081,0.002 0.7287,-0.36595 1.4401,-0.81711 z m -2.3805,-0.0175 c -1.574,-0.8702 -3.2838,-2.71758 -4.682,-4.31402 -0.4991,-0.56984 -1.3061,-1.85961 -1.3061,-1.85961 l 6.6715,-0.0708 c 3.6694,-0.0389 6.7228,-0.0195 6.7855,0.0432 0.3878,0.38778 -2.5238,3.84709 -4.4682,5.30871 -1.6614,1.24887 -2.1131,1.38324 -3.0007,0.89251 z m -7.9367,-13.51223 c -0.091,-0.62044 -0.128,-2.1401 -0.083,-3.37703 l 0.082,-2.24896 1.9844,0.1323 c 1.0914,0.0728 4.0679,0.13229 6.6145,0.13229 2.5467,0 5.5827,-0.0595 6.7469,-0.13229 l 2.1167,-0.1323 v 3.3073 3.30729 l -8.6484,0.0697 -8.6483,0.0697 z m -36.2487,2.73657 c 0.5821,-0.26915 3.3205,-2.18904 6.0854,-4.26642 2.7649,-2.07738 5.5628,-4.12617 6.2177,-4.55287 l 1.1906,-0.77582 -1.0122,0.13988 c -1.3832,0.19113 -2.5094,0.9302 -7.6529,5.02234 -2.4376,1.93924 -4.9067,3.75339 -5.4871,4.03144 -1.0414,0.49894 -1.3747,0.90794 -0.7306,0.89663 0.1819,-0.003 0.807,-0.22603 1.3891,-0.49518 z m 91.4932,0.33311 c 0.092,-0.0923 -0.478,-0.55681 -1.2675,-1.03218 -0.7894,-0.47536 -2.7023,-1.85833 -4.2509,-3.07327 -4.9037,-3.84716 -5.7746,-4.47419 -7.129,-5.13258 -2.429,-1.18078 -2.4207,-0.69772 0.016,0.96359 1.3006,0.88652 2.841,1.99989 3.4231,2.47416 1.9365,1.5778 7.1323,5.24159 7.9375,5.59704 0.9264,0.40898 1.0455,0.42803 1.2703,0.20324 z m -88.9802,-12.05952 c 1.9642,-0.4399 4.7622,-1.1305 6.2177,-1.53468 1.4555,-0.40418 3.0451,-0.81885 3.5324,-0.9215 1.3715,-0.28888 0.5926,-0.73281 -1.0576,-0.60276 -0.7788,0.0614 -3.8551,0.79676 -6.8364,1.63419 -2.9812,0.83743 -6.2317,1.59062 -7.2233,1.67375 -1.7534,0.147 -2.0602,0.4352 -0.7177,0.67433 0.9076,0.16168 1.9384,0.005 6.0849,-0.92333 z m 91.7621,0.6215 c 0.2158,-0.13684 -0.3372,-0.28266 -1.4552,-0.38375 -1.5444,-0.13965 -6.5078,-1.38123 -11.707,-2.92852 -1.545,-0.45978 -3.8662,-0.57236 -4.0972,-0.19871 -0.1376,0.22269 1.0937,0.56604 9.6353,2.68694 3.9664,0.98485 6.8748,1.29921 7.6241,0.82404 z m -57.3681,-7.10854 c 0.5446,-1.17569 1.4643,-2.3729 3.2049,-4.17222 l 2.4412,-2.5234 -2.3823,1.5827 c -3.961,2.63164 -5.3781,4.69318 -5.3781,7.82399 0,0.60418 -0.059,1.15718 -0.1304,1.22889 -0.072,0.0717 -0.9928,-0.15885 -2.0468,-0.51236 -2.6421,-0.88611 -4.2097,-0.74804 -6.8725,0.60533 -1.1211,0.56976 -2.0092,1.06503 -1.9736,1.10059 0.036,0.0356 1.1909,-0.24512 2.5674,-0.62375 2.216,-0.60954 2.6866,-0.6574 4.1074,-0.41774 0.8826,0.14887 2.4304,0.63509 3.4396,1.0805 l 1.8349,0.80984 0.2123,-2.16678 c 0.1456,-1.4855 0.4524,-2.6852 0.976,-3.81559 z m -24.0747,-3.39177 c 0,-0.0802 -0.4129,-0.31831 -0.9176,-0.52917 -0.7209,-0.30121 -2.4078,-0.38462 -7.8713,-0.38918 -6.3028,-0.005 -7.0594,-0.0537 -8.0815,-0.51764 -1.0889,-0.49425 -1.1185,-0.49484 -0.8629,-0.0172 0.2409,0.45015 1.7136,1.1381 3.0489,1.42422 0.794,0.17014 14.6844,0.19756 14.6844,0.029 z m 80.8637,-0.57054 c 1.5457,-0.82681 1.7786,-1.53673 0.2812,-0.85687 -0.9982,0.45318 -1.8004,0.50382 -8.0623,0.50906 -5.4635,0.005 -7.1505,0.088 -7.8713,0.38918 -0.5047,0.21086 -0.9176,0.45705 -0.9176,0.54709 0,0.09 3.4826,0.12588 7.7391,0.0797 7.3904,-0.0803 7.7882,-0.11038 8.8309,-0.66811 z m -79.8215,-6.84363 c -0.6958,-0.83844 -2.3332,-1.39239 -6.8631,-2.32182 -5.855,-1.20133 -7.179,-1.60111 -8.2293,-2.48491 -0.737,-0.6201 -0.8071,-0.63897 -0.5434,-0.14628 0.7847,1.46628 2.0851,1.96305 10.7571,4.10934 2.6194,0.64829 4.8664,1.19697 4.9933,1.21929 0.127,0.0223 0.075,-0.14671 -0.1146,-0.37562 z m 69.2046,-1.41934 c 5.5815,-1.28422 6.9487,-1.73678 7.8714,-2.60551 1.1176,-1.05222 0.8723,-1.14268 -0.7362,-0.27148 -1.0911,0.59099 -2.758,1.05669 -6.5484,1.82948 -6.0442,1.23231 -6.547,1.38423 -7.3261,2.21362 l -0.5995,0.63811 1.4204,-0.38465 c 0.7813,-0.21155 3.4446,-0.85036 5.9184,-1.41957 z m -40.6183,-1.35981 c 0.6523,-0.29585 1.3964,-0.7284 1.6537,-0.96124 0.5101,-0.46166 0.6541,-2.1934 0.1824,-2.1934 -0.294,0 -4.0678,2.99127 -4.3501,3.44814 -0.2765,0.44729 1.282,0.26535 2.514,-0.2935 z m -3.7623,-2.36084 c 0.7311,-0.58206 1.4042,-1.25375 1.4959,-1.49264 0.1452,-0.37834 0.1062,-0.38791 -0.3024,-0.0742 -1.0339,0.79369 -2.9464,2.62516 -2.7413,2.62516 0.1203,0 0.8168,-0.47623 1.5478,-1.05828 z m -15.335,-0.56155 c 0.071,-0.61316 -0.031,-0.70722 -0.926,-0.85174 -1.5982,-0.25803 -15.638,-5.15684 -17.6089,-6.14415 -0.9823,-0.49207 -1.7859,-0.79965 -1.7859,-0.68351 0,0.82099 2.9445,2.34148 8.4666,4.37197 1.8191,0.66885 5.0337,1.86055 7.1438,2.64821 2.11,0.78767 4.015,1.41331 4.2333,1.39031 0.2183,-0.023 0.433,-0.35199 0.4771,-0.73109 z m 51.7781,-2.09171 c 7.9187,-2.96658 9.6891,-3.72101 10.9005,-4.64498 1.4153,-1.07952 1.0946,-1.54867 -0.4165,-0.60929 -1.274,0.79197 -12.6202,4.94924 -16.9501,6.21055 -1.2281,0.35774 -2.256,0.67753 -2.2843,0.71066 -0.028,0.0331 0.051,0.33108 0.1762,0.66211 0.2968,0.78476 0.1722,0.81861 8.5742,-2.32905 z m -101.5812,-0.63433 c 17.0803,-4.21231 37.6115,-8.38827 53.5402,-10.88988 14.7264,-2.31279 32.739,-4.54692 43.4108,-5.38433 17.2789,-1.35586 27.9719,-1.89544 41.5396,-2.09613 l 11.5094,-0.17024 0.081,-1.12448 0.081,-1.12448 -5.6376,0.005 c -22.0095,0.018 -43.2212,1.36906 -68.873,4.38694 -5.1799,0.60941 -17.9574,2.48472 -26.0615,3.82498 -16.4805,2.72554 -32.1437,5.9938 -52.7267,11.00192 l -3.9112,0.95163 0.075,1.14802 c 0.065,0.99395 0.1457,1.13216 0.6038,1.02982 0.2911,-0.065 3.157,-0.76628 6.3688,-1.55837 z m 62.1617,0.57556 c 0.5008,-1.14143 2.0976,-1.66106 4.8782,-1.58748 2.7673,0.0732 2.7775,0.0403 0.4256,-1.37151 -2.0583,-1.23558 -3.1417,-1.25221 -4.6891,-0.072 -1.2636,0.96381 -1.7104,1.86924 -1.4448,2.92765 0.2147,0.85546 0.4854,0.88914 0.8301,0.1033 z m 7.8018,-5.38193 0.9261,-0.34953 -1.6537,-0.0116 c -0.9095,-0.006 -1.6536,0.0836 -1.6536,0.20005 0,0.42541 0.6574,0.85357 1.0509,0.68442 0.2223,-0.0956 0.821,-0.33109 1.3303,-0.52333 z m -60.6694,-4.17344 c 0.037,-0.0371 0.1928,-0.95083 0.3459,-2.03043 0.1531,-1.07959 0.3642,-2.03897 0.4692,-2.13195 0.1049,-0.093 0.557,-0.2372 1.0046,-0.3205 0.7792,-0.14501 0.8512,-0.0786 1.692,1.56056 0.4829,0.94161 0.9573,1.761 1.0542,1.82086 0.1606,0.0993 2.3996,-0.36652 2.6191,-0.5449 0.052,-0.0419 -0.3556,-0.90801 -0.9048,-1.92475 l -0.9984,-1.8486 1.2355,-1.20077 c 1.1382,-1.10627 1.2355,-1.30241 1.2355,-2.49254 0,-2.43985 -1.2416,-2.76196 -6.0855,-1.57882 l -2.5135,0.61395 -0.7052,4.75647 c -0.9538,6.43384 -0.9857,5.94381 0.3669,5.6399 0.6143,-0.13803 1.1473,-0.28134 1.1845,-0.31848 z m 1.017,-6.98109 c 0.2915,-1.7279 0.3756,-1.84661 1.5393,-2.17243 1.739,-0.48687 2.6652,-0.29631 2.7651,0.56891 0.1126,0.97525 -0.6468,1.65934 -2.4115,2.17237 -2.0449,0.59444 -2.087,0.58178 -1.8929,-0.56885 z m 15.392,3.37052 c 2.1303,-0.43816 3.8945,-0.82511 3.9205,-0.85989 0.026,-0.0348 0.1212,-0.45178 0.2116,-0.92668 0.1507,-0.79138 0.1152,-0.85174 -0.425,-0.72309 -2.3437,0.55819 -5.3523,1.14517 -5.4367,1.06074 -0.056,-0.056 -0.021,-0.69105 0.078,-1.41127 l 0.1801,-1.3095 1.633,-0.31206 c 3.3948,-0.64876 3.6174,-0.74786 3.6174,-1.61094 0,-0.43096 -0.055,-0.78355 -0.1221,-0.78355 -0.067,0 -1.1556,0.241 -2.4189,0.53556 -1.2633,0.29456 -2.3484,0.48407 -2.4114,0.42113 -0.063,-0.063 -0.033,-0.65532 0.066,-1.3164 l 0.1803,-1.20195 1.4932,-0.30076 c 4.5085,-0.90809 4.3693,-0.85378 4.5587,-1.77946 0.096,-0.47082 0.092,-0.85604 -0.011,-0.85604 -0.3141,0 -8.0768,1.62638 -8.16,1.70963 -0.1144,0.11436 -1.3772,9.15854 -1.3772,9.86323 0,0.32889 0.1237,0.59797 0.2748,0.59797 0.1512,0 2.0178,-0.3585 4.1481,-0.79667 z m 15.2886,-3.15577 c 0.582,-0.25338 1.4939,-0.94434 2.0263,-1.53545 1.0584,-1.17502 1.2648,-1.89743 1.8977,-6.6411 l 0.3651,-2.73629 -1.2185,0.18135 c -0.6702,0.0997 -1.2275,0.19998 -1.2384,0.22275 -0.011,0.0228 -0.2649,1.74675 -0.5644,3.83108 -0.4902,3.41133 -0.6183,3.86668 -1.2833,4.56077 -1.237,1.29114 -3.2727,1.29479 -3.6815,0.007 -0.089,-0.27887 0.026,-2.02193 0.254,-3.87347 0.2282,-1.85154 0.3796,-3.40179 0.3364,-3.44501 -0.043,-0.0432 -0.5651,-0.0133 -1.1598,0.0665 l -1.0813,0.14503 -0.4642,3.81388 c -0.5784,4.75304 -0.4323,5.26708 1.7108,6.01632 0.6502,0.22731 2.9659,-0.11877 4.1011,-0.61292 z m 12.9657,-2.17823 c 0.049,-0.0494 0.3422,-1.9892 0.6507,-4.31077 0.3085,-2.32156 0.5992,-4.25932 0.646,-4.30612 0.047,-0.0468 0.7772,-0.19773 1.6231,-0.3354 1.5918,-0.25908 1.9629,-0.5368 1.9698,-1.47443 0,-0.5224 -0.079,-0.53888 -1.6496,-0.32726 -2.6594,0.35837 -7.3416,1.18542 -7.4769,1.32069 -0.068,0.0684 -0.1957,0.48085 -0.2828,0.91648 l -0.1584,0.79206 1.6055,-0.26552 c 0.883,-0.14604 1.6557,-0.21349 1.7171,-0.14989 0.062,0.0636 -0.1105,1.84203 -0.382,3.95208 -0.2716,2.11005 -0.498,4.00097 -0.5032,4.20203 -0.01,0.2758 0.2558,0.32999 1.0708,0.22068 0.5941,-0.0797 1.1205,-0.18527 1.1699,-0.23463 z m 13.8895,-1.88812 2.5135,-0.31936 0.079,-0.94206 0.079,-0.94205 -2.7945,0.38946 c -1.537,0.2142 -2.8639,0.32007 -2.9487,0.23526 -0.085,-0.0848 0.095,-1.87481 0.4002,-3.9778 0.3048,-2.10298 0.5543,-3.97219 0.5543,-4.15378 0,-0.2398 -0.3051,-0.28139 -1.1146,-0.15195 -0.613,0.098 -1.1486,0.21234 -1.1903,0.25404 -0.094,0.094 -1.3988,9.39856 -1.3991,9.97647 -10e-5,0.36284 0.2223,0.38775 1.6535,0.18519 0.9095,-0.12873 2.7847,-0.37776 4.1672,-0.55342 z m 8.6981,-1.14241 c 0.6894,-0.13787 0.8269,-0.28829 0.8269,-0.90483 0,-0.61977 0.7975,-6.72191 1.1755,-8.99415 0.109,-0.65487 0.081,-0.66809 -1.1227,-0.52917 l -1.2344,0.14248 -0.7189,5.02708 c -0.3954,2.7649 -0.7249,5.11638 -0.7321,5.22552 -0.016,0.24171 0.6972,0.25478 1.8057,0.0331 z m 7.6851,-0.89296 c 0.7158,0 0.7356,-0.0433 1.0556,-2.31511 0.4936,-3.50386 0.5969,-4.03597 0.7807,-4.02265 0.093,0.007 1.062,1.31683 2.1534,2.91133 l 1.9843,2.89908 1.0584,-0.16343 c 0.5821,-0.0899 1.0984,-0.19979 1.1473,-0.24422 0.1536,-0.13947 1.4576,-10.1743 1.3377,-10.29418 -0.063,-0.0627 -0.606,-0.0479 -1.2074,0.0327 l -1.0935,0.14667 -0.3117,2.68062 c -0.3683,3.16736 -0.4875,3.66656 -0.8253,3.45778 -0.1393,-0.0861 -1.0953,-1.41158 -2.1245,-2.94549 l -1.8712,-2.78893 -1.0533,0.14128 c -0.5793,0.0777 -1.1029,0.19085 -1.1635,0.25145 -0.1249,0.1249 -1.4331,9.32729 -1.4334,10.08294 -10e-5,0.33935 0.1293,0.44165 0.4183,0.33072 0.2302,-0.0883 0.7468,-0.16059 1.1481,-0.16059 z m 20.547,-2.2184 c 1.9727,-0.91856 2.4306,-1.60947 3.1326,-4.72692 l 0.1639,-0.7276 -1.6587,0.0313 c -2.6454,0.0499 -3.2322,0.24621 -3.3318,1.11447 -0.084,0.7279 -0.057,0.74425 1.0583,0.6602 1.0187,-0.0767 1.1346,-0.0282 1.0585,0.44299 -0.047,0.29104 -0.4214,0.87152 -0.832,1.28995 -1.0229,1.04244 -2.7261,1.12262 -3.5016,0.16487 -0.4532,-0.55959 -0.504,-0.88287 -0.3511,-2.2338 0.3125,-2.76253 1.1377,-4.01043 2.8338,-4.28567 0.7227,-0.11729 1.0736,-0.007 1.7246,0.54047 1.0157,0.85459 2.9899,0.99816 2.9899,0.21742 0,-1.35368 -1.7994,-2.51495 -3.8681,-2.49636 -2.8649,0.0257 -5.19,1.81114 -5.8144,4.46471 -0.4364,1.85484 -0.4763,3.89752 -0.09,4.61892 0.8671,1.62016 4.026,2.07067 6.4863,0.92505 z m -89.7871,-0.82473 c 4.9372,-1.10255 5.7453,-1.39958 5.7574,-2.11625 0,-0.14552 0.7835,-5.68193 1.7356,-12.30312 0.9521,-6.6212 1.8355,-12.8567 1.9632,-13.85667 0.1277,-0.99996 0.3307,-1.91483 0.4513,-2.03304 0.1205,-0.11821 3.1318,-0.82359 6.6916,-1.56753 3.5599,-0.74393 6.4922,-1.37688 6.5163,-1.40654 0.024,-0.0297 0.2423,-1.04505 0.4849,-2.25643 0.5625,-2.80915 1.3164,-4.49339 3.0125,-6.73012 1.1374,-1.50002 1.2617,-1.76661 0.7695,-1.65095 -0.3228,0.0759 -4.7541,0.96271 -9.8473,1.97079 -9.549,1.88998 -13.387,2.72281 -23.1511,5.02363 -6.8374,1.61119 -10.5778,2.56941 -10.7666,2.75821 -0.2233,0.2233 -1.4897,9.69718 -1.319,9.86782 0.118,0.11808 12.601,-2.75077 15.3643,-3.53107 0.4667,-0.13176 0.488,-0.0273 0.3142,1.54205 -0.1998,1.80481 -3.5038,25.18604 -3.7617,26.62037 -0.1006,0.55968 -0.049,0.85989 0.1485,0.85989 0.1666,0 2.7031,-0.53597 5.6364,-1.19104 z m 105.571,0.0309 c 0.1069,-0.16229 0.1962,-0.56781 0.1985,-0.90117 v -0.6061 l -3.0429,0.18193 -3.043,0.18192 0.1698,-1.29561 c 0.093,-0.71259 0.1948,-1.3274 0.2252,-1.36625 0.03,-0.0388 1.2044,-0.1461 2.6086,-0.23834 1.5739,-0.10339 2.5545,-0.27926 2.5568,-0.45854 0,-0.15995 0.068,-0.52895 0.1464,-0.81999 0.1367,-0.5063 0.034,-0.52552 -2.3848,-0.44486 l -2.5277,0.0843 v -1.06088 c 0,-0.58348 0.1488,-1.15696 0.3307,-1.2744 0.1819,-0.11744 1.5764,-0.27329 3.0989,-0.34634 l 2.7682,-0.13282 0.1779,-0.87405 0.1778,-0.87405 -3.2106,0.15735 c -1.7659,0.0865 -3.6904,0.21534 -4.2768,0.28621 l -1.0662,0.12886 -0.6059,4.292 c -0.3333,2.36061 -0.6725,4.68998 -0.7538,5.17638 l -0.1479,0.88437 4.2012,-0.19243 c 2.5917,-0.11871 4.2757,-0.30548 4.3956,-0.48749 z m 7.6243,-3.00121 c 0.2287,-1.6339 0.4789,-3.03376 0.5559,-3.11081 0.077,-0.077 1.0526,1.23001 2.1679,2.90457 l 2.0278,3.04468 h 1.1343 1.1344 l 0.6028,-4.56407 c 0.3315,-2.51023 0.6668,-4.83195 0.7451,-5.15937 0.1316,-0.55001 0.052,-0.59531 -1.0438,-0.59531 -1.3552,0 -1.2237,-0.28407 -1.8066,3.9026 -0.1874,1.34607 -0.4073,2.44413 -0.4886,2.44013 -0.081,-0.004 -1.0408,-1.42771 -2.1322,-3.16382 l -1.9844,-3.15654 -1.1194,-0.0112 c -1.32,-0.0132 -1.1606,-0.44925 -1.9305,5.28048 -0.3031,2.25558 -0.6187,4.37606 -0.7015,4.71219 -0.1434,0.58291 -0.091,0.60735 1.1363,0.52916 l 1.2867,-0.082 z m -84.7741,-2.70843 c 9.3159,-1.70986 21.3846,-3.542 32.3482,-4.91079 5.1042,-0.63723 6.8087,-1.35088 9.1145,-3.81602 1.9406,-2.07461 2.4718,-3.51762 3.2224,-8.75376 0.7774,-5.42336 0.7999,-6.65287 0.148,-8.08843 -0.6805,-1.49843 -1.6918,-2.35565 -3.4206,-2.89941 -1.399,-0.44004 -1.6629,-0.44009 -5.4532,-9.7e-4 -4.4463,0.51513 -15.5048,1.97272 -20.4225,2.69183 -3.0347,0.44377 -3.2482,0.44463 -3.9026,0.0158 -1.3287,-0.87062 -0.7417,-3.69598 0.9497,-4.57062 1.2998,-0.67218 21.0111,-3.34322 32.0924,-4.34878 4.6495,-0.42191 4.2436,-0.20836 4.7538,-2.50145 0.5545,-2.49257 1.8758,-5.14623 3.4585,-6.94608 0.6718,-0.76399 1.1229,-1.38883 1.0025,-1.38855 -0.3746,8.7e-4 -10.6684,1.01878 -13.3159,1.31673 -10.8831,1.22483 -29.4473,3.79267 -31.8822,4.41003 -3.9967,1.01331 -7.3528,4.15865 -8.5014,7.96755 -0.208,0.68977 -0.7374,3.66125 -1.1765,6.60328 -0.9147,6.12979 -0.8521,6.89441 0.6745,8.23484 1.5131,1.32849 2.4196,1.3242 10.8165,-0.0513 11.7368,-1.92259 20.935,-3.12113 21.7054,-2.82824 1.2558,0.47747 1.6092,2.19368 0.7272,3.53147 -0.9934,1.50653 -1.1376,1.54612 -9.826,2.69787 -9.7097,1.28714 -25.558,3.95373 -26.0275,4.37932 -0.2586,0.23435 -1.723,10.0401 -1.4994,10.03984 0.078,-9e-5 2.0648,-0.35298 4.4142,-0.7842 z m 67.4304,-8.08796 c 3.6381,-0.22432 10.4842,-0.56535 15.2136,-0.75784 10.1482,-0.41303 10.6564,-0.52964 13.2075,-3.03038 2.1492,-2.10682 2.4455,-3.07196 3.7153,-12.10101 0.5879,-4.1799 1.0689,-7.77888 1.0689,-7.99774 0,-0.34988 -1.11,-0.37687 -9.1943,-0.22358 -5.0569,0.0959 -10.5203,0.25104 -12.1409,0.34479 l -2.9466,0.17045 0.6977,1.08874 c 0.3837,0.59881 1.531,2.31847 2.5497,3.82146 l 1.8521,2.73272 3.3734,-0.15639 c 3.8347,-0.17777 3.6307,-0.3214 3.0946,2.17805 -0.1826,0.85151 -0.5492,1.55916 -1.0626,2.05097 -0.7583,0.72651 -0.906,0.75786 -4.5498,0.96569 -13.569,0.77392 -17.2413,0.94225 -17.6228,0.80779 -0.9842,-0.34691 -1.3568,-0.94165 -1.3549,-2.16292 0,-2.10403 1.7716,-13.65775 2.2243,-14.53319 0.5422,-1.04847 1.5724,-1.58323 3.3707,-1.74953 2.4992,-0.23112 15.7163,-0.72024 24.2944,-0.89904 l 8.3277,-0.17359 0.6417,-4.83301 c 0.3529,-2.65816 0.594,-4.86724 0.5358,-4.90908 -0.2836,-0.20378 -24.0776,0.36072 -30.9298,0.7338 -8.7682,0.47739 -10.1354,0.65981 -12.0856,1.61241 -1.8697,0.91332 -4.1166,3.38573 -4.8441,5.33027 -0.3554,0.9497 -0.9587,4.27038 -1.6001,8.80655 -0.5664,4.00509 -1.33,9.24651 -1.6971,11.6476 -0.7779,5.08899 -0.8264,6.53357 -0.2649,7.87986 0.7311,1.75296 2.5337,3.27889 4.4845,3.79626 0.8327,0.22086 1.0632,0.21214 11.6416,-0.44011 z m -107.9499,-25.62056 c 21.7477,-5.39487 41.8386,-9.38057 60.1927,-11.94123 2.6921,-0.3756 6.0854,-0.8512 7.5406,-1.05691 18.4,-2.60096 44.977,-4.49461 67.5349,-4.81197 l 11.9724,-0.16844 v -0.88407 -0.88407 l -6.813,0.003 c -40.6115,0.0155 -84.6142,5.00797 -125.0818,14.1915 -5.1022,1.15788 -22.091,5.33855 -24.6724,6.0715 -0.4697,0.13336 -0.5953,0.36168 -0.5953,1.08204 0,0.74694 0.084,0.88733 0.463,0.77181 0.2547,-0.0777 4.5111,-1.1454 9.4589,-2.37276 z m -5.3579,-1.67434 0.7276,-0.14683 v -7.74027 -7.74026 l -1.1906,-0.97563 -1.1906,-0.97563 v 9.04186 c 0,8.50314 0.028,9.03118 0.463,8.86272 0.2547,-0.0985 0.7905,-0.2452 1.1906,-0.32596 z m 8.136,-2.06502 c 33.1859,-8.18379 66.5188,-13.51813 97.0526,-15.53155 2.6649,-0.17572 4.6294,-0.39913 4.3656,-0.49647 -1.3189,-0.48661 -18.1325,-0.90456 -35.9339,-0.89325 -19.904,0.0126 -28.7321,0.30713 -43.5239,1.45186 -6.8427,0.52955 -20.5461,1.86485 -25.1354,2.44928 l -2.5136,0.32009 -0.071,7.09681 c -0.066,6.6799 -0.043,7.0884 0.3969,6.95356 0.2571,-0.0788 2.67,-0.68644 5.3622,-1.35033 z m -1.855,-4.03494 v -3.63802 l -0.6777,0.8599 c -0.8209,1.04159 -1.1685,1.09026 -1.1685,0.16362 0,-0.86307 2.0505,-3.00789 2.8756,-3.00789 0.5533,0 0.564,0.0844 0.564,4.4696 0,3.83163 -0.06,4.49254 -0.4185,4.63021 -1.133,0.43475 -1.1689,0.3282 -1.1719,-3.47742 z m 5.5591,2.1329 c -1.316,-0.50214 -1.8017,-2.45604 -0.9225,-3.71129 0.3595,-0.51327 0.3553,-0.66637 -0.042,-1.4988 -0.3948,-0.82802 -0.4013,-1.03441 -0.06,-1.93041 0.7206,-1.89322 3.1312,-2.80566 4.4949,-1.70137 0.793,0.64213 0.8584,2.36688 0.1206,3.18211 -0.2739,0.30266 -0.3796,0.5503 -0.2348,0.5503 0.1447,0 0.4012,0.30326 0.5701,0.67391 0.9082,1.99333 -0.3362,3.92413 -2.8679,4.44967 -0.3638,0.0755 -0.8401,0.0692 -1.0584,-0.0141 z m 2.2278,-1.91106 c 0.6621,-0.73157 0.4642,-1.9825 -0.3313,-2.09518 -1.1681,-0.16544 -2.2266,1.43921 -1.4571,2.20872 0.5366,0.53667 1.2404,0.49198 1.7884,-0.11354 z m -0.095,-4.00842 c 0.8019,-0.80196 0.5887,-1.70352 -0.403,-1.70352 -1.0127,0 -1.7825,1.15113 -1.2217,1.82683 0.4721,0.56896 0.9702,0.53115 1.6247,-0.12331 z m 6.5983,3.42204 c 0,-0.59524 -0.21,-0.60059 -2.8443,-0.0724 -0.7892,0.15824 -0.8599,0.11733 -0.8599,-0.49808 0,-0.36876 0.7036,-2.25539 1.5636,-4.19251 1.36,-3.06356 1.6597,-3.54774 2.3018,-3.71947 0.406,-0.10859 0.7742,-0.16144 0.8182,-0.11745 0.044,0.044 -0.5687,1.55455 -1.3616,3.35679 -0.7929,1.80224 -1.4074,3.31095 -1.3657,3.35268 0.042,0.0417 0.4521,6.4e-4 0.9119,-0.0913 0.7812,-0.15625 0.836,-0.24102 0.836,-1.29391 0,-0.99171 0.079,-1.14186 0.6615,-1.25315 0.6023,-0.11514 0.6614,-0.0447 0.6614,0.78767 0,0.69161 0.1288,0.94781 0.5292,1.05251 0.6248,0.16338 0.7363,1.33671 0.1484,1.56227 -0.2094,0.0804 -0.4569,0.49334 -0.5502,0.91774 -0.1303,0.59327 -0.3175,0.77165 -0.8099,0.77165 -0.4768,0 -0.6404,-0.14379 -0.6404,-0.56298 z m 3.9018,-1.02036 c -1.0153,-0.79867 -0.9833,-1.75854 0.064,-1.91222 0.5967,-0.0876 0.8282,0.002 0.9439,0.36684 0.2019,0.63633 1.2314,0.62335 1.8162,-0.0229 0.2707,-0.29918 0.4226,-0.81254 0.3717,-1.25677 -0.068,-0.59642 -0.2357,-0.76824 -0.8136,-0.83473 -0.5714,-0.0658 -0.7276,-0.22187 -0.7276,-0.7276 0,-0.39149 0.1532,-0.64388 0.3908,-0.64388 0.5744,0 1.2715,-1.19978 1.0686,-1.83913 -0.3147,-0.99127 -2.2531,-0.35849 -2.2531,0.73548 0,0.17044 -0.3572,0.3099 -0.7938,0.3099 -0.9392,0 -0.9393,-3e-4 -0.2762,-1.30007 0.915,-1.79352 3.6703,-2.38796 4.6415,-1.00136 0.503,0.71802 0.5039,1.69379 0,2.65493 -0.3457,0.66275 -0.3455,0.79627 0,1.14338 0.447,0.44694 0.5249,2.26021 0.129,3.00003 -0.4136,0.77283 -1.6782,1.55436 -2.8073,1.7349 -0.8199,0.13112 -1.1802,0.0478 -1.7581,-0.40682 z m -14.7497,-9.78049 c 11.234,-1.25391 23.6742,-2.21799 37.8354,-2.93214 9.0603,-0.45691 35.1707,-0.61863 46.0375,-0.28513 9.465,0.29048 26.352,1.17121 28.8046,1.50228 0.6356,0.0858 5.6958,0.0646 11.2448,-0.0471 9.9741,-0.20078 10.0575,-0.20699 7.311,-0.54562 -8.4926,-1.04709 -28.2199,-2.48491 -41.8042,-3.0469 -10.3607,-0.42863 -38.3302,-0.42813 -48.4187,8.7e-4 -15.5636,0.66181 -29.4952,1.70799 -43.1271,3.23859 -9.2433,1.03785 -8.5884,0.84452 -7.2115,2.12895 0.8265,0.77088 1.2749,1.00743 1.7176,0.90602 0.3295,-0.0755 3.7543,-0.48941 7.6106,-0.91984 z"
         id="path50"
         sodipodi:nodetypes="cssscccccccsssssscccssscccsssssssssssssssscsssscccccssssccssssssssssssssssssssssssssssssssssssssssscscsccccsssscssssssssccssssssssssssssssssscsscssscsscssscssssssssssscssssssscssssssssssssssssssscsssssscssssssssscsssssscsssssssssssssssssssssssssscscsscssssscssssssssscssssscsssssscscsssscsssssssscssssssssssssssssscsssssssssssscssscssssscsssssssscsssssssccscsssscsssscsssscssscccssscsssssccsssssssssssssssssscsscsssssssacssssscscsssccccccssscssssscssssssccsssssssssssssssscsscsssssscsssssssssssscssssscssssscssssscssssssssssssscsssssscsssssssssssccccssscssssssssssscccssscsssssscscssscsssssssssssssscsssssccscsssssscsscsssscssscsscccssscscscscscscccccsscsssssscsssscsssssscscsssscssscsssssscscscsssssscssscccscssssssssssssssssscccccccsccscssscccsscsscsccssscccsssssscsssscssssssssssssssssssssssssssssssssssscsscssssscssscsssssssssscsssccccssssccscccccsssssssssccsssccsssscccssccssssssssssssssssssssssssssssssssscssscssssssssccssccsssssssssssss" /><path
         d="m -1257.4035,459.72215 6.8311,-0.1772 c 3.7231,-0.0966 6.8233,-0.0196 6.8868,0.0435 0.3936,0.39082 -2.5614,3.8772 -4.5349,5.35027 -1.6862,1.25864 -1.8399,1.60453 -3.4703,1.05765 z"
         style="fill:#ffcc00;stroke-width:1.01138"
         id="path1-6"
         sodipodi:nodetypes="cssscc" /><path
         d="m -1243.5592,459.95803 -6.8348,-0.1772 c -3.7251,-0.0966 -6.827,-0.0196 -6.8905,0.0435 -0.3938,0.39082 2.5628,3.8772 4.5373,5.35027 1.6871,1.25864 1.8409,1.60453 3.4722,1.05765 z"
         style="fill:#ffcc00;stroke-width:1.01165"
         id="path1-6-4"
         sodipodi:nodetypes="cssscc" /><path
         style="fill:#164c8a;fill-opacity:1;stroke-width:0.608577"
         d="m -1329.092,419.68963 c 0.2558,-0.30832 0.9764,-0.51888 4.4348,-1.29629 1.0629,-0.23887 2.1135,-0.49695 2.3349,-0.57349 0.5971,-0.20646 3.065,-0.807 3.6367,-0.88502 0.2731,-0.0373 0.9321,-0.20686 1.4642,-0.37685 0.5322,-0.16998 1.3773,-0.36027 1.8783,-0.42285 0.5009,-0.0626 0.9107,-0.1779 0.9107,-0.25626 0,-0.0784 0.1547,-0.14246 0.3437,-0.14246 0.189,0 0.6054,-0.0659 0.9257,-0.14624 0.3202,-0.0805 1.1621,-0.26701 1.8705,-0.41464 0.7084,-0.14763 1.578,-0.34675 1.9322,-0.4425 0.3542,-0.0958 0.8977,-0.20135 1.2076,-0.23465 0.31,-0.0332 0.9984,-0.21086 1.5298,-0.39457 0.9731,-0.3365 2.3965,-0.64114 4.5486,-0.97363 0.6422,-0.0992 1.1675,-0.246 1.1675,-0.32624 0,-0.0802 0.074,-0.10051 0.1631,-0.0451 0.089,0.0554 0.5427,-0.007 1.0064,-0.13907 1.2397,-0.35266 4.0028,-0.93776 4.4575,-0.94384 0.2167,-0.003 0.4936,-0.10486 0.6153,-0.22668 0.1214,-0.12175 0.5242,-0.2218 0.8944,-0.2223 0.3701,-5e-4 0.9264,-0.0645 1.2363,-0.14225 0.31,-0.0777 1.107,-0.23096 1.7712,-0.34047 0.6643,-0.10948 1.7874,-0.33785 2.4959,-0.50741 0.7085,-0.16957 1.6142,-0.3443 2.0127,-0.38831 0.3986,-0.0441 0.7489,-0.15063 0.7786,-0.23694 0.03,-0.0862 0.1199,-0.11594 0.2011,-0.066 0.1388,0.0857 1.6635,-0.1683 5.3805,-0.89647 3.1631,-0.61966 3.5465,-0.69182 3.8645,-0.72731 1.0595,-0.11832 1.9575,-0.30065 2.1238,-0.43131 0.1055,-0.0827 0.6125,-0.17572 1.127,-0.20662 0.5147,-0.0309 1.4792,-0.13943 2.1433,-0.24119 0.6642,-0.10169 1.395,-0.2045 1.6241,-0.22833 0.2289,-0.0239 0.4958,-0.0926 0.5932,-0.15269 0.097,-0.0601 0.562,-0.14347 1.0328,-0.18511 0.4707,-0.0417 1.2907,-0.14616 1.822,-0.23221 0.5315,-0.086 2.053,-0.30891 3.3815,-0.49528 1.3284,-0.18636 2.7254,-0.40741 3.1045,-0.49121 0.3792,-0.0837 0.8683,-0.1075 1.087,-0.0526 0.2185,0.0549 0.3975,0.0312 0.3975,-0.0526 0,-0.0837 0.3078,-0.16552 0.6844,-0.18159 1.0447,-0.0446 3.3659,-0.44974 3.4807,-0.60752 0.142,-0.1952 1.0117,-0.23994 1.2248,-0.063 0.1042,0.0869 0.2712,0.0872 0.4109,0.001 0.1292,-0.0798 0.4092,-0.10129 0.6223,-0.0479 0.2253,0.0566 0.3484,0.0337 0.2939,-0.0543 -0.051,-0.0839 0.1714,-0.1561 0.4994,-0.16151 0.8274,-0.0136 2.2899,-0.18207 3.1169,-0.35894 0.3831,-0.0819 1.8015,-0.24162 3.1521,-0.35487 1.8774,-0.15745 2.4555,-0.25809 2.4555,-0.42752 0,-0.12188 0.061,-0.18417 0.1346,-0.13842 0.3108,0.19205 2.4902,0.0423 6.3061,-0.43376 1.7468,-0.21784 3.6789,-0.39002 7.6484,-0.68157 0.5313,-0.039 1.9081,-0.1562 3.0595,-0.2604 1.1512,-0.1042 2.2382,-0.18489 2.4152,-0.17932 0.1771,0.005 1.409,-0.0896 2.7374,-0.21182 5.7191,-0.52558 14.75,-1.00153 25.6021,-1.34928 8.0863,-0.25912 22.5774,-0.37797 22.301,-0.18289 -0.1568,0.1108 -1.9611,0.17191 -5.1526,0.17444 -11.7307,0.009 -33.8445,0.96872 -44.5218,1.93169 -0.9742,0.0878 -3.4739,0.30861 -5.5551,0.49055 -18.4216,1.61043 -39.5611,4.57935 -59.5771,8.36729 -1.904,0.36033 -4.0054,0.75776 -4.6696,0.88315 -1.4381,0.27154 -9.9349,2.02696 -11.9958,2.47836 -6.6165,1.44912 -10.8462,2.44655 -23.5998,5.565 -2.6767,0.65451 -2.853,0.67782 -2.5728,0.34014 z m -0.6372,-32.85245 v -30.34842 l 0.3785,-0.24809 c 0.333,-0.21809 9.9495,-2.67575 16.0454,-4.10062 1.1957,-0.27946 2.8984,-0.681 3.784,-0.89231 1.3868,-0.3309 2.8101,-0.65993 5.2331,-1.20969 0.31,-0.0703 1.4331,-0.30837 2.4958,-0.52899 1.0627,-0.22062 3.3452,-0.70191 5.072,-1.06955 4.0396,-0.85996 11.87,-2.41365 15.3775,-3.05112 7.0028,-1.27272 9.4993,-1.69907 15.6188,-2.66729 2.8385,-0.44912 2.7556,-0.4367 7.0044,-1.048 26.3172,-3.78645 52.8602,-5.77359 78.1747,-5.85259 l 9.6612,-0.0301 0.041,30.46297 0.041,30.46295 -0.6847,0.0836 c -0.3765,0.0461 -5.2134,0.12188 -10.7484,0.16854 -15.2118,0.12834 -29.7804,0.83043 -43.7166,2.10676 -1.4172,0.1298 -3.3735,0.30882 -4.3477,0.3979 -0.9741,0.089 -2.4234,0.23355 -3.2203,0.32107 -0.7971,0.0876 -2.5362,0.27006 -3.8645,0.40561 -6.2925,0.64201 -19.0566,2.33151 -27.4538,3.63386 -4.1647,0.6459 -12.3459,2.00944 -15.3774,2.56288 -0.4427,0.0809 -2.0006,0.36364 -3.4619,0.62845 -5.5885,1.01277 -12.4253,2.39034 -17.229,3.47155 -1.0184,0.22924 -2.5038,0.55587 -3.3009,0.72587 -0.7971,0.16999 -2.0651,0.46507 -2.8178,0.65575 -0.7529,0.19066 -1.8034,0.44089 -2.3348,0.55602 -2.1617,0.46842 -3.2979,0.73525 -4.8305,1.13446 -0.8857,0.23066 -2.0812,0.51905 -2.6569,0.64086 -0.5757,0.12175 -1.4451,0.33461 -1.9323,0.47285 -0.487,0.13825 -1.2477,0.32113 -1.6907,0.40638 -0.4427,0.0852 -1.6383,0.38209 -2.6566,0.65962 -3.4726,0.94625 -5.548,1.43724 -6.0752,1.43724 h -0.5267 z m 16.598,22.03538 0.5768,-0.0924 0.2096,-1.39267 c 0.1147,-0.76598 0.2432,-1.73723 0.2843,-2.15837 0.066,-0.67308 0.1266,-0.77643 0.5018,-0.85446 0.2349,-0.0488 0.705,-0.15095 1.0445,-0.22699 0.5897,-0.13203 0.6319,-0.11357 0.9416,0.41142 0.1785,0.3023 0.3889,0.50976 0.4678,0.461 0.079,-0.0488 0.1028,0.0173 0.053,0.14678 -0.082,0.21498 0.7371,2.09127 1.0544,2.41409 0.074,0.0753 0.3774,0.06 0.674,-0.0339 0.2967,-0.094 0.8782,-0.26042 1.2924,-0.36993 l 0.7531,-0.19908 -0.3702,-0.65266 c -0.2035,-0.35897 -0.6737,-1.22232 -1.0449,-1.91858 -0.6585,-1.23533 -0.6672,-1.27132 -0.3561,-1.48914 1.491,-1.0443 2.2806,-2.19834 2.3041,-3.36694 0.046,-2.26967 -1.2957,-2.64221 -5.7145,-1.58707 -1.3438,0.32089 -2.5605,0.64445 -2.7041,0.71901 -0.1626,0.0845 -0.2927,0.4253 -0.3456,0.906 -0.046,0.42374 -0.3457,2.55695 -0.6644,4.7405 -0.3188,2.18353 -0.5638,4.16383 -0.5441,4.40066 0.032,0.38865 0.083,0.42108 0.5227,0.33292 0.2679,-0.0537 0.7467,-0.1393 1.0639,-0.19015 z m 1.5828,-6.16666 c -0.056,-0.36525 0.06,-1.80689 0.1855,-2.28581 0.1362,-0.52185 0.2324,-0.60383 0.9163,-0.78058 0.4203,-0.10869 0.873,-0.23723 1.0058,-0.2858 0.1328,-0.0485 0.5915,-0.11976 1.0196,-0.15832 0.9763,-0.0878 1.3958,0.23021 1.3958,1.05851 0,0.4558 -0.1267,0.68795 -0.6363,1.16278 -0.536,0.49985 -0.8911,0.65531 -2.2543,0.98752 -0.8899,0.21684 -1.6245,0.3526 -1.6324,0.3017 z m 11.6799,3.21152 c 0.2283,-0.0868 0.8308,-0.22846 1.3389,-0.31474 0.508,-0.0862 2.1523,-0.41376 3.6541,-0.72775 1.5017,-0.31399 2.7448,-0.57088 2.7624,-0.57088 0.078,0 0.2483,-1.63897 0.1777,-1.70959 -0.043,-0.0434 -0.5761,0.0335 -1.184,0.17082 -1.7235,0.38923 -4.3001,0.92632 -4.567,0.95199 -0.1848,0.0178 -0.2371,-0.14716 -0.2231,-0.70138 0.017,-0.68141 0.1877,-1.96654 0.2674,-2.01681 0.02,-0.0131 1.153,-0.25197 2.5179,-0.532 1.365,-0.28004 2.5091,-0.53654 2.5425,-0.57001 0.091,-0.0908 0.3326,-1.71176 0.2552,-1.71176 -0.037,0 -0.9497,0.19049 -2.029,0.42329 -1.0793,0.23282 -2.2087,0.45939 -2.5099,0.50352 l -0.5477,0.0802 0.1095,-1.06505 c 0.06,-0.5858 0.1462,-1.16138 0.1913,-1.27908 0.051,-0.1334 1.1835,-0.43811 3.0066,-0.80914 1.6085,-0.32733 2.9814,-0.6848 3.0511,-0.7944 0.1387,-0.21861 0.1813,-1.56791 0.049,-1.56791 -0.045,0 -1.2589,0.24964 -2.6971,0.55474 -1.4383,0.3051 -3.2309,0.6793 -3.9836,0.83155 -0.7527,0.15223 -1.4196,0.31943 -1.4818,0.37154 -0.062,0.0521 -0.1861,0.60174 -0.2751,1.22144 -0.37,2.57323 -0.83,6.0457 -0.9707,7.32598 -0.083,0.75275 -0.1998,1.53168 -0.2599,1.73094 -0.124,0.41002 0.1095,0.46916 0.8054,0.20446 z m 8.5156,-11.68415 c 0,-0.129 0.06,-0.23445 0.1342,-0.23445 0.074,0 0.1342,0.0682 0.1342,0.15151 0,0.0834 -0.06,0.18884 -0.1342,0.23445 -0.074,0.0457 -0.1342,-0.0226 -0.1342,-0.15151 z m 9.7265,8.05416 c 0.959,-0.28817 2.1664,-1.02303 2.0337,-1.23773 -0.061,-0.0972 -0.037,-0.1319 0.053,-0.077 0.2085,0.12887 0.8919,-0.50307 0.7655,-0.70772 -0.053,-0.0854 -0.013,-0.1355 0.1004,-0.11119 0.2833,0.0641 0.9276,-1.25942 1.1152,-2.29053 0.2108,-1.15911 0.9561,-6.82767 0.9046,-6.87929 -0.054,-0.0537 -2.2063,0.39959 -2.2888,0.48203 -0.099,0.0985 -0.3312,1.56655 -0.6314,3.98197 -0.3239,2.60911 -0.6292,3.81404 -1.0967,4.3285 -0.8392,0.92379 -2.753,1.29226 -3.5107,0.67596 -0.3536,-0.28749 -0.3776,-0.40891 -0.3433,-1.73096 0.02,-0.78198 0.1518,-2.18259 0.2924,-3.1125 0.5592,-3.70028 0.5385,-3.39741 0.226,-3.29824 -0.1554,0.0493 -0.698,0.15729 -1.2058,0.23994 -0.5077,0.0826 -0.9384,0.17054 -0.9572,0.19535 -0.1121,0.14865 -0.8944,6.64753 -0.8914,7.41129 0,0.83292 0.06,0.98912 0.5793,1.56291 0.3943,0.43647 0.7879,0.68701 1.2479,0.79447 0.7841,0.18314 2.6301,0.0669 3.6089,-0.22729 z m 2.2961,-2.23068 c 0,-0.0333 0.1266,-0.16024 0.2819,-0.28178 0.2554,-0.20029 0.2612,-0.19459 0.06,0.0608 -0.2105,0.26821 -0.3427,0.35351 -0.3427,0.22099 z m 9.3659,0.0807 c -0.1743,-0.11054 -0.1686,-0.15382 0.03,-0.23002 0.1347,-0.0516 0.2704,-0.0167 0.3019,0.0778 0.076,0.2292 1.7402,0.003 1.8081,-0.24674 0.028,-0.10156 0.1756,-1.19902 0.3284,-2.43887 0.1529,-1.23983 0.3785,-2.87015 0.5012,-3.62293 0.1227,-0.75275 0.2235,-1.63252 0.2238,-1.95502 0,-0.66955 -0.068,-0.63859 2.1222,-0.95248 l 1.3971,-0.2002 0.1095,-0.79123 c 0.059,-0.43517 0.067,-0.83334 0.016,-0.88481 -0.051,-0.0514 -0.6205,-0.008 -1.2644,0.0959 -0.6439,0.1042 -2.6792,0.43342 -4.5226,0.73166 -1.8434,0.29822 -3.3784,0.569 -3.4112,0.60172 -0.033,0.0327 -0.1094,0.44096 -0.1718,0.90724 l -0.1121,0.84776 0.7058,-0.103 c 0.3882,-0.0567 1.1656,-0.19308 1.7277,-0.30316 l 1.0218,-0.20013 -0.1029,0.90163 c -0.057,0.4959 -0.2851,2.23288 -0.5082,3.85994 -0.2231,1.62706 -0.3683,3.0558 -0.3225,3.17498 0.046,0.1191 0.014,0.25948 -0.071,0.31183 -0.2613,0.16147 -0.1701,0.55936 0.1278,0.55676 0.2159,-10e-4 0.2317,-0.0343 0.067,-0.13863 z m 1.5834,-1.4691 c 0,-0.0885 0.076,-0.16103 0.1706,-0.16103 0.093,0 0.1252,0.0724 0.071,0.16103 -0.055,0.0885 -0.1319,0.16101 -0.1705,0.16101 -0.038,0 -0.071,-0.0725 -0.071,-0.16101 z m 11.0467,-0.31796 c 1.1419,-0.17488 2.9013,-0.42621 3.9097,-0.55852 1.0083,-0.13231 1.8619,-0.26925 1.897,-0.30428 0.1423,-0.1423 0.2492,-1.71749 0.1161,-1.71625 -0.2386,0.003 -3.4503,0.44309 -4.6321,0.63587 -0.6089,0.0994 -1.1417,0.14624 -1.1836,0.1042 -0.042,-0.042 0,-0.57019 0.097,-1.17376 0.095,-0.60357 0.3226,-2.2205 0.5049,-3.59318 0.1823,-1.3727 0.3747,-2.81408 0.4279,-3.20309 l 0.096,-0.70727 -1.1891,0.11712 c -0.6541,0.0643 -1.2254,0.15315 -1.2696,0.19723 -0.045,0.0441 -0.08,0.50174 -0.08,1.01701 0,0.51528 -0.046,0.90866 -0.1029,0.87418 -0.057,-0.0345 -0.1498,0.35311 -0.2079,0.86134 -0.1668,1.46167 -0.8969,6.83583 -0.995,7.32455 -0.1095,0.54642 -0.1349,0.54521 2.6103,0.1249 z m -0.3389,-0.80918 c -0.054,-0.0885 -0.022,-0.16103 0.071,-0.16103 0.093,0 0.1705,0.0724 0.1705,0.16103 0,0.0885 -0.032,0.16102 -0.071,0.16102 -0.038,0 -0.1161,-0.0725 -0.1706,-0.16102 z m 12.5824,-0.80371 c 0.4006,-0.001 0.454,-0.16304 0.6946,-2.09463 0.093,-0.75277 0.2739,-2.12949 0.4004,-3.05937 0.1267,-0.92989 0.307,-2.27037 0.4015,-2.97886 0.093,-0.70848 0.2094,-1.56455 0.2555,-1.90238 l 0.084,-0.61422 -0.7684,0.098 c -1.8869,0.24063 -1.8149,0.20866 -1.8149,0.80778 0,0.3016 -0.067,0.8961 -0.149,1.32111 -0.082,0.42504 -0.2695,1.75096 -0.4165,2.94652 -0.1472,1.19558 -0.37,2.90765 -0.4952,3.80462 -0.1253,0.89698 -0.2277,1.686 -0.2277,1.75339 0,0.0675 0.3805,0.0769 0.8455,0.021 0.465,-0.0559 1.0005,-0.10222 1.1902,-0.10288 z m -0.1904,-0.97822 c -0.058,-0.0945 -0.071,-0.20626 -0.029,-0.24847 0.042,-0.0423 0.12,0.035 0.1721,0.17173 0.1095,0.28374 0.016,0.33364 -0.1426,0.0768 z m 7.816,0.077 c 0.4533,-0.0666 0.6448,-0.17392 0.6469,-0.36229 0,-0.47979 0.7878,-6.02297 0.8605,-6.09582 0.039,-0.0389 0.4182,0.42318 0.8425,1.02695 0.4244,0.6038 1.379,1.95066 2.1212,2.99304 l 1.3494,1.89523 1.0751,-0.10579 c 0.5913,-0.0582 1.0993,-0.12635 1.1291,-0.15146 0.03,-0.0252 0.1161,-0.50431 0.1905,-1.06487 0.075,-0.56054 0.2118,-1.56261 0.3042,-2.22682 0.092,-0.66421 0.3129,-2.29452 0.4896,-3.62293 0.1764,-1.32842 0.3673,-2.69717 0.424,-3.04169 l 0.1029,-0.6264 -1.1855,0.11672 c -0.6518,0.0642 -1.2078,0.13915 -1.2354,0.16658 -0.085,0.0858 -0.8313,5.45088 -0.8335,6.00137 0,0.28782 -0.068,0.52331 -0.1489,0.52331 -0.08,0 -0.5282,-0.56154 -0.9942,-1.2479 -1.3012,-1.9162 -1.4742,-2.12847 -1.6466,-2.02179 -0.088,0.0549 -0.1108,0.0181 -0.047,-0.0824 0.062,-0.0999 -0.287,-0.75106 -0.7748,-1.44726 l -0.8869,-1.26582 -1.0908,0.14615 c -0.5999,0.0803 -1.108,0.16336 -1.1291,0.18444 -0.038,0.0382 -0.1758,1.02478 -0.9355,6.70068 -0.2192,1.63836 -0.4341,3.18438 -0.4776,3.4356 -0.087,0.50824 -0.2962,0.48874 1.8509,0.17317 z m 19.4382,-1.75855 c 0.9577,-0.28443 2.3995,-1.21641 2.3357,-1.50981 -0.024,-0.11185 0.028,-0.15913 0.1147,-0.10512 0.2159,0.13346 0.9488,-1.00634 1.2143,-1.88832 0.1188,-0.39496 0.2684,-1.136 0.3322,-1.64672 l 0.116,-0.92857 -1.1886,0.0976 c -0.6536,0.0537 -1.7444,0.14354 -2.4238,0.19965 l -1.2353,0.10196 -0.1094,0.79768 c -0.061,0.43871 -0.084,0.82226 -0.053,0.85232 0.032,0.0301 0.5514,0.003 1.1559,-0.0601 l 1.0991,-0.11488 -0.1016,0.57319 c -0.142,0.80592 -0.5529,1.32138 -1.3822,1.73392 -1.5118,0.75221 -3.0392,0.28695 -3.2804,-0.99932 -0.1174,-0.62683 0.2986,-3.36185 0.6331,-4.1602 0.3837,-0.91579 1.5863,-1.7174 2.5766,-1.7174 0.7267,0 1.4609,0.41183 1.681,0.94272 l 0.2068,0.49928 1.2299,-0.0995 c 0.6763,-0.0546 1.2594,-0.12505 1.2958,-0.15641 0.1319,-0.1133 -0.3154,-1.31363 -0.6448,-1.73246 -0.6569,-0.83522 -1.5112,-1.13637 -3.2051,-1.13007 -1.7954,0.007 -2.9233,0.37073 -4.1467,1.33821 -1.2654,1.00072 -1.8198,2.33689 -2.1116,5.08818 -0.2352,2.21843 0.3492,3.49574 1.8427,4.02786 0.8423,0.30009 3.0318,0.29798 4.0483,-0.004 z m -86.9499,-1.67196 c 1.5254,-0.36373 2.9021,-0.66243 3.0595,-0.66378 0.1573,-10e-4 0.3807,-0.0625 0.4963,-0.13582 0.1915,-0.12148 0.7458,-3.6354 2.1118,-13.38735 0.1798,-1.28413 0.5426,-3.78394 0.8062,-5.55515 0.2635,-1.77121 0.6281,-4.30727 0.8102,-5.63568 0.4657,-3.39804 0.6263,-4.45741 0.6845,-4.51565 0.027,-0.0278 3.0382,-0.65105 6.6899,-1.38496 l 6.6392,-1.33438 0.084,-0.569 c 0.2283,-1.5404 0.726,-3.72398 1.0349,-4.54184 0.4799,-1.26951 1.8566,-3.48876 2.8851,-4.65113 0.4747,-0.53631 0.8238,-1.01431 0.776,-1.06219 -0.089,-0.0902 -1.7165,0.21073 -10.5754,1.95697 -10.0094,1.973 -19.5104,4.11719 -30.1349,6.8009 l -3.6471,0.92127 -0.27,2.09675 c -0.1485,1.15323 -0.4455,3.27671 -0.6601,4.71886 -0.2146,1.44215 -0.3902,2.79896 -0.3902,3.01511 0,0.36174 0.035,0.3797 0.4405,0.22557 0.2423,-0.092 1.6371,-0.45533 3.0997,-0.80716 1.4624,-0.35183 3.5285,-0.85108 4.5913,-1.10944 5.461,-1.32767 7.6645,-1.80997 7.7732,-1.70132 0.046,0.0463 -0.03,0.8644 -0.17,1.818 -0.7007,4.78278 -3.5928,25.26063 -3.7259,26.38215 l -0.097,0.81749 2.4574,-0.51846 c 1.3516,-0.28515 3.7054,-0.81604 5.2306,-1.17976 z m 99.7388,0.93267 3.8073,-0.19548 0.096,-0.5785 c 0.2179,-1.31731 0.3704,-1.23731 -2.1148,-1.11011 -1.2178,0.0624 -2.5242,0.14244 -2.9034,0.17801 -0.3792,0.0354 -0.7284,10e-4 -0.7762,-0.0755 -0.066,-0.10644 0.2276,-2.46096 0.3204,-2.5714 0.013,-0.0118 1.1172,-0.0663 2.4605,-0.12082 1.3432,-0.0545 2.4797,-0.13669 2.5255,-0.18257 0.046,-0.0459 0.1331,-0.45964 0.194,-0.91943 l 0.1108,-0.83599 -1.4288,0.0776 c -0.7859,0.0427 -1.925,0.10856 -2.5313,0.14652 l -1.1025,0.069 0.1122,-1.15931 c 0.062,-0.63764 0.1592,-1.20991 0.2167,-1.27176 0.058,-0.0618 1.4283,-0.16349 3.0462,-0.22592 3.2789,-0.12649 3.0252,-0.018 3.1323,-1.34022 l 0.045,-0.55146 -1.7711,0.034 c -1.9497,0.0373 -6.5562,0.32549 -6.6464,0.41571 -0.06,0.061 -1.4852,9.99843 -1.4852,10.36343 0,0.15096 0.1364,0.19217 0.4427,0.13391 0.2436,-0.0463 2.1562,-0.17214 4.2501,-0.27965 z m 10.212,-0.40665 0.8156,-0.098 0.3696,-2.67816 c 0.4445,-3.22074 0.506,-3.56467 0.6358,-3.56072 0.055,10e-4 1.0065,1.375 2.1133,3.0518 l 2.0129,3.04873 1.1311,0.008 1.1312,0.008 0.2802,-1.89198 c 0.1543,-1.04058 0.4594,-3.19622 0.6782,-4.79033 0.2187,-1.59407 0.433,-3.0976 0.4764,-3.34115 l 0.079,-0.44279 h -1.1907 c -1.1699,0 -1.1924,0.008 -1.2813,0.44279 -0.187,0.91509 -0.7402,4.92099 -0.7402,5.36041 0,0.25166 -0.071,0.50143 -0.1579,0.55507 -0.087,0.0537 -0.9284,-1.08329 -1.8701,-2.52654 -0.9417,-1.44326 -1.867,-2.86122 -2.0561,-3.15102 -0.3402,-0.52111 -0.3566,-0.52647 -1.4711,-0.48308 l -1.1273,0.044 -0.1963,1.36866 c -0.1082,0.75278 -0.3872,2.74538 -0.6202,4.42803 -0.2331,1.68265 -0.4768,3.43978 -0.5415,3.90472 -0.1337,0.9612 -0.1614,0.94776 1.5297,0.74454 z m -87.0415,-5.0682 c 0.3986,-0.0933 1.087,-0.23092 1.5298,-0.30594 0.4428,-0.0751 1.6383,-0.2842 2.6568,-0.46484 3.3155,-0.58811 8.5899,-1.48513 9.6611,-1.64314 1.5505,-0.22872 2.799,-0.42434 4.5085,-0.70652 1.5269,-0.252 5.1756,-0.79894 7.0044,-1.04991 0.5313,-0.073 1.7994,-0.24589 2.8179,-0.38435 1.0184,-0.13848 2.6849,-0.36527 3.7033,-0.50397 1.0185,-0.13871 2.7575,-0.35518 3.8645,-0.48104 2.8514,-0.32419 3.8206,-0.49504 4.8305,-0.85153 3.0188,-1.06548 5.7326,-3.74549 6.764,-6.67946 0.4991,-1.42066 1.6552,-9.75097 1.5599,-11.24268 -0.1384,-2.16857 -1.1878,-3.71107 -3.1518,-4.63193 -0.8462,-0.39671 -1.0464,-0.42311 -3.0787,-0.40591 -1.9853,0.0168 -5.9289,0.44819 -13.1232,1.43559 -0.9741,0.13369 -2.2783,0.31147 -2.8983,0.39507 -1.5151,0.20431 -5.1352,0.73225 -7.8728,1.14815 -1.2304,0.18694 -2.5343,0.30002 -2.8976,0.25133 -1.7916,-0.24032 -1.914,-2.91113 -0.2021,-4.41413 0.6302,-0.55333 1.1392,-0.73524 2.7605,-0.98644 0.6201,-0.0961 1.8155,-0.28454 2.6568,-0.41885 6.5136,-1.03986 22.5741,-3.00335 30.3935,-3.71581 1.0261,-0.0935 1.1762,-0.14863 1.2325,-0.45231 0.035,-0.19021 0.1494,-0.85306 0.2535,-1.47298 0.437,-2.6031 1.8192,-5.29443 3.8666,-7.52874 0.5472,-0.59718 0.898,-1.08392 0.7793,-1.08164 -0.2008,0.004 -2.3917,0.20849 -4.2409,0.3961 -0.443,0.045 -1.9645,0.19134 -3.3815,0.32539 -1.417,0.13405 -3.1559,0.31428 -3.8645,0.4005 -0.7084,0.0862 -2.6648,0.30632 -4.3475,0.48907 -8.1434,0.88452 -25.6837,3.30373 -29.2735,4.03751 -1.2133,0.24802 -3.6486,1.46779 -4.7343,2.37142 -2.925,2.43419 -4.1008,4.68165 -4.6351,8.85974 -0.1319,1.03116 -0.4579,3.28101 -0.7246,4.99963 -0.5531,3.56527 -0.5822,4.20659 -0.2363,5.18714 0.5199,1.47371 1.8793,2.35803 3.8576,2.50947 1.1738,0.0898 1.561,0.0423 6.1993,-0.76305 1.5498,-0.26907 3.2525,-0.55521 3.7839,-0.63586 0.5313,-0.0806 2.1978,-0.33361 3.7035,-0.56213 3.9602,-0.6011 6.7445,-0.99691 9.5805,-1.36198 1.3728,-0.17671 3.0032,-0.39494 3.6231,-0.48496 0.6199,-0.09 1.5425,-0.16513 2.0503,-0.16688 0.787,-0.003 0.9981,0.0635 1.4296,0.44917 0.9643,0.86149 0.7829,2.51007 -0.4149,3.77292 -0.8063,0.85004 -1.1661,0.94968 -5.4,1.49542 -7.9563,1.02554 -18.0769,2.59364 -25.0384,3.87944 -3.1735,0.58617 -4.7557,0.86357 -4.9347,0.86516 -0.056,5.2e-4 -0.1814,0.45381 -0.2755,1.00731 -0.2064,1.21273 -1.311,8.91425 -1.311,9.13966 0,0.19522 0.058,0.1941 0.966,-0.0182 z m 64.8184,-8.34771 c 6.6987,-0.48873 14.1405,-0.8832 21.3269,-1.13053 7.436,-0.25591 8.0393,-0.29839 9.132,-0.64325 1.6495,-0.52059 2.6255,-1.10031 4.2014,-2.49544 0.5533,-0.48997 1.5529,-1.99112 1.9341,-2.90504 0.4915,-1.17826 0.6094,-1.74245 1.1428,-5.47464 0.8543,-5.97898 1.6239,-11.5625 1.6239,-11.78223 0,-0.17019 -0.6314,-0.21371 -3.1015,-0.21371 -6.1029,0 -20.9463,0.48524 -21.1525,0.69148 -0.049,0.0486 0.6944,1.23513 1.6506,2.63695 0.9564,1.40183 2.0948,3.07738 2.53,3.72346 l 0.7909,1.17469 3.4428,-0.11238 3.4431,-0.11237 -0.082,0.4674 c -0.045,0.25707 -0.1483,0.90216 -0.229,1.43352 -0.1857,1.22422 -0.3564,1.66174 -0.9014,2.30939 -0.9154,1.08791 -0.7042,1.05545 -9.0943,1.39729 -3.1438,0.12808 -7.3748,0.31761 -9.4018,0.42114 -3.3908,0.17319 -3.7266,0.16618 -4.1977,-0.0875 -1.0857,-0.58465 -1.2481,-1.46431 -0.8053,-4.36227 0.1354,-0.88561 0.3931,-2.69708 0.5731,-4.02549 0.5822,-4.29931 1.0807,-7.23299 1.327,-7.80943 0.1325,-0.30997 0.4461,-0.75899 0.6968,-0.99783 0.8498,-0.80913 1.4764,-0.95083 4.8712,-1.10121 1.7341,-0.0768 3.6962,-0.18039 4.3604,-0.23019 2.0388,-0.15283 14.085,-0.55077 20.2456,-0.66882 l 5.8344,-0.11185 0.079,-0.49808 c 0.043,-0.27393 0.1894,-1.2951 0.3242,-2.26927 0.1348,-0.97416 0.3902,-2.76195 0.5676,-3.97286 0.1773,-1.21089 0.3224,-2.4181 0.3224,-2.68266 v -0.48104 l -5.4344,0.0685 c -14.6403,0.18437 -33.2556,1.02968 -35.5321,1.61353 -2.7249,0.69886 -5.3251,2.79343 -6.5714,5.29357 -0.8358,1.67689 -0.792,1.44741 -2.2938,11.99594 -0.3973,2.78965 -0.8672,6.01406 -1.0443,7.16535 -0.1771,1.15128 -0.4708,3.07143 -0.6528,4.26701 -0.4,2.62952 -0.4275,4.48722 -0.08,5.46778 0.3942,1.11505 1.1678,2.2023 2.0033,2.81561 1.7853,1.31051 3.4852,1.5661 8.1519,1.22564 z"
         id="path51" /><path
         style="fill:#ff0000;fill-opacity:1;stroke-width:17.9;stroke-opacity:0.478431"
         d="m -1259.1719,453.47318 h 17.3503 c 0,0 -0.089,3.61281 -2.0071,6.15513 l -13.5592,0.13382 c 0,0 -2.0516,-3.5682 -1.784,-6.28895 z"
         id="path52" /></g></g><style
     id="style1">@media(prefers-color-scheme:dark){.lines{fill:#d7d7d7}}</style></svg>
