<?xml version="1.0" encoding="UTF-8" standalone="no"?>
<!-- Created with Inkscape (http://www.inkscape.org/) -->

<svg
   width="201.14819mm"
   height="87.579727mm"
   viewBox="0 0 201.14819 87.579727"
   version="1.1"
   id="svg1"
   xml:space="preserve"
   inkscape:version="1.4.4 (dcaf3e7, 2026-05-05)"
   sodipodi:docname="logos teams.svg"
   inkscape:export-batch-name="logos teams"
   inkscape:export-batch-path="Desktop/3 LIGA"
   xmlns:inkscape="http://www.inkscape.org/namespaces/inkscape"
   xmlns:sodipodi="http://sodipodi.sourceforge.net/DTD/sodipodi-0.dtd"
   xmlns="http://www.w3.org/2000/svg"
   xmlns:svg="http://www.w3.org/2000/svg"><sodipodi:namedview
     id="namedview1"
     pagecolor="#ffffff"
     bordercolor="#000000"
     borderopacity="0.25"
     inkscape:showpageshadow="2"
     inkscape:pageopacity="0.0"
     inkscape:pagecheckerboard="0"
     inkscape:deskcolor="#d1d1d1"
     inkscape:document-units="mm"
     inkscape:zoom="0.037190382"
     inkscape:cx="-4006.4122"
     inkscape:cy="-8779.1516"
     inkscape:window-width="1920"
     inkscape:window-height="1050"
     inkscape:window-x="0"
     inkscape:window-y="30"
     inkscape:window-maximized="0"
     inkscape:current-layer="layer1"><inkscape:page
       x="0"
       y="0"
       width="201.14819"
       height="87.579727"
       id="page1"
       margin="0"
       bleed="0" /></sodipodi:namedview><defs
     id="defs1"><style
       id="style1-7">
      .cls-1 {
        fill: #fff;
      }
    </style></defs><g
     inkscape:label="Ebene 1"
     inkscape:groupmode="layer"
     id="layer1"
     transform="translate(1015.4478,893.8556)"><g
       id="g198"
       transform="matrix(0.26458333,0,0,0.26458333,-1015.4478,-893.8556)"
       style="fill:#000000"><path
         class="cls-1"
         d="M 712.57,220.88 H 467.16 l -13.4,50.05 H 633.4 c 39.84,0 67.67,-17.71 79.17,-50.05 M 753.77,14.7 C 746.07,5.08 730.77,0 709.52,0 H 526.29 l -57.3,214.02 191.03,-0.1 c -4.76,-12.77 -15.33,-22.83 -26.6,-29.92 -1.85,-5.92 -5.32,-10.21 -7.05,-16.25 -7.94,-6.53 -20.57,-8.37 -26.6,-16.79 -2.41,11.21 -11.06,17.59 -14.66,25.99 -12.28,2.43 -20.32,-3.93 -29.32,-5.96 -6.37,-1.43 -15.86,-4.6 -23.55,-4.97 -3.31,-0.16 -7.05,3.42 -13.09,3.02 -0.9,-0.06 -4.45,4.41 -5.23,4.83 -3.02,1.61 -5.03,-0.81 -5.03,-0.81 2.82,-9.86 18.12,-22.75 19.93,-22.95 1.81,-0.2 5.64,8.46 7.45,9.06 1.81,0.61 32.23,-1.36 39.61,5.86 2.39,-7.26 4.27,-14.37 4.88,-22.2 0.25,-3.2 -1.01,-6.97 -0.54,-10.29 0.86,-6.07 7.63,-9.9 9.23,-14.08 2.97,-7.78 -3.08,-13.71 -2.17,-22.2 -1.35,1.29 -3.59,3.24 -1.63,4.32 -2.9,-0.35 -7.23,0.71 -9.23,-0.54 0.12,-2.79 5.95,-2.71 3.8,-5.95 -1.5,3.38 -4.44,5.32 -8.15,6.5 0.33,-2.63 0.33,-2.78 0,-5.41 1.09,-1.81 5.5,-0.29 5.43,-3.25 -2.15,0.73 -6.08,2.34 -6.52,-1.09 0.46,-1.52 2.93,-1.04 4.89,-1.08 -0.56,-2.52 -1.2,-4.94 -2.72,-6.5 -0.66,1.96 1.09,4.27 0,4.87 -4.18,0.02 -3.86,-4.46 -5.43,-7.04 0.52,-2.18 5.51,0.08 4.34,-3.79 -0.32,0 -5.98,3.01 -5.43,-1.63 0.59,-1.68 2.65,-0.23 3.8,-2.16 -2.25,-0.15 -2.11,0.71 -3.8,0 1.71,-2.61 3.52,-3.94 1.63,-7.58 4.77,0.96 5.67,-1.92 8.14,-3.25 -0.97,-0.84 -2.72,-0.9 -2.17,-3.25 3.34,-2.54 3.58,3.74 5.43,0 1.92,-1.27 -2.55,-0.66 -2.71,-1.63 3.73,-4.58 11.84,-4.8 18.46,-6.5 0.4,-9.17 6.03,-13.11 5.97,-22.74 h 2.17 c -0.23,-4.02 0.39,-7.19 2.17,-9.2 1.56,-0.06 3.55,0.29 4.34,-0.54 0.78,-1.75 0.51,-4.54 0.54,-7.04 h 1.63 c 0.47,5.3 3.87,7.69 5.42,11.91 2.13,0.05 4.76,-0.42 4.35,2.17 -4.01,1.59 -7.53,3.69 -11.94,4.87 -2.85,6.73 -4.35,14.8 -4.89,23.82 4.35,2.27 3.4,5.01 6.52,8.66 1.07,-0.37 -0.13,-3.02 1.09,-3.25 5.6,-3.67 8.28,-12.6 12.49,-18.41 3.33,-4.6 7.97,-6.58 6.52,-15.7 6.97,0.27 3.01,-10.35 7.06,-13 1.16,2.13 0.44,6.4 0,8.66 2.59,0.67 3.81,2.7 7.06,2.71 -2.68,3.59 -6.04,9.87 -10.32,13.54 -3.85,17.09 -12.94,28.96 -23.89,38.99 -2.88,6.69 5.02,9.78 5.43,16.25 0.22,3.44 -2.54,6.7 -3.26,10.29 -1.66,8.27 -0.89,18.35 -5.43,24.37 1.28,1.42 1.79,3.63 2.17,5.95 10.87,6.91 20.25,14.99 27.69,25.45 2.46,3.46 2.49,7.2 4.35,11.37 1.27,2.85 4.78,5.69 7.06,9.21 4.09,6.31 6.18,11.51 11.94,15.7 4.43,-0.87 5.3,3.66 8.69,4.33 4.9,0.98 9.54,-4.5 13.57,0 l -17.52,14.21 48.34,-0.02 7.88,-29.84 c 5.4,-20.36 0.22,-34.43 -16.31,-44.29 l -11.69,-6.97 12.46,-5.59 c 24.2,-10.85 37.75,-24.78 42.64,-43.82 l 7.9,-29.92 c 4.52,-16.88 3.22,-29.92 -3.86,-38.76"
         id="path1-8"
         style="fill:#000000" /><path
         class="cls-1"
         d="m 685.16,327.8 h -1.55 v 2.99 h 1.55 z m -24.92,-22 10.59,24.99 h 1.65 l 10.56,-24.99 h -1.9 l -9.5,22.74 -9.5,-22.74 z m -6.75,22 h -1.55 v 2.99 h 1.55 z m -20.73,1.37 v -10.38 h 12.71 v -1.55 h -12.71 v -9.82 h 14.54 v -1.62 h -16.33 v 24.99 h 16.65 v -1.62 h -14.85 z m -32.28,-0.79 c -1.1,-0.62 -1.99,-1.44 -2.66,-2.46 -0.67,-1.02 -1.14,-2.19 -1.41,-3.5 -0.27,-1.31 -0.4,-2.66 -0.4,-4.05 V 305.8 h -1.79 v 12.57 c 0,1.6 0.17,3.14 0.51,4.64 0.34,1.5 0.91,2.85 1.72,4.03 0.81,1.19 1.88,2.14 3.22,2.85 1.34,0.72 3,1.07 5,1.07 2,0 3.54,-0.34 4.86,-1.02 1.31,-0.68 2.38,-1.6 3.2,-2.76 0.82,-1.16 1.41,-2.5 1.78,-4.03 0.36,-1.52 0.55,-3.12 0.55,-4.79 v -12.57 h -1.79 v 12.57 c 0,1.34 -0.14,2.66 -0.4,3.98 -0.27,1.31 -0.73,2.49 -1.37,3.52 -0.64,1.03 -1.53,1.87 -2.64,2.5 -1.12,0.63 -2.52,0.95 -4.21,0.95 -1.69,0 -3.05,-0.31 -4.15,-0.93 m -25.85,-7.31 5.56,-13.09 5.46,13.09 z m -5.84,9.72 h 1.94 l 3.48,-8.24 h 11.93 l 3.48,8.24 h 1.9 L 580.98,305.8 h -1.55 l -10.63,24.99 z m -4.4,0 h 1.55 v -12.14 h -7.21 v 1.44 h 5.67 v 4.82 c -1.27,1.53 -2.59,2.64 -3.96,3.34 -1.37,0.7 -2.82,1.06 -4.35,1.06 -1.41,0 -2.72,-0.3 -3.94,-0.9 -1.22,-0.6 -2.28,-1.4 -3.19,-2.41 -0.9,-1.01 -1.61,-2.18 -2.13,-3.5 -0.52,-1.33 -0.77,-2.73 -0.77,-4.21 0,-1.38 0.22,-2.73 0.67,-4.05 0.44,-1.31 1.09,-2.49 1.94,-3.52 0.84,-1.03 1.87,-1.87 3.06,-2.5 1.2,-0.63 2.53,-0.95 4.01,-0.95 1.76,0 3.34,0.37 4.73,1.11 1.39,0.74 2.52,1.93 3.36,3.57 l 1.48,-0.88 c -0.4,-0.8 -0.88,-1.53 -1.46,-2.2 -0.58,-0.67 -1.26,-1.24 -2.04,-1.72 -0.79,-0.48 -1.68,-0.86 -2.67,-1.13 -1,-0.27 -2.12,-0.4 -3.36,-0.4 -1.67,0 -3.2,0.35 -4.61,1.04 -1.41,0.69 -2.62,1.63 -3.64,2.8 -1.02,1.17 -1.82,2.52 -2.39,4.05 -0.58,1.53 -0.86,3.11 -0.86,4.75 0,1.64 0.29,3.12 0.88,4.65 0.59,1.53 1.39,2.89 2.43,4.08 1.03,1.2 2.27,2.16 3.71,2.89 1.44,0.73 3.01,1.09 4.7,1.09 3.19,0 6,-1.36 8.41,-4.08 v 3.91 z M 539.8,308.54 c -1.03,-0.99 -2.18,-1.72 -3.45,-2.2 -1.27,-0.48 -2.71,-0.72 -4.33,-0.72 -1.31,0 -2.51,0.15 -3.59,0.46 -1.08,0.31 -2.01,0.76 -2.78,1.36 -0.77,0.6 -1.38,1.33 -1.81,2.2 -0.43,0.87 -0.65,1.87 -0.65,2.99 0,1.03 0.17,1.89 0.53,2.57 0.35,0.68 0.87,1.26 1.57,1.74 0.69,0.48 1.55,0.88 2.57,1.2 1.02,0.32 2.2,0.62 3.54,0.9 1.31,0.28 2.46,0.58 3.45,0.88 0.99,0.3 1.8,0.67 2.45,1.09 0.64,0.42 1.13,0.92 1.46,1.5 0.33,0.58 0.49,1.27 0.49,2.09 0,1.62 -0.62,2.83 -1.85,3.63 -1.23,0.8 -2.94,1.2 -5.12,1.2 -1.9,0 -3.61,-0.32 -5.14,-0.97 -1.53,-0.64 -2.82,-1.52 -3.87,-2.62 l -0.95,1.44 c 2.7,2.49 5.99,3.73 9.89,3.73 1.34,0 2.55,-0.14 3.64,-0.42 1.09,-0.28 2.03,-0.7 2.82,-1.25 0.79,-0.55 1.4,-1.24 1.83,-2.06 0.43,-0.82 0.65,-1.78 0.65,-2.89 0,-1.11 -0.21,-2.03 -0.62,-2.78 -0.41,-0.75 -1,-1.38 -1.76,-1.9 -0.76,-0.52 -1.69,-0.94 -2.78,-1.28 -1.09,-0.34 -2.31,-0.65 -3.64,-0.93 -1.29,-0.28 -2.39,-0.55 -3.31,-0.81 -0.91,-0.26 -1.67,-0.57 -2.27,-0.95 -0.6,-0.38 -1.04,-0.83 -1.32,-1.36 -0.28,-0.53 -0.42,-1.19 -0.42,-1.99 0,-1.57 0.56,-2.82 1.67,-3.75 1.11,-0.93 2.89,-1.39 5.33,-1.39 2.96,0 5.24,0.9 6.86,2.71 l 0.92,-1.41 z m -22.34,-2.74 h -1.8 v 24.99 h 1.8 z m -21.9,23.37 v -10.38 h 12.71 v -1.55 h -12.71 v -9.82 h 14.54 v -1.62 h -16.33 v 24.99 h 16.65 v -1.62 h -14.85 z m -23.19,-21.75 h 8.52 c 0.77,0 1.5,0.17 2.16,0.51 0.67,0.34 1.25,0.79 1.76,1.36 0.5,0.56 0.9,1.21 1.2,1.95 0.29,0.74 0.44,1.51 0.44,2.31 0,0.8 -0.12,1.53 -0.37,2.27 -0.25,0.74 -0.61,1.4 -1.07,1.97 -0.47,0.58 -1.03,1.04 -1.69,1.39 -0.66,0.35 -1.38,0.53 -2.18,0.53 h -8.76 v -12.28 z m 0,23.37 v -9.43 h 8.1 l 6.05,9.43 h 2.08 l -6.23,-9.71 c 0.87,-0.14 1.66,-0.43 2.39,-0.88 0.73,-0.44 1.35,-1.01 1.87,-1.69 0.52,-0.68 0.91,-1.45 1.2,-2.31 0.28,-0.86 0.42,-1.74 0.42,-2.66 0,-0.92 -0.18,-1.87 -0.55,-2.8 -0.37,-0.93 -0.87,-1.76 -1.51,-2.5 -0.64,-0.74 -1.41,-1.33 -2.31,-1.78 -0.89,-0.45 -1.87,-0.67 -2.92,-0.67 h -10.38 v 24.99 h 1.8 z m -14.29,-23.37 c 0.66,0 1.26,0.13 1.8,0.4 0.54,0.27 1,0.63 1.39,1.09 0.39,0.46 0.69,0.99 0.91,1.58 0.22,0.6 0.33,1.24 0.33,1.92 0,0.63 -0.12,1.26 -0.35,1.87 -0.24,0.61 -0.56,1.14 -0.97,1.6 -0.41,0.46 -0.9,0.83 -1.46,1.11 -0.56,0.28 -1.18,0.42 -1.87,0.42 h -9.15 v -10 h 9.36 z m 5.07,18.55 c -0.26,0.61 -0.6,1.15 -1.04,1.64 -0.43,0.48 -0.95,0.86 -1.55,1.14 -0.6,0.28 -1.25,0.42 -1.95,0.42 h -9.89 v -10.24 h 10.14 c 0.66,0 1.27,0.14 1.85,0.42 0.58,0.28 1.07,0.66 1.5,1.14 0.42,0.48 0.75,1.03 0.99,1.65 0.23,0.62 0.35,1.26 0.35,1.92 0,0.66 -0.13,1.29 -0.39,1.9 m 0.92,-5.61 c -0.83,-1.16 -1.97,-1.95 -3.4,-2.38 1.13,-0.49 2.01,-1.27 2.64,-2.32 0.63,-1.06 0.95,-2.22 0.95,-3.48 0,-0.77 -0.13,-1.54 -0.4,-2.31 -0.27,-0.76 -0.65,-1.44 -1.14,-2.04 -0.49,-0.6 -1.09,-1.09 -1.8,-1.46 -0.7,-0.38 -1.49,-0.56 -2.36,-0.56 h -11.65 v 24.99 h 11.68 c 0.91,0 1.78,-0.16 2.61,-0.49 0.82,-0.33 1.54,-0.79 2.15,-1.37 0.61,-0.59 1.09,-1.27 1.44,-2.06 0.35,-0.79 0.53,-1.64 0.53,-2.55 0,-1.48 -0.42,-2.8 -1.25,-3.96 m -47.95,-12.94 h 8.52 c 0.77,0 1.5,0.17 2.16,0.51 0.67,0.34 1.26,0.79 1.76,1.36 0.5,0.56 0.9,1.21 1.2,1.95 0.29,0.74 0.44,1.51 0.44,2.31 0,0.8 -0.12,1.53 -0.37,2.27 -0.25,0.74 -0.61,1.4 -1.07,1.97 -0.47,0.58 -1.03,1.04 -1.69,1.39 -0.66,0.35 -1.38,0.53 -2.18,0.53 h -8.76 v -12.28 z m 0,23.37 v -9.43 h 8.1 l 6.05,9.43 h 2.08 l -6.23,-9.71 c 0.87,-0.14 1.67,-0.43 2.39,-0.88 0.73,-0.44 1.35,-1.01 1.87,-1.69 0.52,-0.68 0.91,-1.45 1.2,-2.31 0.28,-0.86 0.42,-1.74 0.42,-2.66 0,-0.92 -0.18,-1.87 -0.55,-2.8 -0.37,-0.93 -0.87,-1.76 -1.51,-2.5 -0.64,-0.74 -1.41,-1.33 -2.31,-1.78 -0.89,-0.45 -1.87,-0.67 -2.92,-0.67 h -10.38 v 24.99 h 1.8 z m -21.9,-1.62 v -10.38 h 12.71 v -1.55 h -12.71 v -9.82 h 14.54 v -1.62 h -16.33 v 24.99 h 16.65 v -1.62 H 394.24 Z M 383.78,305.8 v 11.4 h -15.77 v -11.4 h -1.8 v 24.99 h 1.8 v -11.97 h 15.77 v 11.97 h 1.79 V 305.8 Z m -43.06,17.01 c 0.58,1.54 1.38,2.91 2.41,4.12 1.03,1.21 2.26,2.19 3.68,2.94 1.42,0.75 2.99,1.13 4.7,1.13 0.96,0 1.94,-0.12 2.94,-0.37 1,-0.25 1.94,-0.62 2.83,-1.11 0.89,-0.49 1.7,-1.1 2.43,-1.83 0.73,-0.73 1.3,-1.56 1.72,-2.5 l -1.55,-0.74 c -0.42,0.85 -0.95,1.58 -1.58,2.2 -0.63,0.62 -1.31,1.13 -2.04,1.53 -0.73,0.4 -1.49,0.69 -2.29,0.88 -0.8,0.19 -1.57,0.28 -2.32,0.28 -1.41,0 -2.72,-0.3 -3.94,-0.91 -1.22,-0.61 -2.28,-1.42 -3.17,-2.45 -0.89,-1.02 -1.6,-2.2 -2.11,-3.54 -0.52,-1.34 -0.77,-2.75 -0.77,-4.22 0,-1.31 0.22,-2.62 0.65,-3.92 0.43,-1.3 1.07,-2.47 1.92,-3.5 0.84,-1.03 1.88,-1.87 3.1,-2.52 1.22,-0.64 2.63,-0.97 4.22,-0.97 0.73,0 1.47,0.08 2.22,0.25 0.75,0.16 1.47,0.43 2.16,0.79 0.69,0.37 1.34,0.84 1.94,1.43 0.6,0.59 1.12,1.31 1.57,2.18 l 1.48,-0.85 c -0.77,-1.6 -1.95,-2.9 -3.52,-3.92 -1.57,-1.02 -3.47,-1.53 -5.7,-1.53 -1.88,0 -3.55,0.37 -5.02,1.11 -1.47,0.74 -2.7,1.7 -3.71,2.87 -1.01,1.17 -1.78,2.5 -2.31,3.99 -0.53,1.49 -0.79,2.99 -0.79,4.49 0,1.6 0.29,3.16 0.86,4.7 m -6.05,-17.02 h -1.8 v 24.99 h 1.8 z m -5.87,24.99 v -1.62 H 313.89 V 305.8 h -1.79 v 24.99 h 16.72 z m -24.45,-8.22 c -0.43,1.33 -1.07,2.48 -1.92,3.47 -0.85,0.99 -1.89,1.75 -3.15,2.31 -1.26,0.56 -2.7,0.83 -4.35,0.83 h -6.51 v -21.75 h 6.51 c 1.62,0 3.05,0.27 4.29,0.81 1.24,0.54 2.29,1.29 3.15,2.25 0.86,0.96 1.51,2.11 1.95,3.43 0.44,1.33 0.67,2.78 0.67,4.35 0,1.57 -0.22,2.99 -0.65,4.31 m -9.4,8.21 c 1.81,0 3.44,-0.3 4.91,-0.9 1.47,-0.6 2.71,-1.44 3.75,-2.53 1.03,-1.09 1.83,-2.4 2.38,-3.94 0.55,-1.54 0.83,-3.26 0.83,-5.16 0,-1.71 -0.25,-3.33 -0.74,-4.84 -0.49,-1.51 -1.23,-2.83 -2.22,-3.96 -0.99,-1.13 -2.22,-2.02 -3.71,-2.67 -1.49,-0.65 -3.22,-0.99 -5.19,-0.99 h -8.31 v 24.99 h 8.31 z m -29.71,-23.37 h 8.52 c 0.77,0 1.5,0.17 2.16,0.51 0.67,0.34 1.26,0.79 1.76,1.36 0.5,0.56 0.9,1.21 1.2,1.95 0.29,0.74 0.44,1.51 0.44,2.31 0,0.8 -0.12,1.53 -0.37,2.27 -0.25,0.74 -0.61,1.4 -1.07,1.97 -0.47,0.58 -1.03,1.04 -1.69,1.39 -0.66,0.35 -1.38,0.53 -2.18,0.53 h -8.76 v -12.28 z m 0,23.37 v -9.43 h 8.1 l 6.05,9.43 h 2.08 l -6.23,-9.71 c 0.87,-0.14 1.67,-0.43 2.39,-0.88 0.73,-0.44 1.35,-1.01 1.87,-1.69 0.52,-0.68 0.91,-1.45 1.2,-2.31 0.28,-0.86 0.42,-1.74 0.42,-2.66 0,-0.92 -0.18,-1.87 -0.55,-2.8 -0.37,-0.93 -0.87,-1.76 -1.51,-2.5 -0.64,-0.74 -1.41,-1.33 -2.31,-1.78 -0.89,-0.45 -1.87,-0.67 -2.92,-0.67 h -10.38 v 24.99 h 1.8 z m -27.87,-16.51 c 0.47,-1.31 1.14,-2.49 2.01,-3.54 0.87,-1.04 1.91,-1.88 3.13,-2.52 1.22,-0.63 2.58,-0.95 4.08,-0.95 1.5,0 2.75,0.31 3.94,0.91 1.2,0.61 2.24,1.42 3.12,2.45 0.88,1.03 1.57,2.19 2.06,3.52 0.49,1.33 0.74,2.7 0.74,4.14 0,1.44 -0.23,2.7 -0.7,4.01 -0.47,1.31 -1.13,2.49 -1.99,3.54 -0.86,1.04 -1.89,1.88 -3.1,2.52 -1.21,0.63 -2.56,0.95 -4.07,0.95 -1.51,0 -2.79,-0.31 -4.01,-0.92 -1.22,-0.61 -2.27,-1.42 -3.15,-2.45 -0.88,-1.02 -1.56,-2.19 -2.04,-3.52 -0.48,-1.33 -0.72,-2.7 -0.72,-4.14 0,-1.44 0.23,-2.7 0.7,-4.01 m 13.83,15.65 c 1.43,-0.69 2.67,-1.62 3.71,-2.78 1.04,-1.16 1.87,-2.5 2.46,-4.03 0.6,-1.53 0.9,-3.13 0.9,-4.82 0,-1.55 -0.28,-3.08 -0.84,-4.59 -0.56,-1.51 -1.36,-2.87 -2.38,-4.07 -1.02,-1.2 -2.25,-2.16 -3.7,-2.9 -1.44,-0.74 -3.03,-1.11 -4.77,-1.11 -1.74,0 -3.21,0.35 -4.65,1.04 -1.43,0.69 -2.67,1.63 -3.71,2.8 -1.04,1.17 -1.87,2.52 -2.46,4.05 -0.6,1.53 -0.9,3.12 -0.9,4.79 0,1.67 0.28,3.16 0.85,4.68 0.56,1.53 1.36,2.87 2.39,4.05 1.03,1.17 2.26,2.12 3.69,2.85 1.43,0.73 3.02,1.09 4.75,1.09 1.73,0 3.21,-0.35 4.65,-1.04 m -1.43,-31.38 h -1.55 v 3.1 h 1.55 z m -4.79,0 h -1.55 v 3.1 h 1.55 z m -16.9,32.24 h 1.65 V 305.8 h -1.8 v 22 l -17.53,-22 h -1.37 v 24.99 h 1.8 v -21.61 z m -36.95,0 h 1.65 V 305.8 h -1.79 v 22 l -17.53,-22 h -1.37 v 24.99 h 1.8 v -21.61 l 17.25,21.61 z M 146,314.28 c 0.47,-1.31 1.14,-2.49 2.01,-3.54 0.87,-1.05 1.91,-1.88 3.13,-2.52 1.22,-0.63 2.58,-0.95 4.08,-0.95 1.5,0 2.74,0.31 3.94,0.91 1.2,0.61 2.23,1.42 3.12,2.45 0.88,1.02 1.57,2.19 2.06,3.52 0.49,1.33 0.74,2.7 0.74,4.14 0,1.44 -0.24,2.7 -0.7,4.01 -0.47,1.31 -1.13,2.49 -1.99,3.54 -0.86,1.04 -1.89,1.88 -3.1,2.52 -1.21,0.63 -2.56,0.95 -4.07,0.95 -1.51,0 -2.79,-0.31 -4.01,-0.92 -1.22,-0.61 -2.27,-1.42 -3.15,-2.45 -0.88,-1.02 -1.56,-2.19 -2.04,-3.52 -0.48,-1.33 -0.72,-2.7 -0.72,-4.14 0,-1.44 0.23,-2.7 0.7,-4.01 m 13.83,15.65 c 1.43,-0.69 2.67,-1.62 3.71,-2.78 1.04,-1.16 1.87,-2.5 2.46,-4.03 0.59,-1.53 0.9,-3.13 0.9,-4.82 0,-1.55 -0.28,-3.08 -0.85,-4.59 -0.56,-1.51 -1.36,-2.87 -2.38,-4.07 -1.02,-1.2 -2.25,-2.16 -3.7,-2.9 -1.44,-0.74 -3.03,-1.11 -4.77,-1.11 -1.74,0 -3.22,0.35 -4.65,1.04 -1.43,0.69 -2.67,1.63 -3.71,2.8 -1.04,1.17 -1.87,2.52 -2.46,4.05 -0.6,1.53 -0.9,3.12 -0.9,4.79 0,1.67 0.28,3.16 0.84,4.68 0.56,1.53 1.36,2.87 2.39,4.05 1.03,1.17 2.26,2.12 3.7,2.85 1.43,0.73 3.01,1.09 4.75,1.09 1.74,0 3.21,-0.35 4.65,-1.04 m -17.09,0.86 v -1.62 H 127.8 V 305.8 H 126 v 24.99 z M 117.35,305.8 v 11.4 h -15.77 v -11.4 h -1.8 v 24.99 h 1.8 v -11.97 h 15.77 v 11.97 h 1.8 V 305.8 Z m -21.79,0 h -20.1 v 1.62 h 9.15 v 23.37 h 1.8 v -23.37 h 9.15 z m -36.04,15.27 5.56,-13.09 5.45,13.09 H 59.51 Z m -5.84,9.72 h 1.94 l 3.48,-8.24 h 11.93 l 3.48,8.24 h 1.9 L 65.85,305.8 H 64.3 L 53.67,330.79 Z M 49.56,305.8 h -1.8 v 24.99 h 1.8 z m -23.19,1.62 h 8.52 c 0.77,0 1.5,0.17 2.16,0.51 0.67,0.34 1.25,0.79 1.76,1.36 0.5,0.56 0.9,1.21 1.2,1.95 0.29,0.74 0.44,1.51 0.44,2.31 0,0.8 -0.12,1.53 -0.37,2.27 -0.25,0.74 -0.61,1.4 -1.07,1.97 -0.47,0.58 -1.03,1.04 -1.69,1.39 -0.66,0.35 -1.38,0.53 -2.18,0.53 h -8.76 v -12.28 z m 0,23.37 v -9.43 h 8.1 l 6.05,9.43 h 2.08 l -6.23,-9.71 c 0.87,-0.14 1.66,-0.43 2.39,-0.88 0.73,-0.44 1.35,-1.01 1.87,-1.69 0.52,-0.68 0.91,-1.45 1.2,-2.31 0.28,-0.86 0.42,-1.74 0.42,-2.66 0,-0.92 -0.18,-1.87 -0.55,-2.8 -0.36,-0.93 -0.87,-1.76 -1.51,-2.5 -0.65,-0.74 -1.41,-1.33 -2.31,-1.78 -0.89,-0.45 -1.87,-0.67 -2.92,-0.67 H 24.58 v 24.99 h 1.8 z M 20.35,305.8 H 0.25 v 1.62 H 9.4 v 23.37 h 1.8 v -23.37 h 9.15 z"
         id="path2-0"
         style="fill:#000000" /><path
         class="cls-1"
         d="M 457.87,219.49 H 319.85 l 13.93,50.29 h 110.89 l 13.19,-50.29 z M 352.06,108.19 c 2.83,2.57 11.26,10.58 11.66,14.13 0.26,2.26 -0.49,3.74 -1.35,5.72 h 15.59 c 0.09,0 1.54,-0.27 1.7,-0.32 1.04,-0.33 1.34,-3.53 0.9,-3.84 -0.3,-0.21 -2.87,-0.11 -3.5,-0.11 -1.38,0 -2.82,0.18 -4.24,0 -2.52,-0.33 -3.64,-2.76 -4.59,-4.84 -2.88,-6.31 -3.82,-11.77 -4.3,-18.58 -0.12,-1.7 -0.22,-5.53 -2.34,-5.74 -4,-0.39 -9,0.33 -12.92,1.24 -2.69,0.63 -6.18,1.43 -8.07,3.48 4.08,2.39 7.95,5.68 11.45,8.86 m 6.11,26.4 c -0.38,0.22 -3.52,7.32 -3.62,7.94 -0.08,0.52 0.04,2.78 -0.24,3.02 -0.13,0.11 2.02,4.94 2.91,4.38 1.33,-1.58 2.98,-3.15 4.26,-4.72 1.84,-2.25 3.94,-4.51 1.9,-7.49 -0.59,-0.86 -4.36,-3.62 -5.22,-3.12 m 18.37,-2.29 3.83,10.97 c 3.22,-0.72 6.41,-1.93 9.77,-2.19 2,-0.15 5.14,0.32 6.88,-0.08 0.78,-0.18 1.95,-1.47 1.94,-2.29 -0.02,-1.24 -3.37,-2.04 -4.44,-2.3 -1.92,-0.48 -9.69,-1.27 -10.58,-2.21 -0.34,-0.36 -0.28,-0.94 -0.51,-1.18 -0.71,-0.73 -5.63,0.2 -6.9,-0.72 m -60.93,72.45 2.39,7.93 h 61.17 c -12.42,-4.69 -20.5,-18.32 -21.91,-31.15 -0.09,-0.79 0.31,-2.54 -0.45,-2.92 -0.28,-0.14 -2.69,0.09 -2.92,0.22 -0.34,0.2 -0.34,0.91 -0.57,1.23 -0.61,0.83 -2.11,0.23 -2.53,0.5 -0.05,0.03 -0.25,0.7 -0.48,0.98 -1.46,1.73 -4.86,1.76 -6.95,2.14 0.2,3.26 -0.12,6.06 -1.72,8.93 -1.7,3.05 -4.43,5.37 -7.84,6.3 -4.1,1.12 -8.82,-0.29 -12.98,-0.62 -1.51,2.32 -3.27,4.48 -5.2,6.47 m 2.64,-72.77 4.44,16.46 c 1.26,-1.4 7.43,-8.17 7.58,-8.68 0.2,-0.67 0.45,-4.07 0.17,-5.01 -2.98,-5.03 -12.02,-3.69 -12.19,-2.77 m 5,-3.73 c 0,0 0.45,-0.33 0.23,-0.45 l -10.43,-13.68 c -1.02,3.42 2.18,8.69 2.62,12.06 1.9,3.97 6.22,2.08 7.59,2.08 m -19.7,91.21 H 200.49 l -13.19,50.29 h 109.33 l 9.78,-37.34 z M 515.38,0.25 H 405.61 l -9.78,37.31 5.63,14.88 h -12.9 L 369.51,0.25 h -111.5 l -55.73,212.44 h 73.3 C 260.34,206.03 250.77,189 254.8,170.44 c 4.79,-22.06 28.73,-34.41 49.63,-25.38 1.39,0.6 3.51,2.13 4.68,2.5 0.59,0.19 3.4,-3.3 3.19,-4.99 -0.46,-3.78 -6.82,-25.65 -7.29,-29.5 -0.12,-0.94 0.44,-2.18 0.38,-2.28 -0.02,-0.03 -0.46,-0.15 -0.66,-0.34 -0.45,-0.43 -0.93,-1.19 -1.29,-1.48 -1.02,-0.83 -4.87,-2.06 -5.23,-2.56 -0.54,-0.73 0.26,-1.7 0.8,-1.7 h 3.25 c -1.47,-2.74 -1.03,-7.13 -0.38,-10.14 2.12,-9.92 14.61,-20.48 23.56,-24.44 6.19,-2.74 17.09,-5.48 23.82,-5.12 5.48,0.29 10.41,2.89 15.37,4.93 0.09,-1.24 -1.06,-2.6 0.14,-3.56 0.92,-0.73 3.89,-1.82 5.13,-2.28 6.24,-2.31 14.31,-3.91 20.81,-1.95 4.69,1.42 9.56,5.78 10.66,10.65 0.36,1.6 1.03,7.93 -0.99,8.53 -1.2,0.35 -2.23,-0.41 -2.42,-0.4 -0.49,0.03 -0.14,1.02 -0.27,1.49 -0.28,0.97 -1.79,1.84 -2.03,2.92 -0.2,0.88 0.21,2.51 -0.25,3.11 -0.65,0.85 -2.08,0.03 -2.67,0.37 -0.25,0.14 -0.53,1.33 -0.74,1.61 -0.6,0.84 -2.87,-0.14 -4.1,0.84 -1.05,0.83 -0.21,2.38 -0.96,2.63 -1.27,0.42 -1.9,-0.69 -2.18,-0.63 -0.21,0.05 -0.63,0.7 -1.13,0.9 -2.64,1.06 -4.38,-2.48 -6.11,-3.57 -2.31,-1.45 -1.61,1.39 -1.89,2.97 -0.2,1.1 -0.73,2.35 -0.85,3.41 -0.29,2.61 1.41,6.4 2.15,9.01 0.43,1.52 0.84,5.26 1.87,6.21 1.03,0.94 5.16,1.22 6.73,1.57 2.1,0.47 5.08,1.88 6.85,2.12 1.74,0.23 3.86,0.07 5.59,0.25 3.49,0.36 7.27,1.54 10.61,2.63 1.22,0.4 3.41,2.01 4.52,2.88 1.42,1.12 2.44,5.59 1.25,6.83 -0.3,0.31 -0.79,0.25 -1.08,0.44 -0.35,0.23 -0.61,1.14 -1.22,1.32 -0.81,0.24 -1.2,-0.38 -1.71,-0.36 -0.35,0.02 -0.74,0.36 -1.18,0.38 -0.58,0.03 -2.33,0.05 -2.85,-0.04 -1.19,-0.21 -1.71,-1.55 -2.74,-1.63 -1.79,-0.15 -4.79,0.51 -6.73,0.58 -2.97,0.11 -5.93,-0.14 -8.87,-0.46 0.95,0.83 0.12,2.7 0.25,3.23 0.18,0.74 8.32,1.86 9.66,2.21 2.73,0.72 5.92,1.66 4.68,5.22 -0.3,0.85 -0.96,1.19 -1.36,1.78 -0.15,0.23 -0.36,0.17 0,0.45 14.5,3.01 25.99,14.94 28.61,29.49 2.83,15.72 -4.47,33.54 -19.26,40.65 -0.73,0.35 -1.54,0.65 -2.4,0.93 h 51.5 z"
         id="path3-45"
         style="fill:#000000" /><path
         class="cls-1"
         d="M 13.07,219.42 0,269.51 h 133.5 l 13.07,-50.09 z M 248.77,0 H 25.32 L 0.74,93.91 h 45.09 l -29.64,113.55 -1.23,3.18 h 0.4 c 0,0 -0.5,1.92 -0.5,1.92 h 8.48 c 5.41,-1.98 11.57,-4.41 12.92,-5.15 3.69,-1.99 6.85,-5.6 10.47,-8.03 3.83,-2.57 10.88,-5.29 13.96,-7.93 2.55,-2.19 5.18,-7.77 7.47,-10.69 4.45,-5.68 15.58,-16.33 21.74,-20.27 1.29,-0.82 2.64,-1.67 4.22,-1.92 4.16,2.05 9.3,3.21 13.48,5.07 7.57,3.37 14.46,8.56 22.21,11.35 2.7,0.97 16.14,3.24 15.24,6.67 -0.23,0.9 -2.32,0.88 -2.09,1.35 3.5,1.77 5.9,5.19 0,4.57 1.78,1.27 3.98,1.8 1.88,4.04 -3.62,3.85 -5.74,0.6 -9.6,-1.1 -2.16,7.42 -3.71,0.46 -4.94,-0.32 -0.76,-0.48 -2.05,-0.18 -3.14,-1 -2.53,-1.89 -0.93,-4.81 -7.37,-8.17 -5.38,-2.82 -11.68,-3.69 -17.46,-4.67 -1.43,-0.25 -6.44,-1.43 -7.2,-1.23 -3.33,0.85 -2.74,5.7 -3.84,8.22 -0.28,0.63 -2.72,4.38 -3.17,4.89 -1.31,1.47 -5.95,4.04 -6.17,4.38 -0.53,0.85 -0.03,5.12 -0.47,7.08 -0.58,2.59 -2.5,3.57 -3.2,5.83 3.22,0.49 3.71,-2.94 5.66,-4.2 3.18,-2.06 11.95,-3.43 15.79,-2.99 6.94,0.79 13.87,7.72 14.35,14.23 h 34.25 L 179.3,93.91 h 44.85 z"
         id="path4-7"
         style="fill:#000000" /></g></g><style
     id="style1">@media(prefers-color-scheme:dark){.lines{fill:#d7d7d7}}</style></svg>
