<?xml version="1.0" encoding="UTF-8" standalone="no"?>
<!-- Created with Inkscape (http://www.inkscape.org/) -->

<svg
   width="205.30217mm"
   height="186.7952mm"
   viewBox="0 0 205.30217 186.7952"
   version="1.1"
   id="svg1"
   xml:space="preserve"
   inkscape:version="1.4.4 (dcaf3e7, 2026-05-05)"
   sodipodi:docname="logos teams.svg"
   inkscape:export-batch-name="TSV Baden Östringen"
   inkscape:export-batch-path="Desktop/Frauenliga"
   xmlns:inkscape="http://www.inkscape.org/namespaces/inkscape"
   xmlns:sodipodi="http://sodipodi.sourceforge.net/DTD/sodipodi-0.dtd"
   xmlns="http://www.w3.org/2000/svg"
   xmlns:svg="http://www.w3.org/2000/svg"><sodipodi:namedview
     id="namedview1"
     pagecolor="#ffffff"
     bordercolor="#000000"
     borderopacity="0.25"
     inkscape:showpageshadow="2"
     inkscape:pageopacity="0.0"
     inkscape:pagecheckerboard="0"
     inkscape:deskcolor="#d1d1d1"
     inkscape:document-units="mm"
     inkscape:zoom="0.31540704"
     inkscape:cx="-8173.5652"
     inkscape:cy="280.58981"
     inkscape:window-width="1920"
     inkscape:window-height="1050"
     inkscape:window-x="0"
     inkscape:window-y="30"
     inkscape:window-maximized="0"
     inkscape:current-layer="layer1"><inkscape:page
       x="0"
       y="0"
       width="205.30217"
       height="186.7952"
       id="page1"
       margin="0"
       bleed="0" /></sodipodi:namedview><defs
     id="defs1"><style
       id="style1-7">
      .cls-1 {
        fill: #fff;
      }
    </style></defs><g
     inkscape:label="Ebene 1"
     inkscape:groupmode="layer"
     id="layer1"
     transform="translate(2395.0112,230.24116)"><path
       style="fill:#000000"
       d="m -2284.6579,-43.719682 c -11.5553,-3.102254 -14.5847,-18.854233 -4.985,-25.921101 5.8181,-4.28307 15.6422,0.895445 17.8696,9.419511 2.3027,8.812583 -5.2924,18.539857 -12.8846,16.50159 z m 4.7521,-7.261139 c 3.003,-1.254731 3.2657,-5.452814 0.5611,-8.967632 -3.5065,-4.556921 -7.8454,-5.309128 -9.6963,-1.680988 -2.2266,4.364413 4.74,12.485071 9.1352,10.64862 z m -18.7075,-12.304395 c -1.8109,-1.669967 -1.7692,-1.336587 -0.4437,-3.547186 1.0779,-1.797605 1.0779,-1.797605 2.3911,-0.612635 2.176,1.963429 2.0878,1.57172 0.8339,3.705427 -1.2967,2.206527 -0.9437,2.148864 -2.7813,0.454394 z m 29.2151,-1.474804 c -1.0383,-0.319259 -1.0802,-0.07916 0.6027,-3.452242 1.4287,-2.863679 1.4287,-2.863679 2.3391,-2.852805 2.1643,0.02585 3.8965,-3.14231 2.4881,-4.55069 -0.6777,-0.677705 -1.3173,-0.464863 -2.4941,0.829994 -4.5038,4.955495 -6.9998,5.712972 -9.4928,2.880798 -4.1983,-4.769617 3.9541,-19.116874 8.3595,-14.711511 0.4966,0.496622 -2.2789,5.788172 -3.036,5.788172 -1.7223,0 -3.2394,2.803181 -2.122,3.920632 0.7694,0.769386 1.0074,0.626669 3.9094,-2.343831 3.4686,-3.550593 4.3982,-3.920851 6.7947,-2.706419 6.8547,3.473514 0.022,19.46429 -7.3486,17.197902 z m -25.6373,-4.601068 c -0.844,-0.797627 -1.5513,-1.458017 -1.5718,-1.467533 -0.097,-0.04467 2.1479,-3.630257 2.2993,-3.673177 1.4336,-0.406509 3.1423,2.984384 2.2487,4.462503 -1.4595,2.414188 -1.2016,2.355433 -2.9762,0.678207 z m -6.1428,-22.199653 c -5.5952,-5.221778 -10.1639,-9.589179 -10.1527,-9.705349 0.095,-0.98321 8.3939,-14.01745 9.5042,-14.92726 4.4075,-3.61167 11.482,-0.008 10.6494,5.42409 -0.039,0.25579 -0.1129,0.72234 -0.1638,1.03678 -0.093,0.5717 -0.093,0.5717 0.4695,0.15028 6.3699,-4.77538 13.2161,4.01584 9.2591,11.889601 -0.5575,1.109266 -8.9115,15.112259 -9.1988,15.419127 -0.1464,0.156308 -2.6803,-2.113714 -10.3669,-9.287269 z m 11.4331,-4.005504 c 2.5555,-4.288054 2.8201,-5.588045 1.4221,-6.986055 -1.7677,-1.76765 -2.9923,-1.12738 -5.3449,2.794573 -1.4237,2.373205 -1.4237,2.373205 -0.163,3.578291 1.2389,1.184201 2.8055,2.643609 2.8469,2.652157 0.012,0.0024 0.5691,-0.915143 1.2389,-2.038966 z m -8.1641,-7.390705 c 2.3077,-3.9541 2.0282,-6.73859 -0.6764,-6.73859 -0.974,0 -3.7407,3.31358 -4.2014,5.03189 -0.045,0.16932 3.482,3.48916 3.7073,3.48916 0.072,0 0.5984,-0.80211 1.1705,-1.78246 z m 41.0203,18.920416 c -0.365,-0.130175 -0.8345,-0.380431 -1.0434,-0.556125 -0.5901,-0.496387 -4.4501,-4.026141 -5.4461,-4.980079 -0.8927,-0.855098 -0.8927,-0.855098 -1.4753,0.11889 -0.7341,1.227471 -0.6192,1.255716 -2.6477,-0.650567 -1.7116,-1.60854 -1.7116,-1.60854 -1.0892,-2.641705 0.6223,-1.033165 0.6223,-1.033165 -0.4072,-2.078807 -0.892,-0.906006 -1.133,-8.413753 -0.2969,-9.249833 0.035,-0.0346 1.1113,0.91487 2.3926,2.11003 2.7665,2.580508 2.377,2.489247 3.3731,0.79024 0.9846,-1.6795 0.6512,-1.70383 2.7122,0.19797 2.0084,1.853267 1.9314,1.587213 0.9351,3.228193 -0.4329,0.713057 -0.8046,1.358112 -0.826,1.433455 -0.097,0.342031 5.2984,5.052628 5.7873,5.052628 0.6188,0 1.2324,-0.700783 1.6636,-1.899944 0.3946,-1.097343 0.1871,-1.171404 2.2992,0.820614 3.2806,3.09413 -1.5555,9.865654 -5.9313,8.30504 z m 3.5202,-14.892084 c -3.1971,-2.971212 -6.1583,-5.742762 -6.5804,-6.158982 -1.5907,-1.56836 2.097,-6.49298 3.7526,-5.01124 1.2936,1.15774 1.2936,1.15774 0.9152,0.21535 -1.1548,-2.87643 -1.0337,-4.63893 0.4385,-6.38066 0.9774,-1.15641 0.9618,-1.16465 2.6989,1.4307 1.7356,2.59327 1.7073,2.52548 1.2338,2.95397 -2.5567,2.31384 -1.2535,5.02389 5.3215,11.06614 1.4713,1.352092 0.5853,4.734356 -1.8881,7.207783 -0.043,0.04353 -2.6949,-2.351846 -5.892,-5.323061 z m -31.6356,-19.501642 c -4.2419,-7.48622 -7.739,-13.66378 -7.7714,-13.72793 -0.046,-0.0915 4.3059,-7.50441 4.5651,-7.77584 0.066,-0.069 25.8119,10.24302 25.8119,10.33842 0,0.21084 -4.23,7.03154 -4.3608,7.03154 -0.091,0 -1.0123,-0.42424 -2.0462,-0.94276 -2.9588,-1.48391 -7.1851,5.60539 -5.1538,8.64522 1.4045,2.10181 0.094,6.14057 -3.2146,9.90852 -0.065,0.0738 -3.5884,-5.99096 -7.8302,-13.47717 z m 7.5667,-6.22623 c 0.7412,-1.24648 1.3175,-2.29419 1.2808,-2.32825 -0.1825,-0.16907 -8.5472,-4.28598 -8.6004,-4.23285 -0.082,0.0825 5.7204,8.81715 5.8616,8.82292 0.061,0.002 0.7168,-1.01534 1.458,-2.26182 z m -40.6376,16.90808 c -5.5749,-5.65618 -10.1649,-12.17813 -13.5662,-19.27608 -1.1538,-2.40761 -1.1467,-2.37773 -0.6212,-2.62041 0.2152,-0.0994 0.9847,-0.60783 1.71,-1.12989 1.3188,-0.9492 1.3188,-0.9492 2.1738,0.97702 2.884,6.49764 7.5959,13.35828 13.1771,19.18627 1.2684,1.32446 0.8788,3.81718 -0.7544,4.82655 -0.063,0.0388 -1.0165,-0.84471 -2.1191,-1.96346 z m 72.7186,-4.14514 c -3.0128,-2.82501 -5.9324,-5.56982 -6.488,-6.09958 -1.0101,-0.9632 -1.0101,-0.9632 0.7526,-3.90615 1.7628,-2.94294 1.7628,-2.94294 4.2273,-0.62458 1.3555,1.2751 4.3238,4.06331 6.5962,6.19602 4.1317,3.87767 4.1317,3.87767 3.6942,4.60286 -0.2407,0.39886 -1.0044,1.68215 -1.6971,2.85175 -1.5532,2.62224 -0.6627,3.00183 -7.0852,-3.02032 z m 5.8002,-9.51634 c -3.0746,-2.88244 -6.0331,-5.66017 -6.5743,-6.17273 -0.9841,-0.93192 -0.9841,-0.93192 0.6115,-3.6084 1.8403,-3.08688 1.5759,-2.89984 2.6307,-1.86094 0.9449,0.93065 1.0539,0.92567 0.8305,-0.0379 -1.5977,-6.89147 3.9889,-11.34581 8.8899,-7.08806 1.6211,1.40835 8.5817,7.91803 8.6535,8.09292 0.05,0.12099 -2.4161,4.4191 -3.1946,5.56862 -0.1868,0.27578 -0.5546,-0.0149 -3.4937,-2.76121 -6.2487,-5.83866 -6.6117,-6.0538 -7.4568,-4.41951 -1.1198,2.1656 0.062,3.95981 6.7419,10.23761 1.4226,1.33691 0.5531,4.5494 -1.9433,7.1796 -0.058,0.0609 -2.6207,-2.24757 -5.6953,-5.13002 z m -15.6255,0.29042 c -2.9875,-2.71776 -2.8953,-2.22761 -1.0123,-5.37861 1.9957,-3.3397 1.6455,-3.21781 3.6931,-1.28555 1.3938,1.31533 -0.1832,7.3912 -1.8952,7.30165 -0.05,-0.003 -0.403,-0.28946 -0.7856,-0.63749 z m -98.6877,-5.54884 c -3.6679,-0.43362 -7.341,-1.38118 -10.347,-2.6692 -3.1198,-1.33684 -8.652,-4.3384 -8.5389,-4.63294 0.3827,-0.99734 11.4678,-14.15738 11.7303,-13.92603 4.2612,3.75534 6.1749,4.67874 10.7081,5.16681 4.5906,0.49426 7.9222,-0.79641 7.9242,-3.06994 0,-1.47373 -0.7377,-1.93003 -6.0361,-3.72691 -10.5228,-3.56861 -13.8343,-8.32081 -11.9689,-17.17579 0.1474,-0.69967 0.268,-1.34527 0.268,-1.43466 0,-0.47985 -4.3384,-0.17263 -4.4581,0.31569 -9.9844,40.71772 -9.6976,40.12441 -19.4237,40.17221 -6.6266,0.0326 -9.159,-0.008 -9.159,-0.14817 0,-0.10625 2.2653,-9.04753 5.0341,-19.8695 2.7688,-10.82198 5.0858,-19.89152 5.1489,-20.15454 0.1147,-0.47822 0.1147,-0.47822 -5.9939,-0.47822 -6.1087,0 -6.1087,0 -6.0078,-0.39128 4.0804,-15.83476 3.2686,-15.34353 25.4325,-15.39077 17.2722,-0.0368 20.7304,-0.005 20.7304,0.18974 0,0.12866 -0.1165,0.61806 -0.259,1.08758 -0.1424,0.46951 -0.2598,0.862 -0.2608,0.8722 0,0.0102 0.6828,-0.31811 1.5197,-0.72957 3.7538,-1.8456 8.9383,-3.0278 13.2782,-3.0278 1.4231,0 1.4006,-0.0765 0.587,1.99572 -1.3837,3.52482 -3.0188,9.31561 -3.5609,12.61179 -0.2385,1.45031 -0.3932,1.7382 -0.935,1.74069 -2.4721,0.0113 -3.1128,1.9835 -0.8983,2.76528 1.096,0.38691 1.1622,0.44039 1.0732,0.86601 -1.6201,7.74247 0.7339,24.9973 4.6538,34.11238 0.2286,0.53151 -4.1288,2.67062 -7.4496,3.65716 -3.5618,1.05812 -9.5574,1.65437 -12.7914,1.27206 z m 6.5716,-1.99253 c 3.995,-0.43581 11.34,-2.75118 11.34,-3.57472 0,-1.3225 -0.3838,-1.40915 -2.2808,-0.51487 -6.5738,3.09893 -15.0131,3.57225 -22.0044,1.23412 -1.5181,-0.50771 -6.6734,-2.81957 -6.9872,-3.13337 -0.063,-0.0629 3.9342,-5.10935 5.847,-7.38198 0.5046,-0.59955 0.5046,-0.59955 1.3572,0.0223 7.0577,5.14727 22.0384,3.65364 20.7556,-2.0694 -0.1025,-0.45725 -0.3392,-1.84867 -0.526,-3.09204 -0.4669,-3.10872 -0.6761,-3.26779 -7.2214,-5.4914 -8.9334,-3.03493 -11.1504,-5.83367 -9.8889,-12.48395 1.7471,-9.20986 8.7804,-15.22733 19.2245,-16.44792 0.9252,-0.10814 1.5505,-0.92846 1.5505,-2.03421 0,-0.12553 -2.5258,0.16334 -4.0866,0.46736 -3.3153,0.64578 -5.8842,1.64906 -9.5841,3.74298 -2.8891,1.63508 -2.8421,1.63599 -2.3236,-0.0454 0.2155,-0.6985 0.4946,-1.60293 0.6203,-2.00985 0.2287,-0.73984 0.2287,-0.73984 -18.5641,-0.69559 -18.7927,0.0443 -18.7927,0.0443 -20.5989,5.94201 -0.9934,3.24376 -1.8062,5.92398 -1.8062,5.95604 0,0.032 2.6997,0.0583 5.9995,0.0583 3.9216,0 5.9995,0.0608 5.9995,0.17556 0,0.0966 -2.3085,9.18922 -5.13,20.20591 -2.8215,11.0167 -5.1301,20.09348 -5.1301,20.17063 0,0.73918 14.4117,0.0621 14.5969,-0.68576 0.9781,-3.95135 10.1452,-39.63008 10.2087,-39.73274 0.2436,-0.39428 8.4517,-0.14062 8.3378,0.25767 -3.1307,10.94645 -1.0687,14.74775 10.0717,18.56774 5.8368,2.00138 7.0418,2.93787 7.0418,5.47265 0,6.06468 -12.5514,6.97219 -19.3465,1.39882 -0.6457,-0.52961 -1.2055,-0.96293 -1.244,-0.96293 -0.097,0 -8.7472,10.65469 -8.8234,10.86869 -0.034,0.0956 1.4248,0.92393 3.2421,1.84062 6.8195,3.44006 12.8675,4.68219 19.3531,3.97469 z m -41.0979,-2.9025 c 0.064,-0.26302 2.3815,-9.35385 5.1489,-20.20185 2.7674,-10.84799 5.0316,-19.78858 5.0316,-19.86796 0,-0.0794 -2.6607,-0.14433 -5.9126,-0.14433 -4.6155,0 -5.912,-0.0477 -5.9099,-0.21738 0,-0.23724 2.3858,-7.96771 2.4873,-8.06918 0.034,-0.0343 7.6523,-0.0424 16.929,-0.018 16.8666,0.0443 16.8666,0.0443 16.2147,2.13113 -0.3585,1.14773 -0.9364,3.00628 -1.2842,4.1301 -0.6324,2.04332 -0.6324,2.04332 -6.144,2.04347 -6.1363,1.6e-4 -4.5979,-3.58065 -13.616,31.69294 -2.3008,8.99927 -2.3008,8.99927 -7.6814,8.99927 -5.3807,0 -5.3807,0 -5.2634,-0.47822 z m 47.9166,-31.58187 c 0,-0.13012 0.047,-0.581 0.1049,-1.00197 0.1023,-0.74665 0.09,-0.77062 -0.486,-0.97905 -2.7154,-0.98188 -2.5006,-4.20466 0.3684,-5.52919 1.1957,-0.55202 1.9653,-2.30578 0.9,-2.05096 -4.5169,1.08043 -7.0854,5.70466 -4.4547,8.02026 1.0771,0.94816 3.5674,2.02379 3.5674,1.54091 z m 23.0533,34.97478 c -0.05,-0.31188 -0.9264,-9.76196 -1.9467,-21.00018 -1.0203,-11.23823 -1.9099,-20.49556 -1.9769,-20.57185 -0.067,-0.0763 -1.1952,1.03789 -2.5072,2.47595 -2.3854,2.61468 -2.3854,2.61468 -3.8176,1.34043 -1.5887,-1.41351 -3.0806,-2.31298 -4.8491,-2.92348 -1.4088,-0.48636 -1.3755,-0.29297 -0.6339,-3.67957 1.1124,-5.08063 3.7028,-12.63858 4.3316,-12.63858 0.5585,0 3.553,0.82446 4.9103,1.35194 1.3478,0.52375 1.3478,0.52375 1.3478,0.1076 0,-0.77611 18.3848,-0.62804 18.5046,0.14903 0.048,0.31084 0.3678,5.26044 0.711,10.99911 0.3431,5.73867 0.6792,10.77031 0.7468,11.18143 0.1229,0.7475 0.1229,0.7475 7.1507,-10.69478 3.8652,-6.29326 7.1445,-11.57923 7.2872,-11.74661 0.2926,-0.34318 19.1605,-0.48546 19.1605,-0.14449 0,0.0879 -7.5751,12.78472 -16.8336,28.21512 -16.8336,28.05527 -16.8336,28.05527 -24.1637,28.10063 -7.3301,0.0454 -7.3301,0.0454 -7.4218,-0.5217 z m 29.3457,-27.59226 c 8.6731,-14.43346 15.7694,-26.28903 15.7694,-26.3457 0,-0.0567 -3.3063,-0.10045 -7.3473,-0.0973 -7.3472,0.006 -7.3472,0.006 -15.8441,13.83459 -4.6734,7.60585 -8.529,13.79683 -8.5681,13.75773 -0.053,-0.0534 -1.803,-26.69347 -1.803,-27.45274 0,-0.0799 -3.2906,-0.14533 -7.3124,-0.14533 -7.3124,0 -7.3124,0 -7.1948,1.0399 0.1177,1.03991 0.1177,1.03991 -1.9931,0.0925 -1.8159,-0.81507 -5.3883,-2.08266 -5.5142,-1.95659 -0.6748,0.67587 -0.688,1.87397 -0.023,2.04041 3.1382,0.78488 7.591,3.02347 7.9142,3.97873 0.042,0.12326 -4.4117,5.17827 -6.0635,6.88265 -0.4975,0.51329 -0.4975,0.51329 -0.8938,0.15396 -2.1845,-1.98051 -4.6423,-2.3629 -4.6559,-0.72437 -6e-4,0.0642 0.5656,0.37725 1.2582,0.69559 0.6925,0.31835 1.8769,1.03629 2.6319,1.59541 1.3728,1.01659 1.3728,1.01659 1.8486,0.5217 0.2616,-0.27219 1.7183,-1.8612 3.2371,-3.53113 2.7614,-3.03624 2.7614,-3.03624 2.8923,-2.34764 0.072,0.37873 0.9906,10.11828 2.0412,21.64343 1.0507,11.52516 1.9577,21.32654 2.0157,21.78085 0.1054,0.82602 0.1054,0.82602 5.9701,0.82602 5.8647,0 5.8647,0 21.6341,-26.24266 z m -25.9664,24.56271 c 0,-0.30969 -4.3525,-47.70902 -4.4327,-48.27253 -0.1176,-0.82636 10.7721,-1.08601 10.9399,-0.26085 0.044,0.2152 0.479,6.92552 0.9672,14.91184 0.4883,7.98631 0.9431,14.9052 1.0107,15.37531 0.1229,0.85474 0.1229,0.85474 9.6364,-14.60752 5.2324,-8.50424 9.6146,-15.60045 9.7383,-15.76935 0.2077,-0.28361 0.6266,-0.30355 5.4798,-0.26084 5.2549,0.0462 5.2549,0.0462 -9.4477,24.52252 -14.7025,24.47628 -14.7025,24.47628 -19.2972,24.47628 -2.5271,0 -4.5947,-0.0517 -4.5947,-0.11486 z m 42.9225,-10.54114 c -5.6121,-5.18613 -10.2095,-9.48251 -10.2166,-9.54751 -0.029,-0.26683 6.3134,-10.62528 7.1983,-11.75618 8.4894,-10.8499 26.9343,2.94669 21.8034,16.30878 -0.3543,0.92263 -8.3083,14.43847 -8.4914,14.42893 -0.05,-0.003 -4.6817,-4.24789 -10.2937,-9.43402 z m 11.3076,-4.00724 c 2.3573,-4.03297 1.4356,-7.27607 -3.1439,-11.06165 -3.9271,-3.24632 -6.1829,-3.03421 -8.4983,0.79909 -1.0903,1.80514 -1.6933,0.9354 4.7996,6.92314 6.515,6.00817 5.5562,5.54026 6.8426,3.33942 z m -70.5785,11.44611 c -3.1036,-7.76811 -4.824,-19.16568 -4.1968,-27.80379 0.2231,-3.07339 0.062,-2.82936 1.5053,-2.28626 9.454,3.55846 12.8973,10.86935 9.6354,20.45811 -1.3888,4.08264 -6.3896,11.01929 -6.9439,9.63194 z m 2.468,-5.11397 c 4.604,-6.69698 4.9485,-14.53014 0.8362,-19.01793 -1.7048,-1.86054 -5.5609,-4.20965 -5.5649,-3.39012 0,0.21658 -0.044,0.66767 -0.096,1.00242 -0.093,0.60633 -0.088,0.61186 1.3698,1.44966 6.3697,3.66058 7.3057,11.28287 2.308,18.79406 -0.9574,1.43879 -0.9574,1.43879 -0.6677,2.34459 0.3363,1.05179 0.2307,1.12068 1.8142,-1.18268 z m 107.8582,4.9553 c -2.1875,-0.68484 -2.1922,-0.59467 0.1848,-3.52332 1.9961,-2.45933 1.9961,-2.45933 2.7051,-2.36423 1.7015,0.22821 2.8611,-1.92808 1.9669,-3.65728 -0.8636,-1.67011 -3.4153,-3.97897 -3.1539,-2.85379 1.0066,4.33294 -2.7422,8.45209 -6.9191,7.60265 -9.0119,-1.8327 -11.7075,-15.27136 -3.4222,-17.06029 0.5508,-0.11892 1.0359,-0.24387 1.0779,-0.27766 0.042,-0.0338 -0.2998,-0.44348 -0.7597,-0.9104 -0.7877,-0.79974 0.3885,-3.87838 2.2542,-5.90031 0.3602,-0.39031 13.8805,12.28813 15.1617,14.21758 2.2292,3.35716 1.5167,7.11882 -2.3023,12.15413 -1.7858,2.35453 -4.3676,3.33236 -6.7934,2.57292 z m -2.3127,-11.70614 c 1.7746,-1.04829 1.4488,-3.48784 -0.7584,-5.6786 -2.053,-2.03774 -3.9303,-2.21475 -4.8554,-0.45785 -1.4492,2.75215 3.0385,7.65771 5.6138,6.13645 z m -33.4098,-21.18978 c -5.5947,-5.22053 -10.1573,-9.54985 -10.1391,-9.62071 0.2345,-0.91135 11.44,-19.11101 11.6792,-18.96906 4.2298,2.50971 4.3138,3.78197 0.6524,9.87954 -3.5758,5.95519 -3.5758,5.95519 -2.3787,7.08447 2.2639,2.1357 1.5668,2.62897 5.4264,-3.83959 1.8528,-3.10521 3.4568,-5.62712 3.5645,-5.60424 3.7529,0.79732 3.9768,4.006 0.6652,9.53324 -3.3927,5.66267 -3.2887,7.84302 0.4456,9.33973 0.069,0.0276 1.8283,-2.81065 3.9096,-6.30734 2.0812,-3.49668 3.8328,-6.38726 3.8923,-6.4235 0.059,-0.0362 1.1479,0.92395 2.4188,2.13376 2.3106,2.19964 2.3106,2.19964 -3.6946,12.19858 -3.3029,5.49942 -6.0647,10.01876 -6.1374,10.04297 -0.073,0.0242 -4.7095,-4.22731 -10.3042,-9.44785 z m 40.8671,8.8252 c -7.951,-2.65083 -9.3401,-12.59147 -2.656,-19.00668 1.7503,-1.67986 2.4776,-1.97767 4.8298,-1.97767 2.5496,0 3.1014,0.24903 6.3848,2.8815 0.3297,0.26431 0.2296,0.45666 -3.1382,6.02984 -3.4788,5.75683 -3.4788,5.75683 -2.794,6.03083 2.775,1.11036 4.9762,-1.16668 4.3022,-4.45061 -0.057,-0.27777 3.4562,-5.33381 3.7192,-5.35251 0.8941,-0.0636 1.6182,4.31463 1.0866,6.56986 -1.5389,6.52747 -7.0085,10.85099 -11.7344,9.27544 z m 1.1773,-11.4495 c 1.4461,-2.42029 1.5523,-2.65902 1.2864,-2.89183 -2.5136,-2.2004 -5.5689,0.47162 -4.3347,3.79092 0.2715,0.73026 1.2149,2.03346 1.3554,1.8725 0.064,-0.0734 0.8259,-1.32064 1.6929,-2.77159 z m 8.1091,-10.04892 c -3.5294,-3.29697 -6.4837,-6.09695 -6.5651,-6.22218 -0.099,-0.15253 0.3802,-1.10548 1.4522,-2.88668 1.8107,-3.00841 1.4609,-2.84359 3.0255,-1.42535 0.4652,0.42166 0.6411,0.511 0.561,0.28486 -1.7617,-4.97066 2.3775,-11.11459 6.3514,-9.42757 0.947,0.40202 11.104,9.36921 11.104,9.80324 0,0.19684 -3.4094,5.7626 -3.5102,5.73046 -0.066,-0.0209 -1.9315,-1.72046 -4.1465,-3.77681 -5.2325,-4.85785 -5.6629,-5.10003 -6.5015,-3.65882 -1.1895,2.0442 -0.136,3.89129 4.9126,8.61359 1.7375,1.62521 3.1591,3.03152 3.1591,3.12514 0,0.14551 -2.6144,4.63648 -3.2186,5.52899 -0.1837,0.27124 -0.929,-0.36887 -6.6239,-5.68887 z m -35.8929,-11.03304 c -5.5952,-5.24267 -10.1565,-9.60195 -10.1361,-9.68729 0.1944,-0.81522 3.9661,-6.67639 4.2963,-6.67639 0.2108,0 3.9342,0.50865 8.2744,1.13034 4.3401,0.62169 8.0334,1.13035 8.2072,1.13035 0.2496,0 -4.6989,-4.75685 -11.3165,-10.87821 -0.2366,-0.21888 3.7047,-7.10292 4.0012,-6.9886 0.2662,0.10265 20.3238,18.97871 20.3238,19.12662 0,0.127 -3.6729,6.39726 -3.9378,6.72263 -0.031,0.0385 -3.8592,-0.45795 -8.5062,-1.10325 -4.647,-0.6453 -8.4766,-1.14584 -8.5101,-1.1123 -0.034,0.0335 2.5862,2.52548 5.8217,5.53767 5.8826,5.47669 5.8826,5.47669 5.4209,6.27507 -1.5198,2.62828 -3.6046,6.06191 -3.6788,6.05895 -0.048,-0.002 -4.6648,-4.29292 -10.26,-9.53559 z m -87.4712,2.22061 c -0.5261,-0.0805 -1.3266,-0.19105 -1.779,-0.24573 -0.9372,-0.11329 -0.5188,-1.19022 2.2599,-5.81783 15.3805,-25.61451 44.786,-39.25539 74.0354,-34.34421 3.9669,0.66607 11.2159,2.53141 11.2159,2.88613 0,0.12217 -1.8247,3.23716 -2.0175,3.44416 -0.036,0.0389 -0.634,-0.0933 -1.3284,-0.29392 -31.3658,-9.06079 -63.9866,4.24577 -79.5209,32.43794 -1.288,2.33744 -1.0915,2.20482 -2.8654,1.93346 z"
       id="path314" /></g><style
     id="style1">@media(prefers-color-scheme:dark){.lines{fill:#d7d7d7}}</style></svg>
