<?xml version="1.0" encoding="UTF-8" standalone="no"?>
<!-- Created with Inkscape (http://www.inkscape.org/) -->

<svg
   width="270.73859mm"
   height="311.12842mm"
   viewBox="0 0 270.73859 311.12842"
   version="1.1"
   id="svg1"
   xml:space="preserve"
   inkscape:version="1.4.4 (dcaf3e7, 2026-05-05)"
   sodipodi:docname="logos teams.svg"
   inkscape:export-batch-name="logos teams"
   inkscape:export-batch-path="Desktop/3 LIGA"
   xmlns:inkscape="http://www.inkscape.org/namespaces/inkscape"
   xmlns:sodipodi="http://sodipodi.sourceforge.net/DTD/sodipodi-0.dtd"
   xmlns="http://www.w3.org/2000/svg"
   xmlns:svg="http://www.w3.org/2000/svg"><sodipodi:namedview
     id="namedview1"
     pagecolor="#ffffff"
     bordercolor="#000000"
     borderopacity="0.25"
     inkscape:showpageshadow="2"
     inkscape:pageopacity="0.0"
     inkscape:pagecheckerboard="0"
     inkscape:deskcolor="#d1d1d1"
     inkscape:document-units="mm"
     inkscape:zoom="0.037190382"
     inkscape:cx="-4006.4122"
     inkscape:cy="-8779.1516"
     inkscape:window-width="1920"
     inkscape:window-height="1050"
     inkscape:window-x="0"
     inkscape:window-y="30"
     inkscape:window-maximized="0"
     inkscape:current-layer="layer1"><inkscape:page
       x="0"
       y="0"
       width="270.73859"
       height="311.12842"
       id="page1"
       margin="0"
       bleed="0" /></sodipodi:namedview><defs
     id="defs1"><style
       id="style1-7">
      .cls-1 {
        fill: #fff;
      }
    </style></defs><g
     inkscape:label="Ebene 1"
     inkscape:groupmode="layer"
     id="layer1"
     transform="translate(1183.0044,1919.5633)"><path
       style="fill:#034294;fill-opacity:1;stroke-width:1.52039"
       d="m -1049.954,-1609.3203 c -0.3872,-0.4846 -0.7039,-1.0252 -0.7039,-1.2014 0,-0.1762 -0.3169,-0.6594 -0.7041,-1.0736 -0.3871,-0.4141 -1.3375,-1.5413 -2.1118,-2.505 -3.2,-3.9818 -8.3659,-8.521 -13.689,-12.028 -5.7177,-3.7672 -6.819,-4.4251 -7.4088,-4.4251 -0.2895,0 -0.7517,-0.2715 -1.027,-0.6033 -0.2755,-0.3319 -0.83,-0.6034 -1.2323,-0.6034 -0.4024,0 -0.8435,-0.1811 -0.9802,-0.4023 -0.1368,-0.2212 -0.5405,-0.4023 -0.8972,-0.4023 -0.3566,0 -0.9344,-0.234 -1.2836,-0.5201 -0.3493,-0.2862 -2.5359,-1.1219 -4.8589,-1.8572 -2.3231,-0.7353 -4.4954,-1.4412 -4.8272,-1.5687 -0.3319,-0.1277 -0.7845,-0.2597 -1.0057,-0.2938 -0.2212,-0.034 -0.719,-0.1994 -1.1063,-0.3676 -0.3872,-0.1683 -1.0063,-0.1899 -1.3758,-0.049 l -0.6718,0.2577 -0.319,-0.5165 c -0.1756,-0.284 -0.7331,-0.5424 -1.2389,-0.5742 -0.506,-0.032 -2.1871,-0.2456 -3.7358,-0.4751 -1.5488,-0.2296 -4.3547,-0.6143 -6.2352,-0.8546 -5.464,-0.6987 -17.8843,-3.3166 -19.404,-4.0899 -0.3842,-0.1955 -1.0177,-0.3565 -1.408,-0.3579 -0.3901,-10e-4 -1.2278,-0.2729 -1.8615,-0.6034 -0.6339,-0.3306 -1.5781,-0.601 -2.0983,-0.601 -0.8464,0 -2.7192,-0.6623 -4.6889,-1.6582 -0.3842,-0.1941 -1.0177,-0.3563 -1.408,-0.3604 -0.3902,0 -1.6887,-0.5471 -2.8856,-1.2068 -1.1968,-0.6597 -2.4986,-1.1996 -2.8926,-1.1996 -0.3941,0 -0.8253,-0.1757 -0.9582,-0.3907 -0.2954,-0.478 -3.719,-2.0229 -4.4832,-2.0229 -0.3037,0 -0.5522,-0.152 -0.5522,-0.3369 0,-0.1852 -0.9957,-0.7577 -2.2124,-1.2721 -1.2169,-0.5143 -2.2125,-1.0869 -2.2125,-1.2723 0,-0.1851 -0.2493,-0.3367 -0.5542,-0.3367 -0.3048,0 -0.7795,-0.2716 -1.055,-0.6035 -0.2753,-0.3319 -0.731,-0.6034 -1.0125,-0.6034 -0.6204,0 -7.5811,-4.698 -7.7703,-5.2444 -0.073,-0.213 -0.3121,-0.3874 -0.5297,-0.3874 -2.3138,0 -18.4439,-16.8378 -18.4439,-19.2533 0,-0.1976 -0.2716,-0.5847 -0.6035,-0.86 l -0.6034,-0.5009 v -2.465 -2.4648 l 2.5143,-1.8774 c 4.8462,-3.6189 12.5808,-11.2146 17.5455,-17.2303 1.552,-1.8806 3.1495,-3.8016 3.5497,-4.2688 0.4003,-0.4672 0.9088,-1.1192 1.1301,-1.4489 0.2212,-0.3298 1.5336,-2.2814 2.9164,-4.3369 1.3827,-2.0556 2.5142,-3.961 2.5142,-4.2342 0,-0.2732 0.2716,-0.722 0.6035,-0.9975 0.3317,-0.2753 0.6032,-0.6905 0.6032,-0.9227 0,-0.232 0.2533,-0.7076 0.5629,-1.057 0.724,-0.8169 3.8603,-6.9287 3.8613,-7.5248 5e-4,-0.2495 0.2723,-0.679 0.6042,-0.9544 0.3319,-0.2755 0.6035,-0.7618 0.6035,-1.0808 0,-0.3188 0.4526,-1.5692 1.0057,-2.7785 0.5531,-1.2092 1.0056,-2.6236 1.0056,-3.1431 0,-0.5195 0.2627,-1.1625 0.5837,-1.4289 0.3211,-0.2665 0.7039,-1.2865 0.8509,-2.2667 0.1475,-0.9802 0.4274,-1.8812 0.6232,-2.0022 0.1957,-0.1216 0.3616,-0.7976 0.3686,-1.5035 0,-0.7061 0.2786,-1.635 0.6034,-2.0645 0.3249,-0.4296 0.5907,-1.3989 0.5907,-2.1544 0,-0.7555 0.2752,-2.4358 0.6116,-3.7339 0.3363,-1.2983 0.6395,-3.2251 0.6737,-4.2819 0.034,-1.0568 0.2311,-2.1447 0.4376,-2.4174 l 0.3752,-0.4958 0.079,-7.7506 c 0.07,-6.8413 -0.2179,-13.4489 -0.7374,-16.9385 -0.094,-0.6284 -0.279,-2.5737 -0.4122,-4.3229 -0.1323,-1.7494 -0.4187,-3.6456 -0.6348,-4.2139 -0.216,-0.5683 -0.3928,-1.7349 -0.3928,-2.5926 0,-0.8575 -0.1653,-1.6611 -0.3674,-1.786 -0.202,-0.1246 -0.49,-0.9954 -0.6402,-1.9345 -0.4497,-2.8139 -1.493,-6.9108 -1.8638,-7.3193 -0.1907,-0.2101 -0.3532,-0.9341 -0.3611,-1.609 -0.015,-0.6748 -0.2729,-1.6794 -0.5892,-2.2325 -0.3161,-0.5532 -0.5812,-1.4814 -0.5891,-2.0627 -0.015,-0.5814 -0.2857,-1.2823 -0.6176,-1.5578 -0.3319,-0.2754 -0.6034,-0.9336 -0.6034,-1.4626 0,-0.5291 -0.168,-1.2763 -0.3734,-1.6605 -0.2055,-0.3842 -0.7615,-1.6035 -1.2357,-2.7097 -0.4742,-1.1063 -1.0302,-2.3258 -1.2356,-2.71 -0.2054,-0.3842 -0.3735,-0.9048 -0.3735,-1.1568 0,-0.6815 -5.1368,-11.1136 -5.6192,-11.4117 -0.2281,-0.1414 -0.4148,-0.6077 -0.4148,-1.0373 0,-0.4293 -0.1599,-0.7807 -0.3553,-0.7807 -0.1955,0 -0.47,-0.3168 -0.6098,-0.7039 -0.1399,-0.3872 -0.4779,-1.0697 -0.751,-1.5167 -0.273,-0.447 -1.0238,-1.7143 -1.6684,-2.8159 -0.6445,-1.1017 -1.2904,-2.0938 -1.4351,-2.2043 -0.1444,-0.111 -0.9436,-1.3133 -1.7752,-2.6724 -0.8315,-1.3592 -1.8602,-2.8451 -2.2858,-3.302 -0.4257,-0.4568 -0.7738,-0.9429 -0.7738,-1.0802 0,-0.2641 -4.1589,-5.4022 -5.5905,-6.9068 l -0.8446,-0.8876 0.5022,-1.1237 c 0.2763,-0.618 1.4526,-2.5421 2.6142,-4.2756 1.1615,-1.7336 2.1118,-3.3484 2.1118,-3.5888 0,-0.2402 0.2442,-0.7226 0.5426,-1.072 0.5476,-0.641 7.1896,-11.2163 8.3074,-13.2267 0.3317,-0.5971 0.739,-1.1458 0.9051,-1.2195 0.1658,-0.073 0.3016,-0.3036 0.3016,-0.5109 0,-0.2072 0.4941,-1.1424 1.098,-2.0783 1.8653,-2.8906 2.0992,-3.2883 2.3618,-4.0148 0.1399,-0.3871 0.3733,-0.7039 0.5183,-0.7039 0.1444,0 0.6171,-0.6789 1.0488,-1.5085 0.4316,-0.8297 1.1521,-2.0516 1.6009,-2.7153 1.4339,-2.1202 1.8218,-2.7911 2.2674,-3.9221 0.2396,-0.6085 0.599,-1.1063 0.7986,-1.1063 0.1997,0 0.363,-0.1883 0.363,-0.4185 0,-0.4764 1.6538,-2.9313 2.1119,-3.1349 0.1659,-0.073 0.3017,-0.4659 0.3017,-0.8715 0,-0.4056 0.1429,-0.7979 0.3176,-0.8716 0.402,-0.1699 2.9006,-4.2465 2.9006,-4.7327 0,-0.1995 0.1353,-0.4231 0.3016,-0.4968 0.1659,-0.073 0.6544,-0.8265 1.0854,-1.6729 0.698,-1.3708 1.1564,-2.029 2.6282,-3.7742 0.2253,-0.2673 0.4097,-0.6746 0.4097,-0.9051 0,-0.2307 0.1724,-0.4193 0.3833,-0.4193 0.6711,0 2.4326,0.9206 2.4326,1.2713 0,0.1858 0.2715,0.3377 0.6033,0.3377 0.3319,0 0.6034,0.1615 0.6034,0.3586 0,0.1974 0.4527,0.4723 1.0058,0.6112 0.5531,0.1384 1.0056,0.43 1.0056,0.647 0,0.2171 0.1847,0.3947 0.4103,0.3947 0.2256,0 1.176,0.4939 2.1118,1.098 2.2336,1.4412 3.0482,1.9248 4.5996,2.7312 0.709,0.3684 1.5005,0.9245 1.759,1.2361 0.2584,0.3115 0.881,0.5663 1.3834,0.5663 h 0.9134 l 0.2314,0.6035 c 0.1277,0.3319 0.48,0.6034 0.7835,0.6034 0.7059,0 5.6649,2.4516 5.8427,2.8884 0.073,0.1814 0.4407,0.3296 0.8155,0.3296 0.3749,0 1.0386,0.2447 1.4751,0.5434 0.4363,0.2989 1.2912,0.6644 1.8997,0.8122 0.6083,0.1475 1.1062,0.4464 1.1062,0.6635 0,0.217 0.5068,0.3946 1.1263,0.3946 0.6196,0 1.2983,0.1623 1.5086,0.3606 0.2101,0.1984 1.3777,0.76 2.5946,1.2484 1.2168,0.4882 2.5745,1.0433 3.0169,1.2336 1.884,0.8099 13.4597,4.5777 15.4875,5.0409 1.2167,0.2779 3.5701,0.8573 5.2295,1.2876 1.6593,0.4302 5.0987,1.0892 7.6431,1.4641 2.5442,0.3751 5.4405,0.84 6.4362,1.0333 5.0661,0.983 27.8967,1.1063 29.43,0.1587 0.1646,-0.1019 1.4395,-0.2694 2.8329,-0.3724 3.1466,-0.2326 8.4632,-1.3241 18.423,-3.7824 2.0101,-0.4962 7.2956,-2.0686 8.2464,-2.4533 0.4426,-0.1791 1.3477,-0.5087 2.0115,-0.7325 1.9485,-0.6572 6.77024,-2.4475 7.64294,-2.8379 0.4426,-0.1978 1.5288,-0.6546 2.4137,-1.0149 0.885,-0.3602 2.1215,-0.9217 2.7479,-1.2478 0.6264,-0.3259 1.3957,-0.5928 1.7097,-0.5928 0.3139,0 0.5707,-0.181 0.5707,-0.4023 0,-0.2212 0.262,-0.4023 0.5822,-0.4023 0.3202,0 1.3879,-0.4284 2.3727,-0.952 0.9848,-0.5236 2.3067,-1.1546 2.9377,-1.4021 1.1052,-0.4336 1.3939,-0.5805 3.1586,-1.6077 0.4424,-0.2575 1.076,-0.5706 1.4079,-0.6959 0.3319,-0.1246 0.8749,-0.4007 1.2068,-0.6124 0.3318,-0.2118 0.9202,-0.4914 1.3073,-0.6214 0.3872,-0.1307 0.7041,-0.3962 0.7041,-0.5917 0,-0.1954 0.1999,-0.3553 0.4444,-0.3553 0.2444,0 1.2491,-0.5431 2.2327,-1.2067 0.9835,-0.6638 2.0072,-1.2069 2.2749,-1.2069 0.2677,0 0.9507,-0.4301 1.5178,-0.956 0.567,-0.5258 1.4249,-1.081 1.9066,-1.234 0.4816,-0.1528 0.8757,-0.4052 0.8757,-0.5608 0,-0.1557 0.8128,-0.7271 1.8064,-1.2697 l 1.8064,-0.9869 0.5604,0.593 c 0.3081,0.3261 1.1518,1.6728 1.8746,2.993 0.7226,1.32 1.8299,3.1121 2.4603,3.9823 0.6305,0.8704 1.1464,1.8178 1.1464,2.1056 0,0.2877 0.2359,0.6678 0.5245,0.8447 0.2884,0.177 0.8364,0.9928 1.2175,1.8131 0.3812,0.8202 0.8692,1.6003 1.0845,1.7334 0.2154,0.1323 0.3917,0.5934 0.3917,1.0227 0,0.4296 0.1674,0.7809 0.372,0.7809 0.2046,0 1.2044,1.4029 2.2216,3.1176 1.0173,1.7147 2.0268,3.3891 2.2436,3.721 0.2168,0.3319 0.5702,1.0106 0.7854,1.5085 0.2153,0.4978 0.5769,0.9051 0.8036,0.9051 0.2268,0 0.4123,0.2771 0.4123,0.616 0,0.3388 0.2715,0.7202 0.6033,0.8475 0.3319,0.1277 0.6147,0.5289 0.6284,0.8925 0.015,0.3635 0.9113,2.0186 1.9947,3.6779 1.08343,1.6594 2.37151,3.7864 2.86229,4.7267 0.49078,0.9403 1.04131,1.7097 1.22345,1.7097 0.18199,0 0.33099,0.3015 0.33099,0.6702 0,0.3685 0.27671,0.9569 0.61499,1.3074 0.85096,0.8815 2.98908,4.1777 2.99805,4.6218 0,0.2004 0.45992,0.9577 1.01303,1.6828 0.55312,0.7252 1.00559,1.4227 1.00559,1.55 0,0.1277 0.54308,0.9811 1.20688,1.8974 0.66365,0.9162 1.20673,1.9103 1.20673,2.209 0,0.2986 0.17758,0.5431 0.39469,0.5431 0.21696,0 0.50811,0.4525 0.64692,1.0056 0.13836,0.5531 0.41385,1.0057 0.61105,1.0057 0.19734,0 0.35865,0.1931 0.35865,0.4291 0,0.2359 0.45262,1.0224 1.00574,1.7476 1.37656,1.8049 1.32395,2.0042 -1.30738,4.9471 -1.27211,1.4227 -2.5845,3.0006 -2.9164,3.5061 -0.3319,0.5057 -0.92136,1.3529 -1.30997,1.8827 -2.827,3.8551 -4.32184,6.0188 -4.32184,6.2553 0,0.1521 -0.25315,0.5623 -0.56255,0.9115 -0.30939,0.3494 -0.92606,1.2891 -1.37017,2.0886 -1.58074,2.8451 -1.89136,3.3763 -2.08992,3.5748 -0.21589,0.2159 -1.49849,2.5012 -2.14482,3.8217 -0.2166,0.4424 -0.5479,1.076 -0.7362,1.4079 -0.1883,0.3319 -0.4447,0.8749 -0.5699,1.2068 -0.1247,0.3318 -0.3905,0.8749 -0.5897,1.2068 -0.1991,0.3319 -0.6627,1.237 -1.03,2.0113 -0.6355,1.3398 -1.0223,2.197 -2.9268,6.4852 -1.1263,2.5362 -5.6803,16.299 -5.6778,17.1592 0,0.381 -0.2603,1.5075 -0.581,2.503 -1.1024,3.4232 -3.0414,13.8805 -3.0414,16.4033 0,1.048 -0.1892,2.5377 -0.4205,3.3107 l -0.4205,1.4052 v 9.8556 9.8555 l 0.6346,3.8216 c 0.3491,2.1018 0.8082,4.5457 1.0203,5.4307 0.2121,0.8848 0.3911,2.1521 0.3977,2.8157 0,0.6638 0.2825,1.7254 0.6129,2.3591 0.3305,0.6338 0.601,1.5634 0.601,2.066 0,0.5025 0.2703,1.4322 0.6009,2.0659 0.3305,0.6337 0.602,1.6138 0.6034,2.178 0,0.5642 0.1475,1.1977 0.3236,1.408 0.1766,0.2101 0.6533,1.3778 1.0594,2.5945 1.223,3.6652 5.4679,12.6904 7.4736,15.8897 0.4161,0.6637 1.1605,1.9761 1.6543,2.9164 0.4938,0.9404 1.0255,1.7097 1.1818,1.7097 0.1561,0 0.3904,0.3167 0.52042,0.7039 0.30499,0.9083 0.99509,1.9156 2.37165,3.4621 0.60845,0.6836 1.10623,1.4424 1.10623,1.6864 0,0.244 0.45246,0.8688 1.00558,1.3884 0.55312,0.5195 1.00574,1.1847 1.00574,1.478 0,0.2934 0.15203,0.5333 0.33798,0.5333 0.18594,0 0.79562,0.643 1.35481,1.4291 1.0588,1.4881 8.41077,9.5212 9.71511,10.6151 0.41127,0.345 1.67851,1.5038 2.81591,2.5751 1.1374,1.0714 3.74258,3.2992 5.78902,4.951 l 3.72099,3.0031 v 0.6187 c 0,0.548 -0.60998,1.9224 -1.66878,3.76 -0.19126,0.3319 -0.46752,0.8748 -0.61408,1.2067 -0.14596,0.3319 -0.73374,1.1632 -1.3048,1.8473 -0.57121,0.6841 -1.30996,1.6514 -1.64186,2.1493 -0.33175,0.4981 -1.02307,1.3865 -1.53605,1.9744 -0.51297,0.5878 -1.59914,1.8759 -2.41361,2.8624 -1.85715,2.2494 -2.40023,2.8027 -3.89872,3.9714 -0.66152,0.5157 -1.83617,1.5201 -2.6105,2.2318 -2.17294,1.997 -7.90646,6.2836 -8.40484,6.2836 -0.24479,0 -0.44517,0.1856 -0.44517,0.4123 0,0.2267 -0.40731,0.568 -0.90509,0.7585 -0.49777,0.1906 -1.90063,1.0056 -3.11755,1.8114 -1.21689,0.8057 -2.89129,1.7664 -3.72099,2.1347 -0.8297,0.3683 -1.5085,0.8159 -1.5085,0.9946 0,0.1786 -0.3514,0.3249 -0.7807,0.3249 -0.4296,0 -0.8898,0.1762 -1.0228,0.3915 -0.239,0.3865 -0.6253,0.5815 -5.0979,2.5726 -1.2514,0.5573 -2.3885,1.1964 -2.527,1.4205 -0.1383,0.2241 -0.5189,0.3049 -0.8455,0.1796 -0.3264,-0.1247 -0.9995,0.029 -1.4956,0.343 -1.1483,0.7267 -4.8219,2.1337 -5.2483,2.0102 -0.1782,-0.052 -0.7163,0.1813 -1.1958,0.5171 -0.4797,0.336 -1.2737,0.6108 -1.7644,0.6108 -0.4908,0 -0.9939,0.1642 -1.1178,0.3646 -0.1247,0.2005 -1.13,0.4891 -2.2358,0.6411 -1.1057,0.152 -2.1118,0.4406 -2.2357,0.6412 -0.1246,0.2005 -0.556,0.3645 -0.9599,0.3645 -0.4042,0 -1.6153,0.2565 -2.6916,0.5702 -4.0518,1.1804 -10.6483,2.4054 -16.3583,3.0377 -1.9468,0.2158 -3.6819,0.4798 -3.8554,0.587 -0.1734,0.108 -1.2958,0.3091 -2.494,0.4485 -2.66954,0.3107 -3.21904,0.4087 -3.98894,0.7123 -0.3317,0.1308 -1.1464,0.3189 -1.8102,0.4178 -0.6638,0.099 -1.7498,0.3958 -2.4136,0.6596 -0.6638,0.2636 -1.6593,0.5603 -2.2124,0.6589 -1.0389,0.1854 -5.5704,1.7836 -8.0455,2.8377 -1.9818,0.8441 -5.7181,2.5664 -6.4362,2.9669 -3.7027,2.0654 -8.925,5.6277 -11.8812,8.1047 -3.5639,2.986 -10.5652,10.4503 -11.0027,11.7304 -0.3046,0.8912 -1.6349,1.8633 -2.5427,1.858 h -0.922 z m -59.7192,-36.4579 c 1.1523,-0.8515 2.3434,-1.847 2.6467,-2.2127 0.3035,-0.3655 0.8011,-0.6645 1.1058,-0.6645 0.3048,0 0.5542,-0.1414 0.5542,-0.3156 0,-0.1735 0.5365,-0.6324 1.1921,-1.0198 0.6557,-0.3872 1.4251,-0.9324 1.7097,-1.2113 0.2846,-0.2788 2.6897,-2.1242 5.3447,-4.1009 2.6549,-1.9766 4.972,-3.8238 5.149,-4.1049 0.1768,-0.2811 0.5389,-0.514 0.8044,-0.5175 0.2656,0 1.1164,-0.5446 1.8909,-1.2025 1.9152,-1.6271 1.4494,-1.2703 8.6223,-6.6029 3.5254,-2.6208 6.6027,-4.9243 6.8385,-5.119 0.2358,-0.1944 1.1528,-0.8996 2.0378,-1.5669 0.885,-0.6673 2.1887,-1.6849 2.8972,-2.2615 0.7084,-0.5766 1.636,-1.2503 2.0612,-1.4973 1.0438,-0.6062 7.0467,-5.1854 7.357,-5.6121 0.1368,-0.1871 0.613,-0.5502 1.06,-0.8067 0.447,-0.2565 2.635,-1.8693 4.8622,-3.584 2.2272,-1.7147 4.1573,-3.1177 4.2893,-3.1177 0.1323,0 0.6591,-0.4525 1.1718,-1.0056 0.5125,-0.5531 1.0449,-1.0057 1.183,-1.0057 0.2516,0 5.1114,-3.5734 5.4896,-4.0365 0.16,-0.1959 11.9097,-8.9657 19.3089,-14.4119 0.7744,-0.57 1.8586,-1.4492 2.4095,-1.954 0.5509,-0.5048 1.1262,-0.9178 1.2787,-0.9178 0.1523,0 0.5162,-0.2363 0.8085,-0.5252 0.4137,-0.4087 6.7657,-5.2208 8.9788,-6.8022 0.2215,-0.1583 1.0363,-0.799 1.8106,-1.4237 0.7745,-0.6249 1.7892,-1.4006 2.2551,-1.7236 1.975,-1.3701 12.10914,-9.0976 13.02714,-9.9335 0.5508,-0.5017 1.1263,-0.9121 1.2786,-0.9121 0.1524,0 0.5164,-0.2377 0.8087,-0.5283 0.2924,-0.2905 2.3417,-1.8577 4.5542,-3.4824 2.2125,-1.6247 4.5824,-3.4235 5.2666,-3.9973 0.6842,-0.5736 1.663,-1.3145 2.1754,-1.6464 0.5123,-0.3319 1.5152,-1.1012 2.2285,-1.7097 0.7134,-0.6084 1.4842,-1.1062 1.7132,-1.1062 0.229,0 0.4765,-0.158 0.5502,-0.3509 0.075,-0.1931 2.7323,-2.288 5.908,-4.6553 l 5.7736,-4.3042 -0.2425,-1.2782 c -0.1338,-0.7032 -0.3472,-5.2608 -0.4753,-10.1282 l -0.2327,-8.85 0.4198,-4.8272 c 0.2307,-2.6549 0.5237,-6.0039 0.6508,-7.442 0.1277,-1.438 0.4797,-3.7914 0.7835,-5.2294 0.3038,-1.4381 0.8642,-4.1535 1.2453,-6.0341 0.3813,-1.8805 0.9402,-4.1949 1.2422,-5.143 0.3018,-0.9479 0.5488,-2.0686 0.5488,-2.4904 0,-0.4217 0.181,-0.8786 0.4023,-1.0153 0.2213,-0.1368 0.4023,-0.577 0.4023,-0.9782 0,-0.9765 2.7615,-9.3785 3.2416,-9.8629 0.2083,-0.2102 0.3788,-0.7105 0.3788,-1.1117 0,-0.4014 0.1722,-1.0439 0.3828,-1.4281 0.2104,-0.3842 0.6764,-1.4226 1.0354,-2.3076 1.154,-2.8448 1.6572,-3.9241 4.3921,-9.4208 1.4773,-2.969 3.0371,-5.8445 3.4662,-6.39 0.4292,-0.5455 0.7802,-1.1675 0.7802,-1.382 0,-0.2147 0.5431,-1.1951 1.2067,-2.1784 0.66385,-0.9836 1.20693,-1.8771 1.20693,-1.986 0,-0.4263 5.45848,-8.1632 7.63659,-10.8242 1.2677,-1.5488 2.42243,-3.1879 2.56595,-3.6428 l 0.2609,-0.8268 -0.80672,-0.866 c -0.4438,-0.4762 -0.80686,-0.9831 -0.80686,-1.1262 0,-0.1429 -0.54309,-1.0649 -1.20673,-2.0483 -0.6638,-0.9835 -1.20689,-1.8792 -1.20689,-1.9903 0,-0.111 -0.99554,-1.7138 -2.21246,-3.5616 -1.21692,-1.8478 -2.21246,-3.5386 -2.21246,-3.7574 0,-0.2188 -0.27155,-0.502 -0.60345,-0.6294 -0.3319,-0.1277 -0.60328,-0.5992 -0.60328,-1.0486 0,-0.4495 -0.149,-0.8172 -0.33099,-0.8172 -0.18214,0 -0.77038,-0.8289 -1.30738,-1.842 -1.05725,-1.9944 -1.64365,-3.0027 -2.70535,-4.6524 -2.4912,-3.8701 -4.5063,-7.2683 -4.5063,-7.5993 0,-0.2135 -0.1867,-0.388 -0.4149,-0.388 -0.2282,0 -0.5332,-0.3168 -0.6776,-0.7039 -0.4013,-1.0746 -2.6555,-4.7091 -3.0148,-4.8609 -0.1747,-0.073 -0.3176,-0.3633 -0.3176,-0.6435 0,-0.2802 -0.4978,-1.2243 -1.1063,-2.0979 -1.2196,-1.7511 -1.7519,-2.6442 -2.9788,-4.9982 -0.4528,-0.8688 -0.9862,-1.5796 -1.185,-1.5796 -0.1989,0 -0.3617,-0.2443 -0.3617,-0.543 0,-0.2986 -0.5431,-1.2927 -1.2068,-2.209 -0.6638,-0.9162 -1.2068,-1.8205 -1.2068,-2.0094 0,-0.1888 -0.3731,-0.6809 -0.8291,-1.0937 l -0.8291,-0.7503 -0.2771,0.4211 c -0.1524,0.2316 -1.1786,0.9484 -2.2803,1.5931 -1.1017,0.6446 -2.3689,1.3911 -2.8159,1.659 -0.447,0.2679 -1.0842,0.6123 -1.4161,0.7651 -0.3319,0.1529 -0.875,0.5037 -1.2069,0.7795 -0.3317,0.2758 -1.6361,1.0563 -2.8985,1.7344 -1.2623,0.6783 -2.6199,1.4075 -3.017,1.6206 -0.397,0.2132 -0.9934,0.49 -1.3253,0.6155 -0.3318,0.1246 -0.8749,0.3901 -1.2068,0.5885 -0.3319,0.1983 -1.2683,0.6856 -2.0808,1.0828 -1.2187,0.596 -7.4667,5.1255 -14.7877,10.7206 -1.4503,1.1082 -3.4148,2.536 -5.25634,3.8199 -0.5531,0.3858 -1.1504,0.9307 -1.3272,1.2112 -0.177,0.2803 -0.501,0.5099 -0.72,0.5099 -0.2189,0 -1.832,1.1766 -3.5846,2.6148 -1.7524,1.4379 -3.2819,2.6146 -3.3988,2.6146 -0.209,0 -5.0583,3.5739 -5.451,4.0174 -0.6334,0.7155 -3.6042,2.8213 -3.9801,2.8213 -0.2446,0 -0.4449,0.1414 -0.4449,0.3144 0,0.173 -1.9459,1.7507 -4.3244,3.5063 -2.3783,1.7554 -5.2546,3.922 -6.3915,4.8144 -1.1371,0.8925 -2.4947,1.9562 -3.0171,2.3638 -0.5224,0.4076 -1.9906,1.4842 -3.2629,2.3923 -1.2721,0.908 -2.3129,1.7964 -2.3129,1.9741 0,0.1777 -0.1918,0.3231 -0.4259,0.3231 -0.3466,0 -3.218,2.0245 -3.9991,2.8195 -0.111,0.1125 -0.8788,0.6556 -1.7069,1.2068 -0.8282,0.5511 -1.507,1.1378 -1.5085,1.3037 0,0.166 -0.2593,0.3018 -0.5726,0.3018 -0.3135,0 -0.6302,0.1637 -0.7039,0.364 -0.074,0.2002 -2.7589,2.3102 -5.9671,4.6885 -3.2082,2.3785 -5.8932,4.4776 -5.9671,4.6644 -0.075,0.1869 -0.3589,0.3398 -0.6338,0.3398 -0.2747,0 -0.9027,0.4288 -1.3951,0.953 -0.4925,0.5242 -1.9268,1.6519 -3.1877,2.5062 -1.2608,0.8541 -4.0586,2.9596 -6.2176,4.6787 -2.1589,1.7191 -4.025,3.1256 -4.1468,3.1256 -0.2491,0 -3.0335,2.1392 -4.5819,3.5198 -0.5582,0.4978 -1.1396,0.9051 -1.292,0.9051 -0.1523,0 -0.5163,0.2378 -0.8087,0.5285 -0.2923,0.2907 -1.9617,1.5853 -3.7099,2.8767 -1.7481,1.2914 -3.5131,2.6829 -3.9221,3.0919 -0.4091,0.4091 -0.8906,0.7437 -1.0702,0.7437 -0.1796,0 -0.6773,0.3184 -1.1062,0.7076 -1.67,1.5154 -4.1341,3.3151 -4.5387,3.3151 -0.2337,0 -0.5697,0.2394 -0.7466,0.5321 -0.2757,0.456 -11.9386,9.3791 -13.7635,10.5304 -0.3507,0.2212 -0.7281,0.5149 -0.8388,0.6527 -0.2965,0.3691 -9.9418,7.635 -11.6276,8.7592 -0.7953,0.5305 -1.5909,1.2093 -1.7677,1.5085 -0.177,0.2994 -0.539,0.5471 -0.8046,0.5506 -0.2656,0 -1.1164,0.5693 -1.8908,1.2572 -0.7745,0.6879 -2.0415,1.6744 -2.8159,2.1921 -0.7743,0.5178 -1.9271,1.3788 -2.5617,1.9134 l -1.1538,0.9721 0.3176,5.3776 c 0.4108,6.9565 0.3152,16.9876 -0.203,21.2939 -0.6968,5.7909 -1.2161,8.857 -1.6315,9.6332 -0.2197,0.4103 -0.3994,1.3124 -0.3994,2.0044 0,1.2635 -0.3025,2.3614 -2.4948,9.0526 -1.1603,3.5419 -1.4326,4.275 -2.5758,6.9392 -1.426,3.3225 -1.7786,4.0869 -3.0146,6.5367 -2.7491,5.448 -3.3938,6.6375 -3.8822,7.1613 -0.2766,0.2966 -0.5029,0.7151 -0.5029,0.9299 0,0.2147 -0.188,0.6091 -0.4175,0.8763 -0.7963,0.9264 -4.0075,6.0375 -4.0075,6.3784 0,0.1885 -0.1751,0.3427 -0.3893,0.3427 -0.2143,0 -0.6216,0.4339 -0.9051,0.9644 -0.2837,0.5303 -1.0968,1.6617 -1.8069,2.5141 -0.7101,0.8525 -2.1505,2.6359 -3.2008,3.9635 -1.0505,1.3274 -2.8679,3.3678 -4.0389,4.5339 -1.1712,1.1663 -2.1293,2.2078 -2.1293,2.3143 0,0.2374 -5.1613,5.1648 -7.1528,6.8289 -0.7944,0.6638 -2.2893,1.9761 -3.3221,2.9164 -1.0328,0.9403 -2.0852,1.7096 -2.3388,1.7096 -0.2536,0 -0.4611,0.2887 -0.4611,0.6415 0,0.7635 3.574,6.1971 4.0761,6.1971 0.1919,0 0.3488,0.2522 0.3488,0.5604 0,0.3082 1.946,2.5445 4.3245,4.9694 l 4.3242,4.4089 4.7184,3.4784 c 2.5951,1.9129 4.9032,3.4781 5.129,3.4781 0.2258,0 0.4105,0.149 0.4105,0.331 0,0.182 0.7693,0.735 1.7097,1.2288 0.9404,0.4937 2.2527,1.2409 2.9164,1.6604 2.7651,1.7474 12.2479,6.2394 15.6885,7.4315 1.1063,0.3835 2.3734,0.8508 2.816,1.0387 2.6427,1.1224 4.0078,1.5846 4.6806,1.5846 0.4184,0 1.0752,0.1715 1.4593,0.3811 0.8824,0.4814 5.5839,1.7923 8.7439,2.438 1.8833,0.3849 5.2264,1.2348 6.1517,1.564 0.065,0.023 1.0607,-0.6547 2.2131,-1.5059 z m 27.1368,-64.7865 c -1.1624,-1.0529 -2.6352,-2.3526 -3.273,-2.888 -0.6379,-0.5355 -1.3619,-1.1555 -1.6091,-1.3778 -1.0362,-0.9317 -4.7925,-3.9853 -5.8751,-4.7757 -5.9081,-4.3139 -7.648,-5.6683 -7.648,-5.9531 0,-0.1824 -0.1828,-0.3317 -0.4061,-0.3317 -0.2233,0 -1.7168,-0.9556 -3.3187,-2.1234 -1.6019,-1.1678 -4.2905,-3.0233 -5.9747,-4.1233 -1.6841,-1.0998 -3.2595,-2.3006 -3.501,-2.6681 l -0.4389,-0.6684 7.3226,-3.5922 c 4.0274,-1.9759 7.775,-3.8008 8.3283,-4.0554 0.5531,-0.2549 1.2771,-0.6278 1.609,-0.8291 0.3319,-0.2013 2.0184,-1.0541 3.7479,-1.8952 3.411,-1.6587 3.8169,-2.0066 3.1361,-2.6876 -0.2463,-0.2461 -0.4542,-0.9996 -0.4621,-1.6745 -0.015,-0.6748 -0.2729,-1.6794 -0.5891,-2.2325 -0.3161,-0.5532 -0.5813,-1.7389 -0.5892,-2.6349 -0.015,-0.8961 -0.1792,-1.8012 -0.3811,-2.0114 -0.3357,-0.3496 -0.6258,-1.7269 -1.623,-7.7055 -0.1922,-1.1517 -0.5297,-2.6903 -0.7502,-3.4193 -0.6369,-2.1056 -2.6859,-17.6345 -3.1209,-23.6513 -0.1353,-1.8806 -0.2758,-6.4966 -0.3106,-10.2579 l -0.064,-6.8385 7.6868,-0.1095 7.6868,-0.1095 1.897,-3.7125 c 1.0432,-2.0418 2.685,-5.1606 3.6483,-6.9306 0.9631,-1.7699 2.161,-4.0327 2.6619,-5.0284 1.3343,-2.6519 4.4495,-7.643 4.7705,-7.643 0.1523,0 0.3935,0.1171 0.5361,0.2591 0.1429,0.1429 1.3946,0.3214 2.7823,0.3974 7.9437,0.4352 16.9767,1.3466 24.8491,2.5074 7.1431,1.0534 8.7115,1.3281 9.4533,1.6564 0.4425,0.1958 1.9813,0.538 3.4194,0.7603 4.2999,0.6647 11.5838,2.4139 18.9066,4.5405 0.7743,0.225 2.2678,0.6097 3.3187,0.855 l 1.9108,0.4463 v 0.5865 c 0,0.4974 -0.5683,1.3799 -2.4988,3.8807 -1.9708,2.5532 -5.1443,7.1246 -5.1443,7.4106 0,0.2016 -0.1353,0.427 -0.3018,0.5007 -0.348,0.1546 -2.9164,3.8633 -2.9164,4.2112 0,0.1277 -0.5714,0.9534 -1.2697,1.8351 l -1.2697,1.6031 -1.2444,-0.203 c -0.6845,-0.111 -4.4125,-0.8463 -8.2843,-1.6326 -10.8537,-2.2038 -11.5805,-2.3263 -16.0907,-2.7118 -2.3231,-0.1985 -4.7668,-0.4422 -5.4306,-0.5417 -1.9483,-0.2914 -16.2408,-1.1803 -19.3089,-1.2008 l -2.8159,-0.018 -0.2012,9.0511 c -0.2429,10.9328 -0.1323,11.6681 1.2793,8.5378 1.7632,-3.909 2.1544,-4.7307 2.3412,-4.9174 0.111,-0.111 0.5712,-0.9252 1.0235,-1.8102 0.4525,-0.885 1.3576,-2.4632 2.0115,-3.5071 l 1.1888,-1.8982 1.1117,-0.015 c 0.6113,0 1.426,0.1534 1.8102,0.3563 0.3842,0.2028 1.7394,0.6554 3.0115,1.0055 5.5402,1.5254 6.9867,1.9423 7.7437,2.2324 0.4426,0.1695 1.9812,0.6837 3.4193,1.1427 3.3248,1.0613 4.8031,1.5756 8.0454,2.7995 1.438,0.543 3.3388,1.2554 4.2238,1.5834 0.885,0.3279 2.1521,0.8316 2.8159,1.1194 0.6637,0.2878 1.8403,0.7499 2.6148,1.0267 1.5251,0.5454 8.3008,3.6456 10.2577,4.6935 3.9339,2.1065 4.8908,2.6623 5.4623,3.1722 0.3494,0.3119 0.927,0.567 1.2837,0.567 0.3567,0 0.7694,0.1954 0.9171,0.4344 l 0.2685,0.4343 -0.9054,0.6342 c -0.4979,0.3488 -3.5497,1.9824 -6.7815,3.6305 -3.2321,1.648 -6.1479,3.2149 -6.4798,3.482 -0.3319,0.2671 -1.418,0.8315 -2.4136,1.2542 -0.9957,0.4225 -1.9008,0.8639 -2.0113,0.9809 -0.111,0.1171 -1.0611,0.6324 -2.112,1.1455 l -1.9108,0.933 v 0.7175 c 0,0.3947 0.4526,1.206 1.0057,1.8027 0.5532,0.5969 1.0058,1.2253 1.0058,1.3967 0,0.1712 0.4524,0.7364 1.0056,1.2561 0.5531,0.5197 1.0057,1.1757 1.0057,1.4581 0,0.2823 0.2361,0.6581 0.5248,0.835 0.2888,0.1769 0.9152,0.9552 1.3922,1.7295 0.477,0.7745 1.3269,1.934 1.8887,2.5768 0.5618,0.643 1.0215,1.3153 1.0215,1.4944 0,0.1791 0.3745,0.7392 0.8321,1.2447 0.4578,0.5057 1.9511,2.3841 3.3187,4.1744 4.2284,5.5348 10.9351,13.0368 11.655,13.0368 0.22,0 2.6529,-1.6528 5.4066,-3.6729 l 5.00654,-3.6731 2.3779,2.3531 c 2.9202,2.8898 2.9211,2.9605 0.065,4.9539 -5.56864,3.8864 -7.16014,5.0715 -7.46194,5.5564 -0.177,0.2841 -0.5151,0.5167 -0.7514,0.5167 -0.2364,0 -1.0872,0.5494 -1.8909,1.2208 -0.8035,0.6714 -1.6455,1.3502 -1.8711,1.5085 -0.2255,0.1583 -1.8548,1.462 -3.6204,2.8974 -1.7658,1.4352 -3.4484,2.7929 -3.7394,3.0169 -0.291,0.2241 -2.1103,1.9461 -4.0428,3.8266 -1.9326,1.8808 -3.8057,3.6547 -4.1625,3.9424 l -0.6489,0.523 -1.9458,-2.0922 c -2.6564,-2.8562 -2.5076,-2.6865 -4.7313,-5.3928 -1.0897,-1.3261 -2.1757,-2.592 -2.4136,-2.8132 -0.238,-0.2212 -1.1502,-1.2944 -2.027,-2.385 -0.877,-1.0904 -1.9631,-2.3815 -2.4136,-2.8691 -0.4507,-0.4875 -1.4765,-1.677 -2.2798,-2.6434 -1.9761,-2.3772 -6.2076,-7.5351 -7.3034,-8.9021 -0.4898,-0.6112 -1.1621,-1.4258 -1.4939,-1.8105 -0.3319,-0.3845 -1.5002,-1.8757 -2.596,-3.3137 -1.0959,-1.438 -2.1009,-2.705 -2.2333,-2.8157 -0.1323,-0.111 -0.8162,-1.0649 -1.5195,-2.1207 -1.3273,-1.9923 -1.8154,-2.6325 -3.0055,-3.9437 l -0.7055,-0.7772 -3.3171,1.7699 c -1.8245,0.9733 -4.2225,2.2658 -5.3287,2.8721 -1.1062,0.6065 -3.2784,1.7474 -4.8272,2.5356 -1.5487,0.788 -2.8761,1.578 -2.9499,1.7553 -0.073,0.1772 -0.3942,0.3223 -0.712,0.3223 -0.3179,0 -1.2947,0.4526 -2.1709,1.0057 -0.8762,0.5531 -1.7778,1.0056 -2.0034,1.0056 -1.0868,0 -0.1445,1.1788 2.2507,2.8159 4.5544,3.1128 9.1254,6.4734 11.4715,8.4337 0.8037,0.6714 1.6533,1.2208 1.888,1.2208 0.2348,0 0.6804,0.362 0.9902,0.8042 0.3099,0.4425 1.6326,1.7304 2.9394,2.8623 8.1981,7.1011 8.265,7.1841 6.499,8.0699 -5.9042,2.962 -10.6912,5.1588 -11.2411,5.1588 -0.3626,0 -0.7196,0.149 -0.7933,0.3316 -0.075,0.1823 -2.4874,1.4611 -5.3636,2.8418 -2.8763,1.3808 -5.5792,2.7017 -6.0065,2.9357 -0.4273,0.234 -1.2867,0.5715 -1.9096,0.7502 l -1.1323,0.3247 z m 14.9514,-46.4522 c 0.3494,-0.3046 3.2599,-1.8833 6.4681,-3.5086 3.208,-1.6253 5.9234,-3.055 6.0339,-3.1772 0.111,-0.1216 3.1396,-1.6659 6.7311,-3.4306 l 6.5297,-3.2085 v -0.7039 -0.7039 h -0.5747 c -0.3161,0 -0.8139,-0.2263 -1.1062,-0.5028 -0.6749,-0.6386 -3.8008,-2.3624 -7.169,-3.9535 -1.4381,-0.6794 -3.1272,-1.4933 -3.7536,-1.8088 -0.6264,-0.3155 -1.306,-0.5735 -1.5105,-0.5735 -0.2044,0 -1.2832,-0.4398 -2.3975,-0.9774 -1.1143,-0.5375 -2.5596,-1.0946 -3.2117,-1.2378 -0.6521,-0.1429 -1.2888,-0.4275 -1.415,-0.6317 -0.1262,-0.2042 -0.5686,-0.3713 -0.9832,-0.3713 h -0.7537 l -0.2536,0.9051 c -0.1399,0.4978 -0.4093,1.2671 -0.5996,1.7097 -1.5549,3.6126 -3.6339,15.1947 -3.6286,20.214 v 2.5141 h 0.4712 c 0.2592,0 0.757,-0.2491 1.1062,-0.5534 z m 73.60984,93.8933 c 1.4177,-0.2049 2.6848,-0.5181 2.8159,-0.6958 0.1307,-0.1779 0.5932,-0.5197 1.0272,-0.7596 0.4339,-0.2401 1.1406,-1.0546 1.5704,-1.8103 l 0.7813,-1.3739 0.033,-6.6375 0.034,-6.6374 -1.0024,-1.7992 c -0.5514,-0.9895 -1.4243,-2.0095 -1.9397,-2.2665 -0.5156,-0.2569 -1.1292,-0.6592 -1.3638,-0.8938 l -0.4266,-0.4266 1.0343,-0.2595 c 1.5348,-0.3853 2.3358,-1.4984 2.9468,-4.0952 l 0.5477,-2.3273 v -3.6203 -3.6205 l -0.5695,-2.1393 -0.5694,-2.1392 -1.0474,-0.9708 -1.0474,-0.9706 -2.2233,-0.6463 -2.2232,-0.6463 -3.0606,0.409 -3.06054,0.4088 -1.0395,0.7679 c -0.5716,0.4224 -1.4013,1.4762 -1.8439,2.3417 l -0.8044,1.5738 -0.055,5.9227 -0.055,5.9226 0.5571,0.4624 c 0.3063,0.2542 0.557,0.7117 0.557,1.0165 0,0.7061 1.131,1.8368 2.3965,2.3958 l 0.9821,0.4339 -1.4726,1.0006 c -0.8099,0.5504 -1.8553,1.4874 -2.3232,2.0822 l -0.8506,1.0814 -0.018,6.9374 -0.018,6.9373 0.6065,1.4487 0.6065,1.4487 1.3526,0.9632 1.3527,0.9632 2.01154,0.2469 c 3.0263,0.3711 3.0289,0.3711 5.796,-0.029 z m -4.6492,-4.436 -0.8646,-0.3489 -0.432,-1.3354 -0.43194,-1.3352 0.09,-5.4893 0.09,-5.4894 0.76634,-0.8464 0.7662,-0.8464 h 1.9549 1.9549 l 0.7972,1.3074 0.7971,1.3074 v 5.6359 5.6358 l -1.022,1.1021 -1.022,1.1021 -1.2912,-0.026 c -0.71,-0.015 -1.6801,-0.1824 -2.1557,-0.3743 z m 0.02,-21.2284 c -0.2436,-0.1625 -0.6508,-0.6908 -0.9053,-1.1742 l -0.4623,-0.8786 v -5.2017 -5.2017 l 0.8336,-1.0598 0.8338,-1.06 h 1.204 c 0.6623,0 1.5464,0.1832 1.9646,0.407 l 0.7605,0.407 0.4175,1.5038 c 0.2297,0.8271 0.4187,3.3474 0.4199,5.6008 v 4.0971 l -0.4275,1.1242 c -0.6247,1.6435 -3.1571,2.4271 -4.6411,1.4361 z m 51.3802,24.8162 1.4585,-0.7398 0.869,-1.4729 0.8691,-1.473 0.015,-9.5656 0.015,-9.5657 -0.819,-1.5496 c -0.4505,-0.8523 -1.2913,-1.8846 -1.8686,-2.2944 l -1.0495,-0.7447 -2.3607,-0.214 -2.3607,-0.2141 -1.4547,0.8582 c -0.8001,0.4721 -1.7158,0.8583 -2.0351,0.8583 h -0.5803 l 0.018,-4.1233 c 0.015,-2.2678 0.1734,-4.9312 0.364,-5.9188 l 0.3464,-1.7956 0.8874,-0.7186 0.8875,-0.7186 1.4639,0.015 1.4639,0.015 0.7222,0.9923 0.7221,0.9922 0.096,2.3139 0.096,2.3137 h 2.6014 2.6014 l 0.1216,-2.3651 0.1216,-2.3653 -0.6788,-1.8877 -0.6787,-1.8875 -1.2537,-0.8589 c -0.6895,-0.4724 -2.2388,-1.07 -3.4429,-1.3282 l -2.1893,-0.4695 -2.8142,0.5311 -2.8144,0.531 -1.3527,1.1876 c -0.7439,0.6533 -1.6149,1.6949 -1.9356,2.315 l -0.5827,1.127 v 16.9281 16.9283 l 0.6063,1.4514 c 1.3719,3.2831 3.8612,4.2788 9.6514,3.8607 l 2.8159,-0.2034 z m -7.5428,-3.5841 -0.8548,-0.3453 -0.4202,-1.2055 -0.4204,-1.2055 0.068,-7.6619 0.068,-7.6618 0.6035,-0.5647 c 0.3319,-0.3106 1.1986,-0.7624 1.9262,-1.0042 l 1.3225,-0.4395 0.9462,0.4312 c 0.5204,0.237 1.1805,0.8689 1.4668,1.4039 l 0.5208,0.9729 -0.026,7.9128 -0.026,7.913 -1.0757,0.9253 -1.0758,0.9253 -1.0838,-0.026 c -0.5961,-0.015 -1.4683,-0.1807 -1.9384,-0.3706 z m -57.40474,3.916 0.3182,-0.5029 0.018,-21.2533 0.018,-21.2535 -0.7304,-0.3909 c -0.4017,-0.215 -1.4851,-0.3355 -2.4074,-0.268 l -1.677,0.1231 -1.3724,1.8103 c -0.7549,0.9956 -2.0752,2.5981 -2.9338,3.5609 l -1.5613,1.7508 v 2.1477 2.1475 l 0.418,0.2583 0.4179,0.2583 1.3923,-1.5199 c 0.7658,-0.8361 1.3922,-1.6444 1.3922,-1.7968 0,-0.1522 0.3535,-0.3691 0.7853,-0.482 l 0.7852,-0.2054 0.1506,0.4498 c 0.082,0.2473 0.04,1.088 -0.094,1.8681 -0.1803,1.0448 -0.2232,33.0753 -0.046,33.7004 0.015,0.055 1.1041,0.1003 2.4186,0.1003 h 2.3897 z m 44.33864,-4.3227 -0.059,-4.8256 0.4908,-0.5914 0.491,-0.5914 1.3067,0.049 c 0.7187,0.027 1.5228,-0.085 1.7868,-0.2476 l 0.48,-0.2966 -0.1787,-1.5549 c -0.2475,-2.1539 -0.4815,-2.4023 -2.264,-2.4023 -2.1287,0 -2.0055,0.8911 -2.0222,-14.6412 l -0.015,-13.9199 -0.6911,-0.067 c -0.3801,-0.036 -1.9582,-0.1003 -3.5069,-0.1429 l -2.8159,-0.076 -0.7039,0.6071 c -0.3873,0.3339 -0.704,0.959 -0.704,1.389 0,0.4301 -0.2417,1.3524 -0.5373,2.0496 -0.8071,1.9049 -1.5055,3.9249 -1.8804,5.4401 -0.1846,0.7461 -0.5307,1.5516 -0.7691,1.7901 -0.2386,0.2384 -0.4394,0.8951 -0.4464,1.4593 0,0.5642 -0.2786,1.3772 -0.6035,1.8067 -0.3247,0.4293 -0.5905,1.2531 -0.5905,1.8302 0,0.5773 -0.1589,1.2215 -0.3529,1.4316 -0.1941,0.2103 -0.9434,2.1924 -1.6649,4.4049 -0.7218,2.2124 -1.4734,4.3457 -1.6706,4.7405 -0.1972,0.3949 -0.432,1.8847 -0.5218,3.311 l -0.1633,2.593 0.4011,0.2478 c 0.2204,0.1368 2.6232,0.2247 5.3395,0.1966 2.7164,-0.027 5.2397,0.064 5.6074,0.2053 l 0.6686,0.2566 v 4.9183 c 0,5.7513 -0.1683,5.4545 3.0922,5.4545 h 2.5559 z m -12.0256,-11.2246 c 0,-0.4388 0.1641,-0.8991 0.3646,-1.023 0.2005,-0.1247 0.4891,-1.1303 0.6411,-2.2362 0.1522,-1.1061 0.4406,-2.0109 0.6412,-2.0109 0.2004,0 0.3682,-0.3168 0.3729,-0.7041 0,-0.3871 0.4752,-1.971 1.0453,-3.5198 0.5701,-1.5487 1.1651,-3.5399 1.322,-4.425 0.1569,-0.885 0.6218,-2.121 1.0331,-2.7468 l 0.7477,-1.1377 0.2708,0.5344 c 0.149,0.2939 0.1642,4.4263 0.033,9.1831 l -0.2371,8.6487 -3.1177,0.1171 -3.1176,0.1171 z m -134.72804,-150.2247 c 3.551,-1.4608 6.818,-4.1847 9.2432,-7.7064 0.7617,-1.1062 1.4831,-2.1019 1.6029,-2.2125 0.1974,-0.1819 0.7473,-1.8758 1.4094,-4.3407 l 0.2475,-0.9215 -0.7086,-2.2967 -0.7085,-2.2966 -1.6369,-1.6389 c -0.9002,-0.9014 -2.6994,-2.433 -3.9984,-3.4038 -1.2989,-0.9708 -2.7924,-2.4471 -3.3187,-3.281 l -0.957,-1.516 v -2.4437 -2.4436 l 0.7801,-1.7125 0.7802,-1.7126 2.387,-2.3887 c 2.5804,-2.582 4.1457,-3.9482 4.9783,-4.3452 0.2903,-0.1384 1.4073,-0.8861 2.4823,-1.6616 1.0751,-0.7756 2.1984,-1.4102 2.4961,-1.4102 h 0.5412 l 0.231,1.5085 c 0.1262,0.8297 0.4973,2.7112 0.8226,4.1809 0.3256,1.4698 0.5919,3.0175 0.5919,3.4394 0,0.422 0.1635,0.939 0.3633,1.1493 0.1997,0.2101 0.4591,1.1967 0.5763,2.1922 0.1171,0.9957 0.5985,3.4395 1.0696,5.4307 0.4712,1.9913 1.0156,4.5256 1.2101,5.6318 0.1943,1.1063 0.6367,3.369 0.9829,5.0284 0.3464,1.6593 0.8166,4.0126 1.045,5.2294 0.2283,1.2169 0.5761,2.5746 0.7728,3.017 0.1966,0.4426 0.436,1.6192 0.532,2.6148 0.096,0.9957 0.5166,2.5343 0.935,3.4193 l 0.7608,1.609 1.4651,0.1217 1.4649,0.1216 0.8505,-1.1943 0.8503,-1.1942 0.6326,-3.3531 c 0.3479,-1.8441 0.7982,-4.1675 1.0008,-5.1631 0.2025,-0.9957 0.5523,-2.9624 0.7772,-4.3708 0.225,-1.4083 0.4883,-2.6886 0.5852,-2.8452 0.097,-0.1566 0.3559,-1.3577 0.5759,-2.6689 0.22,-1.3113 0.7803,-4.104 1.245,-6.2059 0.7482,-3.3844 2.3819,-11.3325 3.0177,-14.6827 0.1262,-0.6638 0.5303,-2.6337 0.8984,-4.3776 l 0.6693,-3.1708 -1.2911,-1.1536 c -2.9692,-2.653 -4.674,-0.8335 -5.8924,6.2884 -0.3786,2.2125 -0.9317,5.1088 -1.2293,6.4363 -0.2974,1.3274 -0.8272,3.8617 -1.1775,5.6318 -0.3502,1.7699 -0.905,4.3338 -1.2329,5.6976 -0.3279,1.364 -0.5963,3.1224 -0.5963,3.908 v 1.4284 l -0.7945,0.4253 -0.7948,0.4252 -0.2019,-0.9139 c -0.1109,-0.5028 -0.3991,-2.3622 -0.6402,-4.1321 -0.241,-1.77 -0.7086,-5.0283 -1.0393,-7.2408 -0.3307,-2.2125 -0.7482,-5.0183 -0.9278,-6.2353 -0.6481,-4.3931 -2.3707,-10.0581 -3.6189,-11.9014 l -1.0663,-1.5745 -1.0776,-0.1262 -1.0777,-0.1262 -3.4315,1.7004 c -1.8874,0.9352 -3.4315,1.8321 -3.4315,1.9932 0,0.1612 -0.4526,0.4066 -1.0057,0.5454 -0.5532,0.1384 -1.0056,0.43 -1.0056,0.6469 0,0.2171 -0.1657,0.3947 -0.3681,0.3947 -0.9822,0 -9.6887,8.5104 -9.6887,9.4703 0,0.3225 -0.1459,0.5863 -0.3249,0.5863 -0.3077,0 -0.8014,1.0001 -2.2583,4.5747 l -0.635,1.5576 v 2.0629 c 0,2.4645 0.8813,5.1631 2.2973,7.0911 1.1561,1.5742 4.4488,4.8272 4.8861,4.8272 0.1555,0 1.1812,0.9121 2.2792,2.027 l 1.9961,2.0268 -0.036,1.7255 -0.036,1.7253 -0.7059,1.1756 c -0.3881,0.6464 -1.8868,2.0558 -3.3302,3.1321 l -2.6244,1.9568 -0.3045,-0.4928 c -0.1675,-0.2711 -0.5349,-1.8392 -0.8163,-3.4846 l -0.5117,-2.9918 -0.834,-0.5841 c -0.4585,-0.3213 -1.2795,-0.584 -1.8246,-0.584 h -0.9908 l -0.931,0.8747 -0.931,0.8747 v 1.5035 c 0,0.8269 0.2715,2.9223 0.6032,4.6564 0.3319,1.7342 0.6035,3.6592 0.6035,4.2776 l 10e-5,1.1245 0.9874,0.9874 0.9873,0.9875 1.1246,-0.015 c 0.6185,0 2.1345,-0.4251 3.3689,-0.9329 z m -13.0311,-3.1504 c 0.5121,-0.4811 0.9311,-1.169 0.9311,-1.5286 0,-0.3597 0.204,-0.8581 0.4535,-1.1076 l 0.4537,-0.4535 0.3027,-4.5296 c 0.1665,-2.4913 0.2465,-6.4415 0.1776,-8.7785 -0.4695,-15.9461 -0.6746,-20.5717 -0.9706,-21.8837 l -0.3356,-1.4883 0.6634,-0.3392 c 0.3647,-0.1865 1.7992,-0.4523 3.1875,-0.5907 4.7226,-0.4704 6.6298,-2.5778 4.6007,-5.0835 l -0.7193,-0.8884 -11.364,-0.1186 -11.364,-0.1186 -0.5908,0.5909 c -0.3249,0.3249 -0.7822,0.9485 -1.0162,1.3856 l -0.4254,0.7949 0.8126,1.2856 0.8127,1.2858 4.7443,0.6047 4.7442,0.6048 0.6717,7.8429 0.6718,7.8429 0.032,9.1644 0.032,9.1646 -0.6034,1.4442 c -0.3319,0.7943 -0.6035,1.9987 -0.6035,2.6765 v 1.2323 l 0.8747,0.9309 0.8747,0.9311 h 1.0101 1.0103 z m 32.5838,-3.2182 0.9311,-0.8747 v -1.1366 -1.1367 l -0.8046,-0.8045 -0.8045,-0.8046 h -1.0803 -1.0804 l -0.931,0.8746 -0.931,0.8747 v 1.1075 1.1076 l 1.0599,0.8336 c 1.3589,1.069 2.4727,1.0564 3.6408,-0.041 z m 20.053,0.225 0.9915,-0.6496 v -1.2858 -1.286 l -0.8203,-0.8803 -0.8201,-0.8804 h -1.0647 -1.0646 l -0.9311,0.8746 -0.9309,0.8747 v 1.1032 1.1031 l 1.1062,0.8254 c 1.346,1.0042 2.2313,1.0547 3.534,0.2011 z"
       id="path279" /></g><style
     id="style1">@media(prefers-color-scheme:dark){.lines{fill:#d7d7d7}}</style></svg>
