<?xml version="1.0" encoding="UTF-8" standalone="no"?>
<!-- Created with Inkscape (http://www.inkscape.org/) -->

<svg
   width="132.10789mm"
   height="132.25894mm"
   viewBox="0 0 132.10789 132.25894"
   version="1.1"
   id="svg1"
   xml:space="preserve"
   inkscape:version="1.4.4 (dcaf3e7, 2026-05-05)"
   sodipodi:docname="logos teams.svg"
   inkscape:export-batch-name="logos teams"
   inkscape:export-batch-path="Desktop"
   xmlns:inkscape="http://www.inkscape.org/namespaces/inkscape"
   xmlns:sodipodi="http://sodipodi.sourceforge.net/DTD/sodipodi-0.dtd"
   xmlns="http://www.w3.org/2000/svg"
   xmlns:svg="http://www.w3.org/2000/svg"><sodipodi:namedview
     id="namedview1"
     pagecolor="#ffffff"
     bordercolor="#000000"
     borderopacity="0.25"
     inkscape:showpageshadow="2"
     inkscape:pageopacity="0.0"
     inkscape:pagecheckerboard="0"
     inkscape:deskcolor="#d1d1d1"
     inkscape:document-units="mm"
     inkscape:zoom="0.69712823"
     inkscape:cx="489.14961"
     inkscape:cy="355.02794"
     inkscape:window-width="1920"
     inkscape:window-height="1050"
     inkscape:window-x="0"
     inkscape:window-y="30"
     inkscape:window-maximized="0"
     inkscape:current-layer="layer1"><inkscape:page
       x="0"
       y="0"
       width="132.10789"
       height="132.25894"
       id="page1"
       margin="0"
       bleed="0" /></sodipodi:namedview><defs
     id="defs1" /><g
     inkscape:label="Ebene 1"
     inkscape:groupmode="layer"
     id="layer1"
     transform="translate(-1239.2314,1112.5657)"><path
       style="fill:#ec121d;fill-opacity:1"
       d="m 1306.5163,-980.40944 -5.4239,0.10268 -2.1167,-0.23544 -2.1166,-0.23543 -3.2824,-0.56941 -3.2823,-0.5694 -3.1066,-0.88571 -3.1066,-0.88571 -2.4746,-0.96174 -2.4746,-0.96174 -2.6459,-1.27534 -2.6458,-1.27534 -2.8719,-1.74673 -2.8719,-1.74672 -2.4198,-1.82913 -2.4197,-1.82912 -2.3134,-2.07129 -2.3134,-2.07129 -2.1536,-2.3812 -2.1536,-2.3813 -1.5138,-1.9844 -1.5138,-1.9843 -1.6559,-2.5136 -1.6559,-2.5135 -2.0792,-4.2334 -2.0791,-4.2333 -1.1951,-3.5886 -1.1951,-3.5886 -0.6533,-2.8939 -0.6532,-2.8939 -0.4486,-3.3071 -0.4486,-3.3071 v -5.1593 -5.1594 l 0.4486,-3.3071 0.4486,-3.3071 0.6499,-2.8789 0.6498,-2.8789 1.2401,-3.7267 1.2401,-3.7267 2.0382,-4.1102 2.0382,-4.1102 2.0987,-3.175 2.0986,-3.175 2.089,-2.5136 2.089,-2.5135 2.3967,-2.3813 2.3968,-2.3812 2.6395,-2.1228 2.6396,-2.1229 2.3151,-1.5246 2.315,-1.5246 2.8093,-1.5622 2.8093,-1.5622 3.2096,-1.3188 3.2096,-1.3187 3.0637,-0.9277 3.0637,-0.9278 3.4186,-0.6599 3.4186,-0.66 2.8902,-0.2844 2.8902,-0.2845 h 3.4979 3.4979 l 2.74,0.2696 2.74,0.2695 2.9105,0.5362 2.9104,0.5362 2.5135,0.6731 2.5136,0.6732 3.175,1.1806 3.175,1.1806 3.4173,1.7128 3.4174,1.7127 2.9326,1.9299 2.9327,1.93 2.6458,2.1351 2.6458,2.1351 3.0544,3.1382 3.0544,3.1383 1.4661,1.8521 1.466,1.852 1.6116,2.3959 1.6117,2.3958 1.5911,2.8612 1.5911,2.8612 1.3148,3.2096 1.3148,3.2097 0.9442,3.0427 0.9442,3.0427 0.6528,3.3073 0.6529,3.3073 0.279,2.5692 0.2791,2.5693 v 4.5188 4.5187 l -0.2791,2.5693 -0.279,2.5693 -0.6358,3.175 -0.6357,3.175 -0.6824,2.3524 -0.6824,2.3525 -0.9421,2.5423 -0.9422,2.5423 -1.6777,3.4396 -1.6777,3.4396 -2.0833,3.175 -2.0834,3.175 -2.1355,2.6505 -2.1355,2.6504 -3.3036,3.19332 -3.3036,3.1933 -2.6247,1.97718 -2.6247,1.97718 -2.503,1.55008 -2.503,1.55007 -3.7042,1.79578 -3.7042,1.79577 -3.4395,1.16605 -3.4396,1.16605 -2.9104,0.68497 -2.9105,0.68497 -2.7781,0.42303 -2.7781,0.42303 z m -20.9676,-65.95446 0.067,-60.468 -0.1069,-0.1068 -0.1068,-0.1069 -3.1349,1.2239 -3.1348,1.224 -3.2377,1.6879 -3.2377,1.6879 -2.5832,1.7238 -2.5831,1.7237 -2.249,1.797 -2.2489,1.7969 -2.6631,2.6475 -2.6632,2.6475 -2.0031,2.5136 -2.0031,2.5135 -1.762,2.6459 -1.7621,2.6458 -1.961,3.9687 -1.961,3.9688 -1.1846,3.4879 -1.1846,3.488 -0.6992,3.1176 -0.6993,3.1176 -0.3991,2.9195 -0.3991,2.9194 -0.01,5.0271 -0.01,5.0271 0.3056,2.3812 0.3057,2.3813 0.6598,3.3072 0.6597,3.3073 1.3318,3.9688 1.3318,3.9687 1.818,3.7042 1.818,3.7042 1.8966,2.9104 1.8966,2.9104 1.4804,1.8521 1.4804,1.8521 1.8642,2.0682 1.8642,2.0682 2.4739,2.1651 2.4739,2.16514 2.1563,1.60841 2.1563,1.60842 2.4068,1.47707 2.4068,1.47706 2.0911,1.05094 2.0912,1.05094 1.7197,0.7328 1.7198,0.73279 1.7198,0.58808 1.7198,0.58809 z m -23.0179,41.2191 h -0.1999 v -31.8823 -31.8823 h -4.6949 -4.695 l 9.3899,-9.3927 9.3899,-9.3927 h 0.1999 0.1998 v 31.8823 31.8822 h 4.695 4.6949 l -9.3899,9.3928 -9.3899,9.3927 z m 46.7742,-5.045 1.5981,0.018 1.5107,-0.3935 1.5106,-0.3934 1.0374,-0.6549 1.0374,-0.6549 0.646,-0.8699 0.646,-0.8698 0.3011,-0.8994 0.3011,-0.8994 -0.01,-1.085 -0.01,-1.085 -0.4834,-1.0583 -0.4834,-1.0584 -1.1792,-1.0825 -1.1792,-1.0827 -0.5144,-0.2941 -0.5144,-0.2942 0.6615,-0.4589 0.6615,-0.4588 0.8982,-0.9359 0.8983,-0.9359 0.3585,-0.858 0.3585,-0.858 v -1.2076 -1.2076 l -0.3564,-0.8514 -0.3565,-0.8514 -1.083,-0.9773 -1.083,-0.9772 -1.3867,-0.4119 -1.3867,-0.4118 h -1.6238 -1.6237 l -1.3282,0.3945 -1.3282,0.3944 -0.878,0.5978 -0.8781,0.5977 -0.7549,0.9383 -0.7548,0.9384 -0.2964,1.4429 -0.2964,1.4429 0.3201,1.1906 0.3201,1.1907 1.548,1.486 1.548,1.486 -1.2014,0.8952 -1.2015,0.8953 -0.762,1.3229 -0.762,1.3229 v 1.4653 1.4653 l 0.5953,1.177 0.5954,1.177 1.1039,0.7668 1.1039,0.7668 1.2773,0.3434 1.2774,0.3433 z m 0.4656,-3.6969 -1.2699,-0.011 -0.7243,-0.393 -0.7242,-0.393 -0.4237,-0.8191 -0.4236,-0.8192 0.1581,-0.8425 0.158,-0.8425 0.9899,-0.9256 0.9898,-0.9256 0.4579,-0.3446 0.4579,-0.3446 1.1296,0.666 1.1296,0.666 0.6979,0.7512 0.6979,0.7513 0.1737,0.5758 0.1736,0.5759 -0.3877,0.9279 -0.3877,0.9279 -0.8014,0.4145 -0.8015,0.4144 z m 0.012,-10.8373 h -0.3148 l -1.1451,-0.872 -1.1451,-0.872 -0.36,-0.7466 -0.3601,-0.7466 0.23,-0.8019 0.2299,-0.8019 0.7188,-0.5366 0.7187,-0.5366 1.2888,-0.019 1.2888,-0.02 0.673,0.3598 0.6731,0.3598 0.2938,0.6448 0.2938,0.6449 v 0.5298 0.5299 l -0.3998,0.773 -0.3997,0.773 -0.9846,0.6691 -0.9846,0.669 z m 37.1461,14.4301 1.9155,-0.1014 1.3918,-0.6398 1.3916,-0.6397 0.806,-0.6819 0.8059,-0.6819 0.7662,-1.4076 0.7661,-1.4077 0.112,-2.1326 0.1119,-2.1326 -0.593,-1.3783 -0.5929,-1.3784 -0.9025,-0.7924 -0.9025,-0.7924 -0.9823,-0.4385 -0.9824,-0.4385 -2.1166,-0.013 -2.1167,-0.013 -0.926,0.4838 -0.9261,0.4838 -0.463,0.406 -0.463,0.406 v -0.428 -0.4279 l 0.5409,-1.4458 0.541,-1.4458 1.0613,-1.0613 1.0613,-1.0613 1.3282,-0.4412 1.3281,-0.4411 1.9644,0.099 1.9644,0.099 v -1.8874 -1.8874 l -1.2054,-0.1652 -1.2053,-0.1653 -1.7772,0.2521 -1.7772,0.2521 -1.1214,0.3956 -1.1214,0.3957 -1.1641,0.8008 -1.164,0.8009 -0.9571,1.1182 -0.9572,1.1182 -0.654,1.3826 -0.6541,1.3825 -0.4224,1.8023 -0.4224,1.8023 0.1045,3.175 0.1045,3.175 0.7298,1.5875 0.7297,1.5875 0.7127,0.7519 0.7126,0.7518 1.0583,0.5483 1.0584,0.5484 0.7937,0.2109 0.7938,0.2109 z m 0.201,-3.7664 -0.7937,0.1442 -0.756,-0.2293 -0.7561,-0.2293 -0.5372,-0.4783 -0.5373,-0.4783 -0.3603,-0.8514 -0.3604,-0.8514 10e-4,-1.0007 10e-4,-1.0007 0.5257,-0.8623 0.5258,-0.8623 0.8623,-0.5257 0.8623,-0.5258 0.8684,-10e-4 0.8684,-10e-4 0.926,0.3869 0.9261,0.3869 0.5148,1.1345 0.5149,1.1344 v 0.7938 0.7937 l -0.5026,1.1069 -0.5025,1.107 -0.7484,0.3825 -0.7484,0.3826 z m -50.5476,3.5675 2.1289,-0.076 0.069,-11.5755 0.069,-11.5756 h -1.7883 -1.7882 l -2.8447,0.948 -2.8448,0.9479 v 0.2872 0.2871 l 0.2976,1.7415 0.2976,1.7415 0.057,0.068 0.057,0.068 1.8939,-0.781 1.894,-0.781 v 9.2013 9.2013 l 0.1862,0.1862 0.1862,0.1862 z m 34.793,3e-4 1.9963,-0.076 0.075,-2.6996 0.075,-2.6996 1.6445,-0.079 1.6446,-0.078 0.077,-2.0505 0.077,-2.0505 h -1.7309 -1.7309 v -6.7469 -6.7469 h -2.8863 -2.8862 l -4.3966,7.051 -4.3966,7.0509 0.3473,1.7465 0.3473,1.7464 4.6866,0.072 4.6866,0.072 v 2.5957 2.5956 l 0.1865,0.1865 0.1866,0.1866 z m -5.1474,-9.469 h -2.7782 v -0.1699 -0.1699 l 2.4201,-3.9973 2.42,-3.9973 0.3581,-0.5219 0.3581,-0.5219 v 4.6891 4.6891 z m -35.2369,-17.4625 h 0.9027 l 0.342,-2.9694 0.342,-2.9694 0.9276,2.9694 0.9275,2.9694 h 0.8731 0.8731 l 0.8031,-2.5692 0.803,-2.5691 0.021,-0.4074 0.021,-0.4074 0.2246,0.6614 0.2245,0.6615 0.3111,2.3151 0.3111,2.3151 h 0.8987 0.8987 v -0.1367 -0.1366 l -0.5264,-3.3691 -0.5264,-3.3691 -0.147,-0.8599 -0.1471,-0.8599 h -0.9918 -0.9918 l -0.7509,2.3152 -0.7509,2.3151 -0.2506,0.6614 -0.2507,0.6615 -0.9538,-2.9766 -0.9539,-2.9766 h -1.0096 -1.0095 v 0.1367 0.1367 l -0.5264,3.369 -0.5264,3.3691 -0.1471,0.8599 -0.147,0.8599 z m 11.4023,0 h 0.8907 l 0.166,-0.6615 0.1661,-0.6614 h 1.3128 1.3128 l 0.166,0.6614 0.1661,0.6615 h 0.8973 0.8974 l -2e-4,-0.1984 -10e-5,-0.1985 -0.5421,-1.4552 -0.5422,-1.4552 -0.6769,-1.8002 -0.6769,-1.8002 -0.9569,0.08 -0.9569,0.08 -0.4952,1.3229 -0.4952,1.3229 -0.7617,2.0505 -0.7616,2.0506 z m 2.5356,-2.3813 h -0.8504 l 0.1617,-0.4214 0.1618,-0.4215 0.1598,-0.6368 0.1599,-0.6369 h 0.2072 0.2072 l 0.1599,0.6369 0.1598,0.6368 0.1617,0.4215 0.1618,0.4214 z m 5.5562,2.3813 h 0.7938 v -2.1623 -2.1623 l 1.2568,2.0962 1.2567,2.0961 1.1245,0.081 1.1245,0.081 v -3.4548 -3.4548 h -0.7938 -0.7937 l -9e-4,2.1828 -8e-4,2.1828 -1.2694,-2.1166 -1.2695,-2.1167 -1.1109,-0.081 -1.111,-0.081 v 3.4548 3.4548 z m 8.2021,0 h 0.7938 l 8e-4,-2.1828 9e-4,-2.1828 1.2712,2.1166 1.2713,2.1167 h 1.1753 1.1753 v -3.3073 -3.3073 h -0.7938 -0.7937 l -0.079,1.965 -0.079,1.9649 -1.3013,-2.0311 -1.3014,-2.0311 h -1.0674 -1.0674 v 3.4396 3.4396 z m 8.5911,0 h 0.9339 v -1.3229 -1.3229 h 1.3085 1.3084 l 0.081,1.2567 0.081,1.2568 0.8679,0.083 0.8679,0.083 -0.074,-3.3908 -0.074,-3.3908 h -0.7937 -0.7938 l -0.081,1.2568 -0.081,1.2567 h -1.2939 -1.2939 l -0.081,-1.2567 -0.081,-1.2568 h -0.7938 -0.7937 l -0.074,3.3734 -0.074,3.3735 z m 9.6652,0 h 2.1166 v -0.647 -0.6469 l -1.2567,-0.081 -1.2568,-0.081 v -0.6615 -0.6614 l 1.1245,-0.081 1.1245,-0.081 v -0.6463 -0.6462 h -1.1907 -1.1906 v -0.5147 -0.5147 l 1.2568,-0.081 1.2567,-0.081 v -0.6614 -0.6615 l -2.0505,-0.077 -2.0505,-0.077 v 3.4507 3.4507 z m 4.7625,0 h 0.7937 v -3.4396 -3.4396 h -0.7937 -0.7938 v 3.4396 3.4396 z m 3.1539,0 h 0.7728 l 0.1393,-0.7276 0.1393,-0.7276 0.1792,-1.4477 0.1792,-1.4477 0.672,2.1753 0.672,2.1753 h 0.8761 0.8761 l 0.6018,-1.9819 0.6018,-1.9819 h 0.1534 0.1535 l 0.2434,1.9182 0.2435,1.9183 0.8599,0.083 0.8599,0.083 -0.014,-0.6121 -0.014,-0.6121 -0.4492,-2.7781 -0.4492,-2.7781 h -1.0559 -1.0558 l -0.6038,1.7197 -0.6037,1.7198 -0.1427,0.3961 -0.1426,0.3962 -0.7108,-2.1159 -0.7109,-2.1159 h -1.0442 -1.0443 l -0.4574,2.7781 -0.4574,2.7781 -0.02,0.5953 -0.02,0.5953 z m -27.7982,-12.074 2.2109,-0.129 1.5499,-0.4824 1.55,-0.4824 1.1739,-0.688 1.1739,-0.6879 1.0859,-1.2336 1.0858,-1.2336 0.5278,-1.7089 0.5278,-1.7089 v -1.1147 -1.1147 l -0.4217,-1.4371 -0.4218,-1.4371 -1.3642,-1.3286 -1.3641,-1.3286 -3.5719,-1.5714 -3.5719,-1.5714 -0.714,-0.7041 -0.7141,-0.7041 -0.1869,-0.7446 -0.1868,-0.7446 0.3717,-1.0712 0.3718,-1.0712 1.1516,-0.6342 1.1517,-0.6342 2.0233,10e-4 2.0234,10e-4 1.5423,0.3214 1.5424,0.3214 0.074,-0.089 0.074,-0.089 0.1641,-2.4171 0.1641,-2.4171 -1.7809,-0.1945 -1.7809,-0.1945 -2.2489,0.023 -2.249,0.023 -1.5875,0.4194 -1.5875,0.4194 -1.0583,0.625 -1.0584,0.625 -0.9013,0.8826 -0.9013,0.8826 -0.6788,1.4552 -0.6787,1.4552 0.01,2.1167 0.01,2.1166 0.6118,1.2622 0.6119,1.2622 1.1763,1.0355 1.1764,1.0355 2.9592,1.239 2.9591,1.2391 0.8871,0.5366 0.8872,0.5366 0.5009,0.8215 0.5009,0.8214 10e-4,0.7538 10e-4,0.7538 -0.4064,0.8565 -0.4065,0.8566 -1.1149,0.6386 -1.1149,0.6386 -2.5135,-0.024 -2.5136,-0.024 -1.5762,-0.4277 -1.5763,-0.4278 -0.043,0.055 -0.043,0.055 -0.1813,2.5573 -0.1813,2.5573 0.5617,0.1783 0.5618,0.1783 1.7677,0.2216 1.7676,0.2216 z m -18.0418,-0.3614 h 2.734 v -12.3031 -12.3032 h 3.8365 3.8364 v -2.5135 -2.5136 h -10.451 -10.4511 v 2.5136 2.5135 h 3.7042 3.7042 v 12.1268 12.1267 l 0.1764,0.1764 0.1763,0.1764 z m 41.4499,-0.058 3.2205,-0.074 4.9619,-14.1552 4.9619,-14.1552 0.16,-0.5954 0.1601,-0.5953 h -2.8926 -2.8925 l -3.3678,9.8558 -3.3679,9.8557 -0.4213,1.6767 -0.4212,1.6768 -0.8774,-2.8674 -0.8773,-2.8674 -2.8767,-8.5989 -2.8767,-8.599 -3.0867,-0.074 -3.0868,-0.074 v 0.1338 0.1338 l 5.0196,14.4399 5.0197,14.4399 0.1603,0.2594 0.1602,0.2593 z"
       id="path163-8" /></g></svg>
