<?xml version="1.0" encoding="UTF-8" standalone="no"?>
<!-- Created with Inkscape (http://www.inkscape.org/) -->

<svg
   width="452.87708mm"
   height="240.07648mm"
   viewBox="0 0 452.87708 240.07648"
   version="1.1"
   id="svg1"
   xml:space="preserve"
   inkscape:version="1.4.4 (dcaf3e7, 2026-05-05)"
   sodipodi:docname="logos teams.svg"
   inkscape:export-batch-name="TSV Frickenhausen"
   inkscape:export-batch-path="Desktop/3 LIGA"
   xmlns:inkscape="http://www.inkscape.org/namespaces/inkscape"
   xmlns:sodipodi="http://sodipodi.sourceforge.net/DTD/sodipodi-0.dtd"
   xmlns="http://www.w3.org/2000/svg"
   xmlns:svg="http://www.w3.org/2000/svg"><sodipodi:namedview
     id="namedview1"
     pagecolor="#ffffff"
     bordercolor="#000000"
     borderopacity="0.25"
     inkscape:showpageshadow="2"
     inkscape:pageopacity="0.0"
     inkscape:pagecheckerboard="0"
     inkscape:deskcolor="#d1d1d1"
     inkscape:document-units="mm"
     inkscape:zoom="0.037190382"
     inkscape:cx="-4006.4122"
     inkscape:cy="-8779.1516"
     inkscape:window-width="1920"
     inkscape:window-height="1050"
     inkscape:window-x="0"
     inkscape:window-y="30"
     inkscape:window-maximized="0"
     inkscape:current-layer="layer1"><inkscape:page
       x="0"
       y="0"
       width="452.87708"
       height="240.07648"
       id="page1"
       margin="0"
       bleed="0" /></sodipodi:namedview><defs
     id="defs1"><style
       id="style1-7">
      .cls-1 {
        fill: #fff;
      }
    </style></defs><g
     inkscape:label="Ebene 1"
     inkscape:groupmode="layer"
     id="layer1"
     transform="translate(51.060667,1718.6595)"><path
       style="fill:#000000"
       d="m -35.298327,-1480.0442 c -0.29932,-0.78 -0.54423,-6.6476 -0.54423,-13.0391 v -11.6209 l -4.13063,-0.2651 -4.13063,-0.265 v -1.7392 -1.7392 l 10.36611,-0.2463 10.36611,-0.2463 0.64092,1.037 c 0.3525,0.5704 0.43959,1.5617 0.19353,2.2029 l -0.44739,1.1659 h -4.23174 -4.23175 l -0.24065,12.8158 -0.24065,12.8157 -1.41239,0.271 -1.41239,0.2711 z m 21.0004,0.026 c -2.67247,-1.5054 -4.1525,-3.8088 -4.1525,-6.4626 v -1.7964 h 1.76074 1.76073 l 0.78147,2.0554 c 0.94528,2.4863 2.51297,3.1622 7.3339495,3.1622 h 3.66818 l 1.04353,-1.0435 c 0.57394,-0.5739 1.04353,-1.9298 1.04353,-3.013 v -1.9695 l -1.82419,-0.9763 c -1.00331,-0.5369 -4.00878,-1.7279 -6.67882,-2.6465 -2.6700495,-0.9186 -5.5667295,-2.3147 -6.4370695,-3.1023 l -1.58244,-1.4321 v -3.7012 -3.7011 l 2.67554,-2.2513 2.67554,-2.2513 h 4.7023895 4.7024 l 2.55452001,2.3914 c 1.40498999,1.3152 2.80776999,3.2738 3.11729999,4.3523 l 0.56278,1.9609 -1.48916,0.5714 -1.48914999,0.5715 -2.26663001,-2.708 c -1.24665,-1.4894 -3.26021,-2.9442 -4.47459,-3.2328 l -2.20796,-0.5248 -2.3574795,0.8963 -2.35747,0.8963 v 2.4983 2.4983 l 3.2610195,1.3542 c 1.79357,0.7448 4.54884,1.8366 6.12284,2.4263 1.57399,0.5897 3.82410001,1.8291 5.00024,2.7542 l 2.13842,1.6821 v 3.3668 3.3669 l -2.05685,2.3912 -2.05685999,2.3912 -5.55220001,0.2801 -5.5521995,0.2801 z m 31.619481,0.1446 c -0.53044,-0.6392 -1.59482,-2.8893 -2.36528,-5.0002 -8.4229615,-23.0782 -8.7177915,-24.2739 -5.9851105,-24.2739 1.5718805,0 2.8161705,2.5631 6.9280905,14.271 l 3.33233,9.4882 4.32027,-11.8796 4.32027,-11.8796 h 1.62251 1.6225 v 1.6708 c 0,2.0015 -8.51536,26.1252 -9.77007,27.6784 -1.14244,1.4141 -2.81547,1.3829 -4.02551,-0.075 z m 32.46648,0.1044 c -0.25035,-0.6524 -0.34699,-7.4316 -0.21477,-15.065 l 0.24041,-13.8787 h 9.13087 9.13087 v 1.7392 1.7392 l -7.17426,0.2525 -7.17425,0.2526 v 4.2763 4.2763 l 6.73945,0.254 6.73945,0.254 0.27788,1.9566 0.27789,1.9566 h -6.97924 -6.97924 l -0.25549,6.2954 -0.2555,6.2954 -1.52444,0.2909 -1.52444,0.2909 z m 26.27688,0.4961 c -0.32882,-0.3289 -0.59785,-7.1852 -0.59785,-15.2363 v -14.6383 h 6.54998 6.54998 l 2.94569,1.2307 c 3.60036,1.5044 4.8249,3.627 4.8249,8.3637 v 3.6215 l -2.53991,2.3726 -2.53992,2.3726 3.06962,5.447 3.06961,5.4469 -0.90605,0.9061 c -1.59719,1.5972 -3.32551,0.085 -6.60323,-5.7757 l -3.20091,-5.7237 h -3.83093 -3.83094 l -0.25713,5.8005 -0.25714,5.8006 -0.92396,0.3048 c -0.50817,0.1676 -1.19299,0.036 -1.52181,-0.293 z m 14.24263,-16.8611 1.68204,-0.9003 v -2.9824 -2.9824 l -1.68204,-0.9002 c -0.92513,-0.4951 -3.86005,-0.9002 -6.52205,-0.9002 h -4.84001 v 4.7828 4.7829 h 4.84001 c 2.662,0 5.59692,-0.4051 6.52205,-0.9002 z m 13.420926,15.5238 c -0.27376,-1.1079 -0.38557,-7.8842 -0.24847,-15.0584 l 0.24927,-13.0441 h 1.73921 1.73921 v 14.7714 14.7714 l -1.49074,0.287 -1.49074,0.2871 z m 16.75165,0.5376 c -1.30927,-0.7104 -2.97239,-2.4362 -3.69583,-3.8352 l -1.31534,-2.5436 v -7.478 -7.4781 l 1.29945,-2.5128 c 0.71469,-1.3821 2.17139,-3.1236 3.23711,-3.8701 l 1.93767,-1.3571 h 5.11111 5.1111 l 3.017,3.0169 3.01699,3.017 -0.27773,2.4181 -0.27774,2.418 h -1.30441 -1.3044 l -1.24992,-2.8401 -1.24992,-2.8401 -3.19971,-0.9587 -3.19972,-0.9586 -2.50722,1.2016 -2.50722,1.2017 -1.16216,3.4667 -1.16215,3.4667 0.45407,4.6328 c 0.24974,2.5481 1.07523,5.5808 1.83441,6.7395 l 1.38034,2.1066 h 4.1932 4.19321 l 1.33633,-1.5218 c 0.73498,-0.837 1.60465,-2.4023 1.93259,-3.4784 l 0.59626,-1.9566 h 1.68062 1.68061 v 2.4153 c 0,3.0361 -1.97974,5.9108 -5.22724,7.5901 l -2.51285,1.2995 -3.73901,-0.035 c -2.05646,-0.019 -4.81023,-0.6161 -6.1195,-1.3265 z m 24.96461,0.3036 c -0.25035,-0.6524 -0.34699,-7.4316 -0.21477,-15.065 l 0.24041,-13.8787 h 1.73921 1.73922 l 0.26228,5.05 0.26228,5.05 6.01847,-5.3358 6.01846,-5.3358 1.47365,0.2858 c 2.91401,0.5651 1.95641,2.1596 -4.88368,8.1318 l -6.94933,6.0677 7.52814,7.0137 7.52815,7.0137 -0.63667,1.0301 c -1.20801,1.9546 -3.10678,1.0108 -9.4187,-4.6819 l -6.33345,-5.712 -0.4348,5.4868 -0.4348,5.4869 -1.52444,0.2894 -1.52444,0.2895 z m 26.07527,-0.034 c -0.24324,-0.6339 -0.33407,-7.398 -0.20185,-15.0314 l 0.24041,-13.8787 h 9.13087 9.13087 v 1.7392 1.7392 l -7.17426,0.2525 -7.17425,0.2526 v 4.3129 4.3128 h 6.95685 6.95685 v 1.6462 c 0,2.1739 -1.62818,2.7019 -8.33238,2.7019 h -5.58132 v 4.348 4.348 h 7.45214 7.45213 l -0.27788,1.9567 -0.27788,1.9566 -8.92902,0.248 -8.92902,0.248 z m 26.12595,-0.8076 c -0.27375,-1.1079 -0.38556,-7.8842 -0.24847,-15.0584 l 0.24927,-13.0441 1.73922,-0.2338 1.73921,-0.2337 6.95685,10.669 6.95685,10.669 0.24417,-10.6527 0.24416,-10.6526 h 1.71245 1.71245 v 14.7319 14.732 l -0.9077,0.561 c -1.42622,0.8815 -2.85676,-0.7545 -9.67459,-11.0639 l -6.37503,-9.6398 -0.43481,10.3304 -0.4348,10.3304 -1.49074,0.2849 -1.49074,0.2848 z m 30.41139,0.8412 c -0.25035,-0.6524 -0.347,-7.4316 -0.21477,-15.065 l 0.24041,-13.8787 h 1.73921 1.73921 l 0.2555,6.3046 0.2555,6.3046 h 6.88066 6.88065 l 0.2555,-6.3046 0.2555,-6.3046 h 1.73921 1.73922 v 14.7833 14.7833 h -1.73922 -1.73921 l -0.2555,-6.3047 -0.2555,-6.3046 h -6.88065 -6.88066 l -0.2555,6.2954 -0.2555,6.2954 -1.52444,0.2909 -1.52444,0.2909 z m 28.59618,0.1486 -0.93086,-0.9309 4.7306,-12.3415 c 2.60182,-6.7878 5.09002,-13.248 5.52932,-14.3559 l 0.79872,-2.0143 2.2973,0.2751 2.29729,0.2752 5.56413,14.2696 5.56413,14.2696 -0.84654,0.8466 c -1.40269,1.4027 -3.57356,-0.045 -4.92761,-3.2854 l -1.27682,-3.0559 h -6.50353 -6.50354 l -1.52865,3.1983 c -1.67298,3.5002 -2.83597,4.2774 -4.26394,2.8495 z m 17.08379,-10.6807 c 0,-0.3873 -4.46555,-11.3948 -4.74237,-11.6897 -0.12126,-0.1292 -1.02243,1.8274 -2.0026,4.348 -0.98018,2.5206 -2.05768,5.2678 -2.39446,6.1048 l -0.61232,1.5218 h 4.87588 c 2.68173,0 4.87587,-0.1282 4.87587,-0.2849 z m 18.26173,10.4779 c -1.1957,-0.5975 -2.86429,-2.4505 -3.70796,-4.1179 l -1.53396,-3.0315 0.22955,-10.8701 0.22954,-10.87 h 1.73921 1.73921 l 0.21445,9.5656 c 0.24521,10.9376 0.56029,12.825 2.45779,14.7225 l 1.36522,1.3652 h 3.25011 c 1.78755,0 4.00971,-0.5542 4.93812,-1.2316 l 1.68802,-1.2316 0.4348,-11.5951 0.4348,-11.595 2.0219,-0.2865 2.0219,-0.2864 -0.28268,12.7518 -0.28269,12.7518 -2.83994,2.5354 -2.83994,2.5353 -4.55172,-0.013 c -2.50344,-0.01 -5.53002,-0.5017 -6.72573,-1.0991 z m 27.63949,-0.3488 c -2.55584,-1.6396 -4.67739,-5.6949 -3.75775,-7.1829 1.00679,-1.629 3.08411,-0.9863 4.1134,1.2728 l 1.00004,2.1948 1.89043,0.4745 c 1.03973,0.261 3.37878,0.3494 5.19788,0.1966 l 3.30746,-0.278 0.95323,-1.5218 0.95323,-1.5218 -0.91674,-1.4533 c -0.50421,-0.7994 -3.43713,-2.378 -6.5176,-3.5082 l -5.60086,-2.0549 -1.95661,-2.1927 -1.95662,-2.1928 v -2.5118 -2.5118 l 2.00779,-2.3342 2.00778,-2.3342 4.37025,-0.4199 4.37026,-0.4199 2.79053,1.443 c 4.38341,2.2667 6.04638,8.3162 2.28609,8.3162 h -1.35322 l -0.81733,-2.1497 -0.81732,-2.1497 -2.0997,-0.527 c -1.15484,-0.2899 -3.18366,-0.3986 -4.50849,-0.2417 l -2.40878,0.2853 -0.95286,1.5218 -0.95287,1.5218 0.91674,1.4534 c 0.50421,0.7993 3.43713,2.378 6.5176,3.5082 l 5.60086,2.0548 1.95661,2.1927 1.95661,2.1928 v 2.5118 2.5119 l -2.05685,2.3912 -2.05686,2.3912 -5.5522,0.2934 -5.5522,0.2933 z m 24.06292,0.3677 c -0.24359,-0.6347 -0.33442,-7.2031 -0.20185,-14.5965 l 0.24102,-13.4423 8.34737,-0.2473 8.34736,-0.2474 1.07577,1.2963 c 0.59167,0.7129 0.82332,1.7047 0.51478,2.2039 l -0.56099,0.9077 h -6.90553 -6.90553 v 3.9132 3.9132 h 5.98077 5.98076 l 1.05095,1.2664 c 0.57802,0.6964 0.79851,1.6747 0.48996,2.174 l -0.56099,0.9077 h -6.47072 -6.47073 v 4.3128 4.3129 l 7.17425,0.2526 7.17426,0.2525 v 1.7393 1.7392 l -8.92902,0.248 -8.92902,0.248 z m 25.43275,0.5433 c -0.33539,-0.3354 -0.6098,-6.7639 -0.6098,-14.2855 v -13.6758 l 1.37554,-0.5278 c 0.75654,-0.2903 1.53409,-0.5278 1.72789,-0.5278 0.1938,0 3.29238,4.3997 6.88573,9.7772 l 6.53336,9.7773 v -8.8012 -8.8012 l 1.30441,-1.0825 1.30441,-1.0826 1.30441,1.0826 1.30441,1.0825 v 12.4317 c 0,13.5622 -0.27945,15.1828 -2.61812,15.1828 H 386.084 l -6.57602,-10.1372 -6.57603,-10.1372 -0.24716,9.9094 -0.24716,9.9094 -1.34681,0.2578 c -0.74075,0.1419 -1.62123,-0.016 -1.95662,-0.3519 z m -64.84611,-50.7836 c -2.08926,-0.4331 -5.53916,-1.6301 -7.66643,-2.6599 l -3.86777,-1.8723 -2.17634,-3.2887 c -1.19699,-1.8088 -2.75024,-5.1855 -3.45167,-7.5037 l -1.27533,-4.2151 0.12443,-10.1002 0.12444,-10.1003 1.53451,-4.5328 1.53452,-4.5328 3.32395,-3.4041 3.32395,-3.404 3.96119,-1.529 3.96119,-1.529 6.96093,0.011 6.96094,0.011 5.05947,2.4754 5.05947,2.4754 2.49751,3.4477 2.49751,3.4477 1.01019,4.514 1.01019,4.514 -0.31475,11.2921 -0.31475,11.2921 -2.06726,4.2088 -2.06726,4.2087 -3.49705,2.5333 c -5.44975,3.9478 -14.93617,5.7562 -22.24578,4.2408 z m 12.56862,-11.6816 c 1.13516,-0.7438 2.68702,-2.5573 3.44856,-4.0299 l 1.38462,-2.6776 -4.6e-4,-10.5758 -4.6e-4,-10.5757 -0.83899,-2.174 c -0.46145,-1.1957 -1.83446,-3.0998 -3.05114,-4.2314 l -2.21213,-2.0573 -3.82327,-0.4309 -3.82327,-0.431 -2.79138,1.4435 c -1.53526,0.7939 -3.55526,2.6963 -4.48889,4.2275 l -1.6975,2.784 -0.003,11.3937 -0.003,11.3937 1.98673,2.9548 1.98673,2.9548 3.01351,1.078 c 3.55517,1.2716 8.03093,0.8425 10.91385,-1.0464 z m -350.090447,-12.1664 v -23.0843 h -7.65253 -7.65254 l -1.04353,-1.0435 -1.04352,-1.0435 v -3.6328 -3.6329 l 1.1947,-0.9915 1.1947,-0.9915 21.63247,0.2328 21.6324595,0.2329 v 5.2176 5.2176 l -8.0294795,0.2499 -8.02949,0.2498 -0.23177,22.7948 -0.23178,22.7947 -5.86984,0.2571 -5.86985,0.2572 z m 36.9343295,21.9517 c -0.23992,-0.6253 -0.33269,-13.4599 -0.20614,-28.5214 l 0.23008,-27.3846 h 15.2181215 15.21811 l 4.15427,2.0456 c 5.02552,2.4747 7.97761,6.141 9.35402,11.6171 l 1.02978,4.0971 -1.06079,4.4219 -1.0608,4.4219 -2.73682,2.7859 c -1.50525,1.5322 -3.48806,3.2021 -4.40623,3.7107 l -1.66941,0.9247 5.80705,10.4185 c 3.19387,5.7301 5.80704,10.8903 5.80704,11.4671 v 1.0487 h -6.04377 -6.04377 l -5.47851,-10.4211 -5.47852,-10.4212 -5.40744,-0.014 -5.40745,-0.014 -0.24499,10.2179 -0.245,10.2179 -5.4463005,0.2592 -5.446301,0.2592 z m 29.6300915,-32.3871 2.13449,-2.1345 v -3.3245 -3.3244 l -1.33005,-1.899 -1.33005,-1.8989 -3.23538,-0.8985 c -1.77947,-0.4942 -5.68116,-0.9007 -8.67043,-0.9034 h -5.43504 v 8.2613 8.2613 h 7.86599 7.86598 z m 25.13908,32.3453 c -0.23111,-0.6023 -0.31665,-13.4181 -0.19011,-28.4796 l 0.23009,-27.3846 h 5.65244 5.65244 l 0.22928,28.4796 0.22929,28.4796 h -5.69162 -5.69162 z m 19.20122,0.2738 c -0.66799,-1.0809 18.37489,-52.8733 20.240969,-55.051 l 1.30404,-1.5218 5.300257,0.013 c 2.91514,0.01 5.76481,0.3087 6.33258,0.6697 1.02813,0.6538 21.14264,53.6554 21.14264,55.7107 v 1.0798 l -5.78679,-0.2572 -5.78679,-0.2571 -1.94246,-5.2177 -1.94246,-5.2176 -11.73529,-0.2413 -11.735286,-0.2413 -2.18044,5.459 -2.18044,5.4589 -5.23707,0.2569 -5.23706,0.2569 z m 35.189146,-20.8485 c 0,-1.1889 -7.9949,-22.8017 -8.31595,-22.4806 -0.44874,0.4487 -8.206566,21.7755 -8.206566,22.5604 v 0.7193 h 8.261256 8.26126 z m 32.59155,19.7131 c -0.26765,-1.0762 -0.37294,-11.4465 -0.23397,-23.0453 l 0.25266,-21.0886 -7.39165,-0.013 c -4.06541,-0.01 -7.90337,-0.3371 -8.5288,-0.7338 l -1.13713,-0.7212 0.26753,-4.7005 0.26753,-4.7005 20.87055,-0.2451 c 11.47881,-0.1347 21.7702,-0.025 22.86975,0.2447 l 1.9992,0.4897 -0.25998,4.973 -0.25999,4.9729 -8.47866,0.2489 -8.47866,0.2489 v 23.0131 23.0131 h -5.63588 -5.63587 z m 36.8752,-6.9198 c -0.18317,-4.9228 -0.13738,-17.7553 0.10176,-28.5167 l 0.43481,-19.5661 4.63602,-0.2653 4.63602,-0.2653 1.23382,1.024 1.23382,1.0239 v 10.2151 10.215 l 3.26103,0.539 c 1.79356,0.2964 6.88076,0.5433 11.30488,0.5486 l 8.04386,0.01 v -11.2883 -11.2883 l 2.02636,-0.5086 c 1.11451,-0.2797 3.75594,-0.385 5.86985,-0.234 l 3.84347,0.2747 0.22934,28.5196 0.22933,28.5196 -5.88177,-0.2574 -5.88178,-0.2574 -0.24264,-11.5223 -0.24264,-11.5223 h -11.25441 -11.2544 l -0.24264,11.5223 -0.24264,11.5223 -5.75421,0.2545 -5.7542,0.2545 z m 59.81473,8.2967 c -0.31885,-0.3189 -0.57974,-13.0294 -0.57974,-28.2457 v -27.6659 l 2.02637,-0.5086 c 1.1145,-0.2797 3.75593,-0.385 5.86985,-0.234 l 3.84347,0.2747 0.23161,23.2619 0.2316,23.262 h 12.52397 c 6.88818,0 13.14295,0.2375 13.8995,0.5279 l 1.37553,0.5278 v 4.6898 4.6898 h -19.42121 c -10.68167,0 -19.68209,-0.2609 -20.00095,-0.5797 z m 102.65033,0.037 c -0.33908,-0.3391 -0.61651,-12.83 -0.61651,-27.7577 v -27.1412 l 1.23684,-1.0265 1.23685,-1.0264 4.18618,0.2678 4.18618,0.2678 11.31689,17.4495 11.3169,17.4495 0.23671,-16.5141 0.23671,-16.514 0.98935,-1.1921 0.98935,-1.1921 4.86118,0.2566 4.86119,0.2567 v 28.2622 28.2622 l -5.24702,0.254 -5.24703,0.254 -11.27549,-17.1972 -11.2755,-17.1971 -0.43481,16.9431 -0.4348,16.9432 -5.25333,0.2542 c -2.88932,0.1398 -5.53075,-0.023 -5.86984,-0.3624 z m -355.166387,-68.1556 c -5.57379,-1.9817 -10.76032,-5.525 -15.90244,-10.8641 -2.15227,-2.2347 -5.47852,-4.8887 -7.39165,-5.8977 l -3.47842,-1.8347 -6.95686,-0.5301 -6.95685,-0.5301 2.60882,-1.1577 c 1.43485,-0.6367 4.66988,-1.3502 7.18895,-1.5856 l 4.58012,-0.4279 3.96701,1.1107 3.967,1.1107 5.80138,4.2548 c 7.2918,5.3479 14.7388695,8.9192 21.4542895,10.2884 l 5.21763,1.0638 6.9568615,-0.5484 c 3.82626,-0.3016 9.10912,-1.1597 11.73968,-1.9069 2.63056,-0.7472 5.56548,-1.557 6.52205,-1.7994 l 1.73921,-0.4409 -1.73921,1.4737 c -5.90064,5 -20.6929005,9.9965 -29.29949149,9.8968 l -5.48477001,-0.064 z m 160.706027,0.366 c -7.24916,-2.6375 -12.48393,-7.1089 -15.70014,-13.4104 l -1.10959,-2.174 3.80025,3.6542 c 2.09013,2.0098 5.75685,4.5275 8.14827,5.5949 l 4.34803,1.9406 5.71249,0.019 5.71248,0.019 4.9178,-2.406 4.9178,-2.4061 3.01882,-3.5268 c 12.33555,-14.4113 5.03952,-35.6823 -13.84411,-40.3614 l -4.34803,-1.0774 4.78283,-0.073 4.78284,-0.073 5.21764,2.477 5.21763,2.477 3.57843,3.8976 3.57842,3.8975 1.94238,5.147 1.94238,5.147 -0.37952,6.0873 -0.37953,6.0872 -1.81072,4.084 -1.81072,4.084 -3.9968,3.9968 -3.9968,3.9968 -4.11659,1.8091 -4.1166,1.8091 -6.08724,0.3392 -6.08724,0.3392 z m 92.61281,-0.7226 -5.13954,-2.1716 -3.4108,-3.3015 c -2.99247,-2.8966 -5.87627,-7.0562 -5.87627,-8.4759 0,-0.2629 1.60475,1.1267 3.56611,3.0881 1.96136,1.9613 5.38544,4.3812 7.60906,5.3774 l 4.04294,1.8114 h 5.65244 5.65244 l 4.01968,-1.8011 c 2.21082,-0.9905 5.58811,-3.218 7.50509,-4.9499 l 3.48542,-3.1489 1.99418,-4.5581 1.99417,-4.5582 -0.0281,-5.6524 -0.0281,-5.6525 -1.98332,-4.5982 -1.98333,-4.5982 -3.66909,-3.2296 c -3.6987,-3.2558 -10.51651,-6.2828 -14.13288,-6.2748 -1.07614,0 -1.95661,-0.4152 -1.95661,-0.9279 v -0.9322 l 5.00024,0.583 c 6.09939,0.711 12.69501,3.552 16.97913,7.3136 l 3.20348,2.8126 2.84409,5.7795 2.84408,5.7794 -0.0574,6.5381 -0.0574,6.538 -1.9883,4.5235 -1.98831,4.5236 -4.57842,4.33 c -2.51814,2.3816 -6.0978,4.9772 -7.95481,5.7682 l -3.37638,1.438 -6.52205,0.3991 -6.52205,0.3991 z m 58.18552,1.495 c 0.47828,-0.471 5.76114,-5.3134 11.73969,-10.7608 22.2593,-20.2817 32.26823,-31.3662 39.32909,-43.5556 l 2.84682,-4.9146 7.22423,-1.9198 c 3.97333,-1.056 7.39444,-1.7497 7.60245,-1.5417 1.38878,1.3888 -13.51218,22.1522 -21.5063,29.9675 -8.84997,8.6519 -39.82176,30.6763 -46.36637,32.9715 l -1.73922,0.61 z m 51.60021,-10.6148 c 18.23266,-21.5418 22.75113,-28.2173 22.75113,-33.6122 v -3.1727 l -2.70078,-2.5229 -2.70078,-2.5229 h 7.09854 c 7.80203,0 14.2275,1.2752 15.76596,3.1289 l 0.99301,1.1965 -0.55403,2.2075 -0.55403,2.2074 -8.60691,8.6069 c -9.0597,9.0597 -39.12434,35.6906 -40.29829,35.6958 -0.37746,0 3.58532,-5.0439 8.80618,-11.2123 z m -293.964156,1.1726 -2.35259,-1.2771 -0.83834,-3.0361 -0.83833,-3.0362 0.88656,-3.2109 0.88655,-3.2108 2.54531,-2.3777 c 1.39992,-1.3077 3.68012,-2.6269 5.06712,-2.9316 l 2.52181,-0.5538 2.6389,1.3646 2.6389,1.3646 1.0015,3.3427 1.00149,3.3427 -1.77855,4.0207 -1.77855,4.0207 -2.88538,1.7592 c -3.38972,2.0666 -5.49463,2.1678 -8.7164,0.419 z m -57.6502415,-5.6294 c -4.55506,-0.9143 -12.7021495,-3.9928 -14.8353295,-5.6058 l -1.6872,-1.2758 3.03789,0.8416 c 1.67083,0.4628 6.3935095,0.8415 10.4948395,0.8415 h 7.45696 l 4.7232715,-1.3892 c 7.046,-2.0723 16.75683,-7.4286 26.02862,-14.3567 4.5437,-3.3952 11.18254,-7.5858 14.75299,-9.3126 l 6.49173,-3.1397 8.01245,-0.3504 8.01244,-0.3504 6.80118,1.4951 c 9.44554,2.0765 31.890386,11.7355 30.500236,13.1256 -0.16185,0.1619 -3.21242,-0.6323 -6.77903,-1.7647 -3.56661,-1.1325 -9.500996,-2.6819 -13.187536,-3.4433 l -6.70278,-1.3842 h -8.59452 -8.59452 l -3.97541,1.1964 c -2.18647,0.658 -9.32443,4.6113 -15.86212,8.785 -23.73325,15.1515 -33.60047,18.5954 -46.0941615,16.0876 z m 324.4354175,-52.9839 c 2.25717,-4.281 6.09922,-10.4272 8.53789,-13.6583 l 4.43395,-5.8747 5.40895,-3.6066 c 2.97492,-1.9836 7.67079,-4.3388 10.43527,-5.2338 l 5.02634,-1.6271 5.65244,0.04 c 10.46636,0.073 14.03894,2.156 11.32714,6.6038 -2.11632,3.4712 -2.24598,6.1767 -0.3706,7.7331 l 1.39088,1.1544 4.66486,-2.4424 4.66485,-2.4424 7.45753,-6.9773 c 8.65919,-8.1016 9.40147,-8.214 4.98921,-0.7555 l -3.23004,5.4601 -6.96825,6.6772 -6.96826,6.6772 -6.95685,3.6011 c -6.80432,3.5222 -16.66113,6.9541 -17.51642,6.0988 -0.23657,-0.2366 -0.0119,-2.6926 0.49929,-5.4578 0.51118,-2.7653 0.92941,-6.2821 0.92941,-7.8153 v -2.7876 l -1.6037,-1.9804 -1.6037,-1.9805 -2.52693,4e-4 c -5.92446,10e-4 -18.98722,10.4375 -26.92717,21.5134 -5.07909,7.0852 -5.3866,5.8819 -0.74609,-2.9193 z m -80.94564,5.6336 c -10.7971,-1.9926 -18.12815,-5.5734 -32.03406,-15.6471 -2.31365,-1.6761 -5.79431,-3.4749 -7.73478,-3.9974 l -3.52814,-0.9501 -5.58547,0.9727 c -9.48577,1.6519 -28.93191,10.4028 -31.17228,14.0278 -0.62084,1.0045 -2.12307,1.0258 -2.12307,0.03 0,-1.523 15.18119,-16.8309 20.34127,-20.511 l 5.31211,-3.7886 5.65244,-1.9043 5.65245,-1.9044 5.65244,0.3192 5.65244,0.3192 3.47842,1.7969 3.47843,1.7969 5.21764,6.6423 c 7.481,9.5237 19.11185,17.7009 30.62732,21.533 3.00374,0.9996 5.46134,1.9812 5.46134,2.1813 0,0.7199 -8.38355,0.1844 -14.3485,-0.9164 z m -22.82852,-31.1125 c -1.00449,-1.0761 -2.08821,-3.012 -2.40829,-4.3019 l -0.58194,-2.3452 1.00538,-3.0463 1.00538,-3.0464 3.02079,-2.6523 3.02078,-2.6522 h 2.63573 c 3.77598,0 5.96553,1.4447 7.40281,4.8846 l 1.25574,3.0054 -0.90669,3.3672 -0.90669,3.3672 -3.06175,2.6883 -3.06176,2.6882 h -3.29658 -3.29658 z m 154.01472,-6.6992 c -4.47347,-1.8843 -5.93222,-7.9633 -3.26149,-13.5914 l 1.39699,-2.944 2.83629,-1.7529 c 3.21507,-1.987 5.50021,-2.1913 8.61854,-0.7705 l 2.15616,0.9824 1.04068,2.5124 1.04068,2.5125 -0.48296,3.6008 -0.48297,3.6007 -2.89036,2.8856 -2.89035,2.8856 -2.60882,0.4319 c -1.43485,0.2375 -3.44742,0.079 -4.47239,-0.3531 z"
       id="path215" /></g><style
     id="style1">@media(prefers-color-scheme:dark){.lines{fill:#d7d7d7}}</style></svg>
