<?xml version="1.0" encoding="UTF-8" standalone="no"?>
<!-- Created with Inkscape (http://www.inkscape.org/) -->

<svg
   width="338.37741mm"
   height="351.86133mm"
   viewBox="0 0 338.37741 351.86133"
   version="1.1"
   id="svg1"
   xml:space="preserve"
   inkscape:version="1.4.4 (dcaf3e7, 2026-05-05)"
   sodipodi:docname="logos teams.svg"
   inkscape:export-batch-name="TSV Neustadt"
   inkscape:export-batch-path="Desktop/Liga"
   xmlns:inkscape="http://www.inkscape.org/namespaces/inkscape"
   xmlns:sodipodi="http://sodipodi.sourceforge.net/DTD/sodipodi-0.dtd"
   xmlns="http://www.w3.org/2000/svg"
   xmlns:svg="http://www.w3.org/2000/svg"><sodipodi:namedview
     id="namedview1"
     pagecolor="#ffffff"
     bordercolor="#000000"
     borderopacity="0.25"
     inkscape:showpageshadow="2"
     inkscape:pageopacity="0.0"
     inkscape:pagecheckerboard="0"
     inkscape:deskcolor="#d1d1d1"
     inkscape:document-units="mm"
     inkscape:zoom="0.21014409"
     inkscape:cx="787.55487"
     inkscape:cy="-3590.3937"
     inkscape:window-width="1920"
     inkscape:window-height="1050"
     inkscape:window-x="0"
     inkscape:window-y="30"
     inkscape:window-maximized="0"
     inkscape:current-layer="layer1"><inkscape:page
       x="0"
       y="0"
       width="338.37741"
       height="351.86133"
       id="page2"
       margin="0"
       bleed="0" /></sodipodi:namedview><defs
     id="defs1"><style
       id="style1-7">
      .cls-1 {
        fill: #fff;
      }
    </style></defs><g
     inkscape:label="Ebene 1"
     inkscape:groupmode="layer"
     id="layer1"
     transform="translate(1820.3089,80.510851)"><g
       id="g126"><path
         id="path291"
         style="fill:#174195;fill-opacity:1"
         d="m -1765.8302,-80.510848 -1.0253,0.500228 -1.0252,0.500745 -0.3685,0.77618 -0.3684,0.77618 1.2402,10.204028 c 0.682,5.61225 1.3644,12.109022 1.5167,14.437362 l 0.277,4.233333 -0.1643,4.365625 c -0.2988,7.933095 -1.2325,15.197917 -2.8366,22.06842 l -0.5503,2.356446 -9.587,-0.159681 -9.5865,-0.160197 -0.5659,0.396359 c -1.0888,0.762636 -2.0156,4.960997 -2.3306,10.5559445 l -0.1643,2.9104167 0.3147,2.7011271 c 0.3992,3.42690201 1.1153,6.0306711 2.3477,8.5379801 l 0.9725,1.9781739 1.6578,1.6908528 1.6583,1.6908529 -1.5617,1.754932 c -6.6642,7.48832 -13.984,12.826642 -25.4816,18.583878 l -4.1899,2.098063 -0.4414,0.926042 -0.4418,0.926042 0.709,6.279203 c 1.1821,10.46613 4.3004,27.749256 6.5624,36.375041 l 0.262,0.992187 0.3204,-0.0021 c 0.2987,-0.0019 2.7038,-0.350382 4.5759,-0.663009 l 0.8155,-0.135909 -0.7493,-3.237528 c -2.7447,-11.862121 -4.9602,-24.351405 -6.1257,-34.528642 l -0.3416,-2.980696 4.2478,-2.207618 c 8.3942,-4.363159 14.188,-8.324209 19.4856,-13.321667 l 1.8226,-1.719275 -0.1705,-0.275952 -0.1705,-0.275952 0.2806,0.173116 0.2801,0.173633 2.3042,-2.447913 c 1.2673,-1.346154 2.6181,-2.88367 3.0014,-3.416846 l 0.6971,-0.96945 2.1167,-0.0098 c 1.1643,-0.0054 3.4178,-0.194234 5.0074,-0.419613 1.5897,-0.225379 2.9887,-0.409794 3.1089,-0.409794 0.1205,0 0.2186,0.404108 0.2186,0.898137 v 0.898136 l -1.4863,2.078426 c -6.8497,9.576679 -16.6407,18.206597 -27.8608,24.556641 l -3.2525,1.840714 0.1757,1.598869 c 0.5839,5.305037 3.4692,20.565075 5.5924,29.578556 l 0.7323,3.108855 h 0.3519 c 0.1934,0 2.0471,-0.235002 4.1196,-0.522449 5.342,-0.74089 15.2962,-1.953226 23.6658,-2.9068 -0.2616,-0.315273 -0.5221,-0.631041 -0.7814,-0.948262 -1.7829,-2.278796 -3.2032,-4.7846 -4.3858,-7.417635 -1.0029,-2.261735 -1.5891,-4.665434 -2.0443,-7.087423 -0.4399,-2.197633 -0.3396,-4.438412 -0.218,-6.659542 0.057,-1.53474 0.1623,-3.06242 0.3627,-4.585766 0.2143,-1.433289 0.3711,-2.871721 0.5938,-4.303614 0.1968,-1.033051 0.452,-2.054243 0.6299,-3.090767 0.1681,-1.162166 0.5263,-2.282798 0.8093,-3.41943 0.1597,-1.173867 0.5199,-2.30811 0.9177,-3.420979 -0.035,0.05797 -0.072,0.18147 -0.083,0.195853 l -5e-4,5.17e-4 h -5e-4 v 5.17e-4 h -5e-4 -5e-4 -5e-4 v -5.17e-4 -5.17e-4 l -6e-4,-5.16e-4 c 0,-0.01389 0.01,-0.09114 0.042,-0.286805 0.019,-0.284709 0.045,-0.60657 0.067,-0.905371 0.015,-1.052362 0.18,-2.069716 0.3111,-3.12229 0.1585,-0.729095 0.323,-1.261069 0.4785,-1.833996 0,-0.03219 0,-0.07624 0.01,-0.133842 0,-0.05384 0.01,-0.107908 0.01,-0.161748 0.4522,-7.771268 3.4248,-12.743257 7.1014,-15.029573 l 0.01,-2.5822714 -0.4305,-0.9074382 c -0.8635,-1.819787 -1.1224,-1.8454668 -8.7545,-0.8686808 l -5.8347,0.7467245 -1.5359,-0.4464844 -1.5358,-0.4464844 -1.2707,-1.2707235 c -1.4994,-1.499411 -2.16,-2.710773 -2.9197,-5.352128 l -0.5597,-1.945101 -0.123,-3.7041666 -0.1235,-3.7041662 0.3452,-2.116667 0.3452,-2.116667 6.0839,0.08992 6.0838,0.0894 4.6303,-0.291971 c 3.0703,-0.193714 6.1804,-0.47627 9.3363,-0.849044 0.135,-2.102278 1.0249,-4.186905 2.6748,-5.977413 -2.4869,0.302822 -6.822,0.704693 -6.9184,0.608231 -0.064,-0.06377 0.1256,-1.165299 0.4206,-2.448429 0.6253,-2.720407 1.1761,-5.993739 1.817,-10.799857 l 0.4583,-3.439584 v -9.921875 -9.921875 l -1.0051,-7.895642 c -0.5527,-4.34269 -0.9593,-7.941111 -0.9043,-7.996411 0.055,-0.05532 3.4277,0.797258 7.4941,1.894458 64.8832,17.50672 143.5793,17.590489 208.5335,0.222209 4.5992,-1.22977 8.3909,-2.205327 8.4259,-2.167827 0.035,0.03752 -0.3376,3.280229 -0.8284,7.206279 -5.956,47.639039 9.4779,82.28317 44.6061,100.126705 2.3985,1.218341 4.3954,2.242727 4.4374,2.276347 0.7408,0.591855 -3.5614,25.711795 -6.5634,38.322208 -0.3067,1.288496 -0.5037,2.396839 -0.4377,2.462899 0.1319,0.131859 4.56,0.880517 5.2178,0.882117 l 0.4098,10e-4 1.111,-4.960937 c 2.6876,-11.996981 4.644,-23.207775 5.7257,-32.809884 l 0.6636,-5.888529 -0.2269,-0.593763 c -0.3731,-0.975714 -0.9851,-1.370241 -6.7784,-4.369242 -27.0787,-14.017697 -40.9565,-35.915528 -43.5395,-68.700716 l -0.311,-3.948596 0.1441,-6.634737 0.1447,-6.634221 1.2186,-9.657291 c 0.6704,-5.31151 1.2422,-10.15329 1.2702,-10.75955 l 0.052,-1.102259 -0.3596,-0.671793 c -0.1977,-0.36942 -0.7643,-0.863711 -1.2594,-1.098641 l -0.9002,-0.427364 -0.8475,0.18035 c -0.4662,0.09923 -5.0743,1.308061 -10.2402,2.686141 -35.4704,9.4621 -65.8896,13.315131 -105.0396,13.305131 -39.3061,-0.01 -68.8719,-3.775068 -105.2049,-13.398148 z m 217.7464,18.92701 -2.3451,0.632003 c -1.29,0.34775 -4.6673,1.168578 -7.5049,1.824178 -5.406,1.24898 -6.3871,1.526104 -4.6303,1.307414 l 1.0584,-0.131775 3.4168,5.625496 c 8.27,13.61455 9.4155,15.558232 9.4155,15.980937 0,0.246271 0.064,0.384074 0.1421,0.305924 0.078,-0.07815 0,-2.824528 -0.1737,-6.102986 l -0.3157,-5.960877 0.3137,-5.649267 c 0.1727,-3.10694 0.3837,-6.139987 0.4687,-6.740157 z m -203.7948,0.05633 0.1183,0.308509 c 0.065,0.16978 0.2626,2.252471 0.4388,4.628141 l 0.3204,4.319633 -0.1514,7.018176 -0.152,7.018177 -0.5467,4.629174 c -0.3802,3.219016 -1.0254,7.47716 -1.4594,9.766329 2.7886,-1.755607 6.6647,-2.914795 11.6365,-3.007051 0.4713,-0.0087 0.2299,-0.0042 0.723,-0.01395 0.9639,-0.02128 1.928,-0.05069 2.8913,-0.09043 1.5432,-0.06475 3.0852,-0.15473 4.6261,-0.258899 2.2915,-0.160406 4.5831,-0.416698 6.8828,-0.377238 1.7499,0.03371 3.49,0.121501 5.1573,0.520382 0.7858,-0.604632 1.5931,-1.181455 2.4257,-1.723926 1.7679,-1.115504 3.5845,-2.154638 5.5722,-2.830318 4.4537,-1.46882 6.5562,-1.55724 11.3482,-0.077 2.9087,1.507717 5.2732,3.650497 6.536,6.678146 0.1668,-0.26157 0.3504,-0.505663 0.5566,-0.724504 1.2095,-1.283596 2.6353,-2.345116 3.9527,-3.517615 2.1863,-0.452962 4.3316,-1.21382 6.5536,-1.397331 0.5853,-0.443754 1.201,-0.840598 1.8428,-1.276924 1.4518,-0.840129 3.0557,-1.341044 4.6906,-1.674833 0.7007,-0.121908 1.3853,-0.195241 2.0532,-0.220142 4.6752,-0.174309 8.5262,2.009198 11.2556,6.286955 0.4065,0.637216 0.6304,1.373879 0.9457,2.060856 0.4377,1.12742 0.7108,2.282961 0.8842,3.455086 v 5.17e-4 l 0.3886,0.379305 0.6681,1.459342 0.6682,1.459343 0.123,1.624707 0.123,1.62419 -0.4232,2.778125 c -0.9711,6.3804652 -5.494,22.1099626 -12.591,43.788542 -4.698,14.350424 -7.6376,23.991918 -9.633,31.59342 l -0.9312,3.547587 5.8787,-0.173632 c 3.2333,-0.0955 12.3358,-0.25299 20.2277,-0.34985 l 14.3495,-0.1757 5.4369,-8.935372 5.4374,-8.934855 -8.4827,-13.935583 -8.4822,-13.935584 8.3809,-13.7970905 c 4.6095,-7.588434 8.4229,-13.8752635 8.4739,-13.9707235 0.051,-0.095465 -1.8908,-3.429214 -4.316,-7.408333 -2.4251,-3.979118 -6.236,-10.245729 -8.4687,-13.925765 l -4.0597,-6.691065 4.1031,-6.718969 c 2.2566,-3.695586 4.1021,-6.756746 4.1015,-6.802686 -6e-4,-0.04594 -5.0904,-0.10126 -11.3109,-0.12299 -33.5877,-0.117313 -66.3243,-3.826089 -93.6661,-10.611239 z m 187.5948,3.879867 c -0.1199,0 -0.2398,0.01859 -0.3308,0.05529 -0.1819,0.07335 -0.033,0.133325 0.3308,0.133325 0.3637,0 0.5126,-0.05992 0.3307,-0.133325 -0.091,-0.0367 -0.2108,-0.05529 -0.3307,-0.05529 z m -1.323,0.264583 c -0.1199,0 -0.2397,0.01859 -0.3307,0.05529 -0.1819,0.07335 -0.033,0.133325 0.3307,0.133325 0.3637,0 0.5127,-0.05992 0.3308,-0.133325 -0.091,-0.0367 -0.2109,-0.05529 -0.3308,-0.05529 z m -1.3229,0.264584 c -0.1199,0 -0.2398,0.01859 -0.3307,0.05529 -0.1819,0.07335 -0.033,0.133326 0.3307,0.133326 0.3638,0 0.5126,-0.05993 0.3307,-0.133326 -0.091,-0.0367 -0.2108,-0.05529 -0.3307,-0.05529 z m -1.3229,0.264583 c -0.1199,0 -0.2398,0.01859 -0.3307,0.05529 -0.1819,0.07335 -0.033,0.133325 0.3307,0.133325 0.3638,0 0.5126,-0.05992 0.3307,-0.133325 -0.091,-0.0367 -0.2108,-0.05529 -0.3307,-0.05529 z m -1.1307,0.230477 c -0.061,0 -3.2543,0.526838 -7.0967,1.170988 -3.8425,0.64415 -9.0285,1.446093 -11.5244,1.781803 l -4.5382,0.610299 0.4615,0.665592 c 0.2538,0.36621 2.5826,4.162898 5.1749,8.436695 l 4.7129,7.770585 0.4221,-0.559656 c 0.232,-0.307691 1.7787,-2.792449 3.437,-5.521627 6.5613,-10.798116 8.2915,-13.585148 8.6683,-13.961938 0.1893,-0.188913 0.3102,-0.348224 0.2966,-0.38499 v -5.16e-4 h -5e-4 v -5.17e-4 -5.17e-4 -5.17e-4 h 5e-4 v -5.17e-4 -5.16e-4 -5.17e-4 -5.17e-4 -5.17e-4 -5.16e-4 -5.17e-4 h -5e-4 -6e-4 l -5e-4,-5.17e-4 h -5e-4 v -5.17e-4 h -5e-4 -5e-4 c 0,-5.78e-4 -0.01,-0.001 -0.01,-0.001 z m -37.1274,4.957837 -0.5163,0.148828 c -0.2839,0.08199 -3.1951,0.3416 -6.4693,0.576709 -3.2742,0.235112 -7.1091,0.510717 -8.5215,0.612882 l -2.5678,0.186036 3.4597,5.688541 c 1.903,3.128698 3.8202,6.261104 4.2597,6.960816 l 0.799,1.272273 0.2036,-0.21394 c 0.112,-0.117628 2.0763,-3.309566 4.3656,-7.093107 2.2892,-3.783542 4.3481,-7.162598 4.5749,-7.509103 z m 24.322,15.887402 -8.3829,13.789339 -8.383,13.7893395 0.4682,0.8779826 c 0.2574,0.482961 4.0324,6.73460123 8.3886,13.8921753 4.3563,7.1575726 8.0054,12.9223466 8.1096,12.8111046 0.1529,-0.16315 6.7329,-10.9438574 15.4451,-25.3054324 l 1.2645,-2.0846273 -0.3623,-0.721403 c -0.4964,-0.987689 -15.5701,-25.7524583 -16.1127,-26.4717693 z m 33.9023,10e-4 -3.2763,5.385717 c -6.2934,10.344985 -12.9126,21.2909525 -13.2012,21.8301925 l -0.291,0.5431193 2.7275,4.4710449 c 2.3489,3.85041101 4.8892,8.0267007 12.5698,20.6664383 l 1.481,2.437061 0.291,-0.320394 c 0.1603,-0.176393 0.8626,-1.27341 1.5606,-2.437577 0.6981,-1.164166 2.9268,-4.845761 4.9527,-8.1814129 l 3.6835,-6.0647461 -1.3229,-2.93108725 c -4.4517,-9.86561975 -7.6242,-21.49255575 -8.8398,-32.39595575 z m -67.8558,0.188102 c -0.118,0.07293 -0.5432,0.697904 -0.9451,1.389062 -0.402,0.691158 -4.0601,6.733646 -8.1287,13.427605 -4.0687,6.693958 -7.4509,12.3095291 -7.5159,12.4793411 -0.065,0.169811 1.5723,3.0868427 3.6391,6.4822917 2.0669,3.39545 5.8454,9.6015458 8.3969,13.7908892 2.5515,4.189344 4.7198,7.523095 4.8178,7.408334 0.098,-0.114761 2.7784,-4.495024 5.9562,-9.7337732 3.1777,-5.23875 6.8884,-11.3472302 8.2455,-13.5743652 1.3572,-2.227135 2.4676,-4.105959 2.4676,-4.174939 0,-0.39676 -16.7564,-27.6038296 -16.9334,-27.4944456 z m -71.778,6.898804 c -0.1881,0.110099 -0.2983,0.179997 -0.08,0.04806 0.026,-0.01602 0.053,-0.03204 0.08,-0.04806 z m 25.3436,6.198071 c 0.072,0 0.1323,0.05953 0.1323,0.132292 0,0.07276 -0.059,0.132291 -0.1323,0.132291 -0.073,0 -0.1322,-0.05953 -0.1322,-0.132291 0,-0.07276 0.059,-0.132292 0.1322,-0.132292 z m -105.5687,1.852083 c 0.072,0 0.1323,0.05953 0.1323,0.132292 0,0.07276 -0.059,0.132292 -0.1323,0.132292 -0.072,0 -0.1323,-0.05953 -0.1323,-0.132292 0,-0.07276 0.059,-0.132292 0.1323,-0.132292 z m -18.7854,0.264584 c 0.072,0 0.1323,0.05953 0.1323,0.132291 0,0.07276 -0.059,0.132292 -0.1323,0.132292 -0.073,0 -0.1323,-0.05953 -0.1323,-0.132292 0,-0.07276 0.059,-0.132291 0.1323,-0.132291 z m 86.7115,18.0526444 c -0.025,0.037826 -0.1255,0.1736993 -0.1638,0.2315104 -0.057,0.083629 -0.1047,0.1727603 -0.1566,0.2594157 0.1619,-0.2483697 0.2647,-0.4059896 0.3204,-0.4909261 z m -0.2005,3.913973 v 5.167e-4 c 9e-4,1.13e-5 0,-1.21e-5 0,0 l -6e-4,-5.167e-4 z m 0,5.167e-4 v 5.168e-4 h -5e-4 v 5.167e-4 l 5e-4,5.168e-4 c 0.01,0.011782 0.073,0.061028 0.096,0.083199 0.1507,0.065114 0.3015,0.1302229 0.4522,0.1953369 0.049,0.0168 0.1112,0.03639 0.1844,0.057878 -0.2268,-0.1283433 -0.4677,-0.2411698 -0.7245,-0.3364136 v -5.168e-4 h -5e-4 v -5.167e-4 h -5e-4 -5e-4 -5e-4 l -5e-4,-5.168e-4 c -8e-4,-7.16e-5 0,5.6e-5 -0.01,0 z m 183.89,7.9307821 c 0.072,0 0.1323,0.059532 0.1323,0.1322916 0,0.072762 -0.059,0.1322917 -0.1323,0.1322917 -0.073,0 -0.1322,-0.059532 -0.1322,-0.1322917 0,-0.072762 0.059,-0.1322916 0.1322,-0.1322916 z m -262.7312,2.1166668 c 0.072,0 0.1323,0.05953 0.1323,0.132292 0,0.07276 -0.059,0.132291 -0.1323,0.132291 -0.072,0 -0.1323,-0.05953 -0.1323,-0.132291 0,-0.07276 0.059,-0.132292 0.1323,-0.132292 z m 197.1249,8.220687 -0.2537,0.453719 c -0.1396,0.249552 -2.391,3.966062 -5.0028,8.258927 -2.6118,4.292865 -6.2888,10.342883 -8.1716,13.444658 l -3.4236,5.639449 2.1177,3.488676 c 1.1648,1.918694 3.8909,6.405707 6.0581,9.970967 l 3.9403,6.482292 4.0824,0.294039 c 2.2453,0.161621 4.3104,0.280683 4.5894,0.264583 l 0.5075,-0.02945 6.1738,-10.126514 c 3.3954,-5.569696 6.1732,-10.220186 6.1732,-10.334253 0,-0.114068 -1.9944,-3.478889 -4.4318,-7.477063 -2.4375,-3.998175 -6.2154,-10.207946 -8.3953,-13.799675 z m -33.8946,0.378271 c -0.1973,0 -16.7698,27.075064 -16.7798,27.409697 0,0.08684 2.4843,4.25403 5.5252,9.260416 l 5.5289,9.102804 3.6654,0.14366 c 2.0159,0.07904 4.5584,0.164906 5.6498,0.190686 l 1.9844,0.04703 2.4034,-4.027144 c 1.3219,-2.21488 3.8652,-6.429779 5.6519,-9.366354 l 3.2484,-5.339209 -8.3344,-13.710791 c -4.5841,-7.540925 -8.4285,-13.710791 -8.5432,-13.710791 z m 67.8564,0.0021 c -0.2658,0.0021 -0.5449,0.495472 -1.1664,1.519287 -0.552,0.909505 -1.8018,2.963333 -2.7771,4.564063 -0.9752,1.600729 -2.7854,4.577291 -4.0225,6.614583 -1.2372,2.037292 -3.7589,6.181174 -5.6037,9.20874 l -3.3538,5.504574 6.9091,11.349695 6.9096,11.349695 1.1028,0.144177 c 0.6065,0.07935 1.5194,0.185128 2.0288,0.235128 0.5093,0.05 1.3428,0.104402 1.8521,0.120922 l 0.9261,0.02997 6.8791,-11.366231 c 3.7836,-6.251428 6.9153,-11.53112 6.9593,-11.733134 0.044,-0.202014 -3.2749,-5.88702 -7.3758,-12.632821 -4.1008,-6.7458 -7.8278,-12.886855 -8.2822,-13.646712 -0.4978,-0.832528 -0.7358,-1.263889 -0.9854,-1.261939 z m -102.0098,1.500167 c 0.025,-0.0023 0.053,0.01103 0.084,0.04134 0.097,0.09701 0.097,0.255423 0,0.352433 -0.097,0.09701 -0.1762,0.01781 -0.1762,-0.176216 0,-0.133395 0.038,-0.212608 0.092,-0.217558 z m -119.248,3.182752 c -0.025,0.03905 -0.052,0.16469 -0.072,0.280603 0.024,-0.09171 0.049,-0.184928 0.072,-0.280603 z m -24.6456,0.738973 c 0.072,0 0.1323,0.05953 0.1323,0.132291 0,0.07276 -0.059,0.132292 -0.1323,0.132292 -0.072,0 -0.1323,-0.05953 -0.1323,-0.132292 0,-0.07276 0.059,-0.132291 0.1323,-0.132291 z m 275.1316,1.900659 -2.3637,3.872632 c -1.3002,2.130001 -4.0501,6.654808 -6.1108,10.0552 l -3.7465,6.182568 2.9197,4.803324 c 1.6058,2.641806 5.2957,8.702622 8.2005,13.468429 2.9048,4.765807 5.4266,8.665104 5.6038,8.665104 0.1773,0 3.3448,-4.965356 7.0389,-11.033952 l 6.7169,-11.033951 0.6082,-3.584278 c 0.3347,-1.97143 0.6119,-3.853713 0.6119,-4.18269 V 44.17715 l -1.4558,-2.353344 -1.4562,-2.353862 -1.5203,-0.855245 c -3.6742,-2.066936 -9.6114,-6.309114 -13.1548,-9.399426 z m -261.3732,0.745174 c 0.072,0 0.1323,0.05953 0.1323,0.132292 0,0.07276 -0.059,0.132291 -0.1323,0.132291 -0.072,0 -0.1323,-0.05953 -0.1323,-0.132291 0,-0.07276 0.059,-0.132292 0.1323,-0.132292 z m 291.3062,1.852083 c 0.073,0 0.1323,0.05953 0.1323,0.132292 0,0.07276 -0.059,0.132292 -0.1323,0.132292 -0.072,0 -0.1323,-0.05953 -0.1323,-0.132292 0,-0.07276 0.059,-0.132292 0.1323,-0.132292 z m -295.0104,0.79375 c 0.072,0 0.1323,0.05953 0.1323,0.132292 0,0.07276 -0.059,0.132292 -0.1323,0.132292 -0.072,0 -0.1323,-0.05953 -0.1323,-0.132292 0,-0.07276 0.059,-0.132292 0.1323,-0.132292 z m 145.2562,24.341667 c 0.072,0 0.1323,0.05953 0.1323,0.132292 0,0.07276 -0.059,0.132291 -0.1323,0.132291 -0.073,0 -0.1322,-0.05953 -0.1322,-0.132291 0,-0.07276 0.059,-0.132292 0.1322,-0.132292 z m -11.377,9.789583 c 0.072,0 0.1323,0.05953 0.1323,0.132292 0,0.07276 -0.059,0.132292 -0.1323,0.132292 -0.072,0 -0.1323,-0.05953 -0.1323,-0.132292 0,-0.07276 0.059,-0.132292 0.1323,-0.132292 z m 17.9027,13.758334 c -0.1256,-0.186632 -42.5789,-0.150719 -42.7658,0.03617 -0.084,0.08438 -0.01,2.629428 0.1757,5.655469 l 0.3292,5.50199 6.8212,-0.159681 c 3.7517,-0.08775 6.822,-0.076 6.8229,0.02584 9e-4,0.101839 0.2942,7.924059 0.6521,17.38292 0.358,9.45886 0.67,18.29925 0.693,19.64531 l 0.041,2.4474 h 6.9459 6.9458 l -0.1064,-17.52865 c -0.059,-9.64076 -0.1404,-18.588935 -0.1814,-19.884574 l -0.074,-2.355412 6.8182,0.179317 6.8176,0.179318 0.077,-5.496822 c 0.042,-3.023111 0.036,-5.555837 -0.012,-5.628597 z m 7.4502,0.126607 c -0.1005,0.02494 -0.4219,10.987076 -0.3229,11.004496 0.058,0.01017 3.0593,0.116216 6.6698,0.236161 3.6105,0.119944 6.6206,0.274432 6.6896,0.343132 0.1009,0.100889 -0.8365,17.416652 -1.955,36.113042 l -0.1938,3.24114 1.062,0.031 c 0.5841,0.0172 2.6693,0.11623 4.6338,0.21962 v -5.1e-4 c 1.9646,0.10338 4.5898,0.20867 5.8343,0.23357 l 2.2629,0.0455 0.4511,-5.35781 c 1.1146,-13.23063 2.9101,-33.938331 2.9471,-33.990691 0.049,-0.0691 8.3958,0.376131 11.3942,0.607715 l 2.1197,0.163814 0.6103,-5.476151 c 0.3356,-3.01178 0.5673,-5.518817 0.5153,-5.571237 -0.3416,-0.341572 -41.5965,-2.121218 -42.7184,-1.842781 z m -57.6011,0.06925 -5.5718,0.1757 c -10.8533,0.342625 -25.5951,1.044764 -27.6479,1.30328 -0.078,0.03921 -0.1573,0.07744 -0.2367,0.114205 0.077,0.918795 1.485,11.224856 3.234,23.656436 1.8288,12.99908 3.403,24.31934 3.499,25.15609 0.096,0.83674 0.2589,1.52136 0.3622,1.52136 0.1032,0 3.3911,-0.17423 7.306,-0.38706 3.915,-0.21282 10.6243,-0.51471 14.9102,-0.67076 4.2858,-0.15605 7.8354,-0.32617 7.8874,-0.37827 0.097,-0.0972 -0.6903,-10.79018 -0.8015,-10.88358 -0.083,-0.0694 -13.119,0.36239 -15.1949,0.50333 l -1.6397,0.11162 -0.1328,-0.69608 c -0.2624,-1.37243 -1.0049,-8.80276 -0.8909,-8.91677 0.064,-0.064 3.6182,-0.25043 7.8982,-0.41392 4.28,-0.16349 7.8288,-0.33896 7.8868,-0.39016 0.1549,-0.13719 -0.7083,-10.451901 -0.8898,-10.633464 -0.085,-0.0851 -3.7487,-0.01843 -8.1416,0.148311 -4.3929,0.166748 -8.012,0.2781 -8.043,0.24753 -0.1124,-0.112407 -0.9431,-7.892188 -0.8521,-7.977808 0.052,-0.04872 4.0832,-0.231445 8.9581,-0.406176 4.875,-0.174732 8.8701,-0.336135 8.8801,-0.358635 0.01,-0.0225 -0.1624,-2.467533 -0.3814,-5.43326 z m 107.6332,2.185397 -0.5989,4.828645 c -0.3295,2.655755 -1.7555,14.005789 -3.1693,25.222239 l -2.5709,20.39359 7.9426,0.59789 c 4.3676,0.32885 10.6185,0.87168 13.8933,1.20613 3.273,0.33425 6.4818,0.59185 7.1308,0.57206 l 1.1803,-0.0362 0.9916,-5.28081 c 0.5452,-2.90432 0.9395,-5.33192 0.8765,-5.39502 -0.1253,-0.12527 -4.5592,-0.58153 -11.7378,-1.20716 -2.5291,-0.22042 -4.6624,-0.46569 -4.7424,-0.54519 -0.127,-0.127 0.8357,-7.22985 1.1933,-8.80463 l 0.1353,-0.59531 1.0956,0.006 c 0.6027,0.003 4.1317,0.29109 7.8424,0.63975 3.7106,0.34866 6.7911,0.58989 6.8451,0.53589 0.1252,-0.12515 2.0937,-10.54742 2.0117,-10.65206 -0.089,-0.11348 -13.834,-1.37311 -15.0078,-1.37511 l -0.9922,-0.002 v -0.46302 c 0,-0.25467 0.253,-2.107784 0.5658,-4.1181 l 0.569,-3.655074 1.6164,0.154512 c 5.9586,0.570302 16.1383,1.450128 16.1753,1.397848 0.1522,-0.217369 2.0168,-10.564035 1.9208,-10.659815 -0.2543,-0.254284 -29.7919,-2.764689 -32.5293,-2.764689 z m -172.5362,1.557527 c -1.2357,0.330369 -2.59,0.429866 -4.0204,0.264584 v 0 l -0.263,0.01912 c -4.1681,0.300928 -16.4403,1.468842 -18.4444,1.755448 l -1.0815,0.154513 3.1016,12.478308 c 1.7059,6.862854 4.4328,17.954664 6.0596,24.648624 1.6268,6.69396 3.0215,12.39118 3.0995,12.66021 l 0.1416,0.48886 1.0986,-0.15503 c 0.6041,-0.0853 3.5985,-0.4058 6.6544,-0.7121 3.056,-0.30629 5.5902,-0.58962 5.6312,-0.62942 0.041,-0.0398 -0.8088,-4.16586 -1.8883,-9.16946 -1.0795,-5.00361 -1.9465,-9.11176 -1.9265,-9.12916 0.02,-0.0174 0.8692,-0.10435 1.8878,-0.19275 l 1.8521,-0.16072 0.926,1.1436 c 1.1688,1.44311 11.3839,13.67825 12.668,15.17324 l 0.958,1.11569 7.7179,-0.58653 7.7179,-0.58601 -5.1697,-5.82083 c -2.8433,-3.20146 -7.0748,-7.88455 -9.4031,-10.4066 l -4.2333,-4.58525 0.23,-0.19379 c 0.1264,-0.10658 0.8595,-0.70722 1.6293,-1.3348 1.7507,-1.4274 3.5995,-3.99122 4.3341,-6.011 l 0.5623,-1.54565 0.017,-2.645833 0.018,-2.645833 -0.6087,-1.984375 c -0.812,-2.645473 -1.9167,-4.522335 -3.6877,-6.265251 l -1.464,-1.440222 -2.4019,-1.145666 c -2.8633,-1.365455 -4.8199,-1.867302 -8.8516,-2.270146 l -2.8593,-0.285771 z m 213.0449,1.922363 c -0.091,0.0939 -4.2772,20.456614 -8.1132,39.469434 -1.1694,5.79591 -2.0819,10.58212 -2.0289,10.63552 0.053,0.0534 2.7016,0.40804 5.885,0.78807 l 5.7882,0.69091 0.2191,-0.34623 c 0.1207,-0.19029 0.2238,-0.48396 0.2238,-0.65267 0,-0.1687 1.2478,-5.82417 2.7678,-12.56771 1.5199,-6.74353 3.0796,-14.28481 3.4664,-16.75867 0.3867,-2.47385 0.7541,-4.66686 0.8171,-4.87309 l 0.1142,-0.37465 0.2304,0.24236 c 0.5581,0.58659 5.4167,17.91374 8.5876,30.62656 0.9377,3.75966 1.7587,6.88911 1.8237,6.95461 0.066,0.0655 3.2604,0.59338 7.0993,1.17306 3.839,0.57968 7.5157,1.15982 8.1706,1.28881 0.6548,0.12903 1.4204,0.21587 1.7011,0.19327 l 0.5101,-0.0413 1.8216,-6.08541 c 1.7584,-5.87421 10.1877,-33.51188 12.3264,-40.41511 0.5748,-1.85539 0.9786,-3.373438 0.8986,-3.373438 -0.081,0 -2.9929,-0.428488 -6.4719,-0.95188 -3.4789,-0.523392 -6.3721,-0.905047 -6.4281,-0.848527 -0.2805,0.280484 -7.3408,25.826825 -8.1804,29.599235 -1.1099,4.98676 -1.2082,5.3588 -1.3756,5.19141 -0.067,-0.0675 -1.1782,-4.27363 -2.468,-9.34672 -1.2899,-5.0731 -3.3784,-12.79559 -4.6411,-17.161226 -1.2628,-4.365625 -2.4826,-8.592343 -2.711,-9.392708 -0.2284,-0.800365 -0.43,-1.479946 -0.448,-1.509986 -0.1026,-0.170873 -19.4444,-2.298028 -19.5848,-2.153874 z m -255.5937,3.3476 -5.1594,0.131258 -5.1594,0.130741 -10.0542,1.481047 c -5.5298,0.814476 -10.0713,1.48129 -10.0913,1.48208 -0.021,7.9e-4 0.6754,2.055379 1.5466,4.565613 2.2427,6.461965 7.0212,20.438405 11.3756,33.271355 2.0491,6.03911 3.825,11.2481 3.9465,11.57552 0.1215,0.32742 0.2783,0.59532 0.3483,0.59532 0.07,0 1.9483,-0.29401 4.1739,-0.65319 2.2255,-0.35918 6.9633,-1.07685 10.5286,-1.59526 7.5385,-1.09615 9.6431,-1.61013 12.6442,-3.08766 l 2.1936,-1.08004 1.601,-1.57665 1.6014,-1.57665 0.7876,-1.68258 0.7875,-1.6831 0.2238,-1.5844 0.2242,-1.58492 -0.2371,-1.8035 c -0.2972,-2.26375 -0.7689,-3.79317 -1.7984,-5.83272 l -0.8087,-1.60249 -1.325,-1.36012 -1.3255,-1.36064 -1.9265,-0.90848 c -1.0596,-0.49968 -2.7302,-1.05843 -3.7124,-1.24178 -2.1539,-0.40206 -2.1714,-0.47406 -0.3633,-1.49448 1.7364,-0.97996 2.9041,-2.3483 3.6478,-4.27468 l 0.5617,-1.45521 0.012,-2.11666 0.011,-2.116673 -0.5762,-1.884123 -0.5757,-1.883606 -1.094,-1.638142 -1.0929,-1.637627 -1.3658,-1.030428 c -1.9364,-1.461962 -4.0114,-2.34067 -6.9769,-2.954341 z m 41.215,5.387785 2.4412,0.10697 1.1788,0.65164 1.1787,0.652156 0.7674,1.092957 0.7674,1.092956 0.1374,1.713074 0.1375,1.713076 -0.3168,0.96015 -0.3168,0.95963 -1.0495,0.89865 -1.0495,0.89814 -1.5111,0.40411 c -0.8311,0.22228 -2.3116,0.47792 -3.2902,0.56792 l -1.7792,0.16382 -0.1447,-0.60203 c -0.079,-0.3311 -0.6571,-2.94739 -1.2837,-5.814121 l -1.1389,-5.212602 1.4154,-0.176733 c 0.7786,-0.09728 2.514,-0.128609 3.8566,-0.06976 z m -48.4415,5.181079 1.9498,0.125057 1.9497,0.125057 1.0868,0.719336 1.0867,0.71934 0.5029,1.10691 c 0.2764,0.60884 0.5085,1.56934 0.5085,2.13424 l 0.01,1.02681 -0.5163,0.83509 c -0.2838,0.45928 -0.9787,1.09506 -1.5441,1.41283 l -1.0278,0.57774 -2.4908,0.40876 c -1.3699,0.22475 -2.8476,0.46439 -3.2841,0.53279 l -0.7942,0.12454 -1.2955,-4.16357 c -0.7126,-2.28995 -1.3473,-4.357256 -1.4113,-4.594041 l -0.1158,-0.430465 2.6955,-0.330212 z m -3.0923,9.32657 c 0.072,0 0.1323,0.0595 0.1323,0.13229 0,0.0728 -0.059,0.13229 -0.1323,0.13229 -0.072,0 -0.1323,-0.0595 -0.1323,-0.13229 0,-0.0728 0.059,-0.13229 0.1323,-0.13229 z m 9.0584,9.62163 c 1.8906,0.001 3.727,0.22612 4.6519,0.67386 l 1.2216,0.59118 0.7912,1.0759 0.7911,1.07591 0.3039,1.46399 0.3039,1.46348 -0.2961,0.98857 -0.2961,0.98805 -0.9194,0.80719 -0.9193,0.80718 -1.1276,0.30438 c -0.6204,0.16746 -2.1996,0.46781 -3.5093,0.66766 v 0.001 c -1.3097,0.19985 -2.5598,0.36487 -2.7781,0.36587 l -0.3969,0.002 -1.6066,-5.22346 -1.6067,-5.22345 0.416,-0.16227 c 1.1409,-0.4463 3.0858,-0.66853 4.9765,-0.66714 z m 143.2615,23.05544 c -36.8272,-0.0863 -73.5725,1.95703 -111.7063,6.12624 -4.875,0.53298 -8.9056,1.00192 -8.9576,1.04232 -0.1324,0.1038 5.4143,10.57438 8.1157,15.31999 26.5075,46.56719 62.7234,77.89743 106.0137,91.71172 4.8496,1.54753 3.97,1.55351 9.0119,-0.0631 43.4345,-13.92533 79.4225,-45.12619 106.0157,-91.91325 2.4421,-4.2966 7.4522,-13.78039 7.7117,-14.59808 l 0.1602,-0.50436 -4.1677,-0.47129 c -38.461,-4.34859 -75.37,-6.56399 -112.1973,-6.65024 z m -11.6613,6.73137 0.8051,0.28112 c 0.4427,0.15454 0.9483,0.3409 1.123,0.41445 l 0.3183,0.13384 0.124,0.29662 0.124,0.29663 v 19.67476 c 0,10.82104 -0.027,19.78692 -0.041,19.92437 -0.027,0.13744 -0.058,0.45512 -0.083,0.7059 -0.063,0.56836 0.1025,0.47966 -1.249,0.66869 l -0.6666,0.0935 -19.4505,0.0165 -19.4505,0.0165 -0.4108,-0.19585 -0.4197,-0.19017 -0.2428,-1.03405 -0.2429,-1.03404 v -3.02463 c 0,-1.6636 0.036,-3.22596 0.066,-3.47162 l 0.055,-0.44648 0.6134,-0.29146 0.6134,-0.29094 12.7687,0.0109 c 7.0229,0.005 13.0003,0.0336 13.2829,0.0615 l 0.5137,0.0506 1.4025,-0.10438 1.402,-0.10439 0.3741,-0.1602 c 0.4526,-0.19429 0.7039,-0.41902 0.9612,-0.86041 l 0.1959,-0.33331 0.049,-0.41651 c 0.027,-0.22906 0.072,-1.75179 0.099,-3.38326 l 0.047,-2.96623 -0.091,-0.61598 c -0.049,-0.33889 -0.1764,-0.85497 -0.2769,-1.1467 l -0.185,-0.5302 -0.3241,-0.36845 c -0.1767,-0.20229 -0.4415,-0.42861 -0.5849,-0.50282 l -0.2594,-0.13487 -0.8537,-0.0961 -0.8543,-0.0961 -4.8534,0.0274 c -2.6694,0.0138 -5.3227,0.0499 -5.8953,0.0775 l -1.0412,0.0496 -0.4538,-0.25115 c -0.2511,-0.13826 -0.6648,-0.42281 -0.9234,-0.632 l -0.4697,-0.38034 0.1214,-0.89866 0.1214,-0.89865 v -1.41645 c 0,-0.779 -0.027,-1.69756 -0.052,-2.04122 -0.033,-0.3437 -0.083,-0.83211 -0.11,-1.08572 l -0.049,-0.46096 0.4899,-0.46767 c 0.2704,-0.25693 0.6939,-0.59627 0.9431,-0.75396 l 0.4532,-0.2868 1.249,0.10697 1.25,0.10697 4.4189,0.006 4.4188,0.006 0.9969,-0.13126 c 0.5478,-0.072 1.0501,-0.13487 1.1152,-0.13901 0.063,-0.006 0.3312,-0.22461 0.5922,-0.48989 l 0.4749,-0.48163 0.1876,-0.39429 c 0.1021,-0.21692 0.2428,-0.65921 0.3116,-0.98289 l 0.124,-0.58859 -0.052,-3.04116 c -0.03,-1.67254 -0.063,-3.17222 -0.083,-3.33261 l -0.03,-0.29146 0.2347,-0.58342 c 0.1297,-0.32076 0.2839,-0.68316 0.3441,-0.80564 l 0.1075,-0.22272 0.5426,-0.0491 c 0.2984,-0.0276 1.2922,-0.0354 2.2087,-0.0191 0.9165,0.0166 2.2037,1.9e-4 2.8608,-0.0357 z m 17.8062,0.0289 0.3746,0.008 c 0.207,0.006 1.7734,0.0386 3.4825,0.0739 l 3.1068,0.0641 0.3385,0.70022 c 0.1849,0.38487 0.3383,0.78222 0.3374,0.88315 0,0.101 -0.03,1.64766 -0.064,3.43751 l -0.063,3.25458 0.1519,0.6196 c 0.1986,0.82579 0.4506,1.3068 0.9457,1.80713 l 0.4113,0.41496 0.5297,0.0961 c 0.2915,0.0527 0.7926,0.13207 1.1136,0.17622 l 0.583,0.0801 4.2906,0.002 4.2907,0.002 1.4263,-0.0982 1.4252,-0.0977 0.5695,0.31265 c 0.3127,0.1722 0.8051,0.48106 1.094,0.68729 l 0.5256,0.37517 v 0.43719 c 0,0.24064 -0.058,0.80927 -0.1241,1.26349 l -0.1266,0.82579 v 0.99993 0.99994 l 0.1266,0.82579 c 0.069,0.45424 0.1241,1.0038 0.1241,1.22112 v 0.3948 l -0.3959,0.26407 c -0.218,0.14516 -0.6954,0.40616 -1.0619,0.58033 l -0.6667,0.31677 -5.7484,-0.062 -5.749,-0.0615 -0.9163,0.11007 c -1.2145,0.14626 -1.257,0.1573 -1.5663,0.41754 -0.5655,0.47545 -0.8845,1.09234 -1.1033,2.13166 l -0.1214,0.57877 v 2.40606 c 0,1.32338 0.038,2.88643 0.091,3.47317 l 0.091,1.0666 0.2181,0.40204 c 0.2983,0.55031 0.7965,0.92866 1.3513,1.0263 0.3582,0.0629 1.9785,0.15462 2.7073,0.15296 0.4582,-0.001 6.6259,-0.0138 13.7056,-0.0248 l 12.8721,-0.0222 0.4997,0.15865 c 0.276,0.0872 0.6595,0.22373 0.8543,0.30334 l 0.3539,0.1447 v 0.34519 c 0,0.18987 0.027,0.6637 0.044,1.05317 0.041,0.75251 0.099,3.26495 0.1074,4.58215 0,0.68019 -0.028,1.125 -0.072,1.125 0,0 -0.027,0.0563 -0.038,0.12505 -0.061,0.28 -0.566,1.632 -0.6455,1.72961 -0.047,0.0577 -0.2864,0.16341 -0.5312,0.23461 l -0.4454,0.12919 -19.3854,0.014 -19.3854,0.0139 -0.6067,-0.093 c -0.3265,-0.0552 -0.7426,-0.15108 -0.9245,-0.2129 l -0.3312,-0.11266 0.027,-0.0992 c 0.027,-0.0549 -0.027,-0.0997 -0.063,-0.0997 -0.047,0 -0.08,-0.028 -0.074,-0.0625 v -0.10439 c -0.03,-0.0726 -0.063,-0.27868 -0.1214,-0.70797 -0.03,-0.22906 -0.055,-8.62712 -0.055,-18.66242 0,-10.03526 -0.03,-18.77126 -0.063,-19.41277 l -0.061,-1.16634 0.1188,-0.36432 0.1184,-0.36432 1.0511,-0.50901 z m 119.9497,1.5813 c -0.1056,-0.005 -1.4387,2.46229 -2.9621,5.48184 -28.6319,56.75372 -69.7106,94.09731 -120.6804,109.70803 -4.7984,1.46961 -4.2152,1.46003 -8.5897,0.14263 -50.9525,-15.34456 -92.4338,-52.85736 -120.959,-109.38764 -1.6155,-3.20146 -2.9627,-5.85295 -2.9947,-5.89215 -0.081,-0.10023 -5.7565,0.70883 -5.8869,0.83923 -0.1622,0.16228 6.1875,12.66803 8.9467,17.62063 29.8041,53.49539 70.3339,87.99158 120.8939,102.89707 4.3497,1.28232 3.5492,1.26646 7.4502,0.14625 54.3115,-15.5964 97.5419,-54.53067 127.8532,-115.14801 1.5463,-3.09232 2.7215,-5.62456 2.6117,-5.62756 -0.1098,-0.003 -1.3901,-0.17777 -2.8453,-0.38861 -1.4552,-0.21084 -2.7321,-0.38671 -2.8376,-0.39171 z m -194.232,4.69119 1.5193,0.44183 1.5192,0.44132 1.1364,1.048 1.1369,1.04748 0.3256,1.16323 0.3255,1.16324 -0.1819,1.07694 c -0.2382,1.40964 -1.0599,2.59672 -2.5771,3.72225 l -1.2309,0.91312 0.9751,0.64492 c 1.4968,0.99008 2.43,1.93102 2.9843,3.00861 l 0.5049,0.98133 v 1.4242 1.42421 l -0.6103,1.16582 -0.6108,1.16633 -1.2661,0.85628 c -0.6964,0.47097 -1.7018,0.96554 -2.234,1.09916 -1.5114,0.37944 -3.2042,0.46758 -4.9733,0.2589 l -1.6242,-0.19172 -1.3358,-0.67644 -1.3359,-0.67697 -0.6578,-0.86403 c -0.3619,-0.47506 -0.8024,-1.43943 -0.9793,-2.14302 l -0.3219,-1.27899 0.3131,-1.39836 0.3127,-1.39837 0.9198,-1.07383 c 0.5056,-0.59072 1.335,-1.33122 1.8433,-1.64538 l 0.924,-0.57103 -1.3064,-1.1746 -1.3064,-1.17512 -0.4501,-1.17823 -0.4501,-1.17874 0.1266,-1.32085 0.1272,-1.32136 0.6873,-1.0387 0.6878,-1.03869 1.4981,-0.73329 1.4981,-0.73277 2.0433,-0.11834 z m 151.8786,0.0822 c 0.5874,0.005 1.0474,0.0328 1.2381,0.0806 l 0.6935,0.17415 v 1.99729 1.9973 l -0.5746,-0.18242 c -0.3161,-0.10026 -1.5231,-0.17812 -2.6825,-0.17312 l -2.1084,0.009 -1.479,0.75654 -1.4785,0.75603 -0.7121,1.44952 c -0.3915,0.79725 -0.7811,2.04484 -0.8651,2.77244 l -0.1529,1.32292 0.6857,-0.86713 c 0.3772,-0.47698 1.1464,-1.10207 1.709,-1.38907 l 1.0226,-0.52193 1.6645,0.003 1.664,0.003 1.3865,0.64544 1.386,0.64544 0.7849,1.23713 0.7845,1.23714 0.3064,1.47639 0.3065,1.4764 -0.1701,1.44642 c -0.3331,2.83377 -1.6871,4.88124 -3.9372,5.95365 l -1.3766,0.65525 -1.323,0.0946 c -5.069,0.36242 -8.3155,-2.37804 -9.1441,-7.71839 l -0.3018,-1.94304 0.1705,-1.74614 c 0.2804,-2.86906 0.6849,-4.56502 1.4992,-6.28851 l 0.771,-1.63194 1.3327,-1.19838 1.3322,-1.19786 1.509,-0.56844 1.5084,-0.56844 2.5477,-0.14417 c 0.7006,-0.0396 1.4155,-0.0563 2.003,-0.0506 z m -171.1669,0.24547 h 2.0149 2.0149 v 11.24479 11.24479 h -2.5466 -2.5472 l 0.1122,-8.56279 0.1126,-8.56226 -2.0329,1.68155 -2.0325,1.68207 -1.2211,-1.42989 -1.2211,-1.42937 3.6732,-2.93419 z m 154.5953,0 -0.075,7.01145 -0.075,7.01198 1.3891,-5.2e-4 h 1.389 v 1.98438 1.98437 h -1.389 l -1.3891,-5.1e-4 0.049,2.24947 0.05,2.24844 h -2.3642 -2.3642 v -2.24896 -2.24895 h -4.8948 -4.8948 v -1.65468 -1.65417 l 4.961,-7.33443 4.9609,-7.33392 2.3239,-0.007 z m 44.5647,1.85208 c 0.073,0 0.1323,0.0595 0.1323,0.13229 0,0.0728 -0.059,0.13229 -0.1323,0.13229 -0.072,0 -0.1323,-0.0595 -0.1323,-0.13229 0,-0.0728 0.059,-0.13229 0.1323,-0.13229 z m -181.1011,1.49448 c -0.4326,-0.0124 -0.8862,0.0497 -1.3255,0.19172 l -0.9224,0.29817 -0.3638,0.75861 -0.3638,0.75861 0.2356,0.82166 0.2356,0.82114 1.1395,0.86868 1.139,0.8692 0.7989,-0.46457 c 0.4393,-0.25554 1.0244,-0.7485 1.3002,-1.09554 l 0.5017,-0.63097 v -1.01235 -1.01234 l -0.5503,-0.51263 c -0.4411,-0.41095 -1.1037,-0.63868 -1.8247,-0.65939 z m 131.7563,2.37298 -0.8759,1.43971 c -0.4817,0.7918 -1.6724,2.65293 -2.6459,4.13566 -0.9718,1.48019 -1.7674,2.72836 -1.7704,2.77761 0,0.0455 1.1929,0.0449 2.6458,-10e-4 l 2.6464,-0.0837 v -4.13411 z m 17.1643,5.92212 c -1.2256,0 -2.4084,0.5455 -2.9931,1.38028 l -0.4129,0.58963 v 1.29398 1.29449 l 0.5705,1.01493 0.5705,1.01544 0.8186,0.41651 0.8185,0.41703 0.9261,-0.13023 0.926,-0.1297 0.7132,-0.79169 0.7136,-0.79116 0.1762,-0.93948 c 0.097,-0.51673 0.097,-1.46952 -5e-4,-2.11718 l -0.1762,-1.17719 -0.8,-0.67283 -0.7994,-0.67283 z m -149.381,1.06144 -1.0992,0.73845 c -0.6046,0.40606 -1.2963,1.0192 -1.5369,1.36271 l -0.4377,0.62477 v 1.13481 1.13482 l 0.3747,0.45165 c 0.2061,0.24833 0.7323,0.60708 1.1689,0.79737 2.5376,1.10592 5.1594,-0.1125 5.1594,-2.39779 v -0.94723 l -0.8599,-0.89038 c -0.4729,-0.48955 -1.2898,-1.14173 -1.8149,-1.44953 z m 121.2727,0.31522 v 0 h 5e-4 5e-4 c 0.027,2.4e-4 0.04,0.0196 0.04,0.0419 0,0.0221 -0.027,0.0413 -0.041,0.0413 -0.027,0 -0.041,-0.0189 -0.041,-0.0413 0,-0.0207 0.024,-0.0396 0.038,-0.0419 z m 0.038,0.12558 v 3.01997 c 0,1.66112 3e-4,3.01997 -0.027,3.01997 -0.027,0 -0.091,-0.14467 -0.1597,-0.32195 l 0.01,-5.1e-4 c -0.072,-0.17745 -0.1932,-0.34644 -0.2677,-0.37569 l -0.138,-0.0532 0.047,-0.12144 c 0.028,-0.0668 0,-0.14734 -0.047,-0.1788 l -0.091,-0.0574 0.058,0.0961 0.058,0.0961 h -0.091 c -0.049,0 -0.1824,-0.10309 -0.2936,-0.22893 l -0.201,-0.22892 0.047,-0.29146 0.044,-0.29197 -0.088,0.12506 -0.088,0.12505 0.027,-1.06557 0.028,-1.06608 0.094,0.22634 0.094,0.22634 0.036,-0.30024 c 0.027,-0.16503 0.027,-0.28535 -0.027,-0.26768 -0.03,0.0166 -0.052,-0.0223 -0.052,-0.0847 0,-0.0643 0.041,-0.10908 0.091,-0.10025 0.049,0.008 0.08,-0.0334 0.066,-0.0941 l -0.028,-0.11059 0.083,0.0512 0.083,0.0512 0.1075,-0.17002 c 0.058,-0.0936 0.1356,-0.16949 0.1742,-0.16949 h 0.069 l -0.063,0.10387 -0.063,0.10438 0.1437,-0.11782 0.1436,-0.11782 -0.097,-0.0594 -0.097,-0.0594 0.091,-0.0568 c 0.05,-0.0315 0.094,-0.17677 0.099,-0.32298 0,-0.14627 0.058,-0.41564 0.1189,-0.59893 z m -0.4491,5.2064 c -0.024,0.002 -0.036,0.0209 -0.036,0.0419 0,0.0221 0.027,0.0413 0.041,0.0413 0.027,0 0.041,-0.019 0.041,-0.0413 0,-0.0221 -0.027,-0.0419 -0.041,-0.0419 z m -100.8589,29.05921 0.9756,0.1018 0.9762,0.10232 17.6211,-0.005 c 9.6918,-0.005 17.8096,-0.0302 18.0398,-0.0589 l 0.4185,-0.0517 0.5395,0.13591 c 0.2966,0.0748 0.8342,0.23265 1.1938,0.35037 l 0.6542,0.21394 0.1793,0.38602 0.1793,0.38602 -0.049,0.87489 c -0.027,0.48112 -0.055,9.32925 -0.066,19.66236 -0.027,18.75073 -0.027,19.78165 -0.2041,19.97088 l -0.097,0.10025 -1.0986,0.17053 -1.0987,0.17002 -0.5674,-0.0191 c -0.3124,-0.0111 -1.8418,-0.0302 -3.3977,-0.0429 l 0.016,-0.002 -2.8293,-0.0217 -0.2237,-0.21445 -0.2233,-0.2155 -0.062,-0.67902 c -0.033,-0.37366 -0.066,-2.40401 -0.072,-4.51187 l -0.027,-3.83233 -0.1907,-0.41703 c -0.2428,-0.53566 -0.6037,-0.90471 -1.0867,-1.11207 l -0.385,-0.16537 -1.0418,-0.0615 c -1.3824,-0.0822 -9.9093,-0.0938 -11.3068,-0.014 l -1.1012,0.0615 -0.5933,-0.21962 -0.5937,-0.22015 -0.072,-0.17466 c -0.038,-0.0963 -0.152,-0.57676 -0.2486,-1.06712 l -0.1736,-0.89142 0.044,-3.14916 c 0.027,-1.73207 0.069,-3.29417 0.099,-3.47162 l 0.055,-0.32247 0.6269,-0.2899 0.6268,-0.28939 6.798,-0.0139 6.7991,-0.014 0.4636,-0.22738 c 0.5147,-0.25279 0.7261,-0.45119 0.9916,-0.92966 l 0.1793,-0.32349 0.074,-1.09244 c 0.041,-0.60089 0.077,-2.18699 0.077,-3.52434 v -2.43137 l -0.1214,-0.57464 c -0.066,-0.31599 -0.2012,-0.78886 -0.2987,-1.05059 l -0.1767,-0.47542 -0.3468,-0.35553 c -0.4339,-0.4445 -0.641,-0.53278 -1.4035,-0.59738 -0.3353,-0.0284 -0.6614,-0.0682 -0.724,-0.0884 -0.063,-0.0221 -5.8736,-0.037 -12.9134,-0.0367 l -12.7998,5.2e-4 -1.0107,0.0894 -1.0108,0.0889 -0.6015,-0.35915 c -0.3307,-0.19759 -0.7511,-0.48679 -0.9338,-0.64285 l -0.3323,-0.28371 0.049,-0.34158 c 0.028,-0.18766 0.077,-0.54691 0.11,-0.79892 0.083,-0.59419 0.083,-3.90527 0,-4.49946 -0.033,-0.25196 -0.083,-0.60787 -0.1074,-0.79117 l -0.047,-0.33331 0.401,-0.40566 c 0.2208,-0.22298 0.6362,-0.57384 0.924,-0.7798 z m 94.2567,0.0181 0.3504,0.17725 c 0.5042,0.25527 1.3883,0.84268 1.7084,1.13482 l 0.276,0.25063 -0.041,0.1974 c -0.099,0.45419 -0.1705,1.7882 -0.1705,3.11299 v 1.41645 l 0.1189,0.99271 0.1157,0.9927 -0.2429,0.19379 c -0.3014,0.24065 -1.0997,0.67652 -1.6831,0.91932 l -0.4408,0.18293 -0.9751,-0.0806 -0.9762,-0.0806 -12.7056,-0.002 -12.7052,-0.002 -0.9142,0.13126 -0.9152,0.13126 -0.1669,0.11937 c -0.3773,0.26687 -0.4696,0.36963 -0.7472,0.83044 l -0.2894,0.48111 -0.1835,0.78548 -0.1819,0.786 0.047,3.22409 0.047,3.22461 0.083,0.32091 c 0.047,0.17635 0.1874,0.49395 0.3199,0.7059 l 0.2372,0.38551 0.3829,0.23616 0.3824,0.23667 0.8232,0.0811 0.8232,0.0806 6.1237,-0.0109 6.1236,-0.0114 0.5834,0.20671 c 0.3206,0.11343 0.681,0.2517 0.8005,0.30747 l 0.2181,0.10129 0.1018,1.09605 c 0.055,0.60274 0.091,1.48982 0.077,1.97094 -0.027,0.48116 -0.027,1.56817 0,2.41588 l 0.027,1.5415 -0.246,0.94878 -0.2455,0.94827 -0.1106,0.0729 c -0.061,0.04 -0.4197,0.16801 -0.7973,0.28474 l -0.6858,0.21239 -1.0635,-0.0672 c -0.5851,-0.037 -3.2385,-0.065 -5.8963,-0.0631 l -4.8322,0.005 -0.8832,0.092 -0.8831,0.092 -0.3251,0.16691 c -0.4333,0.22271 -0.7336,0.55235 -0.9632,1.05679 l -0.1907,0.41651 -0.027,3.87418 c 0,2.13079 -0.039,4.16502 -0.074,4.52066 l -0.063,0.64698 -0.2455,0.20723 -0.246,0.20774 h -2.3058 c -1.2681,1.6e-4 -2.8304,0.0196 -3.4721,0.0418 l -1.1663,0.0419 -0.7183,-0.15606 c -0.3894,-0.0861 -0.8674,-0.20074 -1.062,-0.25373 l -0.354,-0.0966 v -0.18397 c 0,-0.10155 -0.027,-0.2782 -0.038,-0.39274 -0.027,-0.11452 -0.033,-8.5689 -0.036,-18.78748 v -18.57923 l -0.072,-1.23661 -0.074,-1.2361 0.1354,-0.32195 0.1348,-0.32246 0.8336,-0.32763 c 0.4581,-0.18021 0.9794,-0.37438 1.1581,-0.43098 l 0.3245,-0.10284 0.5085,0.0548 c 0.2796,0.0301 8.4755,0.0572 18.2128,0.0599 l 17.7044,0.005 0.8159,-0.0899 z m -111.8205,17.39532 c 0.072,0 0.1323,0.0595 0.1323,0.13229 0,0.0728 -0.059,0.1323 -0.1323,0.1323 -0.073,0 -0.1323,-0.0595 -0.1323,-0.1323 0,-0.0728 0.059,-0.13229 0.1323,-0.13229 z m 121.9729,7.14375 c 0.072,0 0.1323,0.0595 0.1323,0.13229 0,0.0728 -0.059,0.1323 -0.1323,0.1323 -0.073,0 -0.1323,-0.0595 -0.1323,-0.1323 0,-0.0728 0.059,-0.13229 0.1323,-0.13229 z m -125.1479,3.43959 c 0.072,0 0.1323,0.0595 0.1323,0.13229 0,0.0728 -0.059,0.13229 -0.1323,0.13229 -0.072,0 -0.1323,-0.0595 -0.1323,-0.13229 0,-0.0728 0.059,-0.13229 0.1323,-0.13229 z m 9.7896,12.96458 c 0.072,0 0.1323,0.0595 0.1323,0.13229 0,0.0728 -0.059,0.13229 -0.1323,0.13229 -0.072,0 -0.1323,-0.0595 -0.1323,-0.13229 0,-0.0728 0.059,-0.13229 0.1323,-0.13229 z" /><path
         id="path105"
         d="m -1751.5827,-61.687746 c -0.3584,-6.8e-4 -0.3594,0.0981 -0.3162,0.79975 0.027,0.44922 0.1468,1.55183 0.2645,2.45026 0.14,1.06872 0.2098,4.58299 0.2029,10.1641 -0.01,7.57418 -0.056,8.93754 -0.4151,12.1606 -0.6619,5.94628 -0.7151,6.32997 -1.4631,10.61785 -0.5753,3.29738 -0.6353,3.44853 -1.3742,3.44853 -0.2348,0 -0.9787,0.0809 -1.6525,0.17973 -2.3483,0.34431 -6.2587,0.7151 -6.4288,0.60973 -0.01,-0.004 -0.01,-0.007 -0.016,-0.011 -0.04,0.005 -0.08,0.009 -0.1206,0.0124 -0.1803,0.0213 -0.3608,0.0416 -0.542,0.0556 -0.2749,0.0262 -0.5499,0.0473 -0.8259,0.0528 -0.3011,0.006 -0.6021,0.0119 -0.9027,0.0255 -0.2631,0.0123 -0.5263,0.032 -0.7897,0.0362 -0.2538,0.009 -0.5074,0.0237 -0.7614,0.0237 -0.1733,6e-5 -0.3472,7e-5 -0.5207,3.5e-4 -0.1529,0 -0.3054,6.9e-4 -0.4582,0.001 -0.1441,6.9e-4 -0.288,10e-4 -0.4322,0.004 -0.1164,0.002 -0.2329,0.006 -0.3493,0.0113 -0.1044,0.006 -0.2092,0.0148 -0.313,0.0291 -0.1128,0.0151 -0.2253,0.0298 -0.3386,0.0404 -0.044,0.005 -0.1037,0.0121 -0.1666,0.0149 v 0 l -0.025,0.0932 -1.2672,0.11344 c -1.9323,0.17319 -8.5801,0.1639 -13.07,-0.0177 -2.555,-0.10355 -4.2492,-0.099 -4.6528,0.0128 -0.8271,0.22893 -1.8422,1.41291 -1.9739,2.30209 -0.087,0.59144 -0.3573,2.24825 -1.03,6.32242 -0.2414,1.46214 -0.2356,7.0563602 0.01,8.5795002 0.9335,5.80798 2.4345,9.24173 5.2714,12.05781 0.6895,0.68442 1.2289,1.31295 1.1988,1.39671 -0.01,0.014 -0.013,0.031 -0.024,0.0507 0.094,0.0508 0.1951,0.0918 0.2853,0.1506598 0.088,0.0529 0.1775,0.10396 0.2624,0.16165 0.08,0.0479 0.1591,0.0996 0.2411,0.14463 0.095,0.054 0.1913,0.10726 0.2879,0.15953 0.086,0.0506 0.1662,0.0982 0.2563,0.14747 0.083,0.0514 0.1653,0.10704 0.2486,0.15952 0.055,0.0381 0.1116,0.0719 0.1711,0.10174 0.096,0.0469 0.192,0.0918 0.2932,0.12655 0.1405,0.0573 0.2834,0.11048 0.4246,0.16591 0.17,0.0637 0.3411,0.12494 0.5131,0.18256 0.1613,0.0523 0.3222,0.10672 0.4824,0.16201 0.091,0.0304 0.1829,0.0618 0.2776,0.0837 0.1073,0.0246 0.2142,0.0524 0.3214,0.0787 0.1194,0.0265 0.2409,0.043 0.3607,0.068 0.1402,0.0215 0.2811,0.0384 0.4206,0.0652 0.1189,0.0229 0.238,0.0456 0.3549,0.0762 0.1332,0.0287 0.2643,0.0643 0.3916,0.11308 0.1196,0.0434 0.2368,0.0925 0.3515,0.14783 l 0.1364,-0.17016 1.5608,-0.0113 c 1.5688,-0.0115 2.9961,-0.13718 6.1769,-0.54486 2.6585,-0.34072 2.4452,-0.39737 2.4371,0.64731 -0.01,0.80462 -0.1189,1.06184 -0.9891,2.26877 -7.851,10.888194 -17.7353,19.492303 -29.8716,26.003649 -0.4353,0.233544 -0.8502,0.46556 -1.1386,0.634904 0.015,0.156193 0.024,0.312935 0.029,0.470411 0.045,0.612453 0.095,1.224808 0.1735,1.83416 0.1375,1.075927 0.2856,2.150949 0.3123,3.23725 0.048,0.906008 0.076,1.812229 0.075,2.718627 0.2373,1.450465 0.4617,2.830616 0.5527,3.397834 0.2649,1.65323 0.5247,3.124597 0.7209,4.083789 0.2524,1.233905 1.2782,6.361869 1.4527,7.260062 0.3473,1.788501 1.0576,5.018795 1.8347,8.349079 0.093,0.399302 0.2354,1.01187 0.3161,1.36126 0.081,0.349387 0.2455,0.991872 0.3664,1.427908 l 0.2199,0.793005 0.9377,-0.09678 c 0.5158,-0.05303 1.9153,-0.231959 3.1102,-0.397743 4.6644,-0.647157 9.9892,-1.324003 13.4875,-1.714696 0.9459,-0.105641 1.9235,-0.233455 2.1724,-0.283944 0.249,-0.05055 1.2267,-0.176142 2.1726,-0.278993 2.6702,-0.290318 4.5862,-0.505808 7.2417,-0.814627 1.3442,-0.156337 3.1774,-0.357002 4.0737,-0.445955 6.9186,-0.686745 8.2369,-0.859354 8.2369,-1.078734 0,-0.07023 -0.3058,-0.273312 -0.6791,-0.451271 -1.1728,-0.558856 -2.8246,-1.841418 -4.0112,-3.113175 -2.6478,-2.837696 -4.0677,-6.094209 -4.6233,-10.606146 -0.3399,-2.763305 -0.4697,-11.334322 -0.2762,-18.261117 0.1141,-4.081841 0.2131,-12.778826 0.2206,-19.326734 l 0.014,-11.9053728 -0.4367,-0.79265 c -0.2401,-0.43604 -0.7214,-0.98733 -1.0699,-1.22513 -0.5805,-0.3961 -0.7629,-0.42444 -2.1725,-0.33536 -0.8464,0.0535 -2.3944,0.2273 -3.4399,0.38605 -4.975,0.75536 -8.144,0.96824 -9.3765,0.63029 -1.7036,-0.46704 -3.4097,-1.87543 -4.4713,-3.69171 -0.5921,-1.01296 -1.2616,-2.94432997 -1.6692,-4.81653 -0.3877,-1.78042 -0.4428,-8.4123702 -0.084,-10.1768502 0.1318,-0.64887 0.2707,-1.34312 0.309,-1.54277 0.068,-0.35614 0.213,-0.363 7.8166,-0.363 7.5613,0 11.0816,-0.15183 16.8903,-0.72814 5.5212,-0.54781 7.8763,-0.83834 9.414,-1.16097 0.4481,-0.094 1.3442,-0.2647 1.9914,-0.37931 1.0989,-0.19459 2.7361,-0.52969 4.4354,-0.90786 2.0814,-0.46312 5.0644,-1.1528 6.4271,-1.48604 0.8464,-0.20699 2.8437,-0.14792 3.1923,-0.22408 0.7065,-0.1544 5.3966,-1.92345 6.9459,-2.35311 0.5477,-0.15188 1.1994,-0.32855 1.4483,-0.39242 0.249,-0.0639 0.8192,-0.22108 1.2673,-0.34918 0.448,-0.1281 1.1405,-0.32181 1.5387,-0.43071 1.0723,-0.29315 4.5046,-1.30889 8.0564,-2.38398 1.4466,-0.4379 5.9522,-1.93332 7.6002,-2.52259 0.5457,-0.19512 1.0549,-0.31582 1.1314,-0.26835 0.077,0.0475 0.1389,1.53113 0.1387,3.29716 0,6.67787 -1.3571,11.0331 -4.6117,14.81258 -2.2038,2.5594802 -5.217,4.2256402 -10.0519,5.5577802 -0.3484,0.096 -1.2447,0.34547 -1.9915,0.55443 -0.7468,0.20897 -1.6429,0.44788 -1.9914,0.53103 -0.3486,0.0832 -1.4076,0.36859 -2.3536,0.6342 -0.9459,0.26561 -1.9642,0.5486 -2.2629,0.62888 -0.2987,0.0803 -1.0115,0.27733 -1.5841,0.4378 -1.9427,0.5445 -3.1176,0.85714003 -5.8955,1.56935003 -1.5249,0.39097 -3.0131,0.88249 -3.3068,1.0922 -1.1191,0.79883997 -1.1518,0.98411997 -1.269,7.15902997 -0.4813,25.3389858 -0.5568,33.8461658 -0.3575,40.3841058 0.2764,9.068113 0.5312,11.602511 1.6494,16.425902 0.5624,2.425305 0.6248,2.630539 1.1482,3.763672 0.523,1.132275 0.904,1.35632 1.9675,1.15778 0.5849,-0.10921 5.7068,-0.532541 10.1823,-0.841566 1.2944,-0.08938 4.1051,-0.290133 6.246,-0.446312 2.1407,-0.156172 5.2365,-0.362587 6.8795,-0.458715 1.6428,-0.09613 4.3313,-0.254311 5.9743,-0.351309 1.6429,-0.097 3.3767,-0.179867 3.8527,-0.183982 1.0193,-0.0092 1.1898,-0.253941 0.7872,-1.129423 -0.357,-0.776238 -1.6185,-3.991715 -1.9812,-5.049431 -0.154,-0.449212 -0.6177,-1.756024 -1.03,-2.904022 -0.6436,-1.791814 -4.2757,-12.688743 -5.7169,-17.151907 -0.5585,-1.729395 -1.6257,-4.827368 -1.9696,-5.717296 -0.1351,-0.349389 -0.4281,-1.125312 -0.651,-1.724265 -0.4814,-1.294079 -0.7197,-1.879908 -1.2474,-3.062843 -0.2171,-0.486628 -0.5439,-1.262545 -0.7263,-1.724265 -0.3701,-0.937001 -2.7808,-5.753784 -3.6303,-7.253683 -0.634,-1.119296 -2.2689,-3.720207 -2.7564,-4.385109 -1.0554,-1.439688 -2.8717,-3.692702 -3.7886,-4.699902 -0.5812,-0.63835 -1.0565,-1.224 -1.0565,-1.30135 0,-0.24816 4.4996,-2.9910698 6.6493,-4.0532898 3.69,-1.82342 5.8215,-2.37291 9.1915,-2.37016 3.0432,0.003 4.6218,0.55878 6.5384,2.3028 1.5601,1.41964 3.7391,4.9120598 4.9562,7.9438798 0.414,1.03082 0.4674,1.166701 0.9974,2.541027 0.1731,0.449221 0.3801,0.980108 0.4602,1.179759 0.081,0.199658 0.4819,1.220597 0.8929,2.268769 0.4109,1.048165 0.8148,2.069125 0.8978,2.268775 0.082,0.199651 0.3717,0.934731 0.6421,1.633516 0.2702,0.698776 0.555,1.433863 0.633,1.633514 0.078,0.19965 0.2848,0.730538 0.4596,1.17976 0.6121,1.573092 0.7918,1.913967 1.2076,2.293937 0.6677,0.61021 1.148,0.791584 2.0999,0.791584 1.0364,0 1.9164,-0.501081 2.431,-1.3843 0.3372,-0.578887 1.9776,-6.815685 2.8582,-10.867055 0.086,-0.399301 0.2855,-1.256905 0.4412,-1.905769 0.1558,-0.648872 0.3628,-1.547297 0.4602,-1.996517 0.097,-0.44921 0.3087,-1.38848 0.4691,-2.08727 0.5936,-2.58857 1.4971,-6.7202598 1.7063,-7.8045598 0.077,-0.39931 0.2799,-1.37942 0.4505,-2.17802 0.3397,-1.59024 0.451,-2.14521997 0.8931,-4.4468 0.6909,-3.59551 1.5225,-8.3482102 1.7306,-9.8918402 0.849,-6.29748 0.9419,-7.46649 0.8278,-10.43634 -0.063,-1.64712 -0.1319,-3.44398 -0.1525,-3.99303 -0.021,-0.54904 0.044,-1.02612 0.1437,-1.05994 0.099,-0.0338 1.2808,-0.0121 2.6251,0.0482 8.7052,0.39095 13.9041,2.61806 15.7765,6.7581 0.4604,1.01773 0.5601,1.50296 0.6414,3.12877 0.1192,2.376 -0.1534,4.79145 -0.9338,8.2767602 -0.1565,0.69878 -0.3531,1.59722 -0.4367,1.99652 -0.1915,0.91334 -1.4299,5.65368 -1.636,6.26180003 -0.084,0.24956 -0.2414,0.78046 -0.3487,1.17977 -0.1685,0.62742997 -0.7243,2.52536997 -1.2761,4.35602997 -0.09,0.29948 -0.3042,1.03456 -0.4756,1.63352 -0.1713,0.59895 -0.4937,1.66074 -0.7163,2.35952 -0.2226,0.69878 -0.6271,2.0055898 -0.8986,2.9040198 -0.7535,2.49348 -0.7941,2.62591 -1.2517,4.08379 -0.2349,0.748698 -0.654,2.096346 -0.9313,2.994775 -0.2775,0.898433 -0.7672,2.450274 -1.0888,3.448534 -0.3215,0.99826 -1.0151,3.162656 -1.5409,4.809786 -0.526,1.647125 -1.4212,4.424104 -1.9896,6.171061 -0.5684,1.74695 -1.4641,4.523927 -1.9908,6.171051 -0.5267,1.647132 -1.1984,3.72986 -1.4921,4.628296 -0.294,0.898427 -0.6,1.878535 -0.6801,2.178018 -0.08,0.299477 -0.3628,1.238747 -0.6283,2.087263 -0.2654,0.848522 -0.6019,1.951149 -0.7482,2.450275 -0.1463,0.499127 -0.3392,1.152533 -0.4292,1.452015 -0.09,0.299477 -0.244,0.830364 -0.3424,1.17976 -0.098,0.349389 -0.312,1.084468 -0.4751,1.633514 -1.7678,5.948387 -3.0101,10.922544 -2.8089,11.248843 0.078,0.127581 1.7177,0.131147 5.1733,0.01098 2.782,-0.0966 10.4962,-0.232503 17.1426,-0.302029 l 12.0846,-0.126202 V 8.0808342 -49.760756 l -6.3817,-0.11946 c -12.999,-0.24326 -23.7812,-0.79913 -35.8008,-1.84586 -0.6472,-0.0564 -2.3581,-0.2244 -3.8018,-0.37364 -1.4439,-0.14924 -3.3584,-0.34636 -4.2546,-0.43781 -1.9498,-0.19894 -5.9268,-0.6773 -10.4098,-1.25242 -0.7467,-0.0958 -1.8873,-0.25701 -2.5346,-0.35805 -0.6471,-0.10103 -1.7877,-0.27019 -2.5345,-0.37611 -0.7468,-0.10592 -2.3762,-0.36238 -3.6208,-0.56968 -1.2446,-0.20729 -2.7517,-0.44711 -3.3492,-0.53316 -0.5974,-0.086 -1.7788,-0.28872 -2.6251,-0.45021 -0.8464,-0.16148 -1.9868,-0.36347 -2.5345,-0.44879 -0.8802,-0.13712 -2.4305,-0.43357 -5.7933,-1.1085 -0.9149,-0.18364 -2.4276,-0.49916 -4.2544,-0.88695 -0.3983,-0.0846 -1.1315,-0.24013 -1.6294,-0.34563 -1.4408,-0.30532 -3.3852,-0.7497 -4.0735,-0.93126 -3.563,-0.93992 -7.4366,-1.86702 -7.8752,-1.88486 -0.067,-0.003 -0.1252,-0.005 -0.1764,-0.005 z"
         style="fill:#e30514;fill-opacity:1;stroke-width:0.685117"
         sodipodi:nodetypes="scscsssscccccccsssscccsccssscscscccccccccccccsccsccccssccsccccccssscsccssssssssscsccssssssssssssssssssssssscssssssssscsssssssscssssssssssssssssscscsssssscsscssssscssscsscssssssssssscsssssccsscccssssssssssssssssss" /><g
         id="g125"
         style="fill:#e30514;fill-opacity:1"
         transform="matrix(0.45609081,0,0,0.43080491,-436.92258,-24.511129)"><path
           style="fill:#e30514;fill-opacity:1"
           d="m -2646.3837,499.90459 c -0.097,-0.097 -0.1764,-23.3142 -0.1764,-51.59374 v -51.41736 h 13.4655 c 12.0346,0 13.4825,0.0445 13.626,0.41851 0.088,0.23019 0.1606,6.06347 0.1606,12.96286 v 12.54434 l 19.2485,0.0679 19.2484,0.0679 v 13.22916 13.22917 l -19.2484,0.0679 -19.2485,0.0679 v 11.90349 11.9035 l 33.1391,0.0672 33.1391,0.0672 0.069,13.13152 0.068,13.13152 -0.5977,0.16018 c -0.8208,0.21995 -92.6732,0.21106 -92.8933,-0.009 z"
           id="path125" /><path
           style="fill:#e30514;fill-opacity:1"
           d="m -2774.8168,499.90559 c -0.2583,-0.10422 -0.3308,-2.99031 -0.3308,-13.17997 0,-11.65264 0.045,-13.06367 0.4186,-13.20711 0.2301,-0.0883 17.3168,-0.1606 37.9704,-0.1606 h 37.5519 l -0.069,-11.84011 -0.069,-11.8401 -19.7801,-0.0678 -19.78,-0.0678 0.069,-13.29363 0.069,-13.29362 19.775,-0.0678 19.7751,-0.0678 0.069,-12.89676 0.069,-12.89675 13.411,-0.0686 13.411,-0.0686 0.1847,1.23134 c 0.2448,1.63267 0,101.24281 -0.2534,101.64718 -0.1486,0.24038 -12.123,0.30892 -51.1768,0.29291 -28.0405,-0.0115 -51.1316,-0.0809 -51.3135,-0.15434 z"
           id="path124" /><path
           style="fill:#e30514;fill-opacity:1"
           d="m -2646.4235,623.57509 c -0.061,-0.1819 -0.1312,-0.50933 -0.1553,-0.72761 -0.024,-0.21828 -0.03,-22.63212 -0.013,-49.80854 l 0.031,-49.41167 46.7652,0.0669 46.7651,0.0669 v 13.22917 13.22916 l -33.1419,0.0672 -33.1418,0.0672 0.069,11.5745 0.069,11.57449 18.3224,0.068 18.3224,0.068 v 13.35964 13.35965 h -18.3885 -18.3886 v 11.45646 c 0,8.5578 -0.08,11.53679 -0.3175,11.77396 -0.4703,0.47033 -26.6394,0.45741 -26.798,-0.0132 z"
           id="path123" /><path
           style="fill:#e30514;fill-opacity:1"
           d="m -2699.088,623.57509 c -0.068,-0.1819 -0.1536,-5.45042 -0.1901,-11.70781 l -0.066,-11.37709 -19.7115,-0.13229 -19.7114,-0.13229 v -13.22917 -13.22916 l 19.7114,-0.13229 19.7115,-0.1323 0.069,-11.57552 0.069,-11.57552 h -37.8331 -37.8332 l -0.1445,-0.59531 c -0.08,-0.32742 -0.1115,-6.31031 -0.071,-13.29531 l 0.073,-12.7 51.3643,-0.0668 51.3643,-0.0668 0.1597,0.59598 c 0.2946,1.0992 0.1894,98.61693 -0.1069,99.17066 -0.2652,0.4955 -0.6946,0.51178 -13.5021,0.51178 -10.3401,0 -13.2552,-0.0722 -13.352,-0.33073 z"
           id="path122" /></g></g></g><style
     id="style1">@media(prefers-color-scheme:dark){.lines{fill:#d7d7d7}}</style></svg>
