<?xml version="1.0" encoding="UTF-8" standalone="no"?>
<!-- Created with Inkscape (http://www.inkscape.org/) -->

<svg
   width="111.95331mm"
   height="116.84786mm"
   viewBox="0 0 111.95331 116.84786"
   version="1.1"
   id="svg1"
   xml:space="preserve"
   inkscape:version="1.4.4 (dcaf3e7, 2026-05-05)"
   sodipodi:docname="logos teams.svg"
   inkscape:export-batch-name="TV Forst"
   inkscape:export-batch-path="Desktop/Frauenliga"
   xmlns:inkscape="http://www.inkscape.org/namespaces/inkscape"
   xmlns:sodipodi="http://sodipodi.sourceforge.net/DTD/sodipodi-0.dtd"
   xmlns="http://www.w3.org/2000/svg"
   xmlns:svg="http://www.w3.org/2000/svg"><sodipodi:namedview
     id="namedview1"
     pagecolor="#ffffff"
     bordercolor="#000000"
     borderopacity="0.25"
     inkscape:showpageshadow="2"
     inkscape:pageopacity="0.0"
     inkscape:pagecheckerboard="0"
     inkscape:deskcolor="#d1d1d1"
     inkscape:document-units="mm"
     inkscape:zoom="0.31540704"
     inkscape:cx="-8173.5652"
     inkscape:cy="280.58981"
     inkscape:window-width="1920"
     inkscape:window-height="1050"
     inkscape:window-x="0"
     inkscape:window-y="30"
     inkscape:window-maximized="0"
     inkscape:current-layer="layer1"><inkscape:page
       x="0"
       y="0"
       width="111.95331"
       height="116.84785"
       id="page1"
       margin="0"
       bleed="0" /></sodipodi:namedview><defs
     id="defs1"><style
       id="style1-7">
      .cls-1 {
        fill: #fff;
      }
    </style></defs><g
     inkscape:label="Ebene 1"
     inkscape:groupmode="layer"
     id="layer1"
     transform="translate(2162.1487,101.7315)"><path
       style="fill:#399be0;fill-opacity:1"
       d="m -2106.6516,14.555808 c -0.098,-0.436562 -0.6011,-1.444579 -1.118,-2.240036 -0.517,-0.795457 -0.9399,-1.584551 -0.9399,-1.753541 0,-0.16899 -0.1949,-0.468975 -0.4331,-0.6666326 -0.2381,-0.197658 -0.6582,-0.837315 -0.9335,-1.421459 -0.5614,-1.191283 -1.6336,-3.026467 -2.0287,-3.47219 -0.1431,-0.161393 -0.5152,-0.756705 -0.8269,-1.322916 -0.3118,-0.566211 -0.9745,-1.684319 -1.4726,-2.484683 -0.4982,-0.80036503 -1.1372,-1.94810803 -1.4201,-2.55054 -0.2828,-0.602432 -0.6398,-1.172911 -0.7932,-1.26773 -0.1534,-0.09482 -0.5174,-0.673483 -0.8088,-1.285919 -0.2914,-0.612436 -1.0637,-1.946957 -1.7161,-2.965603 -0.6524,-1.018646 -1.1913,-1.986333 -1.1975,-2.150416 -0.01,-0.164082 -0.2061,-0.460052 -0.4442,-0.657711 -0.2382,-0.197658 -0.6451,-0.8539644 -0.9042,-1.4584574 -0.2591,-0.604493 -0.5966,-1.176658 -0.75,-1.271477 -0.1535,-0.09482 -0.5203,-0.673483 -0.8153,-1.285919 -0.295,-0.612436 -0.8938,-1.649301 -1.3308,-2.304145 -0.437,-0.654844 -1.0359,-1.691709 -1.3309,-2.304145 -0.2949,-0.612436 -0.6618,-1.1911 -0.8152,-1.285919 -0.1534,-0.09482 -0.4974,-0.681947 -0.7643,-1.304728 -0.267,-0.622781 -0.6161,-1.213118 -0.7759,-1.311861 -0.1598,-0.09874 -0.4696,-0.558343 -0.6884,-1.021335 -0.2189,-0.462992 -0.8106,-1.496647 -1.315,-2.297013 -0.5044,-0.80036 -1.1604,-1.95629 -1.4577,-2.56873 -0.2973,-0.61243 -0.668,-1.19227 -0.8238,-1.28853 -0.1557,-0.0963 -0.423,-0.48814 -0.5939,-0.87086 -0.3098,-0.69365 -1.3823,-2.52715 -3.0065,-5.13977 -0.4708,-0.75729 -1.0993,-1.87798 -1.3966,-2.49042 -0.2974,-0.61244 -0.6662,-1.1911 -0.8196,-1.28592 -0.1534,-0.0948 -0.5106,-0.6653 -0.7937,-1.26773 -0.5718,-1.21664 -1.6421,-3.05318 -2.043,-3.50544 -0.143,-0.16139 -0.5389,-0.79845 -0.8798,-1.41568 -0.3408,-0.61723 -0.9173,-1.63369 -1.2811,-2.2588 -0.3639,-0.62511 -0.9867,-1.7358 -1.3841,-2.4682 -0.3974,-0.7324 -0.8405,-1.40453 -0.9846,-1.49361 -0.1442,-0.0891 -0.5035,-0.66306 -0.7984,-1.2755 -0.295,-0.61243 -0.8924,-1.6493 -1.3277,-2.30414 -0.4353,-0.65485 -1.0209,-1.68353 -1.3014,-2.28596 -0.2805,-0.60243 -0.6356,-1.17291 -0.789,-1.26773 -0.1534,-0.0948 -0.507,-0.68788 -0.7857,-1.31792 -0.2787,-0.63004 -0.641,-1.22856 -0.8053,-1.33005 -0.1642,-0.10149 -0.4776,-0.56334 -0.6964,-1.02633 -0.2189,-0.46299 -0.8092,-1.49665 -1.3119,-2.29701 -0.5027,-0.80037 -1.1455,-1.94811 -1.4283,-2.55054 -0.2829,-0.60243 -0.6398,-1.17291 -0.7932,-1.26773 -0.1535,-0.0948 -0.5203,-0.67348 -0.8153,-1.28592 -0.295,-0.61244 -0.8938,-1.6493 -1.3308,-2.30415 -0.437,-0.65484 -1.0359,-1.6917 -1.3309,-2.30414 -0.2949,-0.61244 -0.6618,-1.1911 -0.8152,-1.28592 -0.1534,-0.0948 -0.491,-0.66698 -0.7501,-1.27148 -0.2591,-0.60449 -0.666,-1.2608 -0.9041,-1.45845 -0.4493,-0.37282 -0.5492,-1.00695 -0.2725,-1.72816 0.1434,-0.37355 1.5196,-0.41851 12.8107,-0.41851 15.0099,0 14.5928,0.0903 12.8268,-2.77813 -0.3584,-0.58208 -0.8459,-1.47305 -1.0833,-1.97993 -0.2375,-0.50688 -0.6675,-1.22125 -0.9556,-1.5875 -0.2882,-0.36624 -0.6939,-1.02309 -0.9018,-1.45965 -0.2078,-0.43656 -0.7625,-1.41336 -1.2327,-2.17065 -1.5442,-2.48727 -3.1631,-5.23423 -4.1259,-7.0009 -0.3438,-0.63096 -0.8271,-1.38533 -1.074,-1.67637 -2.294,-2.704702 -5.299,-2.513542 39.5138,-2.513542 40.5641,0 41.4269,0.0213 40.5678,0.99892 -0.2205,0.25096 -0.6589,0.932542 -0.9742,1.514622 -0.3153,0.58209 -0.9809,1.71318 -1.4791,2.51354 -0.4981,0.80037 -1.1371,1.94811 -1.42,2.55054 -0.2828,0.60244 -0.6482,1.17811 -0.8119,1.27928 -0.1637,0.10117 -0.4841,0.65007 -0.7121,1.21977 -0.2279,0.56971 -0.4985,1.03583 -0.6013,1.03583 -0.1028,0 -0.3841,0.41372 -0.6253,0.91937 -0.8571,1.79739 0.1685,1.72646 -24.9661,1.72646 -27.0174,0 -24.4984,-0.65519 -20.5987,5.35771 1.3943,2.1497 -0.1958,1.99417 20.6944,2.02425 20.5079,0.0295 19.7208,-0.0476 18.4166,1.80439 -0.5278,0.74955 -1.2642,1.94384 -2.3296,3.77824 -0.3803,0.65484 -1.1001,1.84547 -1.5996,2.64583 -0.4995,0.80037 -1.0942,1.8124 -1.3216,2.24896 -1.473,2.82804 -0.5772,2.63164 -12.6711,2.77812 -11.8988,0.14413 -12.4344,0.21279 -11.276,1.44583 0.2959,0.31496 0.543,0.68404 0.5492,0.82019 0.01,0.13614 0.5429,1.08096 1.1926,2.09961 0.6497,1.01865 1.3862,2.2688 1.6366,2.77812 0.2503,0.50933 0.7257,1.2626 1.0564,1.67395 0.3306,0.41135 0.6011,0.86922 0.6011,1.01749 0,0.14827 0.2676,0.64515 0.5948,1.10418 0.3271,0.45903 0.7736,1.15143 0.9922,1.53867 0.9683,1.71558 1.9449,3.37175 2.783,4.71988 0.4976,0.80037 1.0515,1.75287 1.231,2.11667 0.1795,0.3638 0.57,1.01864 0.8679,1.45521 0.5766,0.84516 0.905,1.40868 2.0684,3.54834 1.0102,1.85802 2.1404,1.71589 3.3078,-0.41596 0.2519,-0.46 0.7832,-1.43384 1.1806,-2.16409 0.3974,-0.73025 0.8405,-1.40061 0.9847,-1.4897 0.1441,-0.0891 0.5034,-0.66305 0.7983,-1.27549 0.295,-0.61244 0.8939,-1.6493 1.3309,-2.30415 0.437,-0.65484 1.0359,-1.6917 1.3308,-2.30414 0.295,-0.61244 0.6619,-1.1911 0.8153,-1.28592 0.1534,-0.0948 0.4973,-0.68195 0.7643,-1.30473 0.267,-0.62278 0.6161,-1.21312 0.7759,-1.31186 0.1597,-0.0987 0.4695,-0.55834 0.6884,-1.02133 0.2188,-0.463 0.8065,-1.49665 1.306,-2.29702 0.4995,-0.80036 1.2154,-1.99099 1.591,-2.64583 0.3756,-0.65484 1.0359,-1.72641 1.4673,-2.38125 0.4314,-0.65484 0.977,-1.60633 1.2123,-2.11442 0.2354,-0.50809 0.712,-1.26137 1.0591,-1.67395 0.3472,-0.41258 0.6313,-0.91047 0.6313,-1.10642 0,-0.19595 0.2725,-0.69283 0.6056,-1.10418 0.3331,-0.41135 0.7536,-1.04556 0.9345,-1.40936 0.1809,-0.3638 0.7401,-1.3163 1.2426,-2.11667 0.5025,-0.80036 1.1606,-1.93146 1.4625,-2.51354 1.7965,-3.46379 1.1118,-3.26654 11.4163,-3.2887 10.9371,-0.0235 10.3189,-0.39308 7.4929,4.47932 -0.3798,0.65485 -1.0977,1.84547 -1.5953,2.64584 -0.4976,0.80036 -1.0515,1.75286 -1.231,2.11666 -0.1795,0.36381 -0.57,1.01865 -0.8678,1.45521 -0.2979,0.43657 -0.7204,1.11059 -0.939,1.49783 -0.9759,1.72892 -1.9463,3.37392 -2.7845,4.71988 -0.4984,0.80037 -1.1376,1.94811 -1.4204,2.55054 -0.2829,0.60243 -0.645,1.17612 -0.8048,1.27486 -0.1598,0.0987 -0.4696,0.55835 -0.6884,1.02134 -0.2189,0.46299 -0.8106,1.49665 -1.315,2.29701 -0.5044,0.80037 -1.1604,1.95629 -1.4577,2.56873 -0.2973,0.61244 -0.6661,1.1911 -0.8196,1.28592 -0.1534,0.0948 -0.4973,0.68194 -0.7643,1.30473 -0.2669,0.62278 -0.6161,1.21311 -0.7758,1.31186 -0.1598,0.0987 -0.4696,0.55834 -0.6884,1.02133 -0.2189,0.46299 -0.8084,1.49665 -1.3101,2.29701 -0.5017,0.80037 -1.1218,1.87193 -1.3782,2.38125 -0.2563,0.50933 -0.7365,1.2626 -1.0672,1.67395 -0.3306,0.41135 -0.6011,0.86922 -0.6011,1.01749 0,0.14827 -0.2677,0.64515 -0.5948,1.10418 -0.3271,0.45903 -0.7736,1.15143 -0.9922,1.53867 -0.9856,1.74615 -1.9482,3.37663 -2.7865,4.71988 -0.4994,0.80037 -1.0872,1.83402 -1.306,2.29701 -0.2189,0.46299 -0.505,0.90796 -0.6358,0.98882 -0.1308,0.0808 -0.4952,0.65454 -0.8096,1.27486 -0.3145,0.62032 -0.9774,1.7827 -1.4731,2.58306 -0.8384,1.35358 -1.8292,3.036054 -2.7796,4.719883 -0.2186,0.387242 -0.6411,1.061264 -0.939,1.497826 -0.2978,0.436563 -0.6883,1.091407 -0.8678,1.455209 -0.1795,0.363802 -0.737,1.316302 -1.2389,2.116666 -0.5018,0.800365 -1.0851,1.812396 -1.296,2.248959 -0.2109,0.436562 -0.6895,1.203834 -1.0634,1.705049 -0.3739,0.501214 -0.6798,1.057626 -0.6798,1.23647 0,0.178845 -0.2725,0.661729 -0.6056,1.073076 -0.3331,0.411348 -0.7537,1.045561 -0.9346,1.4093634 -0.1809,0.363802 -0.7378,1.316302 -1.2376,2.116667 -0.4997,0.800364 -1.1184,1.871927 -1.3747,2.38125 -0.2563,0.509323 -0.7366,1.262598 -1.0672,1.673946 -0.3306,0.411347 -0.6011,0.845877 -0.6011,0.965622 0,0.119744 -0.4792,0.973812 -1.0648,1.89792897 -0.5857,0.924116 -1.3034,2.18129503 -1.5951,2.79373103 -0.2916,0.612436 -0.6481,1.186409 -0.7923,1.275495 -0.1441,0.08909 -0.5872,0.764809 -0.9846,1.501605 -0.949,1.759286 -1.4846,2.683935 -2.5741,4.443755 -0.4955,0.8003646 -1.197,2.0022226 -1.5588,2.6707956 -0.3619,0.668573 -0.9543,1.409781 -1.3166,1.647128 -0.3622,0.237347 -0.6999,0.702364 -0.7505,1.033371 -0.081,0.530211 -0.1131,0.507372 -0.2699,-0.19192 z m 2.3958,-35.878218 c 0.3396,-0.639897 0.7664,-1.342042 0.9486,-1.560324 0.3803,-0.455518 0.8882,-1.737661 0.9958,-2.513541 0.096,-0.695233 -0.5197,-2.193013 -1.2871,-3.129153 -0.3372,-0.41135 -0.6131,-0.90823 -0.6131,-1.10418 0,-0.19595 -0.2977,-0.71002 -0.6615,-1.14237 -0.3638,-0.43236 -0.6665,-0.88798 -0.6727,-1.01249 -0.01,-0.12452 -0.5428,-1.05983 -1.1925,-2.07847 -0.6498,-1.01865 -1.3862,-2.26881 -1.6366,-2.77813 -0.2504,-0.50932 -0.7258,-1.2626 -1.0564,-1.67395 -0.3306,-0.41134 -0.6011,-0.86921 -0.6011,-1.01748 0,-0.14828 -0.2677,-0.64516 -0.5948,-1.10418 -0.3271,-0.45903 -0.7736,-1.15143 -0.9922,-1.53867 -0.9684,-1.71558 -1.9449,-3.37176 -2.783,-4.71989 -0.4976,-0.80036 -1.0516,-1.75286 -1.2311,-2.11666 -0.1794,-0.3638 -0.57,-1.01865 -0.8678,-1.45521 -0.2978,-0.43656 -0.7204,-1.11058 -0.9389,-1.49783 -0.9684,-1.71558 -1.945,-3.37175 -2.7831,-4.71988 -0.4976,-0.80036 -1.0527,-1.75286 -1.2336,-2.11667 -0.1809,-0.3638 -0.6014,-0.99801 -0.9345,-1.40936 -0.3331,-0.41135 -0.6056,-0.90823 -0.6056,-1.10418 0,-0.19595 -0.2841,-0.69384 -0.6312,-1.10642 -0.3472,-0.41258 -0.8259,-1.16586 -1.0639,-1.67395 -1.542,-3.2927 -1.6843,-3.37377 -5.9851,-3.41096 -3.3646,-0.0291 -4.5185,0.33513 -3.9476,1.24605 1.5979,2.54952 2.164,3.51807 2.603,4.45311 0.2829,0.60244 0.6531,1.1811 0.8227,1.28592 0.1696,0.10483 0.5379,0.68349 0.8184,1.28592 0.2805,0.60243 0.8621,1.63111 1.2925,2.28596 0.7699,1.17157 1.5051,2.41227 2.8221,4.7625 0.367,0.65484 0.8241,1.36922 1.0158,1.5875 0.1916,0.21828 0.5414,0.81359 0.7772,1.32291 0.402,0.86816 1.3727,2.54177 1.995,3.43959 0.6413,0.92514 2.1269,3.5207 2.1269,3.71592 0,0.11672 0.2759,0.54878 0.6131,0.96013 0.3372,0.41135 0.7667,1.13091 0.9545,1.59903 0.1878,0.46812 0.5086,0.98986 0.7129,1.15943 0.2043,0.16957 0.6081,0.7986 0.8972,1.39784 0.2891,0.59924 0.8818,1.6253 1.3171,2.28015 0.4352,0.65484 1.0209,1.68352 1.3014,2.28595 0.2805,0.60244 0.6355,1.17291 0.789,1.26773 0.1534,0.0948 0.5202,0.67349 0.8152,1.28592 0.295,0.61244 0.8939,1.6493 1.3309,2.30415 0.4369,0.65484 1.0358,1.69171 1.3308,2.304143 0.295,0.612436 0.6618,1.191099 0.8153,1.285919 0.1534,0.09482 0.4909,0.666984 0.75,1.271477 0.2591,0.604493 0.666,1.260799 0.9042,1.458457 0.2381,0.197658 0.433,0.468052 0.433,0.600874 0,1.946476 1.9212,1.417121 3.1308,-0.862632 z"
       id="path313" /></g><style
     id="style1">@media(prefers-color-scheme:dark){.lines{fill:#d7d7d7}}</style></svg>
