<?xml version="1.0" encoding="UTF-8" standalone="no"?>
<!-- Created with Inkscape (http://www.inkscape.org/) -->

<svg
   width="222.53499mm"
   height="140.45741mm"
   viewBox="0 0 222.53499 140.45741"
   version="1.1"
   id="svg1"
   xml:space="preserve"
   inkscape:version="1.4.4 (dcaf3e7, 2026-05-05)"
   sodipodi:docname="logos teams.svg"
   inkscape:export-batch-name="TSV Neustadt"
   inkscape:export-batch-path="Desktop/Liga"
   xmlns:inkscape="http://www.inkscape.org/namespaces/inkscape"
   xmlns:sodipodi="http://sodipodi.sourceforge.net/DTD/sodipodi-0.dtd"
   xmlns="http://www.w3.org/2000/svg"
   xmlns:svg="http://www.w3.org/2000/svg"><sodipodi:namedview
     id="namedview1"
     pagecolor="#ffffff"
     bordercolor="#000000"
     borderopacity="0.25"
     inkscape:showpageshadow="2"
     inkscape:pageopacity="0.0"
     inkscape:pagecheckerboard="0"
     inkscape:deskcolor="#d1d1d1"
     inkscape:document-units="mm"
     inkscape:zoom="0.25753845"
     inkscape:cx="-7620.2212"
     inkscape:cy="491.18878"
     inkscape:window-width="1920"
     inkscape:window-height="914"
     inkscape:window-x="0"
     inkscape:window-y="31"
     inkscape:window-maximized="0"
     inkscape:current-layer="layer1"><inkscape:page
       x="0"
       y="0"
       width="222.53499"
       height="140.45741"
       id="page2"
       margin="0"
       bleed="0" /></sodipodi:namedview><defs
     id="defs1"><style
       id="style1-7">
      .cls-1 {
        fill: #fff;
      }
    </style></defs><g
     inkscape:label="Ebene 1"
     inkscape:groupmode="layer"
     id="layer1"
     transform="translate(2677.8441,-484.97206)"><path
       style="fill:#ff0000"
       d="m -2545.8901,625.17898 c -1.0552,-0.31621 -1.7576,-1.02018 -1.7576,-1.76164 0,-0.85467 0.5895,-1.01594 1.858,-0.50837 0.5848,0.23397 1.3452,0.42539 1.69,0.42539 0.8372,0 1.6794,-0.75021 1.9041,-1.69622 0.1818,-0.76548 0.1791,-0.7675 -0.4445,-0.33073 -0.994,0.69624 -2.6959,0.56939 -3.7003,-0.2758 -1.1048,-0.92963 -1.5718,-2.09345 -1.5718,-3.917 0,-3.34105 2.444,-5.57149 4.818,-4.39693 0.8532,0.42213 1.0406,0.43895 1.3074,0.11737 0.1714,-0.20645 0.6194,-0.33957 0.9957,-0.29584 l 0.6841,0.0795 0.072,5.04587 c 0.069,4.87142 0.051,5.0763 -0.5292,5.92624 -1.1,1.61175 -3.1785,2.23157 -5.3256,1.58813 z m 3.1275,-6.06721 c 0.7274,-0.80374 0.8072,-2.61846 0.1604,-3.64876 -1.1177,-1.78059 -3.0611,-0.73075 -3.0611,1.65364 0,2.13073 1.7122,3.30839 2.9007,1.99512 z m -80.622,3.08818 c -0.604,-0.51742 -0.9922,-1.08428 -0.9922,-1.44887 0,-0.32939 -0.1418,-0.8259 -0.3151,-1.10336 -0.2436,-0.39016 -0.2436,-1.04055 0,-2.87066 0.1733,-1.30142 0.3151,-3.0303 0.3151,-3.84197 0,-0.81166 0.1034,-1.53966 0.2298,-1.61778 0.1264,-0.0781 0.3124,-0.98054 0.4134,-2.00538 0.101,-1.02484 0.2655,-1.81371 0.3655,-1.75306 0.1001,0.0607 0.198,-0.43839 0.2178,-1.10899 0.02,-0.6706 0.1685,-1.26351 0.3307,-1.31757 0.1622,-0.0541 0.2969,-0.47533 0.2994,-0.93614 0,-0.46082 0.2331,-1.67129 0.5124,-2.68993 0.2793,-1.01865 0.7105,-2.62599 0.9581,-3.57188 0.2477,-0.94588 0.6562,-2.3151 0.908,-3.04271 0.6008,-1.73676 1.5857,-5.74505 1.5857,-6.45343 0,-0.31963 0.1696,-0.55802 0.3969,-0.55802 0.2183,0 0.3969,-0.15891 0.3969,-0.35312 0,-0.19422 0.4832,-1.53367 1.0739,-2.97656 0.5907,-1.4429 1.5314,-3.93314 2.0905,-5.53387 1.1921,-3.41288 1.4228,-3.94692 4.1146,-9.52499 1.1236,-2.32834 2.9162,-6.10497 3.9836,-8.39251 1.5107,-3.23742 2.8898,-5.58289 6.2228,-10.58333 2.3551,-3.53329 4.6052,-6.84088 5.0003,-7.35021 0.395,-0.50932 1.1761,-1.58088 1.7357,-2.38125 0.5596,-0.80036 1.5443,-2.20663 2.1881,-3.12504 0.6439,-0.91841 1.187,-1.99444 1.207,-2.39117 0.02,-0.39673 0.4223,-1.24634 0.8942,-1.88802 0.7625,-1.03678 1.0316,-1.5916 0.7721,-1.5916 -0.3614,0 -4.3261,1.49075 -6.6128,2.48646 -1.5381,0.66974 -2.9027,1.21771 -3.0323,1.21771 -0.1297,0 -1.2377,0.60435 -2.4623,1.343 -2.3088,1.39268 -5.4006,4.1784 -6.4589,5.81953 -0.981,1.52143 -3.127,3.69629 -3.7595,3.81007 -0.3209,0.0577 -1.2139,0.57856 -1.9843,1.15739 -4.1414,3.11133 -10.3913,5.35161 -14.8245,5.31391 -1.4677,-0.0125 -2.0128,-0.0934 -1.6576,-0.24599 0.3886,-0.167 0.1603,-0.23233 -0.8599,-0.24598 -0.764,-0.0102 -1.3891,0.10046 -1.3891,0.24598 0,0.3437 -2.2508,0.34379 -2.8478,1.2e-4 -0.2527,-0.14546 -0.8126,-0.39042 -1.2442,-0.54436 -0.5554,-0.19805 -0.6843,-0.34204 -0.4409,-0.49246 0.2749,-0.16989 0.2665,-0.24231 -0.042,-0.36067 -0.2122,-0.0815 -0.4492,-0.48498 -0.5266,-0.89672 -0.077,-0.41174 -0.2187,-0.99167 -0.3141,-1.28874 -0.1504,-0.46836 -0.049,-0.54852 0.7639,-0.60326 1.3555,-0.0913 1.7223,-0.49134 4.5314,-4.94203 0.2755,-0.43656 0.4764,-0.91318 0.4463,-1.05914 -0.1034,-0.50264 2.2405,-1.73927 3.4273,-1.80823 0.6317,-0.0367 1.2954,-0.15745 1.4748,-0.26833 0.1794,-0.11088 0.5893,-0.25226 0.9108,-0.31418 0.3216,-0.0619 0.8626,-0.41236 1.2023,-0.77875 0.3398,-0.36639 0.7126,-0.66616 0.8286,-0.66616 0.1159,0 0.7114,-0.47625 1.3233,-1.05834 l 1.1125,-1.05833 -1.0033,-0.004 c -0.783,-0.003 -0.9161,-0.066 -0.6064,-0.28627 0.2933,-0.20858 0.052,-0.24381 -0.9261,-0.13502 -0.7276,0.081 -1.6206,0.22011 -1.9844,0.30922 -0.5163,0.12649 -0.5744,0.0999 -0.2645,-0.12146 0.5014,-0.35819 -0.066,-0.39871 -0.7312,-0.0522 -0.7082,0.36902 -4.523,1.60443 -6.148,1.99101 -1.4383,0.34217 -3.7589,1.38016 -5.5563,2.48528 -0.5093,0.31317 -1.1855,0.68381 -1.5027,0.82365 -0.9864,0.43487 -3.7431,-0.20881 -3.3838,-0.79011 0.085,-0.13822 -0.027,-0.25131 -0.2506,-0.25131 -0.3036,0 -0.3685,-0.18703 -0.2574,-0.74242 0.2619,-1.30948 -0.2552,-1.43526 -3.3588,-0.81707 -3.102,0.61785 -4.2952,0.87621 -5.2999,1.14748 -0.5016,0.13547 -0.7344,0.0756 -0.8469,-0.21774 -0.11,-0.28654 0.2461,-0.62956 1.2209,-1.17604 3.8098,-2.1359 4.9018,-2.69213 5.285,-2.69213 0.2301,0 0.6353,-0.2724 0.9006,-0.60533 0.6324,-0.79386 3.4495,-2.75553 5.7739,-4.02064 1.0186,-0.55442 5.2453,-2.99854 9.3927,-5.43137 4.1473,-2.43282 8.0342,-4.6736 8.6375,-4.97949 0.6032,-0.30589 1.2672,-0.72655 1.4755,-0.9348 0.2082,-0.20824 1.0838,-0.75343 1.9458,-1.21153 0.862,-0.4581 1.9244,-1.02525 2.361,-1.26032 0.4365,-0.23508 0.9723,-0.52244 1.1906,-0.63859 0.2183,-0.11615 0.8731,-0.48652 1.4552,-0.82305 0.5821,-0.33654 1.5941,-0.78024 2.2489,-0.98601 0.6549,-0.20578 1.4883,-0.57012 1.8521,-0.80965 0.6827,-0.4495 3.0256,-1.71835 8.0698,-4.37047 1.6008,-0.84162 5.7253,-3.0471 9.1657,-4.90107 7.4632,-4.02181 10.5638,-5.54018 11.3135,-5.54018 0.3054,0 0.5552,-0.11906 0.5552,-0.26458 0,-0.14552 0.1636,-0.26458 0.3635,-0.26458 0.2,0 0.9206,-0.3113 1.6013,-0.69178 0.6808,-0.38048 1.3029,-0.62666 1.3825,-0.54707 0.08,0.0796 0.5794,-0.0724 1.1107,-0.33782 3.8393,-1.91782 8.4819,-4.10467 10.491,-4.94169 1.3096,-0.54565 2.504,-1.08112 2.654,-1.18994 0.15,-0.10881 0.5668,-0.25627 0.926,-0.32768 0.3593,-0.0714 1.6653,-0.50675 2.9022,-0.96743 1.237,-0.46068 3.7968,-1.31322 5.6886,-1.89453 1.8918,-0.58131 4.893,-1.52223 6.6694,-2.09095 3.3067,-1.0586 4.4872,-1.26885 4.161,-0.7411 -0.1168,0.18899 -0.01,0.24338 0.3151,0.15329 0.2729,-0.0768 0.7586,-0.21493 1.0794,-0.30693 0.5888,-0.16887 1.9303,0.49048 1.9303,0.94871 0,0.67279 -2.0831,2.41963 -3.9238,3.29046 -2.5032,1.18418 -5.1962,2.94709 -6.3028,4.12593 -1.0689,1.13863 -1.1246,2.22409 -0.1252,2.44218 1.7611,0.38435 1.6577,1.45752 -0.2328,2.4155 -1.2239,0.62022 -1.7429,1.25157 -1.4365,1.74737 0.083,0.13477 0.2622,0.17653 0.3977,0.0928 0.5061,-0.3128 0.2236,1.05969 -0.3421,1.66183 -0.494,0.52588 -0.5266,0.66448 -0.2031,0.86443 0.3184,0.19678 0.2598,0.36913 -0.3376,0.99273 -0.905,0.94463 -0.9044,1.07814 0,0.93283 0.5952,-0.0952 0.6554,-0.0599 0.3308,0.19394 -0.3376,0.26386 -0.3244,0.28674 0.088,0.153 0.2666,-0.0865 0.6238,-0.15907 0.7938,-0.1613 0.1817,-0.002 0.1456,-0.11853 -0.088,-0.28192 -0.3225,-0.22583 -0.2978,-0.25184 0.1323,-0.1389 0.291,0.0764 1.184,-0.0905 1.9844,-0.37091 0.8003,-0.28042 1.3361,-0.52171 1.1906,-0.5362 -0.1455,-0.0145 0.2712,-0.19567 0.926,-0.40263 0.6549,-0.20696 1.3457,-0.31942 1.5351,-0.24991 0.2006,0.0736 0.2697,0.005 0.1653,-0.16352 -0.1219,-0.19738 0.021,-0.22814 0.4493,-0.0964 0.3457,0.10642 0.5319,0.0921 0.414,-0.0318 -0.275,-0.28883 3.0579,-1.13581 4.4478,-1.13031 0.8264,0.003 0.9424,0.054 0.5292,0.23157 -0.3816,0.16397 -0.1093,0.23258 0.9765,0.24599 0.8282,0.0102 1.5794,-0.10047 1.6693,-0.24599 0.09,-0.14552 0.7372,-0.26458 1.4384,-0.26458 0.8177,0 1.3946,-0.14417 1.6086,-0.40199 0.233,-0.28079 0.6217,-0.3597 1.2891,-0.26174 0.7369,0.10815 0.8345,0.0818 0.4264,-0.11526 -0.4499,-0.21723 -0.3904,-0.25693 0.3969,-0.26494 2.9972,-0.0305 6.0875,-0.32332 8.4124,-0.7971 2.944,-0.59996 3.8701,-0.67035 3.6261,-0.27564 -0.093,0.15058 0.1567,0.27595 0.5797,0.29096 0.4088,0.0145 1.0281,0.10615 1.3763,0.20367 0.5833,0.16334 0.5104,0.2525 -0.926,1.13304 -2.0611,1.26347 -4.2638,2.35256 -6.8508,3.38735 -3.1964,1.27852 -4.5357,1.97381 -5.1511,2.67412 -0.2229,0.25357 -1.06,0.6666 -1.8604,0.91785 -0.8003,0.25126 -1.6355,0.61324 -1.856,0.8044 -0.2204,0.19116 -0.9315,0.4668 -1.5801,0.61255 -0.6487,0.14574 -1.3017,0.43156 -1.4513,0.63515 -0.1496,0.20359 -0.9268,0.5191 -1.7272,0.70112 -0.8003,0.18203 -1.7541,0.54042 -2.1194,0.79642 -0.3653,0.25601 -4.4134,1.83976 -8.9958,3.51946 -15.9607,5.85043 -27.8169,10.70522 -30.4243,12.45793 -0.6549,0.44018 -1.6564,1.10642 -2.2256,1.48055 -0.8102,0.53255 -1.2566,1.15767 -2.0559,2.87955 -0.5616,1.20962 -0.9546,2.30687 -0.8733,2.43832 0.1978,0.32002 -0.5534,1.75978 -3.3237,6.37022 -2.9529,4.91438 -9.0317,17.02145 -10.3479,20.60984 -0.2273,0.61943 -0.2006,0.61102 0.4188,-0.13229 0.3953,-0.47439 0.6653,-0.64034 0.671,-0.41245 0.01,0.27806 0.1202,0.24224 0.4184,-0.13229 0.3801,-0.47736 0.3974,-0.42959 0.2449,0.67703 -0.146,1.05885 -0.5658,2.51845 -1.1796,4.10104 -0.1129,0.29104 -0.2181,0.85738 -0.2338,1.25852 -0.016,0.40115 -0.2206,1.17506 -0.4554,1.7198 -0.2348,0.54474 -0.8229,2.06199 -1.3069,3.37168 -1.5528,4.20162 -2.238,5.97601 -2.7427,7.10185 -0.4454,0.99352 -0.8959,2.20984 -0.9465,2.55544 -0.1405,0.95931 -0.7935,2.59955 -0.9872,2.47982 -0.1392,-0.086 -0.2297,0.065 -0.2011,0.33553 0.1065,1.00779 -0.017,1.70873 -0.2735,1.55028 -0.2392,-0.14783 -0.4026,1.32672 -0.283,2.55304 0.023,0.24001 -0.3025,0.6821 -0.7243,0.98243 -0.7768,0.55317 -1.9032,3.2178 -1.9032,4.50244 0,0.32748 -0.1182,0.51917 -0.2645,0.42875 -0.1456,-0.0899 -0.2646,-0.0472 -0.2646,0.095 0,0.14221 -0.071,0.47666 -0.1573,0.74322 -0.1308,0.40308 -0.1092,0.41786 0.1283,0.0878 0.4335,-0.60271 0.3777,0.1548 -0.075,1.01751 -1.3293,2.5333 -2.2773,4.79003 -2.2773,5.42139 0,0.40484 -0.1076,0.66957 -0.2391,0.58829 -0.1323,-0.0818 -0.3318,1.12246 -0.4465,2.69636 -0.14,1.91929 -0.263,2.58604 -0.3783,2.0504 -0.1095,-0.50878 -0.2278,0.25114 -0.3296,2.11667 -0.2727,5.00014 -0.5217,6.10912 -1.9284,8.58834 -2.7968,4.92933 -6.623,6.88715 -9.1796,4.69704 z m 10.8302,-11.35061 c -0.084,-0.21107 -0.1472,-0.14838 -0.1599,0.15985 -0.012,0.27891 0.051,0.43518 0.139,0.34726 0.088,-0.0879 0.097,-0.31612 0.021,-0.50711 z m -13.0792,-58.33395 c -0.1819,-0.0734 -0.4795,-0.0734 -0.6614,0 -0.1819,0.0734 -0.033,0.13345 0.3307,0.13345 0.3638,0 0.5126,-0.0601 0.3307,-0.13345 z m 31.7368,68.91397 c -0.2125,-0.21252 -0.3175,-1.39347 -0.3175,-3.57187 0,-3.05856 -0.031,-3.25438 -0.5199,-3.25438 -0.6089,0 -1.1358,-0.83729 -0.9052,-1.43832 0.088,-0.23008 0.4451,-0.48974 0.7928,-0.57702 0.5408,-0.13574 0.6323,-0.31907 0.6323,-1.26772 0,-2.40854 2.1118,-2.38627 2.2345,0.0236 0.058,1.12959 0.5646,1.43508 2.0317,1.22387 1.1641,-0.16758 1.169,-0.1608 2.2299,3.09395 l 0.8194,2.51354 0.9063,-2.77813 c 0.8313,-2.54824 0.965,-2.78491 1.6161,-2.86013 0.5007,-0.0578 0.796,0.0791 1.0025,0.4649 0.2396,0.44766 0.049,1.22831 -1.052,4.30208 -0.7396,2.06534 -1.4732,3.90997 -1.6302,4.09916 -0.3632,0.43757 -1.3975,0.44543 -1.744,0.0133 -0.1458,-0.1819 -0.6843,-1.52135 -1.1966,-2.97656 -1.4956,-4.2481 -1.3872,-4.05179 -2.1558,-3.90487 l -0.6806,0.1301 v 2.95299 c 0,2.24447 -0.099,3.09409 -0.4118,3.54103 -0.4532,0.64698 -1.1598,0.76269 -1.6519,0.27054 z m 15.5668,-0.19427 c -0.1507,-0.28148 -0.2739,-2.13477 -0.2739,-4.11844 0,-1.98366 0.1232,-3.83696 0.2739,-4.11843 0.315,-0.58864 1.5239,-0.69653 1.7319,-0.15457 0.1098,0.28617 0.3432,0.25521 1.1736,-0.15566 0.8762,-0.43347 1.1781,-0.4662 1.9502,-0.21138 0.5024,0.16582 1.0529,0.46952 1.2234,0.67489 0.2633,0.31733 0.4186,0.29304 1.0338,-0.16178 1.3741,-1.01595 3.7718,-0.57734 4.5237,0.82752 0.158,0.29538 0.3027,2.01361 0.3213,3.8183 0.036,3.43994 -0.151,4.11132 -1.1424,4.11132 -0.7971,0 -1.0352,-0.86918 -1.0352,-3.77805 0,-2.33251 -0.074,-2.8216 -0.4839,-3.1924 -0.6289,-0.56913 -1.1807,-0.55442 -1.7241,0.046 -0.3474,0.38391 -0.4379,1.04337 -0.4379,3.1924 0,3.00192 -0.2329,3.73208 -1.1906,3.73208 -0.9603,0 -1.1906,-0.73083 -1.1906,-3.77805 0,-2.33251 -0.074,-2.8216 -0.4839,-3.1924 -0.6076,-0.54993 -1.2107,-0.55756 -1.7462,-0.0221 -0.3251,0.32515 -0.4158,1.02097 -0.4158,3.1924 0,3.06901 -0.229,3.80016 -1.1906,3.80016 -0.3647,0 -0.7613,-0.22137 -0.9167,-0.51177 z m 15.0678,0.0212 c -1.4735,-0.78406 -2.15,-2.20442 -2.0501,-4.30428 0.1374,-2.88862 1.7488,-4.62396 4.2336,-4.55931 1.9363,0.0504 3.7608,2.21872 3.5909,4.26758 l -0.082,0.98553 -2.712,0.0754 c -2.413,0.0671 -2.712,0.12821 -2.712,0.55431 0,1.20131 2.3824,1.8373 3.5563,0.94938 0.677,-0.51207 1.3861,-0.49274 1.6876,0.046 0.4113,0.7349 0.041,1.37362 -1.1224,1.93688 -1.3869,0.67139 -3.1823,0.69123 -4.3902,0.0485 z m 3.7083,-5.29459 c 0,-0.1259 -0.2468,-0.54261 -0.5484,-0.92604 -0.9205,-1.17025 -2.4399,-0.81687 -2.975,0.69192 -0.1462,0.41239 0.037,0.46302 1.6796,0.46302 1.0141,0 1.8438,-0.103 1.8438,-0.2289 z m 3.4925,5.46765 c -0.3346,-0.33458 -0.4703,-7.70772 -0.1569,-8.5244 0.2047,-0.53334 1.2591,-0.54264 1.697,-0.015 0.2991,0.3604 0.3869,0.35654 0.8207,-0.0361 0.6797,-0.61515 2.4799,-0.56964 3.3618,0.085 1.2148,0.90171 1.3742,1.52296 1.3023,5.07548 -0.056,2.78993 -0.1354,3.32245 -0.5294,3.57052 -0.3366,0.21199 -0.5894,0.21219 -0.926,7.4e-4 -0.3792,-0.23816 -0.4927,-0.83677 -0.6267,-3.30594 -0.09,-1.65831 -0.1793,-3.03638 -0.1984,-3.06237 -0.7487,-1.01628 -1.9302,-1.15187 -2.5334,-0.29075 -0.3097,0.44224 -0.4118,1.28191 -0.4118,3.38666 0,2.84664 -0.181,3.43363 -1.0584,3.43363 -0.2328,0 -0.5662,-0.14287 -0.7408,-0.3175 z m 18.9827,-0.30126 c -1.3452,-0.93393 -1.9272,-2.38288 -1.7945,-4.46753 0.1317,-2.06754 0.8681,-3.22804 2.509,-3.95392 0.9773,-0.43228 1.309,-0.4629 2.2549,-0.2082 1.8523,0.49877 3.347,2.67454 3.0898,4.49754 -0.09,0.63856 -0.141,0.65113 -2.936,0.72493 -1.5643,0.0413 -2.8442,0.17407 -2.8442,0.29505 0,0.12097 0.2467,0.53366 0.5483,0.91709 0.6581,0.83656 2.1441,0.94947 3.3544,0.25485 1.0133,-0.58157 1.7156,-0.31335 1.6051,0.61305 -0.1308,1.096 -1.2797,1.77355 -3.1956,1.88448 -1.4159,0.082 -1.7846,0.003 -2.5912,-0.55734 z m 3.8023,-5.40051 c -0.5351,-1.50879 -2.0545,-1.86217 -2.975,-0.69192 -0.3016,0.38343 -0.5483,0.80014 -0.5483,0.92604 0,0.1259 0.8297,0.2289 1.8437,0.2289 1.6422,0 1.8259,-0.0506 1.6796,-0.46302 z m 3.6648,5.7877 c -0.2696,-0.1709 -0.351,-1.19719 -0.3458,-4.36246 0,-2.27645 0.08,-4.25765 0.1697,-4.40269 0.208,-0.33652 1.2698,-0.34264 1.6033,-0.009 0.1628,0.16289 0.6874,0.0988 1.4576,-0.1782 1.1408,-0.41024 1.2572,-0.40629 2.2458,0.0763 1.6118,0.78669 1.9679,1.76662 1.9683,5.41694 5e-4,3.23761 -0.1511,3.69094 -1.2338,3.69094 -0.9143,0 -1.147,-0.77105 -1.147,-3.80016 0,-3.01668 -0.2392,-3.60817 -1.4591,-3.60817 -1.1279,0 -1.4513,0.88568 -1.4513,3.9747 0,2.83697 -0.1832,3.4381 -1.0451,3.42958 -0.2256,-0.002 -0.5688,-0.10461 -0.7626,-0.22752 z m 14.2524,-0.2802 c -0.1581,-0.29543 -0.2739,-2.42054 -0.2739,-5.02708 0,-4.33893 -0.021,-4.51531 -0.5291,-4.51531 -0.5403,0 -1.5875,-0.86026 -1.5875,-1.30402 0,-0.13513 0.1871,-0.43278 0.4157,-0.66146 0.5044,-0.50441 3.2859,-0.57702 3.7647,-0.0983 0.2269,0.22688 0.3175,1.91088 0.3175,5.9002 0,3.98933 -0.091,5.67333 -0.3175,5.90021 -0.4861,0.48607 -1.4837,0.37779 -1.7899,-0.19427 z m 6.0761,0.32492 c -0.617,-0.22556 -1.5997,-1.19519 -2.0095,-1.98282 -0.6839,-1.31448 -0.3129,-3.24104 0.8025,-4.1667 0.3747,-0.31102 0.3635,-0.42856 -0.1149,-1.20259 -1.6454,-2.66231 0.8217,-5.74361 3.9288,-4.90696 1.4913,0.40159 2.2219,1.32662 2.3596,2.98789 0.093,1.12167 0.011,1.5226 -0.4221,2.05255 l -0.5377,0.65861 0.6802,0.71523 c 1.4362,1.5104 1.0175,4.40676 -0.7971,5.51319 -0.8211,0.50063 -2.9345,0.6808 -3.8898,0.3316 z m 2.6459,-2.45898 c 0.951,-0.95102 0.5519,-2.61561 -0.7243,-3.02064 -0.4377,-0.13894 -0.7616,-0.0155 -1.2557,0.47864 -0.7344,0.73436 -0.8193,1.22688 -0.3617,2.09637 0.5871,1.1153 1.4985,1.28876 2.3417,0.44563 z m -0.1009,-5.69938 c 0.3572,-0.54514 0.383,-0.7985 0.1365,-1.33954 -0.2487,-0.54572 -0.4603,-0.65217 -1.162,-0.58447 -0.7579,0.0731 -0.8678,0.18507 -0.9422,0.95994 -0.1536,1.59981 1.1369,2.23206 1.9677,0.96407 z m 5.9698,7.808 c -1.2251,-0.74695 -2.0147,-2.59159 -1.7951,-4.19377 0.2194,-1.60043 1.3834,-4.01809 2.8983,-6.01968 1.5146,-2.00118 2.4442,-2.34735 3.0856,-1.14899 0.2117,0.39572 0.01,0.8227 -1.0688,2.2259 l -1.3307,1.73625 h 1.03 c 2.5369,0 4.071,3.28194 2.793,5.97512 -0.8876,1.87047 -3.7074,2.58653 -5.6123,1.42517 z m 3.1269,-2.10862 c 0.6122,-0.6122 0.7042,-2.04073 0.1778,-2.76063 -0.4352,-0.59513 -1.668,-0.62506 -2.2387,-0.0543 -0.578,0.57799 -0.5422,2.13132 0.065,2.80182 0.6206,0.68572 1.3191,0.69033 1.9963,0.0132 z m 5.8167,2.15289 c -1.7423,-0.9316 -2.3987,-3.20088 -1.0294,-3.55895 0.4125,-0.10787 0.828,0.12736 1.5799,0.89443 0.5611,0.57244 1.263,1.0408 1.5598,1.0408 1.1399,0 1.9915,-1.61559 1.3691,-2.59722 -0.1215,-0.19155 -0.6852,-0.50706 -1.2528,-0.70115 -0.7933,-0.27132 -1.051,-0.50963 -1.1146,-1.0309 -0.068,-0.56044 0.092,-0.76009 0.926,-1.15143 0.7654,-0.3592 1.0294,-0.65272 1.0941,-1.21653 0.1842,-1.60568 -1.3764,-2.06322 -2.3849,-0.69919 -0.428,0.57898 -0.7764,0.78371 -1.238,0.72761 -1.524,-0.18522 -1.3018,-1.94696 0.3915,-3.10481 1.1244,-0.76876 3.1639,-0.85442 4.1987,-0.17634 1.4937,0.97866 1.892,3.55113 0.7298,4.71329 -0.4989,0.49895 -0.4933,0.51968 0.3769,1.38992 0.7482,0.74817 0.8834,1.07175 0.8834,2.11363 0,2.41283 -1.4311,3.847 -3.8405,3.84879 -0.79,5.9e-4 -1.7002,-0.1985 -2.249,-0.49195 z m 12.9647,-0.10237 c -1.2262,-0.83327 -1.8859,-2.24059 -1.8859,-4.02301 0,-2.74708 1.7425,-4.73029 4.156,-4.73029 2.0812,0 3.9472,2.11026 3.7688,4.26204 l -0.082,0.98553 -2.8442,0.0751 c -1.5644,0.0413 -2.8443,0.18349 -2.8443,0.31597 0,0.13249 0.272,0.55708 0.6044,0.94355 0.713,0.82895 2.1944,0.95711 3.2288,0.27934 0.8705,-0.57035 1.3813,-0.53271 1.7348,0.12784 0.237,0.44285 0.2,0.65618 -0.1885,1.08542 -1.277,1.41108 -4.0754,1.74726 -5.6481,0.67851 z m 3.9728,-5.18984 c 0,-0.6198 -1.1449,-1.62318 -1.8521,-1.62318 -0.7072,0 -1.8521,1.00338 -1.8521,1.62318 0,0.1259 0.8334,0.2289 1.8521,0.2289 1.0186,0 1.8521,-0.103 1.8521,-0.2289 z m 3.5907,5.36938 c -0.5598,-0.5598 -0.5238,-1.2565 0.094,-1.81537 0.6699,-0.60621 1.3629,-0.44585 1.8539,0.429 0.3627,0.64612 0.3542,0.75523 -0.098,1.25489 -0.5906,0.65259 -1.2795,0.70156 -1.8496,0.13148 z m 6.7107,-0.14564 c -0.1745,-0.32622 -1.1426,-2.85913 -2.1511,-5.62869 -1.5125,-4.15343 -1.7854,-5.14153 -1.5581,-5.64044 0.3042,-0.66758 1.3723,-0.83043 1.7983,-0.27414 0.1393,0.1819 0.8248,1.97553 1.5234,3.98585 0.6986,2.01031 1.3543,3.55812 1.457,3.43958 0.1028,-0.11855 0.6989,-1.76335 1.3247,-3.65512 0.6258,-1.89177 1.2596,-3.59443 1.4084,-3.78369 0.1487,-0.18926 0.5663,-0.30832 0.9279,-0.26459 1.3584,0.16433 1.3178,0.65581 -0.4698,5.67967 -2.235,6.28124 -2.3669,6.55246 -3.2339,6.65269 -0.5151,0.0596 -0.7963,-0.0804 -1.0268,-0.51112 z m 6.6412,0.0496 c -0.3842,-0.71782 -0.3415,-1.23494 0.1419,-1.71829 0.6083,-0.60831 1.3634,-0.50844 1.8575,0.24569 0.4015,0.61274 0.4015,0.71017 0,1.32291 -0.5261,0.80298 -1.6065,0.88386 -1.9994,0.14969 z m -219.3282,-1.31958 c -0.6759,-0.67592 -0.7036,-1.45449 -0.074,-2.08396 0.4575,-0.45752 0.4575,-0.50561 0,-1.25677 -0.733,-1.20687 -0.6424,-3.3222 0.1843,-4.30467 0.3638,-0.43235 0.6615,-0.85292 0.6615,-0.93459 0,-0.0817 -0.2977,-0.58711 -0.6615,-1.1232 -0.4834,-0.71234 -0.6614,-1.32442 -0.6614,-2.27385 0,-1.57433 0.4995,-2.61451 1.6496,-3.43481 0.7957,-0.56756 1.18,-0.62357 4.8712,-0.70995 3.7869,-0.0886 4.0378,-0.0632 4.564,0.46302 0.6998,0.69976 0.7096,1.46235 0.028,2.1443 -0.4769,0.4769 -0.8819,0.52917 -4.101,0.52917 -3.2191,0 -3.6241,0.0523 -4.101,0.52916 -0.9715,0.97146 -0.5618,2.39822 0.8276,2.88259 0.4614,0.16083 2.2413,0.29241 3.9554,0.29241 2.4806,0 3.2015,0.0849 3.5324,0.41578 0.5663,0.56626 0.5223,1.32987 -0.1134,1.96547 -0.4743,0.47433 -0.8819,0.52917 -3.933,0.52917 -3.043,0 -3.4778,0.0581 -4.1011,0.54837 -0.8529,0.67092 -0.9293,1.86529 -0.1679,2.62663 0.4769,0.4769 0.8819,0.52917 4.101,0.52917 3.2191,0 3.6241,0.0523 4.101,0.52916 0.6229,0.62284 0.6741,1.28799 0.1541,1.99995 -0.3437,0.47047 -0.7862,0.52089 -5.271,0.60047 -4.6654,0.0828 -4.9216,0.061 -5.4457,-0.46302 z m 82.081,-17.0634 -0.7423,-0.63851 v -6.89468 c 0,-6.67988 0.017,-6.91222 0.563,-7.45774 1.0283,-1.02852 3.538,-0.49729 3.538,0.74889 0,0.25323 0.3123,0.10908 0.9204,-0.42483 0.5062,-0.44446 1.3252,-0.88405 1.82,-0.97687 1.1816,-0.22168 2.4834,0.44151 2.7204,1.38591 0.2853,1.13673 -0.3784,1.95692 -2.1548,2.66255 -0.8724,0.34656 -1.8838,0.92153 -2.2476,1.2777 -0.6419,0.62839 -0.6656,0.78167 -0.8004,5.169 l -0.139,4.52141 -0.7357,0.63284 c -0.9355,0.80473 -1.8018,0.80294 -2.742,-0.006 z m 12.1709,3.9e-4 -0.7424,-0.63812 -0.082,-6.1749 c -0.091,-6.83681 0.088,-8.03379 1.2889,-8.60923 1.0348,-0.49595 2.1459,-0.0882 2.7045,0.99256 0.4214,0.81521 0.4638,1.59978 0.3969,7.35207 l -0.075,6.43947 -0.7424,0.63813 c -0.942,0.80972 -1.8066,0.80972 -2.7486,2e-5 z m 12.1468,0.30559 c -1.3355,-0.42794 -3.122,-2.16891 -3.9446,-3.84407 -0.6523,-1.32831 -0.7406,-1.80118 -0.7267,-3.8932 0.017,-2.64982 0.4905,-4.07423 1.9601,-5.90299 1.3473,-1.67658 2.7079,-2.29503 5.0538,-2.29722 1.7217,-0.002 2.1504,0.0959 3.0564,0.69477 l 1.0538,0.69665 0.5616,-0.6305 c 0.746,-0.83751 2.4131,-0.87686 3.1403,-0.0741 0.4597,0.50743 0.5114,1.09776 0.5874,6.70947 0.046,3.3842 -0.019,6.54795 -0.1439,7.03056 -0.5021,1.93748 -2.7589,2.39361 -3.7532,0.75856 l -0.468,-0.76954 -0.5043,0.55729 c -0.2774,0.30651 -0.8262,0.72369 -1.2195,0.92708 -0.8236,0.4259 -3.3765,0.44634 -4.6532,0.0373 z m 4.7056,-4.12111 c 1.1587,-0.83866 1.626,-2.08423 1.5272,-4.07072 -0.099,-1.98274 -0.5979,-2.9054 -2.0245,-3.74083 -2.4453,-1.432 -5.1719,1.497 -4.6477,4.99267 0.449,2.99404 2.9841,4.38299 5.145,2.81888 z m 12.2911,3.8042 c -0.6481,-0.64812 -0.6494,-0.66064 -0.6494,-6.18287 v -5.53344 l -1.1152,-0.14958 c -1.2332,-0.1654 -1.7952,-0.72023 -1.7952,-1.77218 0,-1.02942 0.5791,-1.63602 1.7414,-1.82395 l 1.0367,-0.16764 0.08,-1.84583 c 0.091,-2.11136 0.6812,-3.04174 1.9291,-3.04174 1.6885,0 2.3568,0.97158 2.3568,3.42644 v 1.60064 h 1.0583 c 1.276,0 2.1167,0.71934 2.1167,1.81108 0,0.97947 -0.755,1.63817 -2.0815,1.8161 l -1.0643,0.14275 -0.081,5.54678 -0.081,5.54677 -0.7423,0.63805 c -0.9482,0.81492 -1.8869,0.81098 -2.7093,-0.0114 z m 10.0148,0.0108 -0.7423,-0.63864 v -10.36455 -10.36456 l 0.7423,-0.63847 c 0.9105,-0.78308 1.7447,-0.81132 2.6616,-0.0901 0.6889,0.54189 0.6971,0.5888 0.6971,3.96875 0,1.88121 0.082,3.42038 0.181,3.42038 0.1,0 0.6994,-0.25091 1.3329,-0.55758 0.9344,-0.45232 1.5214,-0.53892 3.1096,-0.45872 1.6555,0.0836 2.1307,0.22072 3.0786,0.88831 0.6164,0.4342 1.3978,1.31419 1.7364,1.95554 0.5876,1.11297 0.6157,1.41787 0.6157,6.69276 0,5.51503 0,5.52803 -0.6495,6.17609 -0.8224,0.8224 -1.7611,0.82629 -2.7092,0.0112 l -0.7424,-0.6382 -0.1323,-4.98419 c -0.085,-3.18673 -0.2479,-5.1858 -0.4529,-5.54322 -0.7194,-1.25443 -3.3021,-1.49207 -4.3902,-0.40396 -0.7379,0.73789 -0.9532,2.28943 -0.9662,6.96305 l -0.012,4.14798 -0.6971,0.54837 c -0.917,0.72126 -1.7511,0.69297 -2.6616,-0.0903 z m 19.0654,0.32918 c -0.3108,-0.1505 -0.6977,-0.56477 -0.8599,-0.92059 -0.4091,-0.89803 -0.41,-19.9232 0,-20.82104 0.5888,-1.29212 2.2811,-1.5919 3.2902,-0.58282 l 0.6494,0.64943 v 10.34281 10.3428 l -0.6494,0.64943 c -0.6834,0.68342 -1.4876,0.79596 -2.4293,0.33998 z m 11.9959,-0.0722 c -3.5512,-1.26675 -5.4715,-4.44458 -5.1448,-8.51407 0.3435,-4.27988 3.6704,-7.50848 7.737,-7.50848 3.9349,0 7.1539,3.01106 7.4733,6.9905 0.2046,2.54876 0.2371,2.5345 -5.7724,2.5345 -4.844,0 -5.0082,0.0175 -5.0082,0.53305 0,0.29318 0.3869,0.95431 0.8599,1.46919 1.4899,1.622 3.6758,1.70237 6.5594,0.24117 1.5966,-0.80909 1.8653,-0.81361 2.5887,-0.0436 0.805,0.85686 0.7176,1.67999 -0.2846,2.67911 -1.7762,1.77085 -6.3018,2.584 -9.0083,1.61858 z m 5.8985,-9.59456 c 0,-0.78631 -0.9794,-2.14075 -1.8825,-2.60775 -1.1629,-0.60136 -2.7237,-0.36391 -3.6893,0.56126 -0.7275,0.69691 -1.3949,2.05642 -1.1364,2.31485 0.07,0.0697 1.6078,0.1447 3.4179,0.16663 3.0046,0.0364 3.2912,-10e-4 3.2903,-0.43499 z m 9.8822,9.34684 -0.7317,-0.62934 v -5.58837 -5.58837 h -0.8442 c -1.2116,0 -2.05,-0.76766 -2.0193,-1.84889 0.032,-1.1087 0.5454,-1.62426 1.826,-1.83208 l 1.0102,-0.16392 0.053,-1.81703 c 0.062,-2.11441 0.6825,-3.06933 1.9947,-3.06933 1.6493,0 2.3177,1.04152 2.3177,3.61135 v 1.41573 h 1.0584 c 1.2843,0 2.1166,0.72076 2.1166,1.83288 0,0.98634 -1.0713,1.87129 -2.2655,1.87129 h -0.8712 l -0.085,5.57961 -0.085,5.57962 -0.7423,0.63809 c -0.9392,0.80723 -1.8064,0.81 -2.7379,0.009 z m 12.7253,-0.11687 c -2.8076,-1.35014 -4.3503,-3.8814 -4.3503,-7.13818 0,-4.96237 3.3008,-8.51978 7.9052,-8.51978 3.9551,0 7.4407,3.59761 7.4407,7.67993 0,1.75557 -0.293,1.84507 -6.0401,1.84507 -5.5353,0 -5.4841,-0.0169 -4.554,1.50851 1.2014,1.97033 3.9139,2.31125 6.7629,0.84999 1.6399,-0.8411 1.78,-0.86926 2.451,-0.49263 0.3915,0.2197 0.8256,0.72343 0.9649,1.11941 0.3526,1.00249 -0.412,1.96056 -2.3684,2.96784 -1.3437,0.69187 -1.8669,0.80382 -4.0753,0.87219 -2.3401,0.0724 -2.6563,0.0195 -4.1366,-0.69235 z m 6.7622,-9.18881 c 0,-0.76358 -0.8153,-1.99212 -1.6665,-2.51112 -1.6786,-1.02351 -3.7848,-0.42798 -4.6779,1.32269 -0.3051,0.59809 -0.4837,1.2024 -0.3968,1.34293 0.088,0.14214 1.6184,0.25551 3.4495,0.25551 2.7965,0 3.2917,-0.0617 3.2917,-0.41001 z m 8.6184,9.31705 -0.6809,-0.6809 v -6.61416 c 0,-4.38007 0.1017,-6.83734 0.3011,-7.2749 0.6006,-1.31815 2.6039,-1.40746 3.4811,-0.15518 0.2746,0.39208 0.4549,0.46983 0.5885,0.25373 0.6647,-1.07564 3.9026,-1.61938 6.0804,-1.02109 1.457,0.40029 3.1358,2.18512 3.5308,3.75404 0.3179,1.26242 0.425,9.8996 0.1361,10.97796 -0.1768,0.65998 -1.329,1.37846 -2.2106,1.37846 -0.3049,0 -0.8466,-0.29224 -1.2038,-0.64943 -0.6388,-0.63881 -0.6494,-0.72329 -0.6494,-5.16787 0,-4.9455 -0.2164,-5.96306 -1.4387,-6.76391 -0.9568,-0.62692 -2.6593,-0.37431 -3.5626,0.52861 -0.6823,0.68194 -0.6882,0.72415 -0.8195,5.83174 -0.1469,5.71252 -0.1895,5.84855 -1.9172,6.12891 -0.7908,0.12834 -1.0711,0.0382 -1.6353,-0.52601 z m -204.4848,-8.39922 c -3.0322,-0.72273 -4.6206,-2.88613 -4.3667,-5.94767 0.2076,-2.5032 2.1124,-4.414 4.7622,-4.77719 1.9069,-0.26137 2.0605,0.058 2.0605,4.28282 0,2.36145 0.096,3.55297 0.285,3.55297 0.1567,0 0.6329,-0.34803 1.0583,-0.77339 1.0674,-1.06746 1.1462,-2.75016 0.2143,-4.57687 -0.5818,-1.14042 -0.4721,-1.94706 0.298,-2.19149 2.0784,-0.65964 3.7465,4.47731 2.4096,7.42041 -0.4952,1.09025 -1.8155,2.39255 -2.7951,2.75714 -0.9969,0.37102 -2.9133,0.49465 -3.9261,0.25327 z m 0.3394,-5.40261 c 0,-2.72361 -0.092,-2.86085 -1.328,-1.98076 -0.9028,0.64279 -1.224,1.85605 -0.7771,2.93497 0.2838,0.68497 1.3078,1.51677 1.9066,1.54874 0.1092,0.006 0.1985,-1.1205 0.1985,-2.50295 z m 90.1932,-3.96865 c -2.1319,-1.15867 -1.2355,-4.36572 1.2203,-4.36572 2.4897,0 3.3547,3.24655 1.1665,4.3781 -0.9185,0.47499 -1.4955,0.472 -2.3868,-0.0124 z m -94.1986,-10.98497 c -0.7603,-0.44399 -0.8586,-1.57307 -0.1982,-2.27603 0.5647,-0.60103 0.5689,-0.64351 0.1147,-1.14538 -0.6018,-0.66503 -0.8235,-2.59415 -0.4338,-3.77495 0.1658,-0.50258 0.6635,-1.26084 1.1058,-1.68502 l 0.8043,-0.77125 4.3217,-0.0836 c 4.2483,-0.0822 4.329,-0.0733 4.7459,0.5219 0.5568,0.79491 0.535,1.17061 -0.1051,1.81066 -0.475,0.47508 -0.8819,0.52917 -3.9807,0.52917 -3.3119,0 -3.4779,0.0263 -4.1011,0.64943 -0.7936,0.79367 -0.8285,1.69739 -0.101,2.62218 0.534,0.67888 0.6258,0.69714 3.5074,0.69714 3.0457,0 4.6113,0.26862 4.9835,0.85506 0.3607,0.56817 0.2456,1.23715 -0.3081,1.79077 -0.49,0.49009 -0.8759,0.52857 -5.2255,0.52112 -2.583,-0.004 -4.8914,-0.12197 -5.1298,-0.2612 z m 2.2856,-19.93895 c -1.4769,-0.69646 -2.3395,-1.51804 -2.7605,-2.62934 -0.4484,-1.18337 -0.3363,-2.80946 0.2603,-3.77467 l 0.5425,-0.87779 -0.5425,-0.5425 c -0.6502,-0.65017 -0.6774,-1.026 -0.1307,-1.80655 0.4039,-0.57654 0.5215,-0.58792 6.0193,-0.58223 4.9038,0.005 5.744,0.0679 6.6964,0.50037 2.2561,1.02451 3.3472,3.73282 2.7865,6.91618 -0.4395,2.49505 -1.1863,3.39525 -2.5355,3.05661 -0.9205,-0.23102 -1.0189,-0.88909 -0.3974,-2.65738 0.9053,-2.57558 0.2389,-4.33956 -1.8025,-4.77133 -0.9981,-0.21112 -1.0538,-0.073 -0.3377,0.83746 1.2482,1.58684 0.9171,3.93416 -0.77,5.45833 -1.8006,1.62676 -4.6731,1.98349 -7.0282,0.87284 z m 4.7843,-2.93286 c 1.4701,-0.96321 1.3888,-2.73557 -0.1745,-3.80388 -1.339,-0.91499 -3.2292,-0.70073 -4.2897,0.48627 -1.1618,1.30026 -0.7385,2.82707 1.0027,3.61622 0.957,0.43374 2.5541,0.29597 3.4615,-0.29861 z m -3.3291,-16.83142 c -1.6044,-0.32104 -3.1357,-1.45133 -3.8823,-2.86549 -1.7527,-3.31985 0.4838,-7.32756 4.2641,-7.64105 1.3463,-0.11165 1.4765,-0.0726 1.6882,0.50663 0.1262,0.34518 0.2345,2.03308 0.2407,3.7509 0.01,1.71781 0.08,3.19246 0.1649,3.27698 0.2688,0.26884 1.507,-0.71374 1.7695,-1.40426 0.3968,-1.04365 0.2877,-2.51214 -0.2794,-3.76189 -0.6119,-1.34841 -0.3626,-2.16018 0.6635,-2.16018 1.7779,0 3.1044,3.98004 2.2134,6.64125 -0.9411,2.81084 -3.7009,4.28581 -6.8426,3.65711 z m 0.2646,-5.27127 c 0,-2.12908 -0.051,-2.38125 -0.4831,-2.38125 -0.8096,0 -1.7394,1.224 -1.7394,2.28971 0,0.73836 0.1911,1.12315 0.8508,1.71256 0.468,0.41813 0.968,0.76023 1.1112,0.76023 0.1516,0 0.2605,-0.99559 0.2605,-2.38125 z m -4.3507,-15.40471 c -0.5479,-0.78231 -0.5195,-1.15638 0.1378,-1.81367 0.3023,-0.30229 0.4762,-0.68924 0.3865,-0.85989 -0.09,-0.17065 -0.3353,-0.60793 -0.5458,-0.97173 -0.9308,-1.60939 -0.048,-4.627 1.5796,-5.39936 0.6826,-0.32394 1.7555,-0.42148 4.6359,-0.42148 2.0774,0 3.9758,0.12207 4.2595,0.2739 0.5933,0.31757 0.7143,1.87443 0.1801,2.31783 -0.1825,0.1514 -1.9792,0.3148 -3.9928,0.36312 -3.4764,0.0834 -3.6865,0.11936 -4.1662,0.71249 -0.6452,0.79771 -0.6452,1.92179 0,2.7195 0.4806,0.59421 0.6859,0.6288 4.2173,0.71049 3.9874,0.0922 4.3395,0.21405 4.3395,1.50163 0,1.39093 -0.2492,1.45521 -5.6398,1.45521 -4.8459,0 -4.9908,-0.0158 -5.3916,-0.58804 z m 7.9792,-19.15492 c -0.3392,-0.33924 -0.1997,-1.33223 0.3674,-2.6142 0.6414,-1.44995 0.4013,-2.51367 -0.5673,-2.51367 -0.4251,0 -0.7352,0.40906 -1.354,1.78594 -1.1494,2.55798 -1.8685,3.24114 -3.4114,3.24114 -2.1443,0 -3.4262,-1.55637 -3.4253,-4.15869 4e-4,-1.33033 0.635,-2.90061 1.3477,-3.33493 0.5173,-0.31526 1.72,-0.0456 1.9011,0.42622 0.073,0.19003 -0.043,0.81614 -0.257,1.39135 -0.6442,1.72967 -0.6798,2.1299 -0.2293,2.58034 0.6724,0.67243 1.0858,0.29659 2.0131,-1.83016 1.0527,-2.41443 1.7321,-3.01163 3.426,-3.01163 2.2032,0 3.4396,1.54612 3.4396,4.30107 0,0.9336 -0.2005,1.8052 -0.5953,2.58818 -0.5167,1.02467 -0.7188,1.19094 -1.5308,1.25928 -0.5145,0.0433 -1.0205,-0.006 -1.1245,-0.11024 z"
       id="path53" /></g><style
     id="style1">@media(prefers-color-scheme:dark){.lines{fill:#d7d7d7}}</style></svg>
