<?xml version="1.0" encoding="UTF-8" standalone="no"?>
<!-- Created with Inkscape (http://www.inkscape.org/) -->

<svg
   width="150.05597mm"
   height="152.39905mm"
   viewBox="0 0 150.05597 152.39905"
   version="1.1"
   id="svg1"
   xml:space="preserve"
   inkscape:version="1.4.4 (dcaf3e7, 2026-05-05)"
   sodipodi:docname="logos teams.svg"
   inkscape:export-batch-name="TV Mengen"
   inkscape:export-batch-path="Desktop/3 LIGA"
   xmlns:inkscape="http://www.inkscape.org/namespaces/inkscape"
   xmlns:sodipodi="http://sodipodi.sourceforge.net/DTD/sodipodi-0.dtd"
   xmlns="http://www.w3.org/2000/svg"
   xmlns:svg="http://www.w3.org/2000/svg"><sodipodi:namedview
     id="namedview1"
     pagecolor="#ffffff"
     bordercolor="#000000"
     borderopacity="0.25"
     inkscape:showpageshadow="2"
     inkscape:pageopacity="0.0"
     inkscape:pagecheckerboard="0"
     inkscape:deskcolor="#d1d1d1"
     inkscape:document-units="mm"
     inkscape:zoom="0.037190382"
     inkscape:cx="-4006.4122"
     inkscape:cy="-8779.1516"
     inkscape:window-width="1920"
     inkscape:window-height="1050"
     inkscape:window-x="0"
     inkscape:window-y="30"
     inkscape:window-maximized="0"
     inkscape:current-layer="layer1"><inkscape:page
       x="0"
       y="0"
       width="150.05597"
       height="152.39905"
       id="page1"
       margin="0"
       bleed="0" /></sodipodi:namedview><defs
     id="defs1"><style
       id="style1-7">
      .cls-1 {
        fill: #fff;
      }
    </style></defs><g
     inkscape:label="Ebene 1"
     inkscape:groupmode="layer"
     id="layer1"
     transform="translate(2041.8921,-409.07956)"><path
       style="fill:#ff0000"
       d="m -2009.0193,560.92083 -0.866,-0.53517 -0.5671,-1.22885 -0.5672,-1.22885 0.037,-2.91041 0.037,-2.91042 0.3884,-1.85208 c 0.2136,-1.01865 0.5068,-2.62599 0.6517,-3.57188 0.454,-2.96384 1.6891,-8.39473 2.0803,-9.14692 0.146,-0.2807 0.347,-1.07314 0.4468,-1.76097 0.1,-0.68784 0.278,-1.31027 0.396,-1.3832 0.118,-0.0729 0.2886,-0.59573 0.3791,-1.16179 0.091,-0.56605 0.3435,-1.37236 0.5623,-1.7918 0.2187,-0.41943 0.3984,-1.03432 0.3993,-1.36642 9e-4,-0.3321 0.1615,-0.98694 0.357,-1.45521 0.1954,-0.46827 0.4373,-1.32765 0.5374,-1.90973 0.328,-1.90652 1.0713,-4.16061 1.4156,-4.29273 0.1856,-0.0712 0.3375,-0.39167 0.3375,-0.71209 0,-0.32042 0.1748,-0.8137 0.3884,-1.09617 0.2137,-0.28248 0.393,-0.75172 0.3985,-1.04276 0.01,-0.29104 0.1696,-0.83476 0.3645,-1.20826 0.1949,-0.3735 0.4364,-1.02834 0.5366,-1.45521 0.1726,-0.7345 0.5597,-1.67717 1.387,-3.37724 0.2005,-0.41198 0.3646,-0.91843 0.3646,-1.12544 0,-0.20702 0.2381,-0.82068 0.5291,-1.3637 0.2911,-0.54302 0.5292,-1.12826 0.5292,-1.30052 0,-0.17226 0.1672,-0.65028 0.3717,-1.06225 0.2044,-0.41198 0.6315,-1.34436 0.9492,-2.07196 0.3177,-0.72761 0.9243,-2.00927 1.3481,-2.84814 0.4238,-0.83887 0.7706,-1.6875 0.7706,-1.88583 0,-0.19834 0.1709,-0.50248 0.3798,-0.67588 0.209,-0.17339 0.4566,-0.66422 0.5502,-1.09073 0.094,-0.42651 0.28,-0.77547 0.4139,-0.77547 0.134,0 0.2443,-0.14882 0.2452,-0.33073 9e-4,-0.1819 0.1933,-0.68791 0.4275,-1.12447 0.2342,-0.43657 0.9524,-1.80579 1.5961,-3.04271 0.6437,-1.23693 1.2707,-2.42756 1.3933,-2.64584 0.1227,-0.21828 0.4584,-0.93265 0.746,-1.5875 1.1886,-2.70575 2.0757,-4.32776 2.8435,-5.19889 0.1474,-0.16726 0.7443,-1.0874 1.3263,-2.04476 0.5821,-0.95736 1.1477,-1.74325 1.2568,-1.74642 0.1092,-0.003 0.1985,-0.1659 0.1985,-0.36163 0,-0.19573 0.2381,-0.57137 0.5291,-0.83476 0.2911,-0.26338 0.5292,-0.58664 0.5292,-0.71833 0,-0.1317 0.3869,-0.76185 0.8599,-1.40033 0.4729,-0.63848 1.2766,-1.77075 1.7859,-2.51616 0.5093,-0.74542 1.0451,-1.50083 1.1906,-1.6787 0.1456,-0.17787 0.4169,-0.5565 0.6029,-0.8414 1.6513,-2.52859 2.0188,-3.03153 2.2148,-3.03153 0.1238,0 0.2251,-0.12162 0.2251,-0.27027 0,-0.14864 0.5693,-1.01185 1.2651,-1.91823 1.2954,-1.68739 2.1744,-3.32968 2.1744,-4.06228 0,-0.22659 0.4168,-0.89882 0.9261,-1.49385 l 0.926,-1.08187 v -0.61384 c 0,-0.66308 -0.2555,-0.78163 -0.7085,-0.32868 -0.1568,0.15683 -0.6866,0.38681 -1.1774,0.51106 -1.1149,0.2823 -3.0119,0.95874 -4.1072,1.46457 -0.4585,0.21178 -1.0095,0.38505 -1.2244,0.38505 -0.2148,0 -0.5388,0.1786 -0.72,0.39688 -0.1811,0.21828 -0.5035,0.39687 -0.7164,0.39687 -0.2129,0 -1.233,0.41672 -2.2669,0.92604 -1.0338,0.50933 -2.0357,0.92605 -2.2263,0.92605 -0.1907,0 -0.3466,0.1228 -0.3466,0.27288 0,0.15009 -0.2041,0.3512 -0.4535,0.44691 -1.8923,0.72615 -5.4166,3.92223 -7.8131,7.08541 -2.2897,3.02229 -3.9215,4.17898 -10.3866,7.36238 -3.827,1.88442 -4.6438,2.22523 -5.8603,2.44505 -0.5603,0.10125 -1.2517,0.30482 -1.5364,0.45237 l -0.5176,0.26827 -5.4587,0.0673 -5.4588,0.0674 -1.2201,-0.75942 -1.2201,-0.75941 -0.1687,-0.89928 c -0.093,-0.49461 -0.1286,-1.18277 -0.08,-1.52926 l 0.089,-0.62997 0.7078,-0.0818 0.7077,-0.0818 1.2434,-1.42531 c 1.3686,-1.56891 2.937,-4.03537 3.1789,-4.99898 0.085,-0.33991 0.5012,-0.87391 0.9242,-1.18666 l 0.7691,-0.56864 1.2615,-0.15683 c 2.1214,-0.26373 3.8911,-0.8635 4.7906,-1.62362 0.4714,-0.39834 1.3585,-1.16907 1.9713,-1.71272 0.6128,-0.54365 1.2631,-0.99013 1.445,-0.99219 l 0.3307,-0.004 v -0.50811 -0.50811 l -1.6536,-0.17706 -1.6537,-0.17707 -1.9844,0.26446 c -2.4054,0.32057 -4.0037,0.73368 -5.4666,1.4129 -0.6055,0.28116 -1.6771,0.60306 -2.3812,0.71532 -0.7042,0.11227 -1.6007,0.37466 -1.9923,0.58309 -0.3915,0.20842 -2.0919,1.07853 -3.7786,1.93358 l -3.0666,1.55462 -0.9105,-0.14775 c -0.5008,-0.0813 -1.2075,-0.36413 -1.5704,-0.62858 l -0.6598,-0.48083 0.1452,-0.81919 0.1453,-0.81919 -0.4636,-0.46359 -0.4636,-0.4636 -1.741,0.18077 c -0.9576,0.0994 -2.2768,0.33782 -2.9317,0.52977 -0.6548,0.19194 -1.8791,0.49943 -2.7206,0.68331 l -1.5299,0.33432 -0.2578,-0.25781 -0.2578,-0.2578 0.8617,-0.64406 c 0.9469,-0.70774 4.6244,-2.63314 5.0293,-2.63314 0.1399,0 1.2268,-0.74414 2.4153,-1.65365 2.3627,-1.80796 2.8155,-2.11358 4.0004,-2.70013 0.4366,-0.21611 1.5082,-0.81243 2.3813,-1.32517 0.8731,-0.51273 1.8496,-1.04692 2.1699,-1.18708 0.3204,-0.14017 1.0943,-0.58602 1.7198,-0.99079 0.6256,-0.40477 1.435,-0.88606 1.7988,-1.06955 0.3638,-0.18348 1.0187,-0.57006 1.4552,-0.85907 0.4366,-0.289 1.0319,-0.64713 1.323,-0.79585 1.3192,-0.6741 3.452,-1.93292 3.5718,-2.10818 0.123,-0.17977 0.7431,-0.54009 2.3813,-1.38357 0.3638,-0.18732 0.8188,-0.4908 1.0111,-0.6744 0.1923,-0.18359 0.4625,-0.33381 0.6005,-0.33381 0.1381,0 0.7546,-0.32201 1.3702,-0.71557 0.6156,-0.39356 1.4764,-0.90903 1.913,-1.14548 2.1937,-1.18818 3.2909,-1.81817 4.4979,-2.58267 0.7276,-0.46084 1.4717,-0.84016 1.6536,-0.84292 0.1819,-0.003 0.3308,-0.11244 0.3308,-0.24373 0,-0.13128 0.3274,-0.36769 0.7276,-0.52534 0.4002,-0.15766 0.9062,-0.39822 1.1245,-0.53459 2.0131,-1.2577 3.3383,-1.89623 4.2318,-2.03911 0.5829,-0.0932 1.0598,-0.25608 1.0598,-0.36192 0,-0.15889 3.324,-1.90289 4.7625,-2.49878 0.2183,-0.0904 1.2303,-0.62529 2.249,-1.18862 1.0186,-0.56332 2.8641,-1.5427 4.101,-2.1764 1.237,-0.63369 2.3085,-1.22808 2.3813,-1.32086 0.073,-0.0928 0.549,-0.35802 1.0583,-0.58941 0.5093,-0.23139 1.9976,-1.00852 3.3073,-1.72695 1.3097,-0.71844 3.4528,-1.85365 4.7625,-2.52269 1.3097,-0.66905 2.917,-1.50425 3.5719,-1.856 1.8037,-0.96889 7.3956,-3.5873 7.661,-3.5873 0.1285,0 0.5707,-0.17107 0.9826,-0.38016 0.412,-0.20909 1.4039,-0.63291 2.2043,-0.94182 0.8004,-0.3089 1.8124,-0.72575 2.2489,-0.92632 1.9172,-0.88081 3.2037,-1.49881 3.5719,-1.71578 0.2183,-0.12863 1.3494,-0.66991 2.5136,-1.20284 1.1641,-0.53294 2.4537,-1.13621 2.8657,-1.34061 0.412,-0.2044 0.8882,-0.37567 1.0583,-0.38061 0.1701,-0.005 0.7855,-0.23902 1.3676,-0.52019 0.5821,-0.28117 1.2429,-0.51525 1.4685,-0.52019 0.2255,-0.005 0.5232,-0.1197 0.6614,-0.25504 0.2717,-0.26599 1.441,-0.70277 4.7493,-1.77418 1.1642,-0.37702 2.5077,-0.8506 2.9855,-1.05241 0.4779,-0.20181 1.0732,-0.36766 1.323,-0.36856 0.2497,-9e-4 0.795,-0.17949 1.2118,-0.39687 0.4169,-0.21739 0.9259,-0.39525 1.1311,-0.39525 0.2053,0 1.0508,-0.23812 1.8789,-0.52917 0.828,-0.29104 1.7639,-0.52916 2.0798,-0.52916 0.3158,0 0.9152,-0.17786 1.3321,-0.39525 0.4168,-0.21738 0.951,-0.39598 1.1872,-0.39687 0.2362,-9e-4 0.9779,-0.24426 1.6483,-0.54081 l 1.2189,-0.53918 1.9624,0.10983 c 2.2132,0.12386 2.5462,0.25307 2.5462,0.98787 v 0.51728 l -0.8599,0.80787 c -0.4729,0.44432 -1.3957,1.04934 -2.0505,1.34448 -3.673,1.65542 -5.027,2.51305 -7.5758,4.7985 -0.4559,0.40881 -1.0317,0.89153 -1.2795,1.07272 l -0.4505,0.32944 0.089,0.75876 0.089,0.75876 0.9046,0.30294 c 0.4976,0.16661 1.0666,0.54671 1.2644,0.84465 l 0.3597,0.54172 -0.8975,0.68453 c -0.4936,0.37649 -1.2145,0.7641 -1.6021,0.86137 -0.3875,0.0973 -0.8202,0.393 -0.9616,0.6572 l -0.2571,0.48036 0.414,0.41404 0.4141,0.41404 -0.084,0.72881 -0.084,0.72881 -0.5953,0.0845 c -0.6229,0.0885 -0.7822,0.43018 -0.3307,0.7092 0.4545,0.2809 0.2915,0.9231 -0.413,1.62759 -0.8547,0.85476 -0.6742,1.02625 1.0378,0.98585 l 1.3727,-0.0324 1.2357,-0.56291 c 0.6796,-0.30961 1.4733,-0.56292 1.7637,-0.56292 0.2904,0 0.596,-0.1099 0.679,-0.24423 0.083,-0.13432 0.5365,-0.322 1.0078,-0.41705 0.4713,-0.0951 1.3331,-0.32703 1.9152,-0.51549 0.5821,-0.18847 1.9146,-0.54451 2.961,-0.7912 l 1.9027,-0.44853 0.4786,0.24738 c 0.2632,0.13606 0.9253,0.32804 1.4714,0.42661 l 0.9928,0.17923 0.8593,-0.38384 c 0.4726,-0.21111 1.395,-0.44861 2.0498,-0.52778 0.6549,-0.0792 1.5479,-0.31484 1.9844,-0.52371 l 0.7938,-0.37976 5.2087,-0.44113 c 2.8648,-0.24262 5.6024,-0.55405 6.0837,-0.69207 2.9312,-0.84066 5.8561,0.41487 3.7888,1.62639 -1.5368,0.90065 -5.1118,2.6207 -5.4642,2.62901 -0.1962,0.005 -0.5877,0.18322 -0.8702,0.39688 -0.2825,0.21365 -0.6914,0.38846 -0.9087,0.38846 -0.7772,0 -3.938,1.58014 -5.335,2.66713 -0.515,0.40074 -1.6334,0.97359 -2.4853,1.273 -0.8519,0.29941 -1.7495,0.72599 -1.9948,0.94796 -0.2453,0.22196 -0.6425,0.40357 -0.8828,0.40357 -0.5933,0 -2.5995,0.79322 -3.1135,1.23108 -0.2294,0.19537 -0.9438,0.4539 -1.5875,0.57451 -0.6438,0.1206 -1.6565,0.52648 -2.2506,0.90195 -0.5941,0.37547 -1.487,0.80324 -1.9844,0.9506 -1.1686,0.34623 -2.5415,0.83582 -3.5901,1.28019 -0.4585,0.19434 -1.0354,0.35334 -1.282,0.35334 -0.2466,0 -0.7644,0.1684 -1.1507,0.37422 -0.3862,0.20581 -1.4762,0.63609 -2.4221,0.95616 -0.9458,0.32008 -2.0949,0.74699 -2.5535,0.9487 -0.4585,0.20172 -0.9393,0.36675 -1.0683,0.36675 -0.129,0 -1.2376,0.41672 -2.4636,0.92605 -1.2259,0.50932 -2.4121,0.92982 -2.6358,0.93445 -0.2238,0.005 -0.638,0.18322 -0.9205,0.39688 -0.2824,0.21365 -0.7294,0.38846 -0.9931,0.38846 -0.2638,0 -0.9239,0.23812 -1.4669,0.52916 -0.543,0.29105 -1.1338,0.52917 -1.313,0.52917 -0.3391,0 -1.8204,0.59843 -3.0302,1.22424 -0.3863,0.19979 -0.8626,0.364 -1.0584,0.36489 -0.1958,9e-4 -0.6754,0.16827 -1.0658,0.37194 -0.3904,0.20367 -1.075,0.45052 -1.5214,0.54856 -0.4463,0.098 -0.8115,0.27495 -0.8115,0.39313 0,0.11818 -0.3275,0.2943 -0.7276,0.39137 -0.4002,0.0971 -1.2039,0.39186 -1.786,0.65507 -0.5821,0.26321 -1.5346,0.68173 -2.1167,0.93004 -1.3212,0.56364 -2.1218,0.9268 -4.6627,2.11505 -1.1093,0.51877 -2.1021,0.94321 -2.2062,0.94321 -0.1042,0 -0.7924,0.52744 -1.5293,1.17209 -0.7369,0.64464 -1.6417,1.24785 -2.0107,1.34045 -1.1737,0.29459 -2.8377,3.44348 -3.478,6.58166 -0.1149,0.56342 -0.3116,1.0992 -0.4371,1.19062 -0.308,0.22447 -0.817,1.04373 -1.2952,2.08445 -0.2173,0.47295 -0.5126,0.8599 -0.6562,0.8599 -0.1435,0 -0.261,0.12686 -0.261,0.28191 0,0.15506 -0.5732,1.25638 -1.2738,2.4474 -0.7005,1.19101 -1.3582,2.34407 -1.4616,2.56236 -0.1033,0.21828 -0.6488,1.23031 -1.2121,2.24895 -0.5633,1.01865 -1.525,2.86412 -2.1371,4.10105 -0.6121,1.23692 -1.2206,2.42755 -1.3523,2.64583 -0.1317,0.21828 -0.3058,0.57547 -0.3869,0.79375 -0.081,0.21828 -0.3124,0.75406 -0.514,1.19062 -0.2016,0.43657 -0.5444,1.21047 -0.7617,1.7198 -0.2173,0.50932 -0.6247,1.34276 -0.9052,1.85208 -0.2806,0.50932 -0.7718,1.52135 -1.0917,2.24896 -0.3199,0.7276 -0.752,1.63894 -0.9603,2.0252 -0.7669,1.42211 -0.4441,2.52511 0.4334,1.48053 l 0.5,-0.59531 0.2776,0.39687 c 0.2996,0.42839 0.225,1.25553 -0.2267,2.51354 -0.1567,0.43656 -0.5379,1.68672 -0.8471,2.77813 -0.3092,1.0914 -0.7304,2.32144 -0.9359,2.73342 -0.2056,0.41197 -0.3745,0.94775 -0.3754,1.19062 -9e-4,0.24287 -0.1795,0.78261 -0.3969,1.19943 -0.2174,0.41682 -0.3952,0.89483 -0.3952,1.06225 0,0.16742 -0.2382,0.7487 -0.5292,1.29172 -0.291,0.54302 -0.5292,1.21128 -0.5292,1.48504 0,0.27375 -0.1656,0.63519 -0.3681,0.80321 -0.2024,0.16803 -0.4292,0.62909 -0.504,1.02459 -0.1431,0.75703 -0.8209,2.73383 -1.2445,3.62951 -0.3253,0.68772 -1.0205,2.66105 -1.3516,3.83646 -0.1435,0.50932 -0.3644,1.16416 -0.4909,1.45521 -0.3474,0.79937 -0.8034,2.91947 -0.8034,3.73582 v 0.72336 l -0.9466,0.95234 -0.9467,0.95233 -0.5217,1.44828 c -0.2869,0.79656 -0.6256,1.84979 -0.7525,2.34053 -0.127,0.49073 -0.3592,1.02056 -0.5161,1.17739 -0.1568,0.15684 -0.2851,0.69845 -0.2851,1.20359 v 0.91844 l 0.4081,0.45091 0.408,0.45092 -0.7705,0.64839 c -1.2983,1.09245 -2.5549,3.84964 -2.8203,6.18858 -0.098,0.8598 -0.2831,1.92047 -0.4123,2.35703 -0.1292,0.43657 -0.3556,2.10344 -0.503,3.70417 -0.4263,4.62653 -0.8352,7.37984 -1.1537,7.76728 -0.3612,0.4395 -0.7227,1.06711 -1.6878,2.93068 -0.4095,0.79064 -1.3675,2.06063 -2.1288,2.82219 l -1.3842,1.38464 -0.7956,0.17474 c -0.4375,0.0961 -0.8634,0.28463 -0.9465,0.41895 -0.083,0.13433 -0.7094,0.23437 -1.392,0.22231 l -1.2412,-0.0219 z"
       id="path283"
       sodipodi:nodetypes="ccccccssssscssssssscssssssssssssssssssssssssssssssssscssssssssssssssscccccsccccssscsssscccccssssscsscccccssscccsssssssssssssssssssssssssssssssssssssssssssssssssssscsscsssscccsscssscccccsssscsssssscsscssscssssssssssssssssssssssssssssssssssssssssssssssssssssssscssssssssssssssscccsssscccscssssscssscc" /></g><style
     id="style1">@media(prefers-color-scheme:dark){.lines{fill:#d7d7d7}}</style></svg>
