<?xml version="1.0" encoding="UTF-8" standalone="no"?>
<!-- Created with Inkscape (http://www.inkscape.org/) -->

<svg
   width="158.75mm"
   height="177.1192mm"
   viewBox="0 0 158.75 177.1192"
   version="1.1"
   id="svg1"
   xml:space="preserve"
   inkscape:version="1.4.4 (dcaf3e7, 2026-05-05)"
   sodipodi:docname="logos teams.svg"
   inkscape:export-batch-name="logos teams"
   inkscape:export-batch-path="Desktop"
   xmlns:inkscape="http://www.inkscape.org/namespaces/inkscape"
   xmlns:sodipodi="http://sodipodi.sourceforge.net/DTD/sodipodi-0.dtd"
   xmlns="http://www.w3.org/2000/svg"
   xmlns:svg="http://www.w3.org/2000/svg"><sodipodi:namedview
     id="namedview1"
     pagecolor="#ffffff"
     bordercolor="#000000"
     borderopacity="0.25"
     inkscape:showpageshadow="2"
     inkscape:pageopacity="0.0"
     inkscape:pagecheckerboard="0"
     inkscape:deskcolor="#d1d1d1"
     inkscape:document-units="mm"
     inkscape:zoom="0.69712823"
     inkscape:cx="489.14961"
     inkscape:cy="355.02794"
     inkscape:window-width="1920"
     inkscape:window-height="1050"
     inkscape:window-x="0"
     inkscape:window-y="30"
     inkscape:window-maximized="0"
     inkscape:current-layer="layer1"><inkscape:page
       x="0"
       y="0"
       width="158.75"
       height="177.1192"
       id="page1"
       margin="0"
       bleed="0" /></sodipodi:namedview><defs
     id="defs1" /><g
     inkscape:label="Ebene 1"
     inkscape:groupmode="layer"
     id="layer1"
     transform="translate(-515.87928,17.558292)"><path
       style="fill:#000000"
       d="m 588.5074,159.26752 c -38.23844,-3.30578 -68.89816,-33.94983 -72.35237,-72.315392 -0.1773,-1.96928 -0.27427,-20.94089 -0.27485,-53.77656 l -9e-4,-50.73386 h 79.375 79.375 l -9.1e-4,50.73386 c -5.9e-4,33.20899 -0.0966,51.78489 -0.27783,53.77656 -3.96392,43.552352 -42.5504,76.058112 -85.84314,72.315392 z m 16.00729,-4.21606 c 34.03463,-4.4548 59.64861,-29.62563 65.52889,-64.395162 l 0.46984,-2.77813 0.0794,-50.8 0.0794,-50.8 h -75.4186 -75.41859 l 0.0836,50.66771 0.0836,50.66771 0.4386,2.66208 c 6.36708,38.644802 36.79652,65.139422 74.81353,65.139422 3.97463,0 7.557,-0.14067 9.26041,-0.36363 z m -44.56534,-18.15922 c -0.0813,-0.61847 -0.17786,-2.82129 -0.21465,-4.89517 l -0.0669,-3.77069 1.27588,3.8e-4 1.27589,3.7e-4 -0.15152,3.10886 -0.15151,3.10885 1.08049,-3.10885 1.08049,-3.10886 h 1.30087 1.30087 l 0.0241,2.71198 0.0241,2.71198 0.84372,-2.64583 0.84371,-2.64584 1.24886,-0.0806 c 1.53937,-0.0994 1.58997,-0.53635 -0.57625,4.97544 l -1.81975,4.63021 -1.35257,0.08 -1.35257,0.08 -0.0173,-2.72581 -0.0173,-2.72581 -0.95101,2.71198 -0.95101,2.71198 h -1.26446 -1.26445 z m 6.72993,-2.97657 c 0,-0.0728 -0.0595,-0.13229 -0.1323,-0.13229 -0.0728,0 -0.13229,0.0595 -0.13229,0.13229 0,0.0728 0.0595,0.1323 0.13229,0.1323 0.0728,0 0.1323,-0.0595 0.1323,-0.1323 z m 2.12329,3.78481 c 0.004,-0.18987 0.88436,-2.36929 1.95714,-4.84314 l 1.95052,-4.49792 1.61473,-0.0788 c 1.18458,-0.0578 1.61682,0.0127 1.62256,0.26459 0.004,0.18884 0.18043,2.01023 0.39138,4.04752 0.21095,2.03729 0.38602,4.09112 0.38905,4.56406 l 0.005,0.8599 h -1.17541 -1.17541 l -0.0814,-1.12448 -0.0814,-1.12448 -1.09779,-0.08 -1.0978,-0.0801 -0.37809,1.13839 -0.3781,1.13838 -1.23609,0.0806 c -0.8838,0.0577 -1.2342,-0.0178 -1.22946,-0.26458 z m 5.26635,-5.57074 -0.0187,-1.65365 -0.472,1.05943 c -0.91121,2.04525 -0.92652,2.24786 -0.16991,2.24786 h 0.67929 z m 3.19369,5.68019 c 0,-0.11374 0.35579,-2.2271 0.79064,-4.69636 0.43486,-2.46926 0.79204,-4.57886 0.79375,-4.688 0.002,-0.10914 0.53889,-0.19844 1.19373,-0.19844 1.42493,0 1.3891,-0.46577 0.39688,5.15938 -0.43637,2.47385 -0.79347,4.52768 -0.79357,4.56406 -10e-5,0.0364 -0.53596,0.0661 -1.19081,0.0661 -0.65484,0 -1.19062,-0.0931 -1.19062,-0.20679 z m 3.8225,-0.0804 c -0.19457,-0.31483 1.17439,-8.97416 1.47329,-9.31921 0.10179,-0.11752 0.83975,-0.28124 1.6399,-0.36382 3.44816,-0.35588 5.51221,1.77783 3.74799,3.87448 l -0.69341,0.82407 0.4649,0.51371 c 1.23271,1.36213 0.11188,3.91423 -1.97346,4.49354 -1.2672,0.35203 -4.43714,0.33653 -4.65921,-0.0228 z m 4.22839,-2.24528 c 0.49716,-0.49716 0.52948,-0.95219 0.0983,-1.3834 -0.36568,-0.36567 -1.53459,-0.43117 -1.53459,-0.086 0,0.12734 -0.0744,0.60359 -0.16536,1.05834 l -0.16537,0.82682 h 0.67564 c 0.37159,0 0.86273,-0.1871 1.0914,-0.41577 z m 0.60973,-4.28559 c 0.39481,-0.50173 -0.006,-1.11947 -0.72721,-1.11947 -0.49834,0 -0.78966,0.50261 -0.78966,1.36238 0,0.61773 0.96069,0.46389 1.51687,-0.24291 z m 2.71646,6.391 c 0,-0.52451 1.28857,-8.25729 1.48299,-8.89953 0.11985,-0.39589 2.48576,-0.75472 2.48576,-0.37701 0,0.16514 -1.06291,6.13662 -1.19739,6.72701 l -0.13561,0.59531 h 1.59254 1.59255 v 0.77211 c 0,1.56834 -0.0779,1.60914 -3.07102,1.60914 -2.3542,0 -2.74982,-0.0614 -2.74982,-0.42703 z m 6.36669,-0.30058 c 0.009,-0.40018 0.34301,-2.57307 0.74185,-4.82864 l 0.72516,-4.10104 1.25129,-0.081 1.2513,-0.081 -0.1399,0.61016 c -0.0769,0.3356 -0.44182,2.39611 -0.81085,4.57892 -0.838,4.95681 -0.69912,4.63021 -1.9689,4.63021 h -1.06664 z m 3.50088,0.1323 c 0.0744,-0.32743 0.46532,-2.5354 0.86861,-4.90662 l 0.73326,-4.31131 1.46247,0.078 1.46246,0.078 0.69494,2.70936 0.69494,2.70936 0.32775,-2.18019 c 0.52739,-3.50822 0.45695,-3.37082 1.72811,-3.37082 h 1.11399 l -0.74573,4.29948 c -0.41015,2.36471 -0.80915,4.57374 -0.88668,4.90894 l -0.14095,0.60946 -1.23577,-0.0803 -1.23577,-0.0803 -0.72611,-2.7364 c -0.39935,-1.50501 -0.77097,-2.87101 -0.82582,-3.03555 -0.0548,-0.16454 -0.31854,1.0966 -0.58598,2.80254 l -0.48626,3.1017 h -1.1764 -1.17641 z m 10.97654,0.0693 c -2.14884,-1.17179 -2.57153,-4.68882 -0.8603,-7.15813 1.86346,-2.68897 7.81435,-3.38395 7.04707,-0.82299 l -0.30599,1.02129 -1.32084,-0.12692 c -2.4552,-0.23591 -3.70821,0.83977 -3.70821,3.18341 0,1.48197 0.44707,2.07886 1.59948,2.13547 1.11762,0.0549 1.56226,-1.21367 0.52085,-1.48601 -0.54476,-0.14246 -0.56849,-0.52606 -0.12216,-1.97482 0.0992,-0.32191 3.03918,-0.49684 3.33745,-0.19857 0.22799,0.22799 -0.6893,5.12069 -1.02206,5.45153 -0.59844,0.59498 -4.05953,0.57872 -5.16529,-0.0243 z m 6.52015,-0.20161 c 0.27202,-1.28337 1.47077,-8.38859 1.47309,-8.73125 0.002,-0.24462 0.76807,-0.33073 2.94351,-0.33073 h 2.94128 l -0.15954,0.59531 c -0.0877,0.32742 -0.16116,0.80367 -0.16315,1.05833 -0.003,0.39224 -0.26181,0.46303 -1.69256,0.46303 h -1.68895 l -0.12645,0.66145 -0.12644,0.66146 h 1.4029 c 1.62162,0 1.72127,0.0902 1.46937,1.32946 l -0.1869,0.9195 -1.43975,0.0821 c -1.44654,0.0824 -1.83662,0.32826 -1.84412,1.16208 -0.003,0.36823 0.29764,0.46477 1.6496,0.52917 l 1.65364,0.0788 -0.0923,0.92604 c -0.13417,1.3455 -0.0787,1.32291 -3.25159,1.32291 h -2.91582 z m 6.76699,0.44148 c 0,-0.38555 0.96433,-6.19033 1.34802,-8.1144 l 0.277,-1.38906 h 1.42401 1.42402 l 0.27478,0.99219 c 0.15113,0.5457 0.48132,1.82562 0.73375,2.84427 l 0.45896,1.85208 0.19424,-1.5875 c 0.10683,-0.87312 0.29094,-2.12328 0.40915,-2.77812 l 0.21491,-1.19063 1.1185,-0.0814 c 0.61517,-0.0448 1.11837,0.0148 1.11821,0.13229 -1.5e-4,0.11751 -0.35734,2.27903 -0.79375,4.80338 -0.4364,2.52435 -0.79346,4.63771 -0.79346,4.69636 0,0.0586 -0.56723,0.10662 -1.2605,0.10662 h -1.2605 l -0.72388,-2.6083 c -0.39813,-1.43457 -0.72387,-2.82363 -0.72387,-3.08681 0,-1.15866 -0.34351,0.0536 -0.76397,2.69607 l -0.45614,2.86675 -1.10974,0.0814 c -0.73022,0.0535 -1.10974,-0.0269 -1.10974,-0.23519 z M 545.71616,122.0904 c -2.49327,-2.10572 -2.09349,-4.82323 2.1965,-14.9309 3.02098,-7.11776 4.64031,-11.325695 5.99455,-15.577205 0.73643,-2.31195 3.55764,-10.32585 4.4434,-12.62189 l 0.17401,-0.45105 -1.07279,0.42141 -1.07278,0.4214 -0.64464,-0.42238 c -3.66514,-2.40149 -1.00904,-7.3468 4.54836,-8.46845 l 1.67328,-0.33772 1.31813,-3.02899 c 14.88712,-34.20997 35.16523,-55.56822 50.46216,-53.1501 7.95606,1.25768 11.21614,16.79285 5.79852,27.63152 -4.10166,8.20592 -6.95723,9.08483 -4.5623,1.40423 2.10642,-6.75536 2.30515,-7.7499 2.31611,-11.59069 0.0716,-25.0865996 -28.37606,-2.63979 -42.92044,33.86667 l -1.8447,4.63021 0.84818,0.22268 c 5.94843,1.56174 6.19947,3.21099 0.60835,3.99664 -3.50361,0.49233 -2.98041,-0.59052 -7.29355,15.09526 -4.81164,17.498755 -6.57907,22.378775 -9.8506,27.198345 -3.33607,4.91465 -8.75512,7.68808 -11.11975,5.69101 z m 29.95895,-5.86726 c -12.69195,-2.77295 -9.93278,-18.640275 8.54055,-49.114805 9.03208,-14.89976 10.25329,-16.96055 11.37928,-19.20259 0.66335,-1.32085 1.40342,-3.04726 1.64458,-3.83646 1.17621,-3.84901 1.91527,-4.90989 3.59585,-5.16166 1.31456,-0.19693 2.41125,0.59949 3.28517,2.38571 l 0.725,1.48184 -0.13061,2.97231 c -0.24232,5.51453 -4.77592,15.22181 -13.8068,29.56293 -6.76557,10.7438 -10.15837,22.436 -7.43057,25.607085 l 0.61847,0.71897 4.19006,-0.0217 c 8.66912,-0.045 16.30876,-1.930985 38.32131,-9.460475 7.33589,-2.50928 10.87511,-3.31631 15.47813,-3.52943 4.30648,-0.19938 5.93952,0.51715 2.84508,1.24834 -5.34351,1.26263 -13.58587,4.83575 -33.53675,14.538435 -23.93011,11.63789 -28.93635,13.29336 -35.71875,11.81154 z m 82.13695,-3.87105 c 0.0869,-1.09141 0.27738,-3.29406 0.42336,-4.89479 4.72889,-51.855485 -15.71977,-89.641755 -61.72051,-114.0509146 -2.72639,-1.44669 -4.95881,-2.72005 -4.96094,-2.82969 -0.002,-0.10964 16.87325,-0.16917 37.50083,-0.13229 l 37.50468,0.067 0.0767,44.4499996 c 0.0772,44.76061 -0.005,49.99688 -0.87557,55.82709 -1.08845,7.28892 -4.43032,17.355415 -7.45071,22.443335 l -0.65572,1.10458 z M 639.55819,16.506825 c 0.056,-0.1819 0.17083,-0.64699 0.25509,-1.03353 l 0.15321,-0.7028 1.52254,0.40455 c 1.25357,0.33309 1.79241,0.35001 3.05025,0.0958 0.84024,-0.16981 1.66835,-0.22183 1.84025,-0.11559 0.1719,0.10624 1.80615,0.20918 3.63166,0.22875 1.82552,0.0196 4.0335,0.12466 4.90663,0.23353 l 1.5875,0.19795 -0.5073,-0.4104 c -0.27901,-0.22573 -1.20174,-0.54703 -2.05052,-0.71402 -0.84877,-0.16699 -1.54322,-0.38443 -1.54322,-0.4832 0,-0.38519 0.71565,-1.02133 1.91822,-1.70511 1.43915,-0.81829 1.59766,-1.22145 0.48025,-1.22145 -1.13191,0 -2.04316,0.41191 -3.52973,1.59553 -1.43798,1.14494 -3.40446,1.49375 -3.72418,0.66059 -0.20767,-0.54119 1.0021,-1.90024 2.30903,-2.59394 l 1.0912,-0.57919 -0.75958,-0.0913 c -1.26193,-0.15172 -2.01119,0.17825 -3.43643,1.51336 -1.75786,1.64671 -2.39265,1.96479 -3.50477,1.75615 -1.5248,-0.28605 -1.09382,-1.27727 1.22942,-2.82757 0.97483,-0.65051 0.51566,-0.8058196 -1.02751,-0.34754 -1.12511,0.33412 -1.54688,0.64256 -2.35043,1.71889 -1.05519,1.41338 -1.60711,1.61636 -2.12784,0.78254 -0.18176,-0.29105 -0.55956,-0.52917 -0.83957,-0.52917 -0.53227,0 -0.96621,0.85504 -0.67394,1.32794 0.0933,0.15089 -0.0849,0.48042 -0.39598,0.73229 -0.75604,0.6122 -0.46538,1.37935 0.52262,1.37935 0.51207,0 0.7765,0.16029 0.87296,0.52917 0.15219,0.58198 0.93832,0.72378 1.10017,0.19844 z m -3.34189,-6.23101 c 0.10516,-1.0944496 0.85516,-1.4354896 2.39569,-1.0893496 0.87503,0.1966 1.39995,0.13926 2.60619,-0.2847 1.05876,-0.37212 2.18627,-0.53088 3.77034,-0.53088 1.24293,0 2.6175,-0.10257 3.05459,-0.22792 0.52731,-0.15123 1.28346,-0.10084 2.24722,0.14977 0.8025,0.20868 1.90309,0.30822 2.45942,0.22244 0.59806,-0.0922 1.47154,0.002 2.1511,0.23319 1.5499,0.52621 5.17634,0.84993 5.17634,0.46207 0,-0.407 -0.87169,-0.83063 -2.755,-1.33889 -2.06214,-0.55652 -2.06714,-0.9922 -0.0231,-2.0142 l 1.5875,-0.79375 -1.43075,-0.0814 c -1.26448,-0.072 -1.58731,0.0247 -2.77812,0.83197 -3.2724,2.21834 -5.32088,1.06524 -2.27342,-1.27972 1.78905,-1.37664 1.89194,-1.53269 0.85989,-1.30419 -1.84944,0.40947 -2.60905,0.7942 -3.93002,1.99048 -1.52215,1.37847 -2.16397,1.65071 -3.57399,1.51602 -1.80086,-0.17203 -1.31576,-1.33258 1.49175,-3.5689 l 1.05132,-0.83743 -1.19062,0.24843 c -2.01091,0.41959 -2.58396,0.76722 -3.69882,2.24385 -1.56988,2.07928 -3.36012,2.84335 -3.9741,1.69612 -0.35285,-0.65932 -0.0388,-1.32895 1.28806,-2.74615 l 0.9609,-1.02636 -0.79375,0.18256 c -1.4932,0.34345 -2.70217,1.38476 -3.61867,3.11686 -0.92052,1.73968 -1.63674,2.2147 -1.9328,1.28188 -0.31514,-0.99292 -1.45999,-0.45485 -1.45999,0.68618 0,0.32747 -0.18936,0.70137 -0.42081,0.8309 -0.73538,0.41154 -0.37392,1.5243396 0.46695,1.4375596 0.52192,-0.0539 0.75351,0.0717 0.88262,0.47845 0.294,0.92632 1.30195,0.57825 1.4041,-0.48487 z m 0.17199,-7.1691996 c 0.0876,-0.27597 0.12538,-0.66292 0.084,-0.85989 -0.0584,-0.27764 0.57883,-0.38896 2.83514,-0.4953 1.62433,-0.0766 3.17816,-0.28778 3.51632,-0.478 0.42841,-0.24099 1.13859,-0.28833996 2.42436,-0.16164 1.14533,0.11285 2.31803,0.0593 3.16806,-0.14457996 1.14038,-0.27358 1.51003,-0.25958 2.38438,0.0903 0.70312,0.28134 1.45407,0.36438 2.343,0.2591 0.85188,-0.1009 1.75869,-0.0114 2.59959,0.25666 0.71026,0.22638 1.94622,0.49404 2.74658,0.5948 0.80037,0.10076 1.7231,0.28452 2.05052,0.40835 0.32742,0.12384 0.59532,0.1275 0.59532,0.008 0,-0.49501 -1.03781,-1.09369 -2.39206,-1.37991 -0.79442,-0.1679 -1.66395,-0.42028988 -1.93229,-0.56085988 l -0.4879,-0.25559 0.62019,-0.67258 c 0.3411,-0.36992 1.36432,-1.00961012 2.27383,-1.42153012 2.06809,-0.93664 2.08416,-1.15271 0.0688,-0.9247 -2.12178,0.24005 -3.06045,0.5968 -3.55457,1.35093 -0.66025,1.00766012 -3.04692,1.50845012 -3.97049,0.83312012 l -0.47979,-0.35083 0.88328,-1.00600012 c 0.48581,-0.5533 1.39333,-1.22463 2.01672,-1.49185 1.53239,-0.65686 1.4385,-1.00302 -0.20173,-0.74373 -1.40637,0.22232 -2.72298,0.90185 -3.57703,1.84619 -1.08913,1.20427012 -3.2284,1.87946012 -4.45887,1.40729012 -1.00033,-0.38387012 0.18878,-2.06391012 2.33008,-3.29206012 l 1.35245,-0.77571 -1.00273,-0.002 c -1.45562,-0.004 -2.78547,0.78742 -4.35226,2.58879 -1.44587,1.66236012 -3.22967,2.46335012 -4.55152,2.04382012 -1.16376,-0.36936 -0.0444,-2.47343012 2.08534,-3.91992012 0.88965,-0.60424 0.61635,-0.73794 -0.6302,-0.30831 -1.4929,0.51455 -2.23695,1.14438 -3.59026,3.03916 -1.32167,1.85048012 -1.72391,2.12740012 -1.96891,1.35549012 -0.37979,-1.19663012 -1.88777,-0.61881 -1.58047,0.60559 0.11612,0.46264988 0.0221,0.64032988 -0.39663,0.74983988 -0.30185,0.0789 -0.54882,0.32907 -0.54882,0.55586 0,0.50344 0.87857,1.0125 1.40127,0.81191 0.23692,-0.0909 0.43515,0.0597 0.52356,0.39783 0.1808,0.69135 1.15822,0.72149 1.37377,0.0424 z M 656.00965,81.128165 C 647.55362,34.336075 624.2921,9.4124554 576.33657,-4.2377846 c -9.50102,-2.7044 -16.31083,-4.80578 -16.65552,-5.13959 -0.15314,-0.14829 3.80068,-0.24341 10.11821,-0.24341 h 10.36958 l 3.50782,1.48295 c 1.9293,0.81563 4.93657,2.08035 6.68282,2.8105 39.71863,16.6073296 60.06336,42.6836296 65.7607,84.2869796 0.63211,4.61578 0.56602,5.91228 -0.11053,2.16852 z m -118.69912,0.81494 c -4.47749,-0.89775 -7.66657,-6.22542 -8.83335,-14.75693 -1.37037,-10.02023 -0.5846,-16.4827 3.8056,-31.29862 2.17268,-7.33232 2.85941,-10.44979 3.18621,-14.46405 0.44066,-5.41307 1.5946,-8.02554 3.54491,-8.02554 4.93551,0 6.15064,14.26466 2.40036,28.17813 -2.41337,8.95354 -3.41393,18.43428 -2.14919,20.36453 l 0.4389,0.66984 1.64755,-0.003 c 5.4454,-0.009 9.70593,-5.02085 21.18478,-24.92282 11.77341,-20.41267 15.67166,-25.55861 26.08758,-34.4372296 4.28303,-3.65088996 2.97425,-0.50809 -10.17677,24.4376296 -3.0303,5.74808 -8.1597,15.80886 -11.39867,22.3573 -10.48834,21.20496 -17.89602,30.01875 -26.77438,31.85663 -1.5261,0.31592 -1.60047,0.31701 -2.96353,0.0437 z M 534.52246,7.0311054 c -1.49789,-0.4356 -2.37131,-1.66487 -2.37131,-3.33742 v -1.46746 l 1.25146,-1.13302 c 1.05965,-0.95935996 1.19213,-1.18224996 0.86442,-1.45421996 -1.66597,-1.38264004 -0.51627,-4.65132004 1.97025,-5.60155004 4.52902,-1.73078 8.46203,3.16187 4.4856,5.58007004 -0.61489,0.37394 -0.70234,0.51931 -0.38554,0.64088 4.73888,1.81847996 -0.77345,8.23881996 -5.81488,6.77271996 z m 3.58182,-2.62897 c 1.00095,-1.00096 0.29872,-2.91042 -1.07036,-2.91042 -0.71839,0 -1.84006,1.14929 -1.84006,1.88537 0,1.41474 1.86417,2.0713 2.91042,1.02505 z m 1.05226,-6.33867 c 0.67091,-1.2536 -0.12757,-2.35104 -1.46615,-2.01508 -1.29252,0.3244 -1.51006,2.17758 -0.31947,2.72153 0.69584,0.31792004 1.38287,0.0461 1.78562,-0.70645 z m 6.88524,8.77532 c -5.48768,-2.99881 -0.79624,-13.01998 6.09534,-13.01998 1.40434,0 1.44721,0.0565 1.15437,1.52069 l -0.15862,0.79308 -1.30665,0.15476 c -1.49377,0.17691 -3.22588,1.05789 -3.79865,1.93206 l -0.39073,0.59633 0.91376,-0.3818 c 3.52183,-1.47151 6.14367,2.35504004 4.19623,6.12436 -1.19885,2.32038 -4.54774,3.4594 -6.70505,2.2805 z m 3.26177,-2.44812 c 1.17997,-0.92817 1.25991,-3.11357 0.13588,-3.71512996 -1.79836,-0.96246 -3.57416,2.22717996 -2.07474,3.72659996 0.66866,0.66866 1.07729,0.66624 1.93886,-0.0115 z m -25.39394,2.20815 c 0.32012,-1.11187 1.7935,-9.39437 1.68965,-9.49822 -0.0625,-0.0626 -0.56161,0.0734 -1.109,0.30211 -1.18343,0.49446 -1.14169,0.52147 -1.24943,-0.80846 l -0.0855,-1.05565 1.5875,-0.7623 c 1.5719,-0.7548 3.46893,-1.15514 4.18026,-0.88218 0.30114,0.11556 0.14243,1.31713 -0.86932,6.58146004 l -1.23773,6.44009996 -1.52186,0.08 -1.52186,0.08 z m 30.75423,-0.54304 c 0.0987,-0.5457 0.19336,-1.00163 0.21043,-1.01318 0.59065,-0.39953 4.30219,-3.41927 5.08151,-4.13436996 3.01847,-2.76971004 2.20726,-5.48020004 -1.30408,-4.35732004 -1.56687,0.50106 -1.42906,0.56675 -1.64507,-0.78409 l -0.17187,-1.07483 1.13248,-0.45313 c 7.13476,-2.85476 9.59017,4.09371 3.1558,8.93051 l -1.61097,1.21099 2.19454,0.077 2.19454,0.077 -0.0744,0.66146 c -0.0409,0.3638 -0.13246,0.92935 -0.20348,1.25677 l -0.12913,0.59531 h -4.50486 -4.50487 z"
       id="path193" /></g><style
     id="style1">@media(prefers-color-scheme:dark){.lines{fill:#d7d7d7}}</style></svg>
