<?xml version="1.0" encoding="UTF-8" standalone="no"?>
<!-- Created with Inkscape (http://www.inkscape.org/) -->

<svg
   width="575.58868mm"
   height="155.757mm"
   viewBox="0 0 575.58868 155.757"
   version="1.1"
   id="svg1"
   xml:space="preserve"
   inkscape:version="1.4.4 (dcaf3e7, 2026-05-05)"
   sodipodi:docname="logos teams.svg"
   inkscape:export-batch-name="logos teams"
   inkscape:export-batch-path="Desktop/3 LIGA"
   xmlns:inkscape="http://www.inkscape.org/namespaces/inkscape"
   xmlns:sodipodi="http://sodipodi.sourceforge.net/DTD/sodipodi-0.dtd"
   xmlns="http://www.w3.org/2000/svg"
   xmlns:svg="http://www.w3.org/2000/svg"><sodipodi:namedview
     id="namedview1"
     pagecolor="#ffffff"
     bordercolor="#000000"
     borderopacity="0.25"
     inkscape:showpageshadow="2"
     inkscape:pageopacity="0.0"
     inkscape:pagecheckerboard="0"
     inkscape:deskcolor="#d1d1d1"
     inkscape:document-units="mm"
     inkscape:zoom="0.037190382"
     inkscape:cx="-4006.4122"
     inkscape:cy="-8779.1516"
     inkscape:window-width="1920"
     inkscape:window-height="1050"
     inkscape:window-x="0"
     inkscape:window-y="30"
     inkscape:window-maximized="0"
     inkscape:current-layer="layer1"><inkscape:page
       x="0"
       y="0"
       width="575.58868"
       height="155.757"
       id="page1"
       margin="0"
       bleed="0" /></sodipodi:namedview><defs
     id="defs1"><style
       id="style1-7">
      .cls-1 {
        fill: #fff;
      }
    </style></defs><g
     inkscape:label="Ebene 1"
     inkscape:groupmode="layer"
     id="layer1"
     transform="translate(1203.5861,749.53735)"><path
       style="fill:#000000;stroke-width:0.613008"
       d="m -908.88348,-594.05461 c -0.5799,-0.12453 -1.6684,-0.52964 -2.419,-0.90022 l -1.3648,-0.6738 -1.0692,-1.07374 -1.0693,-1.07372 -0.5212,-1.06438 c -0.2866,-0.58541 -0.6049,-1.45463 -0.7072,-1.9316 l -0.1859,-0.86722 0.069,-1.3196 0.069,-1.3196 0.5082,-1.08593 0.5081,-1.08593 0.785,-0.78496 0.7849,-0.78495 1.049,-0.51136 c 0.5769,-0.28125 1.5233,-0.63352 2.1031,-0.78282 l 1.0543,-0.27145 2.0679,4.2e-4 2.068,4.2e-4 v -3.52584 -3.52584 l 0.2742,-0.10523 c 0.1508,-0.0579 0.7757,-0.0558 1.3888,0.005 l 1.1146,0.10983 0.3986,-0.21332 0.3985,-0.2133 0.1884,0.18832 c 0.1035,0.10358 0.2606,0.64585 0.349,1.20505 l 0.1607,1.01673 0.013,10.01997 0.013,10.01997 -0.6282,0.16922 c -0.3456,0.0931 -1.1731,0.27345 -1.839,0.40085 l -1.2106,0.23163 -1.6482,-0.0129 -1.6482,-0.0129 z m 3.5297,-1.99125 0.2048,-0.13 -0.043,-5.90916 -0.043,-5.90916 -1.6219,0.007 -1.622,0.007 -0.8212,0.42683 c -1.5686,0.81521 -2.6934,2.51546 -2.9616,4.47682 l -0.1372,1.00314 0.1372,1.00315 c 0.3275,2.39497 1.8199,4.26118 3.945,4.93326 0.7301,0.2309 2.6493,0.29045 2.9621,0.0919 z m 35.88747,0.59203 c -0.9284,-1.5362 -1.85304,-3.37204 -5.80748,-11.53061 l -1.39729,-2.88288 -0.1569,0.28023 -0.1568,0.28023 -0.023,6.73853 -0.023,6.73854 -0.2648,0.86828 c -0.1457,0.47756 -0.305,0.90844 -0.3541,0.95751 -0.1585,0.15855 -0.612,-1.13729 -0.951,-2.71785 l -0.3305,-1.54082 -0.014,-3.9737 c -0.01,-2.18553 0.019,-6.07206 0.059,-8.63671 l 0.073,-4.66302 h 2.28945 2.2895 l 2.84974,5.79836 c 1.56735,3.1891 3.05376,6.30926 3.30312,6.9337 0.24937,0.62444 0.50849,1.19991 0.57584,1.27883 l 0.12244,0.14348 0.88434,-1.35992 c 0.48639,-0.74796 1.87533,-3.36705 3.08655,-5.8202 l 2.2022,-4.46027 0.90243,-1.25699 0.90242,-1.25699 h 1.77944 1.77944 v 10.46137 10.46138 h -2.18959 -2.18959 v -7.57436 -7.57436 l -0.14733,0.15408 c -0.68713,0.71864 -4.54467,8.2272 -6.66193,12.96724 -0.63754,1.42729 -1.21778,2.65477 -1.28943,2.72774 l -0.13027,0.13266 z m -60.94077,1.13456 c -0.413,-0.51468 -0.8476,-1.6078 -1.0224,-2.57184 l -0.1892,-1.04369 0.1182,-5.1695 0.1183,-5.1695 0.7449,-0.47241 c 0.4097,-0.25982 1.0208,-0.54669 1.358,-0.63749 l 0.6132,-0.1651 0.6058,0.10612 c 1.5389,0.26957 2.5864,1.28708 5.0404,4.89608 0.8944,1.31523 1.8785,2.63522 2.187,2.93332 l 0.561,0.542 0.2186,-0.6231 0.2186,-0.62308 v -3.68158 -3.68157 l 0.1987,-0.1989 0.1987,-0.19888 0.4248,0.92789 0.4248,0.9279 0.2458,1.41174 0.2458,1.41175 -0.083,3.64932 c -0.046,2.00712 -0.1746,4.47548 -0.2863,5.48524 l -0.2031,1.83592 -0.4208,-0.10403 c -0.2315,-0.0572 -0.8876,-0.33295 -1.458,-0.61274 l -1.0372,-0.50871 -0.9907,-0.97989 c -0.9403,-0.92994 -1.3768,-1.53448 -3.87,-5.35908 l -1.0572,-1.62192 -0.9005,-0.85151 c -1.1182,-1.05739 -1.1788,-1.05592 -1.4051,0.0338 l -0.1838,0.88535 0.051,4.42644 0.051,4.42643 -0.1744,0.29408 -0.1744,0.29409 z m 136.3342,0.0188 c -5.84898,-0.85926 -8.59033,-5.90521 -5.93433,-10.92319 l 0.52206,-0.98634 0.97315,-0.9752 c 1.5483,-1.55156 3.28027,-2.39866 5.33465,-2.60914 l 1.00163,-0.10261 0.96776,0.1974 c 1.30236,0.26565 2.61362,0.9854 3.62109,1.98761 l 0.83291,0.82855 -0.26269,0.29026 -0.26269,0.29027 -0.71515,-0.49204 c -1.09294,-0.75196 -2.39633,-1.29423 -3.3465,-1.39229 l -0.85844,-0.0886 -0.84623,0.36404 -0.84623,0.36403 -0.50954,0.58034 c -0.67904,0.77338 -1.22905,2.01225 -1.53672,3.46136 l -0.25235,1.18858 0.0939,1.05749 c 0.25663,2.88987 1.5525,4.79101 3.51569,5.15777 l 0.72999,0.13638 0.98559,-0.20105 c 1.164,-0.23743 1.98471,-0.63025 3.59896,-1.72259 1.44658,-0.97888 1.47473,-0.96089 0.7533,0.48117 l -0.57444,1.14823 -0.5958,0.52312 c -1.47507,1.29513 -3.79753,1.81724 -6.38957,1.43645 z m 156.16381,-2.05642 c -1.1865,-2.14575 -2.42096,-4.7502 -3.63237,-7.66357 -0.94678,-2.27695 -4.42915,-11.2184 -4.42915,-11.37245 v -0.14316 h 2.39481 2.39481 l 0.301,0.8515 c 0.23112,0.65381 3.70659,8.97155 5.02515,12.02655 l 0.20302,0.47038 0.66376,-1.28134 c 0.36506,-0.70474 1.11762,-2.5586 1.67234,-4.1197 1.61,-4.53085 2.68958,-6.43698 4.42176,-7.80716 l 0.84555,-0.66882 0.0486,0.24451 c 0.0811,0.40802 -1.94234,5.62543 -3.93425,10.14416 -2.17987,4.94508 -3.23662,7.5606 -3.99456,9.88677 -0.29793,0.91436 -0.58795,1.66247 -0.64451,1.66247 -0.0565,0 -0.65774,-1.00357 -1.33599,-2.23014 z m -423.23493,-1.29754 c -2.4337,-4.99825 -7.6607,-17.1605 -7.6607,-17.82494 0,-0.0359 1.102,-0.045 2.4488,-0.0204 l 2.4487,0.0448 1.0105,2.51397 c 1.754,4.36417 4.3882,10.04675 4.7654,10.27983 0.2013,0.12447 0.7652,-0.95017 1.0919,-2.08107 l 0.2788,-0.96508 -0.088,-1.22451 -0.088,-1.22451 -0.4368,-1.3693 c -0.2402,-0.75311 -0.9035,-2.38509 -1.474,-3.62663 -0.5706,-1.24154 -1.0374,-2.28579 -1.0374,-2.32057 0,-0.0348 1.1985,-0.0632 2.6633,-0.0632 h 2.6633 l 0.107,0.48711 c 0.3157,1.43731 4.9785,12.16385 5.2876,12.16385 0.1678,0 1.3308,-2.73343 2.3165,-5.44423 1.2758,-3.5086 1.4821,-4.0188 2.4056,-5.94974 0.9719,-2.03217 0.9921,-2.04467 1.2604,-0.78072 l 0.2043,0.96285 -0.1155,0.9429 c -0.1535,1.2524 -0.5499,2.39847 -1.7796,5.14382 -1.1298,2.52253 -2.4401,6.04159 -3.9766,10.68019 -0.554,1.6726 -1.0682,3.0411 -1.1426,3.0411 -0.5106,0 -2.6933,-4.23336 -4.0765,-7.90662 -0.4787,-1.27105 -0.9149,-2.31111 -0.9694,-2.31124 -0.1941,-4.5e-4 -1.2678,2.56685 -2.173,5.19567 -0.9802,2.84657 -1.9118,5.02219 -2.1504,5.02219 -0.08,0 -0.883,-1.51447 -1.7842,-3.36548 z m 213.1635,3.25896 c -1.26625,-0.14116 -2.3639,-0.46263 -3.36908,-0.98669 l -1.0984,-0.57267 -0.83106,-0.91063 -0.83105,-0.91061 -0.0824,-2.75726 c -0.0453,-1.5165 -0.0894,-3.74258 -0.0979,-4.94686 l -0.0155,-2.18958 0.3402,-0.64877 0.3402,-0.64877 0.55054,-0.32168 0.55054,-0.32168 0.89337,0.005 c 0.49135,0.002 1.09693,0.0583 1.34573,0.12362 l 0.45237,0.11874 -0.12799,1.2523 c -0.0704,0.68877 -0.12692,2.38359 -0.12563,3.76628 l 0.002,2.51397 0.22232,1.13534 c 0.44276,2.26102 1.34593,4.05475 2.28654,4.54116 l 0.47087,0.2435 h 0.71548 0.71547 l 0.87231,-0.46609 c 0.47977,-0.25636 1.07065,-0.71252 1.31306,-1.0137 l 0.44076,-0.5476 0.2502,-0.96668 0.2502,-0.96669 0.003,-3.16921 0.003,-3.16921 0.22908,-1.0808 c 0.12599,-0.59445 0.34221,-1.29962 0.48051,-1.56704 l 0.25143,-0.48623 0.32764,0.0857 0.32762,0.0857 -10e-4,4.64411 -10e-4,4.64409 -0.16641,1.05425 c -0.0915,0.57984 -0.27849,1.39846 -0.41547,1.81917 l -0.24905,0.76492 -0.9214,0.57884 c -1.42238,0.89357 -3.72912,1.4471 -5.30056,1.27192 z m 172.0985,-0.073 c -0.52808,-0.077 -1.40843,-0.3498 -1.95631,-0.60619 l -0.99616,-0.46615 -0.8077,-0.80771 -0.80771,-0.80771 -0.59971,-1.14125 -0.59971,-1.14126 -0.34234,-1.43933 -0.34234,-1.43932 0.0756,-2.35178 0.0756,-2.35179 0.25298,-0.89444 c 0.48801,-1.72548 0.9737,-2.81194 1.80381,-4.03496 l 0.83747,-1.23388 0.99539,-0.75426 c 0.54747,-0.41484 1.42049,-0.91511 1.94005,-1.11172 l 0.94464,-0.35747 1.30592,-0.085 1.30593,-0.085 0.96476,0.27516 c 2.88613,0.82314 4.85011,3.55291 5.43522,7.5545 l 0.19747,1.3505 -0.0987,1.7968 -0.0987,1.79681 -0.31801,1.19408 c -0.1749,0.65673 -0.60558,1.7934 -0.95708,2.52593 l -0.63907,1.33186 -1.01393,1.0839 -1.01394,1.0839 -0.99725,0.47594 -0.99725,0.47595 -1.0511,0.17053 c -1.16826,0.18954 -1.15262,0.18958 -2.49785,-0.007 z m 2.58348,-1.90702 c 1.35336,-0.61482 2.32029,-2.24359 2.85344,-4.80656 l 0.30364,-1.45973 0.002,-2.05003 0.002,-2.05003 -0.25447,-1.34145 c -0.47789,-2.51923 -1.46313,-4.48938 -2.59484,-5.18882 l -0.51391,-0.31761 h -0.75932 -0.75932 l -0.43798,0.22945 c -1.6,0.83822 -2.76479,3.44913 -3.12906,7.01386 l -0.16837,1.64769 0.17735,1.5905 c 0.31672,2.84039 0.94903,4.63336 2.07799,5.89228 l 0.60412,0.67368 0.64877,0.22751 c 0.85875,0.30114 1.17266,0.29135 1.94769,-0.0607 z m -373.01558,1.81627 c -0.6723,-0.6723 0.3678,-4.68314 2.8531,-11.00201 0.6666,-1.6949 1.3013,-3.35775 1.4104,-3.6952 l 0.1984,-0.61356 1.7265,0.0459 1.7264,0.0459 0.9131,2.27068 c 1.0878,2.7052 2.7506,7.38193 3.7627,10.58301 l 0.7308,2.31124 h -1.8339 -1.8338 l -0.489,-1.17589 c -0.2689,-0.64674 -0.5391,-1.3766 -0.6004,-1.62192 l -0.1114,-0.44603 h -3.2065 -3.2066 l -0.1712,0.44603 c -0.094,0.24532 -0.2861,0.86091 -0.4266,1.36799 l -0.2554,0.92196 -0.4259,0.33502 c -0.4551,0.35793 -0.5895,0.39803 -0.7607,0.2269 z m 7.2138,-5.18331 0.5909,-0.0977 -0.2945,-0.6709 c -0.162,-0.36898 -0.4919,-1.36426 -0.7331,-2.21171 -0.5107,-1.79411 -0.8525,-2.52479 -1.436,-3.06937 l -0.4212,-0.3932 v 0.20039 c 0,0.11023 -0.4302,1.30898 -0.9561,2.66389 -0.5258,1.35492 -1.0053,2.6974 -1.0655,2.98328 l -0.1095,0.5198 1.1872,0.0562 c 2.4008,0.11366 2.6583,0.1152 3.2378,0.0194 z m 8.9784,5.04132 c -0.5352,-0.11965 -1.2651,-0.32038 -1.6219,-0.44606 l -0.6488,-0.22852 v -0.30806 -0.30806 l 2.5197,-0.10334 2.5196,-0.10333 1.0394,-0.26628 1.0394,-0.26628 0.5363,-0.40905 0.5363,-0.40905 v -0.32418 c 0,-1.42885 -1.2619,-2.20158 -4.7578,-2.91341 -3.2505,-0.66187 -4.1628,-1.57787 -4.1628,-4.17972 v -0.89775 l 0.3339,-0.68965 c 0.6182,-1.27711 2.2239,-2.39753 4.1578,-2.90123 l 0.9288,-0.24194 h 1.4773 1.4773 l 0.881,0.2587 c 3.3175,0.97424 3.0486,1.63508 -0.6337,1.55741 l -2.3255,-0.049 -0.9016,0.18716 -0.9015,0.18716 -0.3918,0.39174 -0.3917,0.39174 0.051,0.5098 0.051,0.5098 0.7906,0.54345 0.7905,0.54344 2.3088,0.73386 2.3089,0.73385 0.7279,0.4616 c 1.2596,0.79881 1.7516,1.80179 1.7489,3.56546 v 1.0706 l -0.3807,0.81758 -0.3807,0.81759 -0.5314,0.44715 c -0.731,0.61505 -1.5466,1.0096 -2.7108,1.31128 l -0.9869,0.25571 -1.7607,-0.0163 -1.7607,-0.0163 z m 12.4182,0.0824 c -0.8311,-0.17333 -3.0692,-0.90682 -3.3933,-1.1121 l -0.2201,-0.13938 0.201,-0.12422 c 0.1105,-0.0683 1.5963,-0.15175 3.3017,-0.18539 l 3.1007,-0.0612 0.8407,-0.24176 c 0.4624,-0.13296 1.0646,-0.43007 1.3381,-0.66025 l 0.4974,-0.4185 v -0.32063 c 0,-0.41943 -0.2664,-0.92441 -0.7756,-1.47061 l -0.4117,-0.44144 -0.9877,-0.31906 c -0.5433,-0.17548 -1.6005,-0.43995 -2.3493,-0.58771 -1.6784,-0.3312 -2.515,-0.61926 -3.2965,-1.13512 l -0.6033,-0.39819 -0.3503,-1.15327 -0.3502,-1.15327 0.093,-0.89768 0.093,-0.89769 0.4555,-0.73322 0.4554,-0.73323 0.79,-0.54301 c 0.4344,-0.29866 1.3103,-0.70471 1.9463,-0.90235 l 1.1563,-0.35935 1.7841,0.006 1.7841,0.006 0.7298,0.19681 c 0.9073,0.24464 2.9195,1.17927 2.9195,1.35602 v 0.13085 h -2.8303 -2.8304 l -0.852,0.18271 -0.8519,0.1827 -0.4536,0.45359 -0.4536,0.45359 v 0.41693 0.41694 l 0.6587,0.47715 c 0.7107,0.51486 1.9941,1.03532 4.2662,1.73021 l 1.4377,0.4397 0.7516,0.51801 0.7518,0.51801 0.4596,0.87619 0.4597,0.87619 -0.054,1.31051 -0.054,1.3105 -0.4866,0.77755 c -0.5885,0.9405 -1.4565,1.58915 -2.7572,2.06056 l -0.9732,0.35269 -2.1085,0.0452 c -1.1596,0.0249 -2.4322,-0.0223 -2.8277,-0.10475 z m 13.6135,0.0771 c -0.1337,-0.0291 -0.8728,-0.1364 -1.6424,-0.23839 l -1.3992,-0.18542 -0.1783,-1.16198 c -0.3008,-1.95966 -0.3584,-4.06714 -0.229,-8.37951 l 0.124,-4.13589 1.1059,-0.36951 1.1059,-0.36951 1.6514,-0.12769 1.6513,-0.12768 1.3491,0.11713 c 1.71902,0.14925 3.43562,0.87535 3.43562,1.45318 v 0.15394 l -2.5545,6e-4 -2.55452,6.1e-4 -0.5312,0.32385 c -0.8464,0.51606 -1.0711,1.6979 -0.6744,3.54748 l 0.1731,0.80685 0.4621,0.16111 0.4621,0.16112 1.1329,-0.17535 1.1329,-0.17535 0.48162,0.19948 0.4815,0.19947 0.1833,0.40215 c 0.1007,0.22118 0.1832,0.54469 0.1832,0.7189 v 0.31675 h -2.27582 -2.2757 l -0.1159,0.28384 c -0.1567,0.3841 -0.1479,2.66489 0.015,3.80027 l 0.1319,0.92136 0.8087,0.17343 c 0.4448,0.0954 1.7904,0.17343 2.99032,0.17343 h 2.1816 v 0.14539 c 0,0.08 -0.2497,0.36463 -0.5549,0.63259 l -0.5548,0.48719 -0.8318,0.17838 -0.83172,0.17837 -1.8978,-0.0188 c -1.0438,-0.0104 -2.0072,-0.0427 -2.141,-0.0718 z m 7.38982,-0.2338 c 0.052,-0.1338 0.1787,-0.64471 0.2814,-1.13534 l 0.1867,-0.89205 -0.034,-6.09554 -0.034,-6.09555 0.2,-0.27147 0.2,-0.27149 1.2164,-0.25773 1.2164,-0.25773 2.0274,0.0785 2.0274,0.0785 1.1354,0.36092 c 2.2556,0.71704 3.8059,1.73871 4.6442,3.06059 l 0.4648,0.73292 v 0.86835 0.86836 l -0.235,0.45445 c -0.3365,0.65087 -1.2779,1.42821 -2.3368,1.92979 -0.5034,0.23843 -0.94,0.447 -0.9701,0.46347 -0.03,0.0165 0.4526,0.82033 1.0727,1.78635 1.2277,1.91276 1.6481,2.68578 2.1417,3.93799 l 0.3228,0.81897 h -2.4151 -2.415 l -0.5224,-0.93261 c -0.2873,-0.51292 -0.9778,-1.66246 -1.5346,-2.55451 -1.0551,-1.69071 -1.7548,-2.99603 -2.1277,-3.96902 l -0.2192,-0.57236 0.086,1.70302 c 0.1046,2.06888 0.3761,5.17613 0.483,5.52785 l 0.078,0.25663 -0.3437,0.31105 -0.3437,0.31105 h -2.1743 -2.1743 z m 8.0335,-8.00011 0.7149,-0.3771 0.3717,-0.6366 0.3717,-0.63659 -0.061,-0.85311 -0.061,-0.8531 -0.4903,-0.60663 c -0.8314,-1.0287 -2.2336,-1.55644 -3.3745,-1.27008 l -0.4277,0.10734 -0.2301,0.55073 c -0.2435,0.58282 -0.6691,4.4101 -0.5083,4.57093 0.1749,0.1749 1.1584,0.34798 2.0724,0.36471 l 0.907,0.0166 z m 32.7152,8.08386 c -0.7762,-0.11281 -1.5172,-0.24576 -1.6467,-0.29545 l -0.2354,-0.0903 -0.1657,-0.78158 c -0.2792,-1.31724 -0.3595,-4.31604 -0.2315,-8.64788 l 0.1222,-4.13589 1.1059,-0.36951 1.1059,-0.36951 1.6514,-0.12808 1.6514,-0.12809 1.4032,0.12384 c 1.7966,0.15855 3.3814,0.84626 3.3814,1.46729 v 0.13392 h -2.8407 -2.8408 l -0.3046,0.50095 -0.3046,0.50094 -0.1102,1.02832 c -0.061,0.56557 -0.06,1.36398 0,1.77425 l 0.1118,0.74594 0.3459,0.19732 0.3458,0.19733 1.8469,-0.0353 c 1.0158,-0.0194 1.9384,0.0175 2.0503,0.082 l 0.2034,0.11725 -0.1851,0.56708 -0.1851,0.56708 -0.6055,0.19827 -0.6056,0.19826 -1.4983,-0.13825 c -0.8241,-0.0761 -1.602,-0.0985 -1.7287,-0.0498 l -0.2304,0.0884 0.1008,1.63627 c 0.056,0.89995 0.1492,1.98592 0.2082,2.41326 l 0.1073,0.77698 0.342,0.19089 0.342,0.1909 2.7393,0.0864 2.7393,0.0864 -0.4789,0.51184 -0.4788,0.51184 -0.8707,0.25857 -0.8707,0.25857 -2.0385,-0.0178 c -1.1212,-0.01 -2.6736,-0.11007 -3.4498,-0.22287 z m 13.5254,-0.0771 c -1.4124,-0.38276 -2.5656,-0.98322 -3.4133,-1.77725 l -0.6205,-0.5812 -0.024,-1.05425 c -0.013,-0.57984 -0.1469,-1.8571 -0.2976,-2.83836 l -0.274,-1.78411 -0.012,-2.18959 -0.012,-2.18959 0.4055,-0.80253 c 0.4649,-0.92007 0.9803,-1.34966 1.8563,-1.54723 l 0.6147,-0.13864 0.7952,0.12571 c 1.0333,0.16334 0.9873,0.0406 0.7086,1.88971 -0.4231,2.8066 -0.2193,5.85356 0.5594,8.3636 l 0.3346,1.07857 0.6528,0.9776 0.6528,0.9776 0.7221,0.34954 0.722,0.34955 0.5294,-0.11427 c 0.7389,-0.1595 1.635,-0.63607 2.3095,-1.22824 l 0.5726,-0.5028 0.2636,-0.90665 0.2636,-0.90666 -0.076,-3.00928 c -0.042,-1.6551 -0.02,-3.57605 0.05,-4.26877 l 0.1259,-1.25949 0.3926,-0.849 c 0.216,-0.46695 0.5331,-1.01952 0.7048,-1.22792 l 0.3122,-0.37893 -0.019,5.73126 -0.019,5.73125 -0.253,0.95278 c -0.4056,1.52707 -1.0655,2.19053 -2.8558,2.87108 l -0.9176,0.34879 -1.7841,0.0645 -1.7841,0.0645 z m 46.8425,0.23196 c -0.1338,-0.0265 -0.8805,-0.13482 -1.6594,-0.24081 l -1.416,-0.19269 -0.1648,-0.59188 c -0.091,-0.32553 -0.2443,-1.59726 -0.3416,-2.82605 l -0.1768,-2.23417 0.1815,-3.11816 c 0.1702,-2.92559 0.3937,-5.0979 0.5395,-5.24368 0.035,-0.0351 0.7877,-0.17296 1.6724,-0.3063 l 1.6085,-0.24244 2.0421,-10e-4 2.0422,-10e-4 0.7777,0.23404 0.7776,0.23405 0.4646,0.44507 c 0.2555,0.24478 0.4645,0.5044 0.4645,0.57691 v 0.13185 l -2.4734,2.5e-4 -2.4734,2.6e-4 -0.5632,0.28358 -0.5632,0.28358 -0.2181,0.72986 -0.2181,0.72987 0.086,1.0128 c 0.1583,1.86854 0.351,2.01964 2.4031,1.88409 l 1.5751,-0.10405 0.4118,0.26979 0.4117,0.26978 v 0.56393 0.56393 h -2.2676 -2.2676 l -0.1247,0.44603 c -0.1583,0.56609 -0.151,2.64266 0.013,3.6489 l 0.1254,0.76998 0.355,0.19789 0.3551,0.19789 2.7572,0.0864 2.7573,0.0864 -0.5004,0.51292 -0.5005,0.51291 -0.8671,0.2575 -0.867,0.25749 -1.9574,-0.0188 c -1.0766,-0.0104 -2.0669,-0.0405 -2.2007,-0.0669 z m 75.33808,-0.0246 c -0.96674,-0.21659 -1.93088,-0.61466 -2.35681,-0.97306 l -0.48154,-0.4052 v -10.60914 -10.60915 h 1.62712 1.62713 l 0.56246,0.23501 0.56246,0.23501 -0.003,1.34637 c -0.002,0.74049 -0.14709,2.98854 -0.32306,4.99567 l -0.31996,3.64931 -10e-4,2.78355 -10e-4,2.78353 0.2353,1.22981 c 0.35119,1.83547 0.86509,2.83451 1.75658,3.41479 l 0.45107,0.2936 0.92273,0.0997 0.92273,0.0997 -0.57445,0.57388 -0.57444,0.57388 -0.65598,0.19653 -0.65597,0.19654 -1.19762,-0.0188 c -0.65869,-0.0104 -1.34359,-0.0515 -1.522,-0.0915 z m 54.90193,-0.13752 c -0.75824,-0.11571 -1.47167,-0.21677 -1.58538,-0.22456 -0.27291,-0.0187 -0.47989,-0.59354 -0.69212,-1.92211 l -0.17394,-1.08877 0.11553,-5.33249 0.11552,-5.3325 0.57381,-0.23975 c 0.3156,-0.13187 1.08313,-0.34595 1.70563,-0.47575 l 1.13182,-0.23599 1.89674,-0.008 1.89674,-0.008 0.90199,0.18725 0.902,0.18726 0.66063,0.47855 c 0.36334,0.26321 0.66062,0.55109 0.66062,0.63973 v 0.16118 l -2.55452,6e-4 -2.55452,6.1e-4 -0.53117,0.32385 c -0.84426,0.51475 -1.09296,1.92029 -0.68027,3.84461 l 0.1672,0.77961 1.52376,-0.14753 1.52375,-0.14754 0.50719,0.21009 0.50719,0.21008 0.31583,0.61909 c 0.17371,0.3405 0.31584,0.65643 0.31584,0.70207 0,0.0457 -1.00269,0.10328 -2.2282,0.1281 l -2.2282,0.0451 -0.22858,0.47744 c -0.12572,0.26259 -0.26294,0.95761 -0.30493,1.54449 l -0.0763,1.06706 0.19046,0.91744 0.19046,0.91745 0.80983,0.17368 c 0.44541,0.0955 1.84629,0.1755 3.11308,0.17773 l 2.30325,0.004 -0.66245,0.62551 -0.66245,0.62551 -0.84581,0.18139 -0.84581,0.1814 -1.89777,-0.0187 c -1.04377,-0.0103 -2.51815,-0.1134 -3.2764,-0.22911 z m 66.33734,0.004 c -0.005,-1.20282 1.80552,-3.38469 5.50021,-6.62962 3.98056,-3.49599 5.41571,-5.17868 6.07628,-7.12433 l 0.26263,-0.77356 -0.004,-1.00803 -0.004,-1.00803 -0.29536,-0.65016 c -0.16245,-0.35759 -0.56131,-0.88366 -0.88636,-1.16906 l -0.591,-0.51891 -0.69145,-0.18661 c -0.3803,-0.10263 -1.14293,-0.18418 -1.69473,-0.18121 l -1.00329,0.006 -0.74135,0.32793 -0.74136,0.32794 -1.78712,1.8333 -1.78713,1.8333 -0.15561,-0.24329 c -0.0856,-0.13381 -0.15673,-0.66586 -0.1581,-1.18235 l -0.002,-0.93906 0.31483,-0.61712 c 0.64719,-1.2686 2.1882,-2.22666 4.36108,-2.71132 l 1.18879,-0.26516 1.97395,0.0748 1.97395,0.0748 1.0408,0.3607 c 1.31834,0.45689 2.3389,1.15678 2.88076,1.97558 l 0.42395,0.64063 -0.10745,1.52852 -0.10744,1.52852 -0.40483,1.39699 c -0.81187,2.80155 -1.71577,4.12004 -5.54346,8.08593 -1.54264,1.59833 -2.80479,3.00556 -2.80479,3.12718 v 0.22114 l 0.52712,0.0288 c 0.28992,0.0158 2.05983,0.0341 3.93315,0.0405 l 3.40603,0.0118 0.68932,0.30144 c 0.37912,0.1658 0.68931,0.35654 0.68931,0.42388 0,0.24634 -1.90527,0.96838 -3.00511,1.13885 l -1.13078,0.17527 -5.7976,-0.0466 -5.79761,-0.0466 z m 46.54817,0.15754 c -0.13381,-0.0265 -0.87928,-0.13464 -1.6566,-0.2404 l -1.4133,-0.19228 -0.0834,-0.26791 c -0.0458,-0.14735 -0.15654,-0.77882 -0.24594,-1.40325 l -0.16256,-1.13535 -0.003,-5.40115 -0.003,-5.40116 0.59257,-0.24758 c 0.3259,-0.13618 1.147,-0.35518 1.82465,-0.48667 l 1.2321,-0.23907 1.98659,-0.003 1.98658,-0.003 0.88153,0.25626 c 0.82977,0.24122 1.87626,0.92734 1.87626,1.23013 v 0.13686 l -2.66488,0.0515 -2.66489,0.0515 -0.45731,0.34276 -0.45731,0.34277 v 2.00902 2.00901 l 1.73172,-0.0526 1.73172,-0.0526 0.34491,0.18458 c 0.36647,0.19613 0.97469,1.08186 0.97571,1.42087 l 6e-4,0.20274 h -2.33443 -2.33442 l -0.0985,0.25655 c -0.12864,0.33523 -0.12386,3.21746 0.007,4.00717 l 0.10154,0.61441 0.3427,0.19128 0.34271,0.19128 2.73931,0.0864 2.73931,0.0864 -0.47888,0.51184 -0.47887,0.51185 -0.8707,0.25856 -0.87069,0.25857 -1.95741,-0.0188 c -1.07658,-0.0104 -2.0669,-0.0405 -2.2007,-0.0669 z m 8.43397,-0.0866 -0.72986,-0.14821 -0.20274,-0.2762 c -0.2767,-0.37696 -0.25461,-1.21335 0.0523,-1.9804 l 0.25504,-0.63742 0.41454,-0.10404 c 0.58682,-0.14728 1.34177,0.0462 1.94346,0.49802 0.28396,0.21324 0.59416,0.38772 0.68932,0.38772 0.24279,0 0.20638,0.34772 -0.0754,0.72031 l -0.23813,0.31484 v 0.61776 0.61777 h -0.22302 c -0.12266,0 -0.43285,0.0311 -0.68932,0.069 -0.25646,0.038 -0.79473,0.002 -1.19616,-0.0792 z m 11.40801,0.0248 c -0.3714,-0.0626 -0.79107,-0.20988 -0.9326,-0.32734 l -0.25732,-0.21356 v -0.71521 c 0,-0.39336 0.10575,-0.96832 0.23501,-1.27767 l 0.23501,-0.56247 h 1.10646 1.10646 l 0.38538,0.70549 0.38539,0.70548 -0.0859,0.76225 c -0.0473,0.41924 -0.11272,0.78681 -0.14549,0.81682 -0.15443,0.14144 -1.42821,0.20801 -2.03238,0.10621 z m -348.6804,-0.29843 c 0.067,-0.15612 0.2254,-0.64878 0.3529,-1.0948 l 0.2316,-0.81096 -0.092,-3.52768 c -0.051,-1.94021 -0.1383,-5.13604 -0.1946,-7.10183 l -0.1024,-3.57417 0.2014,-1.25104 c 0.1107,-0.68807 0.3498,-1.64815 0.5311,-2.13351 l 0.3297,-0.88246 0.7477,-0.74772 0.7478,-0.74772 0.7765,-0.21743 0.7766,-0.21744 1.0881,0.0983 c 0.5984,0.0541 1.3618,0.17732 1.6963,0.27387 l 0.6082,0.17554 v 0.22662 c 0,0.12464 -0.1642,0.41429 -0.3649,0.64367 l -0.3649,0.41706 -1.0149,0.0473 -1.0147,0.0473 -0.2017,0.20131 -0.2016,0.20131 v 2.70892 2.70892 l 1.2164,-0.046 c 0.669,-0.0253 1.3807,-0.006 1.5814,0.0437 l 0.3649,0.0897 v 0.45834 0.45835 l -0.2883,0.26095 -0.2884,0.26096 -1.293,0.048 -1.293,0.048 -0.042,6.60931 -0.042,6.60932 h -2.2863 -2.2862 z m 8.1203,-6.0822 c -0.063,-3.50132 -0.066,-6.84044 -0.01,-7.42028 l 0.1082,-1.05424 4.1581,0.006 4.1581,0.006 1.1317,0.28471 c 1.4311,0.36002 2.4026,0.92718 2.9994,1.75104 l 0.4681,0.64613 0.1738,0.81074 c 0.096,0.44589 0.1739,1.13303 0.1739,1.52696 v 0.71624 l -0.5056,0.57576 c -0.7033,0.80116 -1.3391,1.22368 -2.442,1.62304 l -0.9478,0.34318 1.0576,1.66275 c 1.129,1.77484 1.9283,3.27168 2.2814,4.2725 l 0.2176,0.6168 h -2.3983 -2.3984 l -1.3589,-2.31124 c -0.7474,-1.27118 -1.6903,-2.94307 -2.0953,-3.71531 l -0.7363,-1.40407 0.057,2.84163 c 0.031,1.5629 0.01,3.23479 -0.052,3.71531 l -0.1092,0.87368 h -1.9096 -1.9096 z m 7.8297,-1.95409 0.6185,-0.40929 0.2686,-0.56611 c 0.3487,-0.73496 0.3352,-1.49016 -0.042,-2.32003 l -0.3031,-0.66759 -0.5448,-0.41139 c -0.7181,-0.54222 -1.6557,-0.80344 -2.6521,-0.73881 l -0.8096,0.0525 -0.1177,0.81096 c -0.065,0.44603 -0.1381,1.65027 -0.1634,2.6761 l -0.046,1.86513 0.5677,0.10983 c 0.3123,0.0604 1.0261,0.0869 1.5863,0.0589 l 1.0187,-0.0509 z m 126.53002,-2.95221 v -11.27234 h 2.18959 2.18959 v 6.55142 6.55142 l 0.25655,0.0984 c 0.1411,0.0541 1.26809,0.0984 2.5044,0.0984 h 2.24785 l 0.13121,-0.20274 c 0.0722,-0.11151 0.13644,-1.22456 0.1428,-2.47343 0.006,-1.24888 0.0246,-2.39841 0.0405,-2.55452 l 0.029,-0.28384 h 2.10849 2.10849 v 7.37973 7.37973 h -2.10849 -2.10849 v -3.64361 -3.64361 l -0.31373,-0.1679 -0.31371,-0.1679 h -2.36245 -2.36244 v 3.81151 3.81151 h -2.18959 -2.18959 z m 23.84263,10.9885 c 0.002,-1.15261 1.68026,-6.53954 3.5763,-11.47775 l 1.33786,-3.48445 h 0.51381 c 0.2826,0 0.88134,0.10914 1.33053,0.24253 l 0.81671,0.24254 0.75611,0.66556 c 1.42308,1.25265 2.02405,2.6531 3.35512,7.81851 l 0.96377,3.74006 0.61504,1.26841 0.61503,1.26842 -1.87186,-0.003 -1.87187,-0.003 -0.63381,-1.6191 -0.63382,-1.61911 h -3.04428 -3.04427 l -0.33615,0.42735 c -0.18489,0.23505 -0.33656,0.50874 -0.33707,0.60822 -0.002,0.50969 -0.39509,1.48367 -0.73493,1.8235 l -0.38476,0.38477 h -0.49395 -0.49394 z m 8.21412,-4.95721 c 0.0439,-0.0439 -0.062,-0.36063 -0.2353,-0.70379 -0.17333,-0.34317 -0.51288,-1.31731 -0.75454,-2.16476 -0.47505,-1.66588 -1.12419,-3.01702 -1.56209,-3.25137 l -0.27449,-0.14691 -0.0869,0.27996 c -0.0478,0.15398 -0.49377,1.47394 -0.99105,2.93324 -0.49728,1.45931 -0.90414,2.75148 -0.90414,2.8715 v 0.21821 l 1.09479,0.0668 c 1.27337,0.0777 3.59747,0.0133 3.71373,-0.10292 z m 22.60189,-6.03129 v -11.27234 h 2.10849 2.1085 v 6.32548 c 0,3.47902 0.0547,6.32478 0.12164,6.32392 0.21471,-0.003 1.38075,-1.01738 2.81412,-2.44862 l 1.39494,-1.39287 1.02329,-0.51135 c 0.56282,-0.28124 1.1863,-0.51135 1.38552,-0.51135 h 0.36223 l 0.10207,0.26602 0.10209,0.26602 -0.36857,0.25739 c -0.20271,0.14156 -0.79979,0.62399 -1.32684,1.07206 l -0.95827,0.81468 -0.31619,0.61126 -0.31619,0.61126 0.10689,0.56978 0.10689,0.56978 1.29389,1.93568 c 0.71164,1.06462 1.94668,2.75924 2.74456,3.76581 1.39112,1.75502 2.10709,2.87132 2.34407,3.65478 l 0.11038,0.36494 h -2.59278 -2.59278 l -1.70008,-2.55452 c -0.93505,-1.40499 -2.12267,-3.06208 -2.63916,-3.68242 l -0.93908,-1.1279 -0.1415,0.47913 -0.14149,0.47913 0.0991,2.92638 c 0.0545,1.6095 0.0513,3.05098 -0.007,3.20329 l -0.10627,0.27691 h -2.09114 -2.09114 z m 27.84158,9.20438 c -0.13508,-2.64872 -0.13551,-8.13561 -6.1e-4,-10.74521 l 0.10464,-2.02739 3.10043,-0.0537 3.10043,-0.0537 1.53839,0.17179 c 1.99403,0.22266 3.06546,0.55042 3.91216,1.19677 l 0.68508,0.52296 0.40335,0.80934 0.40335,0.80935 0.0136,1.24923 0.0136,1.24924 -0.56767,0.59654 -0.56767,0.59655 -1.13077,0.54817 c -0.62192,0.30148 -1.22406,0.54816 -1.33808,0.54816 -0.31432,0 -0.28927,0.053 0.90585,1.91497 1.21381,1.89115 1.63496,2.66632 2.12751,3.91592 l 0.3228,0.81897 h -2.40864 -2.40864 l -1.58513,-2.68952 c -0.87182,-1.47923 -1.82456,-3.16539 -2.1172,-3.74702 l -0.53206,-1.05752 0.0908,2.49004 c 0.05,1.36953 0.0378,3.05569 -0.027,3.74704 l -0.11783,1.25698 h -1.90744 -1.90743 z m 7.60063,-6.14239 0.64547,-0.33341 0.37172,-0.63443 0.37172,-0.63442 -0.0637,-0.76643 -0.0637,-0.76643 -0.4415,-0.66713 -0.44149,-0.66714 -0.87245,-0.39942 -0.87245,-0.39943 -0.93378,0.0489 -0.93378,0.0489 -0.1337,0.64666 c -0.0735,0.35566 -0.1495,1.55814 -0.1688,2.67216 l -0.0351,2.02551 0.48658,0.11468 c 0.26761,0.0631 0.92598,0.099 1.46302,0.0798 l 0.97644,-0.0349 z m 23.06982,-1.07514 -0.0419,-9.28548 -1.47204,0.0572 -1.47204,0.0572 -0.27152,-0.27153 -0.27152,-0.27152 v -0.55608 -0.5561 h 0.28752 c 0.15815,0 1.88265,-0.18246 3.83224,-0.40547 1.94959,-0.22302 3.60837,-0.40548 3.68617,-0.40548 h 0.14146 v 10.46137 10.46137 h -2.18826 -2.18826 z m 13.66333,9.14104 c 0,-0.19868 1.71018,-2.79102 3.34653,-5.07276 0.74637,-1.04074 1.35703,-1.91896 1.35703,-1.9516 0,-0.0327 -0.49931,-0.0311 -1.10958,0.003 l -1.10958,0.0627 -0.91985,-0.19097 c -0.50593,-0.10502 -1.4116,-0.43701 -2.01262,-0.73774 l -1.09275,-0.54678 -0.94281,-0.94157 -0.94282,-0.94157 -0.507,-1.05425 -0.507,-1.05424 -0.0691,-1.39457 -0.0691,-1.39457 0.27684,-0.95234 c 0.73406,-2.52507 2.18926,-4.02143 4.67259,-4.80477 l 1.00789,-0.31792 1.70301,0.003 1.70302,0.003 0.97315,0.2576 c 0.53523,0.14168 1.50657,0.50918 2.15853,0.81666 l 1.18537,0.55905 0.93206,0.9361 c 1.51001,1.51654 1.96842,2.82716 1.96842,5.62772 v 1.4846 l -0.25093,0.96668 c -0.58623,2.25838 -1.48901,3.63856 -4.58653,7.01191 -1.15953,1.26278 -2.34599,2.62704 -2.63658,3.03168 l -0.52834,0.7357 h -1.99991 -1.9999 z m 4.27905,-8.76887 c 1.21788,-0.46304 2.33646,-2.07186 2.79505,-4.02004 l 0.25805,-1.09624 -0.0811,-1.23626 -0.0811,-1.23626 -0.34984,-0.79114 c -0.38967,-0.88121 -1.00168,-1.59575 -1.66247,-1.94096 l -0.43798,-0.22881 -0.77847,0.004 -0.77846,0.004 -0.65016,0.29536 c -1.24641,0.56623 -2.13885,1.94906 -2.52518,3.91279 l -0.19519,0.99213 0.0953,1.08616 c 0.27454,3.13021 2.26899,5.06315 4.39158,4.25614 z m -137.69505,-8.59835 c -0.18569,-0.0751 -0.53237,-0.36804 -0.77041,-0.65093 l -0.4328,-0.51436 v -0.77664 -0.77664 l 0.33309,-0.42345 0.33308,-0.42345 0.60593,-0.18154 0.60592,-0.18154 0.64236,0.1776 c 0.3533,0.0977 0.75184,0.24793 0.88565,0.33391 l 0.24329,0.15631 v 0.93852 0.93852 l -0.45287,0.77041 -0.45286,0.77041 -0.60139,-0.0103 c -0.33076,-0.006 -0.7533,-0.0717 -0.93899,-0.14686 z m -5.0902,-0.21838 -0.56205,-0.19216 -0.38451,-0.56767 -0.3845,-0.56767 0.085,-0.64877 0.085,-0.64876 0.47489,-0.42437 0.4749,-0.42435 0.75954,-0.1139 c 0.41774,-0.0627 0.96936,-0.0678 1.22581,-0.0115 l 0.46628,0.10242 0.17451,0.50059 c 0.096,0.27533 0.17451,0.81255 0.17451,1.19382 v 0.69321 l -0.41261,0.49036 c -0.37315,0.44346 -0.60775,0.57231 -1.37151,0.75325 -0.1338,0.0317 -0.49621,-0.0288 -0.80534,-0.13451 z m 52.9925,-7.76 c -2.75404,-4.97314 -13.92019,-27.32951 -26.8819,-53.82176 -8.78188,-17.94916 -17.7678,-36.00714 -22.2242,-44.66147 l -3.16215,-6.1409 -0.0408,51.35188 -0.0408,51.35187 h -4.21674 -4.21673 v -63.24576 -63.24577 l 0.37022,-0.43041 0.37022,-0.43042 9.06571,-0.0796 9.06569,-0.0796 2.47145,0.1869 c 1.3593,0.10279 2.67834,0.24206 2.9312,0.30949 l 0.45976,0.12258 2.16114,4.04349 c 9.71991,18.18596 20.56753,40.11113 40.25904,81.37142 l 3.15572,6.61229 0.24328,-0.35294 c 1.14546,-1.66173 12.97283,-24.36086 26.3553,-50.58123 10.5294,-20.63033 16.42278,-32.05995 20.50338,-39.76426 l 0.74462,-1.40589 0.48658,-0.099 c 0.26761,-0.0544 1.3989,-0.17415 2.51397,-0.26597 l 2.0274,-0.16696 8.06926,0.05 8.06925,0.05 0.0768,0.48658 c 0.33662,2.13191 0.51623,39.57658 0.44988,93.78742 l -0.0405,33.12767 h -12.56987 -12.56986 l -0.002,-50.56329 -0.002,-50.5633 -0.66497,1.21643 c -7.34692,13.43987 -16.12591,30.53326 -39.35929,76.63564 -6.24879,12.39956 -11.79491,23.37234 -12.32472,24.38395 l -0.96329,1.83928 z m -272.68164,-3.40707 c -11.6913,-25.11332 -26.9657,-59.31396 -42.5807,-95.34183 -5.0146,-11.57027 -13.1375,-30.47897 -13.1375,-30.5821 0,-0.0397 6.0761,-0.072 13.5025,-0.0719 l 13.5025,2.3e-4 0.3671,0.90122 c 0.8722,2.14027 10.5506,24.17327 17.8938,40.73511 8.0942,18.2558 16.1125,36.38796 18.4006,41.61011 l 1.2622,2.88084 0.7912,-1.90769 c 1.4977,-3.61117 4.7132,-11.98275 8.8302,-22.98983 l 4.1264,-11.03184 -1.0074,-2.43288 c -1.4337,-3.46235 -4.4515,-10.22422 -8.2517,-18.48986 -5.1543,-11.2104 -7.5209,-16.61751 -9.6694,-22.09173 -0.9083,-2.31451 -2.6565,-7.01152 -2.6565,-7.13771 0,-0.0254 5.9742,-0.0462 13.2761,-0.0462 h 13.2761 l 2.2399,4.9063 c 9.7491,21.35445 20.668,45.99297 31.7879,71.72934 2.1198,4.9063 3.8705,8.94063 3.8904,8.96517 0.1542,0.19057 7.48272,-18.64689 15.60282,-40.106 7.7021,-20.35437 12.3901,-32.46781 16.6171,-42.93758 l 1.0303,-2.55181 4.0142,-0.002 4.0143,-0.002 v 0.16359 c 0,0.16354 -2.2711,6.42681 -5.3219,14.67696 -3.3049,8.93728 -9.146,24.43888 -17.1426,45.49481 -12.4593,32.80681 -18.73452,49.60103 -24.01422,64.26851 -1.0516,2.92148 -1.9663,5.31178 -2.0325,5.31178 -0.5881,0 -8.8895,-18.05715 -17.3361,-37.7096 -6.6421,-15.45377 -10.8434,-24.98333 -13.0972,-29.70702 l -0.4767,-0.99907 -1.8305,4.72949 c -7.7606,20.05085 -16.0084,42.04069 -21.8186,58.17168 -1.0443,2.89918 -1.9528,5.36858 -2.0189,5.48756 l -0.1203,0.21632 z m 370.52192,-2.40591 v -6.48768 h 6.48767 6.48768 v 6.48768 6.48767 h -6.48768 -6.48767 z m 19.46302,0 v -6.48768 h 6.48767 6.48767 v 6.48768 6.48767 h -6.48767 -6.48767 z m 19.46301,0 v -6.48768 h 6.48768 6.48767 v 6.48768 6.48767 h -6.48767 -6.48768 z m 19.46302,0 v -6.48768 h 6.48767 6.48767 v 6.48768 6.48767 h -6.48767 -6.48767 z m -311.08395,-59.12413 v -63.01673 l 0.2268,-0.54267 c 0.1247,-0.29846 0.3085,-0.5932 0.4085,-0.65497 0.1,-0.0618 13.993,-0.15049 30.8735,-0.19715 l 30.6918,-0.0848 8.1907,0.17725 c 4.5049,0.0975 9.04827,0.22413 10.09643,0.28142 l 1.90576,0.10417 v 3.78853 3.78853 h -28.54579 -28.5457 v 24.08549 24.08548 h 26.5266 26.52665 l 0.27556,0.60822 0.27556,0.60822 0.0157,3.60877 0.0157,3.60876 h -26.81787 -26.8179 v 31.38412 31.38412 h -12.651 -12.651 z m -251.23512,-58.05946 v -6.40658 h 6.4066 6.4066 v 6.40658 6.40658 h -6.4066 -6.4066 z m 19.463,0 v -6.40658 h 6.4066 6.4066 v 6.40658 6.40658 h -6.4066 -6.4066 z m 19.463,0 v -6.40658 h 6.4877 6.4877 v 6.40658 6.40658 h -6.4877 -6.4877 z m 19.4631,0 v -6.40658 h 6.4876 6.4877 v 6.40658 6.40658 h -6.4877 -6.4876 z"
       id="path198" /></g><style
     id="style1">@media(prefers-color-scheme:dark){.lines{fill:#d7d7d7}}</style></svg>
